G04 #@! TF.GenerationSoftware,KiCad,Pcbnew,(6.0.9)*
G04 #@! TF.CreationDate,2022-11-13T14:03:06+01:00*
G04 #@! TF.ProjectId,arisu,61726973-752e-46b6-9963-61645f706362,1.1*
G04 #@! TF.SameCoordinates,Original*
G04 #@! TF.FileFunction,Soldermask,Top*
G04 #@! TF.FilePolarity,Negative*
%FSLAX46Y46*%
G04 Gerber Fmt 4.6, Leading zero omitted, Abs format (unit mm)*
G04 Created by KiCad (PCBNEW (6.0.9)) date 2022-11-13 14:03:06*
%MOMM*%
%LPD*%
G01*
G04 APERTURE LIST*
G04 Aperture macros list*
%AMRoundRect*
0 Rectangle with rounded corners*
0 $1 Rounding radius*
0 $2 $3 $4 $5 $6 $7 $8 $9 X,Y pos of 4 corners*
0 Add a 4 corners polygon primitive as box body*
4,1,4,$2,$3,$4,$5,$6,$7,$8,$9,$2,$3,0*
0 Add four circle primitives for the rounded corners*
1,1,$1+$1,$2,$3*
1,1,$1+$1,$4,$5*
1,1,$1+$1,$6,$7*
1,1,$1+$1,$8,$9*
0 Add four rect primitives between the rounded corners*
20,1,$1+$1,$2,$3,$4,$5,0*
20,1,$1+$1,$4,$5,$6,$7,0*
20,1,$1+$1,$6,$7,$8,$9,0*
20,1,$1+$1,$8,$9,$2,$3,0*%
G04 Aperture macros list end*
%ADD10RoundRect,0.294750X-0.456250X0.243750X-0.456250X-0.243750X0.456250X-0.243750X0.456250X0.243750X0*%
G04 APERTURE END LIST*
G36*
X24397395Y-303398170D02*
G01*
X24492991Y-303434613D01*
X24616947Y-303515765D01*
X24696628Y-303573326D01*
X24842917Y-303680634D01*
X24958048Y-303766799D01*
X25016754Y-303812885D01*
X25017997Y-303873511D01*
X24973066Y-303984133D01*
X24939418Y-304043652D01*
X24863971Y-304179328D01*
X24766469Y-304372514D01*
X24664176Y-304588592D01*
X24630483Y-304663117D01*
X24410883Y-305121969D01*
X24146426Y-305620208D01*
X23857548Y-306121326D01*
X23564685Y-306588820D01*
X23488112Y-306703755D01*
X23141499Y-307216386D01*
X23583249Y-307626135D01*
X23847109Y-307875921D01*
X24127344Y-308150110D01*
X24415095Y-308439181D01*
X24701504Y-308733617D01*
X24977716Y-309023898D01*
X25234870Y-309300508D01*
X25464111Y-309553925D01*
X25656580Y-309774633D01*
X25803420Y-309953113D01*
X25895772Y-310079845D01*
X25925000Y-310142622D01*
X25890483Y-310192683D01*
X25799214Y-310290826D01*
X25669609Y-310419781D01*
X25520087Y-310562282D01*
X25369067Y-310701060D01*
X25234966Y-310818848D01*
X25136203Y-310898378D01*
X25092668Y-310922961D01*
X25057234Y-310884465D01*
X24975567Y-310782511D01*
X24861048Y-310634083D01*
X24767021Y-310509647D01*
X24530942Y-310210513D01*
X24236362Y-309862523D01*
X23899369Y-309483559D01*
X23536053Y-309091501D01*
X23162502Y-308704232D01*
X22958898Y-308500131D01*
X22457072Y-308003615D01*
X22328900Y-308156239D01*
X22225537Y-308265879D01*
X22061090Y-308424652D01*
X21851794Y-308618148D01*
X21613883Y-308831958D01*
X21363592Y-309051673D01*
X21117156Y-309262881D01*
X20890808Y-309451174D01*
X20700784Y-309602141D01*
X20694421Y-309607006D01*
X20071860Y-310049698D01*
X19400213Y-310468792D01*
X19082261Y-310648166D01*
X18639523Y-310889182D01*
X17795839Y-310043834D01*
X18085419Y-309927145D01*
X18364668Y-309801440D01*
X18696991Y-309630892D01*
X19055420Y-309430716D01*
X19412987Y-309216127D01*
X19742722Y-309002343D01*
X19825000Y-308945670D01*
X20587471Y-308367550D01*
X21284643Y-307747409D01*
X21909780Y-307093023D01*
X22456143Y-306412172D01*
X22916997Y-305712634D01*
X23285604Y-305002188D01*
X23331887Y-304896646D01*
X23408155Y-304715767D01*
X23466359Y-304572552D01*
X23497302Y-304489845D01*
X23500000Y-304479116D01*
X23451620Y-304474474D01*
X23312958Y-304470803D01*
X23093723Y-304468135D01*
X22803630Y-304466504D01*
X22452389Y-304465942D01*
X22049713Y-304466482D01*
X21605313Y-304468158D01*
X21128903Y-304471003D01*
X21124981Y-304471030D01*
X18749963Y-304487772D01*
X18749962Y-303961736D01*
X18749962Y-303435700D01*
X21315954Y-303452138D01*
X21890686Y-303454808D01*
X22418904Y-303455250D01*
X22892624Y-303453556D01*
X23303862Y-303449817D01*
X23644634Y-303444125D01*
X23906955Y-303436571D01*
X24082842Y-303427245D01*
X24150101Y-303419741D01*
X24294864Y-303396519D01*
X24397395Y-303398170D01*
G37*
G36*
X22000000Y-286826043D02*
G01*
X21975733Y-287634740D01*
X21900783Y-288362220D01*
X21771922Y-289015462D01*
X21585923Y-289601446D01*
X21339559Y-290127148D01*
X21029603Y-290599550D01*
X20652828Y-291025629D01*
X20206006Y-291412364D01*
X19727090Y-291741397D01*
X19546753Y-291849379D01*
X19394651Y-291933368D01*
X19293074Y-291981386D01*
X19267889Y-291988166D01*
X19206472Y-291957889D01*
X19087153Y-291875843D01*
X18928176Y-291755208D01*
X18778629Y-291634761D01*
X18350659Y-291281356D01*
X18787829Y-291059993D01*
X19310303Y-290759095D01*
X19754212Y-290422178D01*
X20122724Y-290042961D01*
X20419008Y-289615163D01*
X20646234Y-289132503D01*
X20807570Y-288588700D01*
X20906187Y-287977473D01*
X20945252Y-287292540D01*
X20939871Y-286794651D01*
X20917259Y-286126628D01*
X22000000Y-286126628D01*
X22000000Y-286826043D01*
G37*
G36*
X17926210Y-284199811D02*
G01*
X17937500Y-284204995D01*
X18000564Y-284212041D01*
X18155652Y-284218981D01*
X18394785Y-284225705D01*
X18709988Y-284232103D01*
X19093283Y-284238066D01*
X19536694Y-284243486D01*
X20032242Y-284248251D01*
X20571952Y-284252254D01*
X21147847Y-284255384D01*
X21751948Y-284257532D01*
X21770523Y-284257581D01*
X25516047Y-284267232D01*
X25782379Y-284530774D01*
X25918317Y-284670534D01*
X25990264Y-284762644D01*
X26009215Y-284825747D01*
X25986855Y-284877559D01*
X25934515Y-284951368D01*
X25840176Y-285087462D01*
X25718047Y-285265256D01*
X25604903Y-285430992D01*
X25136936Y-286087729D01*
X24687644Y-286654551D01*
X24250965Y-287138625D01*
X23820837Y-287547120D01*
X23800000Y-287565167D01*
X23631718Y-287707953D01*
X23485672Y-287827660D01*
X23382363Y-287907693D01*
X23349911Y-287929500D01*
X23281220Y-287927156D01*
X23163360Y-287865433D01*
X22987590Y-287739298D01*
X22899911Y-287670322D01*
X22736987Y-287537264D01*
X22606664Y-287425899D01*
X22526885Y-287351819D01*
X22510900Y-287332242D01*
X22540504Y-287285278D01*
X22631650Y-287207776D01*
X22700359Y-287159357D01*
X22978939Y-286951744D01*
X23284277Y-286685745D01*
X23595834Y-286382697D01*
X23893074Y-286063936D01*
X24155459Y-285750800D01*
X24362452Y-285464623D01*
X24417862Y-285375037D01*
X24510725Y-285216250D01*
X21180349Y-285233076D01*
X17849974Y-285249902D01*
X17849987Y-284705982D01*
X17851202Y-284467541D01*
X17856674Y-284313494D01*
X17869160Y-284228052D01*
X17891419Y-284195421D01*
X17926210Y-284199811D01*
G37*
G36*
X20175000Y-298601193D02*
G01*
X19625000Y-298601200D01*
X19075000Y-298601208D01*
X19075000Y-293691556D01*
X20175000Y-293691532D01*
X20175000Y-298601193D01*
G37*
G36*
X24812509Y-295232017D02*
G01*
X24804776Y-295900660D01*
X24792092Y-296479303D01*
X24773851Y-296978050D01*
X24749447Y-297407001D01*
X24718274Y-297776261D01*
X24679727Y-298095932D01*
X24633200Y-298376116D01*
X24620063Y-298442083D01*
X24446832Y-299045723D01*
X24186158Y-299601003D01*
X23838362Y-300107586D01*
X23403768Y-300565134D01*
X22882697Y-300973309D01*
X22275474Y-301331773D01*
X21582419Y-301640189D01*
X21554661Y-301650816D01*
X21301317Y-301747269D01*
X20895242Y-301317432D01*
X20489166Y-300887595D01*
X20957083Y-300731668D01*
X21598098Y-300479807D01*
X22151462Y-300180369D01*
X22617882Y-299832696D01*
X22998066Y-299436130D01*
X23292722Y-298990013D01*
X23502557Y-298493688D01*
X23553808Y-298316850D01*
X23598713Y-298087681D01*
X23638793Y-297774392D01*
X23673473Y-297392974D01*
X23702180Y-296959413D01*
X23724337Y-296489697D01*
X23739372Y-295999816D01*
X23746709Y-295505756D01*
X23745774Y-295023506D01*
X23735993Y-294569054D01*
X23716790Y-294158389D01*
X23707868Y-294029685D01*
X23674445Y-293591322D01*
X24249722Y-293591287D01*
X24825000Y-293591252D01*
X24812509Y-295232017D01*
G37*
G36*
X24397395Y-303398170D02*
G01*
X24492991Y-303434613D01*
X24616947Y-303515765D01*
X24696628Y-303573326D01*
X24842917Y-303680634D01*
X24958048Y-303766799D01*
X25016754Y-303812885D01*
X25017997Y-303873511D01*
X24973066Y-303984133D01*
X24939418Y-304043652D01*
X24863971Y-304179328D01*
X24766469Y-304372514D01*
X24664176Y-304588592D01*
X24630483Y-304663117D01*
X24410883Y-305121969D01*
X24146426Y-305620208D01*
X23857548Y-306121326D01*
X23564685Y-306588820D01*
X23488112Y-306703755D01*
X23141499Y-307216386D01*
X23583249Y-307626135D01*
X23847109Y-307875921D01*
X24127344Y-308150110D01*
X24415095Y-308439181D01*
X24701504Y-308733617D01*
X24977716Y-309023898D01*
X25234870Y-309300508D01*
X25464111Y-309553925D01*
X25656580Y-309774633D01*
X25803420Y-309953113D01*
X25895772Y-310079845D01*
X25925000Y-310142622D01*
X25890483Y-310192683D01*
X25799214Y-310290826D01*
X25669609Y-310419781D01*
X25520087Y-310562282D01*
X25369067Y-310701060D01*
X25234966Y-310818848D01*
X25136203Y-310898378D01*
X25092668Y-310922961D01*
X25057234Y-310884465D01*
X24975567Y-310782511D01*
X24861048Y-310634083D01*
X24767021Y-310509647D01*
X24530942Y-310210513D01*
X24236362Y-309862523D01*
X23899369Y-309483559D01*
X23536053Y-309091501D01*
X23162502Y-308704232D01*
X22958898Y-308500131D01*
X22457072Y-308003615D01*
X22328900Y-308156239D01*
X22225537Y-308265879D01*
X22061090Y-308424652D01*
X21851794Y-308618148D01*
X21613883Y-308831958D01*
X21363592Y-309051673D01*
X21117156Y-309262881D01*
X20890808Y-309451174D01*
X20700784Y-309602141D01*
X20694421Y-309607006D01*
X20071860Y-310049698D01*
X19400213Y-310468792D01*
X19082261Y-310648166D01*
X18639523Y-310889182D01*
X17795839Y-310043834D01*
X18085419Y-309927145D01*
X18364668Y-309801440D01*
X18696991Y-309630892D01*
X19055420Y-309430716D01*
X19412987Y-309216127D01*
X19742722Y-309002343D01*
X19825000Y-308945670D01*
X20587471Y-308367550D01*
X21284643Y-307747409D01*
X21909780Y-307093023D01*
X22456143Y-306412172D01*
X22916997Y-305712634D01*
X23285604Y-305002188D01*
X23331887Y-304896646D01*
X23408155Y-304715767D01*
X23466359Y-304572552D01*
X23497302Y-304489845D01*
X23500000Y-304479116D01*
X23451620Y-304474474D01*
X23312958Y-304470803D01*
X23093723Y-304468135D01*
X22803630Y-304466504D01*
X22452389Y-304465942D01*
X22049713Y-304466482D01*
X21605313Y-304468158D01*
X21128903Y-304471003D01*
X21124981Y-304471030D01*
X18749963Y-304487772D01*
X18749962Y-303961736D01*
X18749962Y-303435700D01*
X21315954Y-303452138D01*
X21890686Y-303454808D01*
X22418904Y-303455250D01*
X22892624Y-303453556D01*
X23303862Y-303449817D01*
X23644634Y-303444125D01*
X23906955Y-303436571D01*
X24082842Y-303427245D01*
X24150101Y-303419741D01*
X24294864Y-303396519D01*
X24397395Y-303398170D01*
G37*
G36*
X22000000Y-286826043D02*
G01*
X21975733Y-287634740D01*
X21900783Y-288362220D01*
X21771922Y-289015462D01*
X21585923Y-289601446D01*
X21339559Y-290127148D01*
X21029603Y-290599550D01*
X20652828Y-291025629D01*
X20206006Y-291412364D01*
X19727090Y-291741397D01*
X19546753Y-291849379D01*
X19394651Y-291933368D01*
X19293074Y-291981386D01*
X19267889Y-291988166D01*
X19206472Y-291957889D01*
X19087153Y-291875843D01*
X18928176Y-291755208D01*
X18778629Y-291634761D01*
X18350659Y-291281356D01*
X18787829Y-291059993D01*
X19310303Y-290759095D01*
X19754212Y-290422178D01*
X20122724Y-290042961D01*
X20419008Y-289615163D01*
X20646234Y-289132503D01*
X20807570Y-288588700D01*
X20906187Y-287977473D01*
X20945252Y-287292540D01*
X20939871Y-286794651D01*
X20917259Y-286126628D01*
X22000000Y-286126628D01*
X22000000Y-286826043D01*
G37*
G36*
X17926210Y-284199811D02*
G01*
X17937500Y-284204995D01*
X18000564Y-284212041D01*
X18155652Y-284218981D01*
X18394785Y-284225705D01*
X18709988Y-284232103D01*
X19093283Y-284238066D01*
X19536694Y-284243486D01*
X20032242Y-284248251D01*
X20571952Y-284252254D01*
X21147847Y-284255384D01*
X21751948Y-284257532D01*
X21770523Y-284257581D01*
X25516047Y-284267232D01*
X25782379Y-284530774D01*
X25918317Y-284670534D01*
X25990264Y-284762644D01*
X26009215Y-284825747D01*
X25986855Y-284877559D01*
X25934515Y-284951368D01*
X25840176Y-285087462D01*
X25718047Y-285265256D01*
X25604903Y-285430992D01*
X25136936Y-286087729D01*
X24687644Y-286654551D01*
X24250965Y-287138625D01*
X23820837Y-287547120D01*
X23800000Y-287565167D01*
X23631718Y-287707953D01*
X23485672Y-287827660D01*
X23382363Y-287907693D01*
X23349911Y-287929500D01*
X23281220Y-287927156D01*
X23163360Y-287865433D01*
X22987590Y-287739298D01*
X22899911Y-287670322D01*
X22736987Y-287537264D01*
X22606664Y-287425899D01*
X22526885Y-287351819D01*
X22510900Y-287332242D01*
X22540504Y-287285278D01*
X22631650Y-287207776D01*
X22700359Y-287159357D01*
X22978939Y-286951744D01*
X23284277Y-286685745D01*
X23595834Y-286382697D01*
X23893074Y-286063936D01*
X24155459Y-285750800D01*
X24362452Y-285464623D01*
X24417862Y-285375037D01*
X24510725Y-285216250D01*
X21180349Y-285233076D01*
X17849974Y-285249902D01*
X17849987Y-284705982D01*
X17851202Y-284467541D01*
X17856674Y-284313494D01*
X17869160Y-284228052D01*
X17891419Y-284195421D01*
X17926210Y-284199811D01*
G37*
G36*
X20175000Y-298601193D02*
G01*
X19625000Y-298601200D01*
X19075000Y-298601208D01*
X19075000Y-293691556D01*
X20175000Y-293691532D01*
X20175000Y-298601193D01*
G37*
G36*
X24812509Y-295232017D02*
G01*
X24804776Y-295900660D01*
X24792092Y-296479303D01*
X24773851Y-296978050D01*
X24749447Y-297407001D01*
X24718274Y-297776261D01*
X24679727Y-298095932D01*
X24633200Y-298376116D01*
X24620063Y-298442083D01*
X24446832Y-299045723D01*
X24186158Y-299601003D01*
X23838362Y-300107586D01*
X23403768Y-300565134D01*
X22882697Y-300973309D01*
X22275474Y-301331773D01*
X21582419Y-301640189D01*
X21554661Y-301650816D01*
X21301317Y-301747269D01*
X20895242Y-301317432D01*
X20489166Y-300887595D01*
X20957083Y-300731668D01*
X21598098Y-300479807D01*
X22151462Y-300180369D01*
X22617882Y-299832696D01*
X22998066Y-299436130D01*
X23292722Y-298990013D01*
X23502557Y-298493688D01*
X23553808Y-298316850D01*
X23598713Y-298087681D01*
X23638793Y-297774392D01*
X23673473Y-297392974D01*
X23702180Y-296959413D01*
X23724337Y-296489697D01*
X23739372Y-295999816D01*
X23746709Y-295505756D01*
X23745774Y-295023506D01*
X23735993Y-294569054D01*
X23716790Y-294158389D01*
X23707868Y-294029685D01*
X23674445Y-293591322D01*
X24249722Y-293591287D01*
X24825000Y-293591252D01*
X24812509Y-295232017D01*
G37*
D10*
X69000000Y-214062500D03*
X69000000Y-215937500D03*
X26289997Y-214062500D03*
X26289997Y-215937500D03*
M02*
