G04 #@! TF.GenerationSoftware,KiCad,Pcbnew,(6.0.9)*
G04 #@! TF.CreationDate,2022-11-13T14:03:06+01:00*
G04 #@! TF.ProjectId,arisu,61726973-752e-46b6-9963-61645f706362,1.1*
G04 #@! TF.SameCoordinates,Original*
G04 #@! TF.FileFunction,Soldermask,Bot*
G04 #@! TF.FilePolarity,Negative*
%FSLAX46Y46*%
G04 Gerber Fmt 4.6, Leading zero omitted, Abs format (unit mm)*
G04 Created by KiCad (PCBNEW (6.0.9)) date 2022-11-13 14:03:06*
%MOMM*%
%LPD*%
G01*
G04 APERTURE LIST*
G04 Aperture macros list*
%AMRoundRect*
0 Rectangle with rounded corners*
0 $1 Rounding radius*
0 $2 $3 $4 $5 $6 $7 $8 $9 X,Y pos of 4 corners*
0 Add a 4 corners polygon primitive as box body*
4,1,4,$2,$3,$4,$5,$6,$7,$8,$9,$2,$3,0*
0 Add four circle primitives for the rounded corners*
1,1,$1+$1,$2,$3*
1,1,$1+$1,$4,$5*
1,1,$1+$1,$6,$7*
1,1,$1+$1,$8,$9*
0 Add four rect primitives between the rounded corners*
20,1,$1+$1,$2,$3,$4,$5,0*
20,1,$1+$1,$4,$5,$6,$7,0*
20,1,$1+$1,$6,$7,$8,$9,0*
20,1,$1+$1,$8,$9,$2,$3,0*%
G04 Aperture macros list end*
%ADD10C,0.150000*%
%ADD11RoundRect,0.301000X0.450000X-0.262500X0.450000X0.262500X-0.450000X0.262500X-0.450000X-0.262500X0*%
%ADD12RoundRect,0.051000X-0.500000X1.000000X-0.500000X-1.000000X0.500000X-1.000000X0.500000X1.000000X0*%
G04 APERTURE END LIST*
D10*
X49500000Y-223000000D02*
X60500000Y-223000000D01*
X60500000Y-223000000D02*
X60500000Y-213500000D01*
X60500000Y-213500000D02*
X49500000Y-213500000D01*
X49500000Y-213500000D02*
X49500000Y-223000000D01*
G36*
X49500000Y-223000000D02*
G01*
X60500000Y-223000000D01*
X60500000Y-213500000D01*
X49500000Y-213500000D01*
X49500000Y-223000000D01*
G37*
X49500000Y-223000000D02*
X60500000Y-223000000D01*
X60500000Y-223000000D02*
X60500000Y-213500000D01*
X60500000Y-213500000D02*
X49500000Y-213500000D01*
X49500000Y-213500000D02*
X49500000Y-223000000D01*
G36*
X49500000Y-223000000D02*
G01*
X60500000Y-223000000D01*
X60500000Y-213500000D01*
X49500000Y-213500000D01*
X49500000Y-223000000D01*
G37*
D11*
X24250000Y-289012500D03*
X24250000Y-287187500D03*
D12*
X60000000Y-314000000D03*
X61270000Y-314000000D03*
X62540000Y-314000000D03*
D11*
X21300000Y-289012500D03*
X21300000Y-287187500D03*
G36*
X61810660Y-312967494D02*
G01*
X61818320Y-312972612D01*
X61818492Y-312972740D01*
X61855946Y-313004040D01*
X61924661Y-313012671D01*
X61987291Y-312982707D01*
X61994800Y-312974040D01*
X61996690Y-312973386D01*
X61998202Y-312974696D01*
X61997975Y-312976461D01*
X61994767Y-312981262D01*
X61991000Y-313000199D01*
X61991000Y-314999801D01*
X61994767Y-315018737D01*
X62002114Y-315029732D01*
X62002245Y-315031727D01*
X62000582Y-315032839D01*
X61999340Y-315032506D01*
X61991680Y-315027388D01*
X61991508Y-315027260D01*
X61954054Y-314995960D01*
X61885339Y-314987329D01*
X61822709Y-315017293D01*
X61815200Y-315025960D01*
X61813310Y-315026614D01*
X61811798Y-315025304D01*
X61812025Y-315023539D01*
X61815233Y-315018738D01*
X61819000Y-314999801D01*
X61819000Y-313000199D01*
X61815233Y-312981263D01*
X61807886Y-312970268D01*
X61807755Y-312968273D01*
X61809418Y-312967161D01*
X61810660Y-312967494D01*
G37*
G36*
X60540660Y-312967494D02*
G01*
X60548320Y-312972612D01*
X60548492Y-312972740D01*
X60585946Y-313004040D01*
X60654661Y-313012671D01*
X60717291Y-312982707D01*
X60724800Y-312974040D01*
X60726690Y-312973386D01*
X60728202Y-312974696D01*
X60727975Y-312976461D01*
X60724767Y-312981262D01*
X60721000Y-313000199D01*
X60721000Y-314999801D01*
X60724767Y-315018737D01*
X60732114Y-315029732D01*
X60732245Y-315031727D01*
X60730582Y-315032839D01*
X60729340Y-315032506D01*
X60721680Y-315027388D01*
X60721508Y-315027260D01*
X60684054Y-314995960D01*
X60615339Y-314987329D01*
X60552709Y-315017293D01*
X60545200Y-315025960D01*
X60543310Y-315026614D01*
X60541798Y-315025304D01*
X60542025Y-315023539D01*
X60545233Y-315018738D01*
X60549000Y-314999801D01*
X60549000Y-313000199D01*
X60545233Y-312981263D01*
X60537886Y-312970268D01*
X60537755Y-312968273D01*
X60539418Y-312967161D01*
X60540660Y-312967494D01*
G37*
M02*
