G04 #@! TF.GenerationSoftware,KiCad,Pcbnew,(6.0.9)*
G04 #@! TF.CreationDate,2022-11-10T19:23:20+01:00*
G04 #@! TF.ProjectId,arisu,61726973-752e-46b6-9963-61645f706362,1.1*
G04 #@! TF.SameCoordinates,Original*
G04 #@! TF.FileFunction,Profile,NP*
%FSLAX46Y46*%
G04 Gerber Fmt 4.6, Leading zero omitted, Abs format (unit mm)*
G04 Created by KiCad (PCBNEW (6.0.9)) date 2022-11-10 19:23:20*
%MOMM*%
%LPD*%
G01*
G04 APERTURE LIST*
G04 #@! TA.AperFunction,Profile*
%ADD10C,0.150000*%
G04 #@! TD*
G04 #@! TA.AperFunction,Profile*
%ADD11C,0.120000*%
G04 #@! TD*
G04 APERTURE END LIST*
D10*
X165079413Y-287610870D02*
G75*
G03*
X166619916Y-289982996I1956287J-415830D01*
G01*
X164590449Y-268170449D02*
G75*
G03*
X166130889Y-270542560I1956251J-415851D01*
G01*
X21000000Y-231999999D02*
G75*
G03*
X21499999Y-231500000I0J499999D01*
G01*
X46500000Y-212500000D02*
G75*
G03*
X45500000Y-211500000I-1000000J0D01*
G01*
X46500000Y-212500000D02*
G75*
G03*
X47500000Y-213500000I1000000J0D01*
G01*
X13500000Y-232000000D02*
G75*
G03*
X11500000Y-234000000I0J-2000000D01*
G01*
X172185789Y-291356274D02*
X166619916Y-289982996D01*
X45500000Y-211500000D02*
X25000000Y-211500000D01*
X62500000Y-213500000D02*
G75*
G03*
X63500000Y-212500000I0J1000000D01*
G01*
X168802540Y-257973431D02*
G75*
G03*
X166430436Y-259513834I-415840J-1956269D01*
G01*
X21000000Y-232000000D02*
X13500000Y-232000000D01*
X180962211Y-236839676D02*
X176554485Y-257576407D01*
X170597156Y-308449506D02*
G75*
G03*
X172137661Y-310821635I1956344J-415794D01*
G01*
X177566379Y-311975542D02*
X172137661Y-310821635D01*
X55000000Y-213500000D02*
X62500000Y-213500000D01*
X166864501Y-270698494D02*
X166130889Y-270542560D01*
X11500000Y-234000000D02*
X11500000Y-317500000D01*
X11500000Y-317500000D02*
G75*
G03*
X13500000Y-319500000I2000000J0D01*
G01*
X179106853Y-314347662D02*
X174512002Y-335964725D01*
X174182365Y-259116880D02*
G75*
G03*
X176554485Y-257576407I415835J1956280D01*
G01*
X22000000Y-214500000D02*
G75*
G03*
X23000000Y-213500000I0J1000000D01*
G01*
X64500000Y-211500000D02*
X71360000Y-211500000D01*
X180962251Y-236839685D02*
G75*
G03*
X179421741Y-234467560I-1956351J415785D01*
G01*
X166430436Y-259513834D02*
X164590417Y-268170442D01*
X13500000Y-319500000D02*
X87490000Y-319500000D01*
X64500000Y-211500000D02*
G75*
G03*
X63500000Y-212500000I0J-1000000D01*
G01*
X173726261Y-293728394D02*
X170597190Y-308449513D01*
X21500000Y-231500000D02*
X21500000Y-214500000D01*
X21500000Y-214500000D02*
X22000000Y-214500000D01*
X25000000Y-211500000D02*
G75*
G03*
X23000000Y-213500000I0J-2000000D01*
G01*
X179106841Y-314347659D02*
G75*
G03*
X177566379Y-311975542I-1956241J415859D01*
G01*
X55000000Y-213500000D02*
X47500000Y-213500000D01*
X174182365Y-259116881D02*
X168802554Y-257973364D01*
X172139884Y-337505196D02*
X87490000Y-319500000D01*
X172139882Y-337505204D02*
G75*
G03*
X174512002Y-335964725I415818J1956304D01*
G01*
X179421741Y-234467560D02*
X71360000Y-211500000D01*
X168404972Y-273070613D02*
X165079446Y-287610877D01*
X168405002Y-273070619D02*
G75*
G03*
X166864501Y-270698494I-1956302J415819D01*
G01*
X173726322Y-293728407D02*
G75*
G03*
X172185789Y-291356274I-1956322J415807D01*
G01*
D11*
X106249704Y-263577854D02*
X92560137Y-260668047D01*
X92352225Y-261646194D02*
X89858242Y-273379466D01*
X103339897Y-277267421D02*
X89650330Y-274357614D01*
X106041792Y-264556002D02*
X103547809Y-276289274D01*
X103339897Y-277267420D02*
G75*
G03*
X103547809Y-276289274I103956J489073D01*
G01*
X89858242Y-273379466D02*
G75*
G03*
X89650330Y-274357614I-103956J-489074D01*
G01*
X106041792Y-264556002D02*
G75*
G03*
X106249704Y-263577854I103956J489074D01*
G01*
X92560137Y-260668048D02*
G75*
G03*
X92352225Y-261646194I-103956J-489073D01*
G01*
X152019892Y-317074750D02*
X152727540Y-313745527D01*
X130630175Y-308243596D02*
X130466465Y-309013789D01*
X120307928Y-319422772D02*
X122071919Y-319797720D01*
X145183247Y-325904687D02*
X145346957Y-325134493D01*
X124810389Y-321574302D02*
X124974099Y-320804109D01*
X148164641Y-326538402D02*
X148407565Y-325395534D01*
X152864620Y-317254302D02*
X152019892Y-317074750D01*
X147562123Y-326929681D02*
X145574527Y-326507205D01*
X152283715Y-319987247D02*
X151438986Y-319807694D01*
X122156263Y-310727039D02*
X122863911Y-307397816D01*
X120519166Y-318428974D02*
X121575357Y-313459984D01*
X145288695Y-311359360D02*
X145124985Y-312129554D01*
X145346957Y-325134493D02*
X124974099Y-320804109D01*
X124207871Y-321965582D02*
X122220275Y-321543105D01*
X120339349Y-312677913D02*
X120709016Y-310938767D01*
X145124985Y-312129554D02*
X151733742Y-313534288D01*
X123857709Y-307609055D02*
X130466465Y-309013789D01*
X120730629Y-313280431D02*
X121575357Y-313459984D01*
X121311534Y-310547487D02*
X122156263Y-310727039D01*
X144897415Y-310756842D02*
X131232693Y-307852316D01*
X121828995Y-320940587D02*
X122071919Y-319797720D01*
X150171557Y-325770482D02*
X148407565Y-325395534D01*
X150382795Y-324776684D02*
X151438986Y-319807694D01*
X153255900Y-317856820D02*
X152886233Y-319595967D01*
X152283715Y-319987247D02*
G75*
G03*
X152886233Y-319595967I105619J496899D01*
G01*
X147562123Y-326929681D02*
G75*
G03*
X148164641Y-326538402I105619J496899D01*
G01*
X124207871Y-321965582D02*
G75*
G03*
X124810389Y-321574302I105618J496900D01*
G01*
X121311534Y-310547487D02*
G75*
G03*
X120709016Y-310938767I-105618J-496900D01*
G01*
X120519166Y-318428974D02*
G75*
G03*
X120307928Y-319422772I-105619J-496899D01*
G01*
X131232693Y-307852316D02*
G75*
G03*
X130630175Y-308243596I-105618J-496900D01*
G01*
X152727540Y-313745527D02*
G75*
G03*
X151733742Y-313534288I-496899J105620D01*
G01*
X150171557Y-325770482D02*
G75*
G03*
X150382795Y-324776684I105619J496899D01*
G01*
X120339351Y-312677913D02*
G75*
G03*
X120730629Y-313280431I496899J-105619D01*
G01*
X145288695Y-311359360D02*
G75*
G03*
X144897415Y-310756842I-496899J105619D01*
G01*
X121828996Y-320940587D02*
G75*
G03*
X122220275Y-321543105I496899J-105619D01*
G01*
X123857709Y-307609055D02*
G75*
G03*
X122863911Y-307397816I-496899J105620D01*
G01*
X145183247Y-325904687D02*
G75*
G03*
X145574527Y-326507205I496899J-105619D01*
G01*
X153255900Y-317856820D02*
G75*
G03*
X152864620Y-317254302I-496899J105619D01*
G01*
X40287700Y-222972303D02*
X26292300Y-222972303D01*
X40287700Y-223972303D02*
X40287700Y-235967703D01*
X40287700Y-236967703D02*
X26292300Y-236967703D01*
X26292300Y-223972303D02*
X26292300Y-235967703D01*
X26292300Y-235967703D02*
G75*
G03*
X26292300Y-236967703I0J-500000D01*
G01*
X40287700Y-236967703D02*
G75*
G03*
X40287700Y-235967703I0J500000D01*
G01*
X26292300Y-222972303D02*
G75*
G03*
X26292300Y-223972303I0J-500000D01*
G01*
X40287700Y-223972303D02*
G75*
G03*
X40287700Y-222972303I0J500000D01*
G01*
X161453166Y-255836141D02*
X147763599Y-252926334D01*
X158543359Y-269525708D02*
X144853792Y-266615901D01*
X147555687Y-253904481D02*
X145061704Y-265637753D01*
X161245254Y-256814289D02*
X158751271Y-268547561D01*
X145061704Y-265637753D02*
G75*
G03*
X144853792Y-266615901I-103956J-489074D01*
G01*
X158543359Y-269525707D02*
G75*
G03*
X158751271Y-268547561I103956J489073D01*
G01*
X147763599Y-252926335D02*
G75*
G03*
X147555687Y-253904481I-103956J-489073D01*
G01*
X161245254Y-256814289D02*
G75*
G03*
X161453166Y-255836141I103956J489074D01*
G01*
X84447701Y-261072301D02*
X70452301Y-261072301D01*
X84447701Y-275067701D02*
X70452301Y-275067701D01*
X70452301Y-262072301D02*
X70452301Y-274067701D01*
X84447701Y-262072301D02*
X84447701Y-274067701D01*
X70452301Y-274067701D02*
G75*
G03*
X70452301Y-275067701I0J-500000D01*
G01*
X84447701Y-275067701D02*
G75*
G03*
X84447701Y-274067701I0J500000D01*
G01*
X84447701Y-262072301D02*
G75*
G03*
X84447701Y-261072301I0J500000D01*
G01*
X70452301Y-261072301D02*
G75*
G03*
X70452301Y-262072301I0J-500000D01*
G01*
X140607315Y-285188872D02*
X126917748Y-282279065D01*
X129619643Y-269567645D02*
X127125660Y-281300917D01*
X143309210Y-272477453D02*
X140815227Y-284210725D01*
X143517122Y-271499305D02*
X129827555Y-268589498D01*
X143309210Y-272477453D02*
G75*
G03*
X143517122Y-271499305I103956J489074D01*
G01*
X127125660Y-281300917D02*
G75*
G03*
X126917748Y-282279065I-103956J-489074D01*
G01*
X129827555Y-268589499D02*
G75*
G03*
X129619643Y-269567645I-103956J-489073D01*
G01*
X140607315Y-285188871D02*
G75*
G03*
X140815227Y-284210725I103956J489073D01*
G01*
X32060200Y-261072300D02*
X18064800Y-261072300D01*
X32060200Y-262072300D02*
X32060200Y-274067700D01*
X32060200Y-275067700D02*
X18064800Y-275067700D01*
X18064800Y-262072300D02*
X18064800Y-274067700D01*
X32060200Y-275067700D02*
G75*
G03*
X32060200Y-274067700I0J500000D01*
G01*
X32060200Y-262072300D02*
G75*
G03*
X32060200Y-261072300I0J500000D01*
G01*
X18064800Y-261072300D02*
G75*
G03*
X18064800Y-262072300I0J-500000D01*
G01*
X18064800Y-274067700D02*
G75*
G03*
X18064800Y-275067700I0J-500000D01*
G01*
X130031584Y-289130796D02*
X127537601Y-300864068D01*
X130239496Y-288152648D02*
X116549929Y-285242841D01*
X116342017Y-286220988D02*
X113848034Y-297954260D01*
X127329689Y-301842215D02*
X113640122Y-298932408D01*
X127329689Y-301842214D02*
G75*
G03*
X127537601Y-300864068I103956J489073D01*
G01*
X116549929Y-285242842D02*
G75*
G03*
X116342017Y-286220988I-103956J-489073D01*
G01*
X113848034Y-297954260D02*
G75*
G03*
X113640122Y-298932408I-103956J-489074D01*
G01*
X130031584Y-289130796D02*
G75*
G03*
X130239496Y-288152648I103956J489074D01*
G01*
X58253948Y-262072301D02*
X58253948Y-274067701D01*
X58253948Y-275067701D02*
X44258548Y-275067701D01*
X58253948Y-261072301D02*
X44258548Y-261072301D01*
X44258548Y-262072301D02*
X44258548Y-274067701D01*
X58253948Y-275067701D02*
G75*
G03*
X58253948Y-274067701I0J500000D01*
G01*
X44258548Y-261072301D02*
G75*
G03*
X44258548Y-262072301I0J-500000D01*
G01*
X58253948Y-262072301D02*
G75*
G03*
X58253948Y-261072301I0J500000D01*
G01*
X44258548Y-274067701D02*
G75*
G03*
X44258548Y-275067701I0J-500000D01*
G01*
X124675500Y-268516728D02*
X122181517Y-280250000D01*
X121973605Y-281228147D02*
X108284038Y-278318340D01*
X124883412Y-267538580D02*
X111193845Y-264628773D01*
X110985933Y-265606920D02*
X108491950Y-277340192D01*
X111193845Y-264628774D02*
G75*
G03*
X110985933Y-265606920I-103956J-489073D01*
G01*
X121973605Y-281228146D02*
G75*
G03*
X122181517Y-280250000I103956J489073D01*
G01*
X108491950Y-277340192D02*
G75*
G03*
X108284038Y-278318340I-103956J-489074D01*
G01*
X124675500Y-268516728D02*
G75*
G03*
X124883412Y-267538580I103956J489074D01*
G01*
X36125197Y-256017702D02*
X22129797Y-256017702D01*
X36125197Y-242022302D02*
X22129797Y-242022302D01*
X22129797Y-243022302D02*
X22129797Y-255017702D01*
X36125197Y-243022302D02*
X36125197Y-255017702D01*
X36125197Y-256017702D02*
G75*
G03*
X36125197Y-255017702I0J500000D01*
G01*
X36125197Y-243022302D02*
G75*
G03*
X36125197Y-242022302I0J500000D01*
G01*
X22129797Y-255017702D02*
G75*
G03*
X22129797Y-256017702I0J-500000D01*
G01*
X22129797Y-242022302D02*
G75*
G03*
X22129797Y-243022302I0J-500000D01*
G01*
X169953244Y-330377698D02*
X156263677Y-327467891D01*
X172863051Y-316688131D02*
X159173484Y-313778324D01*
X172655139Y-317666279D02*
X170161156Y-329399551D01*
X158965572Y-314756471D02*
X156471589Y-326489743D01*
X159173484Y-313778325D02*
G75*
G03*
X158965572Y-314756471I-103956J-489073D01*
G01*
X156471589Y-326489743D02*
G75*
G03*
X156263677Y-327467891I-103956J-489074D01*
G01*
X169953244Y-330377697D02*
G75*
G03*
X170161156Y-329399551I103956J489073D01*
G01*
X172655139Y-317666279D02*
G75*
G03*
X172863051Y-316688131I103956J489074D01*
G01*
X59937701Y-256017702D02*
X45942301Y-256017702D01*
X45942301Y-243022302D02*
X45942301Y-255017702D01*
X59937701Y-242022302D02*
X45942301Y-242022302D01*
X59937701Y-243022302D02*
X59937701Y-255017702D01*
X45942301Y-255017702D02*
G75*
G03*
X45942301Y-256017702I0J-500000D01*
G01*
X45942301Y-242022302D02*
G75*
G03*
X45942301Y-243022302I0J-500000D01*
G01*
X59937701Y-243022302D02*
G75*
G03*
X59937701Y-242022302I0J500000D01*
G01*
X59937701Y-256017702D02*
G75*
G03*
X59937701Y-255017702I0J500000D01*
G01*
X102642230Y-257643526D02*
X88952663Y-254733719D01*
X91654558Y-242022299D02*
X89160575Y-253755571D01*
X105552037Y-243953959D02*
X91862470Y-241044152D01*
X105344125Y-244932107D02*
X102850142Y-256665379D01*
X91862470Y-241044153D02*
G75*
G03*
X91654558Y-242022299I-103956J-489073D01*
G01*
X102642230Y-257643525D02*
G75*
G03*
X102850142Y-256665379I103956J489073D01*
G01*
X105344125Y-244932107D02*
G75*
G03*
X105552037Y-243953959I103956J489074D01*
G01*
X89160575Y-253755571D02*
G75*
G03*
X88952663Y-254733719I-103956J-489074D01*
G01*
X37714803Y-300172299D02*
X37714803Y-312167699D01*
X51710203Y-300172299D02*
X51710203Y-312167699D01*
X51710203Y-299172299D02*
X37714803Y-299172299D01*
X51710203Y-313167699D02*
X37714803Y-313167699D01*
X51710203Y-300172299D02*
G75*
G03*
X51710203Y-299172299I0J500000D01*
G01*
X37714803Y-312167699D02*
G75*
G03*
X37714803Y-313167699I0J-500000D01*
G01*
X51710203Y-313167699D02*
G75*
G03*
X51710203Y-312167699I0J500000D01*
G01*
X37714803Y-299172299D02*
G75*
G03*
X37714803Y-300172299I0J-500000D01*
G01*
X89797701Y-280122301D02*
X75802301Y-280122301D01*
X89797701Y-281122301D02*
X89797701Y-293117701D01*
X75802301Y-281122301D02*
X75802301Y-293117701D01*
X89797701Y-294117701D02*
X75802301Y-294117701D01*
X89797701Y-294117701D02*
G75*
G03*
X89797701Y-293117701I0J500000D01*
G01*
X89797701Y-281122301D02*
G75*
G03*
X89797701Y-280122301I0J500000D01*
G01*
X75802301Y-293117701D02*
G75*
G03*
X75802301Y-294117701I0J-500000D01*
G01*
X75802301Y-280122301D02*
G75*
G03*
X75802301Y-281122301I0J-500000D01*
G01*
X110288267Y-245983024D02*
X107794284Y-257716296D01*
X123977834Y-248892832D02*
X121483851Y-260626104D01*
X124185746Y-247914684D02*
X110496179Y-245004877D01*
X121275939Y-261604251D02*
X107586372Y-258694444D01*
X107794284Y-257716296D02*
G75*
G03*
X107586372Y-258694444I-103956J-489074D01*
G01*
X123977834Y-248892832D02*
G75*
G03*
X124185746Y-247914684I103956J489074D01*
G01*
X121275939Y-261604250D02*
G75*
G03*
X121483851Y-260626104I103956J489073D01*
G01*
X110496179Y-245004878D02*
G75*
G03*
X110288267Y-245983024I-103956J-489073D01*
G01*
X104932215Y-225368957D02*
X102438232Y-237102229D01*
X118621782Y-228278765D02*
X116127799Y-240012037D01*
X118829694Y-227300617D02*
X105140127Y-224390810D01*
X115919887Y-240990184D02*
X102230320Y-238080377D01*
X115919887Y-240990183D02*
G75*
G03*
X116127799Y-240012037I103956J489073D01*
G01*
X102438232Y-237102229D02*
G75*
G03*
X102230320Y-238080377I-103956J-489074D01*
G01*
X105140127Y-224390811D02*
G75*
G03*
X104932215Y-225368957I-103956J-489073D01*
G01*
X118621782Y-228278765D02*
G75*
G03*
X118829694Y-227300617I103956J489074D01*
G01*
X67109152Y-281532001D02*
X67109152Y-286612001D01*
X62257752Y-279347601D02*
X62257752Y-280135001D01*
X36578352Y-289406001D02*
X36578352Y-292809601D01*
X36578352Y-280516001D02*
X38381752Y-280516001D01*
X44350752Y-292809601D02*
X37594352Y-292809601D01*
X35714752Y-289406001D02*
X36578352Y-289406001D01*
X67109152Y-289406001D02*
X67109152Y-292809601D01*
X35206752Y-288898001D02*
X35206752Y-287120001D01*
X59336752Y-293597001D02*
X59336752Y-292809601D01*
X68480752Y-287120001D02*
X68480752Y-288898001D01*
X38889752Y-278839601D02*
X40921752Y-278839601D01*
X62765752Y-278839601D02*
X64797752Y-278839601D01*
X67972752Y-286612001D02*
X67109152Y-286612001D01*
X44350752Y-293597001D02*
X44350752Y-292809601D01*
X65305752Y-279347601D02*
X65305752Y-280516001D01*
X36578352Y-281532001D02*
X36578352Y-286612001D01*
X41429752Y-280135001D02*
X62257752Y-280135001D01*
X41429752Y-279347601D02*
X41429752Y-280135001D01*
X35714752Y-286612001D02*
X36578352Y-286612001D01*
X67109152Y-280516001D02*
X65305752Y-280516001D01*
X38381752Y-279347601D02*
X38381752Y-280516001D01*
X44858752Y-294105001D02*
X58828752Y-294105001D01*
X66093152Y-292809601D02*
X59336752Y-292809601D01*
X67972752Y-289406001D02*
X67109152Y-289406001D01*
X44350752Y-293597001D02*
G75*
G03*
X44858752Y-294105001I508000J0D01*
G01*
X66093152Y-292809601D02*
G75*
G03*
X67109152Y-292809601I508000J0D01*
G01*
X38889752Y-278839601D02*
G75*
G03*
X38381752Y-279347601I0J-508000D01*
G01*
X65305752Y-279347601D02*
G75*
G03*
X64797752Y-278839601I-508001J-1D01*
G01*
X58828752Y-294105001D02*
G75*
G03*
X59336752Y-293597001I-1J508001D01*
G01*
X36578352Y-292809601D02*
G75*
G03*
X37594352Y-292809601I508000J0D01*
G01*
X62765752Y-278839601D02*
G75*
G03*
X62257752Y-279347601I1J-508001D01*
G01*
X35714752Y-286612001D02*
G75*
G03*
X35206752Y-287120001I0J-508000D01*
G01*
X41429752Y-279347601D02*
G75*
G03*
X40921752Y-278839601I-508000J0D01*
G01*
X67109152Y-281532001D02*
G75*
G03*
X67109152Y-280516001I0J508000D01*
G01*
X67972752Y-289406001D02*
G75*
G03*
X68480752Y-288898001I-1J508001D01*
G01*
X35206752Y-288898001D02*
G75*
G03*
X35714752Y-289406001I508000J0D01*
G01*
X36578352Y-280516001D02*
G75*
G03*
X36578352Y-281532001I0J-508000D01*
G01*
X68480752Y-287120001D02*
G75*
G03*
X67972752Y-286612001I-508001J-1D01*
G01*
X112303485Y-303815808D02*
X98613918Y-300906001D01*
X112095573Y-304793956D02*
X109601590Y-316527228D01*
X109393678Y-317505375D02*
X95704111Y-314595568D01*
X98406006Y-301884148D02*
X95912023Y-313617420D01*
X95912023Y-313617420D02*
G75*
G03*
X95704111Y-314595568I-103956J-489074D01*
G01*
X112095573Y-304793956D02*
G75*
G03*
X112303485Y-303815808I103956J489074D01*
G01*
X109393678Y-317505374D02*
G75*
G03*
X109601590Y-316527228I103956J489073D01*
G01*
X98613918Y-300906002D02*
G75*
G03*
X98406006Y-301884148I-103956J-489073D01*
G01*
X59337699Y-223972301D02*
X59337699Y-235967701D01*
X59337699Y-222972301D02*
X45342299Y-222972301D01*
X59337699Y-236967701D02*
X45342299Y-236967701D01*
X45342299Y-223972301D02*
X45342299Y-235967701D01*
X45342299Y-235967701D02*
G75*
G03*
X45342299Y-236967701I0J-500000D01*
G01*
X45342299Y-222972301D02*
G75*
G03*
X45342299Y-223972301I0J-500000D01*
G01*
X59337699Y-236967701D02*
G75*
G03*
X59337699Y-235967701I0J500000D01*
G01*
X59337699Y-223972301D02*
G75*
G03*
X59337699Y-222972301I0J500000D01*
G01*
X139909650Y-265564979D02*
X126220083Y-262655172D01*
X142611545Y-252853560D02*
X140117562Y-264586832D01*
X128921978Y-249943752D02*
X126427995Y-261677024D01*
X142819457Y-251875412D02*
X129129890Y-248965605D01*
X126427995Y-261677024D02*
G75*
G03*
X126220083Y-262655172I-103956J-489074D01*
G01*
X142611545Y-252853560D02*
G75*
G03*
X142819457Y-251875412I103956J489074D01*
G01*
X129129890Y-248965606D02*
G75*
G03*
X128921978Y-249943752I-103956J-489073D01*
G01*
X139909650Y-265564978D02*
G75*
G03*
X140117562Y-264586832I103956J489073D01*
G01*
X83442302Y-222471912D02*
X83442302Y-234467312D01*
X97437702Y-235467312D02*
X83442302Y-235467312D01*
X97437702Y-221471912D02*
X83442302Y-221471912D01*
X97437702Y-222471912D02*
X97437702Y-234467312D01*
X97437702Y-235467312D02*
G75*
G03*
X97437702Y-234467312I0J500000D01*
G01*
X83442302Y-221471912D02*
G75*
G03*
X83442302Y-222471912I0J-500000D01*
G01*
X97437702Y-222471912D02*
G75*
G03*
X97437702Y-221471912I0J500000D01*
G01*
X83442302Y-234467312D02*
G75*
G03*
X83442302Y-235467312I0J-500000D01*
G01*
X148253353Y-273528373D02*
X145759370Y-285261645D01*
X161942920Y-276438181D02*
X159448937Y-288171453D01*
X159241025Y-289149600D02*
X145551458Y-286239793D01*
X162150832Y-275460033D02*
X148461265Y-272550226D01*
X159241025Y-289149599D02*
G75*
G03*
X159448937Y-288171453I103956J489073D01*
G01*
X148461265Y-272550227D02*
G75*
G03*
X148253353Y-273528373I-103956J-489073D01*
G01*
X145759370Y-285261645D02*
G75*
G03*
X145551458Y-286239793I-103956J-489074D01*
G01*
X161942920Y-276438181D02*
G75*
G03*
X162150832Y-275460033I103956J489074D01*
G01*
X137255491Y-232239482D02*
X134761508Y-243972754D01*
X137463403Y-231261334D02*
X123773836Y-228351527D01*
X123565924Y-229329674D02*
X121071941Y-241062946D01*
X134553596Y-244950901D02*
X120864029Y-242041094D01*
X121071941Y-241062946D02*
G75*
G03*
X120864029Y-242041094I-103956J-489074D01*
G01*
X134553596Y-244950900D02*
G75*
G03*
X134761508Y-243972754I103956J489073D01*
G01*
X137255491Y-232239482D02*
G75*
G03*
X137463403Y-231261334I103956J489074D01*
G01*
X123773836Y-228351528D02*
G75*
G03*
X123565924Y-229329674I-103956J-489073D01*
G01*
X142199637Y-233290392D02*
X139705654Y-245023664D01*
X155889204Y-236200200D02*
X153395221Y-247933472D01*
X153187309Y-248911619D02*
X139497742Y-246001812D01*
X156097116Y-235222052D02*
X142407549Y-232312245D01*
X155889204Y-236200200D02*
G75*
G03*
X156097116Y-235222052I103956J489074D01*
G01*
X153187309Y-248911618D02*
G75*
G03*
X153395221Y-247933472I103956J489073D01*
G01*
X139705654Y-245023664D02*
G75*
G03*
X139497742Y-246001812I-103956J-489074D01*
G01*
X142407549Y-232312246D02*
G75*
G03*
X142199637Y-233290392I-103956J-489073D01*
G01*
X80285200Y-300172303D02*
X80285200Y-312167703D01*
X80285200Y-313167703D02*
X66289800Y-313167703D01*
X80285200Y-299172303D02*
X66289800Y-299172303D01*
X66289800Y-300172303D02*
X66289800Y-312167703D01*
X66289800Y-299172303D02*
G75*
G03*
X66289800Y-300172303I0J-500000D01*
G01*
X80285200Y-313167703D02*
G75*
G03*
X80285200Y-312167703I0J500000D01*
G01*
X66289800Y-312167703D02*
G75*
G03*
X66289800Y-313167703I0J-500000D01*
G01*
X80285200Y-300172303D02*
G75*
G03*
X80285200Y-299172303I0J500000D01*
G01*
X148665292Y-293091523D02*
X146171309Y-304824795D01*
X134975725Y-290181715D02*
X132481742Y-301914987D01*
X145963397Y-305802942D02*
X132273830Y-302893135D01*
X148873204Y-292113375D02*
X135183637Y-289203568D01*
X135183637Y-289203569D02*
G75*
G03*
X134975725Y-290181715I-103956J-489073D01*
G01*
X145963397Y-305802941D02*
G75*
G03*
X146171309Y-304824795I103956J489073D01*
G01*
X132481742Y-301914987D02*
G75*
G03*
X132273830Y-302893135I-103956J-489074D01*
G01*
X148665292Y-293091523D02*
G75*
G03*
X148873204Y-292113375I103956J489074D01*
G01*
X174730828Y-239182769D02*
X161041261Y-236272962D01*
X174522916Y-240160917D02*
X172028933Y-251894189D01*
X171821021Y-252872336D02*
X158131454Y-249962529D01*
X160833349Y-237251109D02*
X158339366Y-248984381D01*
X171821021Y-252872335D02*
G75*
G03*
X172028933Y-251894189I103956J489073D01*
G01*
X174522916Y-240160917D02*
G75*
G03*
X174730828Y-239182769I103956J489074D01*
G01*
X158339366Y-248984381D02*
G75*
G03*
X158131454Y-249962529I-103956J-489074D01*
G01*
X161041261Y-236272963D02*
G75*
G03*
X160833349Y-237251109I-103956J-489073D01*
G01*
X78387701Y-223972300D02*
X78387701Y-235967700D01*
X78387701Y-222972300D02*
X64392301Y-222972300D01*
X78387701Y-236967700D02*
X64392301Y-236967700D01*
X64392301Y-223972300D02*
X64392301Y-235967700D01*
X64392301Y-235967700D02*
G75*
G03*
X64392301Y-236967700I0J-500000D01*
G01*
X78387701Y-223972300D02*
G75*
G03*
X78387701Y-222972300I0J500000D01*
G01*
X78387701Y-236967700D02*
G75*
G03*
X78387701Y-235967700I0J500000D01*
G01*
X64392301Y-222972300D02*
G75*
G03*
X64392301Y-223972300I0J-500000D01*
G01*
X111605784Y-284191922D02*
X97916217Y-281282115D01*
X108695977Y-297881489D02*
X95006410Y-294971682D01*
X97708305Y-282260262D02*
X95214322Y-293993534D01*
X111397872Y-285170070D02*
X108903889Y-296903342D01*
X95214322Y-293993534D02*
G75*
G03*
X95006410Y-294971682I-103956J-489074D01*
G01*
X97916217Y-281282116D02*
G75*
G03*
X97708305Y-282260262I-103956J-489073D01*
G01*
X108695977Y-297881488D02*
G75*
G03*
X108903889Y-296903342I103956J489073D01*
G01*
X111397872Y-285170070D02*
G75*
G03*
X111605784Y-284191922I103956J489074D01*
G01*
X83747701Y-256017698D02*
X69752301Y-256017698D01*
X69752301Y-243022298D02*
X69752301Y-255017698D01*
X83747701Y-242022298D02*
X69752301Y-242022298D01*
X83747701Y-243022298D02*
X83747701Y-255017698D01*
X69752301Y-242022298D02*
G75*
G03*
X69752301Y-243022298I0J-500000D01*
G01*
X69752301Y-255017698D02*
G75*
G03*
X69752301Y-256017698I0J-500000D01*
G01*
X83747701Y-243022298D02*
G75*
G03*
X83747701Y-242022298I0J500000D01*
G01*
X83747701Y-256017698D02*
G75*
G03*
X83747701Y-255017698I0J500000D01*
G01*
X164597107Y-309763669D02*
X150907540Y-306853862D01*
X167299002Y-297052250D02*
X164805019Y-308785522D01*
X167506914Y-296074102D02*
X153817347Y-293164295D01*
X153609435Y-294142442D02*
X151115452Y-305875714D01*
X151115452Y-305875714D02*
G75*
G03*
X150907540Y-306853862I-103956J-489074D01*
G01*
X167299002Y-297052250D02*
G75*
G03*
X167506914Y-296074102I103956J489074D01*
G01*
X164597107Y-309763668D02*
G75*
G03*
X164805019Y-308785522I103956J489073D01*
G01*
X153817347Y-293164296D02*
G75*
G03*
X153609435Y-294142442I-103956J-489073D01*
G01*
M02*
