  0
SECTION
  2
HEADER
  9
$ANGBASE
  50
0.0
  9
$ANGDIR
  70
1
  9
$MEASUREMENT
  70
1
  0
ENDSEC
  0
SECTION
  2
TABLES
  0
TABLE
  2
LTYPE
  70
4
  0
LTYPE
  5
40F
  2
CONTINUOUS
  70
0
  3
Solid line
  72
65
  73
0
  40
0.0
  0
LTYPE
  5
410
  2
DASHDOT
 70
0
  3
Dash Dot ____ _ ____ _
 72
65
 73
4
 40
2.0
 49
1.25
 49
-0.25
 49
0.25
 49
-0.25
  0
LTYPE
  5
411
  2
DASHED
 70
0
  3
Dashed __ __ __ __ __
 72
65
 73
2
 40
0.75
 49
0.5
 49
-0.25
  0
LTYPE
  5
43B
  2
DOTTED
 70
0
  3
Dotted .  .  .  .
 72
65
 73
2
 40
0.2
 49
0.0
 49
-0.2
  0
ENDTAB
  0
TABLE
  2
STYLE
  70
4
  0
STYLE
  2
KICAD
  70
0
  40
0
  41
1
  42
1
  50
0
  71
0
  3
isocp.shx
  0
STYLE
  2
KICADB
  70
0
  40
0
  41
1
  42
1
  50
0
  71
0
  3
isocp.shx
  0
STYLE
  2
KICADI
  70
0
  40
0
  41
1
  42
1
  50
15
  71
0
  3
isocp.shx
  0
STYLE
  2
KICADBI
  70
0
  40
0
  41
1
  42
1
  50
15
  71
0
  3
isocp.shx
  0
ENDTAB
  0
TABLE
  2
LAYER
  70
1
  0
LAYER
  2
BLACK
  70
0
  62
7
  6
CONTINUOUS
  0
ENDTAB
  0
ENDSEC
  0
SECTION
  2
ENTITIES
0
LINE
8
BLACK
6
CONTINUOUS
10
17
20
-316
11
17
21
-316
0
LINE
8
BLACK
6
CONTINUOUS
10
17
20
-316
11
16.9999
21
-316
0
LINE
8
BLACK
6
CONTINUOUS
10
16.9999
20
-316
11
17
21
-316
0
LINE
8
BLACK
6
CONTINUOUS
10
17
20
-316
11
17
21
-316
0
LINE
8
BLACK
6
CONTINUOUS
10
17
20
-316
11
87.9644
21
-316
0
LINE
8
BLACK
6
CONTINUOUS
10
87.9644
20
-316
11
87.9644
21
-316
0
LINE
8
BLACK
6
CONTINUOUS
10
87.9644
20
-316
11
87.9644
21
-316
0
LINE
8
BLACK
6
CONTINUOUS
10
87.9644
20
-316
11
169.444
21
-333.354
0
LINE
8
BLACK
6
CONTINUOUS
10
169.444
20
-333.354
11
169.444
21
-333.354
0
LINE
8
BLACK
6
CONTINUOUS
10
169.444
20
-333.354
11
169.444
21
-333.354
0
LINE
8
BLACK
6
CONTINUOUS
10
169.444
20
-333.354
11
169.444
21
-333.354
0
LINE
8
BLACK
6
CONTINUOUS
10
169.444
20
-333.354
11
169.703
21
-333.392
0
LINE
8
BLACK
6
CONTINUOUS
10
169.703
20
-333.392
11
169.965
21
-333.395
0
LINE
8
BLACK
6
CONTINUOUS
10
169.965
20
-333.395
11
170.224
21
-333.364
0
LINE
8
BLACK
6
CONTINUOUS
10
170.224
20
-333.364
11
170.478
21
-333.3
0
LINE
8
BLACK
6
CONTINUOUS
10
170.478
20
-333.3
11
170.721
21
-333.203
0
LINE
8
BLACK
6
CONTINUOUS
10
170.721
20
-333.203
11
170.949
21
-333.075
0
LINE
8
BLACK
6
CONTINUOUS
10
170.949
20
-333.075
11
171.159
21
-332.919
0
LINE
8
BLACK
6
CONTINUOUS
10
171.159
20
-332.919
11
171.346
21
-332.736
0
LINE
8
BLACK
6
CONTINUOUS
10
171.346
20
-332.736
11
171.508
21
-332.531
0
LINE
8
BLACK
6
CONTINUOUS
10
171.508
20
-332.531
11
171.642
21
-332.306
0
LINE
8
BLACK
6
CONTINUOUS
10
171.642
20
-332.306
11
171.745
21
-332.065
0
LINE
8
BLACK
6
CONTINUOUS
10
171.745
20
-332.065
11
171.816
21
-331.814
0
LINE
8
BLACK
6
CONTINUOUS
10
171.816
20
-331.814
11
171.816
21
-331.814
0
LINE
8
BLACK
6
CONTINUOUS
10
171.816
20
-331.814
11
171.816
21
-331.814
0
LINE
8
BLACK
6
CONTINUOUS
10
171.816
20
-331.814
11
171.816
21
-331.814
0
LINE
8
BLACK
6
CONTINUOUS
10
171.816
20
-331.814
11
171.816
21
-331.814
0
LINE
8
BLACK
6
CONTINUOUS
10
171.816
20
-331.814
11
171.816
21
-331.814
0
LINE
8
BLACK
6
CONTINUOUS
10
171.816
20
-331.814
11
174.956
21
-317.043
0
LINE
8
BLACK
6
CONTINUOUS
10
174.956
20
-317.043
11
174.956
21
-317.043
0
LINE
8
BLACK
6
CONTINUOUS
10
174.956
20
-317.043
11
174.956
21
-317.043
0
LINE
8
BLACK
6
CONTINUOUS
10
174.956
20
-317.043
11
174.993
21
-316.785
0
LINE
8
BLACK
6
CONTINUOUS
10
174.993
20
-316.785
11
174.997
21
-316.523
0
LINE
8
BLACK
6
CONTINUOUS
10
174.997
20
-316.523
11
174.966
21
-316.263
0
LINE
8
BLACK
6
CONTINUOUS
10
174.966
20
-316.263
11
174.902
21
-316.01
0
LINE
8
BLACK
6
CONTINUOUS
10
174.902
20
-316.01
11
174.805
21
-315.767
0
LINE
8
BLACK
6
CONTINUOUS
10
174.805
20
-315.767
11
174.677
21
-315.538
0
LINE
8
BLACK
6
CONTINUOUS
10
174.677
20
-315.538
11
174.52
21
-315.329
0
LINE
8
BLACK
6
CONTINUOUS
10
174.52
20
-315.329
11
174.338
21
-315.141
0
LINE
8
BLACK
6
CONTINUOUS
10
174.338
20
-315.141
11
174.132
21
-314.979
0
LINE
8
BLACK
6
CONTINUOUS
10
174.132
20
-314.979
11
173.907
21
-314.846
0
LINE
8
BLACK
6
CONTINUOUS
10
173.907
20
-314.846
11
173.667
21
-314.742
0
LINE
8
BLACK
6
CONTINUOUS
10
173.667
20
-314.742
11
173.415
21
-314.671
0
LINE
8
BLACK
6
CONTINUOUS
10
173.415
20
-314.671
11
173.415
21
-314.671
0
LINE
8
BLACK
6
CONTINUOUS
10
173.415
20
-314.671
11
173.415
21
-314.671
0
LINE
8
BLACK
6
CONTINUOUS
10
173.415
20
-314.671
11
173.415
21
-314.671
0
LINE
8
BLACK
6
CONTINUOUS
10
173.415
20
-314.671
11
173.415
21
-314.671
0
LINE
8
BLACK
6
CONTINUOUS
10
173.415
20
-314.671
11
173.415
21
-314.671
0
LINE
8
BLACK
6
CONTINUOUS
10
173.415
20
-314.671
11
173.415
21
-314.671
0
LINE
8
BLACK
6
CONTINUOUS
10
173.415
20
-314.671
11
167.986
21
-313.518
0
LINE
8
BLACK
6
CONTINUOUS
10
167.986
20
-313.518
11
167.986
21
-313.517
0
LINE
8
BLACK
6
CONTINUOUS
10
167.986
20
-313.517
11
167.986
21
-313.517
0
LINE
8
BLACK
6
CONTINUOUS
10
167.986
20
-313.517
11
167.986
21
-313.517
0
LINE
8
BLACK
6
CONTINUOUS
10
167.986
20
-313.517
11
167.986
21
-313.517
0
LINE
8
BLACK
6
CONTINUOUS
10
167.986
20
-313.517
11
173.415
21
-314.671
0
LINE
8
BLACK
6
CONTINUOUS
10
173.415
20
-314.671
11
173.416
21
-314.667
0
LINE
8
BLACK
6
CONTINUOUS
10
173.416
20
-314.667
11
173.668
21
-314.738
0
LINE
8
BLACK
6
CONTINUOUS
10
173.668
20
-314.738
11
173.909
21
-314.842
0
LINE
8
BLACK
6
CONTINUOUS
10
173.909
20
-314.842
11
174.135
21
-314.976
0
LINE
8
BLACK
6
CONTINUOUS
10
174.135
20
-314.976
11
174.34
21
-315.138
0
LINE
8
BLACK
6
CONTINUOUS
10
174.34
20
-315.138
11
174.523
21
-315.326
0
LINE
8
BLACK
6
CONTINUOUS
10
174.523
20
-315.326
11
174.68
21
-315.536
0
LINE
8
BLACK
6
CONTINUOUS
10
174.68
20
-315.536
11
174.808
21
-315.765
0
LINE
8
BLACK
6
CONTINUOUS
10
174.808
20
-315.765
11
174.905
21
-316.008
0
LINE
8
BLACK
6
CONTINUOUS
10
174.905
20
-316.008
11
174.97
21
-316.262
0
LINE
8
BLACK
6
CONTINUOUS
10
174.97
20
-316.262
11
175.001
21
-316.523
0
LINE
8
BLACK
6
CONTINUOUS
10
175.001
20
-316.523
11
174.997
21
-316.785
0
LINE
8
BLACK
6
CONTINUOUS
10
174.997
20
-316.785
11
174.96
21
-317.044
0
LINE
8
BLACK
6
CONTINUOUS
10
174.96
20
-317.044
11
174.956
21
-317.043
0
LINE
8
BLACK
6
CONTINUOUS
10
174.956
20
-317.043
11
171.816
21
-331.814
0
LINE
8
BLACK
6
CONTINUOUS
10
171.816
20
-331.814
11
171.82
21
-331.814
0
LINE
8
BLACK
6
CONTINUOUS
10
171.82
20
-331.814
11
171.749
21
-332.067
0
LINE
8
BLACK
6
CONTINUOUS
10
171.749
20
-332.067
11
171.646
21
-332.308
0
LINE
8
BLACK
6
CONTINUOUS
10
171.646
20
-332.308
11
171.512
21
-332.533
0
LINE
8
BLACK
6
CONTINUOUS
10
171.512
20
-332.533
11
171.349
21
-332.739
0
LINE
8
BLACK
6
CONTINUOUS
10
171.349
20
-332.739
11
171.162
21
-332.922
0
LINE
8
BLACK
6
CONTINUOUS
10
171.162
20
-332.922
11
170.951
21
-333.079
0
LINE
8
BLACK
6
CONTINUOUS
10
170.951
20
-333.079
11
170.723
21
-333.207
0
LINE
8
BLACK
6
CONTINUOUS
10
170.723
20
-333.207
11
170.479
21
-333.304
0
LINE
8
BLACK
6
CONTINUOUS
10
170.479
20
-333.304
11
170.225
21
-333.368
0
LINE
8
BLACK
6
CONTINUOUS
10
170.225
20
-333.368
11
169.965
21
-333.399
0
LINE
8
BLACK
6
CONTINUOUS
10
169.965
20
-333.399
11
169.703
21
-333.396
0
LINE
8
BLACK
6
CONTINUOUS
10
169.703
20
-333.396
11
169.443
21
-333.358
0
LINE
8
BLACK
6
CONTINUOUS
10
169.443
20
-333.358
11
169.444
21
-333.354
0
LINE
8
BLACK
6
CONTINUOUS
10
169.444
20
-333.354
11
87.9644
21
-316
0
LINE
8
BLACK
6
CONTINUOUS
10
87.9644
20
-316
11
17
21
-316
0
LINE
8
BLACK
6
CONTINUOUS
10
269.09
20
-331.063
11
269.193
21
-331.304
0
LINE
8
BLACK
6
CONTINUOUS
10
269.193
20
-331.304
11
269.327
21
-331.529
0
LINE
8
BLACK
6
CONTINUOUS
10
269.327
20
-331.529
11
269.489
21
-331.734
0
LINE
8
BLACK
6
CONTINUOUS
10
269.489
20
-331.734
11
269.676
21
-331.917
0
LINE
8
BLACK
6
CONTINUOUS
10
269.676
20
-331.917
11
269.886
21
-332.073
0
LINE
8
BLACK
6
CONTINUOUS
10
269.886
20
-332.073
11
270.114
21
-332.201
0
LINE
8
BLACK
6
CONTINUOUS
10
270.114
20
-332.201
11
270.357
21
-332.298
0
LINE
8
BLACK
6
CONTINUOUS
10
270.357
20
-332.298
11
270.61
21
-332.362
0
LINE
8
BLACK
6
CONTINUOUS
10
270.61
20
-332.362
11
270.87
21
-332.393
0
LINE
8
BLACK
6
CONTINUOUS
10
270.87
20
-332.393
11
271.132
21
-332.39
0
LINE
8
BLACK
6
CONTINUOUS
10
271.132
20
-332.39
11
271.391
21
-332.352
0
LINE
8
BLACK
6
CONTINUOUS
10
271.391
20
-332.352
11
271.392
21
-332.356
0
LINE
8
BLACK
6
CONTINUOUS
10
271.392
20
-332.356
11
271.132
21
-332.394
0
LINE
8
BLACK
6
CONTINUOUS
10
271.132
20
-332.394
11
270.87
21
-332.397
0
LINE
8
BLACK
6
CONTINUOUS
10
270.87
20
-332.397
11
270.61
21
-332.366
0
LINE
8
BLACK
6
CONTINUOUS
10
270.61
20
-332.366
11
270.356
21
-332.302
0
LINE
8
BLACK
6
CONTINUOUS
10
270.356
20
-332.302
11
270.112
21
-332.205
0
LINE
8
BLACK
6
CONTINUOUS
10
270.112
20
-332.205
11
269.883
21
-332.077
0
LINE
8
BLACK
6
CONTINUOUS
10
269.883
20
-332.077
11
269.673
21
-331.92
0
LINE
8
BLACK
6
CONTINUOUS
10
269.673
20
-331.92
11
269.485
21
-331.737
0
LINE
8
BLACK
6
CONTINUOUS
10
269.485
20
-331.737
11
269.323
21
-331.531
0
LINE
8
BLACK
6
CONTINUOUS
10
269.323
20
-331.531
11
269.189
21
-331.306
0
LINE
8
BLACK
6
CONTINUOUS
10
269.189
20
-331.306
11
269.086
21
-331.065
0
LINE
8
BLACK
6
CONTINUOUS
10
269.086
20
-331.065
11
269.014
21
-330.812
0
LINE
8
BLACK
6
CONTINUOUS
10
269.014
20
-330.812
11
269.018
21
-330.812
0
LINE
8
BLACK
6
CONTINUOUS
10
269.018
20
-330.812
11
269.09
21
-331.063
0
LINE
8
BLACK
6
CONTINUOUS
10
424
20
-316
11
424
21
-316
0
LINE
8
BLACK
6
CONTINUOUS
10
424
20
-316
11
424
21
-316
0
LINE
8
BLACK
6
CONTINUOUS
10
424
20
-316
11
424
21
-316
0
LINE
8
BLACK
6
CONTINUOUS
10
424
20
-316
11
348.32
21
-316
0
LINE
8
BLACK
6
CONTINUOUS
10
348.32
20
-316
11
271.391
21
-332.352
0
LINE
8
BLACK
6
CONTINUOUS
10
271.391
20
-332.352
11
271.391
21
-332.352
0
LINE
8
BLACK
6
CONTINUOUS
10
271.391
20
-332.352
11
271.391
21
-332.352
0
LINE
8
BLACK
6
CONTINUOUS
10
271.391
20
-332.352
11
271.391
21
-332.352
0
LINE
8
BLACK
6
CONTINUOUS
10
271.391
20
-332.352
11
271.391
21
-332.352
0
LINE
8
BLACK
6
CONTINUOUS
10
271.391
20
-332.352
11
348.32
21
-316
0
LINE
8
BLACK
6
CONTINUOUS
10
348.32
20
-316
11
348.32
21
-316
0
LINE
8
BLACK
6
CONTINUOUS
10
348.32
20
-316
11
348.32
21
-316
0
LINE
8
BLACK
6
CONTINUOUS
10
348.32
20
-316
11
424
21
-316
0
LINE
8
BLACK
6
CONTINUOUS
10
424
20
-316
11
424
21
-316
0
LINE
8
BLACK
6
CONTINUOUS
10
265.878
20
-316.037
11
269.019
21
-330.812
0
LINE
8
BLACK
6
CONTINUOUS
10
269.019
20
-330.812
11
269.019
21
-330.812
0
LINE
8
BLACK
6
CONTINUOUS
10
269.019
20
-330.812
11
269.019
21
-330.812
0
LINE
8
BLACK
6
CONTINUOUS
10
269.019
20
-330.812
11
269.019
21
-330.812
0
LINE
8
BLACK
6
CONTINUOUS
10
269.019
20
-330.812
11
269.019
21
-330.812
0
LINE
8
BLACK
6
CONTINUOUS
10
269.019
20
-330.812
11
265.878
21
-316.037
0
LINE
8
BLACK
6
CONTINUOUS
10
265.878
20
-316.037
11
265.874
21
-316.038
0
LINE
8
BLACK
6
CONTINUOUS
10
265.874
20
-316.038
11
265.836
21
-315.778
0
LINE
8
BLACK
6
CONTINUOUS
10
265.836
20
-315.778
11
265.833
21
-315.516
0
LINE
8
BLACK
6
CONTINUOUS
10
265.833
20
-315.516
11
265.864
21
-315.256
0
LINE
8
BLACK
6
CONTINUOUS
10
265.864
20
-315.256
11
265.928
21
-315.002
0
LINE
8
BLACK
6
CONTINUOUS
10
265.928
20
-315.002
11
266.025
21
-314.758
0
LINE
8
BLACK
6
CONTINUOUS
10
266.025
20
-314.758
11
266.154
21
-314.529
0
LINE
8
BLACK
6
CONTINUOUS
10
266.154
20
-314.529
11
266.31
21
-314.319
0
LINE
8
BLACK
6
CONTINUOUS
10
266.31
20
-314.319
11
266.493
21
-314.132
0
LINE
8
BLACK
6
CONTINUOUS
10
266.493
20
-314.132
11
266.699
21
-313.969
0
LINE
8
BLACK
6
CONTINUOUS
10
266.699
20
-313.969
11
266.924
21
-313.835
0
LINE
8
BLACK
6
CONTINUOUS
10
266.924
20
-313.835
11
267.165
21
-313.732
0
LINE
8
BLACK
6
CONTINUOUS
10
267.165
20
-313.732
11
267.418
21
-313.66
0
LINE
8
BLACK
6
CONTINUOUS
10
267.418
20
-313.66
11
267.419
21
-313.665
0
LINE
8
BLACK
6
CONTINUOUS
10
267.419
20
-313.665
11
267.167
21
-313.736
0
LINE
8
BLACK
6
CONTINUOUS
10
267.167
20
-313.736
11
266.926
21
-313.839
0
LINE
8
BLACK
6
CONTINUOUS
10
266.926
20
-313.839
11
266.702
21
-313.973
0
LINE
8
BLACK
6
CONTINUOUS
10
266.702
20
-313.973
11
266.496
21
-314.135
0
LINE
8
BLACK
6
CONTINUOUS
10
266.496
20
-314.135
11
266.314
21
-314.322
0
LINE
8
BLACK
6
CONTINUOUS
10
266.314
20
-314.322
11
266.157
21
-314.532
0
LINE
8
BLACK
6
CONTINUOUS
10
266.157
20
-314.532
11
266.029
21
-314.76
0
LINE
8
BLACK
6
CONTINUOUS
10
266.029
20
-314.76
11
265.932
21
-315.003
0
LINE
8
BLACK
6
CONTINUOUS
10
265.932
20
-315.003
11
265.868
21
-315.256
0
LINE
8
BLACK
6
CONTINUOUS
10
265.868
20
-315.256
11
265.837
21
-315.516
0
LINE
8
BLACK
6
CONTINUOUS
10
265.837
20
-315.516
11
265.841
21
-315.778
0
LINE
8
BLACK
6
CONTINUOUS
10
265.841
20
-315.778
11
265.878
21
-316.037
0
LINE
8
BLACK
6
CONTINUOUS
10
265.878
20
-316.037
11
265.878
21
-316.037
0
LINE
8
BLACK
6
CONTINUOUS
10
265.878
20
-316.037
11
265.878
21
-316.037
0
LINE
8
BLACK
6
CONTINUOUS
10
265.878
20
-316.037
11
265.878
21
-316.037
0
LINE
8
BLACK
6
CONTINUOUS
10
265.878
20
-316.037
11
265.878
21
-316.037
0
LINE
8
BLACK
6
CONTINUOUS
10
425.987
20
-314.262
11
425.936
21
-314.519
0
LINE
8
BLACK
6
CONTINUOUS
10
425.936
20
-314.519
11
425.852
21
-314.767
0
LINE
8
BLACK
6
CONTINUOUS
10
425.852
20
-314.767
11
425.736
21
-315.002
0
LINE
8
BLACK
6
CONTINUOUS
10
425.736
20
-315.002
11
425.59
21
-315.22
0
LINE
8
BLACK
6
CONTINUOUS
10
425.59
20
-315.22
11
425.417
21
-315.417
0
LINE
8
BLACK
6
CONTINUOUS
10
425.417
20
-315.417
11
425.22
21
-315.59
0
LINE
8
BLACK
6
CONTINUOUS
10
425.22
20
-315.59
11
425.002
21
-315.736
0
LINE
8
BLACK
6
CONTINUOUS
10
425.002
20
-315.736
11
424.767
21
-315.852
0
LINE
8
BLACK
6
CONTINUOUS
10
424.767
20
-315.852
11
424.519
21
-315.936
0
LINE
8
BLACK
6
CONTINUOUS
10
424.519
20
-315.936
11
424.262
21
-315.987
0
LINE
8
BLACK
6
CONTINUOUS
10
424.262
20
-315.987
11
424
21
-316.004
0
LINE
8
BLACK
6
CONTINUOUS
10
424
20
-316.004
11
424
21
-316
0
LINE
8
BLACK
6
CONTINUOUS
10
424
20
-316
11
424.261
21
-315.983
0
LINE
8
BLACK
6
CONTINUOUS
10
424.261
20
-315.983
11
424.518
21
-315.932
0
LINE
8
BLACK
6
CONTINUOUS
10
424.518
20
-315.932
11
424.765
21
-315.848
0
LINE
8
BLACK
6
CONTINUOUS
10
424.765
20
-315.848
11
425
21
-315.732
0
LINE
8
BLACK
6
CONTINUOUS
10
425
20
-315.732
11
425.218
21
-315.587
0
LINE
8
BLACK
6
CONTINUOUS
10
425.218
20
-315.587
11
425.414
21
-315.414
0
LINE
8
BLACK
6
CONTINUOUS
10
425.414
20
-315.414
11
425.587
21
-315.218
0
LINE
8
BLACK
6
CONTINUOUS
10
425.587
20
-315.218
11
425.732
21
-315
0
LINE
8
BLACK
6
CONTINUOUS
10
425.732
20
-315
11
425.848
21
-314.765
0
LINE
8
BLACK
6
CONTINUOUS
10
425.848
20
-314.765
11
425.932
21
-314.518
0
LINE
8
BLACK
6
CONTINUOUS
10
425.932
20
-314.518
11
425.983
21
-314.261
0
LINE
8
BLACK
6
CONTINUOUS
10
425.983
20
-314.261
11
426
21
-314
0
LINE
8
BLACK
6
CONTINUOUS
10
426
20
-314
11
426.004
21
-314
0
LINE
8
BLACK
6
CONTINUOUS
10
426.004
20
-314
11
425.987
21
-314.262
0
LINE
8
BLACK
6
CONTINUOUS
10
10.05
20
-304.3
11
15
21
-304.3
0
LINE
8
BLACK
6
CONTINUOUS
10
15
20
-304.3
11
15
21
-304.3
0
LINE
8
BLACK
6
CONTINUOUS
10
15
20
-304.3
11
15
21
-304.3
0
LINE
8
BLACK
6
CONTINUOUS
10
15
20
-304.3
11
15
21
-314
0
LINE
8
BLACK
6
CONTINUOUS
10
15
20
-314
11
15
21
-314
0
LINE
8
BLACK
6
CONTINUOUS
10
15
20
-314
11
15
21
-314
0
LINE
8
BLACK
6
CONTINUOUS
10
15
20
-314
11
15
21
-314
0
LINE
8
BLACK
6
CONTINUOUS
10
15
20
-314
11
15
21
-314
0
LINE
8
BLACK
6
CONTINUOUS
10
15
20
-314
11
15.0171
21
-314.261
0
LINE
8
BLACK
6
CONTINUOUS
10
15.0171
20
-314.261
11
15.0681
21
-314.518
0
LINE
8
BLACK
6
CONTINUOUS
10
15.0681
20
-314.518
11
15.1522
21
-314.765
0
LINE
8
BLACK
6
CONTINUOUS
10
15.1522
20
-314.765
11
15.2679
21
-315
0
LINE
8
BLACK
6
CONTINUOUS
10
15.2679
20
-315
11
15.4133
21
-315.218
0
LINE
8
BLACK
6
CONTINUOUS
10
15.4133
20
-315.218
11
15.5858
21
-315.414
0
LINE
8
BLACK
6
CONTINUOUS
10
15.5858
20
-315.414
11
15.7824
21
-315.587
0
LINE
8
BLACK
6
CONTINUOUS
10
15.7824
20
-315.587
11
16
21
-315.732
0
LINE
8
BLACK
6
CONTINUOUS
10
16
20
-315.732
11
16.2346
21
-315.848
0
LINE
8
BLACK
6
CONTINUOUS
10
16.2346
20
-315.848
11
16.4823
21
-315.932
0
LINE
8
BLACK
6
CONTINUOUS
10
16.4823
20
-315.932
11
16.7389
21
-315.983
0
LINE
8
BLACK
6
CONTINUOUS
10
16.7389
20
-315.983
11
17
21
-316
0
LINE
8
BLACK
6
CONTINUOUS
10
17
20
-316
11
17
21
-316.004
0
LINE
8
BLACK
6
CONTINUOUS
10
17
20
-316.004
11
16.7384
21
-315.987
0
LINE
8
BLACK
6
CONTINUOUS
10
16.7384
20
-315.987
11
16.4813
21
-315.936
0
LINE
8
BLACK
6
CONTINUOUS
10
16.4813
20
-315.936
11
16.233
21
-315.852
0
LINE
8
BLACK
6
CONTINUOUS
10
16.233
20
-315.852
11
15.9979
21
-315.736
0
LINE
8
BLACK
6
CONTINUOUS
10
15.9979
20
-315.736
11
15.7799
21
-315.59
0
LINE
8
BLACK
6
CONTINUOUS
10
15.7799
20
-315.59
11
15.5828
21
-315.417
0
LINE
8
BLACK
6
CONTINUOUS
10
15.5828
20
-315.417
11
15.4099
21
-315.22
0
LINE
8
BLACK
6
CONTINUOUS
10
15.4099
20
-315.22
11
15.2643
21
-315.002
0
LINE
8
BLACK
6
CONTINUOUS
10
15.2643
20
-315.002
11
15.1483
21
-314.767
0
LINE
8
BLACK
6
CONTINUOUS
10
15.1483
20
-314.767
11
15.0641
21
-314.519
0
LINE
8
BLACK
6
CONTINUOUS
10
15.0641
20
-314.519
11
15.0129
21
-314.262
0
LINE
8
BLACK
6
CONTINUOUS
10
15.0129
20
-314.262
11
14.9958
21
-314
0
LINE
8
BLACK
6
CONTINUOUS
10
14.9958
20
-314
11
15
21
-314
0
LINE
8
BLACK
6
CONTINUOUS
10
15
20
-314
11
15
21
-304.3
0
LINE
8
BLACK
6
CONTINUOUS
10
15
20
-304.3
11
10.05
21
-304.3
0
LINE
8
BLACK
6
CONTINUOUS
10
10.05
20
-304.3
11
10.0354
21
-304.335
0
LINE
8
BLACK
6
CONTINUOUS
10
10.0354
20
-304.335
11
10
21
-304.35
0
LINE
8
BLACK
6
CONTINUOUS
10
10
20
-304.35
11
9.96464
21
-304.335
0
LINE
8
BLACK
6
CONTINUOUS
10
9.96464
20
-304.335
11
9.95
21
-304.3
0
LINE
8
BLACK
6
CONTINUOUS
10
9.95
20
-304.3
11
9.95
21
-298.15
0
LINE
8
BLACK
6
CONTINUOUS
10
9.95
20
-298.15
11
9.96464
21
-298.115
0
LINE
8
BLACK
6
CONTINUOUS
10
9.96464
20
-298.115
11
10
21
-298.1
0
LINE
8
BLACK
6
CONTINUOUS
10
10
20
-298.1
11
10.0354
21
-298.115
0
LINE
8
BLACK
6
CONTINUOUS
10
10.0354
20
-298.115
11
10.05
21
-298.15
0
LINE
8
BLACK
6
CONTINUOUS
10
10.05
20
-298.15
11
15
21
-298.15
0
LINE
8
BLACK
6
CONTINUOUS
10
15
20
-298.15
11
15
21
-233
0
LINE
8
BLACK
6
CONTINUOUS
10
15
20
-233
11
15
21
-233
0
LINE
8
BLACK
6
CONTINUOUS
10
15
20
-233
11
15
21
-233
0
LINE
8
BLACK
6
CONTINUOUS
10
15
20
-233
11
15
21
-233
0
LINE
8
BLACK
6
CONTINUOUS
10
15
20
-233
11
15
21
-233
0
LINE
8
BLACK
6
CONTINUOUS
10
15
20
-233
11
15
21
-298.15
0
LINE
8
BLACK
6
CONTINUOUS
10
15
20
-298.15
11
15
21
-298.15
0
LINE
8
BLACK
6
CONTINUOUS
10
15
20
-298.15
11
15
21
-298.15
0
LINE
8
BLACK
6
CONTINUOUS
10
15
20
-298.15
11
10.05
21
-298.15
0
LINE
8
BLACK
6
CONTINUOUS
10
10.05
20
-298.15
11
10.05
21
-304.3
0
LINE
8
BLACK
6
CONTINUOUS
10
426
20
-271.925
11
430.95
21
-271.925
0
LINE
8
BLACK
6
CONTINUOUS
10
430.95
20
-271.925
11
430.965
21
-271.89
0
LINE
8
BLACK
6
CONTINUOUS
10
430.965
20
-271.89
11
431
21
-271.875
0
LINE
8
BLACK
6
CONTINUOUS
10
431
20
-271.875
11
431.035
21
-271.89
0
LINE
8
BLACK
6
CONTINUOUS
10
431.035
20
-271.89
11
431.05
21
-271.925
0
LINE
8
BLACK
6
CONTINUOUS
10
431.05
20
-271.925
11
431.05
21
-278.075
0
LINE
8
BLACK
6
CONTINUOUS
10
431.05
20
-278.075
11
431.035
21
-278.11
0
LINE
8
BLACK
6
CONTINUOUS
10
431.035
20
-278.11
11
431
21
-278.125
0
LINE
8
BLACK
6
CONTINUOUS
10
431
20
-278.125
11
430.965
21
-278.11
0
LINE
8
BLACK
6
CONTINUOUS
10
430.965
20
-278.11
11
430.95
21
-278.075
0
LINE
8
BLACK
6
CONTINUOUS
10
430.95
20
-278.075
11
426
21
-278.075
0
LINE
8
BLACK
6
CONTINUOUS
10
426
20
-278.075
11
426
21
-314
0
LINE
8
BLACK
6
CONTINUOUS
10
426
20
-314
11
426
21
-314
0
LINE
8
BLACK
6
CONTINUOUS
10
426
20
-314
11
426
21
-314
0
LINE
8
BLACK
6
CONTINUOUS
10
426
20
-314
11
426
21
-314
0
LINE
8
BLACK
6
CONTINUOUS
10
426
20
-314
11
426
21
-314
0
LINE
8
BLACK
6
CONTINUOUS
10
426
20
-314
11
426
21
-314
0
LINE
8
BLACK
6
CONTINUOUS
10
426
20
-314
11
426
21
-314
0
LINE
8
BLACK
6
CONTINUOUS
10
426
20
-314
11
426
21
-314
0
LINE
8
BLACK
6
CONTINUOUS
10
426
20
-314
11
426
21
-278.075
0
LINE
8
BLACK
6
CONTINUOUS
10
426
20
-278.075
11
426
21
-278.075
0
LINE
8
BLACK
6
CONTINUOUS
10
426
20
-278.075
11
426
21
-278.075
0
LINE
8
BLACK
6
CONTINUOUS
10
426
20
-278.075
11
430.95
21
-278.075
0
LINE
8
BLACK
6
CONTINUOUS
10
430.95
20
-278.075
11
430.95
21
-271.925
0
LINE
8
BLACK
6
CONTINUOUS
10
430.95
20
-271.925
11
426
21
-271.925
0
LINE
8
BLACK
6
CONTINUOUS
10
426
20
-271.925
11
426
21
-271.925
0
LINE
8
BLACK
6
CONTINUOUS
10
426
20
-271.925
11
426
21
-271.925
0
LINE
8
BLACK
6
CONTINUOUS
10
426
20
-271.925
11
426
21
-232
0
LINE
8
BLACK
6
CONTINUOUS
10
426
20
-232
11
426
21
-232
0
LINE
8
BLACK
6
CONTINUOUS
10
426
20
-232
11
426
21
-232
0
LINE
8
BLACK
6
CONTINUOUS
10
426
20
-232
11
431
21
-232
0
LINE
8
BLACK
6
CONTINUOUS
10
431
20
-232
11
431
21
-210
0
LINE
8
BLACK
6
CONTINUOUS
10
431
20
-210
11
418
21
-210
0
LINE
8
BLACK
6
CONTINUOUS
10
418
20
-210
11
418
21
-215
0
LINE
8
BLACK
6
CONTINUOUS
10
418
20
-215
11
418
21
-215
0
LINE
8
BLACK
6
CONTINUOUS
10
418
20
-215
11
418
21
-215
0
LINE
8
BLACK
6
CONTINUOUS
10
418
20
-215
11
385.84
21
-215
0
LINE
8
BLACK
6
CONTINUOUS
10
385.84
20
-215
11
385.84
21
-215
0
LINE
8
BLACK
6
CONTINUOUS
10
385.84
20
-215
11
385.84
21
-215
0
LINE
8
BLACK
6
CONTINUOUS
10
385.84
20
-215
11
385.84
21
-212
0
LINE
8
BLACK
6
CONTINUOUS
10
385.84
20
-212
11
376.44
21
-212
0
LINE
8
BLACK
6
CONTINUOUS
10
376.44
20
-212
11
376.44
21
-215
0
LINE
8
BLACK
6
CONTINUOUS
10
376.44
20
-215
11
376.44
21
-215
0
LINE
8
BLACK
6
CONTINUOUS
10
376.44
20
-215
11
376.44
21
-215
0
LINE
8
BLACK
6
CONTINUOUS
10
376.44
20
-215
11
365
21
-215
0
LINE
8
BLACK
6
CONTINUOUS
10
365
20
-215
11
260.854
21
-237.137
0
LINE
8
BLACK
6
CONTINUOUS
10
260.854
20
-237.137
11
260.854
21
-237.137
0
LINE
8
BLACK
6
CONTINUOUS
10
260.854
20
-237.137
11
260.854
21
-237.137
0
LINE
8
BLACK
6
CONTINUOUS
10
260.854
20
-237.137
11
260.854
21
-237.137
0
LINE
8
BLACK
6
CONTINUOUS
10
260.854
20
-237.137
11
260.602
21
-237.208
0
LINE
8
BLACK
6
CONTINUOUS
10
260.602
20
-237.208
11
260.362
21
-237.311
0
LINE
8
BLACK
6
CONTINUOUS
10
260.362
20
-237.311
11
260.137
21
-237.445
0
LINE
8
BLACK
6
CONTINUOUS
10
260.137
20
-237.445
11
259.932
21
-237.607
0
LINE
8
BLACK
6
CONTINUOUS
10
259.932
20
-237.607
11
259.749
21
-237.795
0
LINE
8
BLACK
6
CONTINUOUS
10
259.749
20
-237.795
11
259.593
21
-238.004
0
LINE
8
BLACK
6
CONTINUOUS
10
259.593
20
-238.004
11
259.465
21
-238.232
0
LINE
8
BLACK
6
CONTINUOUS
10
259.465
20
-238.232
11
259.368
21
-238.475
0
LINE
8
BLACK
6
CONTINUOUS
10
259.368
20
-238.475
11
259.303
21
-238.729
0
LINE
8
BLACK
6
CONTINUOUS
10
259.303
20
-238.729
11
259.273
21
-238.989
0
LINE
8
BLACK
6
CONTINUOUS
10
259.273
20
-238.989
11
259.276
21
-239.25
0
LINE
8
BLACK
6
CONTINUOUS
10
259.276
20
-239.25
11
259.314
21
-239.509
0
LINE
8
BLACK
6
CONTINUOUS
10
259.314
20
-239.509
11
259.31
21
-239.51
0
LINE
8
BLACK
6
CONTINUOUS
10
259.31
20
-239.51
11
259.272
21
-239.251
0
LINE
8
BLACK
6
CONTINUOUS
10
259.272
20
-239.251
11
259.268
21
-238.989
0
LINE
8
BLACK
6
CONTINUOUS
10
259.268
20
-238.989
11
259.299
21
-238.728
0
LINE
8
BLACK
6
CONTINUOUS
10
259.299
20
-238.728
11
259.364
21
-238.474
0
LINE
8
BLACK
6
CONTINUOUS
10
259.364
20
-238.474
11
259.461
21
-238.231
0
LINE
8
BLACK
6
CONTINUOUS
10
259.461
20
-238.231
11
259.589
21
-238.002
0
LINE
8
BLACK
6
CONTINUOUS
10
259.589
20
-238.002
11
259.746
21
-237.792
0
LINE
8
BLACK
6
CONTINUOUS
10
259.746
20
-237.792
11
259.929
21
-237.604
0
LINE
8
BLACK
6
CONTINUOUS
10
259.929
20
-237.604
11
260.135
21
-237.442
0
LINE
8
BLACK
6
CONTINUOUS
10
260.135
20
-237.442
11
260.36
21
-237.308
0
LINE
8
BLACK
6
CONTINUOUS
10
260.36
20
-237.308
11
260.601
21
-237.204
0
LINE
8
BLACK
6
CONTINUOUS
10
260.601
20
-237.204
11
260.853
21
-237.133
0
LINE
8
BLACK
6
CONTINUOUS
10
260.853
20
-237.133
11
260.854
21
-237.137
0
LINE
8
BLACK
6
CONTINUOUS
10
260.854
20
-237.137
11
365
21
-215
0
LINE
8
BLACK
6
CONTINUOUS
10
365
20
-215
11
365
21
-215
0
LINE
8
BLACK
6
CONTINUOUS
10
365
20
-215
11
365
21
-215
0
LINE
8
BLACK
6
CONTINUOUS
10
365
20
-215
11
376.44
21
-215
0
LINE
8
BLACK
6
CONTINUOUS
10
376.44
20
-215
11
376.44
21
-212
0
LINE
8
BLACK
6
CONTINUOUS
10
376.44
20
-212
11
376.44
21
-212
0
LINE
8
BLACK
6
CONTINUOUS
10
376.44
20
-212
11
376.44
21
-212
0
LINE
8
BLACK
6
CONTINUOUS
10
376.44
20
-212
11
385.84
21
-212
0
LINE
8
BLACK
6
CONTINUOUS
10
385.84
20
-212
11
385.84
21
-212
0
LINE
8
BLACK
6
CONTINUOUS
10
385.84
20
-212
11
385.84
21
-212
0
LINE
8
BLACK
6
CONTINUOUS
10
385.84
20
-212
11
385.84
21
-215
0
LINE
8
BLACK
6
CONTINUOUS
10
385.84
20
-215
11
418
21
-215
0
LINE
8
BLACK
6
CONTINUOUS
10
418
20
-215
11
418
21
-210
0
LINE
8
BLACK
6
CONTINUOUS
10
418
20
-210
11
418
21
-210
0
LINE
8
BLACK
6
CONTINUOUS
10
418
20
-210
11
418
21
-210
0
LINE
8
BLACK
6
CONTINUOUS
10
418
20
-210
11
431
21
-210
0
LINE
8
BLACK
6
CONTINUOUS
10
431
20
-210
11
431
21
-210
0
LINE
8
BLACK
6
CONTINUOUS
10
431
20
-210
11
431
21
-210
0
LINE
8
BLACK
6
CONTINUOUS
10
431
20
-210
11
431
21
-232
0
LINE
8
BLACK
6
CONTINUOUS
10
431
20
-232
11
431
21
-232
0
LINE
8
BLACK
6
CONTINUOUS
10
431
20
-232
11
431
21
-232
0
LINE
8
BLACK
6
CONTINUOUS
10
431
20
-232
11
426
21
-232
0
LINE
8
BLACK
6
CONTINUOUS
10
426
20
-232
11
426
21
-271.925
0
LINE
8
BLACK
6
CONTINUOUS
10
272.818
20
-312.517
11
272.818
21
-312.517
0
LINE
8
BLACK
6
CONTINUOUS
10
272.818
20
-312.517
11
272.818
21
-312.517
0
LINE
8
BLACK
6
CONTINUOUS
10
272.818
20
-312.517
11
272.818
21
-312.517
0
LINE
8
BLACK
6
CONTINUOUS
10
272.818
20
-312.517
11
267.419
21
-313.665
0
LINE
8
BLACK
6
CONTINUOUS
10
267.419
20
-313.665
11
267.419
21
-313.665
0
LINE
8
BLACK
6
CONTINUOUS
10
267.419
20
-313.665
11
267.419
21
-313.665
0
LINE
8
BLACK
6
CONTINUOUS
10
267.419
20
-313.665
11
267.419
21
-313.665
0
LINE
8
BLACK
6
CONTINUOUS
10
267.419
20
-313.665
11
267.419
21
-313.665
0
LINE
8
BLACK
6
CONTINUOUS
10
267.419
20
-313.665
11
272.818
21
-312.517
0
LINE
8
BLACK
6
CONTINUOUS
10
272.818
20
-312.517
11
272.818
21
-312.517
0
LINE
8
BLACK
6
CONTINUOUS
10
168.035
20
-294.048
11
168.288
21
-294.119
0
LINE
8
BLACK
6
CONTINUOUS
10
168.288
20
-294.119
11
168.529
21
-294.223
0
LINE
8
BLACK
6
CONTINUOUS
10
168.529
20
-294.223
11
168.754
21
-294.357
0
LINE
8
BLACK
6
CONTINUOUS
10
168.754
20
-294.357
11
168.96
21
-294.519
0
LINE
8
BLACK
6
CONTINUOUS
10
168.96
20
-294.519
11
169.143
21
-294.707
0
LINE
8
BLACK
6
CONTINUOUS
10
169.143
20
-294.707
11
169.3
21
-294.917
0
LINE
8
BLACK
6
CONTINUOUS
10
169.3
20
-294.917
11
169.428
21
-295.146
0
LINE
8
BLACK
6
CONTINUOUS
10
169.428
20
-295.146
11
169.525
21
-295.389
0
LINE
8
BLACK
6
CONTINUOUS
10
169.525
20
-295.389
11
169.589
21
-295.643
0
LINE
8
BLACK
6
CONTINUOUS
10
169.589
20
-295.643
11
169.62
21
-295.904
0
LINE
8
BLACK
6
CONTINUOUS
10
169.62
20
-295.904
11
169.617
21
-296.166
0
LINE
8
BLACK
6
CONTINUOUS
10
169.617
20
-296.166
11
169.579
21
-296.425
0
LINE
8
BLACK
6
CONTINUOUS
10
169.579
20
-296.425
11
169.575
21
-296.424
0
LINE
8
BLACK
6
CONTINUOUS
10
169.575
20
-296.424
11
166.446
21
-311.145
0
LINE
8
BLACK
6
CONTINUOUS
10
166.446
20
-311.145
11
166.446
21
-311.145
0
LINE
8
BLACK
6
CONTINUOUS
10
166.446
20
-311.145
11
166.446
21
-311.145
0
LINE
8
BLACK
6
CONTINUOUS
10
166.446
20
-311.145
11
166.446
21
-311.145
0
LINE
8
BLACK
6
CONTINUOUS
10
166.446
20
-311.145
11
166.408
21
-311.404
0
LINE
8
BLACK
6
CONTINUOUS
10
166.408
20
-311.404
11
166.405
21
-311.666
0
LINE
8
BLACK
6
CONTINUOUS
10
166.405
20
-311.666
11
166.436
21
-311.926
0
LINE
8
BLACK
6
CONTINUOUS
10
166.436
20
-311.926
11
166.5
21
-312.179
0
LINE
8
BLACK
6
CONTINUOUS
10
166.5
20
-312.179
11
166.597
21
-312.422
0
LINE
8
BLACK
6
CONTINUOUS
10
166.597
20
-312.422
11
166.725
21
-312.65
0
LINE
8
BLACK
6
CONTINUOUS
10
166.725
20
-312.65
11
166.881
21
-312.86
0
LINE
8
BLACK
6
CONTINUOUS
10
166.881
20
-312.86
11
167.064
21
-313.047
0
LINE
8
BLACK
6
CONTINUOUS
10
167.064
20
-313.047
11
167.269
21
-313.209
0
LINE
8
BLACK
6
CONTINUOUS
10
167.269
20
-313.209
11
167.494
21
-313.343
0
LINE
8
BLACK
6
CONTINUOUS
10
167.494
20
-313.343
11
167.735
21
-313.446
0
LINE
8
BLACK
6
CONTINUOUS
10
167.735
20
-313.446
11
167.986
21
-313.518
0
LINE
8
BLACK
6
CONTINUOUS
10
167.986
20
-313.518
11
167.986
21
-313.522
0
LINE
8
BLACK
6
CONTINUOUS
10
167.986
20
-313.522
11
167.733
21
-313.45
0
LINE
8
BLACK
6
CONTINUOUS
10
167.733
20
-313.45
11
167.492
21
-313.347
0
LINE
8
BLACK
6
CONTINUOUS
10
167.492
20
-313.347
11
167.267
21
-313.213
0
LINE
8
BLACK
6
CONTINUOUS
10
167.267
20
-313.213
11
167.061
21
-313.051
0
LINE
8
BLACK
6
CONTINUOUS
10
167.061
20
-313.051
11
166.878
21
-312.863
0
LINE
8
BLACK
6
CONTINUOUS
10
166.878
20
-312.863
11
166.721
21
-312.653
0
LINE
8
BLACK
6
CONTINUOUS
10
166.721
20
-312.653
11
166.593
21
-312.424
0
LINE
8
BLACK
6
CONTINUOUS
10
166.593
20
-312.424
11
166.496
21
-312.18
0
LINE
8
BLACK
6
CONTINUOUS
10
166.496
20
-312.18
11
166.432
21
-311.926
0
LINE
8
BLACK
6
CONTINUOUS
10
166.432
20
-311.926
11
166.401
21
-311.666
0
LINE
8
BLACK
6
CONTINUOUS
10
166.401
20
-311.666
11
166.404
21
-311.404
0
LINE
8
BLACK
6
CONTINUOUS
10
166.404
20
-311.404
11
166.442
21
-311.144
0
LINE
8
BLACK
6
CONTINUOUS
10
166.442
20
-311.144
11
166.446
21
-311.145
0
LINE
8
BLACK
6
CONTINUOUS
10
166.446
20
-311.145
11
169.575
21
-296.424
0
LINE
8
BLACK
6
CONTINUOUS
10
169.575
20
-296.424
11
169.575
21
-296.424
0
LINE
8
BLACK
6
CONTINUOUS
10
169.575
20
-296.424
11
169.575
21
-296.424
0
LINE
8
BLACK
6
CONTINUOUS
10
169.575
20
-296.424
11
169.575
21
-296.424
0
LINE
8
BLACK
6
CONTINUOUS
10
169.575
20
-296.424
11
169.613
21
-296.165
0
LINE
8
BLACK
6
CONTINUOUS
10
169.613
20
-296.165
11
169.616
21
-295.904
0
LINE
8
BLACK
6
CONTINUOUS
10
169.616
20
-295.904
11
169.585
21
-295.644
0
LINE
8
BLACK
6
CONTINUOUS
10
169.585
20
-295.644
11
169.521
21
-295.39
0
LINE
8
BLACK
6
CONTINUOUS
10
169.521
20
-295.39
11
169.424
21
-295.147
0
LINE
8
BLACK
6
CONTINUOUS
10
169.424
20
-295.147
11
169.296
21
-294.919
0
LINE
8
BLACK
6
CONTINUOUS
10
169.296
20
-294.919
11
169.14
21
-294.709
0
LINE
8
BLACK
6
CONTINUOUS
10
169.14
20
-294.709
11
168.957
21
-294.522
0
LINE
8
BLACK
6
CONTINUOUS
10
168.957
20
-294.522
11
168.752
21
-294.36
0
LINE
8
BLACK
6
CONTINUOUS
10
168.752
20
-294.36
11
168.527
21
-294.226
0
LINE
8
BLACK
6
CONTINUOUS
10
168.527
20
-294.226
11
168.286
21
-294.123
0
LINE
8
BLACK
6
CONTINUOUS
10
168.286
20
-294.123
11
168.035
21
-294.052
0
LINE
8
BLACK
6
CONTINUOUS
10
168.035
20
-294.052
11
168.035
21
-294.052
0
LINE
8
BLACK
6
CONTINUOUS
10
168.035
20
-294.052
11
168.035
21
-294.052
0
LINE
8
BLACK
6
CONTINUOUS
10
168.035
20
-294.052
11
168.035
21
-294.052
0
LINE
8
BLACK
6
CONTINUOUS
10
168.035
20
-294.052
11
168.035
21
-294.052
0
LINE
8
BLACK
6
CONTINUOUS
10
168.035
20
-294.052
11
168.035
21
-294.052
0
LINE
8
BLACK
6
CONTINUOUS
10
168.035
20
-294.052
11
168.035
21
-294.052
0
LINE
8
BLACK
6
CONTINUOUS
10
168.035
20
-294.052
11
162.655
21
-292.909
0
LINE
8
BLACK
6
CONTINUOUS
10
162.655
20
-292.909
11
162.654
21
-292.913
0
LINE
8
BLACK
6
CONTINUOUS
10
162.654
20
-292.913
11
162.402
21
-292.842
0
LINE
8
BLACK
6
CONTINUOUS
10
162.402
20
-292.842
11
162.161
21
-292.738
0
LINE
8
BLACK
6
CONTINUOUS
10
162.161
20
-292.738
11
161.935
21
-292.604
0
LINE
8
BLACK
6
CONTINUOUS
10
161.935
20
-292.604
11
161.73
21
-292.442
0
LINE
8
BLACK
6
CONTINUOUS
10
161.73
20
-292.442
11
161.547
21
-292.254
0
LINE
8
BLACK
6
CONTINUOUS
10
161.547
20
-292.254
11
161.39
21
-292.044
0
LINE
8
BLACK
6
CONTINUOUS
10
161.39
20
-292.044
11
161.262
21
-291.815
0
LINE
8
BLACK
6
CONTINUOUS
10
161.262
20
-291.815
11
161.164
21
-291.572
0
LINE
8
BLACK
6
CONTINUOUS
10
161.164
20
-291.572
11
161.1
21
-291.318
0
LINE
8
BLACK
6
CONTINUOUS
10
161.1
20
-291.318
11
161.069
21
-291.057
0
LINE
8
BLACK
6
CONTINUOUS
10
161.069
20
-291.057
11
161.073
21
-290.795
0
LINE
8
BLACK
6
CONTINUOUS
10
161.073
20
-290.795
11
161.11
21
-290.536
0
LINE
8
BLACK
6
CONTINUOUS
10
161.11
20
-290.536
11
161.114
21
-290.536
0
LINE
8
BLACK
6
CONTINUOUS
10
161.114
20
-290.536
11
164.254
21
-275.766
0
LINE
8
BLACK
6
CONTINUOUS
10
164.254
20
-275.766
11
164.254
21
-275.766
0
LINE
8
BLACK
6
CONTINUOUS
10
164.254
20
-275.766
11
164.254
21
-275.766
0
LINE
8
BLACK
6
CONTINUOUS
10
164.254
20
-275.766
11
164.254
21
-275.766
0
LINE
8
BLACK
6
CONTINUOUS
10
164.254
20
-275.766
11
164.254
21
-275.766
0
LINE
8
BLACK
6
CONTINUOUS
10
164.254
20
-275.766
11
164.254
21
-275.766
0
LINE
8
BLACK
6
CONTINUOUS
10
164.254
20
-275.766
11
164.254
21
-275.766
0
LINE
8
BLACK
6
CONTINUOUS
10
164.254
20
-275.766
11
161.114
21
-290.536
0
LINE
8
BLACK
6
CONTINUOUS
10
161.114
20
-290.536
11
161.114
21
-290.537
0
LINE
8
BLACK
6
CONTINUOUS
10
161.114
20
-290.537
11
161.114
21
-290.537
0
LINE
8
BLACK
6
CONTINUOUS
10
161.114
20
-290.537
11
161.114
21
-290.536
0
LINE
8
BLACK
6
CONTINUOUS
10
161.114
20
-290.536
11
161.077
21
-290.795
0
LINE
8
BLACK
6
CONTINUOUS
10
161.077
20
-290.795
11
161.073
21
-291.057
0
LINE
8
BLACK
6
CONTINUOUS
10
161.073
20
-291.057
11
161.104
21
-291.317
0
LINE
8
BLACK
6
CONTINUOUS
10
161.104
20
-291.317
11
161.168
21
-291.57
0
LINE
8
BLACK
6
CONTINUOUS
10
161.168
20
-291.57
11
161.265
21
-291.813
0
LINE
8
BLACK
6
CONTINUOUS
10
161.265
20
-291.813
11
161.393
21
-292.042
0
LINE
8
BLACK
6
CONTINUOUS
10
161.393
20
-292.042
11
161.55
21
-292.251
0
LINE
8
BLACK
6
CONTINUOUS
10
161.55
20
-292.251
11
161.732
21
-292.439
0
LINE
8
BLACK
6
CONTINUOUS
10
161.732
20
-292.439
11
161.938
21
-292.601
0
LINE
8
BLACK
6
CONTINUOUS
10
161.938
20
-292.601
11
162.163
21
-292.734
0
LINE
8
BLACK
6
CONTINUOUS
10
162.163
20
-292.734
11
162.403
21
-292.838
0
LINE
8
BLACK
6
CONTINUOUS
10
162.403
20
-292.838
11
162.655
21
-292.909
0
LINE
8
BLACK
6
CONTINUOUS
10
162.655
20
-292.909
11
162.655
21
-292.909
0
LINE
8
BLACK
6
CONTINUOUS
10
162.655
20
-292.909
11
162.655
21
-292.909
0
LINE
8
BLACK
6
CONTINUOUS
10
162.655
20
-292.909
11
162.655
21
-292.909
0
LINE
8
BLACK
6
CONTINUOUS
10
162.655
20
-292.909
11
162.655
21
-292.909
0
LINE
8
BLACK
6
CONTINUOUS
10
162.655
20
-292.909
11
168.035
21
-294.052
0
LINE
8
BLACK
6
CONTINUOUS
10
168.035
20
-294.052
11
168.035
21
-294.048
0
LINE
8
BLACK
6
CONTINUOUS
10
274.4
20
-310.403
11
274.404
21
-310.666
0
LINE
8
BLACK
6
CONTINUOUS
10
274.404
20
-310.666
11
274.373
21
-310.926
0
LINE
8
BLACK
6
CONTINUOUS
10
274.373
20
-310.926
11
274.308
21
-311.18
0
LINE
8
BLACK
6
CONTINUOUS
10
274.308
20
-311.18
11
274.211
21
-311.424
0
LINE
8
BLACK
6
CONTINUOUS
10
274.211
20
-311.424
11
274.083
21
-311.652
0
LINE
8
BLACK
6
CONTINUOUS
10
274.083
20
-311.652
11
273.926
21
-311.862
0
LINE
8
BLACK
6
CONTINUOUS
10
273.926
20
-311.862
11
273.743
21
-312.05
0
LINE
8
BLACK
6
CONTINUOUS
10
273.743
20
-312.05
11
273.537
21
-312.212
0
LINE
8
BLACK
6
CONTINUOUS
10
273.537
20
-312.212
11
273.312
21
-312.346
0
LINE
8
BLACK
6
CONTINUOUS
10
273.312
20
-312.346
11
273.071
21
-312.45
0
LINE
8
BLACK
6
CONTINUOUS
10
273.071
20
-312.45
11
272.819
21
-312.521
0
LINE
8
BLACK
6
CONTINUOUS
10
272.819
20
-312.521
11
272.818
21
-312.517
0
LINE
8
BLACK
6
CONTINUOUS
10
272.818
20
-312.517
11
273.07
21
-312.446
0
LINE
8
BLACK
6
CONTINUOUS
10
273.07
20
-312.446
11
273.31
21
-312.343
0
LINE
8
BLACK
6
CONTINUOUS
10
273.31
20
-312.343
11
273.535
21
-312.209
0
LINE
8
BLACK
6
CONTINUOUS
10
273.535
20
-312.209
11
273.74
21
-312.047
0
LINE
8
BLACK
6
CONTINUOUS
10
273.74
20
-312.047
11
273.923
21
-311.86
0
LINE
8
BLACK
6
CONTINUOUS
10
273.923
20
-311.86
11
274.079
21
-311.65
0
LINE
8
BLACK
6
CONTINUOUS
10
274.079
20
-311.65
11
274.207
21
-311.422
0
LINE
8
BLACK
6
CONTINUOUS
10
274.207
20
-311.422
11
274.304
21
-311.179
0
LINE
8
BLACK
6
CONTINUOUS
10
274.304
20
-311.179
11
274.369
21
-310.925
0
LINE
8
BLACK
6
CONTINUOUS
10
274.369
20
-310.925
11
274.399
21
-310.665
0
LINE
8
BLACK
6
CONTINUOUS
10
274.399
20
-310.665
11
274.396
21
-310.404
0
LINE
8
BLACK
6
CONTINUOUS
10
274.396
20
-310.404
11
274.358
21
-310.145
0
LINE
8
BLACK
6
CONTINUOUS
10
274.358
20
-310.145
11
274.363
21
-310.144
0
LINE
8
BLACK
6
CONTINUOUS
10
274.363
20
-310.144
11
274.4
21
-310.403
0
LINE
8
BLACK
6
CONTINUOUS
10
271.053
20
-294.592
11
271.053
21
-294.592
0
LINE
8
BLACK
6
CONTINUOUS
10
271.053
20
-294.592
11
274.358
21
-310.145
0
LINE
8
BLACK
6
CONTINUOUS
10
274.358
20
-310.145
11
274.358
21
-310.145
0
LINE
8
BLACK
6
CONTINUOUS
10
274.358
20
-310.145
11
274.358
21
-310.145
0
LINE
8
BLACK
6
CONTINUOUS
10
274.358
20
-310.145
11
274.358
21
-310.145
0
LINE
8
BLACK
6
CONTINUOUS
10
274.358
20
-310.145
11
274.358
21
-310.145
0
LINE
8
BLACK
6
CONTINUOUS
10
274.358
20
-310.145
11
271.053
21
-294.592
0
LINE
8
BLACK
6
CONTINUOUS
10
271.053
20
-294.592
11
271.053
21
-294.592
0
LINE
8
BLACK
6
CONTINUOUS
10
271.053
20
-294.592
11
271.053
21
-294.592
0
LINE
8
BLACK
6
CONTINUOUS
10
271.053
20
-294.592
11
271.053
21
-294.592
0
LINE
8
BLACK
6
CONTINUOUS
10
260.813
20
-275.39
11
261.068
21
-275.454
0
LINE
8
BLACK
6
CONTINUOUS
10
261.068
20
-275.454
11
261.311
21
-275.552
0
LINE
8
BLACK
6
CONTINUOUS
10
261.311
20
-275.552
11
261.54
21
-275.68
0
LINE
8
BLACK
6
CONTINUOUS
10
261.54
20
-275.68
11
261.75
21
-275.837
0
LINE
8
BLACK
6
CONTINUOUS
10
261.75
20
-275.837
11
261.938
21
-276.019
0
LINE
8
BLACK
6
CONTINUOUS
10
261.938
20
-276.019
11
262.1
21
-276.225
0
LINE
8
BLACK
6
CONTINUOUS
10
262.1
20
-276.225
11
262.234
21
-276.451
0
LINE
8
BLACK
6
CONTINUOUS
10
262.234
20
-276.451
11
262.337
21
-276.692
0
LINE
8
BLACK
6
CONTINUOUS
10
262.337
20
-276.692
11
262.409
21
-276.944
0
LINE
8
BLACK
6
CONTINUOUS
10
262.409
20
-276.944
11
262.405
21
-276.945
0
LINE
8
BLACK
6
CONTINUOUS
10
262.405
20
-276.945
11
262.405
21
-276.945
0
LINE
8
BLACK
6
CONTINUOUS
10
262.405
20
-276.945
11
265.536
21
-291.676
0
LINE
8
BLACK
6
CONTINUOUS
10
265.536
20
-291.676
11
265.536
21
-291.676
0
LINE
8
BLACK
6
CONTINUOUS
10
265.536
20
-291.676
11
265.536
21
-291.676
0
LINE
8
BLACK
6
CONTINUOUS
10
265.536
20
-291.676
11
265.536
21
-291.676
0
LINE
8
BLACK
6
CONTINUOUS
10
265.536
20
-291.676
11
265.536
21
-291.676
0
LINE
8
BLACK
6
CONTINUOUS
10
265.536
20
-291.676
11
265.607
21
-291.927
0
LINE
8
BLACK
6
CONTINUOUS
10
265.607
20
-291.927
11
265.71
21
-292.168
0
LINE
8
BLACK
6
CONTINUOUS
10
265.71
20
-292.168
11
265.844
21
-292.393
0
LINE
8
BLACK
6
CONTINUOUS
10
265.844
20
-292.393
11
266.006
21
-292.598
0
LINE
8
BLACK
6
CONTINUOUS
10
266.006
20
-292.598
11
266.193
21
-292.781
0
LINE
8
BLACK
6
CONTINUOUS
10
266.193
20
-292.781
11
266.403
21
-292.937
0
LINE
8
BLACK
6
CONTINUOUS
10
266.403
20
-292.937
11
266.631
21
-293.065
0
LINE
8
BLACK
6
CONTINUOUS
10
266.631
20
-293.065
11
266.874
21
-293.162
0
LINE
8
BLACK
6
CONTINUOUS
10
266.874
20
-293.162
11
267.127
21
-293.226
0
LINE
8
BLACK
6
CONTINUOUS
10
267.127
20
-293.226
11
267.387
21
-293.257
0
LINE
8
BLACK
6
CONTINUOUS
10
267.387
20
-293.257
11
267.649
21
-293.254
0
LINE
8
BLACK
6
CONTINUOUS
10
267.649
20
-293.254
11
267.908
21
-293.216
0
LINE
8
BLACK
6
CONTINUOUS
10
267.908
20
-293.216
11
267.908
21
-293.216
0
LINE
8
BLACK
6
CONTINUOUS
10
267.908
20
-293.216
11
267.908
21
-293.216
0
LINE
8
BLACK
6
CONTINUOUS
10
267.908
20
-293.216
11
267.908
21
-293.216
0
LINE
8
BLACK
6
CONTINUOUS
10
267.908
20
-293.216
11
267.908
21
-293.216
0
LINE
8
BLACK
6
CONTINUOUS
10
267.908
20
-293.216
11
268.68
21
-293.052
0
LINE
8
BLACK
6
CONTINUOUS
10
268.68
20
-293.052
11
268.68
21
-293.048
0
LINE
8
BLACK
6
CONTINUOUS
10
268.68
20
-293.048
11
268.939
21
-293.01
0
LINE
8
BLACK
6
CONTINUOUS
10
268.939
20
-293.01
11
269.201
21
-293.007
0
LINE
8
BLACK
6
CONTINUOUS
10
269.201
20
-293.007
11
269.462
21
-293.037
0
LINE
8
BLACK
6
CONTINUOUS
10
269.462
20
-293.037
11
269.716
21
-293.102
0
LINE
8
BLACK
6
CONTINUOUS
10
269.716
20
-293.102
11
269.959
21
-293.199
0
LINE
8
BLACK
6
CONTINUOUS
10
269.959
20
-293.199
11
270.188
21
-293.327
0
LINE
8
BLACK
6
CONTINUOUS
10
270.188
20
-293.327
11
270.398
21
-293.484
0
LINE
8
BLACK
6
CONTINUOUS
10
270.398
20
-293.484
11
270.586
21
-293.667
0
LINE
8
BLACK
6
CONTINUOUS
10
270.586
20
-293.667
11
270.748
21
-293.873
0
LINE
8
BLACK
6
CONTINUOUS
10
270.748
20
-293.873
11
270.882
21
-294.098
0
LINE
8
BLACK
6
CONTINUOUS
10
270.882
20
-294.098
11
270.986
21
-294.339
0
LINE
8
BLACK
6
CONTINUOUS
10
270.986
20
-294.339
11
271.057
21
-294.591
0
LINE
8
BLACK
6
CONTINUOUS
10
271.057
20
-294.591
11
271.053
21
-294.592
0
LINE
8
BLACK
6
CONTINUOUS
10
271.053
20
-294.592
11
270.982
21
-294.341
0
LINE
8
BLACK
6
CONTINUOUS
10
270.982
20
-294.341
11
270.878
21
-294.1
0
LINE
8
BLACK
6
CONTINUOUS
10
270.878
20
-294.1
11
270.745
21
-293.875
0
LINE
8
BLACK
6
CONTINUOUS
10
270.745
20
-293.875
11
270.583
21
-293.67
0
LINE
8
BLACK
6
CONTINUOUS
10
270.583
20
-293.67
11
270.395
21
-293.487
0
LINE
8
BLACK
6
CONTINUOUS
10
270.395
20
-293.487
11
270.186
21
-293.331
0
LINE
8
BLACK
6
CONTINUOUS
10
270.186
20
-293.331
11
269.957
21
-293.203
0
LINE
8
BLACK
6
CONTINUOUS
10
269.957
20
-293.203
11
269.714
21
-293.106
0
LINE
8
BLACK
6
CONTINUOUS
10
269.714
20
-293.106
11
269.461
21
-293.042
0
LINE
8
BLACK
6
CONTINUOUS
10
269.461
20
-293.042
11
269.201
21
-293.011
0
LINE
8
BLACK
6
CONTINUOUS
10
269.201
20
-293.011
11
268.939
21
-293.014
0
LINE
8
BLACK
6
CONTINUOUS
10
268.939
20
-293.014
11
268.68
21
-293.052
0
LINE
8
BLACK
6
CONTINUOUS
10
268.68
20
-293.052
11
268.68
21
-293.052
0
LINE
8
BLACK
6
CONTINUOUS
10
268.68
20
-293.052
11
268.681
21
-293.052
0
LINE
8
BLACK
6
CONTINUOUS
10
268.681
20
-293.052
11
268.681
21
-293.052
0
LINE
8
BLACK
6
CONTINUOUS
10
268.681
20
-293.052
11
268.681
21
-293.052
0
LINE
8
BLACK
6
CONTINUOUS
10
268.681
20
-293.052
11
268.681
21
-293.052
0
LINE
8
BLACK
6
CONTINUOUS
10
268.681
20
-293.052
11
267.908
21
-293.216
0
LINE
8
BLACK
6
CONTINUOUS
10
267.908
20
-293.216
11
267.909
21
-293.22
0
LINE
8
BLACK
6
CONTINUOUS
10
267.909
20
-293.22
11
267.649
21
-293.258
0
LINE
8
BLACK
6
CONTINUOUS
10
267.649
20
-293.258
11
267.387
21
-293.261
0
LINE
8
BLACK
6
CONTINUOUS
10
267.387
20
-293.261
11
267.127
21
-293.231
0
LINE
8
BLACK
6
CONTINUOUS
10
267.127
20
-293.231
11
266.873
21
-293.166
0
LINE
8
BLACK
6
CONTINUOUS
10
266.873
20
-293.166
11
266.629
21
-293.069
0
LINE
8
BLACK
6
CONTINUOUS
10
266.629
20
-293.069
11
266.4
21
-292.941
0
LINE
8
BLACK
6
CONTINUOUS
10
266.4
20
-292.941
11
266.19
21
-292.784
0
LINE
8
BLACK
6
CONTINUOUS
10
266.19
20
-292.784
11
266.002
21
-292.601
0
LINE
8
BLACK
6
CONTINUOUS
10
266.002
20
-292.601
11
265.84
21
-292.395
0
LINE
8
BLACK
6
CONTINUOUS
10
265.84
20
-292.395
11
265.706
21
-292.17
0
LINE
8
BLACK
6
CONTINUOUS
10
265.706
20
-292.17
11
265.603
21
-291.929
0
LINE
8
BLACK
6
CONTINUOUS
10
265.603
20
-291.929
11
265.532
21
-291.677
0
LINE
8
BLACK
6
CONTINUOUS
10
265.532
20
-291.677
11
265.536
21
-291.676
0
LINE
8
BLACK
6
CONTINUOUS
10
265.536
20
-291.676
11
262.404
21
-276.945
0
LINE
8
BLACK
6
CONTINUOUS
10
262.404
20
-276.945
11
262.404
21
-276.945
0
LINE
8
BLACK
6
CONTINUOUS
10
262.404
20
-276.945
11
262.404
21
-276.945
0
LINE
8
BLACK
6
CONTINUOUS
10
262.404
20
-276.945
11
262.404
21
-276.945
0
LINE
8
BLACK
6
CONTINUOUS
10
262.404
20
-276.945
11
262.333
21
-276.693
0
LINE
8
BLACK
6
CONTINUOUS
10
262.333
20
-276.693
11
262.23
21
-276.453
0
LINE
8
BLACK
6
CONTINUOUS
10
262.23
20
-276.453
11
262.096
21
-276.228
0
LINE
8
BLACK
6
CONTINUOUS
10
262.096
20
-276.228
11
261.935
21
-276.022
0
LINE
8
BLACK
6
CONTINUOUS
10
261.935
20
-276.022
11
261.747
21
-275.84
0
LINE
8
BLACK
6
CONTINUOUS
10
261.747
20
-275.84
11
261.537
21
-275.683
0
LINE
8
BLACK
6
CONTINUOUS
10
261.537
20
-275.683
11
261.309
21
-275.555
0
LINE
8
BLACK
6
CONTINUOUS
10
261.309
20
-275.555
11
261.066
21
-275.458
0
LINE
8
BLACK
6
CONTINUOUS
10
261.066
20
-275.458
11
260.813
21
-275.394
0
LINE
8
BLACK
6
CONTINUOUS
10
260.813
20
-275.394
11
260.553
21
-275.363
0
LINE
8
BLACK
6
CONTINUOUS
10
260.553
20
-275.363
11
260.291
21
-275.367
0
LINE
8
BLACK
6
CONTINUOUS
10
260.291
20
-275.367
11
260.032
21
-275.404
0
LINE
8
BLACK
6
CONTINUOUS
10
260.032
20
-275.404
11
260.031
21
-275.4
0
LINE
8
BLACK
6
CONTINUOUS
10
260.031
20
-275.4
11
260.291
21
-275.362
0
LINE
8
BLACK
6
CONTINUOUS
10
260.291
20
-275.362
11
260.553
21
-275.359
0
LINE
8
BLACK
6
CONTINUOUS
10
260.553
20
-275.359
11
260.813
21
-275.39
0
LINE
8
BLACK
6
CONTINUOUS
10
161.98
20
-273.238
11
161.98
21
-273.238
0
LINE
8
BLACK
6
CONTINUOUS
10
161.98
20
-273.238
11
161.98
21
-273.238
0
LINE
8
BLACK
6
CONTINUOUS
10
161.98
20
-273.238
11
161.98
21
-273.238
0
LINE
8
BLACK
6
CONTINUOUS
10
161.98
20
-273.238
11
161.98
21
-273.238
0
LINE
8
BLACK
6
CONTINUOUS
10
161.98
20
-273.238
11
162.713
21
-273.394
0
LINE
8
BLACK
6
CONTINUOUS
10
162.713
20
-273.394
11
162.714
21
-273.39
0
LINE
8
BLACK
6
CONTINUOUS
10
162.714
20
-273.39
11
162.967
21
-273.461
0
LINE
8
BLACK
6
CONTINUOUS
10
162.967
20
-273.461
11
163.207
21
-273.565
0
LINE
8
BLACK
6
CONTINUOUS
10
163.207
20
-273.565
11
163.433
21
-273.699
0
LINE
8
BLACK
6
CONTINUOUS
10
163.433
20
-273.699
11
163.639
21
-273.861
0
LINE
8
BLACK
6
CONTINUOUS
10
163.639
20
-273.861
11
163.822
21
-274.049
0
LINE
8
BLACK
6
CONTINUOUS
10
163.822
20
-274.049
11
163.978
21
-274.259
0
LINE
8
BLACK
6
CONTINUOUS
10
163.978
20
-274.259
11
164.106
21
-274.488
0
LINE
8
BLACK
6
CONTINUOUS
10
164.106
20
-274.488
11
164.204
21
-274.731
0
LINE
8
BLACK
6
CONTINUOUS
10
164.204
20
-274.731
11
164.268
21
-274.985
0
LINE
8
BLACK
6
CONTINUOUS
10
164.268
20
-274.985
11
164.299
21
-275.246
0
LINE
8
BLACK
6
CONTINUOUS
10
164.299
20
-275.246
11
164.296
21
-275.508
0
LINE
8
BLACK
6
CONTINUOUS
10
164.296
20
-275.508
11
164.258
21
-275.767
0
LINE
8
BLACK
6
CONTINUOUS
10
164.258
20
-275.767
11
164.254
21
-275.766
0
LINE
8
BLACK
6
CONTINUOUS
10
164.254
20
-275.766
11
164.291
21
-275.508
0
LINE
8
BLACK
6
CONTINUOUS
10
164.291
20
-275.508
11
164.295
21
-275.246
0
LINE
8
BLACK
6
CONTINUOUS
10
164.295
20
-275.246
11
164.264
21
-274.986
0
LINE
8
BLACK
6
CONTINUOUS
10
164.264
20
-274.986
11
164.2
21
-274.733
0
LINE
8
BLACK
6
CONTINUOUS
10
164.2
20
-274.733
11
164.103
21
-274.49
0
LINE
8
BLACK
6
CONTINUOUS
10
164.103
20
-274.49
11
163.975
21
-274.261
0
LINE
8
BLACK
6
CONTINUOUS
10
163.975
20
-274.261
11
163.818
21
-274.052
0
LINE
8
BLACK
6
CONTINUOUS
10
163.818
20
-274.052
11
163.636
21
-273.864
0
LINE
8
BLACK
6
CONTINUOUS
10
163.636
20
-273.864
11
163.43
21
-273.702
0
LINE
8
BLACK
6
CONTINUOUS
10
163.43
20
-273.702
11
163.205
21
-273.569
0
LINE
8
BLACK
6
CONTINUOUS
10
163.205
20
-273.569
11
162.965
21
-273.465
0
LINE
8
BLACK
6
CONTINUOUS
10
162.965
20
-273.465
11
162.713
21
-273.394
0
LINE
8
BLACK
6
CONTINUOUS
10
162.713
20
-273.394
11
162.713
21
-273.394
0
LINE
8
BLACK
6
CONTINUOUS
10
162.713
20
-273.394
11
162.713
21
-273.394
0
LINE
8
BLACK
6
CONTINUOUS
10
162.713
20
-273.394
11
162.713
21
-273.394
0
LINE
8
BLACK
6
CONTINUOUS
10
162.713
20
-273.394
11
162.713
21
-273.394
0
LINE
8
BLACK
6
CONTINUOUS
10
162.713
20
-273.394
11
162.713
21
-273.394
0
LINE
8
BLACK
6
CONTINUOUS
10
162.713
20
-273.394
11
162.713
21
-273.394
0
LINE
8
BLACK
6
CONTINUOUS
10
162.713
20
-273.394
11
161.98
21
-273.238
0
LINE
8
BLACK
6
CONTINUOUS
10
256.998
20
-274.272
11
257.101
21
-274.512
0
LINE
8
BLACK
6
CONTINUOUS
10
257.101
20
-274.512
11
257.235
21
-274.737
0
LINE
8
BLACK
6
CONTINUOUS
10
257.235
20
-274.737
11
257.397
21
-274.942
0
LINE
8
BLACK
6
CONTINUOUS
10
257.397
20
-274.942
11
257.584
21
-275.125
0
LINE
8
BLACK
6
CONTINUOUS
10
257.584
20
-275.125
11
257.794
21
-275.281
0
LINE
8
BLACK
6
CONTINUOUS
10
257.794
20
-275.281
11
258.022
21
-275.409
0
LINE
8
BLACK
6
CONTINUOUS
10
258.022
20
-275.409
11
258.265
21
-275.506
0
LINE
8
BLACK
6
CONTINUOUS
10
258.265
20
-275.506
11
258.518
21
-275.57
0
LINE
8
BLACK
6
CONTINUOUS
10
258.518
20
-275.57
11
258.778
21
-275.601
0
LINE
8
BLACK
6
CONTINUOUS
10
258.778
20
-275.601
11
259.04
21
-275.598
0
LINE
8
BLACK
6
CONTINUOUS
10
259.04
20
-275.598
11
259.299
21
-275.56
0
LINE
8
BLACK
6
CONTINUOUS
10
259.299
20
-275.56
11
259.299
21
-275.56
0
LINE
8
BLACK
6
CONTINUOUS
10
259.299
20
-275.56
11
259.299
21
-275.56
0
LINE
8
BLACK
6
CONTINUOUS
10
259.299
20
-275.56
11
259.299
21
-275.56
0
LINE
8
BLACK
6
CONTINUOUS
10
259.299
20
-275.56
11
259.299
21
-275.56
0
LINE
8
BLACK
6
CONTINUOUS
10
259.299
20
-275.56
11
260.032
21
-275.404
0
LINE
8
BLACK
6
CONTINUOUS
10
260.032
20
-275.404
11
260.032
21
-275.404
0
LINE
8
BLACK
6
CONTINUOUS
10
260.032
20
-275.404
11
260.032
21
-275.404
0
LINE
8
BLACK
6
CONTINUOUS
10
260.032
20
-275.404
11
260.032
21
-275.404
0
LINE
8
BLACK
6
CONTINUOUS
10
260.032
20
-275.404
11
260.032
21
-275.404
0
LINE
8
BLACK
6
CONTINUOUS
10
260.032
20
-275.404
11
260.032
21
-275.404
0
LINE
8
BLACK
6
CONTINUOUS
10
260.032
20
-275.404
11
259.299
21
-275.56
0
LINE
8
BLACK
6
CONTINUOUS
10
259.299
20
-275.56
11
259.3
21
-275.564
0
LINE
8
BLACK
6
CONTINUOUS
10
259.3
20
-275.564
11
259.04
21
-275.602
0
LINE
8
BLACK
6
CONTINUOUS
10
259.04
20
-275.602
11
258.778
21
-275.605
0
LINE
8
BLACK
6
CONTINUOUS
10
258.778
20
-275.605
11
258.518
21
-275.575
0
LINE
8
BLACK
6
CONTINUOUS
10
258.518
20
-275.575
11
258.264
21
-275.51
0
LINE
8
BLACK
6
CONTINUOUS
10
258.264
20
-275.51
11
258.02
21
-275.413
0
LINE
8
BLACK
6
CONTINUOUS
10
258.02
20
-275.413
11
257.791
21
-275.285
0
LINE
8
BLACK
6
CONTINUOUS
10
257.791
20
-275.285
11
257.581
21
-275.128
0
LINE
8
BLACK
6
CONTINUOUS
10
257.581
20
-275.128
11
257.393
21
-274.945
0
LINE
8
BLACK
6
CONTINUOUS
10
257.393
20
-274.945
11
257.231
21
-274.739
0
LINE
8
BLACK
6
CONTINUOUS
10
257.231
20
-274.739
11
257.097
21
-274.514
0
LINE
8
BLACK
6
CONTINUOUS
10
257.097
20
-274.514
11
256.994
21
-274.273
0
LINE
8
BLACK
6
CONTINUOUS
10
256.994
20
-274.273
11
256.923
21
-274.021
0
LINE
8
BLACK
6
CONTINUOUS
10
256.923
20
-274.021
11
256.927
21
-274.02
0
LINE
8
BLACK
6
CONTINUOUS
10
256.927
20
-274.02
11
256.927
21
-274.02
0
LINE
8
BLACK
6
CONTINUOUS
10
256.927
20
-274.02
11
253.976
21
-260.14
0
LINE
8
BLACK
6
CONTINUOUS
10
253.976
20
-260.14
11
253.976
21
-260.14
0
LINE
8
BLACK
6
CONTINUOUS
10
253.976
20
-260.14
11
253.976
21
-260.14
0
LINE
8
BLACK
6
CONTINUOUS
10
253.976
20
-260.14
11
253.976
21
-260.14
0
LINE
8
BLACK
6
CONTINUOUS
10
253.976
20
-260.14
11
253.976
21
-260.14
0
LINE
8
BLACK
6
CONTINUOUS
10
253.976
20
-260.14
11
256.927
21
-274.02
0
LINE
8
BLACK
6
CONTINUOUS
10
256.927
20
-274.02
11
256.927
21
-274.02
0
LINE
8
BLACK
6
CONTINUOUS
10
256.927
20
-274.02
11
256.927
21
-274.02
0
LINE
8
BLACK
6
CONTINUOUS
10
256.927
20
-274.02
11
256.927
21
-274.02
0
LINE
8
BLACK
6
CONTINUOUS
10
256.927
20
-274.02
11
256.998
21
-274.272
0
LINE
8
BLACK
6
CONTINUOUS
10
163.735
20
-255.363
11
160.439
21
-270.866
0
LINE
8
BLACK
6
CONTINUOUS
10
160.439
20
-270.866
11
160.439
21
-270.866
0
LINE
8
BLACK
6
CONTINUOUS
10
160.439
20
-270.866
11
160.439
21
-270.866
0
LINE
8
BLACK
6
CONTINUOUS
10
160.439
20
-270.866
11
160.439
21
-270.866
0
LINE
8
BLACK
6
CONTINUOUS
10
160.439
20
-270.866
11
160.439
21
-270.866
0
LINE
8
BLACK
6
CONTINUOUS
10
160.439
20
-270.866
11
160.402
21
-271.125
0
LINE
8
BLACK
6
CONTINUOUS
10
160.402
20
-271.125
11
160.398
21
-271.387
0
LINE
8
BLACK
6
CONTINUOUS
10
160.398
20
-271.387
11
160.429
21
-271.647
0
LINE
8
BLACK
6
CONTINUOUS
10
160.429
20
-271.647
11
160.493
21
-271.9
0
LINE
8
BLACK
6
CONTINUOUS
10
160.493
20
-271.9
11
160.59
21
-272.143
0
LINE
8
BLACK
6
CONTINUOUS
10
160.59
20
-272.143
11
160.718
21
-272.371
0
LINE
8
BLACK
6
CONTINUOUS
10
160.718
20
-272.371
11
160.875
21
-272.581
0
LINE
8
BLACK
6
CONTINUOUS
10
160.875
20
-272.581
11
161.057
21
-272.768
0
LINE
8
BLACK
6
CONTINUOUS
10
161.057
20
-272.768
11
161.263
21
-272.93
0
LINE
8
BLACK
6
CONTINUOUS
10
161.263
20
-272.93
11
161.488
21
-273.064
0
LINE
8
BLACK
6
CONTINUOUS
10
161.488
20
-273.064
11
161.728
21
-273.167
0
LINE
8
BLACK
6
CONTINUOUS
10
161.728
20
-273.167
11
161.98
21
-273.238
0
LINE
8
BLACK
6
CONTINUOUS
10
161.98
20
-273.238
11
161.979
21
-273.243
0
LINE
8
BLACK
6
CONTINUOUS
10
161.979
20
-273.243
11
161.726
21
-273.171
0
LINE
8
BLACK
6
CONTINUOUS
10
161.726
20
-273.171
11
161.486
21
-273.068
0
LINE
8
BLACK
6
CONTINUOUS
10
161.486
20
-273.068
11
161.26
21
-272.934
0
LINE
8
BLACK
6
CONTINUOUS
10
161.26
20
-272.934
11
161.054
21
-272.772
0
LINE
8
BLACK
6
CONTINUOUS
10
161.054
20
-272.772
11
160.871
21
-272.584
0
LINE
8
BLACK
6
CONTINUOUS
10
160.871
20
-272.584
11
160.715
21
-272.374
0
LINE
8
BLACK
6
CONTINUOUS
10
160.715
20
-272.374
11
160.587
21
-272.145
0
LINE
8
BLACK
6
CONTINUOUS
10
160.587
20
-272.145
11
160.489
21
-271.901
0
LINE
8
BLACK
6
CONTINUOUS
10
160.489
20
-271.901
11
160.425
21
-271.647
0
LINE
8
BLACK
6
CONTINUOUS
10
160.425
20
-271.647
11
160.394
21
-271.387
0
LINE
8
BLACK
6
CONTINUOUS
10
160.394
20
-271.387
11
160.397
21
-271.125
0
LINE
8
BLACK
6
CONTINUOUS
10
160.397
20
-271.125
11
160.435
21
-270.865
0
LINE
8
BLACK
6
CONTINUOUS
10
160.435
20
-270.865
11
160.439
21
-270.866
0
LINE
8
BLACK
6
CONTINUOUS
10
160.439
20
-270.866
11
163.735
21
-255.363
0
LINE
8
BLACK
6
CONTINUOUS
10
163.735
20
-255.363
11
163.73
21
-255.362
0
LINE
8
BLACK
6
CONTINUOUS
10
163.73
20
-255.362
11
163.802
21
-255.109
0
LINE
8
BLACK
6
CONTINUOUS
10
163.802
20
-255.109
11
163.905
21
-254.869
0
LINE
8
BLACK
6
CONTINUOUS
10
163.905
20
-254.869
11
164.039
21
-254.643
0
LINE
8
BLACK
6
CONTINUOUS
10
164.039
20
-254.643
11
164.201
21
-254.437
0
LINE
8
BLACK
6
CONTINUOUS
10
164.201
20
-254.437
11
164.389
21
-254.254
0
LINE
8
BLACK
6
CONTINUOUS
10
164.389
20
-254.254
11
164.599
21
-254.098
0
LINE
8
BLACK
6
CONTINUOUS
10
164.599
20
-254.098
11
164.828
21
-253.969
0
LINE
8
BLACK
6
CONTINUOUS
10
164.828
20
-253.969
11
165.072
21
-253.872
0
LINE
8
BLACK
6
CONTINUOUS
10
165.072
20
-253.872
11
165.326
21
-253.808
0
LINE
8
BLACK
6
CONTINUOUS
10
165.326
20
-253.808
11
165.586
21
-253.777
0
LINE
8
BLACK
6
CONTINUOUS
10
165.586
20
-253.777
11
165.848
21
-253.78
0
LINE
8
BLACK
6
CONTINUOUS
10
165.848
20
-253.78
11
166.108
21
-253.818
0
LINE
8
BLACK
6
CONTINUOUS
10
166.108
20
-253.818
11
166.107
21
-253.822
0
LINE
8
BLACK
6
CONTINUOUS
10
166.107
20
-253.822
11
165.848
21
-253.785
0
LINE
8
BLACK
6
CONTINUOUS
10
165.848
20
-253.785
11
165.586
21
-253.781
0
LINE
8
BLACK
6
CONTINUOUS
10
165.586
20
-253.781
11
165.326
21
-253.812
0
LINE
8
BLACK
6
CONTINUOUS
10
165.326
20
-253.812
11
165.073
21
-253.876
0
LINE
8
BLACK
6
CONTINUOUS
10
165.073
20
-253.876
11
164.83
21
-253.973
0
LINE
8
BLACK
6
CONTINUOUS
10
164.83
20
-253.973
11
164.602
21
-254.101
0
LINE
8
BLACK
6
CONTINUOUS
10
164.602
20
-254.101
11
164.392
21
-254.258
0
LINE
8
BLACK
6
CONTINUOUS
10
164.392
20
-254.258
11
164.205
21
-254.44
0
LINE
8
BLACK
6
CONTINUOUS
10
164.205
20
-254.44
11
164.043
21
-254.646
0
LINE
8
BLACK
6
CONTINUOUS
10
164.043
20
-254.646
11
163.909
21
-254.87
0
LINE
8
BLACK
6
CONTINUOUS
10
163.909
20
-254.87
11
163.806
21
-255.111
0
LINE
8
BLACK
6
CONTINUOUS
10
163.806
20
-255.111
11
163.735
21
-255.363
0
LINE
8
BLACK
6
CONTINUOUS
10
163.735
20
-255.363
11
163.735
21
-255.363
0
LINE
8
BLACK
6
CONTINUOUS
10
163.735
20
-255.363
11
163.735
21
-255.363
0
LINE
8
BLACK
6
CONTINUOUS
10
163.735
20
-255.363
11
163.735
21
-255.363
0
LINE
8
BLACK
6
CONTINUOUS
10
163.735
20
-255.363
11
163.735
21
-255.363
0
LINE
8
BLACK
6
CONTINUOUS
10
255.517
20
-257.768
11
255.265
21
-257.839
0
LINE
8
BLACK
6
CONTINUOUS
10
255.265
20
-257.839
11
255.025
21
-257.942
0
LINE
8
BLACK
6
CONTINUOUS
10
255.025
20
-257.942
11
254.8
21
-258.076
0
LINE
8
BLACK
6
CONTINUOUS
10
254.8
20
-258.076
11
254.594
21
-258.238
0
LINE
8
BLACK
6
CONTINUOUS
10
254.594
20
-258.238
11
254.412
21
-258.425
0
LINE
8
BLACK
6
CONTINUOUS
10
254.412
20
-258.425
11
254.255
21
-258.635
0
LINE
8
BLACK
6
CONTINUOUS
10
254.255
20
-258.635
11
254.127
21
-258.863
0
LINE
8
BLACK
6
CONTINUOUS
10
254.127
20
-258.863
11
254.031
21
-259.106
0
LINE
8
BLACK
6
CONTINUOUS
10
254.031
20
-259.106
11
253.966
21
-259.36
0
LINE
8
BLACK
6
CONTINUOUS
10
253.966
20
-259.36
11
253.935
21
-259.619
0
LINE
8
BLACK
6
CONTINUOUS
10
253.935
20
-259.619
11
253.939
21
-259.881
0
LINE
8
BLACK
6
CONTINUOUS
10
253.939
20
-259.881
11
253.976
21
-260.14
0
LINE
8
BLACK
6
CONTINUOUS
10
253.976
20
-260.14
11
253.972
21
-260.141
0
LINE
8
BLACK
6
CONTINUOUS
10
253.972
20
-260.141
11
253.935
21
-259.881
0
LINE
8
BLACK
6
CONTINUOUS
10
253.935
20
-259.881
11
253.931
21
-259.619
0
LINE
8
BLACK
6
CONTINUOUS
10
253.931
20
-259.619
11
253.962
21
-259.359
0
LINE
8
BLACK
6
CONTINUOUS
10
253.962
20
-259.359
11
254.027
21
-259.105
0
LINE
8
BLACK
6
CONTINUOUS
10
254.027
20
-259.105
11
254.124
21
-258.861
0
LINE
8
BLACK
6
CONTINUOUS
10
254.124
20
-258.861
11
254.252
21
-258.632
0
LINE
8
BLACK
6
CONTINUOUS
10
254.252
20
-258.632
11
254.409
21
-258.422
0
LINE
8
BLACK
6
CONTINUOUS
10
254.409
20
-258.422
11
254.592
21
-258.235
0
LINE
8
BLACK
6
CONTINUOUS
10
254.592
20
-258.235
11
254.797
21
-258.072
0
LINE
8
BLACK
6
CONTINUOUS
10
254.797
20
-258.072
11
255.023
21
-257.938
0
LINE
8
BLACK
6
CONTINUOUS
10
255.023
20
-257.938
11
255.264
21
-257.835
0
LINE
8
BLACK
6
CONTINUOUS
10
255.264
20
-257.835
11
255.516
21
-257.764
0
LINE
8
BLACK
6
CONTINUOUS
10
255.516
20
-257.764
11
255.517
21
-257.768
0
LINE
8
BLACK
6
CONTINUOUS
10
260.906
20
-256.622
11
260.906
21
-256.622
0
LINE
8
BLACK
6
CONTINUOUS
10
260.906
20
-256.622
11
260.906
21
-256.622
0
LINE
8
BLACK
6
CONTINUOUS
10
260.906
20
-256.622
11
260.906
21
-256.622
0
LINE
8
BLACK
6
CONTINUOUS
10
260.906
20
-256.622
11
255.517
21
-257.768
0
LINE
8
BLACK
6
CONTINUOUS
10
255.517
20
-257.768
11
255.517
21
-257.768
0
LINE
8
BLACK
6
CONTINUOUS
10
255.517
20
-257.768
11
255.517
21
-257.768
0
LINE
8
BLACK
6
CONTINUOUS
10
255.517
20
-257.768
11
255.517
21
-257.768
0
LINE
8
BLACK
6
CONTINUOUS
10
255.517
20
-257.768
11
255.517
21
-257.768
0
LINE
8
BLACK
6
CONTINUOUS
10
255.517
20
-257.768
11
260.906
21
-256.622
0
LINE
8
BLACK
6
CONTINUOUS
10
260.906
20
-256.622
11
260.906
21
-256.622
0
LINE
8
BLACK
6
CONTINUOUS
10
260.906
20
-256.622
11
260.906
21
-256.622
0
LINE
8
BLACK
6
CONTINUOUS
10
259.314
20
-239.509
11
259.314
21
-239.509
0
LINE
8
BLACK
6
CONTINUOUS
10
259.314
20
-239.509
11
262.447
21
-254.25
0
LINE
8
BLACK
6
CONTINUOUS
10
262.447
20
-254.25
11
262.451
21
-254.249
0
LINE
8
BLACK
6
CONTINUOUS
10
262.451
20
-254.249
11
262.489
21
-254.509
0
LINE
8
BLACK
6
CONTINUOUS
10
262.489
20
-254.509
11
262.492
21
-254.771
0
LINE
8
BLACK
6
CONTINUOUS
10
262.492
20
-254.771
11
262.461
21
-255.031
0
LINE
8
BLACK
6
CONTINUOUS
10
262.461
20
-255.031
11
262.397
21
-255.285
0
LINE
8
BLACK
6
CONTINUOUS
10
262.397
20
-255.285
11
262.3
21
-255.529
0
LINE
8
BLACK
6
CONTINUOUS
10
262.3
20
-255.529
11
262.172
21
-255.757
0
LINE
8
BLACK
6
CONTINUOUS
10
262.172
20
-255.757
11
262.015
21
-255.967
0
LINE
8
BLACK
6
CONTINUOUS
10
262.015
20
-255.967
11
261.832
21
-256.155
0
LINE
8
BLACK
6
CONTINUOUS
10
261.832
20
-256.155
11
261.626
21
-256.318
0
LINE
8
BLACK
6
CONTINUOUS
10
261.626
20
-256.318
11
261.401
21
-256.452
0
LINE
8
BLACK
6
CONTINUOUS
10
261.401
20
-256.452
11
261.16
21
-256.555
0
LINE
8
BLACK
6
CONTINUOUS
10
261.16
20
-256.555
11
260.907
21
-256.626
0
LINE
8
BLACK
6
CONTINUOUS
10
260.907
20
-256.626
11
260.906
21
-256.622
0
LINE
8
BLACK
6
CONTINUOUS
10
260.906
20
-256.622
11
261.158
21
-256.551
0
LINE
8
BLACK
6
CONTINUOUS
10
261.158
20
-256.551
11
261.399
21
-256.448
0
LINE
8
BLACK
6
CONTINUOUS
10
261.399
20
-256.448
11
261.623
21
-256.314
0
LINE
8
BLACK
6
CONTINUOUS
10
261.623
20
-256.314
11
261.829
21
-256.152
0
LINE
8
BLACK
6
CONTINUOUS
10
261.829
20
-256.152
11
262.011
21
-255.965
0
LINE
8
BLACK
6
CONTINUOUS
10
262.011
20
-255.965
11
262.168
21
-255.755
0
LINE
8
BLACK
6
CONTINUOUS
10
262.168
20
-255.755
11
262.296
21
-255.527
0
LINE
8
BLACK
6
CONTINUOUS
10
262.296
20
-255.527
11
262.393
21
-255.284
0
LINE
8
BLACK
6
CONTINUOUS
10
262.393
20
-255.284
11
262.457
21
-255.03
0
LINE
8
BLACK
6
CONTINUOUS
10
262.457
20
-255.03
11
262.488
21
-254.77
0
LINE
8
BLACK
6
CONTINUOUS
10
262.488
20
-254.77
11
262.484
21
-254.509
0
LINE
8
BLACK
6
CONTINUOUS
10
262.484
20
-254.509
11
262.447
21
-254.25
0
LINE
8
BLACK
6
CONTINUOUS
10
262.447
20
-254.25
11
262.447
21
-254.25
0
LINE
8
BLACK
6
CONTINUOUS
10
262.447
20
-254.25
11
262.447
21
-254.25
0
LINE
8
BLACK
6
CONTINUOUS
10
262.447
20
-254.25
11
262.447
21
-254.25
0
LINE
8
BLACK
6
CONTINUOUS
10
262.447
20
-254.25
11
262.447
21
-254.25
0
LINE
8
BLACK
6
CONTINUOUS
10
262.447
20
-254.25
11
259.314
21
-239.509
0
LINE
8
BLACK
6
CONTINUOUS
10
259.314
20
-239.509
11
259.314
21
-239.509
0
LINE
8
BLACK
6
CONTINUOUS
10
259.314
20
-239.509
11
259.314
21
-239.509
0
LINE
8
BLACK
6
CONTINUOUS
10
259.314
20
-239.509
11
259.314
21
-239.509
0
LINE
8
BLACK
6
CONTINUOUS
10
166.107
20
-253.822
11
166.107
21
-253.822
0
LINE
8
BLACK
6
CONTINUOUS
10
166.107
20
-253.822
11
166.107
21
-253.822
0
LINE
8
BLACK
6
CONTINUOUS
10
166.107
20
-253.822
11
166.107
21
-253.822
0
LINE
8
BLACK
6
CONTINUOUS
10
166.107
20
-253.822
11
171.487
21
-254.966
0
LINE
8
BLACK
6
CONTINUOUS
10
171.487
20
-254.966
11
171.487
21
-254.966
0
LINE
8
BLACK
6
CONTINUOUS
10
171.487
20
-254.966
11
171.487
21
-254.966
0
LINE
8
BLACK
6
CONTINUOUS
10
171.487
20
-254.966
11
171.487
21
-254.966
0
LINE
8
BLACK
6
CONTINUOUS
10
171.487
20
-254.966
11
171.745
21
-255.003
0
LINE
8
BLACK
6
CONTINUOUS
10
171.745
20
-255.003
11
172.007
21
-255.007
0
LINE
8
BLACK
6
CONTINUOUS
10
172.007
20
-255.007
11
172.267
21
-254.976
0
LINE
8
BLACK
6
CONTINUOUS
10
172.267
20
-254.976
11
172.52
21
-254.912
0
LINE
8
BLACK
6
CONTINUOUS
10
172.52
20
-254.912
11
172.763
21
-254.815
0
LINE
8
BLACK
6
CONTINUOUS
10
172.763
20
-254.815
11
172.992
21
-254.687
0
LINE
8
BLACK
6
CONTINUOUS
10
172.992
20
-254.687
11
173.201
21
-254.53
0
LINE
8
BLACK
6
CONTINUOUS
10
173.201
20
-254.53
11
173.389
21
-254.348
0
LINE
8
BLACK
6
CONTINUOUS
10
173.389
20
-254.348
11
173.551
21
-254.142
0
LINE
8
BLACK
6
CONTINUOUS
10
173.551
20
-254.142
11
173.684
21
-253.917
0
LINE
8
BLACK
6
CONTINUOUS
10
173.684
20
-253.917
11
173.788
21
-253.677
0
LINE
8
BLACK
6
CONTINUOUS
10
173.788
20
-253.677
11
173.859
21
-253.425
0
LINE
8
BLACK
6
CONTINUOUS
10
173.859
20
-253.425
11
173.863
21
-253.426
0
LINE
8
BLACK
6
CONTINUOUS
10
173.863
20
-253.426
11
173.792
21
-253.678
0
LINE
8
BLACK
6
CONTINUOUS
10
173.792
20
-253.678
11
173.688
21
-253.919
0
LINE
8
BLACK
6
CONTINUOUS
10
173.688
20
-253.919
11
173.554
21
-254.145
0
LINE
8
BLACK
6
CONTINUOUS
10
173.554
20
-254.145
11
173.392
21
-254.35
0
LINE
8
BLACK
6
CONTINUOUS
10
173.392
20
-254.35
11
173.204
21
-254.533
0
LINE
8
BLACK
6
CONTINUOUS
10
173.204
20
-254.533
11
172.994
21
-254.69
0
LINE
8
BLACK
6
CONTINUOUS
10
172.994
20
-254.69
11
172.765
21
-254.818
0
LINE
8
BLACK
6
CONTINUOUS
10
172.765
20
-254.818
11
172.522
21
-254.916
0
LINE
8
BLACK
6
CONTINUOUS
10
172.522
20
-254.916
11
172.268
21
-254.98
0
LINE
8
BLACK
6
CONTINUOUS
10
172.268
20
-254.98
11
172.007
21
-255.011
0
LINE
8
BLACK
6
CONTINUOUS
10
172.007
20
-255.011
11
171.745
21
-255.007
0
LINE
8
BLACK
6
CONTINUOUS
10
171.745
20
-255.007
11
171.486
21
-254.97
0
LINE
8
BLACK
6
CONTINUOUS
10
171.486
20
-254.97
11
171.487
21
-254.966
0
LINE
8
BLACK
6
CONTINUOUS
10
171.487
20
-254.966
11
166.107
21
-253.822
0
LINE
8
BLACK
6
CONTINUOUS
10
166.107
20
-253.822
11
166.107
21
-253.822
0
LINE
8
BLACK
6
CONTINUOUS
10
176.811
20
-239.535
11
176.811
21
-239.536
0
LINE
8
BLACK
6
CONTINUOUS
10
176.811
20
-239.536
11
173.859
21
-253.425
0
LINE
8
BLACK
6
CONTINUOUS
10
173.859
20
-253.425
11
173.859
21
-253.425
0
LINE
8
BLACK
6
CONTINUOUS
10
173.859
20
-253.425
11
173.859
21
-253.425
0
LINE
8
BLACK
6
CONTINUOUS
10
173.859
20
-253.425
11
173.859
21
-253.425
0
LINE
8
BLACK
6
CONTINUOUS
10
173.859
20
-253.425
11
173.859
21
-253.425
0
LINE
8
BLACK
6
CONTINUOUS
10
173.859
20
-253.425
11
176.811
21
-239.535
0
LINE
8
BLACK
6
CONTINUOUS
10
176.811
20
-239.535
11
176.811
21
-239.535
0
LINE
8
BLACK
6
CONTINUOUS
10
176.811
20
-239.535
11
176.811
21
-239.535
0
LINE
8
BLACK
6
CONTINUOUS
10
176.811
20
-239.535
11
176.811
21
-239.535
0
LINE
8
BLACK
6
CONTINUOUS
10
23
20
-215
11
22.9999
21
-215
0
LINE
8
BLACK
6
CONTINUOUS
10
22.9999
20
-215
11
22.9999
21
-213.55
0
LINE
8
BLACK
6
CONTINUOUS
10
22.9999
20
-213.55
11
22.9646
21
-213.535
0
LINE
8
BLACK
6
CONTINUOUS
10
22.9646
20
-213.535
11
22.95
21
-213.5
0
LINE
8
BLACK
6
CONTINUOUS
10
22.95
20
-213.5
11
22.95
21
-212.05
0
LINE
8
BLACK
6
CONTINUOUS
10
22.95
20
-212.05
11
10.05
21
-212.05
0
LINE
8
BLACK
6
CONTINUOUS
10
10.05
20
-212.05
11
10.05
21
-231.95
0
LINE
8
BLACK
6
CONTINUOUS
10
10.05
20
-231.95
11
14
21
-231.95
0
LINE
8
BLACK
6
CONTINUOUS
10
14
20
-231.95
11
14.0354
21
-231.965
0
LINE
8
BLACK
6
CONTINUOUS
10
14.0354
20
-231.965
11
14.05
21
-232
0
LINE
8
BLACK
6
CONTINUOUS
10
14.05
20
-232
11
14.0498
21
-232.001
0
LINE
8
BLACK
6
CONTINUOUS
10
14.0498
20
-232.001
11
14.1743
21
-232.011
0
LINE
8
BLACK
6
CONTINUOUS
10
14.1743
20
-232.011
11
14.3433
21
-232.057
0
LINE
8
BLACK
6
CONTINUOUS
10
14.3433
20
-232.057
11
14.5019
21
-232.131
0
LINE
8
BLACK
6
CONTINUOUS
10
14.5019
20
-232.131
11
14.6452
21
-232.231
0
LINE
8
BLACK
6
CONTINUOUS
10
14.6452
20
-232.231
11
14.7689
21
-232.355
0
LINE
8
BLACK
6
CONTINUOUS
10
14.7689
20
-232.355
11
14.8693
21
-232.498
0
LINE
8
BLACK
6
CONTINUOUS
10
14.8693
20
-232.498
11
14.9432
21
-232.657
0
LINE
8
BLACK
6
CONTINUOUS
10
14.9432
20
-232.657
11
14.9885
21
-232.826
0
LINE
8
BLACK
6
CONTINUOUS
10
14.9885
20
-232.826
11
15.0038
21
-233
0
LINE
8
BLACK
6
CONTINUOUS
10
15.0038
20
-233
11
15
21
-233
0
LINE
8
BLACK
6
CONTINUOUS
10
15
20
-233
11
14.9849
21
-232.826
0
LINE
8
BLACK
6
CONTINUOUS
10
14.9849
20
-232.826
11
14.9397
21
-232.658
0
LINE
8
BLACK
6
CONTINUOUS
10
14.9397
20
-232.658
11
14.8661
21
-232.5
0
LINE
8
BLACK
6
CONTINUOUS
10
14.8661
20
-232.5
11
14.7661
21
-232.357
0
LINE
8
BLACK
6
CONTINUOUS
10
14.7661
20
-232.357
11
14.6428
21
-232.234
0
LINE
8
BLACK
6
CONTINUOUS
10
14.6428
20
-232.234
11
14.5
21
-232.134
0
LINE
8
BLACK
6
CONTINUOUS
10
14.5
20
-232.134
11
14.342
21
-232.06
0
LINE
8
BLACK
6
CONTINUOUS
10
14.342
20
-232.06
11
14.1737
21
-232.015
0
LINE
8
BLACK
6
CONTINUOUS
10
14.1737
20
-232.015
11
14.0483
21
-232.004
0
LINE
8
BLACK
6
CONTINUOUS
10
14.0483
20
-232.004
11
14.0354
21
-232.035
0
LINE
8
BLACK
6
CONTINUOUS
10
14.0354
20
-232.035
11
14
21
-232.05
0
LINE
8
BLACK
6
CONTINUOUS
10
14
20
-232.05
11
10
21
-232.05
0
LINE
8
BLACK
6
CONTINUOUS
10
10
20
-232.05
11
9.96464
21
-232.035
0
LINE
8
BLACK
6
CONTINUOUS
10
9.96464
20
-232.035
11
9.95
21
-232
0
LINE
8
BLACK
6
CONTINUOUS
10
9.95
20
-232
11
9.95
21
-212
0
LINE
8
BLACK
6
CONTINUOUS
10
9.95
20
-212
11
9.96464
21
-211.965
0
LINE
8
BLACK
6
CONTINUOUS
10
9.96464
20
-211.965
11
10
21
-211.95
0
LINE
8
BLACK
6
CONTINUOUS
10
10
20
-211.95
11
23
21
-211.95
0
LINE
8
BLACK
6
CONTINUOUS
10
23
20
-211.95
11
23.0354
21
-211.965
0
LINE
8
BLACK
6
CONTINUOUS
10
23.0354
20
-211.965
11
23.05
21
-212
0
LINE
8
BLACK
6
CONTINUOUS
10
23.05
20
-212
11
23.05
21
-213.5
0
LINE
8
BLACK
6
CONTINUOUS
10
23.05
20
-213.5
11
23.0354
21
-213.535
0
LINE
8
BLACK
6
CONTINUOUS
10
23.0354
20
-213.535
11
23
21
-213.55
0
LINE
8
BLACK
6
CONTINUOUS
10
23
20
-213.55
11
23
21
-215
0
LINE
8
BLACK
6
CONTINUOUS
10
23
20
-215
11
50.2999
21
-215
0
LINE
8
BLACK
6
CONTINUOUS
10
50.2999
20
-215
11
50.2999
21
-212.05
0
LINE
8
BLACK
6
CONTINUOUS
10
50.2999
20
-212.05
11
50.2646
21
-212.035
0
LINE
8
BLACK
6
CONTINUOUS
10
50.2646
20
-212.035
11
50.25
21
-212
0
LINE
8
BLACK
6
CONTINUOUS
10
50.25
20
-212
11
50.2646
21
-211.965
0
LINE
8
BLACK
6
CONTINUOUS
10
50.2646
20
-211.965
11
50.3
21
-211.95
0
LINE
8
BLACK
6
CONTINUOUS
10
50.3
20
-211.95
11
59.7
21
-211.95
0
LINE
8
BLACK
6
CONTINUOUS
10
59.7
20
-211.95
11
59.7354
21
-211.965
0
LINE
8
BLACK
6
CONTINUOUS
10
59.7354
20
-211.965
11
59.75
21
-212
0
LINE
8
BLACK
6
CONTINUOUS
10
59.75
20
-212
11
59.7354
21
-212.035
0
LINE
8
BLACK
6
CONTINUOUS
10
59.7354
20
-212.035
11
59.7
21
-212.05
0
LINE
8
BLACK
6
CONTINUOUS
10
59.7
20
-212.05
11
59.7
21
-215
0
LINE
8
BLACK
6
CONTINUOUS
10
59.7
20
-215
11
71
21
-215
0
LINE
8
BLACK
6
CONTINUOUS
10
71
20
-215
11
71
21
-215
0
LINE
8
BLACK
6
CONTINUOUS
10
71
20
-215
11
71
21
-215
0
LINE
8
BLACK
6
CONTINUOUS
10
71
20
-215
11
175.271
21
-237.163
0
LINE
8
BLACK
6
CONTINUOUS
10
175.271
20
-237.163
11
175.271
21
-237.159
0
LINE
8
BLACK
6
CONTINUOUS
10
175.271
20
-237.159
11
175.524
21
-237.23
0
LINE
8
BLACK
6
CONTINUOUS
10
175.524
20
-237.23
11
175.765
21
-237.334
0
LINE
8
BLACK
6
CONTINUOUS
10
175.765
20
-237.334
11
175.99
21
-237.468
0
LINE
8
BLACK
6
CONTINUOUS
10
175.99
20
-237.468
11
176.196
21
-237.63
0
LINE
8
BLACK
6
CONTINUOUS
10
176.196
20
-237.63
11
176.379
21
-237.818
0
LINE
8
BLACK
6
CONTINUOUS
10
176.379
20
-237.818
11
176.536
21
-238.028
0
LINE
8
BLACK
6
CONTINUOUS
10
176.536
20
-238.028
11
176.664
21
-238.257
0
LINE
8
BLACK
6
CONTINUOUS
10
176.664
20
-238.257
11
176.761
21
-238.5
0
LINE
8
BLACK
6
CONTINUOUS
10
176.761
20
-238.5
11
176.825
21
-238.754
0
LINE
8
BLACK
6
CONTINUOUS
10
176.825
20
-238.754
11
176.856
21
-239.015
0
LINE
8
BLACK
6
CONTINUOUS
10
176.856
20
-239.015
11
176.853
21
-239.277
0
LINE
8
BLACK
6
CONTINUOUS
10
176.853
20
-239.277
11
176.815
21
-239.536
0
LINE
8
BLACK
6
CONTINUOUS
10
176.815
20
-239.536
11
176.811
21
-239.536
0
LINE
8
BLACK
6
CONTINUOUS
10
176.811
20
-239.536
11
176.849
21
-239.277
0
LINE
8
BLACK
6
CONTINUOUS
10
176.849
20
-239.277
11
176.852
21
-239.015
0
LINE
8
BLACK
6
CONTINUOUS
10
176.852
20
-239.015
11
176.821
21
-238.755
0
LINE
8
BLACK
6
CONTINUOUS
10
176.821
20
-238.755
11
176.757
21
-238.502
0
LINE
8
BLACK
6
CONTINUOUS
10
176.757
20
-238.502
11
176.66
21
-238.259
0
LINE
8
BLACK
6
CONTINUOUS
10
176.66
20
-238.259
11
176.532
21
-238.03
0
LINE
8
BLACK
6
CONTINUOUS
10
176.532
20
-238.03
11
176.376
21
-237.821
0
LINE
8
BLACK
6
CONTINUOUS
10
176.376
20
-237.821
11
176.193
21
-237.633
0
LINE
8
BLACK
6
CONTINUOUS
10
176.193
20
-237.633
11
175.988
21
-237.471
0
LINE
8
BLACK
6
CONTINUOUS
10
175.988
20
-237.471
11
175.763
21
-237.338
0
LINE
8
BLACK
6
CONTINUOUS
10
175.763
20
-237.338
11
175.522
21
-237.234
0
LINE
8
BLACK
6
CONTINUOUS
10
175.522
20
-237.234
11
175.271
21
-237.163
0
LINE
8
BLACK
6
CONTINUOUS
10
175.271
20
-237.163
11
175.271
21
-237.163
0
LINE
8
BLACK
6
CONTINUOUS
10
175.271
20
-237.163
11
175.271
21
-237.163
0
LINE
8
BLACK
6
CONTINUOUS
10
175.271
20
-237.163
11
175.271
21
-237.163
0
LINE
8
BLACK
6
CONTINUOUS
10
175.271
20
-237.163
11
175.271
21
-237.163
0
LINE
8
BLACK
6
CONTINUOUS
10
175.271
20
-237.163
11
71
21
-215
0
LINE
8
BLACK
6
CONTINUOUS
10
71
20
-215
11
59.7
21
-215
0
LINE
8
BLACK
6
CONTINUOUS
10
59.7
20
-215
11
59.7
21
-215
0
LINE
8
BLACK
6
CONTINUOUS
10
59.7
20
-215
11
59.6999
21
-215
0
LINE
8
BLACK
6
CONTINUOUS
10
59.6999
20
-215
11
59.6999
21
-212.05
0
LINE
8
BLACK
6
CONTINUOUS
10
59.6999
20
-212.05
11
50.3
21
-212.05
0
LINE
8
BLACK
6
CONTINUOUS
10
50.3
20
-212.05
11
50.3
21
-215
0
LINE
8
BLACK
6
CONTINUOUS
10
50.3
20
-215
11
50.3
21
-215
0
LINE
8
BLACK
6
CONTINUOUS
10
50.3
20
-215
11
50.3
21
-215
0
LINE
8
BLACK
6
CONTINUOUS
10
50.3
20
-215
11
23
21
-215
0
LINE
8
BLACK
6
CONTINUOUS
10
23
20
-215
11
23
21
-215
  0
ENDSEC
  0
EOF
