  0
SECTION
  2
HEADER
  9
$ANGBASE
  50
0.0
  9
$ANGDIR
  70
1
  9
$MEASUREMENT
  70
1
  0
ENDSEC
  0
SECTION
  2
TABLES
  0
TABLE
  2
LTYPE
  70
4
  0
LTYPE
  5
40F
  2
CONTINUOUS
  70
0
  3
Solid line
  72
65
  73
0
  40
0.0
  0
LTYPE
  5
410
  2
DASHDOT
 70
0
  3
Dash Dot ____ _ ____ _
 72
65
 73
4
 40
2.0
 49
1.25
 49
-0.25
 49
0.25
 49
-0.25
  0
LTYPE
  5
411
  2
DASHED
 70
0
  3
Dashed __ __ __ __ __
 72
65
 73
2
 40
0.75
 49
0.5
 49
-0.25
  0
LTYPE
  5
43B
  2
DOTTED
 70
0
  3
Dotted .  .  .  .
 72
65
 73
2
 40
0.2
 49
0.0
 49
-0.2
  0
ENDTAB
  0
TABLE
  2
STYLE
  70
4
  0
STYLE
  2
KICAD
  70
0
  40
0
  41
1
  42
1
  50
0
  71
0
  3
isocp.shx
  0
STYLE
  2
KICADB
  70
0
  40
0
  41
1
  42
1
  50
0
  71
0
  3
isocp.shx
  0
STYLE
  2
KICADI
  70
0
  40
0
  41
1
  42
1
  50
15
  71
0
  3
isocp.shx
  0
STYLE
  2
KICADBI
  70
0
  40
0
  41
1
  42
1
  50
15
  71
0
  3
isocp.shx
  0
ENDTAB
  0
TABLE
  2
LAYER
  70
1
  0
LAYER
  2
BLACK
  70
0
  62
7
  6
CONTINUOUS
  0
ENDTAB
  0
ENDSEC
  0
SECTION
  2
ENTITIES
0
LINE
8
BLACK
6
CONTINUOUS
10
177.82
20
-312.043
11
178.06
21
-312.146
0
LINE
8
BLACK
6
CONTINUOUS
10
178.06
20
-312.146
11
178.286
21
-312.28
0
LINE
8
BLACK
6
CONTINUOUS
10
178.286
20
-312.28
11
178.492
21
-312.442
0
LINE
8
BLACK
6
CONTINUOUS
10
178.492
20
-312.442
11
178.675
21
-312.63
0
LINE
8
BLACK
6
CONTINUOUS
10
178.675
20
-312.63
11
178.831
21
-312.84
0
LINE
8
BLACK
6
CONTINUOUS
10
178.831
20
-312.84
11
178.96
21
-313.069
0
LINE
8
BLACK
6
CONTINUOUS
10
178.96
20
-313.069
11
179.057
21
-313.312
0
LINE
8
BLACK
6
CONTINUOUS
10
179.057
20
-313.312
11
179.121
21
-313.567
0
LINE
8
BLACK
6
CONTINUOUS
10
179.121
20
-313.567
11
179.152
21
-313.827
0
LINE
8
BLACK
6
CONTINUOUS
10
179.152
20
-313.827
11
179.149
21
-314.089
0
LINE
8
BLACK
6
CONTINUOUS
10
179.149
20
-314.089
11
179.111
21
-314.349
0
LINE
8
BLACK
6
CONTINUOUS
10
179.111
20
-314.349
11
179.107
21
-314.348
0
LINE
8
BLACK
6
CONTINUOUS
10
179.107
20
-314.348
11
174.512
21
-335.965
0
LINE
8
BLACK
6
CONTINUOUS
10
174.512
20
-335.965
11
174.516
21
-335.966
0
LINE
8
BLACK
6
CONTINUOUS
10
174.516
20
-335.966
11
174.445
21
-336.218
0
LINE
8
BLACK
6
CONTINUOUS
10
174.445
20
-336.218
11
174.341
21
-336.459
0
LINE
8
BLACK
6
CONTINUOUS
10
174.341
20
-336.459
11
174.207
21
-336.684
0
LINE
8
BLACK
6
CONTINUOUS
10
174.207
20
-336.684
11
174.045
21
-336.89
0
LINE
8
BLACK
6
CONTINUOUS
10
174.045
20
-336.89
11
173.857
21
-337.073
0
LINE
8
BLACK
6
CONTINUOUS
10
173.857
20
-337.073
11
173.647
21
-337.23
0
LINE
8
BLACK
6
CONTINUOUS
10
173.647
20
-337.23
11
173.419
21
-337.358
0
LINE
8
BLACK
6
CONTINUOUS
10
173.419
20
-337.358
11
173.175
21
-337.455
0
LINE
8
BLACK
6
CONTINUOUS
10
173.175
20
-337.455
11
172.921
21
-337.52
0
LINE
8
BLACK
6
CONTINUOUS
10
172.921
20
-337.52
11
172.661
21
-337.55
0
LINE
8
BLACK
6
CONTINUOUS
10
172.661
20
-337.55
11
172.398
21
-337.547
0
LINE
8
BLACK
6
CONTINUOUS
10
172.398
20
-337.547
11
172.139
21
-337.509
0
LINE
8
BLACK
6
CONTINUOUS
10
172.139
20
-337.509
11
172.14
21
-337.505
0
LINE
8
BLACK
6
CONTINUOUS
10
172.14
20
-337.505
11
172.399
21
-337.543
0
LINE
8
BLACK
6
CONTINUOUS
10
172.399
20
-337.543
11
172.66
21
-337.546
0
LINE
8
BLACK
6
CONTINUOUS
10
172.66
20
-337.546
11
172.92
21
-337.515
0
LINE
8
BLACK
6
CONTINUOUS
10
172.92
20
-337.515
11
173.174
21
-337.451
0
LINE
8
BLACK
6
CONTINUOUS
10
173.174
20
-337.451
11
173.417
21
-337.354
0
LINE
8
BLACK
6
CONTINUOUS
10
173.417
20
-337.354
11
173.645
21
-337.226
0
LINE
8
BLACK
6
CONTINUOUS
10
173.645
20
-337.226
11
173.855
21
-337.07
0
LINE
8
BLACK
6
CONTINUOUS
10
173.855
20
-337.07
11
174.042
21
-336.887
0
LINE
8
BLACK
6
CONTINUOUS
10
174.042
20
-336.887
11
174.204
21
-336.682
0
LINE
8
BLACK
6
CONTINUOUS
10
174.204
20
-336.682
11
174.338
21
-336.457
0
LINE
8
BLACK
6
CONTINUOUS
10
174.338
20
-336.457
11
174.441
21
-336.217
0
LINE
8
BLACK
6
CONTINUOUS
10
174.441
20
-336.217
11
174.512
21
-335.965
0
LINE
8
BLACK
6
CONTINUOUS
10
174.512
20
-335.965
11
174.512
21
-335.965
0
LINE
8
BLACK
6
CONTINUOUS
10
174.512
20
-335.965
11
174.512
21
-335.965
0
LINE
8
BLACK
6
CONTINUOUS
10
174.512
20
-335.965
11
174.512
21
-335.965
0
LINE
8
BLACK
6
CONTINUOUS
10
174.512
20
-335.965
11
174.512
21
-335.965
0
LINE
8
BLACK
6
CONTINUOUS
10
174.512
20
-335.965
11
174.512
21
-335.965
0
LINE
8
BLACK
6
CONTINUOUS
10
174.512
20
-335.965
11
179.107
21
-314.348
0
LINE
8
BLACK
6
CONTINUOUS
10
179.107
20
-314.348
11
179.107
21
-314.348
0
LINE
8
BLACK
6
CONTINUOUS
10
179.107
20
-314.348
11
179.107
21
-314.348
0
LINE
8
BLACK
6
CONTINUOUS
10
179.107
20
-314.348
11
179.107
21
-314.348
0
LINE
8
BLACK
6
CONTINUOUS
10
179.107
20
-314.348
11
179.144
21
-314.089
0
LINE
8
BLACK
6
CONTINUOUS
10
179.144
20
-314.089
11
179.148
21
-313.827
0
LINE
8
BLACK
6
CONTINUOUS
10
179.148
20
-313.827
11
179.117
21
-313.567
0
LINE
8
BLACK
6
CONTINUOUS
10
179.117
20
-313.567
11
179.053
21
-313.314
0
LINE
8
BLACK
6
CONTINUOUS
10
179.053
20
-313.314
11
178.956
21
-313.071
0
LINE
8
BLACK
6
CONTINUOUS
10
178.956
20
-313.071
11
178.828
21
-312.843
0
LINE
8
BLACK
6
CONTINUOUS
10
178.828
20
-312.843
11
178.671
21
-312.633
0
LINE
8
BLACK
6
CONTINUOUS
10
178.671
20
-312.633
11
178.489
21
-312.446
0
LINE
8
BLACK
6
CONTINUOUS
10
178.489
20
-312.446
11
178.283
21
-312.284
0
LINE
8
BLACK
6
CONTINUOUS
10
178.283
20
-312.284
11
178.059
21
-312.15
0
LINE
8
BLACK
6
CONTINUOUS
10
178.059
20
-312.15
11
177.818
21
-312.047
0
LINE
8
BLACK
6
CONTINUOUS
10
177.818
20
-312.047
11
177.566
21
-311.975
0
LINE
8
BLACK
6
CONTINUOUS
10
177.566
20
-311.975
11
177.567
21
-311.971
0
LINE
8
BLACK
6
CONTINUOUS
10
177.567
20
-311.971
11
177.82
21
-312.043
0
LINE
8
BLACK
6
CONTINUOUS
10
87.49
20
-319.5
11
87.49
21
-319.5
0
LINE
8
BLACK
6
CONTINUOUS
10
87.49
20
-319.5
11
172.14
21
-337.505
0
LINE
8
BLACK
6
CONTINUOUS
10
172.14
20
-337.505
11
172.14
21
-337.505
0
LINE
8
BLACK
6
CONTINUOUS
10
172.14
20
-337.505
11
172.14
21
-337.505
0
LINE
8
BLACK
6
CONTINUOUS
10
172.14
20
-337.505
11
172.14
21
-337.505
0
LINE
8
BLACK
6
CONTINUOUS
10
172.14
20
-337.505
11
172.14
21
-337.505
0
LINE
8
BLACK
6
CONTINUOUS
10
172.14
20
-337.505
11
87.49
21
-319.5
0
LINE
8
BLACK
6
CONTINUOUS
10
87.49
20
-319.5
11
13.5
21
-319.5
0
LINE
8
BLACK
6
CONTINUOUS
10
13.5
20
-319.5
11
13.5
21
-319.5
0
LINE
8
BLACK
6
CONTINUOUS
10
13.5
20
-319.5
11
13.5
21
-319.5
0
LINE
8
BLACK
6
CONTINUOUS
10
13.5
20
-319.5
11
13.5
21
-319.5
0
LINE
8
BLACK
6
CONTINUOUS
10
13.5
20
-319.5
11
13.5
21
-319.5
0
LINE
8
BLACK
6
CONTINUOUS
10
13.5
20
-319.5
11
87.49
21
-319.5
0
LINE
8
BLACK
6
CONTINUOUS
10
87.49
20
-319.5
11
87.49
21
-319.5
0
LINE
8
BLACK
6
CONTINUOUS
10
261.727
20
-313.341
11
266.323
21
-334.963
0
LINE
8
BLACK
6
CONTINUOUS
10
266.323
20
-334.963
11
266.323
21
-334.963
0
LINE
8
BLACK
6
CONTINUOUS
10
266.323
20
-334.963
11
266.323
21
-334.963
0
LINE
8
BLACK
6
CONTINUOUS
10
266.323
20
-334.963
11
266.323
21
-334.963
0
LINE
8
BLACK
6
CONTINUOUS
10
266.323
20
-334.963
11
266.323
21
-334.963
0
LINE
8
BLACK
6
CONTINUOUS
10
266.323
20
-334.963
11
266.394
21
-335.215
0
LINE
8
BLACK
6
CONTINUOUS
10
266.394
20
-335.215
11
266.497
21
-335.455
0
LINE
8
BLACK
6
CONTINUOUS
10
266.497
20
-335.455
11
266.631
21
-335.68
0
LINE
8
BLACK
6
CONTINUOUS
10
266.631
20
-335.68
11
266.793
21
-335.885
0
LINE
8
BLACK
6
CONTINUOUS
10
266.793
20
-335.885
11
266.98
21
-336.068
0
LINE
8
BLACK
6
CONTINUOUS
10
266.98
20
-336.068
11
267.19
21
-336.224
0
LINE
8
BLACK
6
CONTINUOUS
10
267.19
20
-336.224
11
267.418
21
-336.352
0
LINE
8
BLACK
6
CONTINUOUS
10
267.418
20
-336.352
11
267.661
21
-336.449
0
LINE
8
BLACK
6
CONTINUOUS
10
267.661
20
-336.449
11
267.915
21
-336.513
0
LINE
8
BLACK
6
CONTINUOUS
10
267.915
20
-336.513
11
268.174
21
-336.544
0
LINE
8
BLACK
6
CONTINUOUS
10
268.174
20
-336.544
11
268.436
21
-336.541
0
LINE
8
BLACK
6
CONTINUOUS
10
268.436
20
-336.541
11
268.695
21
-336.503
0
LINE
8
BLACK
6
CONTINUOUS
10
268.695
20
-336.503
11
268.695
21
-336.503
0
LINE
8
BLACK
6
CONTINUOUS
10
268.695
20
-336.503
11
268.695
21
-336.503
0
LINE
8
BLACK
6
CONTINUOUS
10
268.695
20
-336.503
11
268.695
21
-336.503
0
LINE
8
BLACK
6
CONTINUOUS
10
268.695
20
-336.503
11
268.695
21
-336.503
0
LINE
8
BLACK
6
CONTINUOUS
10
268.695
20
-336.503
11
348.69
21
-319.5
0
LINE
8
BLACK
6
CONTINUOUS
10
348.69
20
-319.5
11
348.69
21
-319.5
0
LINE
8
BLACK
6
CONTINUOUS
10
348.69
20
-319.5
11
348.69
21
-319.5
0
LINE
8
BLACK
6
CONTINUOUS
10
348.69
20
-319.5
11
427.5
21
-319.5
0
LINE
8
BLACK
6
CONTINUOUS
10
427.5
20
-319.5
11
427.5
21
-319.5
0
LINE
8
BLACK
6
CONTINUOUS
10
427.5
20
-319.5
11
427.5
21
-319.5
0
LINE
8
BLACK
6
CONTINUOUS
10
427.5
20
-319.5
11
427.5
21
-319.5
0
LINE
8
BLACK
6
CONTINUOUS
10
427.5
20
-319.5
11
427.5
21
-319.5
0
LINE
8
BLACK
6
CONTINUOUS
10
427.5
20
-319.5
11
348.69
21
-319.5
0
LINE
8
BLACK
6
CONTINUOUS
10
348.69
20
-319.5
11
268.695
21
-336.503
0
LINE
8
BLACK
6
CONTINUOUS
10
268.695
20
-336.503
11
268.696
21
-336.507
0
LINE
8
BLACK
6
CONTINUOUS
10
268.696
20
-336.507
11
268.436
21
-336.545
0
LINE
8
BLACK
6
CONTINUOUS
10
268.436
20
-336.545
11
268.174
21
-336.548
0
LINE
8
BLACK
6
CONTINUOUS
10
268.174
20
-336.548
11
267.914
21
-336.518
0
LINE
8
BLACK
6
CONTINUOUS
10
267.914
20
-336.518
11
267.66
21
-336.453
0
LINE
8
BLACK
6
CONTINUOUS
10
267.66
20
-336.453
11
267.416
21
-336.356
0
LINE
8
BLACK
6
CONTINUOUS
10
267.416
20
-336.356
11
267.187
21
-336.228
0
LINE
8
BLACK
6
CONTINUOUS
10
267.187
20
-336.228
11
266.977
21
-336.071
0
LINE
8
BLACK
6
CONTINUOUS
10
266.977
20
-336.071
11
266.79
21
-335.888
0
LINE
8
BLACK
6
CONTINUOUS
10
266.79
20
-335.888
11
266.627
21
-335.682
0
LINE
8
BLACK
6
CONTINUOUS
10
266.627
20
-335.682
11
266.493
21
-335.457
0
LINE
8
BLACK
6
CONTINUOUS
10
266.493
20
-335.457
11
266.39
21
-335.216
0
LINE
8
BLACK
6
CONTINUOUS
10
266.39
20
-335.216
11
266.319
21
-334.964
0
LINE
8
BLACK
6
CONTINUOUS
10
266.319
20
-334.964
11
266.323
21
-334.963
0
LINE
8
BLACK
6
CONTINUOUS
10
266.323
20
-334.963
11
261.727
21
-313.341
0
LINE
8
BLACK
6
CONTINUOUS
10
261.727
20
-313.341
11
261.723
21
-313.342
0
LINE
8
BLACK
6
CONTINUOUS
10
261.723
20
-313.342
11
261.685
21
-313.082
0
LINE
8
BLACK
6
CONTINUOUS
10
261.685
20
-313.082
11
261.682
21
-312.82
0
LINE
8
BLACK
6
CONTINUOUS
10
261.682
20
-312.82
11
261.712
21
-312.56
0
LINE
8
BLACK
6
CONTINUOUS
10
261.712
20
-312.56
11
261.777
21
-312.306
0
LINE
8
BLACK
6
CONTINUOUS
10
261.777
20
-312.306
11
261.874
21
-312.062
0
LINE
8
BLACK
6
CONTINUOUS
10
261.874
20
-312.062
11
262.002
21
-311.834
0
LINE
8
BLACK
6
CONTINUOUS
10
262.002
20
-311.834
11
262.159
21
-311.623
0
LINE
8
BLACK
6
CONTINUOUS
10
262.159
20
-311.623
11
262.342
21
-311.436
0
LINE
8
BLACK
6
CONTINUOUS
10
262.342
20
-311.436
11
262.548
21
-311.273
0
LINE
8
BLACK
6
CONTINUOUS
10
262.548
20
-311.273
11
262.773
21
-311.139
0
LINE
8
BLACK
6
CONTINUOUS
10
262.773
20
-311.139
11
263.014
21
-311.036
0
LINE
8
BLACK
6
CONTINUOUS
10
263.014
20
-311.036
11
263.266
21
-310.965
0
LINE
8
BLACK
6
CONTINUOUS
10
263.266
20
-310.965
11
263.267
21
-310.969
0
LINE
8
BLACK
6
CONTINUOUS
10
263.267
20
-310.969
11
268.667
21
-309.821
0
LINE
8
BLACK
6
CONTINUOUS
10
268.667
20
-309.821
11
268.667
21
-309.821
0
LINE
8
BLACK
6
CONTINUOUS
10
268.667
20
-309.821
11
268.667
21
-309.821
0
LINE
8
BLACK
6
CONTINUOUS
10
268.667
20
-309.821
11
268.667
21
-309.821
0
LINE
8
BLACK
6
CONTINUOUS
10
268.667
20
-309.821
11
268.667
21
-309.821
0
LINE
8
BLACK
6
CONTINUOUS
10
268.667
20
-309.821
11
263.267
21
-310.969
0
LINE
8
BLACK
6
CONTINUOUS
10
263.267
20
-310.969
11
263.267
21
-310.969
0
LINE
8
BLACK
6
CONTINUOUS
10
263.267
20
-310.969
11
263.267
21
-310.969
0
LINE
8
BLACK
6
CONTINUOUS
10
263.267
20
-310.969
11
263.267
21
-310.969
0
LINE
8
BLACK
6
CONTINUOUS
10
263.267
20
-310.969
11
263.016
21
-311.04
0
LINE
8
BLACK
6
CONTINUOUS
10
263.016
20
-311.04
11
262.775
21
-311.143
0
LINE
8
BLACK
6
CONTINUOUS
10
262.775
20
-311.143
11
262.55
21
-311.277
0
LINE
8
BLACK
6
CONTINUOUS
10
262.55
20
-311.277
11
262.345
21
-311.439
0
LINE
8
BLACK
6
CONTINUOUS
10
262.345
20
-311.439
11
262.162
21
-311.626
0
LINE
8
BLACK
6
CONTINUOUS
10
262.162
20
-311.626
11
262.006
21
-311.836
0
LINE
8
BLACK
6
CONTINUOUS
10
262.006
20
-311.836
11
261.878
21
-312.064
0
LINE
8
BLACK
6
CONTINUOUS
10
261.878
20
-312.064
11
261.781
21
-312.307
0
LINE
8
BLACK
6
CONTINUOUS
10
261.781
20
-312.307
11
261.717
21
-312.561
0
LINE
8
BLACK
6
CONTINUOUS
10
261.717
20
-312.561
11
261.686
21
-312.82
0
LINE
8
BLACK
6
CONTINUOUS
10
261.686
20
-312.82
11
261.689
21
-313.082
0
LINE
8
BLACK
6
CONTINUOUS
10
261.689
20
-313.082
11
261.727
21
-313.341
0
LINE
8
BLACK
6
CONTINUOUS
10
261.727
20
-313.341
11
261.727
21
-313.341
0
LINE
8
BLACK
6
CONTINUOUS
10
261.727
20
-313.341
11
261.727
21
-313.341
0
LINE
8
BLACK
6
CONTINUOUS
10
261.727
20
-313.341
11
261.727
21
-313.341
0
LINE
8
BLACK
6
CONTINUOUS
10
261.727
20
-313.341
11
261.727
21
-313.341
0
LINE
8
BLACK
6
CONTINUOUS
10
429.487
20
-317.762
11
429.436
21
-318.019
0
LINE
8
BLACK
6
CONTINUOUS
10
429.436
20
-318.019
11
429.352
21
-318.267
0
LINE
8
BLACK
6
CONTINUOUS
10
429.352
20
-318.267
11
429.236
21
-318.502
0
LINE
8
BLACK
6
CONTINUOUS
10
429.236
20
-318.502
11
429.09
21
-318.72
0
LINE
8
BLACK
6
CONTINUOUS
10
429.09
20
-318.72
11
428.917
21
-318.917
0
LINE
8
BLACK
6
CONTINUOUS
10
428.917
20
-318.917
11
428.72
21
-319.09
0
LINE
8
BLACK
6
CONTINUOUS
10
428.72
20
-319.09
11
428.502
21
-319.236
0
LINE
8
BLACK
6
CONTINUOUS
10
428.502
20
-319.236
11
428.267
21
-319.352
0
LINE
8
BLACK
6
CONTINUOUS
10
428.267
20
-319.352
11
428.019
21
-319.436
0
LINE
8
BLACK
6
CONTINUOUS
10
428.019
20
-319.436
11
427.762
21
-319.487
0
LINE
8
BLACK
6
CONTINUOUS
10
427.762
20
-319.487
11
427.5
21
-319.504
0
LINE
8
BLACK
6
CONTINUOUS
10
427.5
20
-319.504
11
427.5
21
-319.5
0
LINE
8
BLACK
6
CONTINUOUS
10
427.5
20
-319.5
11
427.761
21
-319.483
0
LINE
8
BLACK
6
CONTINUOUS
10
427.761
20
-319.483
11
428.018
21
-319.432
0
LINE
8
BLACK
6
CONTINUOUS
10
428.018
20
-319.432
11
428.265
21
-319.348
0
LINE
8
BLACK
6
CONTINUOUS
10
428.265
20
-319.348
11
428.5
21
-319.232
0
LINE
8
BLACK
6
CONTINUOUS
10
428.5
20
-319.232
11
428.718
21
-319.087
0
LINE
8
BLACK
6
CONTINUOUS
10
428.718
20
-319.087
11
428.914
21
-318.914
0
LINE
8
BLACK
6
CONTINUOUS
10
428.914
20
-318.914
11
429.087
21
-318.718
0
LINE
8
BLACK
6
CONTINUOUS
10
429.087
20
-318.718
11
429.232
21
-318.5
0
LINE
8
BLACK
6
CONTINUOUS
10
429.232
20
-318.5
11
429.348
21
-318.265
0
LINE
8
BLACK
6
CONTINUOUS
10
429.348
20
-318.265
11
429.432
21
-318.018
0
LINE
8
BLACK
6
CONTINUOUS
10
429.432
20
-318.018
11
429.483
21
-317.761
0
LINE
8
BLACK
6
CONTINUOUS
10
429.483
20
-317.761
11
429.5
21
-317.5
0
LINE
8
BLACK
6
CONTINUOUS
10
429.5
20
-317.5
11
429.504
21
-317.5
0
LINE
8
BLACK
6
CONTINUOUS
10
429.504
20
-317.5
11
429.487
21
-317.762
0
LINE
8
BLACK
6
CONTINUOUS
10
11.5171
20
-317.761
11
11.5681
21
-318.018
0
LINE
8
BLACK
6
CONTINUOUS
10
11.5681
20
-318.018
11
11.6522
21
-318.265
0
LINE
8
BLACK
6
CONTINUOUS
10
11.6522
20
-318.265
11
11.7679
21
-318.5
0
LINE
8
BLACK
6
CONTINUOUS
10
11.7679
20
-318.5
11
11.9133
21
-318.718
0
LINE
8
BLACK
6
CONTINUOUS
10
11.9133
20
-318.718
11
12.0858
21
-318.914
0
LINE
8
BLACK
6
CONTINUOUS
10
12.0858
20
-318.914
11
12.2824
21
-319.087
0
LINE
8
BLACK
6
CONTINUOUS
10
12.2824
20
-319.087
11
12.5
21
-319.232
0
LINE
8
BLACK
6
CONTINUOUS
10
12.5
20
-319.232
11
12.7346
21
-319.348
0
LINE
8
BLACK
6
CONTINUOUS
10
12.7346
20
-319.348
11
12.9823
21
-319.432
0
LINE
8
BLACK
6
CONTINUOUS
10
12.9823
20
-319.432
11
13.2389
21
-319.483
0
LINE
8
BLACK
6
CONTINUOUS
10
13.2389
20
-319.483
11
13.5
21
-319.5
0
LINE
8
BLACK
6
CONTINUOUS
10
13.5
20
-319.5
11
13.5
21
-319.504
0
LINE
8
BLACK
6
CONTINUOUS
10
13.5
20
-319.504
11
13.2384
21
-319.487
0
LINE
8
BLACK
6
CONTINUOUS
10
13.2384
20
-319.487
11
12.9813
21
-319.436
0
LINE
8
BLACK
6
CONTINUOUS
10
12.9813
20
-319.436
11
12.733
21
-319.352
0
LINE
8
BLACK
6
CONTINUOUS
10
12.733
20
-319.352
11
12.4979
21
-319.236
0
LINE
8
BLACK
6
CONTINUOUS
10
12.4979
20
-319.236
11
12.2799
21
-319.09
0
LINE
8
BLACK
6
CONTINUOUS
10
12.2799
20
-319.09
11
12.0828
21
-318.917
0
LINE
8
BLACK
6
CONTINUOUS
10
12.0828
20
-318.917
11
11.9099
21
-318.72
0
LINE
8
BLACK
6
CONTINUOUS
10
11.9099
20
-318.72
11
11.7643
21
-318.502
0
LINE
8
BLACK
6
CONTINUOUS
10
11.7643
20
-318.502
11
11.6483
21
-318.267
0
LINE
8
BLACK
6
CONTINUOUS
10
11.6483
20
-318.267
11
11.5641
21
-318.019
0
LINE
8
BLACK
6
CONTINUOUS
10
11.5641
20
-318.019
11
11.5129
21
-317.762
0
LINE
8
BLACK
6
CONTINUOUS
10
11.5129
20
-317.762
11
11.4958
21
-317.5
0
LINE
8
BLACK
6
CONTINUOUS
10
11.4958
20
-317.5
11
11.5
21
-317.5
0
LINE
8
BLACK
6
CONTINUOUS
10
11.5
20
-317.5
11
11.5171
21
-317.761
0
LINE
8
BLACK
6
CONTINUOUS
10
11.5
20
-317.5
11
11.5
21
-317.5
0
LINE
8
BLACK
6
CONTINUOUS
10
11.5
20
-317.5
11
11.5
21
-317.5
0
LINE
8
BLACK
6
CONTINUOUS
10
11.5
20
-317.5
11
11.5
21
-317.5
0
LINE
8
BLACK
6
CONTINUOUS
10
11.5
20
-317.5
11
11.5
21
-317.5
0
LINE
8
BLACK
6
CONTINUOUS
10
11.5
20
-317.5
11
11.5
21
-214.5
0
LINE
8
BLACK
6
CONTINUOUS
10
11.5
20
-214.5
11
11.5
21
-214.5
0
LINE
8
BLACK
6
CONTINUOUS
10
11.5
20
-214.5
11
11.5
21
-214.5
0
LINE
8
BLACK
6
CONTINUOUS
10
11.5
20
-214.5
11
22
21
-214.5
0
LINE
8
BLACK
6
CONTINUOUS
10
22
20
-214.5
11
22
21
-214.5
0
LINE
8
BLACK
6
CONTINUOUS
10
22
20
-214.5
11
22
21
-214.5
0
LINE
8
BLACK
6
CONTINUOUS
10
22
20
-214.5
11
22
21
-214.5
0
LINE
8
BLACK
6
CONTINUOUS
10
22
20
-214.5
11
22
21
-214.5
0
LINE
8
BLACK
6
CONTINUOUS
10
22
20
-214.5
11
11.5
21
-214.5
0
LINE
8
BLACK
6
CONTINUOUS
10
11.5
20
-214.5
11
11.5
21
-317.5
0
LINE
8
BLACK
6
CONTINUOUS
10
429.5
20
-214.5
11
429.5
21
-214.5
0
LINE
8
BLACK
6
CONTINUOUS
10
429.5
20
-214.5
11
429.5
21
-317.5
0
LINE
8
BLACK
6
CONTINUOUS
10
429.5
20
-317.5
11
429.5
21
-317.5
0
LINE
8
BLACK
6
CONTINUOUS
10
429.5
20
-317.5
11
429.5
21
-317.5
0
LINE
8
BLACK
6
CONTINUOUS
10
429.5
20
-317.5
11
429.5
21
-317.5
0
LINE
8
BLACK
6
CONTINUOUS
10
429.5
20
-317.5
11
429.5
21
-317.5
0
LINE
8
BLACK
6
CONTINUOUS
10
429.5
20
-317.5
11
429.5
21
-214.5
0
LINE
8
BLACK
6
CONTINUOUS
10
429.5
20
-214.5
11
419
21
-214.5
0
LINE
8
BLACK
6
CONTINUOUS
10
419
20
-214.5
11
419
21
-214.5
0
LINE
8
BLACK
6
CONTINUOUS
10
419
20
-214.5
11
419
21
-214.5
0
LINE
8
BLACK
6
CONTINUOUS
10
419
20
-214.5
11
419
21
-214.5
0
LINE
8
BLACK
6
CONTINUOUS
10
419
20
-214.5
11
419
21
-214.5
0
LINE
8
BLACK
6
CONTINUOUS
10
419
20
-214.5
11
429.5
21
-214.5
0
LINE
8
BLACK
6
CONTINUOUS
10
429.5
20
-214.5
11
429.5
21
-214.5
0
LINE
8
BLACK
6
CONTINUOUS
10
177.566
20
-311.976
11
177.566
21
-311.976
0
LINE
8
BLACK
6
CONTINUOUS
10
177.566
20
-311.976
11
177.566
21
-311.976
0
LINE
8
BLACK
6
CONTINUOUS
10
177.566
20
-311.976
11
177.566
21
-311.976
0
LINE
8
BLACK
6
CONTINUOUS
10
177.566
20
-311.976
11
177.566
21
-311.976
0
LINE
8
BLACK
6
CONTINUOUS
10
177.566
20
-311.976
11
172.138
21
-310.822
0
LINE
8
BLACK
6
CONTINUOUS
10
172.138
20
-310.822
11
172.137
21
-310.826
0
LINE
8
BLACK
6
CONTINUOUS
10
172.137
20
-310.826
11
171.884
21
-310.755
0
LINE
8
BLACK
6
CONTINUOUS
10
171.884
20
-310.755
11
171.644
21
-310.651
0
LINE
8
BLACK
6
CONTINUOUS
10
171.644
20
-310.651
11
171.418
21
-310.517
0
LINE
8
BLACK
6
CONTINUOUS
10
171.418
20
-310.517
11
171.212
21
-310.355
0
LINE
8
BLACK
6
CONTINUOUS
10
171.212
20
-310.355
11
171.029
21
-310.167
0
LINE
8
BLACK
6
CONTINUOUS
10
171.029
20
-310.167
11
170.873
21
-309.957
0
LINE
8
BLACK
6
CONTINUOUS
10
170.873
20
-309.957
11
170.745
21
-309.728
0
LINE
8
BLACK
6
CONTINUOUS
10
170.745
20
-309.728
11
170.647
21
-309.485
0
LINE
8
BLACK
6
CONTINUOUS
10
170.647
20
-309.485
11
170.583
21
-309.231
0
LINE
8
BLACK
6
CONTINUOUS
10
170.583
20
-309.231
11
170.552
21
-308.97
0
LINE
8
BLACK
6
CONTINUOUS
10
170.552
20
-308.97
11
170.555
21
-308.708
0
LINE
8
BLACK
6
CONTINUOUS
10
170.555
20
-308.708
11
170.593
21
-308.449
0
LINE
8
BLACK
6
CONTINUOUS
10
170.593
20
-308.449
11
170.597
21
-308.45
0
LINE
8
BLACK
6
CONTINUOUS
10
170.597
20
-308.45
11
173.726
21
-293.728
0
LINE
8
BLACK
6
CONTINUOUS
10
173.726
20
-293.728
11
173.726
21
-293.728
0
LINE
8
BLACK
6
CONTINUOUS
10
173.726
20
-293.728
11
173.726
21
-293.728
0
LINE
8
BLACK
6
CONTINUOUS
10
173.726
20
-293.728
11
173.726
21
-293.728
0
LINE
8
BLACK
6
CONTINUOUS
10
173.726
20
-293.728
11
173.726
21
-293.728
0
LINE
8
BLACK
6
CONTINUOUS
10
173.726
20
-293.728
11
170.597
21
-308.45
0
LINE
8
BLACK
6
CONTINUOUS
10
170.597
20
-308.45
11
170.597
21
-308.45
0
LINE
8
BLACK
6
CONTINUOUS
10
170.597
20
-308.45
11
170.597
21
-308.45
0
LINE
8
BLACK
6
CONTINUOUS
10
170.597
20
-308.45
11
170.597
21
-308.45
0
LINE
8
BLACK
6
CONTINUOUS
10
170.597
20
-308.45
11
170.56
21
-308.708
0
LINE
8
BLACK
6
CONTINUOUS
10
170.56
20
-308.708
11
170.556
21
-308.97
0
LINE
8
BLACK
6
CONTINUOUS
10
170.556
20
-308.97
11
170.587
21
-309.23
0
LINE
8
BLACK
6
CONTINUOUS
10
170.587
20
-309.23
11
170.651
21
-309.483
0
LINE
8
BLACK
6
CONTINUOUS
10
170.651
20
-309.483
11
170.748
21
-309.726
0
LINE
8
BLACK
6
CONTINUOUS
10
170.748
20
-309.726
11
170.876
21
-309.955
0
LINE
8
BLACK
6
CONTINUOUS
10
170.876
20
-309.955
11
171.033
21
-310.164
0
LINE
8
BLACK
6
CONTINUOUS
10
171.033
20
-310.164
11
171.215
21
-310.352
0
LINE
8
BLACK
6
CONTINUOUS
10
171.215
20
-310.352
11
171.421
21
-310.514
0
LINE
8
BLACK
6
CONTINUOUS
10
171.421
20
-310.514
11
171.645
21
-310.647
0
LINE
8
BLACK
6
CONTINUOUS
10
171.645
20
-310.647
11
171.886
21
-310.751
0
LINE
8
BLACK
6
CONTINUOUS
10
171.886
20
-310.751
11
172.138
21
-310.822
0
LINE
8
BLACK
6
CONTINUOUS
10
172.138
20
-310.822
11
172.138
21
-310.822
0
LINE
8
BLACK
6
CONTINUOUS
10
172.138
20
-310.822
11
172.138
21
-310.822
0
LINE
8
BLACK
6
CONTINUOUS
10
172.138
20
-310.822
11
172.138
21
-310.822
0
LINE
8
BLACK
6
CONTINUOUS
10
172.138
20
-310.822
11
172.138
21
-310.822
0
LINE
8
BLACK
6
CONTINUOUS
10
172.138
20
-310.822
11
177.566
21
-311.975
0
LINE
8
BLACK
6
CONTINUOUS
10
177.566
20
-311.975
11
177.566
21
-311.976
0
LINE
8
BLACK
6
CONTINUOUS
10
270.249
20
-307.708
11
270.252
21
-307.97
0
LINE
8
BLACK
6
CONTINUOUS
10
270.252
20
-307.97
11
270.222
21
-308.23
0
LINE
8
BLACK
6
CONTINUOUS
10
270.222
20
-308.23
11
270.157
21
-308.484
0
LINE
8
BLACK
6
CONTINUOUS
10
270.157
20
-308.484
11
270.06
21
-308.728
0
LINE
8
BLACK
6
CONTINUOUS
10
270.06
20
-308.728
11
269.932
21
-308.956
0
LINE
8
BLACK
6
CONTINUOUS
10
269.932
20
-308.956
11
269.775
21
-309.167
0
LINE
8
BLACK
6
CONTINUOUS
10
269.775
20
-309.167
11
269.592
21
-309.354
0
LINE
8
BLACK
6
CONTINUOUS
10
269.592
20
-309.354
11
269.386
21
-309.517
0
LINE
8
BLACK
6
CONTINUOUS
10
269.386
20
-309.517
11
269.161
21
-309.651
0
LINE
8
BLACK
6
CONTINUOUS
10
269.161
20
-309.651
11
268.92
21
-309.754
0
LINE
8
BLACK
6
CONTINUOUS
10
268.92
20
-309.754
11
268.668
21
-309.825
0
LINE
8
BLACK
6
CONTINUOUS
10
268.668
20
-309.825
11
268.667
21
-309.821
0
LINE
8
BLACK
6
CONTINUOUS
10
268.667
20
-309.821
11
268.919
21
-309.75
0
LINE
8
BLACK
6
CONTINUOUS
10
268.919
20
-309.75
11
269.159
21
-309.647
0
LINE
8
BLACK
6
CONTINUOUS
10
269.159
20
-309.647
11
269.384
21
-309.513
0
LINE
8
BLACK
6
CONTINUOUS
10
269.384
20
-309.513
11
269.589
21
-309.351
0
LINE
8
BLACK
6
CONTINUOUS
10
269.589
20
-309.351
11
269.772
21
-309.164
0
LINE
8
BLACK
6
CONTINUOUS
10
269.772
20
-309.164
11
269.928
21
-308.954
0
LINE
8
BLACK
6
CONTINUOUS
10
269.928
20
-308.954
11
270.056
21
-308.726
0
LINE
8
BLACK
6
CONTINUOUS
10
270.056
20
-308.726
11
270.153
21
-308.483
0
LINE
8
BLACK
6
CONTINUOUS
10
270.153
20
-308.483
11
270.217
21
-308.229
0
LINE
8
BLACK
6
CONTINUOUS
10
270.217
20
-308.229
11
270.248
21
-307.97
0
LINE
8
BLACK
6
CONTINUOUS
10
270.248
20
-307.97
11
270.245
21
-307.708
0
LINE
8
BLACK
6
CONTINUOUS
10
270.245
20
-307.708
11
270.207
21
-307.449
0
LINE
8
BLACK
6
CONTINUOUS
10
270.207
20
-307.449
11
270.211
21
-307.448
0
LINE
8
BLACK
6
CONTINUOUS
10
270.211
20
-307.448
11
270.249
21
-307.708
0
LINE
8
BLACK
6
CONTINUOUS
10
268.357
20
-298.743
11
268.357
21
-298.744
0
LINE
8
BLACK
6
CONTINUOUS
10
268.357
20
-298.744
11
270.207
21
-307.449
0
LINE
8
BLACK
6
CONTINUOUS
10
270.207
20
-307.449
11
270.207
21
-307.449
0
LINE
8
BLACK
6
CONTINUOUS
10
270.207
20
-307.449
11
270.207
21
-307.449
0
LINE
8
BLACK
6
CONTINUOUS
10
270.207
20
-307.449
11
270.207
21
-307.449
0
LINE
8
BLACK
6
CONTINUOUS
10
270.207
20
-307.449
11
270.207
21
-307.449
0
LINE
8
BLACK
6
CONTINUOUS
10
270.207
20
-307.449
11
268.357
21
-298.744
0
LINE
8
BLACK
6
CONTINUOUS
10
268.357
20
-298.744
11
268.357
21
-298.744
0
LINE
8
BLACK
6
CONTINUOUS
10
268.357
20
-298.744
11
268.357
21
-298.743
0
LINE
8
BLACK
6
CONTINUOUS
10
268.357
20
-298.743
11
268.357
21
-298.743
0
LINE
8
BLACK
6
CONTINUOUS
10
262.911
20
-296.079
11
263.014
21
-296.319
0
LINE
8
BLACK
6
CONTINUOUS
10
263.014
20
-296.319
11
263.148
21
-296.544
0
LINE
8
BLACK
6
CONTINUOUS
10
263.148
20
-296.544
11
263.31
21
-296.749
0
LINE
8
BLACK
6
CONTINUOUS
10
263.31
20
-296.749
11
263.497
21
-296.932
0
LINE
8
BLACK
6
CONTINUOUS
10
263.497
20
-296.932
11
263.707
21
-297.088
0
LINE
8
BLACK
6
CONTINUOUS
10
263.707
20
-297.088
11
263.935
21
-297.216
0
LINE
8
BLACK
6
CONTINUOUS
10
263.935
20
-297.216
11
264.178
21
-297.313
0
LINE
8
BLACK
6
CONTINUOUS
10
264.178
20
-297.313
11
264.432
21
-297.378
0
LINE
8
BLACK
6
CONTINUOUS
10
264.432
20
-297.378
11
264.691
21
-297.408
0
LINE
8
BLACK
6
CONTINUOUS
10
264.691
20
-297.408
11
264.953
21
-297.405
0
LINE
8
BLACK
6
CONTINUOUS
10
264.953
20
-297.405
11
265.212
21
-297.367
0
LINE
8
BLACK
6
CONTINUOUS
10
265.212
20
-297.367
11
265.212
21
-297.367
0
LINE
8
BLACK
6
CONTINUOUS
10
265.212
20
-297.367
11
265.212
21
-297.367
0
LINE
8
BLACK
6
CONTINUOUS
10
265.212
20
-297.367
11
265.212
21
-297.367
0
LINE
8
BLACK
6
CONTINUOUS
10
265.212
20
-297.367
11
265.212
21
-297.367
0
LINE
8
BLACK
6
CONTINUOUS
10
265.212
20
-297.367
11
265.985
21
-297.203
0
LINE
8
BLACK
6
CONTINUOUS
10
265.985
20
-297.203
11
265.984
21
-297.199
0
LINE
8
BLACK
6
CONTINUOUS
10
265.984
20
-297.199
11
266.243
21
-297.161
0
LINE
8
BLACK
6
CONTINUOUS
10
266.243
20
-297.161
11
266.505
21
-297.158
0
LINE
8
BLACK
6
CONTINUOUS
10
266.505
20
-297.158
11
266.766
21
-297.189
0
LINE
8
BLACK
6
CONTINUOUS
10
266.766
20
-297.189
11
267.02
21
-297.253
0
LINE
8
BLACK
6
CONTINUOUS
10
267.02
20
-297.253
11
267.263
21
-297.35
0
LINE
8
BLACK
6
CONTINUOUS
10
267.263
20
-297.35
11
267.492
21
-297.478
0
LINE
8
BLACK
6
CONTINUOUS
10
267.492
20
-297.478
11
267.702
21
-297.635
0
LINE
8
BLACK
6
CONTINUOUS
10
267.702
20
-297.635
11
267.89
21
-297.818
0
LINE
8
BLACK
6
CONTINUOUS
10
267.89
20
-297.818
11
268.052
21
-298.024
0
LINE
8
BLACK
6
CONTINUOUS
10
268.052
20
-298.024
11
268.186
21
-298.249
0
LINE
8
BLACK
6
CONTINUOUS
10
268.186
20
-298.249
11
268.29
21
-298.49
0
LINE
8
BLACK
6
CONTINUOUS
10
268.29
20
-298.49
11
268.361
21
-298.743
0
LINE
8
BLACK
6
CONTINUOUS
10
268.361
20
-298.743
11
268.357
21
-298.744
0
LINE
8
BLACK
6
CONTINUOUS
10
268.357
20
-298.744
11
268.286
21
-298.492
0
LINE
8
BLACK
6
CONTINUOUS
10
268.286
20
-298.492
11
268.183
21
-298.251
0
LINE
8
BLACK
6
CONTINUOUS
10
268.183
20
-298.251
11
268.049
21
-298.027
0
LINE
8
BLACK
6
CONTINUOUS
10
268.049
20
-298.027
11
267.887
21
-297.821
0
LINE
8
BLACK
6
CONTINUOUS
10
267.887
20
-297.821
11
267.699
21
-297.639
0
LINE
8
BLACK
6
CONTINUOUS
10
267.699
20
-297.639
11
267.49
21
-297.482
0
LINE
8
BLACK
6
CONTINUOUS
10
267.49
20
-297.482
11
267.262
21
-297.354
0
LINE
8
BLACK
6
CONTINUOUS
10
267.262
20
-297.354
11
267.019
21
-297.257
0
LINE
8
BLACK
6
CONTINUOUS
10
267.019
20
-297.257
11
266.765
21
-297.193
0
LINE
8
BLACK
6
CONTINUOUS
10
266.765
20
-297.193
11
266.505
21
-297.162
0
LINE
8
BLACK
6
CONTINUOUS
10
266.505
20
-297.162
11
266.244
21
-297.165
0
LINE
8
BLACK
6
CONTINUOUS
10
266.244
20
-297.165
11
265.985
21
-297.203
0
LINE
8
BLACK
6
CONTINUOUS
10
265.985
20
-297.203
11
265.985
21
-297.203
0
LINE
8
BLACK
6
CONTINUOUS
10
265.985
20
-297.203
11
265.985
21
-297.203
0
LINE
8
BLACK
6
CONTINUOUS
10
265.985
20
-297.203
11
265.985
21
-297.203
0
LINE
8
BLACK
6
CONTINUOUS
10
265.985
20
-297.203
11
265.985
21
-297.203
0
LINE
8
BLACK
6
CONTINUOUS
10
265.985
20
-297.203
11
265.985
21
-297.203
0
LINE
8
BLACK
6
CONTINUOUS
10
265.985
20
-297.203
11
265.212
21
-297.367
0
LINE
8
BLACK
6
CONTINUOUS
10
265.212
20
-297.367
11
265.213
21
-297.371
0
LINE
8
BLACK
6
CONTINUOUS
10
265.213
20
-297.371
11
264.953
21
-297.409
0
LINE
8
BLACK
6
CONTINUOUS
10
264.953
20
-297.409
11
264.691
21
-297.413
0
LINE
8
BLACK
6
CONTINUOUS
10
264.691
20
-297.413
11
264.431
21
-297.382
0
LINE
8
BLACK
6
CONTINUOUS
10
264.431
20
-297.382
11
264.177
21
-297.317
0
LINE
8
BLACK
6
CONTINUOUS
10
264.177
20
-297.317
11
263.933
21
-297.22
0
LINE
8
BLACK
6
CONTINUOUS
10
263.933
20
-297.22
11
263.705
21
-297.092
0
LINE
8
BLACK
6
CONTINUOUS
10
263.705
20
-297.092
11
263.494
21
-296.935
0
LINE
8
BLACK
6
CONTINUOUS
10
263.494
20
-296.935
11
263.307
21
-296.752
0
LINE
8
BLACK
6
CONTINUOUS
10
263.307
20
-296.752
11
263.144
21
-296.546
0
LINE
8
BLACK
6
CONTINUOUS
10
263.144
20
-296.546
11
263.01
21
-296.321
0
LINE
8
BLACK
6
CONTINUOUS
10
263.01
20
-296.321
11
262.907
21
-296.08
0
LINE
8
BLACK
6
CONTINUOUS
10
262.907
20
-296.08
11
262.836
21
-295.828
0
LINE
8
BLACK
6
CONTINUOUS
10
262.836
20
-295.828
11
262.84
21
-295.827
0
LINE
8
BLACK
6
CONTINUOUS
10
262.84
20
-295.827
11
262.911
21
-296.079
0
LINE
8
BLACK
6
CONTINUOUS
10
258.118
20
-279.541
11
258.372
21
-279.606
0
LINE
8
BLACK
6
CONTINUOUS
10
258.372
20
-279.606
11
258.615
21
-279.703
0
LINE
8
BLACK
6
CONTINUOUS
10
258.615
20
-279.703
11
258.844
21
-279.831
0
LINE
8
BLACK
6
CONTINUOUS
10
258.844
20
-279.831
11
259.054
21
-279.988
0
LINE
8
BLACK
6
CONTINUOUS
10
259.054
20
-279.988
11
259.242
21
-280.171
0
LINE
8
BLACK
6
CONTINUOUS
10
259.242
20
-280.171
11
259.404
21
-280.377
0
LINE
8
BLACK
6
CONTINUOUS
10
259.404
20
-280.377
11
259.538
21
-280.602
0
LINE
8
BLACK
6
CONTINUOUS
10
259.538
20
-280.602
11
259.642
21
-280.843
0
LINE
8
BLACK
6
CONTINUOUS
10
259.642
20
-280.843
11
259.713
21
-281.095
0
LINE
8
BLACK
6
CONTINUOUS
10
259.713
20
-281.095
11
259.709
21
-281.096
0
LINE
8
BLACK
6
CONTINUOUS
10
259.709
20
-281.096
11
262.84
21
-295.827
0
LINE
8
BLACK
6
CONTINUOUS
10
262.84
20
-295.827
11
262.84
21
-295.827
0
LINE
8
BLACK
6
CONTINUOUS
10
262.84
20
-295.827
11
262.84
21
-295.827
0
LINE
8
BLACK
6
CONTINUOUS
10
262.84
20
-295.827
11
262.84
21
-295.827
0
LINE
8
BLACK
6
CONTINUOUS
10
262.84
20
-295.827
11
262.84
21
-295.827
0
LINE
8
BLACK
6
CONTINUOUS
10
262.84
20
-295.827
11
262.84
21
-295.827
0
LINE
8
BLACK
6
CONTINUOUS
10
262.84
20
-295.827
11
259.709
21
-281.096
0
LINE
8
BLACK
6
CONTINUOUS
10
259.709
20
-281.096
11
259.709
21
-281.096
0
LINE
8
BLACK
6
CONTINUOUS
10
259.709
20
-281.096
11
259.709
21
-281.096
0
LINE
8
BLACK
6
CONTINUOUS
10
259.709
20
-281.096
11
259.709
21
-281.096
0
LINE
8
BLACK
6
CONTINUOUS
10
259.709
20
-281.096
11
259.638
21
-280.844
0
LINE
8
BLACK
6
CONTINUOUS
10
259.638
20
-280.844
11
259.534
21
-280.604
0
LINE
8
BLACK
6
CONTINUOUS
10
259.534
20
-280.604
11
259.401
21
-280.379
0
LINE
8
BLACK
6
CONTINUOUS
10
259.401
20
-280.379
11
259.239
21
-280.173
0
LINE
8
BLACK
6
CONTINUOUS
10
259.239
20
-280.173
11
259.051
21
-279.991
0
LINE
8
BLACK
6
CONTINUOUS
10
259.051
20
-279.991
11
258.842
21
-279.834
0
LINE
8
BLACK
6
CONTINUOUS
10
258.842
20
-279.834
11
258.613
21
-279.707
0
LINE
8
BLACK
6
CONTINUOUS
10
258.613
20
-279.707
11
258.37
21
-279.61
0
LINE
8
BLACK
6
CONTINUOUS
10
258.37
20
-279.61
11
258.117
21
-279.545
0
LINE
8
BLACK
6
CONTINUOUS
10
258.117
20
-279.545
11
257.857
21
-279.514
0
LINE
8
BLACK
6
CONTINUOUS
10
257.857
20
-279.514
11
257.595
21
-279.518
0
LINE
8
BLACK
6
CONTINUOUS
10
257.595
20
-279.518
11
257.337
21
-279.555
0
LINE
8
BLACK
6
CONTINUOUS
10
257.337
20
-279.555
11
257.336
21
-279.551
0
LINE
8
BLACK
6
CONTINUOUS
10
257.336
20
-279.551
11
257.595
21
-279.514
0
LINE
8
BLACK
6
CONTINUOUS
10
257.595
20
-279.514
11
257.857
21
-279.51
0
LINE
8
BLACK
6
CONTINUOUS
10
257.857
20
-279.51
11
258.118
21
-279.541
0
LINE
8
BLACK
6
CONTINUOUS
10
165.079
20
-287.611
11
165.042
21
-287.87
0
LINE
8
BLACK
6
CONTINUOUS
10
165.042
20
-287.87
11
165.038
21
-288.131
0
LINE
8
BLACK
6
CONTINUOUS
10
165.038
20
-288.131
11
165.069
21
-288.391
0
LINE
8
BLACK
6
CONTINUOUS
10
165.069
20
-288.391
11
165.134
21
-288.645
0
LINE
8
BLACK
6
CONTINUOUS
10
165.134
20
-288.645
11
165.231
21
-288.888
0
LINE
8
BLACK
6
CONTINUOUS
10
165.231
20
-288.888
11
165.358
21
-289.116
0
LINE
8
BLACK
6
CONTINUOUS
10
165.358
20
-289.116
11
165.515
21
-289.326
0
LINE
8
BLACK
6
CONTINUOUS
10
165.515
20
-289.326
11
165.697
21
-289.513
0
LINE
8
BLACK
6
CONTINUOUS
10
165.697
20
-289.513
11
165.903
21
-289.675
0
LINE
8
BLACK
6
CONTINUOUS
10
165.903
20
-289.675
11
166.128
21
-289.809
0
LINE
8
BLACK
6
CONTINUOUS
10
166.128
20
-289.809
11
166.368
21
-289.912
0
LINE
8
BLACK
6
CONTINUOUS
10
166.368
20
-289.912
11
166.62
21
-289.983
0
LINE
8
BLACK
6
CONTINUOUS
10
166.62
20
-289.983
11
166.62
21
-289.983
0
LINE
8
BLACK
6
CONTINUOUS
10
166.62
20
-289.983
11
166.62
21
-289.983
0
LINE
8
BLACK
6
CONTINUOUS
10
166.62
20
-289.983
11
166.62
21
-289.983
0
LINE
8
BLACK
6
CONTINUOUS
10
166.62
20
-289.983
11
166.62
21
-289.983
0
LINE
8
BLACK
6
CONTINUOUS
10
166.62
20
-289.983
11
166.62
21
-289.983
0
LINE
8
BLACK
6
CONTINUOUS
10
166.62
20
-289.983
11
166.62
21
-289.983
0
LINE
8
BLACK
6
CONTINUOUS
10
166.62
20
-289.983
11
166.62
21
-289.983
0
LINE
8
BLACK
6
CONTINUOUS
10
166.62
20
-289.983
11
166.62
21
-289.983
0
LINE
8
BLACK
6
CONTINUOUS
10
166.62
20
-289.983
11
172.186
21
-291.356
0
LINE
8
BLACK
6
CONTINUOUS
10
172.186
20
-291.356
11
172.187
21
-291.352
0
LINE
8
BLACK
6
CONTINUOUS
10
172.187
20
-291.352
11
172.439
21
-291.423
0
LINE
8
BLACK
6
CONTINUOUS
10
172.439
20
-291.423
11
172.68
21
-291.527
0
LINE
8
BLACK
6
CONTINUOUS
10
172.68
20
-291.527
11
172.905
21
-291.661
0
LINE
8
BLACK
6
CONTINUOUS
10
172.905
20
-291.661
11
173.111
21
-291.823
0
LINE
8
BLACK
6
CONTINUOUS
10
173.111
20
-291.823
11
173.294
21
-292.011
0
LINE
8
BLACK
6
CONTINUOUS
10
173.294
20
-292.011
11
173.451
21
-292.221
0
LINE
8
BLACK
6
CONTINUOUS
10
173.451
20
-292.221
11
173.579
21
-292.45
0
LINE
8
BLACK
6
CONTINUOUS
10
173.579
20
-292.45
11
173.676
21
-292.693
0
LINE
8
BLACK
6
CONTINUOUS
10
173.676
20
-292.693
11
173.741
21
-292.947
0
LINE
8
BLACK
6
CONTINUOUS
10
173.741
20
-292.947
11
173.772
21
-293.208
0
LINE
8
BLACK
6
CONTINUOUS
10
173.772
20
-293.208
11
173.768
21
-293.47
0
LINE
8
BLACK
6
CONTINUOUS
10
173.768
20
-293.47
11
173.73
21
-293.729
0
LINE
8
BLACK
6
CONTINUOUS
10
173.73
20
-293.729
11
173.726
21
-293.728
0
LINE
8
BLACK
6
CONTINUOUS
10
173.726
20
-293.728
11
173.764
21
-293.469
0
LINE
8
BLACK
6
CONTINUOUS
10
173.764
20
-293.469
11
173.767
21
-293.208
0
LINE
8
BLACK
6
CONTINUOUS
10
173.767
20
-293.208
11
173.737
21
-292.948
0
LINE
8
BLACK
6
CONTINUOUS
10
173.737
20
-292.948
11
173.672
21
-292.695
0
LINE
8
BLACK
6
CONTINUOUS
10
173.672
20
-292.695
11
173.575
21
-292.452
0
LINE
8
BLACK
6
CONTINUOUS
10
173.575
20
-292.452
11
173.447
21
-292.223
0
LINE
8
BLACK
6
CONTINUOUS
10
173.447
20
-292.223
11
173.291
21
-292.014
0
LINE
8
BLACK
6
CONTINUOUS
10
173.291
20
-292.014
11
173.108
21
-291.826
0
LINE
8
BLACK
6
CONTINUOUS
10
173.108
20
-291.826
11
172.903
21
-291.664
0
LINE
8
BLACK
6
CONTINUOUS
10
172.903
20
-291.664
11
172.678
21
-291.53
0
LINE
8
BLACK
6
CONTINUOUS
10
172.678
20
-291.53
11
172.438
21
-291.427
0
LINE
8
BLACK
6
CONTINUOUS
10
172.438
20
-291.427
11
172.186
21
-291.356
0
LINE
8
BLACK
6
CONTINUOUS
10
172.186
20
-291.356
11
172.186
21
-291.356
0
LINE
8
BLACK
6
CONTINUOUS
10
172.186
20
-291.356
11
172.186
21
-291.356
0
LINE
8
BLACK
6
CONTINUOUS
10
172.186
20
-291.356
11
172.186
21
-291.356
0
LINE
8
BLACK
6
CONTINUOUS
10
172.186
20
-291.356
11
172.186
21
-291.356
0
LINE
8
BLACK
6
CONTINUOUS
10
172.186
20
-291.356
11
172.186
21
-291.356
0
LINE
8
BLACK
6
CONTINUOUS
10
172.186
20
-291.356
11
172.186
21
-291.356
0
LINE
8
BLACK
6
CONTINUOUS
10
172.186
20
-291.356
11
172.186
21
-291.356
0
LINE
8
BLACK
6
CONTINUOUS
10
172.186
20
-291.356
11
172.186
21
-291.356
0
LINE
8
BLACK
6
CONTINUOUS
10
172.186
20
-291.356
11
166.62
21
-289.983
0
LINE
8
BLACK
6
CONTINUOUS
10
166.62
20
-289.983
11
166.619
21
-289.987
0
LINE
8
BLACK
6
CONTINUOUS
10
166.619
20
-289.987
11
166.367
21
-289.916
0
LINE
8
BLACK
6
CONTINUOUS
10
166.367
20
-289.916
11
166.126
21
-289.812
0
LINE
8
BLACK
6
CONTINUOUS
10
166.126
20
-289.812
11
165.901
21
-289.678
0
LINE
8
BLACK
6
CONTINUOUS
10
165.901
20
-289.678
11
165.695
21
-289.516
0
LINE
8
BLACK
6
CONTINUOUS
10
165.695
20
-289.516
11
165.512
21
-289.328
0
LINE
8
BLACK
6
CONTINUOUS
10
165.512
20
-289.328
11
165.355
21
-289.118
0
LINE
8
BLACK
6
CONTINUOUS
10
165.355
20
-289.118
11
165.227
21
-288.89
0
LINE
8
BLACK
6
CONTINUOUS
10
165.227
20
-288.89
11
165.13
21
-288.646
0
LINE
8
BLACK
6
CONTINUOUS
10
165.13
20
-288.646
11
165.065
21
-288.392
0
LINE
8
BLACK
6
CONTINUOUS
10
165.065
20
-288.392
11
165.034
21
-288.132
0
LINE
8
BLACK
6
CONTINUOUS
10
165.034
20
-288.132
11
165.038
21
-287.869
0
LINE
8
BLACK
6
CONTINUOUS
10
165.038
20
-287.869
11
165.075
21
-287.61
0
LINE
8
BLACK
6
CONTINUOUS
10
165.075
20
-287.61
11
165.079
21
-287.611
0
LINE
8
BLACK
6
CONTINUOUS
10
165.079
20
-287.611
11
165.079
21
-287.611
0
LINE
8
BLACK
6
CONTINUOUS
10
165.079
20
-287.611
11
168.405
21
-273.071
0
LINE
8
BLACK
6
CONTINUOUS
10
168.405
20
-273.071
11
168.405
21
-273.071
0
LINE
8
BLACK
6
CONTINUOUS
10
168.405
20
-273.071
11
168.405
21
-273.071
0
LINE
8
BLACK
6
CONTINUOUS
10
168.405
20
-273.071
11
168.405
21
-273.071
0
LINE
8
BLACK
6
CONTINUOUS
10
168.405
20
-273.071
11
168.405
21
-273.071
0
LINE
8
BLACK
6
CONTINUOUS
10
168.405
20
-273.071
11
168.405
21
-273.071
0
LINE
8
BLACK
6
CONTINUOUS
10
168.405
20
-273.071
11
168.405
21
-273.071
0
LINE
8
BLACK
6
CONTINUOUS
10
168.405
20
-273.071
11
168.405
21
-273.071
0
LINE
8
BLACK
6
CONTINUOUS
10
168.405
20
-273.071
11
168.405
21
-273.071
0
LINE
8
BLACK
6
CONTINUOUS
10
168.405
20
-273.071
11
165.079
21
-287.611
0
LINE
8
BLACK
6
CONTINUOUS
10
165.079
20
-287.611
11
165.079
21
-287.611
0
LINE
8
BLACK
6
CONTINUOUS
10
165.079
20
-287.611
11
165.079
21
-287.611
0
LINE
8
BLACK
6
CONTINUOUS
10
165.079
20
-287.611
11
165.079
21
-287.611
0
LINE
8
BLACK
6
CONTINUOUS
10
165.079
20
-287.611
11
165.079
21
-287.611
0
LINE
8
BLACK
6
CONTINUOUS
10
165.079
20
-287.611
11
165.079
21
-287.611
0
LINE
8
BLACK
6
CONTINUOUS
10
254.302
20
-278.423
11
254.405
21
-278.663
0
LINE
8
BLACK
6
CONTINUOUS
10
254.405
20
-278.663
11
254.539
21
-278.888
0
LINE
8
BLACK
6
CONTINUOUS
10
254.539
20
-278.888
11
254.701
21
-279.093
0
LINE
8
BLACK
6
CONTINUOUS
10
254.701
20
-279.093
11
254.888
21
-279.276
0
LINE
8
BLACK
6
CONTINUOUS
10
254.888
20
-279.276
11
255.098
21
-279.433
0
LINE
8
BLACK
6
CONTINUOUS
10
255.098
20
-279.433
11
255.326
21
-279.56
0
LINE
8
BLACK
6
CONTINUOUS
10
255.326
20
-279.56
11
255.569
21
-279.657
0
LINE
8
BLACK
6
CONTINUOUS
10
255.569
20
-279.657
11
255.823
21
-279.722
0
LINE
8
BLACK
6
CONTINUOUS
10
255.823
20
-279.722
11
256.082
21
-279.752
0
LINE
8
BLACK
6
CONTINUOUS
10
256.082
20
-279.752
11
256.344
21
-279.749
0
LINE
8
BLACK
6
CONTINUOUS
10
256.344
20
-279.749
11
256.603
21
-279.711
0
LINE
8
BLACK
6
CONTINUOUS
10
256.603
20
-279.711
11
256.604
21
-279.716
0
LINE
8
BLACK
6
CONTINUOUS
10
256.604
20
-279.716
11
256.344
21
-279.753
0
LINE
8
BLACK
6
CONTINUOUS
10
256.344
20
-279.753
11
256.082
21
-279.757
0
LINE
8
BLACK
6
CONTINUOUS
10
256.082
20
-279.757
11
255.822
21
-279.726
0
LINE
8
BLACK
6
CONTINUOUS
10
255.822
20
-279.726
11
255.568
21
-279.661
0
LINE
8
BLACK
6
CONTINUOUS
10
255.568
20
-279.661
11
255.324
21
-279.564
0
LINE
8
BLACK
6
CONTINUOUS
10
255.324
20
-279.564
11
255.096
21
-279.436
0
LINE
8
BLACK
6
CONTINUOUS
10
255.096
20
-279.436
11
254.885
21
-279.279
0
LINE
8
BLACK
6
CONTINUOUS
10
254.885
20
-279.279
11
254.698
21
-279.096
0
LINE
8
BLACK
6
CONTINUOUS
10
254.698
20
-279.096
11
254.535
21
-278.89
0
LINE
8
BLACK
6
CONTINUOUS
10
254.535
20
-278.89
11
254.401
21
-278.665
0
LINE
8
BLACK
6
CONTINUOUS
10
254.401
20
-278.665
11
254.298
21
-278.424
0
LINE
8
BLACK
6
CONTINUOUS
10
254.298
20
-278.424
11
254.227
21
-278.172
0
LINE
8
BLACK
6
CONTINUOUS
10
254.227
20
-278.172
11
254.231
21
-278.171
0
LINE
8
BLACK
6
CONTINUOUS
10
254.231
20
-278.171
11
254.302
21
-278.423
0
LINE
8
BLACK
6
CONTINUOUS
10
257.337
20
-279.555
11
257.337
21
-279.555
0
LINE
8
BLACK
6
CONTINUOUS
10
257.337
20
-279.555
11
257.337
21
-279.555
0
LINE
8
BLACK
6
CONTINUOUS
10
257.337
20
-279.555
11
257.337
21
-279.556
0
LINE
8
BLACK
6
CONTINUOUS
10
257.337
20
-279.556
11
256.603
21
-279.711
0
LINE
8
BLACK
6
CONTINUOUS
10
256.603
20
-279.711
11
256.603
21
-279.711
0
LINE
8
BLACK
6
CONTINUOUS
10
256.603
20
-279.711
11
256.603
21
-279.711
0
LINE
8
BLACK
6
CONTINUOUS
10
256.603
20
-279.711
11
256.603
21
-279.711
0
LINE
8
BLACK
6
CONTINUOUS
10
256.603
20
-279.711
11
256.603
21
-279.711
0
LINE
8
BLACK
6
CONTINUOUS
10
256.603
20
-279.711
11
257.337
21
-279.555
0
LINE
8
BLACK
6
CONTINUOUS
10
257.337
20
-279.555
11
257.337
21
-279.555
0
LINE
8
BLACK
6
CONTINUOUS
10
257.337
20
-279.555
11
257.337
21
-279.555
0
LINE
8
BLACK
6
CONTINUOUS
10
249.825
20
-257.444
11
249.825
21
-257.444
0
LINE
8
BLACK
6
CONTINUOUS
10
249.825
20
-257.444
11
254.231
21
-278.171
0
LINE
8
BLACK
6
CONTINUOUS
10
254.231
20
-278.171
11
254.231
21
-278.171
0
LINE
8
BLACK
6
CONTINUOUS
10
254.231
20
-278.171
11
254.231
21
-278.171
0
LINE
8
BLACK
6
CONTINUOUS
10
254.231
20
-278.171
11
254.231
21
-278.171
0
LINE
8
BLACK
6
CONTINUOUS
10
254.231
20
-278.171
11
254.231
21
-278.171
0
LINE
8
BLACK
6
CONTINUOUS
10
254.231
20
-278.171
11
249.825
21
-257.444
0
LINE
8
BLACK
6
CONTINUOUS
10
249.825
20
-257.444
11
249.825
21
-257.444
0
LINE
8
BLACK
6
CONTINUOUS
10
249.825
20
-257.444
11
249.825
21
-257.444
0
LINE
8
BLACK
6
CONTINUOUS
10
249.825
20
-257.444
11
249.825
21
-257.444
0
LINE
8
BLACK
6
CONTINUOUS
10
166.43
20
-259.514
11
164.59
21
-268.17
0
LINE
8
BLACK
6
CONTINUOUS
10
164.59
20
-268.17
11
164.59
21
-268.17
0
LINE
8
BLACK
6
CONTINUOUS
10
164.59
20
-268.17
11
164.59
21
-268.17
0
LINE
8
BLACK
6
CONTINUOUS
10
164.59
20
-268.17
11
164.59
21
-268.17
0
LINE
8
BLACK
6
CONTINUOUS
10
164.59
20
-268.17
11
164.553
21
-268.429
0
LINE
8
BLACK
6
CONTINUOUS
10
164.553
20
-268.429
11
164.549
21
-268.691
0
LINE
8
BLACK
6
CONTINUOUS
10
164.549
20
-268.691
11
164.58
21
-268.951
0
LINE
8
BLACK
6
CONTINUOUS
10
164.58
20
-268.951
11
164.645
21
-269.204
0
LINE
8
BLACK
6
CONTINUOUS
10
164.645
20
-269.204
11
164.742
21
-269.447
0
LINE
8
BLACK
6
CONTINUOUS
10
164.742
20
-269.447
11
164.869
21
-269.676
0
LINE
8
BLACK
6
CONTINUOUS
10
164.869
20
-269.676
11
165.026
21
-269.885
0
LINE
8
BLACK
6
CONTINUOUS
10
165.026
20
-269.885
11
165.208
21
-270.073
0
LINE
8
BLACK
6
CONTINUOUS
10
165.208
20
-270.073
11
165.414
21
-270.235
0
LINE
8
BLACK
6
CONTINUOUS
10
165.414
20
-270.235
11
165.639
21
-270.368
0
LINE
8
BLACK
6
CONTINUOUS
10
165.639
20
-270.368
11
165.879
21
-270.472
0
LINE
8
BLACK
6
CONTINUOUS
10
165.879
20
-270.472
11
166.131
21
-270.543
0
LINE
8
BLACK
6
CONTINUOUS
10
166.131
20
-270.543
11
166.131
21
-270.543
0
LINE
8
BLACK
6
CONTINUOUS
10
166.131
20
-270.543
11
166.131
21
-270.543
0
LINE
8
BLACK
6
CONTINUOUS
10
166.131
20
-270.543
11
166.131
21
-270.543
0
LINE
8
BLACK
6
CONTINUOUS
10
166.131
20
-270.543
11
166.131
21
-270.543
0
LINE
8
BLACK
6
CONTINUOUS
10
166.131
20
-270.543
11
166.865
21
-270.698
0
LINE
8
BLACK
6
CONTINUOUS
10
166.865
20
-270.698
11
166.865
21
-270.694
0
LINE
8
BLACK
6
CONTINUOUS
10
166.865
20
-270.694
11
167.118
21
-270.766
0
LINE
8
BLACK
6
CONTINUOUS
10
167.118
20
-270.766
11
167.359
21
-270.869
0
LINE
8
BLACK
6
CONTINUOUS
10
167.359
20
-270.869
11
167.584
21
-271.003
0
LINE
8
BLACK
6
CONTINUOUS
10
167.584
20
-271.003
11
167.79
21
-271.165
0
LINE
8
BLACK
6
CONTINUOUS
10
167.79
20
-271.165
11
167.973
21
-271.353
0
LINE
8
BLACK
6
CONTINUOUS
10
167.973
20
-271.353
11
168.13
21
-271.563
0
LINE
8
BLACK
6
CONTINUOUS
10
168.13
20
-271.563
11
168.258
21
-271.792
0
LINE
8
BLACK
6
CONTINUOUS
10
168.258
20
-271.792
11
168.355
21
-272.035
0
LINE
8
BLACK
6
CONTINUOUS
10
168.355
20
-272.035
11
168.419
21
-272.29
0
LINE
8
BLACK
6
CONTINUOUS
10
168.419
20
-272.29
11
168.45
21
-272.55
0
LINE
8
BLACK
6
CONTINUOUS
10
168.45
20
-272.55
11
168.447
21
-272.812
0
LINE
8
BLACK
6
CONTINUOUS
10
168.447
20
-272.812
11
168.409
21
-273.072
0
LINE
8
BLACK
6
CONTINUOUS
10
168.409
20
-273.072
11
168.405
21
-273.071
0
LINE
8
BLACK
6
CONTINUOUS
10
168.405
20
-273.071
11
168.443
21
-272.812
0
LINE
8
BLACK
6
CONTINUOUS
10
168.443
20
-272.812
11
168.446
21
-272.55
0
LINE
8
BLACK
6
CONTINUOUS
10
168.446
20
-272.55
11
168.415
21
-272.29
0
LINE
8
BLACK
6
CONTINUOUS
10
168.415
20
-272.29
11
168.351
21
-272.037
0
LINE
8
BLACK
6
CONTINUOUS
10
168.351
20
-272.037
11
168.254
21
-271.794
0
LINE
8
BLACK
6
CONTINUOUS
10
168.254
20
-271.794
11
168.126
21
-271.565
0
LINE
8
BLACK
6
CONTINUOUS
10
168.126
20
-271.565
11
167.97
21
-271.356
0
LINE
8
BLACK
6
CONTINUOUS
10
167.97
20
-271.356
11
167.787
21
-271.168
0
LINE
8
BLACK
6
CONTINUOUS
10
167.787
20
-271.168
11
167.582
21
-271.006
0
LINE
8
BLACK
6
CONTINUOUS
10
167.582
20
-271.006
11
167.357
21
-270.873
0
LINE
8
BLACK
6
CONTINUOUS
10
167.357
20
-270.873
11
167.116
21
-270.769
0
LINE
8
BLACK
6
CONTINUOUS
10
167.116
20
-270.769
11
166.865
21
-270.698
0
LINE
8
BLACK
6
CONTINUOUS
10
166.865
20
-270.698
11
166.865
21
-270.698
0
LINE
8
BLACK
6
CONTINUOUS
10
166.865
20
-270.698
11
166.865
21
-270.698
0
LINE
8
BLACK
6
CONTINUOUS
10
166.865
20
-270.698
11
166.865
21
-270.699
0
LINE
8
BLACK
6
CONTINUOUS
10
166.865
20
-270.699
11
166.865
21
-270.699
0
LINE
8
BLACK
6
CONTINUOUS
10
166.865
20
-270.699
11
166.864
21
-270.699
0
LINE
8
BLACK
6
CONTINUOUS
10
166.864
20
-270.699
11
166.864
21
-270.699
0
LINE
8
BLACK
6
CONTINUOUS
10
166.864
20
-270.699
11
166.131
21
-270.543
0
LINE
8
BLACK
6
CONTINUOUS
10
166.131
20
-270.543
11
166.13
21
-270.547
0
LINE
8
BLACK
6
CONTINUOUS
10
166.13
20
-270.547
11
165.878
21
-270.476
0
LINE
8
BLACK
6
CONTINUOUS
10
165.878
20
-270.476
11
165.637
21
-270.372
0
LINE
8
BLACK
6
CONTINUOUS
10
165.637
20
-270.372
11
165.412
21
-270.238
0
LINE
8
BLACK
6
CONTINUOUS
10
165.412
20
-270.238
11
165.206
21
-270.076
0
LINE
8
BLACK
6
CONTINUOUS
10
165.206
20
-270.076
11
165.023
21
-269.888
0
LINE
8
BLACK
6
CONTINUOUS
10
165.023
20
-269.888
11
164.866
21
-269.678
0
LINE
8
BLACK
6
CONTINUOUS
10
164.866
20
-269.678
11
164.738
21
-269.449
0
LINE
8
BLACK
6
CONTINUOUS
10
164.738
20
-269.449
11
164.641
21
-269.206
0
LINE
8
BLACK
6
CONTINUOUS
10
164.641
20
-269.206
11
164.576
21
-268.952
0
LINE
8
BLACK
6
CONTINUOUS
10
164.576
20
-268.952
11
164.545
21
-268.691
0
LINE
8
BLACK
6
CONTINUOUS
10
164.545
20
-268.691
11
164.549
21
-268.429
0
LINE
8
BLACK
6
CONTINUOUS
10
164.549
20
-268.429
11
164.586
21
-268.17
0
LINE
8
BLACK
6
CONTINUOUS
10
164.586
20
-268.17
11
164.59
21
-268.17
0
LINE
8
BLACK
6
CONTINUOUS
10
164.59
20
-268.17
11
166.43
21
-259.514
0
LINE
8
BLACK
6
CONTINUOUS
10
166.43
20
-259.514
11
166.426
21
-259.513
0
LINE
8
BLACK
6
CONTINUOUS
10
166.426
20
-259.513
11
166.497
21
-259.261
0
LINE
8
BLACK
6
CONTINUOUS
10
166.497
20
-259.261
11
166.601
21
-259.02
0
LINE
8
BLACK
6
CONTINUOUS
10
166.601
20
-259.02
11
166.735
21
-258.794
0
LINE
8
BLACK
6
CONTINUOUS
10
166.735
20
-258.794
11
166.897
21
-258.589
0
LINE
8
BLACK
6
CONTINUOUS
10
166.897
20
-258.589
11
167.085
21
-258.406
0
LINE
8
BLACK
6
CONTINUOUS
10
167.085
20
-258.406
11
167.295
21
-258.249
0
LINE
8
BLACK
6
CONTINUOUS
10
167.295
20
-258.249
11
167.524
21
-258.121
0
LINE
8
BLACK
6
CONTINUOUS
10
167.524
20
-258.121
11
167.767
21
-258.024
0
LINE
8
BLACK
6
CONTINUOUS
10
167.767
20
-258.024
11
168.021
21
-257.959
0
LINE
8
BLACK
6
CONTINUOUS
10
168.021
20
-257.959
11
168.282
21
-257.928
0
LINE
8
BLACK
6
CONTINUOUS
10
168.282
20
-257.928
11
168.544
21
-257.932
0
LINE
8
BLACK
6
CONTINUOUS
10
168.544
20
-257.932
11
168.803
21
-257.969
0
LINE
8
BLACK
6
CONTINUOUS
10
168.803
20
-257.969
11
168.803
21
-257.973
0
LINE
8
BLACK
6
CONTINUOUS
10
168.803
20
-257.973
11
174.182
21
-259.117
0
LINE
8
BLACK
6
CONTINUOUS
10
174.182
20
-259.117
11
174.182
21
-259.117
0
LINE
8
BLACK
6
CONTINUOUS
10
174.182
20
-259.117
11
174.182
21
-259.117
0
LINE
8
BLACK
6
CONTINUOUS
10
174.182
20
-259.117
11
174.182
21
-259.117
0
LINE
8
BLACK
6
CONTINUOUS
10
174.182
20
-259.117
11
174.182
21
-259.117
0
LINE
8
BLACK
6
CONTINUOUS
10
174.182
20
-259.117
11
174.441
21
-259.154
0
LINE
8
BLACK
6
CONTINUOUS
10
174.441
20
-259.154
11
174.703
21
-259.158
0
LINE
8
BLACK
6
CONTINUOUS
10
174.703
20
-259.158
11
174.963
21
-259.127
0
LINE
8
BLACK
6
CONTINUOUS
10
174.963
20
-259.127
11
175.216
21
-259.063
0
LINE
8
BLACK
6
CONTINUOUS
10
175.216
20
-259.063
11
175.459
21
-258.966
0
LINE
8
BLACK
6
CONTINUOUS
10
175.459
20
-258.966
11
175.687
21
-258.838
0
LINE
8
BLACK
6
CONTINUOUS
10
175.687
20
-258.838
11
175.897
21
-258.681
0
LINE
8
BLACK
6
CONTINUOUS
10
175.897
20
-258.681
11
176.085
21
-258.499
0
LINE
8
BLACK
6
CONTINUOUS
10
176.085
20
-258.499
11
176.246
21
-258.293
0
LINE
8
BLACK
6
CONTINUOUS
10
176.246
20
-258.293
11
176.38
21
-258.069
0
LINE
8
BLACK
6
CONTINUOUS
10
176.38
20
-258.069
11
176.484
21
-257.828
0
LINE
8
BLACK
6
CONTINUOUS
10
176.484
20
-257.828
11
176.555
21
-257.576
0
LINE
8
BLACK
6
CONTINUOUS
10
176.555
20
-257.576
11
176.555
21
-257.576
0
LINE
8
BLACK
6
CONTINUOUS
10
176.555
20
-257.576
11
176.554
21
-257.576
0
LINE
8
BLACK
6
CONTINUOUS
10
176.554
20
-257.576
11
176.554
21
-257.576
0
LINE
8
BLACK
6
CONTINUOUS
10
176.554
20
-257.576
11
176.554
21
-257.576
0
LINE
8
BLACK
6
CONTINUOUS
10
176.554
20
-257.576
11
180.962
21
-236.84
0
LINE
8
BLACK
6
CONTINUOUS
10
180.962
20
-236.84
11
180.962
21
-236.84
0
LINE
8
BLACK
6
CONTINUOUS
10
180.962
20
-236.84
11
180.962
21
-236.84
0
LINE
8
BLACK
6
CONTINUOUS
10
180.962
20
-236.84
11
180.962
21
-236.84
0
LINE
8
BLACK
6
CONTINUOUS
10
180.962
20
-236.84
11
180.962
21
-236.84
0
LINE
8
BLACK
6
CONTINUOUS
10
180.962
20
-236.84
11
181
21
-236.581
0
LINE
8
BLACK
6
CONTINUOUS
10
181
20
-236.581
11
181.003
21
-236.319
0
LINE
8
BLACK
6
CONTINUOUS
10
181.003
20
-236.319
11
180.972
21
-236.059
0
LINE
8
BLACK
6
CONTINUOUS
10
180.972
20
-236.059
11
180.908
21
-235.806
0
LINE
8
BLACK
6
CONTINUOUS
10
180.908
20
-235.806
11
180.811
21
-235.563
0
LINE
8
BLACK
6
CONTINUOUS
10
180.811
20
-235.563
11
180.683
21
-235.335
0
LINE
8
BLACK
6
CONTINUOUS
10
180.683
20
-235.335
11
180.527
21
-235.125
0
LINE
8
BLACK
6
CONTINUOUS
10
180.527
20
-235.125
11
180.344
21
-234.938
0
LINE
8
BLACK
6
CONTINUOUS
10
180.344
20
-234.938
11
180.139
21
-234.776
0
LINE
8
BLACK
6
CONTINUOUS
10
180.139
20
-234.776
11
179.914
21
-234.642
0
LINE
8
BLACK
6
CONTINUOUS
10
179.914
20
-234.642
11
179.674
21
-234.539
0
LINE
8
BLACK
6
CONTINUOUS
10
179.674
20
-234.539
11
179.422
21
-234.468
0
LINE
8
BLACK
6
CONTINUOUS
10
179.422
20
-234.468
11
179.423
21
-234.463
0
LINE
8
BLACK
6
CONTINUOUS
10
179.423
20
-234.463
11
179.675
21
-234.535
0
LINE
8
BLACK
6
CONTINUOUS
10
179.675
20
-234.535
11
179.916
21
-234.638
0
LINE
8
BLACK
6
CONTINUOUS
10
179.916
20
-234.638
11
180.141
21
-234.772
0
LINE
8
BLACK
6
CONTINUOUS
10
180.141
20
-234.772
11
180.347
21
-234.934
0
LINE
8
BLACK
6
CONTINUOUS
10
180.347
20
-234.934
11
180.53
21
-235.122
0
LINE
8
BLACK
6
CONTINUOUS
10
180.53
20
-235.122
11
180.687
21
-235.332
0
LINE
8
BLACK
6
CONTINUOUS
10
180.687
20
-235.332
11
180.815
21
-235.561
0
LINE
8
BLACK
6
CONTINUOUS
10
180.815
20
-235.561
11
180.912
21
-235.805
0
LINE
8
BLACK
6
CONTINUOUS
10
180.912
20
-235.805
11
180.977
21
-236.059
0
LINE
8
BLACK
6
CONTINUOUS
10
180.977
20
-236.059
11
181.007
21
-236.319
0
LINE
8
BLACK
6
CONTINUOUS
10
181.007
20
-236.319
11
181.004
21
-236.581
0
LINE
8
BLACK
6
CONTINUOUS
10
181.004
20
-236.581
11
180.966
21
-236.841
0
LINE
8
BLACK
6
CONTINUOUS
10
180.966
20
-236.841
11
180.962
21
-236.84
0
LINE
8
BLACK
6
CONTINUOUS
10
180.962
20
-236.84
11
180.962
21
-236.84
0
LINE
8
BLACK
6
CONTINUOUS
10
180.962
20
-236.84
11
176.555
21
-257.576
0
LINE
8
BLACK
6
CONTINUOUS
10
176.555
20
-257.576
11
176.559
21
-257.577
0
LINE
8
BLACK
6
CONTINUOUS
10
176.559
20
-257.577
11
176.487
21
-257.83
0
LINE
8
BLACK
6
CONTINUOUS
10
176.487
20
-257.83
11
176.384
21
-258.07
0
LINE
8
BLACK
6
CONTINUOUS
10
176.384
20
-258.07
11
176.25
21
-258.296
0
LINE
8
BLACK
6
CONTINUOUS
10
176.25
20
-258.296
11
176.088
21
-258.502
0
LINE
8
BLACK
6
CONTINUOUS
10
176.088
20
-258.502
11
175.9
21
-258.685
0
LINE
8
BLACK
6
CONTINUOUS
10
175.9
20
-258.685
11
175.69
21
-258.841
0
LINE
8
BLACK
6
CONTINUOUS
10
175.69
20
-258.841
11
175.461
21
-258.97
0
LINE
8
BLACK
6
CONTINUOUS
10
175.461
20
-258.97
11
175.218
21
-259.067
0
LINE
8
BLACK
6
CONTINUOUS
10
175.218
20
-259.067
11
174.963
21
-259.131
0
LINE
8
BLACK
6
CONTINUOUS
10
174.963
20
-259.131
11
174.703
21
-259.162
0
LINE
8
BLACK
6
CONTINUOUS
10
174.703
20
-259.162
11
174.441
21
-259.159
0
LINE
8
BLACK
6
CONTINUOUS
10
174.441
20
-259.159
11
174.181
21
-259.121
0
LINE
8
BLACK
6
CONTINUOUS
10
174.181
20
-259.121
11
174.182
21
-259.117
0
LINE
8
BLACK
6
CONTINUOUS
10
174.182
20
-259.117
11
168.803
21
-257.973
0
LINE
8
BLACK
6
CONTINUOUS
10
168.803
20
-257.973
11
168.803
21
-257.973
0
LINE
8
BLACK
6
CONTINUOUS
10
168.803
20
-257.973
11
168.803
21
-257.973
0
LINE
8
BLACK
6
CONTINUOUS
10
168.803
20
-257.973
11
168.803
21
-257.973
0
LINE
8
BLACK
6
CONTINUOUS
10
168.803
20
-257.973
11
168.544
21
-257.936
0
LINE
8
BLACK
6
CONTINUOUS
10
168.544
20
-257.936
11
168.282
21
-257.932
0
LINE
8
BLACK
6
CONTINUOUS
10
168.282
20
-257.932
11
168.022
21
-257.963
0
LINE
8
BLACK
6
CONTINUOUS
10
168.022
20
-257.963
11
167.769
21
-258.028
0
LINE
8
BLACK
6
CONTINUOUS
10
167.769
20
-258.028
11
167.526
21
-258.125
0
LINE
8
BLACK
6
CONTINUOUS
10
167.526
20
-258.125
11
167.297
21
-258.252
0
LINE
8
BLACK
6
CONTINUOUS
10
167.297
20
-258.252
11
167.088
21
-258.409
0
LINE
8
BLACK
6
CONTINUOUS
10
167.088
20
-258.409
11
166.9
21
-258.591
0
LINE
8
BLACK
6
CONTINUOUS
10
166.9
20
-258.591
11
166.738
21
-258.797
0
LINE
8
BLACK
6
CONTINUOUS
10
166.738
20
-258.797
11
166.605
21
-259.022
0
LINE
8
BLACK
6
CONTINUOUS
10
166.605
20
-259.022
11
166.501
21
-259.262
0
LINE
8
BLACK
6
CONTINUOUS
10
166.501
20
-259.262
11
166.43
21
-259.514
0
LINE
8
BLACK
6
CONTINUOUS
10
166.43
20
-259.514
11
166.43
21
-259.514
0
LINE
8
BLACK
6
CONTINUOUS
10
166.43
20
-259.514
11
166.43
21
-259.514
0
LINE
8
BLACK
6
CONTINUOUS
10
166.43
20
-259.514
11
166.43
21
-259.514
0
LINE
8
BLACK
6
CONTINUOUS
10
166.43
20
-259.514
11
166.43
21
-259.514
0
LINE
8
BLACK
6
CONTINUOUS
10
256.755
20
-253.926
11
256.755
21
-253.926
0
LINE
8
BLACK
6
CONTINUOUS
10
256.755
20
-253.926
11
256.755
21
-253.926
0
LINE
8
BLACK
6
CONTINUOUS
10
256.755
20
-253.926
11
256.755
21
-253.926
0
LINE
8
BLACK
6
CONTINUOUS
10
256.755
20
-253.926
11
251.366
21
-255.072
0
LINE
8
BLACK
6
CONTINUOUS
10
251.366
20
-255.072
11
251.366
21
-255.072
0
LINE
8
BLACK
6
CONTINUOUS
10
251.366
20
-255.072
11
251.366
21
-255.072
0
LINE
8
BLACK
6
CONTINUOUS
10
251.366
20
-255.072
11
251.366
21
-255.072
0
LINE
8
BLACK
6
CONTINUOUS
10
251.366
20
-255.072
11
251.114
21
-255.143
0
LINE
8
BLACK
6
CONTINUOUS
10
251.114
20
-255.143
11
250.873
21
-255.246
0
LINE
8
BLACK
6
CONTINUOUS
10
250.873
20
-255.246
11
250.649
21
-255.38
0
LINE
8
BLACK
6
CONTINUOUS
10
250.649
20
-255.38
11
250.443
21
-255.542
0
LINE
8
BLACK
6
CONTINUOUS
10
250.443
20
-255.542
11
250.261
21
-255.729
0
LINE
8
BLACK
6
CONTINUOUS
10
250.261
20
-255.729
11
250.104
21
-255.939
0
LINE
8
BLACK
6
CONTINUOUS
10
250.104
20
-255.939
11
249.976
21
-256.167
0
LINE
8
BLACK
6
CONTINUOUS
10
249.976
20
-256.167
11
249.879
21
-256.41
0
LINE
8
BLACK
6
CONTINUOUS
10
249.879
20
-256.41
11
249.815
21
-256.664
0
LINE
8
BLACK
6
CONTINUOUS
10
249.815
20
-256.664
11
249.784
21
-256.923
0
LINE
8
BLACK
6
CONTINUOUS
10
249.784
20
-256.923
11
249.788
21
-257.185
0
LINE
8
BLACK
6
CONTINUOUS
10
249.788
20
-257.185
11
249.825
21
-257.444
0
LINE
8
BLACK
6
CONTINUOUS
10
249.825
20
-257.444
11
249.821
21
-257.445
0
LINE
8
BLACK
6
CONTINUOUS
10
249.821
20
-257.445
11
249.783
21
-257.185
0
LINE
8
BLACK
6
CONTINUOUS
10
249.783
20
-257.185
11
249.78
21
-256.923
0
LINE
8
BLACK
6
CONTINUOUS
10
249.78
20
-256.923
11
249.811
21
-256.663
0
LINE
8
BLACK
6
CONTINUOUS
10
249.811
20
-256.663
11
249.875
21
-256.409
0
LINE
8
BLACK
6
CONTINUOUS
10
249.875
20
-256.409
11
249.972
21
-256.165
0
LINE
8
BLACK
6
CONTINUOUS
10
249.972
20
-256.165
11
250.101
21
-255.937
0
LINE
8
BLACK
6
CONTINUOUS
10
250.101
20
-255.937
11
250.257
21
-255.727
0
LINE
8
BLACK
6
CONTINUOUS
10
250.257
20
-255.727
11
250.44
21
-255.539
0
LINE
8
BLACK
6
CONTINUOUS
10
250.44
20
-255.539
11
250.646
21
-255.376
0
LINE
8
BLACK
6
CONTINUOUS
10
250.646
20
-255.376
11
250.872
21
-255.242
0
LINE
8
BLACK
6
CONTINUOUS
10
250.872
20
-255.242
11
251.112
21
-255.139
0
LINE
8
BLACK
6
CONTINUOUS
10
251.112
20
-255.139
11
251.365
21
-255.068
0
LINE
8
BLACK
6
CONTINUOUS
10
251.365
20
-255.068
11
251.366
21
-255.072
0
LINE
8
BLACK
6
CONTINUOUS
10
251.366
20
-255.072
11
256.755
21
-253.926
0
LINE
8
BLACK
6
CONTINUOUS
10
256.755
20
-253.926
11
256.755
21
-253.926
0
LINE
8
BLACK
6
CONTINUOUS
10
256.755
20
-253.926
11
256.755
21
-253.926
0
LINE
8
BLACK
6
CONTINUOUS
10
258.296
20
-251.554
11
255.162
21
-236.813
0
LINE
8
BLACK
6
CONTINUOUS
10
255.162
20
-236.813
11
255.162
21
-236.813
0
LINE
8
BLACK
6
CONTINUOUS
10
255.162
20
-236.813
11
255.162
21
-236.813
0
LINE
8
BLACK
6
CONTINUOUS
10
255.162
20
-236.813
11
255.162
21
-236.813
0
LINE
8
BLACK
6
CONTINUOUS
10
255.162
20
-236.813
11
255.163
21
-236.813
0
LINE
8
BLACK
6
CONTINUOUS
10
255.163
20
-236.813
11
258.296
21
-251.554
0
LINE
8
BLACK
6
CONTINUOUS
10
258.296
20
-251.554
11
258.3
21
-251.553
0
LINE
8
BLACK
6
CONTINUOUS
10
258.3
20
-251.553
11
258.337
21
-251.813
0
LINE
8
BLACK
6
CONTINUOUS
10
258.337
20
-251.813
11
258.341
21
-252.075
0
LINE
8
BLACK
6
CONTINUOUS
10
258.341
20
-252.075
11
258.31
21
-252.335
0
LINE
8
BLACK
6
CONTINUOUS
10
258.31
20
-252.335
11
258.246
21
-252.589
0
LINE
8
BLACK
6
CONTINUOUS
10
258.246
20
-252.589
11
258.148
21
-252.833
0
LINE
8
BLACK
6
CONTINUOUS
10
258.148
20
-252.833
11
258.02
21
-253.062
0
LINE
8
BLACK
6
CONTINUOUS
10
258.02
20
-253.062
11
257.863
21
-253.272
0
LINE
8
BLACK
6
CONTINUOUS
10
257.863
20
-253.272
11
257.681
21
-253.459
0
LINE
8
BLACK
6
CONTINUOUS
10
257.681
20
-253.459
11
257.475
21
-253.622
0
LINE
8
BLACK
6
CONTINUOUS
10
257.475
20
-253.622
11
257.249
21
-253.756
0
LINE
8
BLACK
6
CONTINUOUS
10
257.249
20
-253.756
11
257.008
21
-253.859
0
LINE
8
BLACK
6
CONTINUOUS
10
257.008
20
-253.859
11
256.756
21
-253.93
0
LINE
8
BLACK
6
CONTINUOUS
10
256.756
20
-253.93
11
256.755
21
-253.926
0
LINE
8
BLACK
6
CONTINUOUS
10
256.755
20
-253.926
11
257.007
21
-253.855
0
LINE
8
BLACK
6
CONTINUOUS
10
257.007
20
-253.855
11
257.247
21
-253.752
0
LINE
8
BLACK
6
CONTINUOUS
10
257.247
20
-253.752
11
257.472
21
-253.618
0
LINE
8
BLACK
6
CONTINUOUS
10
257.472
20
-253.618
11
257.678
21
-253.456
0
LINE
8
BLACK
6
CONTINUOUS
10
257.678
20
-253.456
11
257.86
21
-253.269
0
LINE
8
BLACK
6
CONTINUOUS
10
257.86
20
-253.269
11
258.017
21
-253.059
0
LINE
8
BLACK
6
CONTINUOUS
10
258.017
20
-253.059
11
258.145
21
-252.831
0
LINE
8
BLACK
6
CONTINUOUS
10
258.145
20
-252.831
11
258.242
21
-252.588
0
LINE
8
BLACK
6
CONTINUOUS
10
258.242
20
-252.588
11
258.306
21
-252.334
0
LINE
8
BLACK
6
CONTINUOUS
10
258.306
20
-252.334
11
258.337
21
-252.075
0
LINE
8
BLACK
6
CONTINUOUS
10
258.337
20
-252.075
11
258.333
21
-251.813
0
LINE
8
BLACK
6
CONTINUOUS
10
258.333
20
-251.813
11
258.296
21
-251.554
0
LINE
8
BLACK
6
CONTINUOUS
10
258.296
20
-251.554
11
258.296
21
-251.554
0
LINE
8
BLACK
6
CONTINUOUS
10
258.296
20
-251.554
11
258.296
21
-251.554
0
LINE
8
BLACK
6
CONTINUOUS
10
258.296
20
-251.554
11
258.296
21
-251.554
0
LINE
8
BLACK
6
CONTINUOUS
10
258.296
20
-251.554
11
258.296
21
-251.554
0
LINE
8
BLACK
6
CONTINUOUS
10
256.703
20
-234.441
11
256.451
21
-234.512
0
LINE
8
BLACK
6
CONTINUOUS
10
256.451
20
-234.512
11
256.211
21
-234.616
0
LINE
8
BLACK
6
CONTINUOUS
10
256.211
20
-234.616
11
255.986
21
-234.749
0
LINE
8
BLACK
6
CONTINUOUS
10
255.986
20
-234.749
11
255.78
21
-234.911
0
LINE
8
BLACK
6
CONTINUOUS
10
255.78
20
-234.911
11
255.598
21
-235.099
0
LINE
8
BLACK
6
CONTINUOUS
10
255.598
20
-235.099
11
255.441
21
-235.308
0
LINE
8
BLACK
6
CONTINUOUS
10
255.441
20
-235.308
11
255.314
21
-235.537
0
LINE
8
BLACK
6
CONTINUOUS
10
255.314
20
-235.537
11
255.217
21
-235.78
0
LINE
8
BLACK
6
CONTINUOUS
10
255.217
20
-235.78
11
255.152
21
-236.033
0
LINE
8
BLACK
6
CONTINUOUS
10
255.152
20
-236.033
11
255.121
21
-236.293
0
LINE
8
BLACK
6
CONTINUOUS
10
255.121
20
-236.293
11
255.125
21
-236.555
0
LINE
8
BLACK
6
CONTINUOUS
10
255.125
20
-236.555
11
255.162
21
-236.813
0
LINE
8
BLACK
6
CONTINUOUS
10
255.162
20
-236.813
11
255.158
21
-236.814
0
LINE
8
BLACK
6
CONTINUOUS
10
255.158
20
-236.814
11
255.121
21
-236.555
0
LINE
8
BLACK
6
CONTINUOUS
10
255.121
20
-236.555
11
255.117
21
-236.293
0
LINE
8
BLACK
6
CONTINUOUS
10
255.117
20
-236.293
11
255.148
21
-236.032
0
LINE
8
BLACK
6
CONTINUOUS
10
255.148
20
-236.032
11
255.213
21
-235.778
0
LINE
8
BLACK
6
CONTINUOUS
10
255.213
20
-235.778
11
255.31
21
-235.535
0
LINE
8
BLACK
6
CONTINUOUS
10
255.31
20
-235.535
11
255.438
21
-235.306
0
LINE
8
BLACK
6
CONTINUOUS
10
255.438
20
-235.306
11
255.595
21
-235.096
0
LINE
8
BLACK
6
CONTINUOUS
10
255.595
20
-235.096
11
255.778
21
-234.908
0
LINE
8
BLACK
6
CONTINUOUS
10
255.778
20
-234.908
11
255.984
21
-234.746
0
LINE
8
BLACK
6
CONTINUOUS
10
255.984
20
-234.746
11
256.209
21
-234.612
0
LINE
8
BLACK
6
CONTINUOUS
10
256.209
20
-234.612
11
256.45
21
-234.508
0
LINE
8
BLACK
6
CONTINUOUS
10
256.45
20
-234.508
11
256.702
21
-234.437
0
LINE
8
BLACK
6
CONTINUOUS
10
256.702
20
-234.437
11
256.703
21
-234.441
0
LINE
8
BLACK
6
CONTINUOUS
10
64.5
20
-211.5
11
64.5
21
-211.5
0
LINE
8
BLACK
6
CONTINUOUS
10
64.5
20
-211.5
11
64.4999
21
-211.5
0
LINE
8
BLACK
6
CONTINUOUS
10
64.4999
20
-211.5
11
64.5
21
-211.5
0
LINE
8
BLACK
6
CONTINUOUS
10
64.5
20
-211.5
11
64.5
21
-211.5
0
LINE
8
BLACK
6
CONTINUOUS
10
64.5
20
-211.5
11
71.36
21
-211.5
0
LINE
8
BLACK
6
CONTINUOUS
10
71.36
20
-211.5
11
71.36
21
-211.5
0
LINE
8
BLACK
6
CONTINUOUS
10
71.36
20
-211.5
11
71.36
21
-211.5
0
LINE
8
BLACK
6
CONTINUOUS
10
71.36
20
-211.5
11
179.422
21
-234.468
0
LINE
8
BLACK
6
CONTINUOUS
10
179.422
20
-234.468
11
179.422
21
-234.468
0
LINE
8
BLACK
6
CONTINUOUS
10
179.422
20
-234.468
11
179.422
21
-234.468
0
LINE
8
BLACK
6
CONTINUOUS
10
179.422
20
-234.468
11
179.422
21
-234.468
0
LINE
8
BLACK
6
CONTINUOUS
10
179.422
20
-234.468
11
179.422
21
-234.468
0
LINE
8
BLACK
6
CONTINUOUS
10
179.422
20
-234.468
11
71.36
21
-211.5
0
LINE
8
BLACK
6
CONTINUOUS
10
71.36
20
-211.5
11
64.5
21
-211.5
0
LINE
8
BLACK
6
CONTINUOUS
10
256.703
20
-234.441
11
256.703
21
-234.441
0
LINE
8
BLACK
6
CONTINUOUS
10
256.703
20
-234.441
11
256.703
21
-234.441
0
LINE
8
BLACK
6
CONTINUOUS
10
256.703
20
-234.441
11
256.703
21
-234.441
0
LINE
8
BLACK
6
CONTINUOUS
10
256.703
20
-234.441
11
256.703
21
-234.441
0
LINE
8
BLACK
6
CONTINUOUS
10
256.703
20
-234.441
11
364.64
21
-211.5
0
LINE
8
BLACK
6
CONTINUOUS
10
364.64
20
-211.5
11
364.64
21
-211.5
0
LINE
8
BLACK
6
CONTINUOUS
10
364.64
20
-211.5
11
364.64
21
-211.5
0
LINE
8
BLACK
6
CONTINUOUS
10
364.64
20
-211.5
11
371.64
21
-211.5
0
LINE
8
BLACK
6
CONTINUOUS
10
371.64
20
-211.5
11
371.64
21
-211.5
0
LINE
8
BLACK
6
CONTINUOUS
10
371.64
20
-211.5
11
371.64
21
-211.5
0
LINE
8
BLACK
6
CONTINUOUS
10
371.64
20
-211.5
11
371.64
21
-211.5
0
LINE
8
BLACK
6
CONTINUOUS
10
371.64
20
-211.5
11
371.64
21
-211.5
0
LINE
8
BLACK
6
CONTINUOUS
10
371.64
20
-211.5
11
364.64
21
-211.5
0
LINE
8
BLACK
6
CONTINUOUS
10
364.64
20
-211.5
11
256.703
21
-234.441
0
LINE
8
BLACK
6
CONTINUOUS
10
418.015
20
-213.674
11
418.06
21
-213.842
0
LINE
8
BLACK
6
CONTINUOUS
10
418.06
20
-213.842
11
418.134
21
-214
0
LINE
8
BLACK
6
CONTINUOUS
10
418.134
20
-214
11
418.234
21
-214.143
0
LINE
8
BLACK
6
CONTINUOUS
10
418.234
20
-214.143
11
418.357
21
-214.266
0
LINE
8
BLACK
6
CONTINUOUS
10
418.357
20
-214.266
11
418.5
21
-214.366
0
LINE
8
BLACK
6
CONTINUOUS
10
418.5
20
-214.366
11
418.658
21
-214.44
0
LINE
8
BLACK
6
CONTINUOUS
10
418.658
20
-214.44
11
418.826
21
-214.485
0
LINE
8
BLACK
6
CONTINUOUS
10
418.826
20
-214.485
11
419
21
-214.5
0
LINE
8
BLACK
6
CONTINUOUS
10
419
20
-214.5
11
419
21
-214.504
0
LINE
8
BLACK
6
CONTINUOUS
10
419
20
-214.504
11
418.826
21
-214.489
0
LINE
8
BLACK
6
CONTINUOUS
10
418.826
20
-214.489
11
418.657
21
-214.443
0
LINE
8
BLACK
6
CONTINUOUS
10
418.657
20
-214.443
11
418.498
21
-214.369
0
LINE
8
BLACK
6
CONTINUOUS
10
418.498
20
-214.369
11
418.355
21
-214.269
0
LINE
8
BLACK
6
CONTINUOUS
10
418.355
20
-214.269
11
418.231
21
-214.145
0
LINE
8
BLACK
6
CONTINUOUS
10
418.231
20
-214.145
11
418.131
21
-214.002
0
LINE
8
BLACK
6
CONTINUOUS
10
418.131
20
-214.002
11
418.057
21
-213.843
0
LINE
8
BLACK
6
CONTINUOUS
10
418.057
20
-213.843
11
418.011
21
-213.674
0
LINE
8
BLACK
6
CONTINUOUS
10
418.011
20
-213.674
11
417.996
21
-213.5
0
LINE
8
BLACK
6
CONTINUOUS
10
417.996
20
-213.5
11
418
21
-213.5
0
LINE
8
BLACK
6
CONTINUOUS
10
418
20
-213.5
11
418.015
21
-213.674
0
LINE
8
BLACK
6
CONTINUOUS
10
22.9885
20
-213.674
11
22.9432
21
-213.843
0
LINE
8
BLACK
6
CONTINUOUS
10
22.9432
20
-213.843
11
22.8693
21
-214.002
0
LINE
8
BLACK
6
CONTINUOUS
10
22.8693
20
-214.002
11
22.7689
21
-214.145
0
LINE
8
BLACK
6
CONTINUOUS
10
22.7689
20
-214.145
11
22.6452
21
-214.269
0
LINE
8
BLACK
6
CONTINUOUS
10
22.6452
20
-214.269
11
22.5019
21
-214.369
0
LINE
8
BLACK
6
CONTINUOUS
10
22.5019
20
-214.369
11
22.3433
21
-214.443
0
LINE
8
BLACK
6
CONTINUOUS
10
22.3433
20
-214.443
11
22.1743
21
-214.489
0
LINE
8
BLACK
6
CONTINUOUS
10
22.1743
20
-214.489
11
22
21
-214.504
0
LINE
8
BLACK
6
CONTINUOUS
10
22
20
-214.504
11
22
21
-214.5
0
LINE
8
BLACK
6
CONTINUOUS
10
22
20
-214.5
11
22.1737
21
-214.485
0
LINE
8
BLACK
6
CONTINUOUS
10
22.1737
20
-214.485
11
22.342
21
-214.44
0
LINE
8
BLACK
6
CONTINUOUS
10
22.342
20
-214.44
11
22.5
21
-214.366
0
LINE
8
BLACK
6
CONTINUOUS
10
22.5
20
-214.366
11
22.6428
21
-214.266
0
LINE
8
BLACK
6
CONTINUOUS
10
22.6428
20
-214.266
11
22.7661
21
-214.143
0
LINE
8
BLACK
6
CONTINUOUS
10
22.7661
20
-214.143
11
22.8661
21
-214
0
LINE
8
BLACK
6
CONTINUOUS
10
22.8661
20
-214
11
22.9397
21
-213.842
0
LINE
8
BLACK
6
CONTINUOUS
10
22.9397
20
-213.842
11
22.9849
21
-213.674
0
LINE
8
BLACK
6
CONTINUOUS
10
22.9849
20
-213.674
11
23
21
-213.5
0
LINE
8
BLACK
6
CONTINUOUS
10
23
20
-213.5
11
23.0038
21
-213.5
0
LINE
8
BLACK
6
CONTINUOUS
10
23.0038
20
-213.5
11
22.9885
21
-213.674
0
LINE
8
BLACK
6
CONTINUOUS
10
372.655
20
-212.674
11
372.7
21
-212.842
0
LINE
8
BLACK
6
CONTINUOUS
10
372.7
20
-212.842
11
372.774
21
-213
0
LINE
8
BLACK
6
CONTINUOUS
10
372.774
20
-213
11
372.874
21
-213.143
0
LINE
8
BLACK
6
CONTINUOUS
10
372.874
20
-213.143
11
372.997
21
-213.266
0
LINE
8
BLACK
6
CONTINUOUS
10
372.997
20
-213.266
11
373.14
21
-213.366
0
LINE
8
BLACK
6
CONTINUOUS
10
373.14
20
-213.366
11
373.298
21
-213.44
0
LINE
8
BLACK
6
CONTINUOUS
10
373.298
20
-213.44
11
373.466
21
-213.485
0
LINE
8
BLACK
6
CONTINUOUS
10
373.466
20
-213.485
11
373.64
21
-213.5
0
LINE
8
BLACK
6
CONTINUOUS
10
373.64
20
-213.5
11
373.64
21
-213.504
0
LINE
8
BLACK
6
CONTINUOUS
10
373.64
20
-213.504
11
373.466
21
-213.489
0
LINE
8
BLACK
6
CONTINUOUS
10
373.466
20
-213.489
11
373.297
21
-213.443
0
LINE
8
BLACK
6
CONTINUOUS
10
373.297
20
-213.443
11
373.138
21
-213.369
0
LINE
8
BLACK
6
CONTINUOUS
10
373.138
20
-213.369
11
372.995
21
-213.269
0
LINE
8
BLACK
6
CONTINUOUS
10
372.995
20
-213.269
11
372.871
21
-213.145
0
LINE
8
BLACK
6
CONTINUOUS
10
372.871
20
-213.145
11
372.771
21
-213.002
0
LINE
8
BLACK
6
CONTINUOUS
10
372.771
20
-213.002
11
372.697
21
-212.843
0
LINE
8
BLACK
6
CONTINUOUS
10
372.697
20
-212.843
11
372.651
21
-212.674
0
LINE
8
BLACK
6
CONTINUOUS
10
372.651
20
-212.674
11
372.636
21
-212.5
0
LINE
8
BLACK
6
CONTINUOUS
10
372.636
20
-212.5
11
372.64
21
-212.5
0
LINE
8
BLACK
6
CONTINUOUS
10
372.64
20
-212.5
11
372.655
21
-212.674
0
LINE
8
BLACK
6
CONTINUOUS
10
46.5151
20
-212.674
11
46.5603
21
-212.842
0
LINE
8
BLACK
6
CONTINUOUS
10
46.5603
20
-212.842
11
46.6339
21
-213
0
LINE
8
BLACK
6
CONTINUOUS
10
46.6339
20
-213
11
46.7339
21
-213.143
0
LINE
8
BLACK
6
CONTINUOUS
10
46.7339
20
-213.143
11
46.8572
21
-213.266
0
LINE
8
BLACK
6
CONTINUOUS
10
46.8572
20
-213.266
11
47
21
-213.366
0
LINE
8
BLACK
6
CONTINUOUS
10
47
20
-213.366
11
47.158
21
-213.44
0
LINE
8
BLACK
6
CONTINUOUS
10
47.158
20
-213.44
11
47.3263
21
-213.485
0
LINE
8
BLACK
6
CONTINUOUS
10
47.3263
20
-213.485
11
47.5
21
-213.5
0
LINE
8
BLACK
6
CONTINUOUS
10
47.5
20
-213.5
11
47.5
21
-213.504
0
LINE
8
BLACK
6
CONTINUOUS
10
47.5
20
-213.504
11
47.3257
21
-213.489
0
LINE
8
BLACK
6
CONTINUOUS
10
47.3257
20
-213.489
11
47.1567
21
-213.443
0
LINE
8
BLACK
6
CONTINUOUS
10
47.1567
20
-213.443
11
46.9981
21
-213.369
0
LINE
8
BLACK
6
CONTINUOUS
10
46.9981
20
-213.369
11
46.8548
21
-213.269
0
LINE
8
BLACK
6
CONTINUOUS
10
46.8548
20
-213.269
11
46.7311
21
-213.145
0
LINE
8
BLACK
6
CONTINUOUS
10
46.7311
20
-213.145
11
46.6307
21
-213.002
0
LINE
8
BLACK
6
CONTINUOUS
10
46.6307
20
-213.002
11
46.5568
21
-212.843
0
LINE
8
BLACK
6
CONTINUOUS
10
46.5568
20
-212.843
11
46.5115
21
-212.674
0
LINE
8
BLACK
6
CONTINUOUS
10
46.5115
20
-212.674
11
46.4962
21
-212.5
0
LINE
8
BLACK
6
CONTINUOUS
10
46.4962
20
-212.5
11
46.4999
21
-212.5
0
LINE
8
BLACK
6
CONTINUOUS
10
46.4999
20
-212.5
11
46.5151
21
-212.674
0
LINE
8
BLACK
6
CONTINUOUS
10
63.4885
20
-212.674
11
63.4432
21
-212.843
0
LINE
8
BLACK
6
CONTINUOUS
10
63.4432
20
-212.843
11
63.3693
21
-213.002
0
LINE
8
BLACK
6
CONTINUOUS
10
63.3693
20
-213.002
11
63.2689
21
-213.145
0
LINE
8
BLACK
6
CONTINUOUS
10
63.2689
20
-213.145
11
63.1452
21
-213.269
0
LINE
8
BLACK
6
CONTINUOUS
10
63.1452
20
-213.269
11
63.0019
21
-213.369
0
LINE
8
BLACK
6
CONTINUOUS
10
63.0019
20
-213.369
11
62.8433
21
-213.443
0
LINE
8
BLACK
6
CONTINUOUS
10
62.8433
20
-213.443
11
62.6743
21
-213.489
0
LINE
8
BLACK
6
CONTINUOUS
10
62.6743
20
-213.489
11
62.5
21
-213.504
0
LINE
8
BLACK
6
CONTINUOUS
10
62.5
20
-213.504
11
62.5
21
-213.5
0
LINE
8
BLACK
6
CONTINUOUS
10
62.5
20
-213.5
11
62.6737
21
-213.485
0
LINE
8
BLACK
6
CONTINUOUS
10
62.6737
20
-213.485
11
62.842
21
-213.44
0
LINE
8
BLACK
6
CONTINUOUS
10
62.842
20
-213.44
11
63
21
-213.366
0
LINE
8
BLACK
6
CONTINUOUS
10
63
20
-213.366
11
63.1428
21
-213.266
0
LINE
8
BLACK
6
CONTINUOUS
10
63.1428
20
-213.266
11
63.2661
21
-213.143
0
LINE
8
BLACK
6
CONTINUOUS
10
63.2661
20
-213.143
11
63.3661
21
-213
0
LINE
8
BLACK
6
CONTINUOUS
10
63.3661
20
-213
11
63.4397
21
-212.842
0
LINE
8
BLACK
6
CONTINUOUS
10
63.4397
20
-212.842
11
63.4849
21
-212.674
0
LINE
8
BLACK
6
CONTINUOUS
10
63.4849
20
-212.674
11
63.5
21
-212.5
0
LINE
8
BLACK
6
CONTINUOUS
10
63.5
20
-212.5
11
63.5038
21
-212.5
0
LINE
8
BLACK
6
CONTINUOUS
10
63.5038
20
-212.5
11
63.4885
21
-212.674
0
LINE
8
BLACK
6
CONTINUOUS
10
373.64
20
-213.5
11
373.64
21
-213.5
0
LINE
8
BLACK
6
CONTINUOUS
10
373.64
20
-213.5
11
373.64
21
-213.5
0
LINE
8
BLACK
6
CONTINUOUS
10
373.64
20
-213.5
11
373.64
21
-213.5
0
LINE
8
BLACK
6
CONTINUOUS
10
373.64
20
-213.5
11
388.64
21
-213.5
0
LINE
8
BLACK
6
CONTINUOUS
10
388.64
20
-213.5
11
388.64
21
-213.5
0
LINE
8
BLACK
6
CONTINUOUS
10
388.64
20
-213.5
11
388.64
21
-213.5
0
LINE
8
BLACK
6
CONTINUOUS
10
388.64
20
-213.5
11
388.64
21
-213.5
0
LINE
8
BLACK
6
CONTINUOUS
10
388.64
20
-213.5
11
388.64
21
-213.5
0
LINE
8
BLACK
6
CONTINUOUS
10
388.64
20
-213.5
11
388.814
21
-213.485
0
LINE
8
BLACK
6
CONTINUOUS
10
388.814
20
-213.485
11
388.982
21
-213.44
0
LINE
8
BLACK
6
CONTINUOUS
10
388.982
20
-213.44
11
389.14
21
-213.366
0
LINE
8
BLACK
6
CONTINUOUS
10
389.14
20
-213.366
11
389.283
21
-213.266
0
LINE
8
BLACK
6
CONTINUOUS
10
389.283
20
-213.266
11
389.406
21
-213.143
0
LINE
8
BLACK
6
CONTINUOUS
10
389.406
20
-213.143
11
389.506
21
-213
0
LINE
8
BLACK
6
CONTINUOUS
10
389.506
20
-213
11
389.58
21
-212.842
0
LINE
8
BLACK
6
CONTINUOUS
10
389.58
20
-212.842
11
389.625
21
-212.674
0
LINE
8
BLACK
6
CONTINUOUS
10
389.625
20
-212.674
11
389.64
21
-212.5
0
LINE
8
BLACK
6
CONTINUOUS
10
389.64
20
-212.5
11
389.644
21
-212.5
0
LINE
8
BLACK
6
CONTINUOUS
10
389.644
20
-212.5
11
389.629
21
-212.674
0
LINE
8
BLACK
6
CONTINUOUS
10
389.629
20
-212.674
11
389.583
21
-212.843
0
LINE
8
BLACK
6
CONTINUOUS
10
389.583
20
-212.843
11
389.509
21
-213.002
0
LINE
8
BLACK
6
CONTINUOUS
10
389.509
20
-213.002
11
389.409
21
-213.145
0
LINE
8
BLACK
6
CONTINUOUS
10
389.409
20
-213.145
11
389.285
21
-213.269
0
LINE
8
BLACK
6
CONTINUOUS
10
389.285
20
-213.269
11
389.142
21
-213.369
0
LINE
8
BLACK
6
CONTINUOUS
10
389.142
20
-213.369
11
388.983
21
-213.443
0
LINE
8
BLACK
6
CONTINUOUS
10
388.983
20
-213.443
11
388.814
21
-213.489
0
LINE
8
BLACK
6
CONTINUOUS
10
388.814
20
-213.489
11
388.64
21
-213.504
0
LINE
8
BLACK
6
CONTINUOUS
10
388.64
20
-213.504
11
388.64
21
-213.5
0
LINE
8
BLACK
6
CONTINUOUS
10
388.64
20
-213.5
11
373.64
21
-213.5
0
LINE
8
BLACK
6
CONTINUOUS
10
373.64
20
-213.5
11
373.64
21
-213.5
0
LINE
8
BLACK
6
CONTINUOUS
10
418
20
-213.5
11
418
21
-213.5
0
LINE
8
BLACK
6
CONTINUOUS
10
418
20
-213.5
11
418
21
-213.5
0
LINE
8
BLACK
6
CONTINUOUS
10
418
20
-213.5
11
418
21
-213.5
0
LINE
8
BLACK
6
CONTINUOUS
10
418
20
-213.5
11
418
21
-213.5
0
LINE
8
BLACK
6
CONTINUOUS
10
418
20
-213.5
11
418
21
-213.5
0
LINE
8
BLACK
6
CONTINUOUS
10
418
20
-213.5
11
418
21
-213.5
0
LINE
8
BLACK
6
CONTINUOUS
10
418
20
-213.5
11
418
21
-213.5
0
LINE
8
BLACK
6
CONTINUOUS
10
418
20
-213.5
11
418
21
-213.5
0
LINE
8
BLACK
6
CONTINUOUS
10
47.5
20
-213.5
11
47.4999
21
-213.5
0
LINE
8
BLACK
6
CONTINUOUS
10
47.4999
20
-213.5
11
47.5
21
-213.5
0
LINE
8
BLACK
6
CONTINUOUS
10
47.5
20
-213.5
11
47.5
21
-213.5
0
LINE
8
BLACK
6
CONTINUOUS
10
47.5
20
-213.5
11
62.5
21
-213.5
0
LINE
8
BLACK
6
CONTINUOUS
10
62.5
20
-213.5
11
62.5
21
-213.5
0
LINE
8
BLACK
6
CONTINUOUS
10
62.5
20
-213.5
11
62.5
21
-213.5
0
LINE
8
BLACK
6
CONTINUOUS
10
62.5
20
-213.5
11
62.5
21
-213.5
0
LINE
8
BLACK
6
CONTINUOUS
10
62.5
20
-213.5
11
62.5
21
-213.5
0
LINE
8
BLACK
6
CONTINUOUS
10
62.5
20
-213.5
11
47.5
21
-213.5
0
LINE
8
BLACK
6
CONTINUOUS
10
47.5
20
-213.5
11
47.5
21
-213.5
0
LINE
8
BLACK
6
CONTINUOUS
10
23
20
-213.5
11
23
21
-213.5
0
LINE
8
BLACK
6
CONTINUOUS
10
23
20
-213.5
11
23
21
-213.5
0
LINE
8
BLACK
6
CONTINUOUS
10
23
20
-213.5
11
23
21
-213.5
0
LINE
8
BLACK
6
CONTINUOUS
10
23
20
-213.5
11
23
21
-213.5
0
LINE
8
BLACK
6
CONTINUOUS
10
23
20
-213.5
11
22.9999
21
-213.5
0
LINE
8
BLACK
6
CONTINUOUS
10
22.9999
20
-213.5
11
23
21
-213.5
0
LINE
8
BLACK
6
CONTINUOUS
10
23
20
-213.5
11
23
21
-213.5
0
LINE
8
BLACK
6
CONTINUOUS
10
23
20
-213.5
11
23
21
-213.5
0
LINE
8
BLACK
6
CONTINUOUS
10
416.262
20
-211.513
11
416.519
21
-211.564
0
LINE
8
BLACK
6
CONTINUOUS
10
416.519
20
-211.564
11
416.767
21
-211.648
0
LINE
8
BLACK
6
CONTINUOUS
10
416.767
20
-211.648
11
417.002
21
-211.764
0
LINE
8
BLACK
6
CONTINUOUS
10
417.002
20
-211.764
11
417.22
21
-211.91
0
LINE
8
BLACK
6
CONTINUOUS
10
417.22
20
-211.91
11
417.417
21
-212.083
0
LINE
8
BLACK
6
CONTINUOUS
10
417.417
20
-212.083
11
417.59
21
-212.28
0
LINE
8
BLACK
6
CONTINUOUS
10
417.59
20
-212.28
11
417.736
21
-212.498
0
LINE
8
BLACK
6
CONTINUOUS
10
417.736
20
-212.498
11
417.852
21
-212.733
0
LINE
8
BLACK
6
CONTINUOUS
10
417.852
20
-212.733
11
417.936
21
-212.981
0
LINE
8
BLACK
6
CONTINUOUS
10
417.936
20
-212.981
11
417.987
21
-213.238
0
LINE
8
BLACK
6
CONTINUOUS
10
417.987
20
-213.238
11
418.004
21
-213.5
0
LINE
8
BLACK
6
CONTINUOUS
10
418.004
20
-213.5
11
418
21
-213.5
0
LINE
8
BLACK
6
CONTINUOUS
10
418
20
-213.5
11
417.983
21
-213.239
0
LINE
8
BLACK
6
CONTINUOUS
10
417.983
20
-213.239
11
417.932
21
-212.982
0
LINE
8
BLACK
6
CONTINUOUS
10
417.932
20
-212.982
11
417.848
21
-212.735
0
LINE
8
BLACK
6
CONTINUOUS
10
417.848
20
-212.735
11
417.732
21
-212.5
0
LINE
8
BLACK
6
CONTINUOUS
10
417.732
20
-212.5
11
417.587
21
-212.282
0
LINE
8
BLACK
6
CONTINUOUS
10
417.587
20
-212.282
11
417.414
21
-212.086
0
LINE
8
BLACK
6
CONTINUOUS
10
417.414
20
-212.086
11
417.218
21
-211.913
0
LINE
8
BLACK
6
CONTINUOUS
10
417.218
20
-211.913
11
417
21
-211.768
0
LINE
8
BLACK
6
CONTINUOUS
10
417
20
-211.768
11
416.765
21
-211.652
0
LINE
8
BLACK
6
CONTINUOUS
10
416.765
20
-211.652
11
416.518
21
-211.568
0
LINE
8
BLACK
6
CONTINUOUS
10
416.518
20
-211.568
11
416.261
21
-211.517
0
LINE
8
BLACK
6
CONTINUOUS
10
416.261
20
-211.517
11
416
21
-211.5
0
LINE
8
BLACK
6
CONTINUOUS
10
416
20
-211.5
11
416
21
-211.496
0
LINE
8
BLACK
6
CONTINUOUS
10
416
20
-211.496
11
416.262
21
-211.513
0
LINE
8
BLACK
6
CONTINUOUS
10
25
20
-211.5
11
24.7389
21
-211.517
0
LINE
8
BLACK
6
CONTINUOUS
10
24.7389
20
-211.517
11
24.4823
21
-211.568
0
LINE
8
BLACK
6
CONTINUOUS
10
24.4823
20
-211.568
11
24.2346
21
-211.652
0
LINE
8
BLACK
6
CONTINUOUS
10
24.2346
20
-211.652
11
24
21
-211.768
0
LINE
8
BLACK
6
CONTINUOUS
10
24
20
-211.768
11
23.7824
21
-211.913
0
LINE
8
BLACK
6
CONTINUOUS
10
23.7824
20
-211.913
11
23.5858
21
-212.086
0
LINE
8
BLACK
6
CONTINUOUS
10
23.5858
20
-212.086
11
23.4133
21
-212.282
0
LINE
8
BLACK
6
CONTINUOUS
10
23.4133
20
-212.282
11
23.2679
21
-212.5
0
LINE
8
BLACK
6
CONTINUOUS
10
23.2679
20
-212.5
11
23.1522
21
-212.735
0
LINE
8
BLACK
6
CONTINUOUS
10
23.1522
20
-212.735
11
23.0681
21
-212.982
0
LINE
8
BLACK
6
CONTINUOUS
10
23.0681
20
-212.982
11
23.0171
21
-213.239
0
LINE
8
BLACK
6
CONTINUOUS
10
23.0171
20
-213.239
11
22.9999
21
-213.5
0
LINE
8
BLACK
6
CONTINUOUS
10
22.9999
20
-213.5
11
22.9958
21
-213.5
0
LINE
8
BLACK
6
CONTINUOUS
10
22.9958
20
-213.5
11
23.0129
21
-213.238
0
LINE
8
BLACK
6
CONTINUOUS
10
23.0129
20
-213.238
11
23.0641
21
-212.981
0
LINE
8
BLACK
6
CONTINUOUS
10
23.0641
20
-212.981
11
23.1483
21
-212.733
0
LINE
8
BLACK
6
CONTINUOUS
10
23.1483
20
-212.733
11
23.2643
21
-212.498
0
LINE
8
BLACK
6
CONTINUOUS
10
23.2643
20
-212.498
11
23.4099
21
-212.28
0
LINE
8
BLACK
6
CONTINUOUS
10
23.4099
20
-212.28
11
23.5828
21
-212.083
0
LINE
8
BLACK
6
CONTINUOUS
10
23.5828
20
-212.083
11
23.7799
21
-211.91
0
LINE
8
BLACK
6
CONTINUOUS
10
23.7799
20
-211.91
11
23.9979
21
-211.764
0
LINE
8
BLACK
6
CONTINUOUS
10
23.9979
20
-211.764
11
24.233
21
-211.648
0
LINE
8
BLACK
6
CONTINUOUS
10
24.233
20
-211.648
11
24.4813
21
-211.564
0
LINE
8
BLACK
6
CONTINUOUS
10
24.4813
20
-211.564
11
24.7384
21
-211.513
0
LINE
8
BLACK
6
CONTINUOUS
10
24.7384
20
-211.513
11
25
21
-211.496
0
LINE
8
BLACK
6
CONTINUOUS
10
25
20
-211.496
11
25
21
-211.5
0
LINE
8
BLACK
6
CONTINUOUS
10
372.64
20
-212.5
11
372.64
21
-212.5
0
LINE
8
BLACK
6
CONTINUOUS
10
372.64
20
-212.5
11
372.64
21
-212.5
0
LINE
8
BLACK
6
CONTINUOUS
10
372.64
20
-212.5
11
372.64
21
-212.5
0
LINE
8
BLACK
6
CONTINUOUS
10
372.64
20
-212.5
11
372.64
21
-212.5
0
LINE
8
BLACK
6
CONTINUOUS
10
372.64
20
-212.5
11
372.64
21
-212.5
0
LINE
8
BLACK
6
CONTINUOUS
10
372.64
20
-212.5
11
372.64
21
-212.5
0
LINE
8
BLACK
6
CONTINUOUS
10
372.64
20
-212.5
11
372.64
21
-212.5
0
LINE
8
BLACK
6
CONTINUOUS
10
372.64
20
-212.5
11
372.64
21
-212.5
0
LINE
8
BLACK
6
CONTINUOUS
10
389.64
20
-212.5
11
389.64
21
-212.5
0
LINE
8
BLACK
6
CONTINUOUS
10
389.64
20
-212.5
11
389.64
21
-212.5
0
LINE
8
BLACK
6
CONTINUOUS
10
389.64
20
-212.5
11
389.64
21
-212.5
0
LINE
8
BLACK
6
CONTINUOUS
10
389.64
20
-212.5
11
389.64
21
-212.5
0
LINE
8
BLACK
6
CONTINUOUS
10
389.64
20
-212.5
11
389.64
21
-212.5
0
LINE
8
BLACK
6
CONTINUOUS
10
389.64
20
-212.5
11
389.64
21
-212.5
0
LINE
8
BLACK
6
CONTINUOUS
10
389.64
20
-212.5
11
389.64
21
-212.5
0
LINE
8
BLACK
6
CONTINUOUS
10
389.64
20
-212.5
11
389.64
21
-212.5
0
LINE
8
BLACK
6
CONTINUOUS
10
63.5
20
-212.5
11
63.5
21
-212.5
0
LINE
8
BLACK
6
CONTINUOUS
10
63.5
20
-212.5
11
63.5
21
-212.5
0
LINE
8
BLACK
6
CONTINUOUS
10
63.5
20
-212.5
11
63.5
21
-212.5
0
LINE
8
BLACK
6
CONTINUOUS
10
63.5
20
-212.5
11
63.5
21
-212.5
0
LINE
8
BLACK
6
CONTINUOUS
10
63.5
20
-212.5
11
63.4999
21
-212.5
0
LINE
8
BLACK
6
CONTINUOUS
10
63.4999
20
-212.5
11
63.5
21
-212.5
0
LINE
8
BLACK
6
CONTINUOUS
10
63.5
20
-212.5
11
63.5
21
-212.5
0
LINE
8
BLACK
6
CONTINUOUS
10
63.5
20
-212.5
11
63.5
21
-212.5
0
LINE
8
BLACK
6
CONTINUOUS
10
46.5
20
-212.5
11
46.5
21
-212.5
0
LINE
8
BLACK
6
CONTINUOUS
10
46.5
20
-212.5
11
46.5
21
-212.5
0
LINE
8
BLACK
6
CONTINUOUS
10
46.5
20
-212.5
11
46.5
21
-212.5
0
LINE
8
BLACK
6
CONTINUOUS
10
46.5
20
-212.5
11
46.5
21
-212.5
0
LINE
8
BLACK
6
CONTINUOUS
10
46.5
20
-212.5
11
46.4999
21
-212.5
0
LINE
8
BLACK
6
CONTINUOUS
10
46.4999
20
-212.5
11
46.5
21
-212.5
0
LINE
8
BLACK
6
CONTINUOUS
10
46.5
20
-212.5
11
46.5
21
-212.5
0
LINE
8
BLACK
6
CONTINUOUS
10
46.5
20
-212.5
11
46.5
21
-212.5
0
LINE
8
BLACK
6
CONTINUOUS
10
390.64
20
-211.5
11
390.466
21
-211.515
0
LINE
8
BLACK
6
CONTINUOUS
10
390.466
20
-211.515
11
390.298
21
-211.56
0
LINE
8
BLACK
6
CONTINUOUS
10
390.298
20
-211.56
11
390.14
21
-211.634
0
LINE
8
BLACK
6
CONTINUOUS
10
390.14
20
-211.634
11
389.997
21
-211.734
0
LINE
8
BLACK
6
CONTINUOUS
10
389.997
20
-211.734
11
389.874
21
-211.857
0
LINE
8
BLACK
6
CONTINUOUS
10
389.874
20
-211.857
11
389.774
21
-212
0
LINE
8
BLACK
6
CONTINUOUS
10
389.774
20
-212
11
389.7
21
-212.158
0
LINE
8
BLACK
6
CONTINUOUS
10
389.7
20
-212.158
11
389.655
21
-212.326
0
LINE
8
BLACK
6
CONTINUOUS
10
389.655
20
-212.326
11
389.64
21
-212.5
0
LINE
8
BLACK
6
CONTINUOUS
10
389.64
20
-212.5
11
389.636
21
-212.5
0
LINE
8
BLACK
6
CONTINUOUS
10
389.636
20
-212.5
11
389.651
21
-212.326
0
LINE
8
BLACK
6
CONTINUOUS
10
389.651
20
-212.326
11
389.697
21
-212.157
0
LINE
8
BLACK
6
CONTINUOUS
10
389.697
20
-212.157
11
389.771
21
-211.998
0
LINE
8
BLACK
6
CONTINUOUS
10
389.771
20
-211.998
11
389.871
21
-211.855
0
LINE
8
BLACK
6
CONTINUOUS
10
389.871
20
-211.855
11
389.995
21
-211.731
0
LINE
8
BLACK
6
CONTINUOUS
10
389.995
20
-211.731
11
390.138
21
-211.631
0
LINE
8
BLACK
6
CONTINUOUS
10
390.138
20
-211.631
11
390.297
21
-211.557
0
LINE
8
BLACK
6
CONTINUOUS
10
390.297
20
-211.557
11
390.466
21
-211.511
0
LINE
8
BLACK
6
CONTINUOUS
10
390.466
20
-211.511
11
390.64
21
-211.496
0
LINE
8
BLACK
6
CONTINUOUS
10
390.64
20
-211.496
11
390.64
21
-211.5
0
LINE
8
BLACK
6
CONTINUOUS
10
371.814
20
-211.511
11
371.983
21
-211.557
0
LINE
8
BLACK
6
CONTINUOUS
10
371.983
20
-211.557
11
372.142
21
-211.631
0
LINE
8
BLACK
6
CONTINUOUS
10
372.142
20
-211.631
11
372.285
21
-211.731
0
LINE
8
BLACK
6
CONTINUOUS
10
372.285
20
-211.731
11
372.409
21
-211.855
0
LINE
8
BLACK
6
CONTINUOUS
10
372.409
20
-211.855
11
372.509
21
-211.998
0
LINE
8
BLACK
6
CONTINUOUS
10
372.509
20
-211.998
11
372.583
21
-212.157
0
LINE
8
BLACK
6
CONTINUOUS
10
372.583
20
-212.157
11
372.629
21
-212.326
0
LINE
8
BLACK
6
CONTINUOUS
10
372.629
20
-212.326
11
372.644
21
-212.5
0
LINE
8
BLACK
6
CONTINUOUS
10
372.644
20
-212.5
11
372.64
21
-212.5
0
LINE
8
BLACK
6
CONTINUOUS
10
372.64
20
-212.5
11
372.625
21
-212.326
0
LINE
8
BLACK
6
CONTINUOUS
10
372.625
20
-212.326
11
372.58
21
-212.158
0
LINE
8
BLACK
6
CONTINUOUS
10
372.58
20
-212.158
11
372.506
21
-212
0
LINE
8
BLACK
6
CONTINUOUS
10
372.506
20
-212
11
372.406
21
-211.857
0
LINE
8
BLACK
6
CONTINUOUS
10
372.406
20
-211.857
11
372.283
21
-211.734
0
LINE
8
BLACK
6
CONTINUOUS
10
372.283
20
-211.734
11
372.14
21
-211.634
0
LINE
8
BLACK
6
CONTINUOUS
10
372.14
20
-211.634
11
371.982
21
-211.56
0
LINE
8
BLACK
6
CONTINUOUS
10
371.982
20
-211.56
11
371.814
21
-211.515
0
LINE
8
BLACK
6
CONTINUOUS
10
371.814
20
-211.515
11
371.64
21
-211.5
0
LINE
8
BLACK
6
CONTINUOUS
10
371.64
20
-211.5
11
371.64
21
-211.496
0
LINE
8
BLACK
6
CONTINUOUS
10
371.64
20
-211.496
11
371.814
21
-211.511
0
LINE
8
BLACK
6
CONTINUOUS
10
45.6743
20
-211.511
11
45.8433
21
-211.557
0
LINE
8
BLACK
6
CONTINUOUS
10
45.8433
20
-211.557
11
46.0019
21
-211.631
0
LINE
8
BLACK
6
CONTINUOUS
10
46.0019
20
-211.631
11
46.1452
21
-211.731
0
LINE
8
BLACK
6
CONTINUOUS
10
46.1452
20
-211.731
11
46.2689
21
-211.855
0
LINE
8
BLACK
6
CONTINUOUS
10
46.2689
20
-211.855
11
46.3693
21
-211.998
0
LINE
8
BLACK
6
CONTINUOUS
10
46.3693
20
-211.998
11
46.4432
21
-212.157
0
LINE
8
BLACK
6
CONTINUOUS
10
46.4432
20
-212.157
11
46.4885
21
-212.326
0
LINE
8
BLACK
6
CONTINUOUS
10
46.4885
20
-212.326
11
46.5038
21
-212.5
0
LINE
8
BLACK
6
CONTINUOUS
10
46.5038
20
-212.5
11
46.5
21
-212.5
0
LINE
8
BLACK
6
CONTINUOUS
10
46.5
20
-212.5
11
46.4849
21
-212.326
0
LINE
8
BLACK
6
CONTINUOUS
10
46.4849
20
-212.326
11
46.4397
21
-212.158
0
LINE
8
BLACK
6
CONTINUOUS
10
46.4397
20
-212.158
11
46.3661
21
-212
0
LINE
8
BLACK
6
CONTINUOUS
10
46.3661
20
-212
11
46.2661
21
-211.857
0
LINE
8
BLACK
6
CONTINUOUS
10
46.2661
20
-211.857
11
46.1428
21
-211.734
0
LINE
8
BLACK
6
CONTINUOUS
10
46.1428
20
-211.734
11
46
21
-211.634
0
LINE
8
BLACK
6
CONTINUOUS
10
46
20
-211.634
11
45.842
21
-211.56
0
LINE
8
BLACK
6
CONTINUOUS
10
45.842
20
-211.56
11
45.6737
21
-211.515
0
LINE
8
BLACK
6
CONTINUOUS
10
45.6737
20
-211.515
11
45.5
21
-211.5
0
LINE
8
BLACK
6
CONTINUOUS
10
45.5
20
-211.5
11
45.5
21
-211.496
0
LINE
8
BLACK
6
CONTINUOUS
10
45.5
20
-211.496
11
45.6743
21
-211.511
0
LINE
8
BLACK
6
CONTINUOUS
10
64.5
20
-211.5
11
64.3263
21
-211.515
0
LINE
8
BLACK
6
CONTINUOUS
10
64.3263
20
-211.515
11
64.158
21
-211.56
0
LINE
8
BLACK
6
CONTINUOUS
10
64.158
20
-211.56
11
64
21
-211.634
0
LINE
8
BLACK
6
CONTINUOUS
10
64
20
-211.634
11
63.8572
21
-211.734
0
LINE
8
BLACK
6
CONTINUOUS
10
63.8572
20
-211.734
11
63.7339
21
-211.857
0
LINE
8
BLACK
6
CONTINUOUS
10
63.7339
20
-211.857
11
63.6339
21
-212
0
LINE
8
BLACK
6
CONTINUOUS
10
63.6339
20
-212
11
63.5603
21
-212.158
0
LINE
8
BLACK
6
CONTINUOUS
10
63.5603
20
-212.158
11
63.5151
21
-212.326
0
LINE
8
BLACK
6
CONTINUOUS
10
63.5151
20
-212.326
11
63.4999
21
-212.5
0
LINE
8
BLACK
6
CONTINUOUS
10
63.4999
20
-212.5
11
63.4962
21
-212.5
0
LINE
8
BLACK
6
CONTINUOUS
10
63.4962
20
-212.5
11
63.5115
21
-212.326
0
LINE
8
BLACK
6
CONTINUOUS
10
63.5115
20
-212.326
11
63.5568
21
-212.157
0
LINE
8
BLACK
6
CONTINUOUS
10
63.5568
20
-212.157
11
63.6307
21
-211.998
0
LINE
8
BLACK
6
CONTINUOUS
10
63.6307
20
-211.998
11
63.7311
21
-211.855
0
LINE
8
BLACK
6
CONTINUOUS
10
63.7311
20
-211.855
11
63.8548
21
-211.731
0
LINE
8
BLACK
6
CONTINUOUS
10
63.8548
20
-211.731
11
63.9981
21
-211.631
0
LINE
8
BLACK
6
CONTINUOUS
10
63.9981
20
-211.631
11
64.1567
21
-211.557
0
LINE
8
BLACK
6
CONTINUOUS
10
64.1567
20
-211.557
11
64.3257
21
-211.511
0
LINE
8
BLACK
6
CONTINUOUS
10
64.3257
20
-211.511
11
64.5
21
-211.496
0
LINE
8
BLACK
6
CONTINUOUS
10
64.5
20
-211.496
11
64.5
21
-211.5
0
LINE
8
BLACK
6
CONTINUOUS
10
416
20
-211.5
11
416
21
-211.5
0
LINE
8
BLACK
6
CONTINUOUS
10
416
20
-211.5
11
416
21
-211.5
0
LINE
8
BLACK
6
CONTINUOUS
10
416
20
-211.5
11
416
21
-211.5
0
LINE
8
BLACK
6
CONTINUOUS
10
416
20
-211.5
11
390.64
21
-211.5
0
LINE
8
BLACK
6
CONTINUOUS
10
390.64
20
-211.5
11
390.64
21
-211.5
0
LINE
8
BLACK
6
CONTINUOUS
10
390.64
20
-211.5
11
390.64
21
-211.5
0
LINE
8
BLACK
6
CONTINUOUS
10
390.64
20
-211.5
11
390.64
21
-211.5
0
LINE
8
BLACK
6
CONTINUOUS
10
390.64
20
-211.5
11
390.64
21
-211.5
0
LINE
8
BLACK
6
CONTINUOUS
10
390.64
20
-211.5
11
416
21
-211.5
0
LINE
8
BLACK
6
CONTINUOUS
10
416
20
-211.5
11
416
21
-211.5
0
LINE
8
BLACK
6
CONTINUOUS
10
25
20
-211.5
11
24.9999
21
-211.5
0
LINE
8
BLACK
6
CONTINUOUS
10
24.9999
20
-211.5
11
25
21
-211.5
0
LINE
8
BLACK
6
CONTINUOUS
10
25
20
-211.5
11
25
21
-211.5
0
LINE
8
BLACK
6
CONTINUOUS
10
25
20
-211.5
11
45.5
21
-211.5
0
LINE
8
BLACK
6
CONTINUOUS
10
45.5
20
-211.5
11
45.5
21
-211.5
0
LINE
8
BLACK
6
CONTINUOUS
10
45.5
20
-211.5
11
45.5
21
-211.5
0
LINE
8
BLACK
6
CONTINUOUS
10
45.5
20
-211.5
11
45.5
21
-211.5
0
LINE
8
BLACK
6
CONTINUOUS
10
45.5
20
-211.5
11
45.5
21
-211.5
0
LINE
8
BLACK
6
CONTINUOUS
10
45.5
20
-211.5
11
25
21
-211.5
0
LINE
8
BLACK
6
CONTINUOUS
10
25
20
-211.5
11
25
21
-211.5
  0
ENDSEC
  0
EOF
