  0
SECTION
  2
HEADER
  9
$ANGBASE
  50
0.0
  9
$ANGDIR
  70
1
  9
$MEASUREMENT
  70
1
  0
ENDSEC
  0
SECTION
  2
TABLES
  0
TABLE
  2
LTYPE
  70
4
  0
LTYPE
  5
40F
  2
CONTINUOUS
  70
0
  3
Solid line
  72
65
  73
0
  40
0.0
  0
LTYPE
  5
410
  2
DASHDOT
 70
0
  3
Dash Dot ____ _ ____ _
 72
65
 73
4
 40
2.0
 49
1.25
 49
-0.25
 49
0.25
 49
-0.25
  0
LTYPE
  5
411
  2
DASHED
 70
0
  3
Dashed __ __ __ __ __
 72
65
 73
2
 40
0.75
 49
0.5
 49
-0.25
  0
LTYPE
  5
43B
  2
DOTTED
 70
0
  3
Dotted .  .  .  .
 72
65
 73
2
 40
0.2
 49
0.0
 49
-0.2
  0
ENDTAB
  0
TABLE
  2
STYLE
  70
4
  0
STYLE
  2
KICAD
  70
0
  40
0
  41
1
  42
1
  50
0
  71
0
  3
isocp.shx
  0
STYLE
  2
KICADB
  70
0
  40
0
  41
1
  42
1
  50
0
  71
0
  3
isocp.shx
  0
STYLE
  2
KICADI
  70
0
  40
0
  41
1
  42
1
  50
15
  71
0
  3
isocp.shx
  0
STYLE
  2
KICADBI
  70
0
  40
0
  41
1
  42
1
  50
15
  71
0
  3
isocp.shx
  0
ENDTAB
  0
TABLE
  2
LAYER
  70
1
  0
LAYER
  2
BLACK
  70
0
  62
7
  6
CONTINUOUS
  0
ENDTAB
  0
ENDSEC
  0
SECTION
  2
ENTITIES
0
LINE
8
BLACK
6
CONTINUOUS
10
16.9996
20
-316.2
11
16.9993
21
-316.2
0
LINE
8
BLACK
6
CONTINUOUS
10
16.9993
20
-316.2
11
16.9991
21
-316.2
0
LINE
8
BLACK
6
CONTINUOUS
10
16.9991
20
-316.2
11
16.7348
21
-316.184
0
LINE
8
BLACK
6
CONTINUOUS
10
16.7348
20
-316.184
11
16.4735
21
-316.136
0
LINE
8
BLACK
6
CONTINUOUS
10
16.4735
20
-316.136
11
16.2199
21
-316.057
0
LINE
8
BLACK
6
CONTINUOUS
10
16.2199
20
-316.057
11
15.9776
21
-315.948
0
LINE
8
BLACK
6
CONTINUOUS
10
15.9776
20
-315.948
11
15.7503
21
-315.811
0
LINE
8
BLACK
6
CONTINUOUS
10
15.7503
20
-315.811
11
15.5411
21
-315.647
0
LINE
8
BLACK
6
CONTINUOUS
10
15.5411
20
-315.647
11
15.3533
21
-315.459
0
LINE
8
BLACK
6
CONTINUOUS
10
15.3533
20
-315.459
11
15.1894
21
-315.25
0
LINE
8
BLACK
6
CONTINUOUS
10
15.1894
20
-315.25
11
15.052
21
-315.022
0
LINE
8
BLACK
6
CONTINUOUS
10
15.052
20
-315.022
11
14.943
21
-314.78
0
LINE
8
BLACK
6
CONTINUOUS
10
14.943
20
-314.78
11
14.8639
21
-314.526
0
LINE
8
BLACK
6
CONTINUOUS
10
14.8639
20
-314.526
11
14.816
21
-314.265
0
LINE
8
BLACK
6
CONTINUOUS
10
14.816
20
-314.265
11
14.8
21
-314
0
LINE
8
BLACK
6
CONTINUOUS
10
14.8
20
-314
11
14.8
21
-233.5
0
LINE
8
BLACK
6
CONTINUOUS
10
14.8
20
-233.5
11
14.8001
21
-233.499
0
LINE
8
BLACK
6
CONTINUOUS
10
14.8001
20
-233.499
11
14.8029
21
-233.487
0
LINE
8
BLACK
6
CONTINUOUS
10
14.8029
20
-233.487
11
14.7882
21
-233.273
0
LINE
8
BLACK
6
CONTINUOUS
10
14.7882
20
-233.273
11
14.7414
21
-233.05
0
LINE
8
BLACK
6
CONTINUOUS
10
14.7414
20
-233.05
11
14.6645
21
-232.835
0
LINE
8
BLACK
6
CONTINUOUS
10
14.6645
20
-232.835
11
14.5588
21
-232.634
0
LINE
8
BLACK
6
CONTINUOUS
10
14.5588
20
-232.634
11
14.4264
21
-232.448
0
LINE
8
BLACK
6
CONTINUOUS
10
14.4264
20
-232.448
11
14.2698
21
-232.283
0
LINE
8
BLACK
6
CONTINUOUS
10
14.2698
20
-232.283
11
14.092
21
-232.141
0
LINE
8
BLACK
6
CONTINUOUS
10
14.092
20
-232.141
11
13.8963
21
-232.024
0
LINE
8
BLACK
6
CONTINUOUS
10
13.8963
20
-232.024
11
13.6984
21
-231.941
0
LINE
8
BLACK
6
CONTINUOUS
10
13.6984
20
-231.941
11
13.6851
21
-231.939
0
LINE
8
BLACK
6
CONTINUOUS
10
13.6851
20
-231.939
11
13.6848
21
-231.939
0
LINE
8
BLACK
6
CONTINUOUS
10
13.6848
20
-231.939
11
13.6848
21
-231.939
0
LINE
8
BLACK
6
CONTINUOUS
10
13.6848
20
-231.939
11
13.6848
21
-231.939
0
LINE
8
BLACK
6
CONTINUOUS
10
13.6848
20
-231.939
11
13.6845
21
-231.939
0
LINE
8
BLACK
6
CONTINUOUS
10
13.6845
20
-231.939
11
13.6843
21
-231.939
0
LINE
8
BLACK
6
CONTINUOUS
10
13.6843
20
-231.939
11
13.4503
21
-231.842
0
LINE
8
BLACK
6
CONTINUOUS
10
13.4503
20
-231.842
11
13.2293
21
-231.717
0
LINE
8
BLACK
6
CONTINUOUS
10
13.2293
20
-231.717
11
13.0255
21
-231.565
0
LINE
8
BLACK
6
CONTINUOUS
10
13.0255
20
-231.565
11
12.8421
21
-231.389
0
LINE
8
BLACK
6
CONTINUOUS
10
12.8421
20
-231.389
11
12.6818
21
-231.192
0
LINE
8
BLACK
6
CONTINUOUS
10
12.6818
20
-231.192
11
12.5472
21
-230.976
0
LINE
8
BLACK
6
CONTINUOUS
10
12.5472
20
-230.976
11
12.4403
21
-230.745
0
LINE
8
BLACK
6
CONTINUOUS
10
12.4403
20
-230.745
11
12.3628
21
-230.503
0
LINE
8
BLACK
6
CONTINUOUS
10
12.3628
20
-230.503
11
12.3158
21
-230.254
0
LINE
8
BLACK
6
CONTINUOUS
10
12.3158
20
-230.254
11
12.3
21
-230
0
LINE
8
BLACK
6
CONTINUOUS
10
12.3
20
-230
11
12.3
21
-230
0
LINE
8
BLACK
6
CONTINUOUS
10
12.3
20
-230
11
12.3
21
-215
0
LINE
8
BLACK
6
CONTINUOUS
10
12.3
20
-215
11
12.305
21
-214.978
0
LINE
8
BLACK
6
CONTINUOUS
10
12.305
20
-214.978
11
12.305
21
-214.955
0
LINE
8
BLACK
6
CONTINUOUS
10
12.305
20
-214.955
11
12.3149
21
-214.935
0
LINE
8
BLACK
6
CONTINUOUS
10
12.3149
20
-214.935
11
12.3199
21
-214.913
0
LINE
8
BLACK
6
CONTINUOUS
10
12.3199
20
-214.913
11
12.3339
21
-214.895
0
LINE
8
BLACK
6
CONTINUOUS
10
12.3339
20
-214.895
11
12.3437
21
-214.875
0
LINE
8
BLACK
6
CONTINUOUS
10
12.3437
20
-214.875
11
12.3614
21
-214.861
0
LINE
8
BLACK
6
CONTINUOUS
10
12.3614
20
-214.861
11
12.3755
21
-214.843
0
LINE
8
BLACK
6
CONTINUOUS
10
12.3755
20
-214.843
11
12.3957
21
-214.834
0
LINE
8
BLACK
6
CONTINUOUS
10
12.3957
20
-214.834
11
12.4133
21
-214.82
0
LINE
8
BLACK
6
CONTINUOUS
10
12.4133
20
-214.82
11
12.4353
21
-214.815
0
LINE
8
BLACK
6
CONTINUOUS
10
12.4353
20
-214.815
11
12.4557
21
-214.805
0
LINE
8
BLACK
6
CONTINUOUS
10
12.4557
20
-214.805
11
12.4781
21
-214.805
0
LINE
8
BLACK
6
CONTINUOUS
10
12.4781
20
-214.805
11
12.5
21
-214.8
0
LINE
8
BLACK
6
CONTINUOUS
10
12.5
20
-214.8
11
71.0004
21
-214.8
0
LINE
8
BLACK
6
CONTINUOUS
10
71.0004
20
-214.8
11
71.0207
21
-214.805
0
LINE
8
BLACK
6
CONTINUOUS
10
71.0207
20
-214.805
11
71.0416
21
-214.804
0
LINE
8
BLACK
6
CONTINUOUS
10
71.0416
20
-214.804
11
175.312
21
-236.968
0
LINE
8
BLACK
6
CONTINUOUS
10
175.312
20
-236.968
11
175.312
21
-236.968
0
LINE
8
BLACK
6
CONTINUOUS
10
175.312
20
-236.968
11
175.313
21
-236.968
0
LINE
8
BLACK
6
CONTINUOUS
10
175.313
20
-236.968
11
175.313
21
-236.968
0
LINE
8
BLACK
6
CONTINUOUS
10
175.313
20
-236.968
11
175.568
21
-237.039
0
LINE
8
BLACK
6
CONTINUOUS
10
175.568
20
-237.039
11
175.814
21
-237.14
0
LINE
8
BLACK
6
CONTINUOUS
10
175.814
20
-237.14
11
176.045
21
-237.27
0
LINE
8
BLACK
6
CONTINUOUS
10
176.045
20
-237.27
11
176.26
21
-237.427
0
LINE
8
BLACK
6
CONTINUOUS
10
176.26
20
-237.427
11
176.454
21
-237.609
0
LINE
8
BLACK
6
CONTINUOUS
10
176.454
20
-237.609
11
176.624
21
-237.812
0
LINE
8
BLACK
6
CONTINUOUS
10
176.624
20
-237.812
11
176.769
21
-238.035
0
LINE
8
BLACK
6
CONTINUOUS
10
176.769
20
-238.035
11
176.886
21
-238.274
0
LINE
8
BLACK
6
CONTINUOUS
10
176.886
20
-238.274
11
176.973
21
-238.525
0
LINE
8
BLACK
6
CONTINUOUS
10
176.973
20
-238.525
11
177.029
21
-238.784
0
LINE
8
BLACK
6
CONTINUOUS
10
177.029
20
-238.784
11
177.054
21
-239.049
0
LINE
8
BLACK
6
CONTINUOUS
10
177.054
20
-239.049
11
177.046
21
-239.314
0
LINE
8
BLACK
6
CONTINUOUS
10
177.046
20
-239.314
11
177.007
21
-239.577
0
LINE
8
BLACK
6
CONTINUOUS
10
177.007
20
-239.577
11
177.007
21
-239.577
0
LINE
8
BLACK
6
CONTINUOUS
10
177.007
20
-239.577
11
177.007
21
-239.577
0
LINE
8
BLACK
6
CONTINUOUS
10
177.007
20
-239.577
11
174.054
21
-253.467
0
LINE
8
BLACK
6
CONTINUOUS
10
174.054
20
-253.467
11
174.054
21
-253.467
0
LINE
8
BLACK
6
CONTINUOUS
10
174.054
20
-253.467
11
174.054
21
-253.468
0
LINE
8
BLACK
6
CONTINUOUS
10
174.054
20
-253.468
11
173.983
21
-253.723
0
LINE
8
BLACK
6
CONTINUOUS
10
173.983
20
-253.723
11
173.882
21
-253.968
0
LINE
8
BLACK
6
CONTINUOUS
10
173.882
20
-253.968
11
173.752
21
-254.2
0
LINE
8
BLACK
6
CONTINUOUS
10
173.752
20
-254.2
11
173.595
21
-254.414
0
LINE
8
BLACK
6
CONTINUOUS
10
173.595
20
-254.414
11
173.414
21
-254.608
0
LINE
8
BLACK
6
CONTINUOUS
10
173.414
20
-254.608
11
173.21
21
-254.779
0
LINE
8
BLACK
6
CONTINUOUS
10
173.21
20
-254.779
11
172.987
21
-254.923
0
LINE
8
BLACK
6
CONTINUOUS
10
172.987
20
-254.923
11
172.748
21
-255.04
0
LINE
8
BLACK
6
CONTINUOUS
10
172.748
20
-255.04
11
172.497
21
-255.127
0
LINE
8
BLACK
6
CONTINUOUS
10
172.497
20
-255.127
11
172.238
21
-255.184
0
LINE
8
BLACK
6
CONTINUOUS
10
172.238
20
-255.184
11
171.973
21
-255.208
0
LINE
8
BLACK
6
CONTINUOUS
10
171.973
20
-255.208
11
171.708
21
-255.201
0
LINE
8
BLACK
6
CONTINUOUS
10
171.708
20
-255.201
11
171.445
21
-255.161
0
LINE
8
BLACK
6
CONTINUOUS
10
171.445
20
-255.161
11
171.445
21
-255.161
0
LINE
8
BLACK
6
CONTINUOUS
10
171.445
20
-255.161
11
166.065
21
-254.018
0
LINE
8
BLACK
6
CONTINUOUS
10
166.065
20
-254.018
11
166.052
21
-254.012
0
LINE
8
BLACK
6
CONTINUOUS
10
166.052
20
-254.012
11
165.832
21
-253.98
0
LINE
8
BLACK
6
CONTINUOUS
10
165.832
20
-253.98
11
165.597
21
-253.977
0
LINE
8
BLACK
6
CONTINUOUS
10
165.597
20
-253.977
11
165.362
21
-254.005
0
LINE
8
BLACK
6
CONTINUOUS
10
165.362
20
-254.005
11
165.133
21
-254.063
0
LINE
8
BLACK
6
CONTINUOUS
10
165.133
20
-254.063
11
164.914
21
-254.15
0
LINE
8
BLACK
6
CONTINUOUS
10
164.914
20
-254.15
11
164.708
21
-254.266
0
LINE
8
BLACK
6
CONTINUOUS
10
164.708
20
-254.266
11
164.519
21
-254.407
0
LINE
8
BLACK
6
CONTINUOUS
10
164.519
20
-254.407
11
164.35
21
-254.571
0
LINE
8
BLACK
6
CONTINUOUS
10
164.35
20
-254.571
11
164.204
21
-254.757
0
LINE
8
BLACK
6
CONTINUOUS
10
164.204
20
-254.757
11
164.084
21
-254.96
0
LINE
8
BLACK
6
CONTINUOUS
10
164.084
20
-254.96
11
163.991
21
-255.176
0
LINE
8
BLACK
6
CONTINUOUS
10
163.991
20
-255.176
11
163.93
21
-255.391
0
LINE
8
BLACK
6
CONTINUOUS
10
163.93
20
-255.391
11
163.93
21
-255.404
0
LINE
8
BLACK
6
CONTINUOUS
10
163.93
20
-255.404
11
160.635
21
-270.908
0
LINE
8
BLACK
6
CONTINUOUS
10
160.635
20
-270.908
11
160.635
21
-270.908
0
LINE
8
BLACK
6
CONTINUOUS
10
160.635
20
-270.908
11
160.629
21
-270.92
0
LINE
8
BLACK
6
CONTINUOUS
10
160.629
20
-270.92
11
160.597
21
-271.141
0
LINE
8
BLACK
6
CONTINUOUS
10
160.597
20
-271.141
11
160.594
21
-271.376
0
LINE
8
BLACK
6
CONTINUOUS
10
160.594
20
-271.376
11
160.622
21
-271.611
0
LINE
8
BLACK
6
CONTINUOUS
10
160.622
20
-271.611
11
160.68
21
-271.84
0
LINE
8
BLACK
6
CONTINUOUS
10
160.68
20
-271.84
11
160.767
21
-272.059
0
LINE
8
BLACK
6
CONTINUOUS
10
160.767
20
-272.059
11
160.883
21
-272.265
0
LINE
8
BLACK
6
CONTINUOUS
10
160.883
20
-272.265
11
161.024
21
-272.454
0
LINE
8
BLACK
6
CONTINUOUS
10
161.024
20
-272.454
11
161.188
21
-272.623
0
LINE
8
BLACK
6
CONTINUOUS
10
161.188
20
-272.623
11
161.374
21
-272.769
0
LINE
8
BLACK
6
CONTINUOUS
10
161.374
20
-272.769
11
161.577
21
-272.889
0
LINE
8
BLACK
6
CONTINUOUS
10
161.577
20
-272.889
11
161.793
21
-272.982
0
LINE
8
BLACK
6
CONTINUOUS
10
161.793
20
-272.982
11
162.008
21
-273.043
0
LINE
8
BLACK
6
CONTINUOUS
10
162.008
20
-273.043
11
162.021
21
-273.043
0
LINE
8
BLACK
6
CONTINUOUS
10
162.021
20
-273.043
11
162.755
21
-273.199
0
LINE
8
BLACK
6
CONTINUOUS
10
162.755
20
-273.199
11
162.755
21
-273.199
0
LINE
8
BLACK
6
CONTINUOUS
10
162.755
20
-273.199
11
162.756
21
-273.199
0
LINE
8
BLACK
6
CONTINUOUS
10
162.756
20
-273.199
11
162.756
21
-273.199
0
LINE
8
BLACK
6
CONTINUOUS
10
162.756
20
-273.199
11
163.011
21
-273.27
0
LINE
8
BLACK
6
CONTINUOUS
10
163.011
20
-273.27
11
163.257
21
-273.371
0
LINE
8
BLACK
6
CONTINUOUS
10
163.257
20
-273.371
11
163.488
21
-273.501
0
LINE
8
BLACK
6
CONTINUOUS
10
163.488
20
-273.501
11
163.703
21
-273.658
0
LINE
8
BLACK
6
CONTINUOUS
10
163.703
20
-273.658
11
163.896
21
-273.839
0
LINE
8
BLACK
6
CONTINUOUS
10
163.896
20
-273.839
11
164.067
21
-274.043
0
LINE
8
BLACK
6
CONTINUOUS
10
164.067
20
-274.043
11
164.212
21
-274.266
0
LINE
8
BLACK
6
CONTINUOUS
10
164.212
20
-274.266
11
164.328
21
-274.505
0
LINE
8
BLACK
6
CONTINUOUS
10
164.328
20
-274.505
11
164.415
21
-274.756
0
LINE
8
BLACK
6
CONTINUOUS
10
164.415
20
-274.756
11
164.472
21
-275.015
0
LINE
8
BLACK
6
CONTINUOUS
10
164.472
20
-275.015
11
164.496
21
-275.28
0
LINE
8
BLACK
6
CONTINUOUS
10
164.496
20
-275.28
11
164.489
21
-275.545
0
LINE
8
BLACK
6
CONTINUOUS
10
164.489
20
-275.545
11
164.449
21
-275.808
0
LINE
8
BLACK
6
CONTINUOUS
10
164.449
20
-275.808
11
164.449
21
-275.808
0
LINE
8
BLACK
6
CONTINUOUS
10
164.449
20
-275.808
11
161.31
21
-290.578
0
LINE
8
BLACK
6
CONTINUOUS
10
161.31
20
-290.578
11
161.304
21
-290.59
0
LINE
8
BLACK
6
CONTINUOUS
10
161.304
20
-290.59
11
161.272
21
-290.811
0
LINE
8
BLACK
6
CONTINUOUS
10
161.272
20
-290.811
11
161.269
21
-291.047
0
LINE
8
BLACK
6
CONTINUOUS
10
161.269
20
-291.047
11
161.297
21
-291.281
0
LINE
8
BLACK
6
CONTINUOUS
10
161.297
20
-291.281
11
161.355
21
-291.51
0
LINE
8
BLACK
6
CONTINUOUS
10
161.355
20
-291.51
11
161.442
21
-291.729
0
LINE
8
BLACK
6
CONTINUOUS
10
161.442
20
-291.729
11
161.558
21
-291.935
0
LINE
8
BLACK
6
CONTINUOUS
10
161.558
20
-291.935
11
161.699
21
-292.124
0
LINE
8
BLACK
6
CONTINUOUS
10
161.699
20
-292.124
11
161.864
21
-292.293
0
LINE
8
BLACK
6
CONTINUOUS
10
161.864
20
-292.293
11
162.049
21
-292.439
0
LINE
8
BLACK
6
CONTINUOUS
10
162.049
20
-292.439
11
162.252
21
-292.56
0
LINE
8
BLACK
6
CONTINUOUS
10
162.252
20
-292.56
11
162.468
21
-292.653
0
LINE
8
BLACK
6
CONTINUOUS
10
162.468
20
-292.653
11
162.683
21
-292.713
0
LINE
8
BLACK
6
CONTINUOUS
10
162.683
20
-292.713
11
162.696
21
-292.713
0
LINE
8
BLACK
6
CONTINUOUS
10
162.696
20
-292.713
11
168.077
21
-293.857
0
LINE
8
BLACK
6
CONTINUOUS
10
168.077
20
-293.857
11
168.077
21
-293.857
0
LINE
8
BLACK
6
CONTINUOUS
10
168.077
20
-293.857
11
168.077
21
-293.857
0
LINE
8
BLACK
6
CONTINUOUS
10
168.077
20
-293.857
11
168.077
21
-293.857
0
LINE
8
BLACK
6
CONTINUOUS
10
168.077
20
-293.857
11
168.332
21
-293.927
0
LINE
8
BLACK
6
CONTINUOUS
10
168.332
20
-293.927
11
168.578
21
-294.028
0
LINE
8
BLACK
6
CONTINUOUS
10
168.578
20
-294.028
11
168.81
21
-294.159
0
LINE
8
BLACK
6
CONTINUOUS
10
168.81
20
-294.159
11
169.024
21
-294.316
0
LINE
8
BLACK
6
CONTINUOUS
10
169.024
20
-294.316
11
169.218
21
-294.497
0
LINE
8
BLACK
6
CONTINUOUS
10
169.218
20
-294.497
11
169.388
21
-294.701
0
LINE
8
BLACK
6
CONTINUOUS
10
169.388
20
-294.701
11
169.533
21
-294.924
0
LINE
8
BLACK
6
CONTINUOUS
10
169.533
20
-294.924
11
169.65
21
-295.162
0
LINE
8
BLACK
6
CONTINUOUS
10
169.65
20
-295.162
11
169.737
21
-295.413
0
LINE
8
BLACK
6
CONTINUOUS
10
169.737
20
-295.413
11
169.793
21
-295.673
0
LINE
8
BLACK
6
CONTINUOUS
10
169.793
20
-295.673
11
169.818
21
-295.938
0
LINE
8
BLACK
6
CONTINUOUS
10
169.818
20
-295.938
11
169.81
21
-296.203
0
LINE
8
BLACK
6
CONTINUOUS
10
169.81
20
-296.203
11
169.771
21
-296.465
0
LINE
8
BLACK
6
CONTINUOUS
10
169.771
20
-296.465
11
169.771
21
-296.466
0
LINE
8
BLACK
6
CONTINUOUS
10
169.771
20
-296.466
11
166.642
21
-311.187
0
LINE
8
BLACK
6
CONTINUOUS
10
166.642
20
-311.187
11
166.636
21
-311.199
0
LINE
8
BLACK
6
CONTINUOUS
10
166.636
20
-311.199
11
166.604
21
-311.42
0
LINE
8
BLACK
6
CONTINUOUS
10
166.604
20
-311.42
11
166.601
21
-311.656
0
LINE
8
BLACK
6
CONTINUOUS
10
166.601
20
-311.656
11
166.629
21
-311.89
0
LINE
8
BLACK
6
CONTINUOUS
10
166.629
20
-311.89
11
166.687
21
-312.119
0
LINE
8
BLACK
6
CONTINUOUS
10
166.687
20
-312.119
11
166.774
21
-312.338
0
LINE
8
BLACK
6
CONTINUOUS
10
166.774
20
-312.338
11
166.889
21
-312.544
0
LINE
8
BLACK
6
CONTINUOUS
10
166.889
20
-312.544
11
167.031
21
-312.733
0
LINE
8
BLACK
6
CONTINUOUS
10
167.031
20
-312.733
11
167.195
21
-312.902
0
LINE
8
BLACK
6
CONTINUOUS
10
167.195
20
-312.902
11
167.381
21
-313.048
0
LINE
8
BLACK
6
CONTINUOUS
10
167.381
20
-313.048
11
167.583
21
-313.168
0
LINE
8
BLACK
6
CONTINUOUS
10
167.583
20
-313.168
11
167.8
21
-313.262
0
LINE
8
BLACK
6
CONTINUOUS
10
167.8
20
-313.262
11
168.015
21
-313.322
0
LINE
8
BLACK
6
CONTINUOUS
10
168.015
20
-313.322
11
168.028
21
-313.322
0
LINE
8
BLACK
6
CONTINUOUS
10
168.028
20
-313.322
11
173.457
21
-314.476
0
LINE
8
BLACK
6
CONTINUOUS
10
173.457
20
-314.476
11
173.457
21
-314.476
0
LINE
8
BLACK
6
CONTINUOUS
10
173.457
20
-314.476
11
173.457
21
-314.476
0
LINE
8
BLACK
6
CONTINUOUS
10
173.457
20
-314.476
11
173.458
21
-314.476
0
LINE
8
BLACK
6
CONTINUOUS
10
173.458
20
-314.476
11
173.713
21
-314.547
0
LINE
8
BLACK
6
CONTINUOUS
10
173.713
20
-314.547
11
173.958
21
-314.648
0
LINE
8
BLACK
6
CONTINUOUS
10
173.958
20
-314.648
11
174.19
21
-314.778
0
LINE
8
BLACK
6
CONTINUOUS
10
174.19
20
-314.778
11
174.404
21
-314.935
0
LINE
8
BLACK
6
CONTINUOUS
10
174.404
20
-314.935
11
174.598
21
-315.116
0
LINE
8
BLACK
6
CONTINUOUS
10
174.598
20
-315.116
11
174.769
21
-315.32
0
LINE
8
BLACK
6
CONTINUOUS
10
174.769
20
-315.32
11
174.913
21
-315.543
0
LINE
8
BLACK
6
CONTINUOUS
10
174.913
20
-315.543
11
175.03
21
-315.782
0
LINE
8
BLACK
6
CONTINUOUS
10
175.03
20
-315.782
11
175.117
21
-316.033
0
LINE
8
BLACK
6
CONTINUOUS
10
175.117
20
-316.033
11
175.174
21
-316.292
0
LINE
8
BLACK
6
CONTINUOUS
10
175.174
20
-316.292
11
175.198
21
-316.557
0
LINE
8
BLACK
6
CONTINUOUS
10
175.198
20
-316.557
11
175.191
21
-316.822
0
LINE
8
BLACK
6
CONTINUOUS
10
175.191
20
-316.822
11
175.151
21
-317.085
0
LINE
8
BLACK
6
CONTINUOUS
10
175.151
20
-317.085
11
175.151
21
-317.085
0
LINE
8
BLACK
6
CONTINUOUS
10
175.151
20
-317.085
11
172.012
21
-331.855
0
LINE
8
BLACK
6
CONTINUOUS
10
172.012
20
-331.855
11
172.012
21
-331.855
0
LINE
8
BLACK
6
CONTINUOUS
10
172.012
20
-331.855
11
172.012
21
-331.856
0
LINE
8
BLACK
6
CONTINUOUS
10
172.012
20
-331.856
11
172.012
21
-331.856
0
LINE
8
BLACK
6
CONTINUOUS
10
172.012
20
-331.856
11
171.941
21
-332.111
0
LINE
8
BLACK
6
CONTINUOUS
10
171.941
20
-332.111
11
171.84
21
-332.357
0
LINE
8
BLACK
6
CONTINUOUS
10
171.84
20
-332.357
11
171.71
21
-332.588
0
LINE
8
BLACK
6
CONTINUOUS
10
171.71
20
-332.588
11
171.553
21
-332.803
0
LINE
8
BLACK
6
CONTINUOUS
10
171.553
20
-332.803
11
171.371
21
-332.997
0
LINE
8
BLACK
6
CONTINUOUS
10
171.371
20
-332.997
11
171.167
21
-333.167
0
LINE
8
BLACK
6
CONTINUOUS
10
171.167
20
-333.167
11
170.945
21
-333.312
0
LINE
8
BLACK
6
CONTINUOUS
10
170.945
20
-333.312
11
170.706
21
-333.429
0
LINE
8
BLACK
6
CONTINUOUS
10
170.706
20
-333.429
11
170.455
21
-333.516
0
LINE
8
BLACK
6
CONTINUOUS
10
170.455
20
-333.516
11
170.195
21
-333.572
0
LINE
8
BLACK
6
CONTINUOUS
10
170.195
20
-333.572
11
169.931
21
-333.597
0
LINE
8
BLACK
6
CONTINUOUS
10
169.931
20
-333.597
11
169.665
21
-333.589
0
LINE
8
BLACK
6
CONTINUOUS
10
169.665
20
-333.589
11
169.403
21
-333.55
0
LINE
8
BLACK
6
CONTINUOUS
10
169.403
20
-333.55
11
169.402
21
-333.55
0
LINE
8
BLACK
6
CONTINUOUS
10
169.402
20
-333.55
11
169.402
21
-333.55
0
LINE
8
BLACK
6
CONTINUOUS
10
169.402
20
-333.55
11
87.9433
21
-316.2
0
LINE
8
BLACK
6
CONTINUOUS
10
87.9433
20
-316.2
11
16.9997
21
-316.2
0
LINE
8
BLACK
6
CONTINUOUS
10
16.9997
20
-316.2
11
16.9996
21
-316.2
0
LINE
8
BLACK
6
CONTINUOUS
10
12.7
20
-230.001
11
12.6971
21
-230.013
0
LINE
8
BLACK
6
CONTINUOUS
10
12.6971
20
-230.013
11
12.7118
21
-230.227
0
LINE
8
BLACK
6
CONTINUOUS
10
12.7118
20
-230.227
11
12.7586
21
-230.45
0
LINE
8
BLACK
6
CONTINUOUS
10
12.7586
20
-230.45
11
12.8355
21
-230.665
0
LINE
8
BLACK
6
CONTINUOUS
10
12.8355
20
-230.665
11
12.9412
21
-230.866
0
LINE
8
BLACK
6
CONTINUOUS
10
12.9412
20
-230.866
11
13.0736
21
-231.052
0
LINE
8
BLACK
6
CONTINUOUS
10
13.0736
20
-231.052
11
13.2302
21
-231.217
0
LINE
8
BLACK
6
CONTINUOUS
10
13.2302
20
-231.217
11
13.408
21
-231.359
0
LINE
8
BLACK
6
CONTINUOUS
10
13.408
20
-231.359
11
13.6037
21
-231.476
0
LINE
8
BLACK
6
CONTINUOUS
10
13.6037
20
-231.476
11
13.8016
21
-231.559
0
LINE
8
BLACK
6
CONTINUOUS
10
13.8016
20
-231.559
11
13.8149
21
-231.561
0
LINE
8
BLACK
6
CONTINUOUS
10
13.8149
20
-231.561
11
13.8152
21
-231.561
0
LINE
8
BLACK
6
CONTINUOUS
10
13.8152
20
-231.561
11
13.8152
21
-231.561
0
LINE
8
BLACK
6
CONTINUOUS
10
13.8152
20
-231.561
11
13.8152
21
-231.561
0
LINE
8
BLACK
6
CONTINUOUS
10
13.8152
20
-231.561
11
13.8155
21
-231.561
0
LINE
8
BLACK
6
CONTINUOUS
10
13.8155
20
-231.561
11
13.8157
21
-231.561
0
LINE
8
BLACK
6
CONTINUOUS
10
13.8157
20
-231.561
11
14.0497
21
-231.658
0
LINE
8
BLACK
6
CONTINUOUS
10
14.0497
20
-231.658
11
14.2707
21
-231.783
0
LINE
8
BLACK
6
CONTINUOUS
10
14.2707
20
-231.783
11
14.4745
21
-231.935
0
LINE
8
BLACK
6
CONTINUOUS
10
14.4745
20
-231.935
11
14.6579
21
-232.111
0
LINE
8
BLACK
6
CONTINUOUS
10
14.6579
20
-232.111
11
14.8182
21
-232.308
0
LINE
8
BLACK
6
CONTINUOUS
10
14.8182
20
-232.308
11
14.9528
21
-232.524
0
LINE
8
BLACK
6
CONTINUOUS
10
14.9528
20
-232.524
11
15.0597
21
-232.755
0
LINE
8
BLACK
6
CONTINUOUS
10
15.0597
20
-232.755
11
15.1372
21
-232.997
0
LINE
8
BLACK
6
CONTINUOUS
10
15.1372
20
-232.997
11
15.1842
21
-233.246
0
LINE
8
BLACK
6
CONTINUOUS
10
15.1842
20
-233.246
11
15.2
21
-233.5
0
LINE
8
BLACK
6
CONTINUOUS
10
15.2
20
-233.5
11
15.2
21
-233.5
0
LINE
8
BLACK
6
CONTINUOUS
10
15.2
20
-233.5
11
15.2
21
-314
0
LINE
8
BLACK
6
CONTINUOUS
10
15.2
20
-314
11
15.2
21
-314
0
LINE
8
BLACK
6
CONTINUOUS
10
15.2
20
-314
11
15.2
21
-314.001
0
LINE
8
BLACK
6
CONTINUOUS
10
15.2
20
-314.001
11
15.197
21
-314.014
0
LINE
8
BLACK
6
CONTINUOUS
10
15.197
20
-314.014
11
15.2116
21
-314.235
0
LINE
8
BLACK
6
CONTINUOUS
10
15.2116
20
-314.235
11
15.2576
21
-314.467
0
LINE
8
BLACK
6
CONTINUOUS
10
15.2576
20
-314.467
11
15.3334
21
-314.69
0
LINE
8
BLACK
6
CONTINUOUS
10
15.3334
20
-314.69
11
15.4378
21
-314.902
0
LINE
8
BLACK
6
CONTINUOUS
10
15.4378
20
-314.902
11
15.5689
21
-315.098
0
LINE
8
BLACK
6
CONTINUOUS
10
15.5689
20
-315.098
11
15.7245
21
-315.276
0
LINE
8
BLACK
6
CONTINUOUS
10
15.7245
20
-315.276
11
15.9019
21
-315.431
0
LINE
8
BLACK
6
CONTINUOUS
10
15.9019
20
-315.431
11
16.0981
21
-315.562
0
LINE
8
BLACK
6
CONTINUOUS
10
16.0981
20
-315.562
11
16.3097
21
-315.667
0
LINE
8
BLACK
6
CONTINUOUS
10
16.3097
20
-315.667
11
16.5331
21
-315.742
0
LINE
8
BLACK
6
CONTINUOUS
10
16.5331
20
-315.742
11
16.7645
21
-315.788
0
LINE
8
BLACK
6
CONTINUOUS
10
16.7645
20
-315.788
11
16.9869
21
-315.803
0
LINE
8
BLACK
6
CONTINUOUS
10
16.9869
20
-315.803
11
17
21
-315.8
0
LINE
8
BLACK
6
CONTINUOUS
10
17
20
-315.8
11
87.9647
21
-315.8
0
LINE
8
BLACK
6
CONTINUOUS
10
87.9647
20
-315.8
11
87.9851
21
-315.805
0
LINE
8
BLACK
6
CONTINUOUS
10
87.9851
20
-315.805
11
88.006
21
-315.804
0
LINE
8
BLACK
6
CONTINUOUS
10
88.006
20
-315.804
11
169.486
21
-333.158
0
LINE
8
BLACK
6
CONTINUOUS
10
169.486
20
-333.158
11
169.486
21
-333.158
0
LINE
8
BLACK
6
CONTINUOUS
10
169.486
20
-333.158
11
169.486
21
-333.158
0
LINE
8
BLACK
6
CONTINUOUS
10
169.486
20
-333.158
11
169.498
21
-333.164
0
LINE
8
BLACK
6
CONTINUOUS
10
169.498
20
-333.164
11
169.718
21
-333.196
0
LINE
8
BLACK
6
CONTINUOUS
10
169.718
20
-333.196
11
169.954
21
-333.199
0
LINE
8
BLACK
6
CONTINUOUS
10
169.954
20
-333.199
11
170.189
21
-333.171
0
LINE
8
BLACK
6
CONTINUOUS
10
170.189
20
-333.171
11
170.417
21
-333.113
0
LINE
8
BLACK
6
CONTINUOUS
10
170.417
20
-333.113
11
170.636
21
-333.026
0
LINE
8
BLACK
6
CONTINUOUS
10
170.636
20
-333.026
11
170.842
21
-332.911
0
LINE
8
BLACK
6
CONTINUOUS
10
170.842
20
-332.911
11
171.031
21
-332.769
0
LINE
8
BLACK
6
CONTINUOUS
10
171.031
20
-332.769
11
171.2
21
-332.605
0
LINE
8
BLACK
6
CONTINUOUS
10
171.2
20
-332.605
11
171.346
21
-332.419
0
LINE
8
BLACK
6
CONTINUOUS
10
171.346
20
-332.419
11
171.467
21
-332.217
0
LINE
8
BLACK
6
CONTINUOUS
10
171.467
20
-332.217
11
171.56
21
-332
0
LINE
8
BLACK
6
CONTINUOUS
10
171.56
20
-332
11
171.621
21
-331.785
0
LINE
8
BLACK
6
CONTINUOUS
10
171.621
20
-331.785
11
171.621
21
-331.772
0
LINE
8
BLACK
6
CONTINUOUS
10
171.621
20
-331.772
11
174.76
21
-317.002
0
LINE
8
BLACK
6
CONTINUOUS
10
174.76
20
-317.002
11
174.76
21
-317.002
0
LINE
8
BLACK
6
CONTINUOUS
10
174.76
20
-317.002
11
174.76
21
-317.002
0
LINE
8
BLACK
6
CONTINUOUS
10
174.76
20
-317.002
11
174.766
21
-316.989
0
LINE
8
BLACK
6
CONTINUOUS
10
174.766
20
-316.989
11
174.798
21
-316.769
0
LINE
8
BLACK
6
CONTINUOUS
10
174.798
20
-316.769
11
174.801
21
-316.533
0
LINE
8
BLACK
6
CONTINUOUS
10
174.801
20
-316.533
11
174.773
21
-316.299
0
LINE
8
BLACK
6
CONTINUOUS
10
174.773
20
-316.299
11
174.715
21
-316.07
0
LINE
8
BLACK
6
CONTINUOUS
10
174.715
20
-316.07
11
174.628
21
-315.851
0
LINE
8
BLACK
6
CONTINUOUS
10
174.628
20
-315.851
11
174.512
21
-315.645
0
LINE
8
BLACK
6
CONTINUOUS
10
174.512
20
-315.645
11
174.371
21
-315.456
0
LINE
8
BLACK
6
CONTINUOUS
10
174.371
20
-315.456
11
174.206
21
-315.287
0
LINE
8
BLACK
6
CONTINUOUS
10
174.206
20
-315.287
11
174.021
21
-315.141
0
LINE
8
BLACK
6
CONTINUOUS
10
174.021
20
-315.141
11
173.818
21
-315.02
0
LINE
8
BLACK
6
CONTINUOUS
10
173.818
20
-315.02
11
173.602
21
-314.927
0
LINE
8
BLACK
6
CONTINUOUS
10
173.602
20
-314.927
11
173.387
21
-314.867
0
LINE
8
BLACK
6
CONTINUOUS
10
173.387
20
-314.867
11
173.374
21
-314.867
0
LINE
8
BLACK
6
CONTINUOUS
10
173.374
20
-314.867
11
173.373
21
-314.867
0
LINE
8
BLACK
6
CONTINUOUS
10
173.373
20
-314.867
11
173.373
21
-314.867
0
LINE
8
BLACK
6
CONTINUOUS
10
173.373
20
-314.867
11
173.373
21
-314.867
0
LINE
8
BLACK
6
CONTINUOUS
10
173.373
20
-314.867
11
167.945
21
-313.713
0
LINE
8
BLACK
6
CONTINUOUS
10
167.945
20
-313.713
11
167.945
21
-313.713
0
LINE
8
BLACK
6
CONTINUOUS
10
167.945
20
-313.713
11
167.944
21
-313.713
0
LINE
8
BLACK
6
CONTINUOUS
10
167.944
20
-313.713
11
167.944
21
-313.713
0
LINE
8
BLACK
6
CONTINUOUS
10
167.944
20
-313.713
11
167.689
21
-313.642
0
LINE
8
BLACK
6
CONTINUOUS
10
167.689
20
-313.642
11
167.443
21
-313.541
0
LINE
8
BLACK
6
CONTINUOUS
10
167.443
20
-313.541
11
167.212
21
-313.411
0
LINE
8
BLACK
6
CONTINUOUS
10
167.212
20
-313.411
11
166.997
21
-313.254
0
LINE
8
BLACK
6
CONTINUOUS
10
166.997
20
-313.254
11
166.803
21
-313.072
0
LINE
8
BLACK
6
CONTINUOUS
10
166.803
20
-313.072
11
166.633
21
-312.869
0
LINE
8
BLACK
6
CONTINUOUS
10
166.633
20
-312.869
11
166.488
21
-312.646
0
LINE
8
BLACK
6
CONTINUOUS
10
166.488
20
-312.646
11
166.371
21
-312.407
0
LINE
8
BLACK
6
CONTINUOUS
10
166.371
20
-312.407
11
166.284
21
-312.156
0
LINE
8
BLACK
6
CONTINUOUS
10
166.284
20
-312.156
11
166.228
21
-311.897
0
LINE
8
BLACK
6
CONTINUOUS
10
166.228
20
-311.897
11
166.203
21
-311.632
0
LINE
8
BLACK
6
CONTINUOUS
10
166.203
20
-311.632
11
166.211
21
-311.366
0
LINE
8
BLACK
6
CONTINUOUS
10
166.211
20
-311.366
11
166.25
21
-311.104
0
LINE
8
BLACK
6
CONTINUOUS
10
166.25
20
-311.104
11
166.25
21
-311.104
0
LINE
8
BLACK
6
CONTINUOUS
10
166.25
20
-311.104
11
166.25
21
-311.104
0
LINE
8
BLACK
6
CONTINUOUS
10
166.25
20
-311.104
11
166.25
21
-311.104
0
LINE
8
BLACK
6
CONTINUOUS
10
166.25
20
-311.104
11
169.379
21
-296.382
0
LINE
8
BLACK
6
CONTINUOUS
10
169.379
20
-296.382
11
169.379
21
-296.382
0
LINE
8
BLACK
6
CONTINUOUS
10
169.379
20
-296.382
11
169.379
21
-296.382
0
LINE
8
BLACK
6
CONTINUOUS
10
169.379
20
-296.382
11
169.385
21
-296.37
0
LINE
8
BLACK
6
CONTINUOUS
10
169.385
20
-296.37
11
169.417
21
-296.15
0
LINE
8
BLACK
6
CONTINUOUS
10
169.417
20
-296.15
11
169.42
21
-295.914
0
LINE
8
BLACK
6
CONTINUOUS
10
169.42
20
-295.914
11
169.392
21
-295.68
0
LINE
8
BLACK
6
CONTINUOUS
10
169.392
20
-295.68
11
169.334
21
-295.451
0
LINE
8
BLACK
6
CONTINUOUS
10
169.334
20
-295.451
11
169.247
21
-295.232
0
LINE
8
BLACK
6
CONTINUOUS
10
169.247
20
-295.232
11
169.132
21
-295.026
0
LINE
8
BLACK
6
CONTINUOUS
10
169.132
20
-295.026
11
168.99
21
-294.837
0
LINE
8
BLACK
6
CONTINUOUS
10
168.99
20
-294.837
11
168.826
21
-294.668
0
LINE
8
BLACK
6
CONTINUOUS
10
168.826
20
-294.668
11
168.64
21
-294.522
0
LINE
8
BLACK
6
CONTINUOUS
10
168.64
20
-294.522
11
168.438
21
-294.401
0
LINE
8
BLACK
6
CONTINUOUS
10
168.438
20
-294.401
11
168.221
21
-294.308
0
LINE
8
BLACK
6
CONTINUOUS
10
168.221
20
-294.308
11
168.006
21
-294.248
0
LINE
8
BLACK
6
CONTINUOUS
10
168.006
20
-294.248
11
167.993
21
-294.248
0
LINE
8
BLACK
6
CONTINUOUS
10
167.993
20
-294.248
11
162.613
21
-293.104
0
LINE
8
BLACK
6
CONTINUOUS
10
162.613
20
-293.104
11
162.613
21
-293.104
0
LINE
8
BLACK
6
CONTINUOUS
10
162.613
20
-293.104
11
162.613
21
-293.104
0
LINE
8
BLACK
6
CONTINUOUS
10
162.613
20
-293.104
11
162.612
21
-293.104
0
LINE
8
BLACK
6
CONTINUOUS
10
162.612
20
-293.104
11
162.357
21
-293.033
0
LINE
8
BLACK
6
CONTINUOUS
10
162.357
20
-293.033
11
162.111
21
-292.932
0
LINE
8
BLACK
6
CONTINUOUS
10
162.111
20
-292.932
11
161.88
21
-292.802
0
LINE
8
BLACK
6
CONTINUOUS
10
161.88
20
-292.802
11
161.666
21
-292.645
0
LINE
8
BLACK
6
CONTINUOUS
10
161.666
20
-292.645
11
161.472
21
-292.463
0
LINE
8
BLACK
6
CONTINUOUS
10
161.472
20
-292.463
11
161.301
21
-292.26
0
LINE
8
BLACK
6
CONTINUOUS
10
161.301
20
-292.26
11
161.157
21
-292.037
0
LINE
8
BLACK
6
CONTINUOUS
10
161.157
20
-292.037
11
161.04
21
-291.798
0
LINE
8
BLACK
6
CONTINUOUS
10
161.04
20
-291.798
11
160.953
21
-291.547
0
LINE
8
BLACK
6
CONTINUOUS
10
160.953
20
-291.547
11
160.896
21
-291.288
0
LINE
8
BLACK
6
CONTINUOUS
10
160.896
20
-291.288
11
160.872
21
-291.023
0
LINE
8
BLACK
6
CONTINUOUS
10
160.872
20
-291.023
11
160.879
21
-290.758
0
LINE
8
BLACK
6
CONTINUOUS
10
160.879
20
-290.758
11
160.919
21
-290.495
0
LINE
8
BLACK
6
CONTINUOUS
10
160.919
20
-290.495
11
160.919
21
-290.495
0
LINE
8
BLACK
6
CONTINUOUS
10
160.919
20
-290.495
11
164.058
21
-275.725
0
LINE
8
BLACK
6
CONTINUOUS
10
164.058
20
-275.725
11
164.061
21
-275.719
0
LINE
8
BLACK
6
CONTINUOUS
10
164.061
20
-275.719
11
164.064
21
-275.712
0
LINE
8
BLACK
6
CONTINUOUS
10
164.064
20
-275.712
11
164.096
21
-275.492
0
LINE
8
BLACK
6
CONTINUOUS
10
164.096
20
-275.492
11
164.099
21
-275.256
0
LINE
8
BLACK
6
CONTINUOUS
10
164.099
20
-275.256
11
164.071
21
-275.022
0
LINE
8
BLACK
6
CONTINUOUS
10
164.071
20
-275.022
11
164.013
21
-274.793
0
LINE
8
BLACK
6
CONTINUOUS
10
164.013
20
-274.793
11
163.926
21
-274.574
0
LINE
8
BLACK
6
CONTINUOUS
10
163.926
20
-274.574
11
163.81
21
-274.368
0
LINE
8
BLACK
6
CONTINUOUS
10
163.81
20
-274.368
11
163.669
21
-274.179
0
LINE
8
BLACK
6
CONTINUOUS
10
163.669
20
-274.179
11
163.504
21
-274.01
0
LINE
8
BLACK
6
CONTINUOUS
10
163.504
20
-274.01
11
163.319
21
-273.864
0
LINE
8
BLACK
6
CONTINUOUS
10
163.319
20
-273.864
11
163.116
21
-273.743
0
LINE
8
BLACK
6
CONTINUOUS
10
163.116
20
-273.743
11
162.9
21
-273.65
0
LINE
8
BLACK
6
CONTINUOUS
10
162.9
20
-273.65
11
162.685
21
-273.59
0
LINE
8
BLACK
6
CONTINUOUS
10
162.685
20
-273.59
11
162.672
21
-273.59
0
LINE
8
BLACK
6
CONTINUOUS
10
162.672
20
-273.59
11
161.938
21
-273.434
0
LINE
8
BLACK
6
CONTINUOUS
10
161.938
20
-273.434
11
161.938
21
-273.434
0
LINE
8
BLACK
6
CONTINUOUS
10
161.938
20
-273.434
11
161.938
21
-273.434
0
LINE
8
BLACK
6
CONTINUOUS
10
161.938
20
-273.434
11
161.938
21
-273.434
0
LINE
8
BLACK
6
CONTINUOUS
10
161.938
20
-273.434
11
161.938
21
-273.434
0
LINE
8
BLACK
6
CONTINUOUS
10
161.938
20
-273.434
11
161.937
21
-273.434
0
LINE
8
BLACK
6
CONTINUOUS
10
161.937
20
-273.434
11
161.937
21
-273.434
0
LINE
8
BLACK
6
CONTINUOUS
10
161.937
20
-273.434
11
161.682
21
-273.363
0
LINE
8
BLACK
6
CONTINUOUS
10
161.682
20
-273.363
11
161.436
21
-273.262
0
LINE
8
BLACK
6
CONTINUOUS
10
161.436
20
-273.262
11
161.205
21
-273.132
0
LINE
8
BLACK
6
CONTINUOUS
10
161.205
20
-273.132
11
160.99
21
-272.975
0
LINE
8
BLACK
6
CONTINUOUS
10
160.99
20
-272.975
11
160.797
21
-272.793
0
LINE
8
BLACK
6
CONTINUOUS
10
160.797
20
-272.793
11
160.626
21
-272.59
0
LINE
8
BLACK
6
CONTINUOUS
10
160.626
20
-272.59
11
160.481
21
-272.367
0
LINE
8
BLACK
6
CONTINUOUS
10
160.481
20
-272.367
11
160.365
21
-272.128
0
LINE
8
BLACK
6
CONTINUOUS
10
160.365
20
-272.128
11
160.278
21
-271.877
0
LINE
8
BLACK
6
CONTINUOUS
10
160.278
20
-271.877
11
160.221
21
-271.617
0
LINE
8
BLACK
6
CONTINUOUS
10
160.221
20
-271.617
11
160.197
21
-271.353
0
LINE
8
BLACK
6
CONTINUOUS
10
160.197
20
-271.353
11
160.204
21
-271.087
0
LINE
8
BLACK
6
CONTINUOUS
10
160.204
20
-271.087
11
160.244
21
-270.825
0
LINE
8
BLACK
6
CONTINUOUS
10
160.244
20
-270.825
11
160.244
21
-270.825
0
LINE
8
BLACK
6
CONTINUOUS
10
160.244
20
-270.825
11
163.539
21
-255.321
0
LINE
8
BLACK
6
CONTINUOUS
10
163.539
20
-255.321
11
163.539
21
-255.321
0
LINE
8
BLACK
6
CONTINUOUS
10
163.539
20
-255.321
11
163.539
21
-255.32
0
LINE
8
BLACK
6
CONTINUOUS
10
163.539
20
-255.32
11
163.539
21
-255.32
0
LINE
8
BLACK
6
CONTINUOUS
10
163.539
20
-255.32
11
163.61
21
-255.065
0
LINE
8
BLACK
6
CONTINUOUS
10
163.61
20
-255.065
11
163.711
21
-254.819
0
LINE
8
BLACK
6
CONTINUOUS
10
163.711
20
-254.819
11
163.841
21
-254.588
0
LINE
8
BLACK
6
CONTINUOUS
10
163.841
20
-254.588
11
163.998
21
-254.373
0
LINE
8
BLACK
6
CONTINUOUS
10
163.998
20
-254.373
11
164.18
21
-254.18
0
LINE
8
BLACK
6
CONTINUOUS
10
164.18
20
-254.18
11
164.383
21
-254.009
0
LINE
8
BLACK
6
CONTINUOUS
10
164.383
20
-254.009
11
164.606
21
-253.864
0
LINE
8
BLACK
6
CONTINUOUS
10
164.606
20
-253.864
11
164.845
21
-253.748
0
LINE
8
BLACK
6
CONTINUOUS
10
164.845
20
-253.748
11
165.096
21
-253.66
0
LINE
8
BLACK
6
CONTINUOUS
10
165.096
20
-253.66
11
165.356
21
-253.604
0
LINE
8
BLACK
6
CONTINUOUS
10
165.356
20
-253.604
11
165.62
21
-253.58
0
LINE
8
BLACK
6
CONTINUOUS
10
165.62
20
-253.58
11
165.886
21
-253.587
0
LINE
8
BLACK
6
CONTINUOUS
10
165.886
20
-253.587
11
166.148
21
-253.626
0
LINE
8
BLACK
6
CONTINUOUS
10
166.148
20
-253.626
11
166.148
21
-253.627
0
LINE
8
BLACK
6
CONTINUOUS
10
166.148
20
-253.627
11
166.149
21
-253.627
0
LINE
8
BLACK
6
CONTINUOUS
10
166.149
20
-253.627
11
171.528
21
-254.77
0
LINE
8
BLACK
6
CONTINUOUS
10
171.528
20
-254.77
11
171.528
21
-254.77
0
LINE
8
BLACK
6
CONTINUOUS
10
171.528
20
-254.77
11
171.528
21
-254.77
0
LINE
8
BLACK
6
CONTINUOUS
10
171.528
20
-254.77
11
171.54
21
-254.776
0
LINE
8
BLACK
6
CONTINUOUS
10
171.54
20
-254.776
11
171.761
21
-254.808
0
LINE
8
BLACK
6
CONTINUOUS
10
171.761
20
-254.808
11
171.997
21
-254.811
0
LINE
8
BLACK
6
CONTINUOUS
10
171.997
20
-254.811
11
172.231
21
-254.783
0
LINE
8
BLACK
6
CONTINUOUS
10
172.231
20
-254.783
11
172.46
21
-254.725
0
LINE
8
BLACK
6
CONTINUOUS
10
172.46
20
-254.725
11
172.679
21
-254.638
0
LINE
8
BLACK
6
CONTINUOUS
10
172.679
20
-254.638
11
172.885
21
-254.522
0
LINE
8
BLACK
6
CONTINUOUS
10
172.885
20
-254.522
11
173.074
21
-254.381
0
LINE
8
BLACK
6
CONTINUOUS
10
173.074
20
-254.381
11
173.243
21
-254.216
0
LINE
8
BLACK
6
CONTINUOUS
10
173.243
20
-254.216
11
173.389
21
-254.031
0
LINE
8
BLACK
6
CONTINUOUS
10
173.389
20
-254.031
11
173.51
21
-253.828
0
LINE
8
BLACK
6
CONTINUOUS
10
173.51
20
-253.828
11
173.603
21
-253.612
0
LINE
8
BLACK
6
CONTINUOUS
10
173.603
20
-253.612
11
173.663
21
-253.397
0
LINE
8
BLACK
6
CONTINUOUS
10
173.663
20
-253.397
11
173.663
21
-253.384
0
LINE
8
BLACK
6
CONTINUOUS
10
173.663
20
-253.384
11
176.615
21
-239.494
0
LINE
8
BLACK
6
CONTINUOUS
10
176.615
20
-239.494
11
176.621
21
-239.481
0
LINE
8
BLACK
6
CONTINUOUS
10
176.621
20
-239.481
11
176.653
21
-239.261
0
LINE
8
BLACK
6
CONTINUOUS
10
176.653
20
-239.261
11
176.656
21
-239.025
0
LINE
8
BLACK
6
CONTINUOUS
10
176.656
20
-239.025
11
176.628
21
-238.791
0
LINE
8
BLACK
6
CONTINUOUS
10
176.628
20
-238.791
11
176.57
21
-238.562
0
LINE
8
BLACK
6
CONTINUOUS
10
176.57
20
-238.562
11
176.483
21
-238.343
0
LINE
8
BLACK
6
CONTINUOUS
10
176.483
20
-238.343
11
176.368
21
-238.137
0
LINE
8
BLACK
6
CONTINUOUS
10
176.368
20
-238.137
11
176.226
21
-237.948
0
LINE
8
BLACK
6
CONTINUOUS
10
176.226
20
-237.948
11
176.062
21
-237.779
0
LINE
8
BLACK
6
CONTINUOUS
10
176.062
20
-237.779
11
175.876
21
-237.633
0
LINE
8
BLACK
6
CONTINUOUS
10
175.876
20
-237.633
11
175.674
21
-237.512
0
LINE
8
BLACK
6
CONTINUOUS
10
175.674
20
-237.512
11
175.457
21
-237.419
0
LINE
8
BLACK
6
CONTINUOUS
10
175.457
20
-237.419
11
175.242
21
-237.359
0
LINE
8
BLACK
6
CONTINUOUS
10
175.242
20
-237.359
11
175.229
21
-237.359
0
LINE
8
BLACK
6
CONTINUOUS
10
175.229
20
-237.359
11
70.979
21
-215.2
0
LINE
8
BLACK
6
CONTINUOUS
10
70.979
20
-215.2
11
12.7
21
-215.2
0
LINE
8
BLACK
6
CONTINUOUS
10
12.7
20
-215.2
11
12.7
21
-230
0
LINE
8
BLACK
6
CONTINUOUS
10
12.7
20
-230
11
12.7
21
-230.001
0
LINE
8
BLACK
6
CONTINUOUS
10
271.432
20
-332.548
11
271.432
21
-332.548
0
LINE
8
BLACK
6
CONTINUOUS
10
271.432
20
-332.548
11
271.432
21
-332.548
0
LINE
8
BLACK
6
CONTINUOUS
10
271.432
20
-332.548
11
271.432
21
-332.548
0
LINE
8
BLACK
6
CONTINUOUS
10
271.432
20
-332.548
11
271.432
21
-332.548
0
LINE
8
BLACK
6
CONTINUOUS
10
271.432
20
-332.548
11
271.432
21
-332.548
0
LINE
8
BLACK
6
CONTINUOUS
10
271.432
20
-332.548
11
271.431
21
-332.548
0
LINE
8
BLACK
6
CONTINUOUS
10
271.431
20
-332.548
11
271.17
21
-332.587
0
LINE
8
BLACK
6
CONTINUOUS
10
271.17
20
-332.587
11
270.904
21
-332.595
0
LINE
8
BLACK
6
CONTINUOUS
10
270.904
20
-332.595
11
270.639
21
-332.57
0
LINE
8
BLACK
6
CONTINUOUS
10
270.639
20
-332.57
11
270.38
21
-332.514
0
LINE
8
BLACK
6
CONTINUOUS
10
270.38
20
-332.514
11
270.129
21
-332.427
0
LINE
8
BLACK
6
CONTINUOUS
10
270.129
20
-332.427
11
269.89
21
-332.31
0
LINE
8
BLACK
6
CONTINUOUS
10
269.89
20
-332.31
11
269.667
21
-332.165
0
LINE
8
BLACK
6
CONTINUOUS
10
269.667
20
-332.165
11
269.464
21
-331.995
0
LINE
8
BLACK
6
CONTINUOUS
10
269.464
20
-331.995
11
269.282
21
-331.801
0
LINE
8
BLACK
6
CONTINUOUS
10
269.282
20
-331.801
11
269.125
21
-331.586
0
LINE
8
BLACK
6
CONTINUOUS
10
269.125
20
-331.586
11
268.995
21
-331.355
0
LINE
8
BLACK
6
CONTINUOUS
10
268.995
20
-331.355
11
268.894
21
-331.109
0
LINE
8
BLACK
6
CONTINUOUS
10
268.894
20
-331.109
11
268.823
21
-330.853
0
LINE
8
BLACK
6
CONTINUOUS
10
268.823
20
-330.853
11
268.823
21
-330.853
0
LINE
8
BLACK
6
CONTINUOUS
10
268.823
20
-330.853
11
268.823
21
-330.853
0
LINE
8
BLACK
6
CONTINUOUS
10
268.823
20
-330.853
11
268.823
21
-330.853
0
LINE
8
BLACK
6
CONTINUOUS
10
268.823
20
-330.853
11
265.682
21
-316.078
0
LINE
8
BLACK
6
CONTINUOUS
10
265.682
20
-316.078
11
265.682
21
-316.078
0
LINE
8
BLACK
6
CONTINUOUS
10
265.682
20
-316.078
11
265.682
21
-316.078
0
LINE
8
BLACK
6
CONTINUOUS
10
265.682
20
-316.078
11
265.682
21
-316.077
0
LINE
8
BLACK
6
CONTINUOUS
10
265.682
20
-316.077
11
265.643
21
-315.816
0
LINE
8
BLACK
6
CONTINUOUS
10
265.643
20
-315.816
11
265.636
21
-315.55
0
LINE
8
BLACK
6
CONTINUOUS
10
265.636
20
-315.55
11
265.66
21
-315.286
0
LINE
8
BLACK
6
CONTINUOUS
10
265.66
20
-315.286
11
265.716
21
-315.026
0
LINE
8
BLACK
6
CONTINUOUS
10
265.716
20
-315.026
11
265.804
21
-314.775
0
LINE
8
BLACK
6
CONTINUOUS
10
265.804
20
-314.775
11
265.92
21
-314.536
0
LINE
8
BLACK
6
CONTINUOUS
10
265.92
20
-314.536
11
266.065
21
-314.314
0
LINE
8
BLACK
6
CONTINUOUS
10
266.065
20
-314.314
11
266.236
21
-314.11
0
LINE
8
BLACK
6
CONTINUOUS
10
266.236
20
-314.11
11
266.429
21
-313.928
0
LINE
8
BLACK
6
CONTINUOUS
10
266.429
20
-313.928
11
266.644
21
-313.771
0
LINE
8
BLACK
6
CONTINUOUS
10
266.644
20
-313.771
11
266.875
21
-313.641
0
LINE
8
BLACK
6
CONTINUOUS
10
266.875
20
-313.641
11
267.121
21
-313.54
0
LINE
8
BLACK
6
CONTINUOUS
10
267.121
20
-313.54
11
267.377
21
-313.469
0
LINE
8
BLACK
6
CONTINUOUS
10
267.377
20
-313.469
11
267.377
21
-313.469
0
LINE
8
BLACK
6
CONTINUOUS
10
267.377
20
-313.469
11
267.377
21
-313.469
0
LINE
8
BLACK
6
CONTINUOUS
10
267.377
20
-313.469
11
267.377
21
-313.469
0
LINE
8
BLACK
6
CONTINUOUS
10
267.377
20
-313.469
11
272.777
21
-312.321
0
LINE
8
BLACK
6
CONTINUOUS
10
272.777
20
-312.321
11
272.777
21
-312.321
0
LINE
8
BLACK
6
CONTINUOUS
10
272.777
20
-312.321
11
272.777
21
-312.321
0
LINE
8
BLACK
6
CONTINUOUS
10
272.777
20
-312.321
11
272.79
21
-312.322
0
LINE
8
BLACK
6
CONTINUOUS
10
272.79
20
-312.322
11
273.004
21
-312.261
0
LINE
8
BLACK
6
CONTINUOUS
10
273.004
20
-312.261
11
273.221
21
-312.168
0
LINE
8
BLACK
6
CONTINUOUS
10
273.221
20
-312.168
11
273.424
21
-312.047
0
LINE
8
BLACK
6
CONTINUOUS
10
273.424
20
-312.047
11
273.609
21
-311.901
0
LINE
8
BLACK
6
CONTINUOUS
10
273.609
20
-311.901
11
273.774
21
-311.732
0
LINE
8
BLACK
6
CONTINUOUS
10
273.774
20
-311.732
11
273.915
21
-311.543
0
LINE
8
BLACK
6
CONTINUOUS
10
273.915
20
-311.543
11
274.03
21
-311.337
0
LINE
8
BLACK
6
CONTINUOUS
10
274.03
20
-311.337
11
274.118
21
-311.118
0
LINE
8
BLACK
6
CONTINUOUS
10
274.118
20
-311.118
11
274.176
21
-310.889
0
LINE
8
BLACK
6
CONTINUOUS
10
274.176
20
-310.889
11
274.204
21
-310.655
0
LINE
8
BLACK
6
CONTINUOUS
10
274.204
20
-310.655
11
274.2
21
-310.419
0
LINE
8
BLACK
6
CONTINUOUS
10
274.2
20
-310.419
11
274.168
21
-310.199
0
LINE
8
BLACK
6
CONTINUOUS
10
274.168
20
-310.199
11
274.163
21
-310.186
0
LINE
8
BLACK
6
CONTINUOUS
10
274.163
20
-310.186
11
270.857
21
-294.634
0
LINE
8
BLACK
6
CONTINUOUS
10
270.857
20
-294.634
11
270.857
21
-294.62
0
LINE
8
BLACK
6
CONTINUOUS
10
270.857
20
-294.62
11
270.797
21
-294.406
0
LINE
8
BLACK
6
CONTINUOUS
10
270.797
20
-294.406
11
270.704
21
-294.189
0
LINE
8
BLACK
6
CONTINUOUS
10
270.704
20
-294.189
11
270.583
21
-293.986
0
LINE
8
BLACK
6
CONTINUOUS
10
270.583
20
-293.986
11
270.437
21
-293.801
0
LINE
8
BLACK
6
CONTINUOUS
10
270.437
20
-293.801
11
270.268
21
-293.636
0
LINE
8
BLACK
6
CONTINUOUS
10
270.268
20
-293.636
11
270.079
21
-293.495
0
LINE
8
BLACK
6
CONTINUOUS
10
270.079
20
-293.495
11
269.873
21
-293.38
0
LINE
8
BLACK
6
CONTINUOUS
10
269.873
20
-293.38
11
269.654
21
-293.293
0
LINE
8
BLACK
6
CONTINUOUS
10
269.654
20
-293.293
11
269.425
21
-293.235
0
LINE
8
BLACK
6
CONTINUOUS
10
269.425
20
-293.235
11
269.191
21
-293.207
0
LINE
8
BLACK
6
CONTINUOUS
10
269.191
20
-293.207
11
268.955
21
-293.21
0
LINE
8
BLACK
6
CONTINUOUS
10
268.955
20
-293.21
11
268.734
21
-293.242
0
LINE
8
BLACK
6
CONTINUOUS
10
268.734
20
-293.242
11
268.722
21
-293.247
0
LINE
8
BLACK
6
CONTINUOUS
10
268.722
20
-293.247
11
267.949
21
-293.412
0
LINE
8
BLACK
6
CONTINUOUS
10
267.949
20
-293.412
11
267.949
21
-293.412
0
LINE
8
BLACK
6
CONTINUOUS
10
267.949
20
-293.412
11
267.949
21
-293.412
0
LINE
8
BLACK
6
CONTINUOUS
10
267.949
20
-293.412
11
267.948
21
-293.412
0
LINE
8
BLACK
6
CONTINUOUS
10
267.948
20
-293.412
11
267.687
21
-293.451
0
LINE
8
BLACK
6
CONTINUOUS
10
267.687
20
-293.451
11
267.421
21
-293.459
0
LINE
8
BLACK
6
CONTINUOUS
10
267.421
20
-293.459
11
267.157
21
-293.434
0
LINE
8
BLACK
6
CONTINUOUS
10
267.157
20
-293.434
11
266.897
21
-293.378
0
LINE
8
BLACK
6
CONTINUOUS
10
266.897
20
-293.378
11
266.646
21
-293.291
0
LINE
8
BLACK
6
CONTINUOUS
10
266.646
20
-293.291
11
266.407
21
-293.174
0
LINE
8
BLACK
6
CONTINUOUS
10
266.407
20
-293.174
11
266.185
21
-293.029
0
LINE
8
BLACK
6
CONTINUOUS
10
266.185
20
-293.029
11
265.981
21
-292.859
0
LINE
8
BLACK
6
CONTINUOUS
10
265.981
20
-292.859
11
265.799
21
-292.665
0
LINE
8
BLACK
6
CONTINUOUS
10
265.799
20
-292.665
11
265.642
21
-292.451
0
LINE
8
BLACK
6
CONTINUOUS
10
265.642
20
-292.451
11
265.512
21
-292.219
0
LINE
8
BLACK
6
CONTINUOUS
10
265.512
20
-292.219
11
265.411
21
-291.973
0
LINE
8
BLACK
6
CONTINUOUS
10
265.411
20
-291.973
11
265.34
21
-291.717
0
LINE
8
BLACK
6
CONTINUOUS
10
265.34
20
-291.717
11
265.34
21
-291.717
0
LINE
8
BLACK
6
CONTINUOUS
10
265.34
20
-291.717
11
262.209
21
-276.986
0
LINE
8
BLACK
6
CONTINUOUS
10
262.209
20
-276.986
11
262.209
21
-276.986
0
LINE
8
BLACK
6
CONTINUOUS
10
262.209
20
-276.986
11
262.209
21
-276.986
0
LINE
8
BLACK
6
CONTINUOUS
10
262.209
20
-276.986
11
262.209
21
-276.973
0
LINE
8
BLACK
6
CONTINUOUS
10
262.209
20
-276.973
11
262.149
21
-276.758
0
LINE
8
BLACK
6
CONTINUOUS
10
262.149
20
-276.758
11
262.055
21
-276.542
0
LINE
8
BLACK
6
CONTINUOUS
10
262.055
20
-276.542
11
261.935
21
-276.339
0
LINE
8
BLACK
6
CONTINUOUS
10
261.935
20
-276.339
11
261.789
21
-276.154
0
LINE
8
BLACK
6
CONTINUOUS
10
261.789
20
-276.154
11
261.62
21
-275.989
0
LINE
8
BLACK
6
CONTINUOUS
10
261.62
20
-275.989
11
261.431
21
-275.848
0
LINE
8
BLACK
6
CONTINUOUS
10
261.431
20
-275.848
11
261.225
21
-275.732
0
LINE
8
BLACK
6
CONTINUOUS
10
261.225
20
-275.732
11
261.006
21
-275.645
0
LINE
8
BLACK
6
CONTINUOUS
10
261.006
20
-275.645
11
260.777
21
-275.587
0
LINE
8
BLACK
6
CONTINUOUS
10
260.777
20
-275.587
11
260.543
21
-275.559
0
LINE
8
BLACK
6
CONTINUOUS
10
260.543
20
-275.559
11
260.307
21
-275.562
0
LINE
8
BLACK
6
CONTINUOUS
10
260.307
20
-275.562
11
260.086
21
-275.594
0
LINE
8
BLACK
6
CONTINUOUS
10
260.086
20
-275.594
11
260.074
21
-275.6
0
LINE
8
BLACK
6
CONTINUOUS
10
260.074
20
-275.6
11
259.34
21
-275.756
0
LINE
8
BLACK
6
CONTINUOUS
10
259.34
20
-275.756
11
259.34
21
-275.756
0
LINE
8
BLACK
6
CONTINUOUS
10
259.34
20
-275.756
11
259.34
21
-275.756
0
LINE
8
BLACK
6
CONTINUOUS
10
259.34
20
-275.756
11
259.339
21
-275.756
0
LINE
8
BLACK
6
CONTINUOUS
10
259.339
20
-275.756
11
259.078
21
-275.795
0
LINE
8
BLACK
6
CONTINUOUS
10
259.078
20
-275.795
11
258.812
21
-275.803
0
LINE
8
BLACK
6
CONTINUOUS
10
258.812
20
-275.803
11
258.548
21
-275.778
0
LINE
8
BLACK
6
CONTINUOUS
10
258.548
20
-275.778
11
258.288
21
-275.722
0
LINE
8
BLACK
6
CONTINUOUS
10
258.288
20
-275.722
11
258.037
21
-275.635
0
LINE
8
BLACK
6
CONTINUOUS
10
258.037
20
-275.635
11
257.798
21
-275.518
0
LINE
8
BLACK
6
CONTINUOUS
10
257.798
20
-275.518
11
257.576
21
-275.373
0
LINE
8
BLACK
6
CONTINUOUS
10
257.576
20
-275.373
11
257.372
21
-275.203
0
LINE
8
BLACK
6
CONTINUOUS
10
257.372
20
-275.203
11
257.19
21
-275.009
0
LINE
8
BLACK
6
CONTINUOUS
10
257.19
20
-275.009
11
257.033
21
-274.795
0
LINE
8
BLACK
6
CONTINUOUS
10
257.033
20
-274.795
11
256.903
21
-274.563
0
LINE
8
BLACK
6
CONTINUOUS
10
256.903
20
-274.563
11
256.802
21
-274.317
0
LINE
8
BLACK
6
CONTINUOUS
10
256.802
20
-274.317
11
256.731
21
-274.061
0
LINE
8
BLACK
6
CONTINUOUS
10
256.731
20
-274.061
11
256.731
21
-274.061
0
LINE
8
BLACK
6
CONTINUOUS
10
256.731
20
-274.061
11
253.781
21
-260.181
0
LINE
8
BLACK
6
CONTINUOUS
10
253.781
20
-260.181
11
253.781
21
-260.181
0
LINE
8
BLACK
6
CONTINUOUS
10
253.781
20
-260.181
11
253.781
21
-260.181
0
LINE
8
BLACK
6
CONTINUOUS
10
253.781
20
-260.181
11
253.781
21
-260.18
0
LINE
8
BLACK
6
CONTINUOUS
10
253.781
20
-260.18
11
253.741
21
-259.919
0
LINE
8
BLACK
6
CONTINUOUS
10
253.741
20
-259.919
11
253.734
21
-259.653
0
LINE
8
BLACK
6
CONTINUOUS
10
253.734
20
-259.653
11
253.758
21
-259.389
0
LINE
8
BLACK
6
CONTINUOUS
10
253.758
20
-259.389
11
253.815
21
-259.129
0
LINE
8
BLACK
6
CONTINUOUS
10
253.815
20
-259.129
11
253.902
21
-258.878
0
LINE
8
BLACK
6
CONTINUOUS
10
253.902
20
-258.878
11
254.019
21
-258.639
0
LINE
8
BLACK
6
CONTINUOUS
10
254.019
20
-258.639
11
254.163
21
-258.417
0
LINE
8
BLACK
6
CONTINUOUS
10
254.163
20
-258.417
11
254.334
21
-258.213
0
LINE
8
BLACK
6
CONTINUOUS
10
254.334
20
-258.213
11
254.528
21
-258.031
0
LINE
8
BLACK
6
CONTINUOUS
10
254.528
20
-258.031
11
254.742
21
-257.874
0
LINE
8
BLACK
6
CONTINUOUS
10
254.742
20
-257.874
11
254.974
21
-257.744
0
LINE
8
BLACK
6
CONTINUOUS
10
254.974
20
-257.744
11
255.219
21
-257.643
0
LINE
8
BLACK
6
CONTINUOUS
10
255.219
20
-257.643
11
255.475
21
-257.572
0
LINE
8
BLACK
6
CONTINUOUS
10
255.475
20
-257.572
11
255.475
21
-257.572
0
LINE
8
BLACK
6
CONTINUOUS
10
255.475
20
-257.572
11
255.475
21
-257.572
0
LINE
8
BLACK
6
CONTINUOUS
10
255.475
20
-257.572
11
260.865
21
-256.426
0
LINE
8
BLACK
6
CONTINUOUS
10
260.865
20
-256.426
11
260.865
21
-256.426
0
LINE
8
BLACK
6
CONTINUOUS
10
260.865
20
-256.426
11
260.865
21
-256.426
0
LINE
8
BLACK
6
CONTINUOUS
10
260.865
20
-256.426
11
260.879
21
-256.427
0
LINE
8
BLACK
6
CONTINUOUS
10
260.879
20
-256.427
11
261.093
21
-256.366
0
LINE
8
BLACK
6
CONTINUOUS
10
261.093
20
-256.366
11
261.31
21
-256.273
0
LINE
8
BLACK
6
CONTINUOUS
10
261.31
20
-256.273
11
261.512
21
-256.152
0
LINE
8
BLACK
6
CONTINUOUS
10
261.512
20
-256.152
11
261.698
21
-256.006
0
LINE
8
BLACK
6
CONTINUOUS
10
261.698
20
-256.006
11
261.862
21
-255.837
0
LINE
8
BLACK
6
CONTINUOUS
10
261.862
20
-255.837
11
262.003
21
-255.648
0
LINE
8
BLACK
6
CONTINUOUS
10
262.003
20
-255.648
11
262.119
21
-255.442
0
LINE
8
BLACK
6
CONTINUOUS
10
262.119
20
-255.442
11
262.206
21
-255.223
0
LINE
8
BLACK
6
CONTINUOUS
10
262.206
20
-255.223
11
262.264
21
-254.995
0
LINE
8
BLACK
6
CONTINUOUS
10
262.264
20
-254.995
11
262.292
21
-254.76
0
LINE
8
BLACK
6
CONTINUOUS
10
262.292
20
-254.76
11
262.289
21
-254.524
0
LINE
8
BLACK
6
CONTINUOUS
10
262.289
20
-254.524
11
262.257
21
-254.304
0
LINE
8
BLACK
6
CONTINUOUS
10
262.257
20
-254.304
11
262.251
21
-254.292
0
LINE
8
BLACK
6
CONTINUOUS
10
262.251
20
-254.292
11
259.118
21
-239.551
0
LINE
8
BLACK
6
CONTINUOUS
10
259.118
20
-239.551
11
259.118
21
-239.551
0
LINE
8
BLACK
6
CONTINUOUS
10
259.118
20
-239.551
11
259.118
21
-239.55
0
LINE
8
BLACK
6
CONTINUOUS
10
259.118
20
-239.55
11
259.118
21
-239.55
0
LINE
8
BLACK
6
CONTINUOUS
10
259.118
20
-239.55
11
259.079
21
-239.288
0
LINE
8
BLACK
6
CONTINUOUS
10
259.079
20
-239.288
11
259.071
21
-239.023
0
LINE
8
BLACK
6
CONTINUOUS
10
259.071
20
-239.023
11
259.096
21
-238.758
0
LINE
8
BLACK
6
CONTINUOUS
10
259.096
20
-238.758
11
259.152
21
-238.498
0
LINE
8
BLACK
6
CONTINUOUS
10
259.152
20
-238.498
11
259.239
21
-238.247
0
LINE
8
BLACK
6
CONTINUOUS
10
259.239
20
-238.247
11
259.356
21
-238.009
0
LINE
8
BLACK
6
CONTINUOUS
10
259.356
20
-238.009
11
259.501
21
-237.786
0
LINE
8
BLACK
6
CONTINUOUS
10
259.501
20
-237.786
11
259.671
21
-237.582
0
LINE
8
BLACK
6
CONTINUOUS
10
259.671
20
-237.582
11
259.865
21
-237.401
0
LINE
8
BLACK
6
CONTINUOUS
10
259.865
20
-237.401
11
260.079
21
-237.244
0
LINE
8
BLACK
6
CONTINUOUS
10
260.079
20
-237.244
11
260.311
21
-237.114
0
LINE
8
BLACK
6
CONTINUOUS
10
260.311
20
-237.114
11
260.557
21
-237.012
0
LINE
8
BLACK
6
CONTINUOUS
10
260.557
20
-237.012
11
260.812
21
-236.942
0
LINE
8
BLACK
6
CONTINUOUS
10
260.812
20
-236.942
11
260.813
21
-236.942
0
LINE
8
BLACK
6
CONTINUOUS
10
260.813
20
-236.942
11
260.813
21
-236.942
0
LINE
8
BLACK
6
CONTINUOUS
10
260.813
20
-236.942
11
364.959
21
-214.804
0
LINE
8
BLACK
6
CONTINUOUS
10
364.959
20
-214.804
11
364.98
21
-214.805
0
LINE
8
BLACK
6
CONTINUOUS
10
364.98
20
-214.805
11
365
21
-214.8
0
LINE
8
BLACK
6
CONTINUOUS
10
365
20
-214.8
11
428.5
21
-214.8
0
LINE
8
BLACK
6
CONTINUOUS
10
428.5
20
-214.8
11
428.522
21
-214.805
0
LINE
8
BLACK
6
CONTINUOUS
10
428.522
20
-214.805
11
428.545
21
-214.805
0
LINE
8
BLACK
6
CONTINUOUS
10
428.545
20
-214.805
11
428.565
21
-214.815
0
LINE
8
BLACK
6
CONTINUOUS
10
428.565
20
-214.815
11
428.587
21
-214.82
0
LINE
8
BLACK
6
CONTINUOUS
10
428.587
20
-214.82
11
428.605
21
-214.834
0
LINE
8
BLACK
6
CONTINUOUS
10
428.605
20
-214.834
11
428.625
21
-214.844
0
LINE
8
BLACK
6
CONTINUOUS
10
428.625
20
-214.844
11
428.639
21
-214.861
0
LINE
8
BLACK
6
CONTINUOUS
10
428.639
20
-214.861
11
428.657
21
-214.875
0
LINE
8
BLACK
6
CONTINUOUS
10
428.657
20
-214.875
11
428.666
21
-214.896
0
LINE
8
BLACK
6
CONTINUOUS
10
428.666
20
-214.896
11
428.68
21
-214.913
0
LINE
8
BLACK
6
CONTINUOUS
10
428.68
20
-214.913
11
428.685
21
-214.935
0
LINE
8
BLACK
6
CONTINUOUS
10
428.685
20
-214.935
11
428.695
21
-214.956
0
LINE
8
BLACK
6
CONTINUOUS
10
428.695
20
-214.956
11
428.695
21
-214.978
0
LINE
8
BLACK
6
CONTINUOUS
10
428.695
20
-214.978
11
428.7
21
-215
0
LINE
8
BLACK
6
CONTINUOUS
10
428.7
20
-215
11
428.7
21
-230
0
LINE
8
BLACK
6
CONTINUOUS
10
428.7
20
-230
11
428.7
21
-230
0
LINE
8
BLACK
6
CONTINUOUS
10
428.7
20
-230
11
428.7
21
-230.001
0
LINE
8
BLACK
6
CONTINUOUS
10
428.7
20
-230.001
11
428.7
21
-230.001
0
LINE
8
BLACK
6
CONTINUOUS
10
428.7
20
-230.001
11
428.684
21
-230.254
0
LINE
8
BLACK
6
CONTINUOUS
10
428.684
20
-230.254
11
428.637
21
-230.503
0
LINE
8
BLACK
6
CONTINUOUS
10
428.637
20
-230.503
11
428.56
21
-230.745
0
LINE
8
BLACK
6
CONTINUOUS
10
428.56
20
-230.745
11
428.453
21
-230.976
0
LINE
8
BLACK
6
CONTINUOUS
10
428.453
20
-230.976
11
428.318
21
-231.192
0
LINE
8
BLACK
6
CONTINUOUS
10
428.318
20
-231.192
11
428.158
21
-231.389
0
LINE
8
BLACK
6
CONTINUOUS
10
428.158
20
-231.389
11
427.974
21
-231.565
0
LINE
8
BLACK
6
CONTINUOUS
10
427.974
20
-231.565
11
427.771
21
-231.717
0
LINE
8
BLACK
6
CONTINUOUS
10
427.771
20
-231.717
11
427.55
21
-231.842
0
LINE
8
BLACK
6
CONTINUOUS
10
427.55
20
-231.842
11
427.315
21
-231.939
0
LINE
8
BLACK
6
CONTINUOUS
10
427.315
20
-231.939
11
427.315
21
-231.939
0
LINE
8
BLACK
6
CONTINUOUS
10
427.315
20
-231.939
11
427.314
21
-231.939
0
LINE
8
BLACK
6
CONTINUOUS
10
427.314
20
-231.939
11
427.301
21
-231.941
0
LINE
8
BLACK
6
CONTINUOUS
10
427.301
20
-231.941
11
427.104
21
-232.024
0
LINE
8
BLACK
6
CONTINUOUS
10
427.104
20
-232.024
11
426.908
21
-232.141
0
LINE
8
BLACK
6
CONTINUOUS
10
426.908
20
-232.141
11
426.73
21
-232.283
0
LINE
8
BLACK
6
CONTINUOUS
10
426.73
20
-232.283
11
426.574
21
-232.448
0
LINE
8
BLACK
6
CONTINUOUS
10
426.574
20
-232.448
11
426.441
21
-232.634
0
LINE
8
BLACK
6
CONTINUOUS
10
426.441
20
-232.634
11
426.336
21
-232.835
0
LINE
8
BLACK
6
CONTINUOUS
10
426.336
20
-232.835
11
426.259
21
-233.05
0
LINE
8
BLACK
6
CONTINUOUS
10
426.259
20
-233.05
11
426.212
21
-233.273
0
LINE
8
BLACK
6
CONTINUOUS
10
426.212
20
-233.273
11
426.197
21
-233.487
0
LINE
8
BLACK
6
CONTINUOUS
10
426.197
20
-233.487
11
426.2
21
-233.5
0
LINE
8
BLACK
6
CONTINUOUS
10
426.2
20
-233.5
11
426.2
21
-314
0
LINE
8
BLACK
6
CONTINUOUS
10
426.2
20
-314
11
426.2
21
-314
0
LINE
8
BLACK
6
CONTINUOUS
10
426.2
20
-314
11
426.2
21
-314.001
0
LINE
8
BLACK
6
CONTINUOUS
10
426.2
20
-314.001
11
426.2
21
-314.001
0
LINE
8
BLACK
6
CONTINUOUS
10
426.2
20
-314.001
11
426.184
21
-314.265
0
LINE
8
BLACK
6
CONTINUOUS
10
426.184
20
-314.265
11
426.136
21
-314.526
0
LINE
8
BLACK
6
CONTINUOUS
10
426.136
20
-314.526
11
426.057
21
-314.78
0
LINE
8
BLACK
6
CONTINUOUS
10
426.057
20
-314.78
11
425.948
21
-315.022
0
LINE
8
BLACK
6
CONTINUOUS
10
425.948
20
-315.022
11
425.811
21
-315.25
0
LINE
8
BLACK
6
CONTINUOUS
10
425.811
20
-315.25
11
425.647
21
-315.459
0
LINE
8
BLACK
6
CONTINUOUS
10
425.647
20
-315.459
11
425.459
21
-315.647
0
LINE
8
BLACK
6
CONTINUOUS
10
425.459
20
-315.647
11
425.25
21
-315.811
0
LINE
8
BLACK
6
CONTINUOUS
10
425.25
20
-315.811
11
425.022
21
-315.948
0
LINE
8
BLACK
6
CONTINUOUS
10
425.022
20
-315.948
11
424.78
21
-316.057
0
LINE
8
BLACK
6
CONTINUOUS
10
424.78
20
-316.057
11
424.526
21
-316.136
0
LINE
8
BLACK
6
CONTINUOUS
10
424.526
20
-316.136
11
424.265
21
-316.184
0
LINE
8
BLACK
6
CONTINUOUS
10
424.265
20
-316.184
11
424
21
-316.2
0
LINE
8
BLACK
6
CONTINUOUS
10
424
20
-316.2
11
424
21
-316.2
0
LINE
8
BLACK
6
CONTINUOUS
10
424
20
-316.2
11
348.341
21
-316.2
0
LINE
8
BLACK
6
CONTINUOUS
10
348.341
20
-316.2
11
271.432
21
-332.548
0
LINE
8
BLACK
6
CONTINUOUS
10
267.46
20
-313.86
11
267.446
21
-313.86
0
LINE
8
BLACK
6
CONTINUOUS
10
267.446
20
-313.86
11
267.232
21
-313.921
0
LINE
8
BLACK
6
CONTINUOUS
10
267.232
20
-313.921
11
267.015
21
-314.014
0
LINE
8
BLACK
6
CONTINUOUS
10
267.015
20
-314.014
11
266.813
21
-314.134
0
LINE
8
BLACK
6
CONTINUOUS
10
266.813
20
-314.134
11
266.627
21
-314.28
0
LINE
8
BLACK
6
CONTINUOUS
10
266.627
20
-314.28
11
266.463
21
-314.449
0
LINE
8
BLACK
6
CONTINUOUS
10
266.463
20
-314.449
11
266.322
21
-314.639
0
LINE
8
BLACK
6
CONTINUOUS
10
266.322
20
-314.639
11
266.206
21
-314.844
0
LINE
8
BLACK
6
CONTINUOUS
10
266.206
20
-314.844
11
266.119
21
-315.064
0
LINE
8
BLACK
6
CONTINUOUS
10
266.119
20
-315.064
11
266.061
21
-315.292
0
LINE
8
BLACK
6
CONTINUOUS
10
266.061
20
-315.292
11
266.033
21
-315.527
0
LINE
8
BLACK
6
CONTINUOUS
10
266.033
20
-315.527
11
266.036
21
-315.762
0
LINE
8
BLACK
6
CONTINUOUS
10
266.036
20
-315.762
11
266.068
21
-315.983
0
LINE
8
BLACK
6
CONTINUOUS
10
266.068
20
-315.983
11
266.074
21
-315.995
0
LINE
8
BLACK
6
CONTINUOUS
10
266.074
20
-315.995
11
269.214
21
-330.77
0
LINE
8
BLACK
6
CONTINUOUS
10
269.214
20
-330.77
11
269.214
21
-330.784
0
LINE
8
BLACK
6
CONTINUOUS
10
269.214
20
-330.784
11
269.274
21
-330.998
0
LINE
8
BLACK
6
CONTINUOUS
10
269.274
20
-330.998
11
269.368
21
-331.215
0
LINE
8
BLACK
6
CONTINUOUS
10
269.368
20
-331.215
11
269.488
21
-331.417
0
LINE
8
BLACK
6
CONTINUOUS
10
269.488
20
-331.417
11
269.634
21
-331.603
0
LINE
8
BLACK
6
CONTINUOUS
10
269.634
20
-331.603
11
269.803
21
-331.767
0
LINE
8
BLACK
6
CONTINUOUS
10
269.803
20
-331.767
11
269.992
21
-331.909
0
LINE
8
BLACK
6
CONTINUOUS
10
269.992
20
-331.909
11
270.198
21
-332.024
0
LINE
8
BLACK
6
CONTINUOUS
10
270.198
20
-332.024
11
270.417
21
-332.111
0
LINE
8
BLACK
6
CONTINUOUS
10
270.417
20
-332.111
11
270.646
21
-332.169
0
LINE
8
BLACK
6
CONTINUOUS
10
270.646
20
-332.169
11
270.88
21
-332.197
0
LINE
8
BLACK
6
CONTINUOUS
10
270.88
20
-332.197
11
271.116
21
-332.194
0
LINE
8
BLACK
6
CONTINUOUS
10
271.116
20
-332.194
11
271.337
21
-332.162
0
LINE
8
BLACK
6
CONTINUOUS
10
271.337
20
-332.162
11
271.349
21
-332.156
0
LINE
8
BLACK
6
CONTINUOUS
10
271.349
20
-332.156
11
348.279
21
-315.804
0
LINE
8
BLACK
6
CONTINUOUS
10
348.279
20
-315.804
11
348.3
21
-315.805
0
LINE
8
BLACK
6
CONTINUOUS
10
348.3
20
-315.805
11
348.32
21
-315.8
0
LINE
8
BLACK
6
CONTINUOUS
10
348.32
20
-315.8
11
424
21
-315.8
0
LINE
8
BLACK
6
CONTINUOUS
10
424
20
-315.8
11
424.013
21
-315.803
0
LINE
8
BLACK
6
CONTINUOUS
10
424.013
20
-315.803
11
424.235
21
-315.788
0
LINE
8
BLACK
6
CONTINUOUS
10
424.235
20
-315.788
11
424.467
21
-315.742
0
LINE
8
BLACK
6
CONTINUOUS
10
424.467
20
-315.742
11
424.69
21
-315.667
0
LINE
8
BLACK
6
CONTINUOUS
10
424.69
20
-315.667
11
424.902
21
-315.562
0
LINE
8
BLACK
6
CONTINUOUS
10
424.902
20
-315.562
11
425.098
21
-315.431
0
LINE
8
BLACK
6
CONTINUOUS
10
425.098
20
-315.431
11
425.276
21
-315.276
0
LINE
8
BLACK
6
CONTINUOUS
10
425.276
20
-315.276
11
425.431
21
-315.098
0
LINE
8
BLACK
6
CONTINUOUS
10
425.431
20
-315.098
11
425.562
21
-314.902
0
LINE
8
BLACK
6
CONTINUOUS
10
425.562
20
-314.902
11
425.667
21
-314.69
0
LINE
8
BLACK
6
CONTINUOUS
10
425.667
20
-314.69
11
425.742
21
-314.467
0
LINE
8
BLACK
6
CONTINUOUS
10
425.742
20
-314.467
11
425.788
21
-314.235
0
LINE
8
BLACK
6
CONTINUOUS
10
425.788
20
-314.235
11
425.803
21
-314.013
0
LINE
8
BLACK
6
CONTINUOUS
10
425.803
20
-314.013
11
425.8
21
-314
0
LINE
8
BLACK
6
CONTINUOUS
10
425.8
20
-314
11
425.8
21
-233.5
0
LINE
8
BLACK
6
CONTINUOUS
10
425.8
20
-233.5
11
425.8
21
-233.5
0
LINE
8
BLACK
6
CONTINUOUS
10
425.8
20
-233.5
11
425.8
21
-233.499
0
LINE
8
BLACK
6
CONTINUOUS
10
425.8
20
-233.499
11
425.8
21
-233.499
0
LINE
8
BLACK
6
CONTINUOUS
10
425.8
20
-233.499
11
425.816
21
-233.246
0
LINE
8
BLACK
6
CONTINUOUS
10
425.816
20
-233.246
11
425.863
21
-232.997
0
LINE
8
BLACK
6
CONTINUOUS
10
425.863
20
-232.997
11
425.94
21
-232.755
0
LINE
8
BLACK
6
CONTINUOUS
10
425.94
20
-232.755
11
426.047
21
-232.524
0
LINE
8
BLACK
6
CONTINUOUS
10
426.047
20
-232.524
11
426.182
21
-232.308
0
LINE
8
BLACK
6
CONTINUOUS
10
426.182
20
-232.308
11
426.342
21
-232.111
0
LINE
8
BLACK
6
CONTINUOUS
10
426.342
20
-232.111
11
426.526
21
-231.935
0
LINE
8
BLACK
6
CONTINUOUS
10
426.526
20
-231.935
11
426.729
21
-231.783
0
LINE
8
BLACK
6
CONTINUOUS
10
426.729
20
-231.783
11
426.95
21
-231.658
0
LINE
8
BLACK
6
CONTINUOUS
10
426.95
20
-231.658
11
427.185
21
-231.561
0
LINE
8
BLACK
6
CONTINUOUS
10
427.185
20
-231.561
11
427.185
21
-231.561
0
LINE
8
BLACK
6
CONTINUOUS
10
427.185
20
-231.561
11
427.185
21
-231.561
0
LINE
8
BLACK
6
CONTINUOUS
10
427.185
20
-231.561
11
427.186
21
-231.561
0
LINE
8
BLACK
6
CONTINUOUS
10
427.186
20
-231.561
11
427.199
21
-231.559
0
LINE
8
BLACK
6
CONTINUOUS
10
427.199
20
-231.559
11
427.396
21
-231.476
0
LINE
8
BLACK
6
CONTINUOUS
10
427.396
20
-231.476
11
427.592
21
-231.359
0
LINE
8
BLACK
6
CONTINUOUS
10
427.592
20
-231.359
11
427.77
21
-231.217
0
LINE
8
BLACK
6
CONTINUOUS
10
427.77
20
-231.217
11
427.926
21
-231.052
0
LINE
8
BLACK
6
CONTINUOUS
10
427.926
20
-231.052
11
428.059
21
-230.866
0
LINE
8
BLACK
6
CONTINUOUS
10
428.059
20
-230.866
11
428.164
21
-230.665
0
LINE
8
BLACK
6
CONTINUOUS
10
428.164
20
-230.665
11
428.241
21
-230.45
0
LINE
8
BLACK
6
CONTINUOUS
10
428.241
20
-230.45
11
428.288
21
-230.227
0
LINE
8
BLACK
6
CONTINUOUS
10
428.288
20
-230.227
11
428.303
21
-230.013
0
LINE
8
BLACK
6
CONTINUOUS
10
428.303
20
-230.013
11
428.3
21
-230
0
LINE
8
BLACK
6
CONTINUOUS
10
428.3
20
-230
11
428.3
21
-215.2
0
LINE
8
BLACK
6
CONTINUOUS
10
428.3
20
-215.2
11
365.021
21
-215.2
0
LINE
8
BLACK
6
CONTINUOUS
10
365.021
20
-215.2
11
260.895
21
-237.333
0
LINE
8
BLACK
6
CONTINUOUS
10
260.895
20
-237.333
11
260.895
21
-237.333
0
LINE
8
BLACK
6
CONTINUOUS
10
260.895
20
-237.333
11
260.895
21
-237.333
0
LINE
8
BLACK
6
CONTINUOUS
10
260.895
20
-237.333
11
260.882
21
-237.333
0
LINE
8
BLACK
6
CONTINUOUS
10
260.882
20
-237.333
11
260.668
21
-237.393
0
LINE
8
BLACK
6
CONTINUOUS
10
260.668
20
-237.393
11
260.451
21
-237.486
0
LINE
8
BLACK
6
CONTINUOUS
10
260.451
20
-237.486
11
260.248
21
-237.607
0
LINE
8
BLACK
6
CONTINUOUS
10
260.248
20
-237.607
11
260.063
21
-237.753
0
LINE
8
BLACK
6
CONTINUOUS
10
260.063
20
-237.753
11
259.898
21
-237.922
0
LINE
8
BLACK
6
CONTINUOUS
10
259.898
20
-237.922
11
259.757
21
-238.111
0
LINE
8
BLACK
6
CONTINUOUS
10
259.757
20
-238.111
11
259.642
21
-238.317
0
LINE
8
BLACK
6
CONTINUOUS
10
259.642
20
-238.317
11
259.554
21
-238.536
0
LINE
8
BLACK
6
CONTINUOUS
10
259.554
20
-238.536
11
259.496
21
-238.765
0
LINE
8
BLACK
6
CONTINUOUS
10
259.496
20
-238.765
11
259.469
21
-238.999
0
LINE
8
BLACK
6
CONTINUOUS
10
259.469
20
-238.999
11
259.472
21
-239.235
0
LINE
8
BLACK
6
CONTINUOUS
10
259.472
20
-239.235
11
259.504
21
-239.455
0
LINE
8
BLACK
6
CONTINUOUS
10
259.504
20
-239.455
11
259.509
21
-239.468
0
LINE
8
BLACK
6
CONTINUOUS
10
259.509
20
-239.468
11
262.643
21
-254.208
0
LINE
8
BLACK
6
CONTINUOUS
10
262.643
20
-254.208
11
262.643
21
-254.208
0
LINE
8
BLACK
6
CONTINUOUS
10
262.643
20
-254.208
11
262.643
21
-254.209
0
LINE
8
BLACK
6
CONTINUOUS
10
262.643
20
-254.209
11
262.643
21
-254.209
0
LINE
8
BLACK
6
CONTINUOUS
10
262.643
20
-254.209
11
262.682
21
-254.471
0
LINE
8
BLACK
6
CONTINUOUS
10
262.682
20
-254.471
11
262.689
21
-254.737
0
LINE
8
BLACK
6
CONTINUOUS
10
262.689
20
-254.737
11
262.665
21
-255.001
0
LINE
8
BLACK
6
CONTINUOUS
10
262.665
20
-255.001
11
262.609
21
-255.261
0
LINE
8
BLACK
6
CONTINUOUS
10
262.609
20
-255.261
11
262.521
21
-255.512
0
LINE
8
BLACK
6
CONTINUOUS
10
262.521
20
-255.512
11
262.405
21
-255.75
0
LINE
8
BLACK
6
CONTINUOUS
10
262.405
20
-255.75
11
262.26
21
-255.973
0
LINE
8
BLACK
6
CONTINUOUS
10
262.26
20
-255.973
11
262.089
21
-256.177
0
LINE
8
BLACK
6
CONTINUOUS
10
262.089
20
-256.177
11
261.896
21
-256.359
0
LINE
8
BLACK
6
CONTINUOUS
10
261.896
20
-256.359
11
261.681
21
-256.516
0
LINE
8
BLACK
6
CONTINUOUS
10
261.681
20
-256.516
11
261.45
21
-256.646
0
LINE
8
BLACK
6
CONTINUOUS
10
261.45
20
-256.646
11
261.204
21
-256.747
0
LINE
8
BLACK
6
CONTINUOUS
10
261.204
20
-256.747
11
260.948
21
-256.818
0
LINE
8
BLACK
6
CONTINUOUS
10
260.948
20
-256.818
11
260.948
21
-256.818
0
LINE
8
BLACK
6
CONTINUOUS
10
260.948
20
-256.818
11
260.948
21
-256.818
0
LINE
8
BLACK
6
CONTINUOUS
10
260.948
20
-256.818
11
255.558
21
-257.963
0
LINE
8
BLACK
6
CONTINUOUS
10
255.558
20
-257.963
11
255.558
21
-257.963
0
LINE
8
BLACK
6
CONTINUOUS
10
255.558
20
-257.963
11
255.558
21
-257.963
0
LINE
8
BLACK
6
CONTINUOUS
10
255.558
20
-257.963
11
255.551
21
-257.963
0
LINE
8
BLACK
6
CONTINUOUS
10
255.551
20
-257.963
11
255.545
21
-257.963
0
LINE
8
BLACK
6
CONTINUOUS
10
255.545
20
-257.963
11
255.331
21
-258.024
0
LINE
8
BLACK
6
CONTINUOUS
10
255.331
20
-258.024
11
255.114
21
-258.117
0
LINE
8
BLACK
6
CONTINUOUS
10
255.114
20
-258.117
11
254.911
21
-258.237
0
LINE
8
BLACK
6
CONTINUOUS
10
254.911
20
-258.237
11
254.726
21
-258.383
0
LINE
8
BLACK
6
CONTINUOUS
10
254.726
20
-258.383
11
254.561
21
-258.552
0
LINE
8
BLACK
6
CONTINUOUS
10
254.561
20
-258.552
11
254.42
21
-258.742
0
LINE
8
BLACK
6
CONTINUOUS
10
254.42
20
-258.742
11
254.305
21
-258.947
0
LINE
8
BLACK
6
CONTINUOUS
10
254.305
20
-258.947
11
254.217
21
-259.167
0
LINE
8
BLACK
6
CONTINUOUS
10
254.217
20
-259.167
11
254.159
21
-259.395
0
LINE
8
BLACK
6
CONTINUOUS
10
254.159
20
-259.395
11
254.131
21
-259.63
0
LINE
8
BLACK
6
CONTINUOUS
10
254.131
20
-259.63
11
254.134
21
-259.866
0
LINE
8
BLACK
6
CONTINUOUS
10
254.134
20
-259.866
11
254.166
21
-260.086
0
LINE
8
BLACK
6
CONTINUOUS
10
254.166
20
-260.086
11
254.172
21
-260.098
0
LINE
8
BLACK
6
CONTINUOUS
10
254.172
20
-260.098
11
257.122
21
-273.978
0
LINE
8
BLACK
6
CONTINUOUS
10
257.122
20
-273.978
11
257.122
21
-273.978
0
LINE
8
BLACK
6
CONTINUOUS
10
257.122
20
-273.978
11
257.122
21
-273.978
0
LINE
8
BLACK
6
CONTINUOUS
10
257.122
20
-273.978
11
257.122
21
-273.992
0
LINE
8
BLACK
6
CONTINUOUS
10
257.122
20
-273.992
11
257.183
21
-274.206
0
LINE
8
BLACK
6
CONTINUOUS
10
257.183
20
-274.206
11
257.276
21
-274.423
0
LINE
8
BLACK
6
CONTINUOUS
10
257.276
20
-274.423
11
257.396
21
-274.626
0
LINE
8
BLACK
6
CONTINUOUS
10
257.396
20
-274.626
11
257.542
21
-274.811
0
LINE
8
BLACK
6
CONTINUOUS
10
257.542
20
-274.811
11
257.711
21
-274.976
0
LINE
8
BLACK
6
CONTINUOUS
10
257.711
20
-274.976
11
257.9
21
-275.117
0
LINE
8
BLACK
6
CONTINUOUS
10
257.9
20
-275.117
11
258.106
21
-275.232
0
LINE
8
BLACK
6
CONTINUOUS
10
258.106
20
-275.232
11
258.326
21
-275.319
0
LINE
8
BLACK
6
CONTINUOUS
10
258.326
20
-275.319
11
258.554
21
-275.378
0
LINE
8
BLACK
6
CONTINUOUS
10
258.554
20
-275.378
11
258.789
21
-275.405
0
LINE
8
BLACK
6
CONTINUOUS
10
258.789
20
-275.405
11
259.024
21
-275.402
0
LINE
8
BLACK
6
CONTINUOUS
10
259.024
20
-275.402
11
259.245
21
-275.37
0
LINE
8
BLACK
6
CONTINUOUS
10
259.245
20
-275.37
11
259.257
21
-275.365
0
LINE
8
BLACK
6
CONTINUOUS
10
259.257
20
-275.365
11
259.258
21
-275.364
0
LINE
8
BLACK
6
CONTINUOUS
10
259.258
20
-275.364
11
259.258
21
-275.364
0
LINE
8
BLACK
6
CONTINUOUS
10
259.258
20
-275.364
11
259.258
21
-275.364
0
LINE
8
BLACK
6
CONTINUOUS
10
259.258
20
-275.364
11
259.991
21
-275.209
0
LINE
8
BLACK
6
CONTINUOUS
10
259.991
20
-275.209
11
259.991
21
-275.209
0
LINE
8
BLACK
6
CONTINUOUS
10
259.991
20
-275.209
11
259.991
21
-275.208
0
LINE
8
BLACK
6
CONTINUOUS
10
259.991
20
-275.208
11
259.992
21
-275.208
0
LINE
8
BLACK
6
CONTINUOUS
10
259.992
20
-275.208
11
260.254
21
-275.169
0
LINE
8
BLACK
6
CONTINUOUS
10
260.254
20
-275.169
11
260.519
21
-275.162
0
LINE
8
BLACK
6
CONTINUOUS
10
260.519
20
-275.162
11
260.784
21
-275.186
0
LINE
8
BLACK
6
CONTINUOUS
10
260.784
20
-275.186
11
261.043
21
-275.243
0
LINE
8
BLACK
6
CONTINUOUS
10
261.043
20
-275.243
11
261.294
21
-275.33
0
LINE
8
BLACK
6
CONTINUOUS
10
261.294
20
-275.33
11
261.533
21
-275.446
0
LINE
8
BLACK
6
CONTINUOUS
10
261.533
20
-275.446
11
261.756
21
-275.591
0
LINE
8
BLACK
6
CONTINUOUS
10
261.756
20
-275.591
11
261.959
21
-275.762
0
LINE
8
BLACK
6
CONTINUOUS
10
261.959
20
-275.762
11
262.141
21
-275.955
0
LINE
8
BLACK
6
CONTINUOUS
10
262.141
20
-275.955
11
262.298
21
-276.17
0
LINE
8
BLACK
6
CONTINUOUS
10
262.298
20
-276.17
11
262.428
21
-276.401
0
LINE
8
BLACK
6
CONTINUOUS
10
262.428
20
-276.401
11
262.529
21
-276.647
0
LINE
8
BLACK
6
CONTINUOUS
10
262.529
20
-276.647
11
262.6
21
-276.903
0
LINE
8
BLACK
6
CONTINUOUS
10
262.6
20
-276.903
11
262.6
21
-276.903
0
LINE
8
BLACK
6
CONTINUOUS
10
262.6
20
-276.903
11
265.731
21
-291.634
0
LINE
8
BLACK
6
CONTINUOUS
10
265.731
20
-291.634
11
265.731
21
-291.634
0
LINE
8
BLACK
6
CONTINUOUS
10
265.731
20
-291.634
11
265.731
21
-291.634
0
LINE
8
BLACK
6
CONTINUOUS
10
265.731
20
-291.634
11
265.731
21
-291.648
0
LINE
8
BLACK
6
CONTINUOUS
10
265.731
20
-291.648
11
265.792
21
-291.862
0
LINE
8
BLACK
6
CONTINUOUS
10
265.792
20
-291.862
11
265.885
21
-292.079
0
LINE
8
BLACK
6
CONTINUOUS
10
265.885
20
-292.079
11
266.005
21
-292.282
0
LINE
8
BLACK
6
CONTINUOUS
10
266.005
20
-292.282
11
266.151
21
-292.467
0
LINE
8
BLACK
6
CONTINUOUS
10
266.151
20
-292.467
11
266.32
21
-292.631
0
LINE
8
BLACK
6
CONTINUOUS
10
266.32
20
-292.631
11
266.509
21
-292.773
0
LINE
8
BLACK
6
CONTINUOUS
10
266.509
20
-292.773
11
266.715
21
-292.888
0
LINE
8
BLACK
6
CONTINUOUS
10
266.715
20
-292.888
11
266.935
21
-292.975
0
LINE
8
BLACK
6
CONTINUOUS
10
266.935
20
-292.975
11
267.163
21
-293.033
0
LINE
8
BLACK
6
CONTINUOUS
10
267.163
20
-293.033
11
267.398
21
-293.061
0
LINE
8
BLACK
6
CONTINUOUS
10
267.398
20
-293.061
11
267.633
21
-293.058
0
LINE
8
BLACK
6
CONTINUOUS
10
267.633
20
-293.058
11
267.854
21
-293.026
0
LINE
8
BLACK
6
CONTINUOUS
10
267.854
20
-293.026
11
267.866
21
-293.02
0
LINE
8
BLACK
6
CONTINUOUS
10
267.866
20
-293.02
11
268.639
21
-292.856
0
LINE
8
BLACK
6
CONTINUOUS
10
268.639
20
-292.856
11
268.639
21
-292.856
0
LINE
8
BLACK
6
CONTINUOUS
10
268.639
20
-292.856
11
268.64
21
-292.856
0
LINE
8
BLACK
6
CONTINUOUS
10
268.64
20
-292.856
11
268.64
21
-292.856
0
LINE
8
BLACK
6
CONTINUOUS
10
268.64
20
-292.856
11
268.902
21
-292.817
0
LINE
8
BLACK
6
CONTINUOUS
10
268.902
20
-292.817
11
269.167
21
-292.809
0
LINE
8
BLACK
6
CONTINUOUS
10
269.167
20
-292.809
11
269.432
21
-292.834
0
LINE
8
BLACK
6
CONTINUOUS
10
269.432
20
-292.834
11
269.691
21
-292.89
0
LINE
8
BLACK
6
CONTINUOUS
10
269.691
20
-292.89
11
269.942
21
-292.977
0
LINE
8
BLACK
6
CONTINUOUS
10
269.942
20
-292.977
11
270.181
21
-293.094
0
LINE
8
BLACK
6
CONTINUOUS
10
270.181
20
-293.094
11
270.404
21
-293.239
0
LINE
8
BLACK
6
CONTINUOUS
10
270.404
20
-293.239
11
270.607
21
-293.409
0
LINE
8
BLACK
6
CONTINUOUS
10
270.607
20
-293.409
11
270.789
21
-293.603
0
LINE
8
BLACK
6
CONTINUOUS
10
270.789
20
-293.603
11
270.946
21
-293.817
0
LINE
8
BLACK
6
CONTINUOUS
10
270.946
20
-293.817
11
271.076
21
-294.049
0
LINE
8
BLACK
6
CONTINUOUS
10
271.076
20
-294.049
11
271.177
21
-294.295
0
LINE
8
BLACK
6
CONTINUOUS
10
271.177
20
-294.295
11
271.248
21
-294.551
0
LINE
8
BLACK
6
CONTINUOUS
10
271.248
20
-294.551
11
271.248
21
-294.551
0
LINE
8
BLACK
6
CONTINUOUS
10
271.248
20
-294.551
11
271.248
21
-294.551
0
LINE
8
BLACK
6
CONTINUOUS
10
271.248
20
-294.551
11
274.554
21
-310.103
0
LINE
8
BLACK
6
CONTINUOUS
10
274.554
20
-310.103
11
274.554
21
-310.104
0
LINE
8
BLACK
6
CONTINUOUS
10
274.554
20
-310.104
11
274.554
21
-310.104
0
LINE
8
BLACK
6
CONTINUOUS
10
274.554
20
-310.104
11
274.593
21
-310.366
0
LINE
8
BLACK
6
CONTINUOUS
10
274.593
20
-310.366
11
274.601
21
-310.632
0
LINE
8
BLACK
6
CONTINUOUS
10
274.601
20
-310.632
11
274.576
21
-310.896
0
LINE
8
BLACK
6
CONTINUOUS
10
274.576
20
-310.896
11
274.52
21
-311.156
0
LINE
8
BLACK
6
CONTINUOUS
10
274.52
20
-311.156
11
274.433
21
-311.407
0
LINE
8
BLACK
6
CONTINUOUS
10
274.433
20
-311.407
11
274.316
21
-311.645
0
LINE
8
BLACK
6
CONTINUOUS
10
274.316
20
-311.645
11
274.171
21
-311.868
0
LINE
8
BLACK
6
CONTINUOUS
10
274.171
20
-311.868
11
274.001
21
-312.072
0
LINE
8
BLACK
6
CONTINUOUS
10
274.001
20
-312.072
11
273.807
21
-312.254
0
LINE
8
BLACK
6
CONTINUOUS
10
273.807
20
-312.254
11
273.593
21
-312.411
0
LINE
8
BLACK
6
CONTINUOUS
10
273.593
20
-312.411
11
273.361
21
-312.541
0
LINE
8
BLACK
6
CONTINUOUS
10
273.361
20
-312.541
11
273.116
21
-312.642
0
LINE
8
BLACK
6
CONTINUOUS
10
273.116
20
-312.642
11
272.86
21
-312.713
0
LINE
8
BLACK
6
CONTINUOUS
10
272.86
20
-312.713
11
272.86
21
-312.713
0
LINE
8
BLACK
6
CONTINUOUS
10
272.86
20
-312.713
11
272.859
21
-312.713
0
LINE
8
BLACK
6
CONTINUOUS
10
272.859
20
-312.713
11
267.46
21
-313.86
0
LINE
8
BLACK
6
CONTINUOUS
10
267.46
20
-313.86
11
267.46
21
-313.86
0
LINE
8
BLACK
6
CONTINUOUS
10
267.46
20
-313.86
11
267.46
21
-313.86
  0
ENDSEC
  0
EOF
