  0
SECTION
  2
HEADER
  9
$ANGBASE
  50
0.0
  9
$ANGDIR
  70
1
  9
$MEASUREMENT
  70
1
  0
ENDSEC
  0
SECTION
  2
TABLES
  0
TABLE
  2
LTYPE
  70
4
  0
LTYPE
  5
40F
  2
CONTINUOUS
  70
0
  3
Solid line
  72
65
  73
0
  40
0.0
  0
LTYPE
  5
410
  2
DASHDOT
 70
0
  3
Dash Dot ____ _ ____ _
 72
65
 73
4
 40
2.0
 49
1.25
 49
-0.25
 49
0.25
 49
-0.25
  0
LTYPE
  5
411
  2
DASHED
 70
0
  3
Dashed __ __ __ __ __
 72
65
 73
2
 40
0.75
 49
0.5
 49
-0.25
  0
LTYPE
  5
43B
  2
DOTTED
 70
0
  3
Dotted .  .  .  .
 72
65
 73
2
 40
0.2
 49
0.0
 49
-0.2
  0
ENDTAB
  0
TABLE
  2
STYLE
  70
4
  0
STYLE
  2
KICAD
  70
0
  40
0
  41
1
  42
1
  50
0
  71
0
  3
isocp.shx
  0
STYLE
  2
KICADB
  70
0
  40
0
  41
1
  42
1
  50
0
  71
0
  3
isocp.shx
  0
STYLE
  2
KICADI
  70
0
  40
0
  41
1
  42
1
  50
15
  71
0
  3
isocp.shx
  0
STYLE
  2
KICADBI
  70
0
  40
0
  41
1
  42
1
  50
15
  71
0
  3
isocp.shx
  0
ENDTAB
  0
TABLE
  2
LAYER
  70
1
  0
LAYER
  2
BLACK
  70
0
  62
7
  6
CONTINUOUS
  0
ENDTAB
  0
ENDSEC
  0
SECTION
  2
ENTITIES
0
LINE
8
BLACK
6
CONTINUOUS
10
415
20
-32
11
414
21
-33
0
LINE
8
BLACK
6
CONTINUOUS
10
50.3
20
-215
11
23
21
-215
0
LINE
8
BLACK
6
CONTINUOUS
10
419.8
20
-63.6
11
419.8
21
-66
0
ARC
8
BLACK
10
172.999
20
-316.627
40
1.99981
50
-12.0055
51
78.0033
0
LINE
8
BLACK
6
CONTINUOUS
10
33
20
-77
11
33
21
-93
0
LINE
8
BLACK
6
CONTINUOUS
10
60.4
20
-22.47
11
60.4
21
-15
0
LINE
8
BLACK
6
CONTINUOUS
10
51.7
20
-15
11
49.7
21
-15
0
LINE
8
BLACK
6
CONTINUOUS
10
169.444
20
-333.354
11
87.9644
21
-316
0
LINE
8
BLACK
6
CONTINUOUS
10
415.5
20
-25.5
11
417.75
21
-25.5
0
LINE
8
BLACK
6
CONTINUOUS
10
58.9
20
-112.6
11
53.6
21
-112.6
0
LINE
8
BLACK
6
CONTINUOUS
10
53.6
20
-112.6
11
53.6
21
-115.4
0
LINE
8
BLACK
6
CONTINUOUS
10
53.6
20
-115.4
11
58.9
21
-115.4
0
LINE
8
BLACK
6
CONTINUOUS
10
58.9
20
-115.4
11
58.9
21
-112.6
0
LINE
8
BLACK
6
CONTINUOUS
10
26.29
20
-34.47
11
26.29
21
-41.52
0
ARC
8
BLACK
10
172.556
20
-335.549
40
2.00001
50
-102
51
-12
0
LINE
8
BLACK
6
CONTINUOUS
10
71
20
-215
11
59.7
21
-215
0
LINE
8
BLACK
6
CONTINUOUS
10
424
20
-41
11
425
21
-40
0
LINE
8
BLACK
6
CONTINUOUS
10
26
20
-105.5
11
27.5
21
-107
0
CIRCLE
8
BLACK
10
419.4
20
-22.2
40
1.5
0
LINE
8
BLACK
6
CONTINUOUS
10
16
20
-32
11
19
21
-32
0
LINE
8
BLACK
6
CONTINUOUS
10
426
20
-63.6
11
419.8
21
-63.6
0
LINE
8
BLACK
6
CONTINUOUS
10
173.415
20
-314.671
11
167.986
21
-313.517
0
LINE
8
BLACK
6
CONTINUOUS
10
18
20
-41.52
11
18
21
-36
0
ARC
8
BLACK
10
166.547
20
-268.586
40
1.99996
50
-192.001
51
-102
0
LINE
8
BLACK
6
CONTINUOUS
10
166.865
20
-270.698
11
166.131
21
-270.543
0
LINE
8
BLACK
6
CONTINUOUS
10
417
20
-32
11
415
21
-32
0
LINE
8
BLACK
6
CONTINUOUS
10
11.5
20
-317.5
11
11.5
21
-304.3
0
ARC
8
BLACK
10
169.86
20
-331.398
40
1.99998
50
-102.001
51
-11.9999
0
ARC
8
BLACK
10
17
20
-314
40
2
50
-180
51
-90.0001
0
LINE
8
BLACK
6
CONTINUOUS
10
19
20
-32
11
19
21
-34
0
LINE
8
BLACK
6
CONTINUOUS
10
26
20
-105.5
11
26
21
-104
0
LINE
8
BLACK
6
CONTINUOUS
10
174.956
20
-317.043
11
171.816
21
-331.814
0
LINE
8
BLACK
6
CONTINUOUS
10
33.0625
20
-60.57
11
36.1275
21
-60.57
0
ARC
8
BLACK
10
165.691
20
-255.778
40
1.99998
50
77.9996
51
168.001
0
LINE
8
BLACK
6
CONTINUOUS
10
417.75
20
-25.5
11
417.75
21
-29.25
0
LINE
8
BLACK
6
CONTINUOUS
10
41.29
20
-18
11
27
21
-18
0
LINE
8
BLACK
6
CONTINUOUS
10
50.3
20
-215
11
50.3
21
-213.5
0
ARC
8
BLACK
10
167.036
20
-288.027
40
2.00001
50
-192
51
-102.002
0
LINE
8
BLACK
6
CONTINUOUS
10
166.43
20
-259.514
11
164.59
21
-268.17
0
LINE
8
BLACK
6
CONTINUOUS
10
17
20
-316
11
87.9644
21
-316
0
LINE
8
BLACK
6
CONTINUOUS
10
33
20
-93
11
37.2125
21
-97.2125
0
ARC
8
BLACK
10
162.297
20
-275.351
40
1.99998
50
-12.0006
51
78.0008
0
ARC
8
BLACK
10
45.5
20
-212.5
40
1
50
-0
51
90
0
LINE
8
BLACK
6
CONTINUOUS
10
426
20
-45
11
423
21
-42
0
LINE
8
BLACK
6
CONTINUOUS
10
426
20
-68.6
11
419.8
21
-68.6
0
LINE
8
BLACK
6
CONTINUOUS
10
11.5
20
-234
11
11.5
21
-298.15
0
ARC
8
BLACK
10
171.77
20
-293.312
40
1.9999
50
-12.0028
51
78.0034
0
LINE
8
BLACK
6
CONTINUOUS
10
27
20
-18
11
27
21
-22.47
0
CIRCLE
8
BLACK
10
419.4
20
-29.2
40
1.5
0
LINE
8
BLACK
6
CONTINUOUS
10
179.107
20
-314.348
11
174.512
21
-335.965
0
LINE
8
BLACK
6
CONTINUOUS
10
41.29
20
-22.47
11
41.29
21
-18
0
ARC
8
BLACK
10
168.402
20
-311.561
40
2.00009
50
-191.998
51
-102.003
0
LINE
8
BLACK
6
CONTINUOUS
10
415.5
20
-29.25
11
415.5
21
-25.5
0
LINE
8
BLACK
6
CONTINUOUS
10
419.8
20
-71.2
11
426
21
-71.2
0
ARC
8
BLACK
10
177.151
20
-313.932
40
1.99995
50
-12.0013
51
78.001
0
LINE
8
BLACK
6
CONTINUOUS
10
16
20
-36
11
16
21
-32
0
LINE
8
BLACK
6
CONTINUOUS
10
422.15
20
-24.55
11
424.4
21
-24.55
0
LINE
8
BLACK
6
CONTINUOUS
10
22
20
-77
11
33
21
-77
0
LINE
8
BLACK
6
CONTINUOUS
10
17
20
-93
11
17
21
-92
0
LINE
8
BLACK
6
CONTINUOUS
10
162.713
20
-273.394
11
161.98
21
-273.238
0
ARC
8
BLACK
10
166.449
20
-272.655
40
2.00001
50
-11.9998
51
78.0007
0
LINE
8
BLACK
6
CONTINUOUS
10
13.5
20
-319.5
11
87.49
21
-319.5
0
LINE
8
BLACK
6
CONTINUOUS
10
23
20
-213.5
11
23
21
-215
0
LINE
8
BLACK
6
CONTINUOUS
10
168.405
20
-273.071
11
165.079
21
-287.611
0
LINE
8
BLACK
6
CONTINUOUS
10
414
20
-33
11
410
21
-29
0
LINE
8
BLACK
6
CONTINUOUS
10
179.422
20
-234.468
11
71.36
21
-211.5
0
LINE
8
BLACK
6
CONTINUOUS
10
414
20
-25
11
414
21
-19
0
LINE
8
BLACK
6
CONTINUOUS
10
177.566
20
-311.976
11
172.138
21
-310.822
0
ARC
8
BLACK
10
171.902
20
-253.009
40
1.99996
50
-102.001
51
-11.9995
0
LINE
8
BLACK
6
CONTINUOUS
10
20.5
20
-103.5
11
20.5
21
-96.5
0
LINE
8
BLACK
6
CONTINUOUS
10
164.254
20
-275.766
11
161.114
21
-290.536
0
LINE
8
BLACK
6
CONTINUOUS
10
26
20
-104
11
21
21
-104
0
LINE
8
BLACK
6
CONTINUOUS
10
59.7
20
-213.5
11
62.5
21
-213.5
0
LINE
8
BLACK
6
CONTINUOUS
10
50.3
20
-213.5
11
47.5
21
-213.5
0
LINE
8
BLACK
6
CONTINUOUS
10
411.5
20
-59
11
411.5
21
-44
0
CIRCLE
8
BLACK
10
18
20
-20.5
40
1.5
0
ARC
8
BLACK
10
13.5
20
-317.5
40
2
50
-180
51
-90
0
LINE
8
BLACK
6
CONTINUOUS
10
174.182
20
-259.117
11
168.803
21
-257.973
0
LINE
8
BLACK
6
CONTINUOUS
10
423
20
-42
11
424
21
-41
0
LINE
8
BLACK
6
CONTINUOUS
10
71
20
-15
11
66.5
21
-15
0
LINE
8
BLACK
6
CONTINUOUS
10
71
20
-22.47
11
71
21
-15
0
LINE
8
BLACK
6
CONTINUOUS
10
51.7
20
-19.7
11
58.4
21
-19.7
0
LINE
8
BLACK
6
CONTINUOUS
10
422.15
20
-28.3
11
422.15
21
-24.55
0
LINE
8
BLACK
6
CONTINUOUS
10
15
20
-314
11
15
21
-304.3
0
LINE
8
BLACK
6
CONTINUOUS
10
17
20
-92
11
22
21
-87
0
LINE
8
BLACK
6
CONTINUOUS
10
410
20
-29
11
409
21
-28
0
ARC
8
BLACK
10
62.5
20
-212.5
40
1
50
-90
51
-0
0
LINE
8
BLACK
6
CONTINUOUS
10
169.575
20
-296.424
11
166.446
21
-311.145
0
LINE
8
BLACK
6
CONTINUOUS
10
163.735
20
-255.363
11
160.439
21
-270.866
0
LINE
8
BLACK
6
CONTINUOUS
10
37.2125
20
-98.67
11
37.2125
21
-97.2125
0
LINE
8
BLACK
6
CONTINUOUS
10
21.6275
20
-41.52
11
18
21
-41.52
0
LINE
8
BLACK
6
CONTINUOUS
10
49.7
20
-15
11
49.7
21
-22.47
0
LINE
8
BLACK
6
CONTINUOUS
10
424.4
20
-24.55
11
424.4
21
-28.3
0
LINE
8
BLACK
6
CONTINUOUS
10
180.962
20
-236.84
11
176.554
21
-257.576
0
ARC
8
BLACK
10
167.619
20
-296.008
40
2.00002
50
-11.9995
51
77.9984
0
LINE
8
BLACK
6
CONTINUOUS
10
14
20
-232
11
13.5
21
-232
0
LINE
8
BLACK
6
CONTINUOUS
10
175.271
20
-237.163
11
71
21
-215
0
ARC
8
BLACK
10
168.387
20
-259.93
40
2.0001
50
78.0028
51
167.996
0
ARC
8
BLACK
10
174.855
20
-239.12
40
2.00002
50
-11.9993
51
77.9998
0
LINE
8
BLACK
6
CONTINUOUS
10
424.4
20
-28.3
11
422.15
21
-28.3
0
LINE
8
BLACK
6
CONTINUOUS
10
23.79
20
-23.75
11
23.79
21
-25.47
0
LINE
8
BLACK
6
CONTINUOUS
10
60.4
20
-15
11
58.4
21
-15
0
LINE
8
BLACK
6
CONTINUOUS
10
171.487
20
-254.966
11
166.107
21
-253.822
0
LINE
8
BLACK
6
CONTINUOUS
10
20.5
20
-96.5
11
17
21
-93
0
ARC
8
BLACK
10
25
20
-213.5
40
2
50
90
51
180
0
LINE
8
BLACK
6
CONTINUOUS
10
15
20
-298.15
11
11.5
21
-298.15
0
LINE
8
BLACK
6
CONTINUOUS
10
411.5
20
-44
11
409.544
21
-44
0
LINE
8
BLACK
6
CONTINUOUS
10
414
20
-19
11
400
21
-19
0
LINE
8
BLACK
6
CONTINUOUS
10
59.7
20
-213.5
11
59.7
21
-215
0
ARC
8
BLACK
10
13.5
20
-234
40
2
50
90
51
180
0
LINE
8
BLACK
6
CONTINUOUS
10
20.5
20
-103.5
11
21
21
-104
0
LINE
8
BLACK
6
CONTINUOUS
10
173.726
20
-293.728
11
170.597
21
-308.45
0
LINE
8
BLACK
6
CONTINUOUS
10
422
20
-59
11
411.5
21
-59
0
ARC
8
BLACK
10
64.5
20
-212.5
40
1
50
90
51
180
0
ARC
8
BLACK
10
172.554
20
-308.865
40
2.00006
50
-191.998
51
-102.003
0
LINE
8
BLACK
6
CONTINUOUS
10
396.5
20
-41.52
11
396.5
21
-32.47
0
LINE
8
BLACK
6
CONTINUOUS
10
51.7
20
-19.7
11
51.7
21
-15
0
LINE
8
BLACK
6
CONTINUOUS
10
409
20
-28
11
409
21
-25
0
LINE
8
BLACK
6
CONTINUOUS
10
400
20
-19
11
400
21
-22.47
0
LINE
8
BLACK
6
CONTINUOUS
10
409
20
-25
11
414
21
-25
0
LINE
8
BLACK
6
CONTINUOUS
10
11.5
20
-304.3
11
15
21
-304.3
0
LINE
8
BLACK
6
CONTINUOUS
10
61.89
20
-25.47
11
61.89
21
-20
0
ARC
8
BLACK
10
47.5
20
-212.5
40
1
50
-180
51
-90
0
LINE
8
BLACK
6
CONTINUOUS
10
19
20
-34
11
23.79
21
-34
0
LINE
8
BLACK
6
CONTINUOUS
10
425
20
-40
11
417
21
-32
0
LINE
8
BLACK
6
CONTINUOUS
10
417.75
20
-29.25
11
415.5
21
-29.25
0
LINE
8
BLACK
6
CONTINUOUS
10
36.1275
20
-51.52
11
36.1275
21
-60.57
0
LINE
8
BLACK
6
CONTINUOUS
10
22.1275
20
-53.52
11
22.1275
21
-60.57
0
LINE
8
BLACK
6
CONTINUOUS
10
15
20
-233
11
15
21
-298.15
0
LINE
8
BLACK
6
CONTINUOUS
10
419.8
20
-68.6
11
419.8
21
-71.2
0
LINE
8
BLACK
6
CONTINUOUS
10
61.89
20
-20
11
66.5
21
-20
0
ARC
8
BLACK
10
14
20
-233
40
1
50
-0
51
90
0
LINE
8
BLACK
6
CONTINUOUS
10
22
20
-87
11
22
21
-77
0
CIRCLE
8
BLACK
10
18
20
-27.5
40
1.5
0
ARC
8
BLACK
10
174.598
20
-257.161
40
1.99999
50
-102
51
-11.9996
0
LINE
8
BLACK
6
CONTINUOUS
10
426
20
-45
11
422
21
-49
0
LINE
8
BLACK
6
CONTINUOUS
10
45.5
20
-211.5
11
25
21
-211.5
0
LINE
8
BLACK
6
CONTINUOUS
10
25.79
20
-23.75
11
23.79
21
-23.75
0
LINE
8
BLACK
6
CONTINUOUS
10
35.2125
20
-107
11
27.5
21
-107
0
LINE
8
BLACK
6
CONTINUOUS
10
422
20
-59
11
422
21
-49
0
LINE
8
BLACK
6
CONTINUOUS
10
58.4
20
-15
11
58.4
21
-19.7
0
ARC
8
BLACK
10
162.395
20
-271.282
40
1.99999
50
-192
51
-102
0
ARC
8
BLACK
10
179.006
20
-236.424
40
2.00007
50
-11.998
51
77.997
0
LINE
8
BLACK
6
CONTINUOUS
10
172.14
20
-337.505
11
87.49
21
-319.5
0
LINE
8
BLACK
6
CONTINUOUS
10
168.035
20
-294.052
11
162.655
21
-292.909
0
LINE
8
BLACK
6
CONTINUOUS
10
64.5
20
-211.5
11
71.36
21
-211.5
0
LINE
8
BLACK
6
CONTINUOUS
10
176.811
20
-239.536
11
173.859
21
-253.425
0
LINE
8
BLACK
6
CONTINUOUS
10
66.5
20
-20
11
66.5
21
-15
0
LINE
8
BLACK
6
CONTINUOUS
10
419.8
20
-66
11
426
21
-66
0
ARC
8
BLACK
10
163.071
20
-290.952
40
1.99999
50
-192
51
-102
0
LINE
8
BLACK
6
CONTINUOUS
10
172.186
20
-291.356
11
166.62
21
-289.983
0
LINE
8
BLACK
6
CONTINUOUS
10
18
20
-36
11
16
21
-36
0
LINE
8
BLACK
6
CONTINUOUS
10
351.189
20
-89.62
11
365.189
21
-89.62
0
LINE
8
BLACK
6
CONTINUOUS
10
350.689
20
-79.62
11
350.689
21
-82.62
0
LINE
8
BLACK
6
CONTINUOUS
10
366.189
20
-84.12
11
366.189
21
-79.62
0
LINE
8
BLACK
6
CONTINUOUS
10
350.689
20
-82.62
11
348.689
21
-82.62
0
LINE
8
BLACK
6
CONTINUOUS
10
348.689
20
-82.62
11
348.689
21
-91.62
0
LINE
8
BLACK
6
CONTINUOUS
10
348.689
20
-91.62
11
351.189
21
-91.62
0
LINE
8
BLACK
6
CONTINUOUS
10
351.189
20
-91.62
11
351.189
21
-89.62
0
LINE
8
BLACK
6
CONTINUOUS
10
366.189
20
-79.62
11
350.689
21
-79.62
0
LINE
8
BLACK
6
CONTINUOUS
10
365.189
20
-89.62
11
365.189
21
-84.12
0
LINE
8
BLACK
6
CONTINUOUS
10
365.189
20
-84.12
11
366.189
21
-84.12
0
LINE
8
BLACK
6
CONTINUOUS
10
130.346
20
-99.9298
11
132.791
21
-100.45
0
LINE
8
BLACK
6
CONTINUOUS
10
149.022
20
-96.2321
11
149.958
21
-91.8304
0
LINE
8
BLACK
6
CONTINUOUS
10
133.207
20
-98.4932
11
146.901
21
-101.404
0
LINE
8
BLACK
6
CONTINUOUS
10
134.173
20
-91.5423
11
132.217
21
-91.1264
0
LINE
8
BLACK
6
CONTINUOUS
10
149.958
20
-91.8304
11
134.797
21
-88.6078
0
LINE
8
BLACK
6
CONTINUOUS
10
132.217
20
-91.1264
11
130.346
21
-99.9298
0
LINE
8
BLACK
6
CONTINUOUS
10
134.797
20
-88.6078
11
134.173
21
-91.5423
0
LINE
8
BLACK
6
CONTINUOUS
10
148.044
20
-96.0242
11
149.022
21
-96.2321
0
LINE
8
BLACK
6
CONTINUOUS
10
146.901
20
-101.404
11
148.044
21
-96.0242
0
LINE
8
BLACK
6
CONTINUOUS
10
132.791
20
-100.45
11
133.207
21
-98.4932
0
LINE
8
BLACK
6
CONTINUOUS
10
356.664
20
-65.07
11
356.664
21
-60.57
0
LINE
8
BLACK
6
CONTINUOUS
10
355.664
20
-70.57
11
355.664
21
-65.07
0
LINE
8
BLACK
6
CONTINUOUS
10
339.164
20
-63.57
11
339.164
21
-72.57
0
LINE
8
BLACK
6
CONTINUOUS
10
355.664
20
-65.07
11
356.664
21
-65.07
0
LINE
8
BLACK
6
CONTINUOUS
10
339.164
20
-72.57
11
341.664
21
-72.57
0
LINE
8
BLACK
6
CONTINUOUS
10
341.164
20
-60.57
11
341.164
21
-63.57
0
LINE
8
BLACK
6
CONTINUOUS
10
341.664
20
-70.57
11
355.664
21
-70.57
0
LINE
8
BLACK
6
CONTINUOUS
10
341.164
20
-63.57
11
339.164
21
-63.57
0
LINE
8
BLACK
6
CONTINUOUS
10
341.664
20
-72.57
11
341.664
21
-70.57
0
LINE
8
BLACK
6
CONTINUOUS
10
356.664
20
-60.57
11
341.164
21
-60.57
0
LINE
8
BLACK
6
CONTINUOUS
10
331.17
20
-23.6904
11
316.009
21
-26.913
0
LINE
8
BLACK
6
CONTINUOUS
10
331.128
20
-28.2999
11
332.106
21
-28.092
0
LINE
8
BLACK
6
CONTINUOUS
10
316.547
20
-39.0666
11
318.993
21
-38.5468
0
LINE
8
BLACK
6
CONTINUOUS
10
318.993
20
-38.5468
11
318.577
21
-36.5905
0
LINE
8
BLACK
6
CONTINUOUS
10
316.009
20
-26.913
11
316.633
21
-29.8474
0
LINE
8
BLACK
6
CONTINUOUS
10
318.577
20
-36.5905
11
332.271
21
-33.6798
0
LINE
8
BLACK
6
CONTINUOUS
10
316.633
20
-29.8474
11
314.676
21
-30.2633
0
LINE
8
BLACK
6
CONTINUOUS
10
314.676
20
-30.2633
11
316.547
21
-39.0666
0
LINE
8
BLACK
6
CONTINUOUS
10
332.271
20
-33.6798
11
331.128
21
-28.2999
0
LINE
8
BLACK
6
CONTINUOUS
10
332.106
20
-28.092
11
331.17
21
-23.6904
0
LINE
8
BLACK
6
CONTINUOUS
10
319.272
20
-65.1707
11
319.895
21
-68.1051
0
LINE
8
BLACK
6
CONTINUOUS
10
321.84
20
-74.8482
11
335.534
21
-71.9374
0
LINE
8
BLACK
6
CONTINUOUS
10
335.534
20
-71.9374
11
334.39
21
-66.5576
0
LINE
8
BLACK
6
CONTINUOUS
10
319.81
20
-77.3242
11
322.256
21
-76.8045
0
LINE
8
BLACK
6
CONTINUOUS
10
334.433
20
-61.948
11
319.272
21
-65.1707
0
LINE
8
BLACK
6
CONTINUOUS
10
319.895
20
-68.1051
11
317.939
21
-68.5209
0
LINE
8
BLACK
6
CONTINUOUS
10
322.256
20
-76.8045
11
321.84
21
-74.8482
0
LINE
8
BLACK
6
CONTINUOUS
10
317.939
20
-68.5209
11
319.81
21
-77.3242
0
LINE
8
BLACK
6
CONTINUOUS
10
335.369
20
-66.3497
11
334.433
21
-61.948
0
LINE
8
BLACK
6
CONTINUOUS
10
334.39
20
-66.5576
11
335.369
21
-66.3497
0
LINE
8
BLACK
6
CONTINUOUS
10
269.969
20
-51.5229
11
274.86
21
-50.4834
0
LINE
8
BLACK
6
CONTINUOUS
10
275.38
20
-52.9287
11
270.489
21
-53.9683
0
LINE
8
BLACK
6
CONTINUOUS
10
274.86
20
-50.4834
11
275.38
21
-52.9287
0
LINE
8
BLACK
6
CONTINUOUS
10
276.37
20
-45.5619
11
275.226
21
-40.1821
0
LINE
8
BLACK
6
CONTINUOUS
10
275.269
20
-35.5725
11
260.108
21
-38.7952
0
LINE
8
BLACK
6
CONTINUOUS
10
276.205
20
-39.9742
11
275.269
21
-35.5725
0
LINE
8
BLACK
6
CONTINUOUS
10
259.607
20
-46.058
11
262.052
21
-45.5382
0
LINE
8
BLACK
6
CONTINUOUS
10
260.731
20
-41.7296
11
258.775
21
-42.1454
0
LINE
8
BLACK
6
CONTINUOUS
10
262.052
20
-45.5382
11
262.676
21
-48.4727
0
LINE
8
BLACK
6
CONTINUOUS
10
260.108
20
-38.7952
11
260.731
21
-41.7296
0
LINE
8
BLACK
6
CONTINUOUS
10
262.676
20
-48.4727
11
276.37
21
-45.5619
0
LINE
8
BLACK
6
CONTINUOUS
10
270.489
20
-53.9683
11
269.969
21
-51.5229
0
LINE
8
BLACK
6
CONTINUOUS
10
275.226
20
-40.1821
11
276.205
21
-39.9742
0
LINE
8
BLACK
6
CONTINUOUS
10
258.775
20
-42.1454
11
259.607
21
-46.058
0
LINE
8
BLACK
6
CONTINUOUS
10
89.8
20
-84.12
11
90.8
21
-84.12
0
LINE
8
BLACK
6
CONTINUOUS
10
75.3
20
-79.62
11
75.3
21
-82.62
0
LINE
8
BLACK
6
CONTINUOUS
10
73.3
20
-91.62
11
75.8
21
-91.62
0
LINE
8
BLACK
6
CONTINUOUS
10
75.8
20
-89.62
11
89.8
21
-89.62
0
LINE
8
BLACK
6
CONTINUOUS
10
89.8
20
-89.62
11
89.8
21
-84.12
0
LINE
8
BLACK
6
CONTINUOUS
10
75.8
20
-91.62
11
75.8
21
-89.62
0
LINE
8
BLACK
6
CONTINUOUS
10
75.3
20
-82.62
11
73.3
21
-82.62
0
LINE
8
BLACK
6
CONTINUOUS
10
90.8
20
-84.12
11
90.8
21
-79.62
0
LINE
8
BLACK
6
CONTINUOUS
10
90.8
20
-79.62
11
75.3
21
-79.62
0
LINE
8
BLACK
6
CONTINUOUS
10
73.3
20
-82.62
11
73.3
21
-91.62
0
LINE
8
BLACK
6
CONTINUOUS
10
355.952
20
-108.67
11
369.952
21
-108.67
0
LINE
8
BLACK
6
CONTINUOUS
10
353.452
20
-110.67
11
355.952
21
-110.67
0
LINE
8
BLACK
6
CONTINUOUS
10
353.452
20
-101.67
11
353.452
21
-110.67
0
LINE
8
BLACK
6
CONTINUOUS
10
370.952
20
-103.17
11
370.952
21
-98.67
0
LINE
8
BLACK
6
CONTINUOUS
10
370.952
20
-98.67
11
355.452
21
-98.67
0
LINE
8
BLACK
6
CONTINUOUS
10
355.452
20
-101.67
11
353.452
21
-101.67
0
LINE
8
BLACK
6
CONTINUOUS
10
355.952
20
-110.67
11
355.952
21
-108.67
0
LINE
8
BLACK
6
CONTINUOUS
10
369.952
20
-108.67
11
369.952
21
-103.17
0
LINE
8
BLACK
6
CONTINUOUS
10
369.952
20
-103.17
11
370.952
21
-103.17
0
LINE
8
BLACK
6
CONTINUOUS
10
355.452
20
-98.67
11
355.452
21
-101.67
0
LINE
8
BLACK
6
CONTINUOUS
10
269.913
20
-56.1866
11
254.751
21
-59.4093
0
LINE
8
BLACK
6
CONTINUOUS
10
265.133
20
-74.5824
11
264.613
21
-72.137
0
LINE
8
BLACK
6
CONTINUOUS
10
269.87
20
-60.7962
11
270.848
21
-60.5883
0
LINE
8
BLACK
6
CONTINUOUS
10
257.32
20
-69.0868
11
271.014
21
-66.176
0
LINE
8
BLACK
6
CONTINUOUS
10
270.848
20
-60.5883
11
269.913
21
-56.1866
0
LINE
8
BLACK
6
CONTINUOUS
10
254.25
20
-66.6721
11
256.696
21
-66.1523
0
LINE
8
BLACK
6
CONTINUOUS
10
255.375
20
-62.3437
11
253.419
21
-62.7595
0
LINE
8
BLACK
6
CONTINUOUS
10
271.014
20
-66.176
11
269.87
21
-60.7962
0
LINE
8
BLACK
6
CONTINUOUS
10
254.751
20
-59.4093
11
255.375
21
-62.3437
0
LINE
8
BLACK
6
CONTINUOUS
10
270.024
20
-73.5428
11
265.133
21
-74.5824
0
LINE
8
BLACK
6
CONTINUOUS
10
264.613
20
-72.137
11
269.504
21
-71.0975
0
LINE
8
BLACK
6
CONTINUOUS
10
269.504
20
-71.0975
11
270.024
21
-73.5428
0
LINE
8
BLACK
6
CONTINUOUS
10
253.419
20
-62.7595
11
254.25
21
-66.6721
0
LINE
8
BLACK
6
CONTINUOUS
10
256.696
20
-66.1523
11
257.32
21
-69.0868
0
LINE
8
BLACK
6
CONTINUOUS
10
69.75
20
-53.52
11
69.75
21
-51.52
0
LINE
8
BLACK
6
CONTINUOUS
10
67.25
20
-44.52
11
67.25
21
-53.52
0
LINE
8
BLACK
6
CONTINUOUS
10
67.25
20
-53.52
11
69.75
21
-53.52
0
LINE
8
BLACK
6
CONTINUOUS
10
69.75
20
-51.52
11
83.75
21
-51.52
0
LINE
8
BLACK
6
CONTINUOUS
10
69.25
20
-44.52
11
67.25
21
-44.52
0
LINE
8
BLACK
6
CONTINUOUS
10
83.75
20
-46.02
11
84.75
21
-46.02
0
LINE
8
BLACK
6
CONTINUOUS
10
83.75
20
-51.52
11
83.75
21
-46.02
0
LINE
8
BLACK
6
CONTINUOUS
10
84.75
20
-41.52
11
69.25
21
-41.52
0
LINE
8
BLACK
6
CONTINUOUS
10
84.75
20
-46.02
11
84.75
21
-41.52
0
LINE
8
BLACK
6
CONTINUOUS
10
69.25
20
-41.52
11
69.25
21
-44.52
0
LINE
8
BLACK
6
CONTINUOUS
10
43.7563
20
-60.57
11
43.7563
21
-63.57
0
LINE
8
BLACK
6
CONTINUOUS
10
43.7563
20
-63.57
11
41.7563
21
-63.57
0
LINE
8
BLACK
6
CONTINUOUS
10
44.2563
20
-72.57
11
44.2563
21
-70.57
0
LINE
8
BLACK
6
CONTINUOUS
10
58.2562
20
-65.07
11
59.2562
21
-65.07
0
LINE
8
BLACK
6
CONTINUOUS
10
41.7563
20
-72.57
11
44.2563
21
-72.57
0
LINE
8
BLACK
6
CONTINUOUS
10
58.2562
20
-70.57
11
58.2562
21
-65.07
0
LINE
8
BLACK
6
CONTINUOUS
10
59.2562
20
-65.07
11
59.2562
21
-60.57
0
LINE
8
BLACK
6
CONTINUOUS
10
44.2563
20
-70.57
11
58.2562
21
-70.57
0
LINE
8
BLACK
6
CONTINUOUS
10
59.2562
20
-60.57
11
43.7563
21
-60.57
0
LINE
8
BLACK
6
CONTINUOUS
10
41.7563
20
-63.57
11
41.7563
21
-72.57
0
LINE
8
BLACK
6
CONTINUOUS
10
296.042
20
-34.224
11
297.914
21
-43.0273
0
LINE
8
BLACK
6
CONTINUOUS
10
299.943
20
-40.5512
11
313.637
21
-37.6405
0
LINE
8
BLACK
6
CONTINUOUS
10
312.494
20
-32.2607
11
313.472
21
-32.0528
0
LINE
8
BLACK
6
CONTINUOUS
10
313.637
20
-37.6405
11
312.494
21
-32.2607
0
LINE
8
BLACK
6
CONTINUOUS
10
300.359
20
-42.5075
11
299.943
21
-40.5512
0
LINE
8
BLACK
6
CONTINUOUS
10
297.999
20
-33.8082
11
296.042
21
-34.224
0
LINE
8
BLACK
6
CONTINUOUS
10
312.536
20
-27.6511
11
297.375
21
-30.8737
0
LINE
8
BLACK
6
CONTINUOUS
10
313.472
20
-32.0528
11
312.536
21
-27.6511
0
LINE
8
BLACK
6
CONTINUOUS
10
297.375
20
-30.8737
11
297.999
21
-33.8082
0
LINE
8
BLACK
6
CONTINUOUS
10
297.914
20
-43.0273
11
300.359
21
-42.5075
0
LINE
8
BLACK
6
CONTINUOUS
10
294.587
20
-61.1653
11
308.281
21
-58.2546
0
LINE
8
BLACK
6
CONTINUOUS
10
292.557
20
-63.6414
11
295.003
21
-63.1216
0
LINE
8
BLACK
6
CONTINUOUS
10
308.116
20
-52.6669
11
307.18
21
-48.2652
0
LINE
8
BLACK
6
CONTINUOUS
10
308.281
20
-58.2546
11
307.138
21
-52.8748
0
LINE
8
BLACK
6
CONTINUOUS
10
295.003
20
-63.1216
11
294.587
21
-61.1653
0
LINE
8
BLACK
6
CONTINUOUS
10
290.686
20
-54.8381
11
292.557
21
-63.6414
0
LINE
8
BLACK
6
CONTINUOUS
10
292.643
20
-54.4223
11
290.686
21
-54.8381
0
LINE
8
BLACK
6
CONTINUOUS
10
292.019
20
-51.4878
11
292.643
21
-54.4223
0
LINE
8
BLACK
6
CONTINUOUS
10
307.18
20
-48.2652
11
292.019
21
-51.4878
0
LINE
8
BLACK
6
CONTINUOUS
10
307.138
20
-52.8748
11
308.116
21
-52.6669
0
LINE
8
BLACK
6
CONTINUOUS
10
121.381
20
-39.5975
11
121.797
21
-37.6412
0
LINE
8
BLACK
6
CONTINUOUS
10
118.936
20
-39.0777
11
121.381
21
-39.5975
0
LINE
8
BLACK
6
CONTINUOUS
10
137.613
20
-35.3801
11
138.548
21
-30.9784
0
LINE
8
BLACK
6
CONTINUOUS
10
138.548
20
-30.9784
11
123.387
21
-27.7558
0
LINE
8
BLACK
6
CONTINUOUS
10
135.491
20
-40.552
11
136.634
21
-35.1722
0
LINE
8
BLACK
6
CONTINUOUS
10
136.634
20
-35.1722
11
137.613
21
-35.3801
0
LINE
8
BLACK
6
CONTINUOUS
10
120.807
20
-30.2744
11
118.936
21
-39.0777
0
LINE
8
BLACK
6
CONTINUOUS
10
122.763
20
-30.6902
11
120.807
21
-30.2744
0
LINE
8
BLACK
6
CONTINUOUS
10
123.387
20
-27.7558
11
122.763
21
-30.6902
0
LINE
8
BLACK
6
CONTINUOUS
10
121.797
20
-37.6412
11
135.491
21
-40.552
0
LINE
8
BLACK
6
CONTINUOUS
10
124.989
20
-79.3157
11
127.435
21
-79.8355
0
LINE
8
BLACK
6
CONTINUOUS
10
141.545
20
-80.7899
11
142.688
21
-75.4101
0
LINE
8
BLACK
6
CONTINUOUS
10
142.688
20
-75.4101
11
143.666
21
-75.618
0
LINE
8
BLACK
6
CONTINUOUS
10
128.817
20
-70.9282
11
126.861
21
-70.5124
0
LINE
8
BLACK
6
CONTINUOUS
10
144.602
20
-71.2164
11
129.441
21
-67.9937
0
LINE
8
BLACK
6
CONTINUOUS
10
127.435
20
-79.8355
11
127.851
21
-77.8792
0
LINE
8
BLACK
6
CONTINUOUS
10
126.861
20
-70.5124
11
124.989
21
-79.3157
0
LINE
8
BLACK
6
CONTINUOUS
10
127.851
20
-77.8792
11
141.545
21
-80.7899
0
LINE
8
BLACK
6
CONTINUOUS
10
129.441
20
-67.9937
11
128.817
21
-70.9282
0
LINE
8
BLACK
6
CONTINUOUS
10
143.666
20
-75.618
11
144.602
21
-71.2164
0
LINE
8
BLACK
6
CONTINUOUS
10
391.17
20
-63.57
11
389.17
21
-63.57
0
LINE
8
BLACK
6
CONTINUOUS
10
391.17
20
-60.57
11
391.17
21
-63.57
0
LINE
8
BLACK
6
CONTINUOUS
10
406.67
20
-65.07
11
406.67
21
-60.57
0
LINE
8
BLACK
6
CONTINUOUS
10
391.67
20
-70.57
11
405.67
21
-70.57
0
LINE
8
BLACK
6
CONTINUOUS
10
389.17
20
-63.57
11
389.17
21
-72.57
0
LINE
8
BLACK
6
CONTINUOUS
10
391.67
20
-72.57
11
391.67
21
-70.57
0
LINE
8
BLACK
6
CONTINUOUS
10
405.67
20
-70.57
11
405.67
21
-65.07
0
LINE
8
BLACK
6
CONTINUOUS
10
406.67
20
-60.57
11
391.17
21
-60.57
0
LINE
8
BLACK
6
CONTINUOUS
10
405.67
20
-65.07
11
406.67
21
-65.07
0
LINE
8
BLACK
6
CONTINUOUS
10
389.17
20
-72.57
11
391.67
21
-72.57
0
LINE
8
BLACK
6
CONTINUOUS
10
273.752
20
-92.2259
11
273.232
21
-89.7806
0
LINE
8
BLACK
6
CONTINUOUS
10
265.939
20
-86.7303
11
279.633
21
-83.8196
0
LINE
8
BLACK
6
CONTINUOUS
10
279.633
20
-83.8196
11
278.489
21
-78.4397
0
LINE
8
BLACK
6
CONTINUOUS
10
278.123
20
-88.741
11
278.643
21
-91.1864
0
LINE
8
BLACK
6
CONTINUOUS
10
278.532
20
-73.8302
11
263.371
21
-77.0528
0
LINE
8
BLACK
6
CONTINUOUS
10
265.315
20
-83.7959
11
265.939
21
-86.7303
0
LINE
8
BLACK
6
CONTINUOUS
10
263.994
20
-79.9872
11
262.038
21
-80.4031
0
LINE
8
BLACK
6
CONTINUOUS
10
278.489
20
-78.4397
11
279.467
21
-78.2318
0
LINE
8
BLACK
6
CONTINUOUS
10
278.643
20
-91.1864
11
273.752
21
-92.2259
0
LINE
8
BLACK
6
CONTINUOUS
10
263.371
20
-77.0528
11
263.994
21
-79.9872
0
LINE
8
BLACK
6
CONTINUOUS
10
273.232
20
-89.7806
11
278.123
21
-88.741
0
LINE
8
BLACK
6
CONTINUOUS
10
262.038
20
-80.4031
11
262.87
21
-84.3157
0
LINE
8
BLACK
6
CONTINUOUS
10
279.467
20
-78.2318
11
278.532
21
-73.8302
0
LINE
8
BLACK
6
CONTINUOUS
10
262.87
20
-84.3157
11
265.315
21
-83.7959
0
LINE
8
BLACK
6
CONTINUOUS
10
45.94
20
-53.52
11
45.94
21
-51.52
0
LINE
8
BLACK
6
CONTINUOUS
10
45.94
20
-51.52
11
59.94
21
-51.52
0
LINE
8
BLACK
6
CONTINUOUS
10
59.94
20
-51.52
11
59.94
21
-46.02
0
LINE
8
BLACK
6
CONTINUOUS
10
59.94
20
-46.02
11
60.94
21
-46.02
0
LINE
8
BLACK
6
CONTINUOUS
10
60.94
20
-46.02
11
60.94
21
-41.52
0
LINE
8
BLACK
6
CONTINUOUS
10
45.44
20
-41.52
11
45.44
21
-44.52
0
LINE
8
BLACK
6
CONTINUOUS
10
60.94
20
-41.52
11
45.44
21
-41.52
0
LINE
8
BLACK
6
CONTINUOUS
10
43.44
20
-44.52
11
43.44
21
-53.52
0
LINE
8
BLACK
6
CONTINUOUS
10
45.44
20
-44.52
11
43.44
21
-44.52
0
LINE
8
BLACK
6
CONTINUOUS
10
43.44
20
-53.52
11
45.94
21
-53.52
0
LINE
8
BLACK
6
CONTINUOUS
10
87.722
20
-71.3942
11
90.1674
21
-71.914
0
LINE
8
BLACK
6
CONTINUOUS
10
92.1732
20
-60.0723
11
91.5495
21
-63.0067
0
LINE
8
BLACK
6
CONTINUOUS
10
104.277
20
-72.8685
11
105.421
21
-67.4887
0
LINE
8
BLACK
6
CONTINUOUS
10
91.5495
20
-63.0067
11
89.5932
21
-62.5909
0
LINE
8
BLACK
6
CONTINUOUS
10
105.421
20
-67.4887
11
106.399
21
-67.6966
0
LINE
8
BLACK
6
CONTINUOUS
10
90.5832
20
-69.9577
11
104.277
21
-72.8685
0
LINE
8
BLACK
6
CONTINUOUS
10
90.1674
20
-71.914
11
90.5832
21
-69.9577
0
LINE
8
BLACK
6
CONTINUOUS
10
107.335
20
-63.2949
11
92.1732
21
-60.0723
0
LINE
8
BLACK
6
CONTINUOUS
10
89.5932
20
-62.5909
11
87.722
21
-71.3942
0
LINE
8
BLACK
6
CONTINUOUS
10
106.399
20
-67.6966
11
107.335
21
-63.2949
0
LINE
8
BLACK
6
CONTINUOUS
10
52.7125
20
-98.67
11
37.2125
21
-98.67
0
LINE
8
BLACK
6
CONTINUOUS
10
51.7125
20
-108.67
11
51.7125
21
-103.17
0
LINE
8
BLACK
6
CONTINUOUS
10
37.2125
20
-101.67
11
35.2125
21
-101.67
0
LINE
8
BLACK
6
CONTINUOUS
10
37.7125
20
-108.67
11
51.7125
21
-108.67
0
LINE
8
BLACK
6
CONTINUOUS
10
35.2125
20
-110.67
11
37.7125
21
-110.67
0
LINE
8
BLACK
6
CONTINUOUS
10
37.7125
20
-110.67
11
37.7125
21
-108.67
0
LINE
8
BLACK
6
CONTINUOUS
10
35.2125
20
-101.67
11
35.2125
21
-110.67
0
LINE
8
BLACK
6
CONTINUOUS
10
37.2125
20
-98.67
11
37.2125
21
-101.67
0
LINE
8
BLACK
6
CONTINUOUS
10
51.7125
20
-103.17
11
52.7125
21
-103.17
0
LINE
8
BLACK
6
CONTINUOUS
10
52.7125
20
-103.17
11
52.7125
21
-98.67
0
LINE
8
BLACK
6
CONTINUOUS
10
59.8438
20
-79.62
11
44.3438
21
-79.62
0
LINE
8
BLACK
6
CONTINUOUS
10
44.8438
20
-89.62
11
58.8438
21
-89.62
0
LINE
8
BLACK
6
CONTINUOUS
10
42.3438
20
-91.62
11
44.8438
21
-91.62
0
LINE
8
BLACK
6
CONTINUOUS
10
58.8438
20
-84.12
11
59.8438
21
-84.12
0
LINE
8
BLACK
6
CONTINUOUS
10
44.8438
20
-91.62
11
44.8438
21
-89.62
0
LINE
8
BLACK
6
CONTINUOUS
10
59.8438
20
-84.12
11
59.8438
21
-79.62
0
LINE
8
BLACK
6
CONTINUOUS
10
44.3438
20
-79.62
11
44.3438
21
-82.62
0
LINE
8
BLACK
6
CONTINUOUS
10
42.3438
20
-82.62
11
42.3438
21
-91.62
0
LINE
8
BLACK
6
CONTINUOUS
10
58.8438
20
-89.62
11
58.8438
21
-84.12
0
LINE
8
BLACK
6
CONTINUOUS
10
44.3438
20
-82.62
11
42.3438
21
-82.62
0
LINE
8
BLACK
6
CONTINUOUS
10
108.801
20
-75.8747
11
109.217
21
-73.9184
0
LINE
8
BLACK
6
CONTINUOUS
10
110.183
20
-66.9675
11
108.227
21
-66.5516
0
LINE
8
BLACK
6
CONTINUOUS
10
110.807
20
-64.033
11
110.183
21
-66.9675
0
LINE
8
BLACK
6
CONTINUOUS
10
109.217
20
-73.9184
11
122.911
21
-76.8292
0
LINE
8
BLACK
6
CONTINUOUS
10
124.054
20
-71.4494
11
125.033
21
-71.6573
0
LINE
8
BLACK
6
CONTINUOUS
10
125.968
20
-67.2556
11
110.807
21
-64.033
0
LINE
8
BLACK
6
CONTINUOUS
10
125.033
20
-71.6573
11
125.968
21
-67.2556
0
LINE
8
BLACK
6
CONTINUOUS
10
122.911
20
-76.8292
11
124.054
21
-71.4494
0
LINE
8
BLACK
6
CONTINUOUS
10
106.356
20
-75.355
11
108.801
21
-75.8747
0
LINE
8
BLACK
6
CONTINUOUS
10
108.227
20
-66.5516
11
106.356
21
-75.355
0
LINE
8
BLACK
6
CONTINUOUS
10
360.214
20
-60.57
11
360.214
21
-63.57
0
LINE
8
BLACK
6
CONTINUOUS
10
375.714
20
-60.57
11
360.214
21
-60.57
0
LINE
8
BLACK
6
CONTINUOUS
10
374.714
20
-65.07
11
375.714
21
-65.07
0
LINE
8
BLACK
6
CONTINUOUS
10
360.214
20
-63.57
11
358.214
21
-63.57
0
LINE
8
BLACK
6
CONTINUOUS
10
360.714
20
-72.57
11
360.714
21
-70.57
0
LINE
8
BLACK
6
CONTINUOUS
10
358.214
20
-72.57
11
360.714
21
-72.57
0
LINE
8
BLACK
6
CONTINUOUS
10
360.714
20
-70.57
11
374.714
21
-70.57
0
LINE
8
BLACK
6
CONTINUOUS
10
375.714
20
-65.07
11
375.714
21
-60.57
0
LINE
8
BLACK
6
CONTINUOUS
10
374.714
20
-70.57
11
374.714
21
-65.07
0
LINE
8
BLACK
6
CONTINUOUS
10
358.214
20
-63.57
11
358.214
21
-72.57
0
LINE
8
BLACK
6
CONTINUOUS
10
405.839
20
-91.62
11
408.339
21
-91.62
0
LINE
8
BLACK
6
CONTINUOUS
10
408.339
20
-89.62
11
422.339
21
-89.62
0
LINE
8
BLACK
6
CONTINUOUS
10
423.339
20
-84.12
11
423.339
21
-79.62
0
LINE
8
BLACK
6
CONTINUOUS
10
423.339
20
-79.62
11
407.839
21
-79.62
0
LINE
8
BLACK
6
CONTINUOUS
10
405.839
20
-82.62
11
405.839
21
-91.62
0
LINE
8
BLACK
6
CONTINUOUS
10
422.339
20
-89.62
11
422.339
21
-84.12
0
LINE
8
BLACK
6
CONTINUOUS
10
422.339
20
-84.12
11
423.339
21
-84.12
0
LINE
8
BLACK
6
CONTINUOUS
10
408.339
20
-91.62
11
408.339
21
-89.62
0
LINE
8
BLACK
6
CONTINUOUS
10
407.839
20
-82.62
11
405.839
21
-82.62
0
LINE
8
BLACK
6
CONTINUOUS
10
407.839
20
-79.62
11
407.839
21
-82.62
0
LINE
8
BLACK
6
CONTINUOUS
10
156.781
20
-125.024
11
157.197
21
-123.068
0
LINE
8
BLACK
6
CONTINUOUS
10
157.197
20
-123.068
11
170.891
21
-125.979
0
LINE
8
BLACK
6
CONTINUOUS
10
156.207
20
-115.701
11
154.335
21
-124.505
0
LINE
8
BLACK
6
CONTINUOUS
10
172.034
20
-120.599
11
173.012
21
-120.807
0
LINE
8
BLACK
6
CONTINUOUS
10
170.891
20
-125.979
11
172.034
21
-120.599
0
LINE
8
BLACK
6
CONTINUOUS
10
173.012
20
-120.807
11
173.948
21
-116.405
0
LINE
8
BLACK
6
CONTINUOUS
10
154.335
20
-124.505
11
156.781
21
-125.024
0
LINE
8
BLACK
6
CONTINUOUS
10
173.948
20
-116.405
11
158.787
21
-113.183
0
LINE
8
BLACK
6
CONTINUOUS
10
158.163
20
-116.117
11
156.207
21
-115.701
0
LINE
8
BLACK
6
CONTINUOUS
10
158.787
20
-113.183
11
158.163
21
-116.117
0
LINE
8
BLACK
6
CONTINUOUS
10
287.262
20
-108.83
11
282.371
21
-109.869
0
LINE
8
BLACK
6
CONTINUOUS
10
272.613
20
-97.6308
11
270.657
21
-98.0466
0
LINE
8
BLACK
6
CONTINUOUS
10
282.371
20
-109.869
11
281.851
21
-107.424
0
LINE
8
BLACK
6
CONTINUOUS
10
286.742
20
-106.385
11
287.262
21
-108.83
0
LINE
8
BLACK
6
CONTINUOUS
10
287.108
20
-96.0833
11
288.087
21
-95.8754
0
LINE
8
BLACK
6
CONTINUOUS
10
274.558
20
-104.374
11
288.252
21
-101.463
0
LINE
8
BLACK
6
CONTINUOUS
10
287.151
20
-91.4737
11
271.99
21
-94.6964
0
LINE
8
BLACK
6
CONTINUOUS
10
288.087
20
-95.8754
11
287.151
21
-91.4737
0
LINE
8
BLACK
6
CONTINUOUS
10
281.851
20
-107.424
11
286.742
21
-106.385
0
LINE
8
BLACK
6
CONTINUOUS
10
288.252
20
-101.463
11
287.108
21
-96.0833
0
LINE
8
BLACK
6
CONTINUOUS
10
271.489
20
-101.959
11
273.934
21
-101.439
0
LINE
8
BLACK
6
CONTINUOUS
10
270.657
20
-98.0466
11
271.489
21
-101.959
0
LINE
8
BLACK
6
CONTINUOUS
10
273.934
20
-101.439
11
274.558
21
-104.374
0
LINE
8
BLACK
6
CONTINUOUS
10
271.99
20
-94.6964
11
272.613
21
-97.6308
0
LINE
8
BLACK
6
CONTINUOUS
10
97.5293
20
-80.6864
11
96.9056
21
-83.6208
0
LINE
8
BLACK
6
CONTINUOUS
10
94.9493
20
-83.205
11
93.0781
21
-92.0083
0
LINE
8
BLACK
6
CONTINUOUS
10
112.691
20
-83.909
11
97.5293
21
-80.6864
0
LINE
8
BLACK
6
CONTINUOUS
10
95.9393
20
-90.5718
11
109.633
21
-93.4826
0
LINE
8
BLACK
6
CONTINUOUS
10
110.777
20
-88.1027
11
111.755
21
-88.3107
0
LINE
8
BLACK
6
CONTINUOUS
10
95.5235
20
-92.5281
11
95.9393
21
-90.5718
0
LINE
8
BLACK
6
CONTINUOUS
10
93.0781
20
-92.0083
11
95.5235
21
-92.5281
0
LINE
8
BLACK
6
CONTINUOUS
10
111.755
20
-88.3107
11
112.691
21
-83.909
0
LINE
8
BLACK
6
CONTINUOUS
10
96.9056
20
-83.6208
11
94.9493
21
-83.205
0
LINE
8
BLACK
6
CONTINUOUS
10
109.633
20
-93.4826
11
110.777
21
-88.1027
0
LINE
8
BLACK
6
CONTINUOUS
10
282.628
20
-76.0265
11
280.672
21
-76.4424
0
LINE
8
BLACK
6
CONTINUOUS
10
280.672
20
-76.4424
11
282.543
21
-85.2457
0
LINE
8
BLACK
6
CONTINUOUS
10
282.004
20
-73.0921
11
282.628
21
-76.0265
0
LINE
8
BLACK
6
CONTINUOUS
10
282.543
20
-85.2457
11
284.988
21
-84.7259
0
LINE
8
BLACK
6
CONTINUOUS
10
297.166
20
-69.8695
11
282.004
21
-73.0921
0
LINE
8
BLACK
6
CONTINUOUS
10
284.988
20
-84.7259
11
284.572
21
-82.7696
0
LINE
8
BLACK
6
CONTINUOUS
10
284.572
20
-82.7696
11
298.266
21
-79.8588
0
LINE
8
BLACK
6
CONTINUOUS
10
298.266
20
-79.8588
11
297.123
21
-74.479
0
LINE
8
BLACK
6
CONTINUOUS
10
298.101
20
-74.2711
11
297.166
21
-69.8695
0
LINE
8
BLACK
6
CONTINUOUS
10
297.123
20
-74.479
11
298.101
21
-74.2711
0
LINE
8
BLACK
6
CONTINUOUS
10
393.764
20
-84.12
11
394.764
21
-84.12
0
LINE
8
BLACK
6
CONTINUOUS
10
377.264
20
-91.62
11
379.764
21
-91.62
0
LINE
8
BLACK
6
CONTINUOUS
10
379.764
20
-91.62
11
379.764
21
-89.62
0
LINE
8
BLACK
6
CONTINUOUS
10
379.264
20
-79.62
11
379.264
21
-82.62
0
LINE
8
BLACK
6
CONTINUOUS
10
393.764
20
-89.62
11
393.764
21
-84.12
0
LINE
8
BLACK
6
CONTINUOUS
10
394.764
20
-84.12
11
394.764
21
-79.62
0
LINE
8
BLACK
6
CONTINUOUS
10
394.764
20
-79.62
11
379.264
21
-79.62
0
LINE
8
BLACK
6
CONTINUOUS
10
377.264
20
-82.62
11
377.264
21
-91.62
0
LINE
8
BLACK
6
CONTINUOUS
10
379.764
20
-89.62
11
393.764
21
-89.62
0
LINE
8
BLACK
6
CONTINUOUS
10
379.264
20
-82.62
11
377.264
21
-82.62
0
LINE
8
BLACK
6
CONTINUOUS
10
337.984
20
-30.9696
11
351.984
21
-30.9696
0
LINE
8
BLACK
6
CONTINUOUS
10
335.484
20
-32.9696
11
337.984
21
-32.9696
0
LINE
8
BLACK
6
CONTINUOUS
10
352.984
20
-20.9696
11
337.484
21
-20.9696
0
LINE
8
BLACK
6
CONTINUOUS
10
337.484
20
-23.9696
11
335.484
21
-23.9696
0
LINE
8
BLACK
6
CONTINUOUS
10
352.984
20
-25.4696
11
352.984
21
-20.9696
0
LINE
8
BLACK
6
CONTINUOUS
10
351.984
20
-25.4696
11
352.984
21
-25.4696
0
LINE
8
BLACK
6
CONTINUOUS
10
337.984
20
-32.9696
11
337.984
21
-30.9696
0
LINE
8
BLACK
6
CONTINUOUS
10
337.484
20
-20.9696
11
337.484
21
-23.9696
0
LINE
8
BLACK
6
CONTINUOUS
10
335.484
20
-23.9696
11
335.484
21
-32.9696
0
LINE
8
BLACK
6
CONTINUOUS
10
351.984
20
-30.9696
11
351.984
21
-25.4696
0
LINE
8
BLACK
6
CONTINUOUS
10
316.9
20
-75.8981
11
315.757
21
-70.5183
0
LINE
8
BLACK
6
CONTINUOUS
10
303.206
20
-78.8089
11
316.9
21
-75.8981
0
LINE
8
BLACK
6
CONTINUOUS
10
315.757
20
-70.5183
11
316.735
21
-70.3104
0
LINE
8
BLACK
6
CONTINUOUS
10
316.735
20
-70.3104
11
315.799
21
-65.9087
0
LINE
8
BLACK
6
CONTINUOUS
10
301.262
20
-72.0658
11
299.305
21
-72.4816
0
LINE
8
BLACK
6
CONTINUOUS
10
315.799
20
-65.9087
11
300.638
21
-69.1314
0
LINE
8
BLACK
6
CONTINUOUS
10
300.638
20
-69.1314
11
301.262
21
-72.0658
0
LINE
8
BLACK
6
CONTINUOUS
10
299.305
20
-72.4816
11
301.177
21
-81.285
0
LINE
8
BLACK
6
CONTINUOUS
10
303.622
20
-80.7652
11
303.206
21
-78.8089
0
LINE
8
BLACK
6
CONTINUOUS
10
301.177
20
-81.285
11
303.622
21
-80.7652
0
LINE
8
BLACK
6
CONTINUOUS
10
344.448
20
-40.3438
11
329.286
21
-43.5664
0
LINE
8
BLACK
6
CONTINUOUS
10
329.91
20
-46.5008
11
327.954
21
-46.9167
0
LINE
8
BLACK
6
CONTINUOUS
10
331.854
20
-53.2439
11
345.549
21
-50.3331
0
LINE
8
BLACK
6
CONTINUOUS
10
332.27
20
-55.2002
11
331.854
21
-53.2439
0
LINE
8
BLACK
6
CONTINUOUS
10
345.383
20
-44.7454
11
344.448
21
-40.3438
0
LINE
8
BLACK
6
CONTINUOUS
10
329.286
20
-43.5664
11
329.91
21
-46.5008
0
LINE
8
BLACK
6
CONTINUOUS
10
329.825
20
-55.72
11
332.27
21
-55.2002
0
LINE
8
BLACK
6
CONTINUOUS
10
344.405
20
-44.9533
11
345.383
21
-44.7454
0
LINE
8
BLACK
6
CONTINUOUS
10
327.954
20
-46.9167
11
329.825
21
-55.72
0
LINE
8
BLACK
6
CONTINUOUS
10
345.549
20
-50.3331
11
344.405
21
-44.9533
0
LINE
8
BLACK
6
CONTINUOUS
10
42.84
20
-29.47
11
45.34
21
-29.47
0
LINE
8
BLACK
6
CONTINUOUS
10
50.59
20
-33.97
11
50.59
21
-32.47
0
LINE
8
BLACK
6
CONTINUOUS
10
44.84
20
-25.47
11
42.84
21
-25.47
0
LINE
8
BLACK
6
CONTINUOUS
10
60.34
20
-26.97
11
60.34
21
-22.47
0
LINE
8
BLACK
6
CONTINUOUS
10
45.34
20
-29.47
11
45.34
21
-33.97
0
LINE
8
BLACK
6
CONTINUOUS
10
59.34
20
-32.47
11
50.59
21
-32.47
0
LINE
8
BLACK
6
CONTINUOUS
10
59.34
20
-32.47
11
59.34
21
-26.97
0
LINE
8
BLACK
6
CONTINUOUS
10
42.84
20
-25.47
11
42.84
21
-29.47
0
LINE
8
BLACK
6
CONTINUOUS
10
44.84
20
-22.47
11
44.84
21
-25.47
0
LINE
8
BLACK
6
CONTINUOUS
10
60.34
20
-22.47
11
44.84
21
-22.47
0
LINE
8
BLACK
6
CONTINUOUS
10
59.34
20
-26.97
11
60.34
21
-26.97
0
LINE
8
BLACK
6
CONTINUOUS
10
45.34
20
-33.97
11
50.59
21
-33.97
0
LINE
8
BLACK
6
CONTINUOUS
10
106.637
20
-43.671
11
91.4756
21
-40.4484
0
LINE
8
BLACK
6
CONTINUOUS
10
87.0243
20
-51.7703
11
89.4697
21
-52.2901
0
LINE
8
BLACK
6
CONTINUOUS
10
89.8855
20
-50.3338
11
103.58
21
-53.2446
0
LINE
8
BLACK
6
CONTINUOUS
10
89.4697
20
-52.2901
11
89.8855
21
-50.3338
0
LINE
8
BLACK
6
CONTINUOUS
10
105.701
20
-48.0727
11
106.637
21
-43.671
0
LINE
8
BLACK
6
CONTINUOUS
10
88.8956
20
-42.967
11
87.0243
21
-51.7703
0
LINE
8
BLACK
6
CONTINUOUS
10
103.58
20
-53.2446
11
104.723
21
-47.8648
0
LINE
8
BLACK
6
CONTINUOUS
10
90.8518
20
-43.3828
11
88.8956
21
-42.967
0
LINE
8
BLACK
6
CONTINUOUS
10
91.4756
20
-40.4484
11
90.8518
21
-43.3828
0
LINE
8
BLACK
6
CONTINUOUS
10
104.723
20
-47.8648
11
105.701
21
-48.0727
0
LINE
8
BLACK
6
CONTINUOUS
10
422.339
20
-103.17
11
423.339
21
-103.17
0
LINE
8
BLACK
6
CONTINUOUS
10
423.339
20
-103.17
11
423.339
21
-98.67
0
LINE
8
BLACK
6
CONTINUOUS
10
408.339
20
-108.67
11
422.339
21
-108.67
0
LINE
8
BLACK
6
CONTINUOUS
10
407.839
20
-101.67
11
405.839
21
-101.67
0
LINE
8
BLACK
6
CONTINUOUS
10
422.339
20
-108.67
11
422.339
21
-103.17
0
LINE
8
BLACK
6
CONTINUOUS
10
405.839
20
-101.67
11
405.839
21
-110.67
0
LINE
8
BLACK
6
CONTINUOUS
10
423.339
20
-98.67
11
407.839
21
-98.67
0
LINE
8
BLACK
6
CONTINUOUS
10
405.839
20
-110.67
11
408.339
21
-110.67
0
LINE
8
BLACK
6
CONTINUOUS
10
407.839
20
-98.67
11
407.839
21
-101.67
0
LINE
8
BLACK
6
CONTINUOUS
10
408.339
20
-110.67
11
408.339
21
-108.67
0
LINE
8
BLACK
6
CONTINUOUS
10
281.725
20
-46.4683
11
281.31
21
-44.512
0
LINE
8
BLACK
6
CONTINUOUS
10
277.409
20
-38.1847
11
279.28
21
-46.988
0
LINE
8
BLACK
6
CONTINUOUS
10
279.365
20
-37.7689
11
277.409
21
-38.1847
0
LINE
8
BLACK
6
CONTINUOUS
10
293.86
20
-36.2214
11
294.838
21
-36.0135
0
LINE
8
BLACK
6
CONTINUOUS
10
295.004
20
-41.6012
11
293.86
21
-36.2214
0
LINE
8
BLACK
6
CONTINUOUS
10
294.838
20
-36.0135
11
293.903
21
-31.6118
0
LINE
8
BLACK
6
CONTINUOUS
10
278.741
20
-34.8344
11
279.365
21
-37.7689
0
LINE
8
BLACK
6
CONTINUOUS
10
293.903
20
-31.6118
11
278.741
21
-34.8344
0
LINE
8
BLACK
6
CONTINUOUS
10
279.28
20
-46.988
11
281.725
21
-46.4683
0
LINE
8
BLACK
6
CONTINUOUS
10
281.31
20
-44.512
11
295.004
21
-41.6012
0
LINE
8
BLACK
6
CONTINUOUS
10
337.653
20
-104.815
11
338.632
21
-104.607
0
LINE
8
BLACK
6
CONTINUOUS
10
338.632
20
-104.607
11
337.696
21
-100.206
0
LINE
8
BLACK
6
CONTINUOUS
10
325.103
20
-113.106
11
338.797
21
-110.195
0
LINE
8
BLACK
6
CONTINUOUS
10
337.696
20
-100.206
11
322.535
21
-103.428
0
LINE
8
BLACK
6
CONTINUOUS
10
338.797
20
-110.195
11
337.653
21
-104.815
0
LINE
8
BLACK
6
CONTINUOUS
10
322.535
20
-103.428
11
323.158
21
-106.363
0
LINE
8
BLACK
6
CONTINUOUS
10
325.519
20
-115.062
11
325.103
21
-113.106
0
LINE
8
BLACK
6
CONTINUOUS
10
323.158
20
-106.363
11
321.202
21
-106.779
0
LINE
8
BLACK
6
CONTINUOUS
10
323.073
20
-115.582
11
325.519
21
-115.062
0
LINE
8
BLACK
6
CONTINUOUS
10
321.202
20
-106.779
11
323.073
21
-115.582
0
LINE
8
BLACK
6
CONTINUOUS
10
130.836
20
-107.241
11
130.212
21
-110.176
0
LINE
8
BLACK
6
CONTINUOUS
10
128.83
20
-119.083
11
129.246
21
-117.127
0
LINE
8
BLACK
6
CONTINUOUS
10
144.084
20
-114.658
11
145.062
21
-114.866
0
LINE
8
BLACK
6
CONTINUOUS
10
142.94
20
-120.038
11
144.084
21
-114.658
0
LINE
8
BLACK
6
CONTINUOUS
10
126.385
20
-118.563
11
128.83
21
-119.083
0
LINE
8
BLACK
6
CONTINUOUS
10
130.212
20
-110.176
11
128.256
21
-109.76
0
LINE
8
BLACK
6
CONTINUOUS
10
129.246
20
-117.127
11
142.94
21
-120.038
0
LINE
8
BLACK
6
CONTINUOUS
10
145.062
20
-114.866
11
145.997
21
-110.464
0
LINE
8
BLACK
6
CONTINUOUS
10
145.997
20
-110.464
11
130.836
21
-107.241
0
LINE
8
BLACK
6
CONTINUOUS
10
128.256
20
-109.76
11
126.385
21
-118.563
0
LINE
8
BLACK
6
CONTINUOUS
10
33.0625
20
-65.07
11
33.0625
21
-60.57
0
LINE
8
BLACK
6
CONTINUOUS
10
18.0625
20
-72.57
11
18.0625
21
-70.57
0
LINE
8
BLACK
6
CONTINUOUS
10
15.5625
20
-72.57
11
18.0625
21
-72.57
0
LINE
8
BLACK
6
CONTINUOUS
10
17.5625
20
-60.57
11
17.5625
21
-63.57
0
LINE
8
BLACK
6
CONTINUOUS
10
17.5625
20
-63.57
11
15.5625
21
-63.57
0
LINE
8
BLACK
6
CONTINUOUS
10
32.0625
20
-70.57
11
32.0625
21
-65.07
0
LINE
8
BLACK
6
CONTINUOUS
10
15.5625
20
-63.57
11
15.5625
21
-72.57
0
LINE
8
BLACK
6
CONTINUOUS
10
32.0625
20
-65.07
11
33.0625
21
-65.07
0
LINE
8
BLACK
6
CONTINUOUS
10
33.0625
20
-60.57
11
17.5625
21
-60.57
0
LINE
8
BLACK
6
CONTINUOUS
10
18.0625
20
-70.57
11
32.0625
21
-70.57
0
LINE
8
BLACK
6
CONTINUOUS
10
112.453
20
-107.935
11
113.388
21
-103.533
0
LINE
8
BLACK
6
CONTINUOUS
10
111.475
20
-107.727
11
112.453
21
-107.935
0
LINE
8
BLACK
6
CONTINUOUS
10
110.331
20
-113.106
11
111.475
21
-107.727
0
LINE
8
BLACK
6
CONTINUOUS
10
97.6033
20
-103.245
11
95.647
21
-102.829
0
LINE
8
BLACK
6
CONTINUOUS
10
98.227
20
-100.31
11
97.6033
21
-103.245
0
LINE
8
BLACK
6
CONTINUOUS
10
93.7758
20
-111.632
11
96.2212
21
-112.152
0
LINE
8
BLACK
6
CONTINUOUS
10
95.647
20
-102.829
11
93.7758
21
-111.632
0
LINE
8
BLACK
6
CONTINUOUS
10
113.388
20
-103.533
11
98.227
21
-100.31
0
LINE
8
BLACK
6
CONTINUOUS
10
96.637
20
-110.196
11
110.331
21
-113.106
0
LINE
8
BLACK
6
CONTINUOUS
10
96.2212
20
-112.152
11
96.637
21
-110.196
0
LINE
8
BLACK
6
CONTINUOUS
10
148.979
20
-103.89
11
151.425
21
-104.41
0
LINE
8
BLACK
6
CONTINUOUS
10
168.592
20
-95.7912
11
153.43
21
-92.5685
0
LINE
8
BLACK
6
CONTINUOUS
10
166.678
20
-99.9849
11
167.656
21
-100.193
0
LINE
8
BLACK
6
CONTINUOUS
10
151.425
20
-104.41
11
151.84
21
-102.454
0
LINE
8
BLACK
6
CONTINUOUS
10
153.43
20
-92.5685
11
152.807
21
-95.503
0
LINE
8
BLACK
6
CONTINUOUS
10
167.656
20
-100.193
11
168.592
21
-95.7912
0
LINE
8
BLACK
6
CONTINUOUS
10
152.807
20
-95.503
11
150.85
21
-95.0872
0
LINE
8
BLACK
6
CONTINUOUS
10
165.534
20
-105.365
11
166.678
21
-99.9849
0
LINE
8
BLACK
6
CONTINUOUS
10
150.85
20
-95.0872
11
148.979
21
-103.89
0
LINE
8
BLACK
6
CONTINUOUS
10
151.84
20
-102.454
11
165.534
21
-105.365
0
LINE
8
BLACK
6
CONTINUOUS
10
114.157
20
-96.4888
11
114.573
21
-94.5325
0
LINE
8
BLACK
6
CONTINUOUS
10
111.712
20
-95.969
11
114.157
21
-96.4888
0
LINE
8
BLACK
6
CONTINUOUS
10
129.411
20
-92.0635
11
130.389
21
-92.2714
0
LINE
8
BLACK
6
CONTINUOUS
10
115.539
20
-87.5815
11
113.583
21
-87.1657
0
LINE
8
BLACK
6
CONTINUOUS
10
114.573
20
-94.5325
11
128.267
21
-97.4433
0
LINE
8
BLACK
6
CONTINUOUS
10
131.324
20
-87.8697
11
116.163
21
-84.6471
0
LINE
8
BLACK
6
CONTINUOUS
10
116.163
20
-84.6471
11
115.539
21
-87.5815
0
LINE
8
BLACK
6
CONTINUOUS
10
128.267
20
-97.4433
11
129.411
21
-92.0635
0
LINE
8
BLACK
6
CONTINUOUS
10
113.583
20
-87.1657
11
111.712
21
-95.969
0
LINE
8
BLACK
6
CONTINUOUS
10
130.389
20
-92.2714
11
131.324
21
-87.8697
0
LINE
8
BLACK
6
CONTINUOUS
10
97.44
20
-25.4696
11
98.44
21
-25.4696
0
LINE
8
BLACK
6
CONTINUOUS
10
80.94
20
-23.9696
11
80.94
21
-32.9696
0
LINE
8
BLACK
6
CONTINUOUS
10
82.94
20
-23.9696
11
80.94
21
-23.9696
0
LINE
8
BLACK
6
CONTINUOUS
10
80.94
20
-32.9696
11
83.44
21
-32.9696
0
LINE
8
BLACK
6
CONTINUOUS
10
98.44
20
-20.9696
11
82.94
21
-20.9696
0
LINE
8
BLACK
6
CONTINUOUS
10
97.44
20
-30.9696
11
97.44
21
-25.4696
0
LINE
8
BLACK
6
CONTINUOUS
10
82.94
20
-20.9696
11
82.94
21
-23.9696
0
LINE
8
BLACK
6
CONTINUOUS
10
83.44
20
-30.9696
11
97.44
21
-30.9696
0
LINE
8
BLACK
6
CONTINUOUS
10
98.44
20
-25.4696
11
98.44
21
-20.9696
0
LINE
8
BLACK
6
CONTINUOUS
10
83.44
20
-32.9696
11
83.44
21
-30.9696
0
LINE
8
BLACK
6
CONTINUOUS
10
63.7875
20
-101.67
11
63.7875
21
-110.67
0
LINE
8
BLACK
6
CONTINUOUS
10
66.2875
20
-110.67
11
66.2875
21
-108.67
0
LINE
8
BLACK
6
CONTINUOUS
10
63.7875
20
-110.67
11
66.2875
21
-110.67
0
LINE
8
BLACK
6
CONTINUOUS
10
81.2875
20
-103.17
11
81.2875
21
-98.67
0
LINE
8
BLACK
6
CONTINUOUS
10
81.2875
20
-98.67
11
65.7875
21
-98.67
0
LINE
8
BLACK
6
CONTINUOUS
10
80.2875
20
-103.17
11
81.2875
21
-103.17
0
LINE
8
BLACK
6
CONTINUOUS
10
65.7875
20
-101.67
11
63.7875
21
-101.67
0
LINE
8
BLACK
6
CONTINUOUS
10
65.7875
20
-98.67
11
65.7875
21
-101.67
0
LINE
8
BLACK
6
CONTINUOUS
10
66.2875
20
-108.67
11
80.2875
21
-108.67
0
LINE
8
BLACK
6
CONTINUOUS
10
80.2875
20
-108.67
11
80.2875
21
-103.17
0
LINE
8
BLACK
6
CONTINUOUS
10
309.32
20
-50.8774
11
311.191
21
-59.6807
0
LINE
8
BLACK
6
CONTINUOUS
10
311.191
20
-59.6807
11
313.637
21
-59.1609
0
LINE
8
BLACK
6
CONTINUOUS
10
325.771
20
-48.914
11
326.749
21
-48.7061
0
LINE
8
BLACK
6
CONTINUOUS
10
311.276
20
-50.4615
11
309.32
21
-50.8774
0
LINE
8
BLACK
6
CONTINUOUS
10
313.637
20
-59.1609
11
313.221
21
-57.2046
0
LINE
8
BLACK
6
CONTINUOUS
10
326.749
20
-48.7061
11
325.814
21
-44.3045
0
LINE
8
BLACK
6
CONTINUOUS
10
325.814
20
-44.3045
11
310.653
21
-47.5271
0
LINE
8
BLACK
6
CONTINUOUS
10
313.221
20
-57.2046
11
326.915
21
-54.2939
0
LINE
8
BLACK
6
CONTINUOUS
10
326.915
20
-54.2939
11
325.771
21
-48.914
0
LINE
8
BLACK
6
CONTINUOUS
10
310.653
20
-47.5271
11
311.276
21
-50.4615
0
LINE
8
BLACK
6
CONTINUOUS
10
143.623
20
-83.2764
11
146.069
21
-83.7962
0
LINE
8
BLACK
6
CONTINUOUS
10
146.069
20
-83.7962
11
146.484
21
-81.8399
0
LINE
8
BLACK
6
CONTINUOUS
10
161.322
20
-79.3709
11
162.3
21
-79.5788
0
LINE
8
BLACK
6
CONTINUOUS
10
148.074
20
-71.9545
11
147.451
21
-74.8889
0
LINE
8
BLACK
6
CONTINUOUS
10
162.3
20
-79.5788
11
163.236
21
-75.1771
0
LINE
8
BLACK
6
CONTINUOUS
10
160.178
20
-84.7507
11
161.322
21
-79.3709
0
LINE
8
BLACK
6
CONTINUOUS
10
163.236
20
-75.1771
11
148.074
21
-71.9545
0
LINE
8
BLACK
6
CONTINUOUS
10
146.484
20
-81.8399
11
160.178
21
-84.7507
0
LINE
8
BLACK
6
CONTINUOUS
10
147.451
20
-74.8889
11
145.494
21
-74.4731
0
LINE
8
BLACK
6
CONTINUOUS
10
145.494
20
-74.4731
11
143.623
21
-83.2764
0
LINE
8
BLACK
6
CONTINUOUS
10
383.109
20
-25.47
11
383.109
21
-34.47
0
LINE
8
BLACK
6
CONTINUOUS
10
385.109
20
-22.47
11
385.109
21
-25.47
0
LINE
8
BLACK
6
CONTINUOUS
10
385.609
20
-32.47
11
399.609
21
-32.47
0
LINE
8
BLACK
6
CONTINUOUS
10
400.609
20
-22.47
11
385.109
21
-22.47
0
LINE
8
BLACK
6
CONTINUOUS
10
400.609
20
-26.97
11
400.609
21
-22.47
0
LINE
8
BLACK
6
CONTINUOUS
10
399.609
20
-32.47
11
399.609
21
-26.97
0
LINE
8
BLACK
6
CONTINUOUS
10
385.609
20
-34.47
11
385.609
21
-32.47
0
LINE
8
BLACK
6
CONTINUOUS
10
385.109
20
-25.47
11
383.109
21
-25.47
0
LINE
8
BLACK
6
CONTINUOUS
10
383.109
20
-34.47
11
385.609
21
-34.47
0
LINE
8
BLACK
6
CONTINUOUS
10
399.609
20
-26.97
11
400.609
21
-26.97
0
LINE
8
BLACK
6
CONTINUOUS
10
305.785
20
-87.513
11
290.623
21
-90.7356
0
LINE
8
BLACK
6
CONTINUOUS
10
289.291
20
-94.0859
11
291.162
21
-102.889
0
LINE
8
BLACK
6
CONTINUOUS
10
293.192
20
-100.413
11
306.886
21
-97.5024
0
LINE
8
BLACK
6
CONTINUOUS
10
293.607
20
-102.369
11
293.192
21
-100.413
0
LINE
8
BLACK
6
CONTINUOUS
10
306.886
20
-97.5024
11
305.742
21
-92.1226
0
LINE
8
BLACK
6
CONTINUOUS
10
290.623
20
-90.7356
11
291.247
21
-93.6701
0
LINE
8
BLACK
6
CONTINUOUS
10
291.247
20
-93.6701
11
289.291
21
-94.0859
0
LINE
8
BLACK
6
CONTINUOUS
10
291.162
20
-102.889
11
293.607
21
-102.369
0
LINE
8
BLACK
6
CONTINUOUS
10
306.72
20
-91.9147
11
305.785
21
-87.513
0
LINE
8
BLACK
6
CONTINUOUS
10
305.742
20
-92.1226
11
306.72
21
-91.9147
0
LINE
8
BLACK
6
CONTINUOUS
10
36.1275
20
-51.52
11
36.1275
21
-46.02
0
LINE
8
BLACK
6
CONTINUOUS
10
37.1275
20
-46.02
11
37.1275
21
-41.52
0
LINE
8
BLACK
6
CONTINUOUS
10
36.1275
20
-46.02
11
37.1275
21
-46.02
0
LINE
8
BLACK
6
CONTINUOUS
10
22.1275
20
-53.52
11
22.1275
21
-51.52
0
LINE
8
BLACK
6
CONTINUOUS
10
21.6275
20
-44.52
11
19.6275
21
-44.52
0
LINE
8
BLACK
6
CONTINUOUS
10
37.1275
20
-41.52
11
21.6275
21
-41.52
0
LINE
8
BLACK
6
CONTINUOUS
10
19.6275
20
-44.52
11
19.6275
21
-53.52
0
LINE
8
BLACK
6
CONTINUOUS
10
21.6275
20
-41.52
11
21.6275
21
-44.52
0
LINE
8
BLACK
6
CONTINUOUS
10
22.1275
20
-51.52
11
36.1275
21
-51.52
0
LINE
8
BLACK
6
CONTINUOUS
10
19.6275
20
-53.52
11
22.1275
21
-53.52
0
LINE
8
BLACK
6
CONTINUOUS
10
326.558
20
-86.1645
11
328.429
21
-94.9678
0
LINE
8
BLACK
6
CONTINUOUS
10
344.153
20
-89.581
11
343.01
21
-84.2012
0
LINE
8
BLACK
6
CONTINUOUS
10
330.459
20
-92.4917
11
344.153
21
-89.581
0
LINE
8
BLACK
6
CONTINUOUS
10
328.429
20
-94.9678
11
330.875
21
-94.448
0
LINE
8
BLACK
6
CONTINUOUS
10
328.515
20
-85.7487
11
326.558
21
-86.1645
0
LINE
8
BLACK
6
CONTINUOUS
10
327.891
20
-82.8142
11
328.515
21
-85.7487
0
LINE
8
BLACK
6
CONTINUOUS
10
343.01
20
-84.2012
11
343.988
21
-83.9932
0
LINE
8
BLACK
6
CONTINUOUS
10
343.052
20
-79.5916
11
327.891
21
-82.8142
0
LINE
8
BLACK
6
CONTINUOUS
10
343.988
20
-83.9932
11
343.052
21
-79.5916
0
LINE
8
BLACK
6
CONTINUOUS
10
330.875
20
-94.448
11
330.459
21
-92.4917
0
LINE
8
BLACK
6
CONTINUOUS
10
61.89
20
-34.47
11
64.39
21
-34.47
0
LINE
8
BLACK
6
CONTINUOUS
10
78.39
20
-26.97
11
79.39
21
-26.97
0
LINE
8
BLACK
6
CONTINUOUS
10
63.89
20
-25.47
11
61.89
21
-25.47
0
LINE
8
BLACK
6
CONTINUOUS
10
64.39
20
-32.47
11
78.39
21
-32.47
0
LINE
8
BLACK
6
CONTINUOUS
10
61.89
20
-25.47
11
61.89
21
-34.47
0
LINE
8
BLACK
6
CONTINUOUS
10
78.39
20
-32.47
11
78.39
21
-26.97
0
LINE
8
BLACK
6
CONTINUOUS
10
79.39
20
-26.97
11
79.39
21
-22.47
0
LINE
8
BLACK
6
CONTINUOUS
10
64.39
20
-34.47
11
64.39
21
-32.47
0
LINE
8
BLACK
6
CONTINUOUS
10
63.89
20
-22.47
11
63.89
21
-25.47
0
LINE
8
BLACK
6
CONTINUOUS
10
79.39
20
-22.47
11
63.89
21
-22.47
0
LINE
8
BLACK
6
CONTINUOUS
10
409.544
20
-46.02
11
409.544
21
-41.52
0
LINE
8
BLACK
6
CONTINUOUS
10
394.544
20
-53.52
11
394.544
21
-51.52
0
LINE
8
BLACK
6
CONTINUOUS
10
409.544
20
-41.52
11
394.044
21
-41.52
0
LINE
8
BLACK
6
CONTINUOUS
10
392.044
20
-44.52
11
392.044
21
-53.52
0
LINE
8
BLACK
6
CONTINUOUS
10
408.544
20
-51.52
11
408.544
21
-46.02
0
LINE
8
BLACK
6
CONTINUOUS
10
394.044
20
-41.52
11
394.044
21
-44.52
0
LINE
8
BLACK
6
CONTINUOUS
10
394.544
20
-51.52
11
408.544
21
-51.52
0
LINE
8
BLACK
6
CONTINUOUS
10
408.544
20
-46.02
11
409.544
21
-46.02
0
LINE
8
BLACK
6
CONTINUOUS
10
394.044
20
-44.52
11
392.044
21
-44.52
0
LINE
8
BLACK
6
CONTINUOUS
10
392.044
20
-53.52
11
394.544
21
-53.52
0
LINE
8
BLACK
6
CONTINUOUS
10
128.119
20
-51.3043
11
126.163
21
-50.8885
0
LINE
8
BLACK
6
CONTINUOUS
10
141.991
20
-55.7862
11
142.969
21
-55.9941
0
LINE
8
BLACK
6
CONTINUOUS
10
143.904
20
-51.5925
11
128.743
21
-48.3698
0
LINE
8
BLACK
6
CONTINUOUS
10
128.743
20
-48.3698
11
128.119
21
-51.3043
0
LINE
8
BLACK
6
CONTINUOUS
10
127.153
20
-58.2553
11
140.847
21
-61.166
0
LINE
8
BLACK
6
CONTINUOUS
10
126.737
20
-60.2116
11
127.153
21
-58.2553
0
LINE
8
BLACK
6
CONTINUOUS
10
140.847
20
-61.166
11
141.991
21
-55.7862
0
LINE
8
BLACK
6
CONTINUOUS
10
142.969
20
-55.9941
11
143.904
21
-51.5925
0
LINE
8
BLACK
6
CONTINUOUS
10
126.163
20
-50.8885
11
124.292
21
-59.6918
0
LINE
8
BLACK
6
CONTINUOUS
10
124.292
20
-59.6918
11
126.737
21
-60.2116
0
LINE
8
BLACK
6
CONTINUOUS
10
349.174
20
-53.52
11
351.674
21
-53.52
0
LINE
8
BLACK
6
CONTINUOUS
10
366.674
20
-46.02
11
366.674
21
-41.52
0
LINE
8
BLACK
6
CONTINUOUS
10
351.674
20
-51.52
11
365.674
21
-51.52
0
LINE
8
BLACK
6
CONTINUOUS
10
349.174
20
-44.52
11
349.174
21
-53.52
0
LINE
8
BLACK
6
CONTINUOUS
10
351.174
20
-41.52
11
351.174
21
-44.52
0
LINE
8
BLACK
6
CONTINUOUS
10
366.674
20
-41.52
11
351.174
21
-41.52
0
LINE
8
BLACK
6
CONTINUOUS
10
351.674
20
-53.52
11
351.674
21
-51.52
0
LINE
8
BLACK
6
CONTINUOUS
10
365.674
20
-51.52
11
365.674
21
-46.02
0
LINE
8
BLACK
6
CONTINUOUS
10
365.674
20
-46.02
11
366.674
21
-46.02
0
LINE
8
BLACK
6
CONTINUOUS
10
351.174
20
-44.52
11
349.174
21
-44.52
0
LINE
8
BLACK
6
CONTINUOUS
10
40.29
20
-26.97
11
41.29
21
-26.97
0
LINE
8
BLACK
6
CONTINUOUS
10
23.79
20
-25.47
11
23.79
21
-34.47
0
LINE
8
BLACK
6
CONTINUOUS
10
40.29
20
-32.47
11
40.29
21
-26.97
0
LINE
8
BLACK
6
CONTINUOUS
10
25.79
20
-25.47
11
23.79
21
-25.47
0
LINE
8
BLACK
6
CONTINUOUS
10
26.29
20
-34.47
11
26.29
21
-32.47
0
LINE
8
BLACK
6
CONTINUOUS
10
25.79
20
-22.47
11
25.79
21
-25.47
0
LINE
8
BLACK
6
CONTINUOUS
10
26.29
20
-32.47
11
40.29
21
-32.47
0
LINE
8
BLACK
6
CONTINUOUS
10
23.79
20
-34.47
11
26.29
21
-34.47
0
LINE
8
BLACK
6
CONTINUOUS
10
41.29
20
-26.97
11
41.29
21
-22.47
0
LINE
8
BLACK
6
CONTINUOUS
10
41.29
20
-22.47
11
25.79
21
-22.47
0
LINE
8
BLACK
6
CONTINUOUS
10
160.624
20
-59.747
11
161.602
21
-59.9549
0
LINE
8
BLACK
6
CONTINUOUS
10
146.753
20
-55.265
11
144.797
21
-54.8492
0
LINE
8
BLACK
6
CONTINUOUS
10
144.797
20
-54.8492
11
142.925
21
-63.6525
0
LINE
8
BLACK
6
CONTINUOUS
10
145.787
20
-62.216
11
159.481
21
-65.1268
0
LINE
8
BLACK
6
CONTINUOUS
10
145.371
20
-64.1723
11
145.787
21
-62.216
0
LINE
8
BLACK
6
CONTINUOUS
10
162.538
20
-55.5532
11
147.377
21
-52.3306
0
LINE
8
BLACK
6
CONTINUOUS
10
161.602
20
-59.9549
11
162.538
21
-55.5532
0
LINE
8
BLACK
6
CONTINUOUS
10
147.377
20
-52.3306
11
146.753
21
-55.265
0
LINE
8
BLACK
6
CONTINUOUS
10
159.481
20
-65.1268
11
160.624
21
-59.747
0
LINE
8
BLACK
6
CONTINUOUS
10
142.925
20
-63.6525
11
145.371
21
-64.1723
0
LINE
8
BLACK
6
CONTINUOUS
10
70.45
20
-72.57
11
70.45
21
-70.57
0
LINE
8
BLACK
6
CONTINUOUS
10
70.45
20
-70.57
11
84.45
21
-70.57
0
LINE
8
BLACK
6
CONTINUOUS
10
69.95
20
-60.57
11
69.95
21
-63.57
0
LINE
8
BLACK
6
CONTINUOUS
10
85.45
20
-65.07
11
85.45
21
-60.57
0
LINE
8
BLACK
6
CONTINUOUS
10
67.95
20
-72.57
11
70.45
21
-72.57
0
LINE
8
BLACK
6
CONTINUOUS
10
69.95
20
-63.57
11
67.95
21
-63.57
0
LINE
8
BLACK
6
CONTINUOUS
10
67.95
20
-63.57
11
67.95
21
-72.57
0
LINE
8
BLACK
6
CONTINUOUS
10
84.45
20
-70.57
11
84.45
21
-65.07
0
LINE
8
BLACK
6
CONTINUOUS
10
85.45
20
-60.57
11
69.95
21
-60.57
0
LINE
8
BLACK
6
CONTINUOUS
10
84.45
20
-65.07
11
85.45
21
-65.07
0
LINE
8
BLACK
6
CONTINUOUS
10
356.534
20
-22.47
11
356.534
21
-25.47
0
LINE
8
BLACK
6
CONTINUOUS
10
371.034
20
-32.47
11
371.034
21
-26.97
0
LINE
8
BLACK
6
CONTINUOUS
10
357.034
20
-34.47
11
357.034
21
-32.47
0
LINE
8
BLACK
6
CONTINUOUS
10
357.034
20
-32.47
11
371.034
21
-32.47
0
LINE
8
BLACK
6
CONTINUOUS
10
371.034
20
-26.97
11
372.034
21
-26.97
0
LINE
8
BLACK
6
CONTINUOUS
10
354.534
20
-25.47
11
354.534
21
-34.47
0
LINE
8
BLACK
6
CONTINUOUS
10
372.034
20
-22.47
11
356.534
21
-22.47
0
LINE
8
BLACK
6
CONTINUOUS
10
354.534
20
-34.47
11
357.034
21
-34.47
0
LINE
8
BLACK
6
CONTINUOUS
10
372.034
20
-26.97
11
372.034
21
-22.47
0
LINE
8
BLACK
6
CONTINUOUS
10
356.534
20
-25.47
11
354.534
21
-25.47
0
LINE
8
BLACK
6
CONTINUOUS
10
370.724
20
-51.52
11
384.724
21
-51.52
0
LINE
8
BLACK
6
CONTINUOUS
10
384.724
20
-46.02
11
385.724
21
-46.02
0
LINE
8
BLACK
6
CONTINUOUS
10
370.224
20
-44.52
11
368.224
21
-44.52
0
LINE
8
BLACK
6
CONTINUOUS
10
368.224
20
-44.52
11
368.224
21
-53.52
0
LINE
8
BLACK
6
CONTINUOUS
10
385.724
20
-41.52
11
370.224
21
-41.52
0
LINE
8
BLACK
6
CONTINUOUS
10
385.724
20
-46.02
11
385.724
21
-41.52
0
LINE
8
BLACK
6
CONTINUOUS
10
384.724
20
-51.52
11
384.724
21
-46.02
0
LINE
8
BLACK
6
CONTINUOUS
10
368.224
20
-53.52
11
370.724
21
-53.52
0
LINE
8
BLACK
6
CONTINUOUS
10
370.724
20
-53.52
11
370.724
21
-51.52
0
LINE
8
BLACK
6
CONTINUOUS
10
370.224
20
-41.52
11
370.224
21
-44.52
0
LINE
8
BLACK
6
CONTINUOUS
10
284.882
20
-118.588
11
285.506
21
-121.522
0
LINE
8
BLACK
6
CONTINUOUS
10
299.035
20
-113.024
11
298.099
21
-108.622
0
LINE
8
BLACK
6
CONTINUOUS
10
282.437
20
-119.108
11
284.882
21
-118.588
0
LINE
8
BLACK
6
CONTINUOUS
10
292.8
20
-124.573
11
297.691
21
-123.533
0
LINE
8
BLACK
6
CONTINUOUS
10
281.605
20
-115.195
11
282.437
21
-119.108
0
LINE
8
BLACK
6
CONTINUOUS
10
298.057
20
-113.232
11
299.035
21
-113.024
0
LINE
8
BLACK
6
CONTINUOUS
10
299.2
20
-118.612
11
298.057
21
-113.232
0
LINE
8
BLACK
6
CONTINUOUS
10
282.938
20
-111.845
11
283.562
21
-114.779
0
LINE
8
BLACK
6
CONTINUOUS
10
283.562
20
-114.779
11
281.605
21
-115.195
0
LINE
8
BLACK
6
CONTINUOUS
10
293.32
20
-127.018
11
292.8
21
-124.573
0
LINE
8
BLACK
6
CONTINUOUS
10
297.691
20
-123.533
11
298.21
21
-125.978
0
LINE
8
BLACK
6
CONTINUOUS
10
298.099
20
-108.622
11
282.938
21
-111.845
0
LINE
8
BLACK
6
CONTINUOUS
10
298.21
20
-125.978
11
293.32
21
-127.018
0
LINE
8
BLACK
6
CONTINUOUS
10
285.506
20
-121.522
11
299.2
21
-118.612
0
LINE
8
BLACK
6
CONTINUOUS
10
156.203
20
-46.9992
11
158.649
21
-47.5189
0
LINE
8
BLACK
6
CONTINUOUS
10
159.064
20
-45.5626
11
172.758
21
-48.4734
0
LINE
8
BLACK
6
CONTINUOUS
10
175.816
20
-38.8998
11
160.654
21
-35.6772
0
LINE
8
BLACK
6
CONTINUOUS
10
172.758
20
-48.4734
11
173.902
21
-43.0936
0
LINE
8
BLACK
6
CONTINUOUS
10
174.88
20
-43.3015
11
175.816
21
-38.8998
0
LINE
8
BLACK
6
CONTINUOUS
10
158.074
20
-38.1958
11
156.203
21
-46.9992
0
LINE
8
BLACK
6
CONTINUOUS
10
160.031
20
-38.6116
11
158.074
21
-38.1958
0
LINE
8
BLACK
6
CONTINUOUS
10
173.902
20
-43.0936
11
174.88
21
-43.3015
0
LINE
8
BLACK
6
CONTINUOUS
10
158.649
20
-47.5189
11
159.064
21
-45.5626
0
LINE
8
BLACK
6
CONTINUOUS
10
160.654
20
-35.6772
11
160.031
21
-38.6116
0
LINE
8
BLACK
6
CONTINUOUS
10
137.569
20
-43.0384
11
140.015
21
-43.5582
0
LINE
8
BLACK
6
CONTINUOUS
10
157.182
20
-34.9391
11
142.021
21
-31.7165
0
LINE
8
BLACK
6
CONTINUOUS
10
142.021
20
-31.7165
11
141.397
21
-34.6509
0
LINE
8
BLACK
6
CONTINUOUS
10
139.441
20
-34.2351
11
137.569
21
-43.0384
0
LINE
8
BLACK
6
CONTINUOUS
10
141.397
20
-34.6509
11
139.441
21
-34.2351
0
LINE
8
BLACK
6
CONTINUOUS
10
155.268
20
-39.1329
11
156.246
21
-39.3408
0
LINE
8
BLACK
6
CONTINUOUS
10
156.246
20
-39.3408
11
157.182
21
-34.9391
0
LINE
8
BLACK
6
CONTINUOUS
10
140.015
20
-43.5582
11
140.431
21
-41.6019
0
LINE
8
BLACK
6
CONTINUOUS
10
154.125
20
-44.5127
11
155.268
21
-39.1329
0
LINE
8
BLACK
6
CONTINUOUS
10
140.431
20
-41.6019
11
154.125
21
-44.5127
0
LINE
8
BLACK
6
CONTINUOUS
10
384.527
20
-110.67
11
384.527
21
-108.67
0
LINE
8
BLACK
6
CONTINUOUS
10
399.527
20
-103.17
11
399.527
21
-98.67
0
LINE
8
BLACK
6
CONTINUOUS
10
398.527
20
-103.17
11
399.527
21
-103.17
0
LINE
8
BLACK
6
CONTINUOUS
10
384.027
20
-101.67
11
382.027
21
-101.67
0
LINE
8
BLACK
6
CONTINUOUS
10
398.527
20
-108.67
11
398.527
21
-103.17
0
LINE
8
BLACK
6
CONTINUOUS
10
384.527
20
-108.67
11
398.527
21
-108.67
0
LINE
8
BLACK
6
CONTINUOUS
10
382.027
20
-101.67
11
382.027
21
-110.67
0
LINE
8
BLACK
6
CONTINUOUS
10
399.527
20
-98.67
11
384.027
21
-98.67
0
LINE
8
BLACK
6
CONTINUOUS
10
382.027
20
-110.67
11
384.527
21
-110.67
0
LINE
8
BLACK
6
CONTINUOUS
10
384.027
20
-98.67
11
384.027
21
-101.67
0
LINE
8
BLACK
6
CONTINUOUS
10
325.519
20
-93.5417
11
324.376
21
-88.1619
0
LINE
8
BLACK
6
CONTINUOUS
10
324.418
20
-83.5523
11
309.257
21
-86.7749
0
LINE
8
BLACK
6
CONTINUOUS
10
309.881
20
-89.7094
11
307.925
21
-90.1252
0
LINE
8
BLACK
6
CONTINUOUS
10
309.796
20
-98.9285
11
312.241
21
-98.4087
0
LINE
8
BLACK
6
CONTINUOUS
10
307.925
20
-90.1252
11
309.796
21
-98.9285
0
LINE
8
BLACK
6
CONTINUOUS
10
309.257
20
-86.7749
11
309.881
21
-89.7094
0
LINE
8
BLACK
6
CONTINUOUS
10
312.241
20
-98.4087
11
311.825
21
-96.4524
0
LINE
8
BLACK
6
CONTINUOUS
10
324.376
20
-88.1619
11
325.354
21
-87.954
0
LINE
8
BLACK
6
CONTINUOUS
10
325.354
20
-87.954
11
324.418
21
-83.5523
0
LINE
8
BLACK
6
CONTINUOUS
10
311.825
20
-96.4524
11
325.519
21
-93.5417
0
LINE
8
BLACK
6
CONTINUOUS
10
276.369
20
-67.0824
11
275.953
21
-65.1261
0
LINE
8
BLACK
6
CONTINUOUS
10
289.482
20
-56.6276
11
288.546
21
-52.2259
0
LINE
8
BLACK
6
CONTINUOUS
10
273.385
20
-55.4485
11
274.009
21
-58.383
0
LINE
8
BLACK
6
CONTINUOUS
10
273.924
20
-67.6021
11
276.369
21
-67.0824
0
LINE
8
BLACK
6
CONTINUOUS
10
289.647
20
-62.2153
11
288.504
21
-56.8355
0
LINE
8
BLACK
6
CONTINUOUS
10
272.053
20
-58.7988
11
273.924
21
-67.6021
0
LINE
8
BLACK
6
CONTINUOUS
10
288.546
20
-52.2259
11
273.385
21
-55.4485
0
LINE
8
BLACK
6
CONTINUOUS
10
288.504
20
-56.8355
11
289.482
21
-56.6276
0
LINE
8
BLACK
6
CONTINUOUS
10
275.953
20
-65.1261
11
289.647
21
-62.2153
0
LINE
8
BLACK
6
CONTINUOUS
10
274.009
20
-58.383
11
272.053
21
-58.7988
0
LINE
8
BLACK
6
CONTINUOUS
10
116.857
20
-36.5912
11
118.001
21
-31.2114
0
LINE
8
BLACK
6
CONTINUOUS
10
102.747
20
-35.6368
11
103.163
21
-33.6805
0
LINE
8
BLACK
6
CONTINUOUS
10
104.753
20
-23.7951
11
104.13
21
-26.7295
0
LINE
8
BLACK
6
CONTINUOUS
10
102.173
20
-26.3137
11
100.302
21
-35.117
0
LINE
8
BLACK
6
CONTINUOUS
10
100.302
20
-35.117
11
102.747
21
-35.6368
0
LINE
8
BLACK
6
CONTINUOUS
10
119.915
20
-27.0177
11
104.753
21
-23.7951
0
LINE
8
BLACK
6
CONTINUOUS
10
118.001
20
-31.2114
11
118.979
21
-31.4193
0
LINE
8
BLACK
6
CONTINUOUS
10
104.13
20
-26.7295
11
102.173
21
-26.3137
0
LINE
8
BLACK
6
CONTINUOUS
10
118.979
20
-31.4193
11
119.915
21
-27.0177
0
LINE
8
BLACK
6
CONTINUOUS
10
103.163
20
-33.6805
11
116.857
21
-36.5912
0
LINE
8
BLACK
6
CONTINUOUS
10
123.357
20
-51.8255
11
124.335
21
-52.0334
0
LINE
8
BLACK
6
CONTINUOUS
10
105.658
20
-55.7311
11
108.103
21
-56.2508
0
LINE
8
BLACK
6
CONTINUOUS
10
124.335
20
-52.0334
11
125.271
21
-47.6318
0
LINE
8
BLACK
6
CONTINUOUS
10
107.529
20
-46.9277
11
105.658
21
-55.7311
0
LINE
8
BLACK
6
CONTINUOUS
10
108.519
20
-54.2946
11
122.213
21
-57.2053
0
LINE
8
BLACK
6
CONTINUOUS
10
125.271
20
-47.6318
11
110.109
21
-44.4091
0
LINE
8
BLACK
6
CONTINUOUS
10
122.213
20
-57.2053
11
123.357
21
-51.8255
0
LINE
8
BLACK
6
CONTINUOUS
10
110.109
20
-44.4091
11
109.486
21
-47.3436
0
LINE
8
BLACK
6
CONTINUOUS
10
109.486
20
-47.3436
11
107.529
21
-46.9277
0
LINE
8
BLACK
6
CONTINUOUS
10
108.103
20
-56.2508
11
108.519
21
-54.2946
  0
ENDSEC
  0
EOF
