  0
SECTION
  2
HEADER
  9
$ANGBASE
  50
0.0
  9
$ANGDIR
  70
1
  9
$MEASUREMENT
  70
1
  0
ENDSEC
  0
SECTION
  2
TABLES
  0
TABLE
  2
LTYPE
  70
4
  0
LTYPE
  5
40F
  2
CONTINUOUS
  70
0
  3
Solid line
  72
65
  73
0
  40
0.0
  0
LTYPE
  5
410
  2
DASHDOT
 70
0
  3
Dash Dot ____ _ ____ _
 72
65
 73
4
 40
2.0
 49
1.25
 49
-0.25
 49
0.25
 49
-0.25
  0
LTYPE
  5
411
  2
DASHED
 70
0
  3
Dashed __ __ __ __ __
 72
65
 73
2
 40
0.75
 49
0.5
 49
-0.25
  0
LTYPE
  5
43B
  2
DOTTED
 70
0
  3
Dotted .  .  .  .
 72
65
 73
2
 40
0.2
 49
0.0
 49
-0.2
  0
ENDTAB
  0
TABLE
  2
STYLE
  70
4
  0
STYLE
  2
KICAD
  70
0
  40
0
  41
1
  42
1
  50
0
  71
0
  3
isocp.shx
  0
STYLE
  2
KICADB
  70
0
  40
0
  41
1
  42
1
  50
0
  71
0
  3
isocp.shx
  0
STYLE
  2
KICADI
  70
0
  40
0
  41
1
  42
1
  50
15
  71
0
  3
isocp.shx
  0
STYLE
  2
KICADBI
  70
0
  40
0
  41
1
  42
1
  50
15
  71
0
  3
isocp.shx
  0
ENDTAB
  0
TABLE
  2
LAYER
  70
1
  0
LAYER
  2
BLACK
  70
0
  62
7
  6
CONTINUOUS
  0
ENDTAB
  0
ENDSEC
  0
SECTION
  2
ENTITIES
0
CIRCLE
8
BLACK
10
23
20
-108.5
40
1.5
0
LINE
8
BLACK
6
CONTINUOUS
10
265.295
20
-297.203
11
267.667
21
-298.744
0
LINE
8
BLACK
6
CONTINUOUS
10
256.013
20
-234.441
11
254.472
21
-236.813
0
LINE
8
BLACK
6
CONTINUOUS
10
262.577
20
-310.969
11
261.037
21
-313.341
0
LINE
8
BLACK
6
CONTINUOUS
10
273.069
20
-95.3972
11
270.624
21
-95.917
0
LINE
8
BLACK
6
CONTINUOUS
10
270.624
20
-95.917
11
270.104
21
-93.4716
0
LINE
8
BLACK
6
CONTINUOUS
10
270.104
20
-93.4716
11
272.549
21
-92.9518
0
LINE
8
BLACK
6
CONTINUOUS
10
272.549
20
-92.9518
11
273.069
21
-95.3972
0
LINE
8
BLACK
6
CONTINUOUS
10
161.395
20
-89.216
11
160.875
21
-91.6613
0
LINE
8
BLACK
6
CONTINUOUS
10
160.875
20
-91.6613
11
158.43
21
-91.1416
0
LINE
8
BLACK
6
CONTINUOUS
10
158.43
20
-91.1416
11
158.95
21
-88.6962
0
LINE
8
BLACK
6
CONTINUOUS
10
158.95
20
-88.6962
11
161.395
21
-89.216
0
LINE
8
BLACK
6
CONTINUOUS
10
257.606
20
-251.554
11
256.065
21
-253.926
0
LINE
8
BLACK
6
CONTINUOUS
10
163.984
20
-54.1889
11
163.464
21
-56.6342
0
LINE
8
BLACK
6
CONTINUOUS
10
163.464
20
-56.6342
11
161.019
21
-56.1144
0
LINE
8
BLACK
6
CONTINUOUS
10
161.019
20
-56.1144
11
161.539
21
-53.6691
0
LINE
8
BLACK
6
CONTINUOUS
10
161.539
20
-53.6691
11
163.984
21
-54.1889
0
LINE
8
BLACK
6
CONTINUOUS
10
250.676
20
-255.072
11
249.135
21
-257.444
0
LINE
8
BLACK
6
CONTINUOUS
10
265.633
20
-334.963
11
268.005
21
-336.503
0
LINE
8
BLACK
6
CONTINUOUS
10
264.439
20
-54.8453
11
261.994
21
-55.3651
0
LINE
8
BLACK
6
CONTINUOUS
10
261.994
20
-55.3651
11
261.474
21
-52.9197
0
LINE
8
BLACK
6
CONTINUOUS
10
261.474
20
-52.9197
11
263.92
21
-52.3999
0
LINE
8
BLACK
6
CONTINUOUS
10
263.92
20
-52.3999
11
264.439
21
-54.8453
0
LINE
8
BLACK
6
CONTINUOUS
10
270.984
20
-131.377
11
268.539
21
-131.897
0
LINE
8
BLACK
6
CONTINUOUS
10
268.539
20
-131.897
11
268.019
21
-129.451
0
LINE
8
BLACK
6
CONTINUOUS
10
268.019
20
-129.451
11
270.464
21
-128.932
0
LINE
8
BLACK
6
CONTINUOUS
10
270.464
20
-128.932
11
270.984
21
-131.377
0
CIRCLE
8
BLACK
10
117
20
-111
40
1.5
0
LINE
8
BLACK
6
CONTINUOUS
10
255.826
20
-60.1112
11
253.381
21
-60.631
0
LINE
8
BLACK
6
CONTINUOUS
10
253.381
20
-60.631
11
252.861
21
-58.1856
0
LINE
8
BLACK
6
CONTINUOUS
10
252.861
20
-58.1856
11
255.306
21
-57.6658
0
LINE
8
BLACK
6
CONTINUOUS
10
255.306
20
-57.6658
11
255.826
21
-60.1112
0
LINE
8
BLACK
6
CONTINUOUS
10
259.092
20
-75.4779
11
256.647
21
-75.9977
0
LINE
8
BLACK
6
CONTINUOUS
10
256.647
20
-75.9977
11
256.127
21
-73.5523
0
LINE
8
BLACK
6
CONTINUOUS
10
256.127
20
-73.5523
11
258.572
21
-73.0325
0
LINE
8
BLACK
6
CONTINUOUS
10
258.572
20
-73.0325
11
259.092
21
-75.4779
0
LINE
8
BLACK
6
CONTINUOUS
10
267.718
20
-116.01
11
265.272
21
-116.53
0
LINE
8
BLACK
6
CONTINUOUS
10
265.272
20
-116.53
11
264.753
21
-114.085
0
LINE
8
BLACK
6
CONTINUOUS
10
264.753
20
-114.085
11
267.198
21
-113.565
0
LINE
8
BLACK
6
CONTINUOUS
10
267.198
20
-113.565
11
267.718
21
-116.01
0
LINE
8
BLACK
6
CONTINUOUS
10
269.517
20
-307.449
11
267.977
21
-309.821
0
LINE
8
BLACK
6
CONTINUOUS
10
256.647
20
-279.555
11
259.019
21
-281.096
0
LINE
8
BLACK
6
CONTINUOUS
10
276.335
20
-110.764
11
273.89
21
-111.284
0
LINE
8
BLACK
6
CONTINUOUS
10
273.89
20
-111.284
11
273.37
21
-108.838
0
LINE
8
BLACK
6
CONTINUOUS
10
273.37
20
-108.838
11
275.816
21
-108.319
0
LINE
8
BLACK
6
CONTINUOUS
10
275.816
20
-108.319
11
276.335
21
-110.764
0
LINE
8
BLACK
6
CONTINUOUS
10
166.727
20
-109.825
11
166.207
21
-112.27
0
LINE
8
BLACK
6
CONTINUOUS
10
166.207
20
-112.27
11
163.762
21
-111.75
0
LINE
8
BLACK
6
CONTINUOUS
10
163.762
20
-111.75
11
164.281
21
-109.305
0
LINE
8
BLACK
6
CONTINUOUS
10
164.281
20
-109.305
11
166.727
21
-109.825
0
CIRCLE
8
BLACK
10
64
20
-60
40
1.5
0
LINE
8
BLACK
6
CONTINUOUS
10
160.709
20
-69.5947
11
160.19
21
-72.04
0
LINE
8
BLACK
6
CONTINUOUS
10
160.19
20
-72.04
11
157.744
21
-71.5203
0
LINE
8
BLACK
6
CONTINUOUS
10
157.744
20
-71.5203
11
158.264
21
-69.0749
0
LINE
8
BLACK
6
CONTINUOUS
10
158.264
20
-69.0749
11
160.709
21
-69.5947
0
LINE
8
BLACK
6
CONTINUOUS
10
172.107
20
-130.444
11
171.587
21
-132.889
0
LINE
8
BLACK
6
CONTINUOUS
10
171.587
20
-132.889
11
169.142
21
-132.37
0
LINE
8
BLACK
6
CONTINUOUS
10
169.142
20
-132.37
11
169.662
21
-129.924
0
LINE
8
BLACK
6
CONTINUOUS
10
169.662
20
-129.924
11
172.107
21
-130.444
0
LINE
8
BLACK
6
CONTINUOUS
10
173.963
20
-52.9361
11
173.443
21
-55.3815
0
LINE
8
BLACK
6
CONTINUOUS
10
173.443
20
-55.3815
11
170.997
21
-54.8617
0
LINE
8
BLACK
6
CONTINUOUS
10
170.997
20
-54.8617
11
171.517
21
-52.4163
0
LINE
8
BLACK
6
CONTINUOUS
10
171.517
20
-52.4163
11
173.963
21
-52.9361
0
LINE
8
BLACK
6
CONTINUOUS
10
267.719
20
-93.1199
11
265.273
21
-93.6396
0
LINE
8
BLACK
6
CONTINUOUS
10
265.273
20
-93.6396
11
264.754
21
-91.1943
0
LINE
8
BLACK
6
CONTINUOUS
10
264.754
20
-91.1943
11
267.199
21
-90.6745
0
LINE
8
BLACK
6
CONTINUOUS
10
267.199
20
-90.6745
11
267.719
21
-93.1199
0
LINE
8
BLACK
6
CONTINUOUS
10
175.371
20
-115.087
11
174.852
21
-117.533
0
LINE
8
BLACK
6
CONTINUOUS
10
174.852
20
-117.533
11
172.406
21
-117.013
0
LINE
8
BLACK
6
CONTINUOUS
10
172.406
20
-117.013
11
172.926
21
-114.567
0
LINE
8
BLACK
6
CONTINUOUS
10
172.926
20
-114.567
11
175.371
21
-115.087
0
LINE
8
BLACK
6
CONTINUOUS
10
262.15
20
-295.827
11
264.522
21
-297.367
0
LINE
8
BLACK
6
CONTINUOUS
10
261.173
20
-39.4786
11
258.728
21
-39.9984
0
LINE
8
BLACK
6
CONTINUOUS
10
258.728
20
-39.9984
11
258.208
21
-37.553
0
LINE
8
BLACK
6
CONTINUOUS
10
258.208
20
-37.553
11
260.653
21
-37.0332
0
LINE
8
BLACK
6
CONTINUOUS
10
260.653
20
-37.0332
11
261.173
21
-39.4786
0
LINE
8
BLACK
6
CONTINUOUS
10
169.991
20
-94.4679
11
169.471
21
-96.9133
0
LINE
8
BLACK
6
CONTINUOUS
10
169.471
20
-96.9133
11
167.026
21
-96.3935
0
LINE
8
BLACK
6
CONTINUOUS
10
167.026
20
-96.3935
11
167.546
21
-93.9481
0
LINE
8
BLACK
6
CONTINUOUS
10
167.546
20
-93.9481
11
169.991
21
-94.4679
0
LINE
8
BLACK
6
CONTINUOUS
10
164.67
20
-73.8101
11
164.15
21
-76.2555
0
LINE
8
BLACK
6
CONTINUOUS
10
164.15
20
-76.2555
11
161.704
21
-75.7357
0
LINE
8
BLACK
6
CONTINUOUS
10
161.704
20
-75.7357
11
162.224
21
-73.2904
0
LINE
8
BLACK
6
CONTINUOUS
10
162.224
20
-73.2904
11
164.67
21
-73.8101
0
LINE
8
BLACK
6
CONTINUOUS
10
253.541
20
-278.171
11
255.913
21
-279.711
0
LINE
8
BLACK
6
CONTINUOUS
10
264.452
20
-77.7532
11
262.007
21
-78.2729
0
LINE
8
BLACK
6
CONTINUOUS
10
262.007
20
-78.2729
11
261.487
21
-75.8276
0
LINE
8
BLACK
6
CONTINUOUS
10
261.487
20
-75.8276
11
263.933
21
-75.3078
0
LINE
8
BLACK
6
CONTINUOUS
10
263.933
20
-75.3078
11
264.452
21
-77.7532
0
LINE
8
BLACK
6
CONTINUOUS
10
177.227
20
-37.5792
11
176.707
21
-40.0246
0
LINE
8
BLACK
6
CONTINUOUS
10
176.707
20
-40.0246
11
174.262
21
-39.5048
0
LINE
8
BLACK
6
CONTINUOUS
10
174.262
20
-39.5048
11
174.781
21
-37.0594
0
LINE
8
BLACK
6
CONTINUOUS
10
174.781
20
-37.0594
11
177.227
21
-37.5792
0
LINE
8
BLACK
6
CONTINUOUS
10
199.571
20
19.5476
11
199.571
21
20.5476
0
LINE
8
BLACK
6
CONTINUOUS
10
199.571
20
20.5476
11
199.952
21
20.5476
0
LINE
8
BLACK
6
CONTINUOUS
10
199.952
20
20.5476
11
200.048
21
20.5
0
LINE
8
BLACK
6
CONTINUOUS
10
200.048
20
20.5
11
200.095
21
20.4524
0
LINE
8
BLACK
6
CONTINUOUS
10
200.095
20
20.4524
11
200.143
21
20.3571
0
LINE
8
BLACK
6
CONTINUOUS
10
200.143
20
20.3571
11
200.143
21
20.2143
0
LINE
8
BLACK
6
CONTINUOUS
10
200.143
20
20.2143
11
200.095
21
20.119
0
LINE
8
BLACK
6
CONTINUOUS
10
200.095
20
20.119
11
200.048
21
20.0714
0
LINE
8
BLACK
6
CONTINUOUS
10
200.048
20
20.0714
11
199.952
21
20.0238
0
LINE
8
BLACK
6
CONTINUOUS
10
199.952
20
20.0238
11
199.571
21
20.0238
0
LINE
8
BLACK
6
CONTINUOUS
10
201.143
20
19.6429
11
201.095
21
19.5952
0
LINE
8
BLACK
6
CONTINUOUS
10
201.095
20
19.5952
11
200.952
21
19.5476
0
LINE
8
BLACK
6
CONTINUOUS
10
200.952
20
19.5476
11
200.857
21
19.5476
0
LINE
8
BLACK
6
CONTINUOUS
10
200.857
20
19.5476
11
200.714
21
19.5952
0
LINE
8
BLACK
6
CONTINUOUS
10
200.714
20
19.5952
11
200.619
21
19.6905
0
LINE
8
BLACK
6
CONTINUOUS
10
200.619
20
19.6905
11
200.571
21
19.7857
0
LINE
8
BLACK
6
CONTINUOUS
10
200.571
20
19.7857
11
200.524
21
19.9762
0
LINE
8
BLACK
6
CONTINUOUS
10
200.524
20
19.9762
11
200.524
21
20.119
0
LINE
8
BLACK
6
CONTINUOUS
10
200.524
20
20.119
11
200.571
21
20.3095
0
LINE
8
BLACK
6
CONTINUOUS
10
200.571
20
20.3095
11
200.619
21
20.4048
0
LINE
8
BLACK
6
CONTINUOUS
10
200.619
20
20.4048
11
200.714
21
20.5
0
LINE
8
BLACK
6
CONTINUOUS
10
200.714
20
20.5
11
200.857
21
20.5476
0
LINE
8
BLACK
6
CONTINUOUS
10
200.857
20
20.5476
11
200.952
21
20.5476
0
LINE
8
BLACK
6
CONTINUOUS
10
200.952
20
20.5476
11
201.095
21
20.5
0
LINE
8
BLACK
6
CONTINUOUS
10
201.095
20
20.5
11
201.143
21
20.4524
0
LINE
8
BLACK
6
CONTINUOUS
10
201.905
20
20.0714
11
202.048
21
20.0238
0
LINE
8
BLACK
6
CONTINUOUS
10
202.048
20
20.0238
11
202.095
21
19.9762
0
LINE
8
BLACK
6
CONTINUOUS
10
202.095
20
19.9762
11
202.143
21
19.881
0
LINE
8
BLACK
6
CONTINUOUS
10
202.143
20
19.881
11
202.143
21
19.7381
0
LINE
8
BLACK
6
CONTINUOUS
10
202.143
20
19.7381
11
202.095
21
19.6429
0
LINE
8
BLACK
6
CONTINUOUS
10
202.095
20
19.6429
11
202.048
21
19.5952
0
LINE
8
BLACK
6
CONTINUOUS
10
202.048
20
19.5952
11
201.952
21
19.5476
0
LINE
8
BLACK
6
CONTINUOUS
10
201.952
20
19.5476
11
201.571
21
19.5476
0
LINE
8
BLACK
6
CONTINUOUS
10
201.571
20
19.5476
11
201.571
21
20.5476
0
LINE
8
BLACK
6
CONTINUOUS
10
201.571
20
20.5476
11
201.905
21
20.5476
0
LINE
8
BLACK
6
CONTINUOUS
10
201.905
20
20.5476
11
202
21
20.5
0
LINE
8
BLACK
6
CONTINUOUS
10
202
20
20.5
11
202.048
21
20.4524
0
LINE
8
BLACK
6
CONTINUOUS
10
202.048
20
20.4524
11
202.095
21
20.3571
0
LINE
8
BLACK
6
CONTINUOUS
10
202.095
20
20.3571
11
202.095
21
20.2619
0
LINE
8
BLACK
6
CONTINUOUS
10
202.095
20
20.2619
11
202.048
21
20.1667
0
LINE
8
BLACK
6
CONTINUOUS
10
202.048
20
20.1667
11
202
21
20.119
0
LINE
8
BLACK
6
CONTINUOUS
10
202
20
20.119
11
201.905
21
20.0714
0
LINE
8
BLACK
6
CONTINUOUS
10
201.905
20
20.0714
11
201.571
21
20.0714
0
LINE
8
BLACK
6
CONTINUOUS
10
202.476
20
20.5476
11
203.095
21
20.5476
0
LINE
8
BLACK
6
CONTINUOUS
10
203.095
20
20.5476
11
202.762
21
20.1667
0
LINE
8
BLACK
6
CONTINUOUS
10
202.762
20
20.1667
11
202.905
21
20.1667
0
LINE
8
BLACK
6
CONTINUOUS
10
202.905
20
20.1667
11
203
21
20.119
0
LINE
8
BLACK
6
CONTINUOUS
10
203
20
20.119
11
203.048
21
20.0714
0
LINE
8
BLACK
6
CONTINUOUS
10
203.048
20
20.0714
11
203.095
21
19.9762
0
LINE
8
BLACK
6
CONTINUOUS
10
203.095
20
19.9762
11
203.095
21
19.7381
0
LINE
8
BLACK
6
CONTINUOUS
10
203.095
20
19.7381
11
203.048
21
19.6429
0
LINE
8
BLACK
6
CONTINUOUS
10
203.048
20
19.6429
11
203
21
19.5952
0
LINE
8
BLACK
6
CONTINUOUS
10
203
20
19.5952
11
202.905
21
19.5476
0
LINE
8
BLACK
6
CONTINUOUS
10
202.905
20
19.5476
11
202.619
21
19.5476
0
LINE
8
BLACK
6
CONTINUOUS
10
202.619
20
19.5476
11
202.524
21
19.5952
0
LINE
8
BLACK
6
CONTINUOUS
10
202.524
20
19.5952
11
202.476
21
19.6429
0
LINE
8
BLACK
6
CONTINUOUS
10
203.524
20
19.5476
11
203.524
21
20.5476
0
LINE
8
BLACK
6
CONTINUOUS
10
203.524
20
20.5476
11
203.762
21
20.5476
0
LINE
8
BLACK
6
CONTINUOUS
10
203.762
20
20.5476
11
203.905
21
20.5
0
LINE
8
BLACK
6
CONTINUOUS
10
203.905
20
20.5
11
204
21
20.4048
0
LINE
8
BLACK
6
CONTINUOUS
10
204
20
20.4048
11
204.048
21
20.3095
0
LINE
8
BLACK
6
CONTINUOUS
10
204.048
20
20.3095
11
204.095
21
20.119
0
LINE
8
BLACK
6
CONTINUOUS
10
204.095
20
20.119
11
204.095
21
19.9762
0
LINE
8
BLACK
6
CONTINUOUS
10
204.095
20
19.9762
11
204.048
21
19.7857
0
LINE
8
BLACK
6
CONTINUOUS
10
204.048
20
19.7857
11
204
21
19.6905
0
LINE
8
BLACK
6
CONTINUOUS
10
204
20
19.6905
11
203.905
21
19.5952
0
LINE
8
BLACK
6
CONTINUOUS
10
203.905
20
19.5952
11
203.762
21
19.5476
0
LINE
8
BLACK
6
CONTINUOUS
10
203.762
20
19.5476
11
203.524
21
19.5476
0
LINE
8
BLACK
6
CONTINUOUS
10
204.286
20
19.4524
11
205.048
21
19.4524
0
LINE
8
BLACK
6
CONTINUOUS
10
205.238
20
19.5952
11
205.381
21
19.5476
0
LINE
8
BLACK
6
CONTINUOUS
10
205.381
20
19.5476
11
205.619
21
19.5476
0
LINE
8
BLACK
6
CONTINUOUS
10
205.619
20
19.5476
11
205.714
21
19.5952
0
LINE
8
BLACK
6
CONTINUOUS
10
205.714
20
19.5952
11
205.762
21
19.6429
0
LINE
8
BLACK
6
CONTINUOUS
10
205.762
20
19.6429
11
205.81
21
19.7381
0
LINE
8
BLACK
6
CONTINUOUS
10
205.81
20
19.7381
11
205.81
21
19.8333
0
LINE
8
BLACK
6
CONTINUOUS
10
205.81
20
19.8333
11
205.762
21
19.9286
0
LINE
8
BLACK
6
CONTINUOUS
10
205.762
20
19.9286
11
205.714
21
19.9762
0
LINE
8
BLACK
6
CONTINUOUS
10
205.714
20
19.9762
11
205.619
21
20.0238
0
LINE
8
BLACK
6
CONTINUOUS
10
205.619
20
20.0238
11
205.429
21
20.0714
0
LINE
8
BLACK
6
CONTINUOUS
10
205.429
20
20.0714
11
205.333
21
20.119
0
LINE
8
BLACK
6
CONTINUOUS
10
205.333
20
20.119
11
205.286
21
20.1667
0
LINE
8
BLACK
6
CONTINUOUS
10
205.286
20
20.1667
11
205.238
21
20.2619
0
LINE
8
BLACK
6
CONTINUOUS
10
205.238
20
20.2619
11
205.238
21
20.3571
0
LINE
8
BLACK
6
CONTINUOUS
10
205.238
20
20.3571
11
205.286
21
20.4524
0
LINE
8
BLACK
6
CONTINUOUS
10
205.286
20
20.4524
11
205.333
21
20.5
0
LINE
8
BLACK
6
CONTINUOUS
10
205.333
20
20.5
11
205.429
21
20.5476
0
LINE
8
BLACK
6
CONTINUOUS
10
205.429
20
20.5476
11
205.667
21
20.5476
0
LINE
8
BLACK
6
CONTINUOUS
10
205.667
20
20.5476
11
205.81
21
20.5
0
LINE
8
BLACK
6
CONTINUOUS
10
206.095
20
20.5476
11
206.667
21
20.5476
0
LINE
8
BLACK
6
CONTINUOUS
10
206.381
20
19.5476
11
206.381
21
20.5476
0
LINE
8
BLACK
6
CONTINUOUS
10
206.952
20
19.8333
11
207.429
21
19.8333
0
LINE
8
BLACK
6
CONTINUOUS
10
206.857
20
19.5476
11
207.19
21
20.5476
0
LINE
8
BLACK
6
CONTINUOUS
10
207.19
20
20.5476
11
207.524
21
19.5476
0
LINE
8
BLACK
6
CONTINUOUS
10
208.429
20
19.6429
11
208.381
21
19.5952
0
LINE
8
BLACK
6
CONTINUOUS
10
208.381
20
19.5952
11
208.238
21
19.5476
0
LINE
8
BLACK
6
CONTINUOUS
10
208.238
20
19.5476
11
208.143
21
19.5476
0
LINE
8
BLACK
6
CONTINUOUS
10
208.143
20
19.5476
11
208
21
19.5952
0
LINE
8
BLACK
6
CONTINUOUS
10
208
20
19.5952
11
207.905
21
19.6905
0
LINE
8
BLACK
6
CONTINUOUS
10
207.905
20
19.6905
11
207.857
21
19.7857
0
LINE
8
BLACK
6
CONTINUOUS
10
207.857
20
19.7857
11
207.81
21
19.9762
0
LINE
8
BLACK
6
CONTINUOUS
10
207.81
20
19.9762
11
207.81
21
20.119
0
LINE
8
BLACK
6
CONTINUOUS
10
207.81
20
20.119
11
207.857
21
20.3095
0
LINE
8
BLACK
6
CONTINUOUS
10
207.857
20
20.3095
11
207.905
21
20.4048
0
LINE
8
BLACK
6
CONTINUOUS
10
207.905
20
20.4048
11
208
21
20.5
0
LINE
8
BLACK
6
CONTINUOUS
10
208
20
20.5
11
208.143
21
20.5476
0
LINE
8
BLACK
6
CONTINUOUS
10
208.143
20
20.5476
11
208.238
21
20.5476
0
LINE
8
BLACK
6
CONTINUOUS
10
208.238
20
20.5476
11
208.381
21
20.5
0
LINE
8
BLACK
6
CONTINUOUS
10
208.381
20
20.5
11
208.429
21
20.4524
0
LINE
8
BLACK
6
CONTINUOUS
10
208.857
20
19.5476
11
208.857
21
20.5476
0
LINE
8
BLACK
6
CONTINUOUS
10
209.429
20
19.5476
11
209
21
20.119
0
LINE
8
BLACK
6
CONTINUOUS
10
209.429
20
20.5476
11
208.857
21
19.9762
0
LINE
8
BLACK
6
CONTINUOUS
10
209.619
20
19.4524
11
210.381
21
19.4524
0
LINE
8
BLACK
6
CONTINUOUS
10
210.952
20
20.0714
11
211.095
21
20.0238
0
LINE
8
BLACK
6
CONTINUOUS
10
211.095
20
20.0238
11
211.143
21
19.9762
0
LINE
8
BLACK
6
CONTINUOUS
10
211.143
20
19.9762
11
211.19
21
19.881
0
LINE
8
BLACK
6
CONTINUOUS
10
211.19
20
19.881
11
211.19
21
19.7381
0
LINE
8
BLACK
6
CONTINUOUS
10
211.19
20
19.7381
11
211.143
21
19.6429
0
LINE
8
BLACK
6
CONTINUOUS
10
211.143
20
19.6429
11
211.095
21
19.5952
0
LINE
8
BLACK
6
CONTINUOUS
10
211.095
20
19.5952
11
211
21
19.5476
0
LINE
8
BLACK
6
CONTINUOUS
10
211
20
19.5476
11
210.619
21
19.5476
0
LINE
8
BLACK
6
CONTINUOUS
10
210.619
20
19.5476
11
210.619
21
20.5476
0
LINE
8
BLACK
6
CONTINUOUS
10
210.619
20
20.5476
11
210.952
21
20.5476
0
LINE
8
BLACK
6
CONTINUOUS
10
210.952
20
20.5476
11
211.048
21
20.5
0
LINE
8
BLACK
6
CONTINUOUS
10
211.048
20
20.5
11
211.095
21
20.4524
0
LINE
8
BLACK
6
CONTINUOUS
10
211.095
20
20.4524
11
211.143
21
20.3571
0
LINE
8
BLACK
6
CONTINUOUS
10
211.143
20
20.3571
11
211.143
21
20.2619
0
LINE
8
BLACK
6
CONTINUOUS
10
211.143
20
20.2619
11
211.095
21
20.1667
0
LINE
8
BLACK
6
CONTINUOUS
10
211.095
20
20.1667
11
211.048
21
20.119
0
LINE
8
BLACK
6
CONTINUOUS
10
211.048
20
20.119
11
210.952
21
20.0714
0
LINE
8
BLACK
6
CONTINUOUS
10
210.952
20
20.0714
11
210.619
21
20.0714
0
LINE
8
BLACK
6
CONTINUOUS
10
211.81
20
20.5476
11
212
21
20.5476
0
LINE
8
BLACK
6
CONTINUOUS
10
212
20
20.5476
11
212.095
21
20.5
0
LINE
8
BLACK
6
CONTINUOUS
10
212.095
20
20.5
11
212.19
21
20.4048
0
LINE
8
BLACK
6
CONTINUOUS
10
212.19
20
20.4048
11
212.238
21
20.2143
0
LINE
8
BLACK
6
CONTINUOUS
10
212.238
20
20.2143
11
212.238
21
19.881
0
LINE
8
BLACK
6
CONTINUOUS
10
212.238
20
19.881
11
212.19
21
19.6905
0
LINE
8
BLACK
6
CONTINUOUS
10
212.19
20
19.6905
11
212.095
21
19.5952
0
LINE
8
BLACK
6
CONTINUOUS
10
212.095
20
19.5952
11
212
21
19.5476
0
LINE
8
BLACK
6
CONTINUOUS
10
212
20
19.5476
11
211.81
21
19.5476
0
LINE
8
BLACK
6
CONTINUOUS
10
211.81
20
19.5476
11
211.714
21
19.5952
0
LINE
8
BLACK
6
CONTINUOUS
10
211.714
20
19.5952
11
211.619
21
19.6905
0
LINE
8
BLACK
6
CONTINUOUS
10
211.619
20
19.6905
11
211.571
21
19.881
0
LINE
8
BLACK
6
CONTINUOUS
10
211.571
20
19.881
11
211.571
21
20.2143
0
LINE
8
BLACK
6
CONTINUOUS
10
211.571
20
20.2143
11
211.619
21
20.4048
0
LINE
8
BLACK
6
CONTINUOUS
10
211.619
20
20.4048
11
211.714
21
20.5
0
LINE
8
BLACK
6
CONTINUOUS
10
211.714
20
20.5
11
211.81
21
20.5476
0
LINE
8
BLACK
6
CONTINUOUS
10
212.619
20
19.8333
11
213.095
21
19.8333
0
LINE
8
BLACK
6
CONTINUOUS
10
212.524
20
19.5476
11
212.857
21
20.5476
0
LINE
8
BLACK
6
CONTINUOUS
10
212.857
20
20.5476
11
213.19
21
19.5476
0
LINE
8
BLACK
6
CONTINUOUS
10
214.095
20
19.5476
11
213.762
21
20.0238
0
LINE
8
BLACK
6
CONTINUOUS
10
213.524
20
19.5476
11
213.524
21
20.5476
0
LINE
8
BLACK
6
CONTINUOUS
10
213.524
20
20.5476
11
213.905
21
20.5476
0
LINE
8
BLACK
6
CONTINUOUS
10
213.905
20
20.5476
11
214
21
20.5
0
LINE
8
BLACK
6
CONTINUOUS
10
214
20
20.5
11
214.048
21
20.4524
0
LINE
8
BLACK
6
CONTINUOUS
10
214.048
20
20.4524
11
214.095
21
20.3571
0
LINE
8
BLACK
6
CONTINUOUS
10
214.095
20
20.3571
11
214.095
21
20.2143
0
LINE
8
BLACK
6
CONTINUOUS
10
214.095
20
20.2143
11
214.048
21
20.119
0
LINE
8
BLACK
6
CONTINUOUS
10
214.048
20
20.119
11
214
21
20.0714
0
LINE
8
BLACK
6
CONTINUOUS
10
214
20
20.0714
11
213.905
21
20.0238
0
LINE
8
BLACK
6
CONTINUOUS
10
213.905
20
20.0238
11
213.524
21
20.0238
0
LINE
8
BLACK
6
CONTINUOUS
10
214.524
20
19.5476
11
214.524
21
20.5476
0
LINE
8
BLACK
6
CONTINUOUS
10
214.524
20
20.5476
11
214.762
21
20.5476
0
LINE
8
BLACK
6
CONTINUOUS
10
214.762
20
20.5476
11
214.905
21
20.5
0
LINE
8
BLACK
6
CONTINUOUS
10
214.905
20
20.5
11
215
21
20.4048
0
LINE
8
BLACK
6
CONTINUOUS
10
215
20
20.4048
11
215.048
21
20.3095
0
LINE
8
BLACK
6
CONTINUOUS
10
215.048
20
20.3095
11
215.095
21
20.119
0
LINE
8
BLACK
6
CONTINUOUS
10
215.095
20
20.119
11
215.095
21
19.9762
0
LINE
8
BLACK
6
CONTINUOUS
10
215.095
20
19.9762
11
215.048
21
19.7857
0
LINE
8
BLACK
6
CONTINUOUS
10
215.048
20
19.7857
11
215
21
19.6905
0
LINE
8
BLACK
6
CONTINUOUS
10
215
20
19.6905
11
214.905
21
19.5952
0
LINE
8
BLACK
6
CONTINUOUS
10
214.905
20
19.5952
11
214.762
21
19.5476
0
LINE
8
BLACK
6
CONTINUOUS
10
214.762
20
19.5476
11
214.524
21
19.5476
0
LINE
8
BLACK
6
CONTINUOUS
10
215.429
20
20.5476
11
216.048
21
20.5476
0
LINE
8
BLACK
6
CONTINUOUS
10
216.048
20
20.5476
11
215.714
21
20.1667
0
LINE
8
BLACK
6
CONTINUOUS
10
215.714
20
20.1667
11
215.857
21
20.1667
0
LINE
8
BLACK
6
CONTINUOUS
10
215.857
20
20.1667
11
215.952
21
20.119
0
LINE
8
BLACK
6
CONTINUOUS
10
215.952
20
20.119
11
216
21
20.0714
0
LINE
8
BLACK
6
CONTINUOUS
10
216
20
20.0714
11
216.048
21
19.9762
0
LINE
8
BLACK
6
CONTINUOUS
10
216.048
20
19.9762
11
216.048
21
19.7381
0
LINE
8
BLACK
6
CONTINUOUS
10
216.048
20
19.7381
11
216
21
19.6429
0
LINE
8
BLACK
6
CONTINUOUS
10
216
20
19.6429
11
215.952
21
19.5952
0
LINE
8
BLACK
6
CONTINUOUS
10
215.952
20
19.5952
11
215.857
21
19.5476
0
LINE
8
BLACK
6
CONTINUOUS
10
215.857
20
19.5476
11
215.571
21
19.5476
0
LINE
8
BLACK
6
CONTINUOUS
10
215.571
20
19.5476
11
215.476
21
19.5952
0
LINE
8
BLACK
6
CONTINUOUS
10
215.476
20
19.5952
11
215.429
21
19.6429
0
LINE
8
BLACK
6
CONTINUOUS
10
216.238
20
19.4524
11
217
21
19.4524
0
LINE
8
BLACK
6
CONTINUOUS
10
217.429
20
20.5476
11
217.619
21
20.5476
0
LINE
8
BLACK
6
CONTINUOUS
10
217.619
20
20.5476
11
217.714
21
20.5
0
LINE
8
BLACK
6
CONTINUOUS
10
217.714
20
20.5
11
217.81
21
20.4048
0
LINE
8
BLACK
6
CONTINUOUS
10
217.81
20
20.4048
11
217.857
21
20.2143
0
LINE
8
BLACK
6
CONTINUOUS
10
217.857
20
20.2143
11
217.857
21
19.881
0
LINE
8
BLACK
6
CONTINUOUS
10
217.857
20
19.881
11
217.81
21
19.6905
0
LINE
8
BLACK
6
CONTINUOUS
10
217.81
20
19.6905
11
217.714
21
19.5952
0
LINE
8
BLACK
6
CONTINUOUS
10
217.714
20
19.5952
11
217.619
21
19.5476
0
LINE
8
BLACK
6
CONTINUOUS
10
217.619
20
19.5476
11
217.429
21
19.5476
0
LINE
8
BLACK
6
CONTINUOUS
10
217.429
20
19.5476
11
217.333
21
19.5952
0
LINE
8
BLACK
6
CONTINUOUS
10
217.333
20
19.5952
11
217.238
21
19.6905
0
LINE
8
BLACK
6
CONTINUOUS
10
217.238
20
19.6905
11
217.19
21
19.881
0
LINE
8
BLACK
6
CONTINUOUS
10
217.19
20
19.881
11
217.19
21
20.2143
0
LINE
8
BLACK
6
CONTINUOUS
10
217.19
20
20.2143
11
217.238
21
20.4048
0
LINE
8
BLACK
6
CONTINUOUS
10
217.238
20
20.4048
11
217.333
21
20.5
0
LINE
8
BLACK
6
CONTINUOUS
10
217.333
20
20.5
11
217.429
21
20.5476
0
LINE
8
BLACK
6
CONTINUOUS
10
218.286
20
19.5476
11
218.286
21
20.5476
0
LINE
8
BLACK
6
CONTINUOUS
10
218.286
20
20.5476
11
218.857
21
19.5476
0
LINE
8
BLACK
6
CONTINUOUS
10
218.857
20
19.5476
11
218.857
21
20.5476
0
LINE
8
BLACK
6
CONTINUOUS
10
219.19
20
20.5476
11
219.762
21
20.5476
0
LINE
8
BLACK
6
CONTINUOUS
10
219.476
20
19.5476
11
219.476
21
20.5476
0
LINE
8
BLACK
6
CONTINUOUS
10
220.286
20
20.5476
11
220.476
21
20.5476
0
LINE
8
BLACK
6
CONTINUOUS
10
220.476
20
20.5476
11
220.571
21
20.5
0
LINE
8
BLACK
6
CONTINUOUS
10
220.571
20
20.5
11
220.667
21
20.4048
0
LINE
8
BLACK
6
CONTINUOUS
10
220.667
20
20.4048
11
220.714
21
20.2143
0
LINE
8
BLACK
6
CONTINUOUS
10
220.714
20
20.2143
11
220.714
21
19.881
0
LINE
8
BLACK
6
CONTINUOUS
10
220.714
20
19.881
11
220.667
21
19.6905
0
LINE
8
BLACK
6
CONTINUOUS
10
220.667
20
19.6905
11
220.571
21
19.5952
0
LINE
8
BLACK
6
CONTINUOUS
10
220.571
20
19.5952
11
220.476
21
19.5476
0
LINE
8
BLACK
6
CONTINUOUS
10
220.476
20
19.5476
11
220.286
21
19.5476
0
LINE
8
BLACK
6
CONTINUOUS
10
220.286
20
19.5476
11
220.19
21
19.5952
0
LINE
8
BLACK
6
CONTINUOUS
10
220.19
20
19.5952
11
220.095
21
19.6905
0
LINE
8
BLACK
6
CONTINUOUS
10
220.095
20
19.6905
11
220.048
21
19.881
0
LINE
8
BLACK
6
CONTINUOUS
10
220.048
20
19.881
11
220.048
21
20.2143
0
LINE
8
BLACK
6
CONTINUOUS
10
220.048
20
20.2143
11
220.095
21
20.4048
0
LINE
8
BLACK
6
CONTINUOUS
10
220.095
20
20.4048
11
220.19
21
20.5
0
LINE
8
BLACK
6
CONTINUOUS
10
220.19
20
20.5
11
220.286
21
20.5476
0
LINE
8
BLACK
6
CONTINUOUS
10
220.905
20
19.4524
11
221.667
21
19.4524
0
LINE
8
BLACK
6
CONTINUOUS
10
222.238
20
20.0714
11
222.381
21
20.0238
0
LINE
8
BLACK
6
CONTINUOUS
10
222.381
20
20.0238
11
222.429
21
19.9762
0
LINE
8
BLACK
6
CONTINUOUS
10
222.429
20
19.9762
11
222.476
21
19.881
0
LINE
8
BLACK
6
CONTINUOUS
10
222.476
20
19.881
11
222.476
21
19.7381
0
LINE
8
BLACK
6
CONTINUOUS
10
222.476
20
19.7381
11
222.429
21
19.6429
0
LINE
8
BLACK
6
CONTINUOUS
10
222.429
20
19.6429
11
222.381
21
19.5952
0
LINE
8
BLACK
6
CONTINUOUS
10
222.381
20
19.5952
11
222.286
21
19.5476
0
LINE
8
BLACK
6
CONTINUOUS
10
222.286
20
19.5476
11
221.905
21
19.5476
0
LINE
8
BLACK
6
CONTINUOUS
10
221.905
20
19.5476
11
221.905
21
20.5476
0
LINE
8
BLACK
6
CONTINUOUS
10
221.905
20
20.5476
11
222.238
21
20.5476
0
LINE
8
BLACK
6
CONTINUOUS
10
222.238
20
20.5476
11
222.333
21
20.5
0
LINE
8
BLACK
6
CONTINUOUS
10
222.333
20
20.5
11
222.381
21
20.4524
0
LINE
8
BLACK
6
CONTINUOUS
10
222.381
20
20.4524
11
222.429
21
20.3571
0
LINE
8
BLACK
6
CONTINUOUS
10
222.429
20
20.3571
11
222.429
21
20.2619
0
LINE
8
BLACK
6
CONTINUOUS
10
222.429
20
20.2619
11
222.381
21
20.1667
0
LINE
8
BLACK
6
CONTINUOUS
10
222.381
20
20.1667
11
222.333
21
20.119
0
LINE
8
BLACK
6
CONTINUOUS
10
222.333
20
20.119
11
222.238
21
20.0714
0
LINE
8
BLACK
6
CONTINUOUS
10
222.238
20
20.0714
11
221.905
21
20.0714
0
LINE
8
BLACK
6
CONTINUOUS
10
223.095
20
20.5476
11
223.286
21
20.5476
0
LINE
8
BLACK
6
CONTINUOUS
10
223.286
20
20.5476
11
223.381
21
20.5
0
LINE
8
BLACK
6
CONTINUOUS
10
223.381
20
20.5
11
223.476
21
20.4048
0
LINE
8
BLACK
6
CONTINUOUS
10
223.476
20
20.4048
11
223.524
21
20.2143
0
LINE
8
BLACK
6
CONTINUOUS
10
223.524
20
20.2143
11
223.524
21
19.881
0
LINE
8
BLACK
6
CONTINUOUS
10
223.524
20
19.881
11
223.476
21
19.6905
0
LINE
8
BLACK
6
CONTINUOUS
10
223.476
20
19.6905
11
223.381
21
19.5952
0
LINE
8
BLACK
6
CONTINUOUS
10
223.381
20
19.5952
11
223.286
21
19.5476
0
LINE
8
BLACK
6
CONTINUOUS
10
223.286
20
19.5476
11
223.095
21
19.5476
0
LINE
8
BLACK
6
CONTINUOUS
10
223.095
20
19.5476
11
223
21
19.5952
0
LINE
8
BLACK
6
CONTINUOUS
10
223
20
19.5952
11
222.905
21
19.6905
0
LINE
8
BLACK
6
CONTINUOUS
10
222.905
20
19.6905
11
222.857
21
19.881
0
LINE
8
BLACK
6
CONTINUOUS
10
222.857
20
19.881
11
222.857
21
20.2143
0
LINE
8
BLACK
6
CONTINUOUS
10
222.857
20
20.2143
11
222.905
21
20.4048
0
LINE
8
BLACK
6
CONTINUOUS
10
222.905
20
20.4048
11
223
21
20.5
0
LINE
8
BLACK
6
CONTINUOUS
10
223
20
20.5
11
223.095
21
20.5476
0
LINE
8
BLACK
6
CONTINUOUS
10
223.905
20
19.8333
11
224.381
21
19.8333
0
LINE
8
BLACK
6
CONTINUOUS
10
223.81
20
19.5476
11
224.143
21
20.5476
0
LINE
8
BLACK
6
CONTINUOUS
10
224.143
20
20.5476
11
224.476
21
19.5476
0
LINE
8
BLACK
6
CONTINUOUS
10
225.381
20
19.5476
11
225.048
21
20.0238
0
LINE
8
BLACK
6
CONTINUOUS
10
224.81
20
19.5476
11
224.81
21
20.5476
0
LINE
8
BLACK
6
CONTINUOUS
10
224.81
20
20.5476
11
225.19
21
20.5476
0
LINE
8
BLACK
6
CONTINUOUS
10
225.19
20
20.5476
11
225.286
21
20.5
0
LINE
8
BLACK
6
CONTINUOUS
10
225.286
20
20.5
11
225.333
21
20.4524
0
LINE
8
BLACK
6
CONTINUOUS
10
225.333
20
20.4524
11
225.381
21
20.3571
0
LINE
8
BLACK
6
CONTINUOUS
10
225.381
20
20.3571
11
225.381
21
20.2143
0
LINE
8
BLACK
6
CONTINUOUS
10
225.381
20
20.2143
11
225.333
21
20.119
0
LINE
8
BLACK
6
CONTINUOUS
10
225.333
20
20.119
11
225.286
21
20.0714
0
LINE
8
BLACK
6
CONTINUOUS
10
225.286
20
20.0714
11
225.19
21
20.0238
0
LINE
8
BLACK
6
CONTINUOUS
10
225.19
20
20.0238
11
224.81
21
20.0238
0
LINE
8
BLACK
6
CONTINUOUS
10
225.81
20
19.5476
11
225.81
21
20.5476
0
LINE
8
BLACK
6
CONTINUOUS
10
225.81
20
20.5476
11
226.048
21
20.5476
0
LINE
8
BLACK
6
CONTINUOUS
10
226.048
20
20.5476
11
226.19
21
20.5
0
LINE
8
BLACK
6
CONTINUOUS
10
226.19
20
20.5
11
226.286
21
20.4048
0
LINE
8
BLACK
6
CONTINUOUS
10
226.286
20
20.4048
11
226.333
21
20.3095
0
LINE
8
BLACK
6
CONTINUOUS
10
226.333
20
20.3095
11
226.381
21
20.119
0
LINE
8
BLACK
6
CONTINUOUS
10
226.381
20
20.119
11
226.381
21
19.9762
0
LINE
8
BLACK
6
CONTINUOUS
10
226.381
20
19.9762
11
226.333
21
19.7857
0
LINE
8
BLACK
6
CONTINUOUS
10
226.333
20
19.7857
11
226.286
21
19.6905
0
LINE
8
BLACK
6
CONTINUOUS
10
226.286
20
19.6905
11
226.19
21
19.5952
0
LINE
8
BLACK
6
CONTINUOUS
10
226.19
20
19.5952
11
226.048
21
19.5476
0
LINE
8
BLACK
6
CONTINUOUS
10
226.048
20
19.5476
11
225.81
21
19.5476
0
LINE
8
BLACK
6
CONTINUOUS
10
226.762
20
20.4524
11
226.81
21
20.5
0
LINE
8
BLACK
6
CONTINUOUS
10
226.81
20
20.5
11
226.905
21
20.5476
0
LINE
8
BLACK
6
CONTINUOUS
10
226.905
20
20.5476
11
227.143
21
20.5476
0
LINE
8
BLACK
6
CONTINUOUS
10
227.143
20
20.5476
11
227.238
21
20.5
0
LINE
8
BLACK
6
CONTINUOUS
10
227.238
20
20.5
11
227.286
21
20.4524
0
LINE
8
BLACK
6
CONTINUOUS
10
227.286
20
20.4524
11
227.333
21
20.3571
0
LINE
8
BLACK
6
CONTINUOUS
10
227.333
20
20.3571
11
227.333
21
20.2619
0
LINE
8
BLACK
6
CONTINUOUS
10
227.333
20
20.2619
11
227.286
21
20.119
0
LINE
8
BLACK
6
CONTINUOUS
10
227.286
20
20.119
11
226.714
21
19.5476
0
LINE
8
BLACK
6
CONTINUOUS
10
226.714
20
19.5476
11
227.333
21
19.5476
0
LINE
8
BLACK
6
CONTINUOUS
10
227.524
20
19.4524
11
228.286
21
19.4524
0
LINE
8
BLACK
6
CONTINUOUS
10
228.429
20
20.5476
11
229.048
21
20.5476
0
LINE
8
BLACK
6
CONTINUOUS
10
229.048
20
20.5476
11
228.714
21
20.1667
0
LINE
8
BLACK
6
CONTINUOUS
10
228.714
20
20.1667
11
228.857
21
20.1667
0
LINE
8
BLACK
6
CONTINUOUS
10
228.857
20
20.1667
11
228.952
21
20.119
0
LINE
8
BLACK
6
CONTINUOUS
10
228.952
20
20.119
11
229
21
20.0714
0
LINE
8
BLACK
6
CONTINUOUS
10
229
20
20.0714
11
229.048
21
19.9762
0
LINE
8
BLACK
6
CONTINUOUS
10
229.048
20
19.9762
11
229.048
21
19.7381
0
LINE
8
BLACK
6
CONTINUOUS
10
229.048
20
19.7381
11
229
21
19.6429
0
LINE
8
BLACK
6
CONTINUOUS
10
229
20
19.6429
11
228.952
21
19.5952
0
LINE
8
BLACK
6
CONTINUOUS
10
228.952
20
19.5952
11
228.857
21
19.5476
0
LINE
8
BLACK
6
CONTINUOUS
10
228.857
20
19.5476
11
228.571
21
19.5476
0
LINE
8
BLACK
6
CONTINUOUS
10
228.571
20
19.5476
11
228.476
21
19.5952
0
LINE
8
BLACK
6
CONTINUOUS
10
228.476
20
19.5952
11
228.429
21
19.6429
0
LINE
8
BLACK
6
CONTINUOUS
10
229.476
20
19.6429
11
229.524
21
19.5952
0
LINE
8
BLACK
6
CONTINUOUS
10
229.524
20
19.5952
11
229.476
21
19.5476
0
LINE
8
BLACK
6
CONTINUOUS
10
229.476
20
19.5476
11
229.429
21
19.5952
0
LINE
8
BLACK
6
CONTINUOUS
10
229.429
20
19.5952
11
229.476
21
19.6429
0
LINE
8
BLACK
6
CONTINUOUS
10
229.476
20
19.6429
11
229.476
21
19.5476
0
LINE
8
BLACK
6
CONTINUOUS
10
230.381
20
20.2143
11
230.381
21
19.5476
0
LINE
8
BLACK
6
CONTINUOUS
10
230.143
20
20.5952
11
229.905
21
19.881
0
LINE
8
BLACK
6
CONTINUOUS
10
229.905
20
19.881
11
230.524
21
19.881
0
LINE
8
BLACK
6
CONTINUOUS
10
204.929
20
19.3214
11
204.929
21
20.8214
0
LINE
8
BLACK
6
CONTINUOUS
10
204.929
20
20.8214
11
205.5
21
20.8214
0
LINE
8
BLACK
6
CONTINUOUS
10
205.5
20
20.8214
11
205.643
21
20.75
0
LINE
8
BLACK
6
CONTINUOUS
10
205.643
20
20.75
11
205.714
21
20.6786
0
LINE
8
BLACK
6
CONTINUOUS
10
205.714
20
20.6786
11
205.786
21
20.5357
0
LINE
8
BLACK
6
CONTINUOUS
10
205.786
20
20.5357
11
205.786
21
20.3214
0
LINE
8
BLACK
6
CONTINUOUS
10
205.786
20
20.3214
11
205.714
21
20.1786
0
LINE
8
BLACK
6
CONTINUOUS
10
205.714
20
20.1786
11
205.643
21
20.1071
0
LINE
8
BLACK
6
CONTINUOUS
10
205.643
20
20.1071
11
205.5
21
20.0357
0
LINE
8
BLACK
6
CONTINUOUS
10
205.5
20
20.0357
11
204.929
21
20.0357
0
LINE
8
BLACK
6
CONTINUOUS
10
207.286
20
19.4643
11
207.214
21
19.3929
0
LINE
8
BLACK
6
CONTINUOUS
10
207.214
20
19.3929
11
207
21
19.3214
0
LINE
8
BLACK
6
CONTINUOUS
10
207
20
19.3214
11
206.857
21
19.3214
0
LINE
8
BLACK
6
CONTINUOUS
10
206.857
20
19.3214
11
206.643
21
19.3929
0
LINE
8
BLACK
6
CONTINUOUS
10
206.643
20
19.3929
11
206.5
21
19.5357
0
LINE
8
BLACK
6
CONTINUOUS
10
206.5
20
19.5357
11
206.429
21
19.6786
0
LINE
8
BLACK
6
CONTINUOUS
10
206.429
20
19.6786
11
206.357
21
19.9643
0
LINE
8
BLACK
6
CONTINUOUS
10
206.357
20
19.9643
11
206.357
21
20.1786
0
LINE
8
BLACK
6
CONTINUOUS
10
206.357
20
20.1786
11
206.429
21
20.4643
0
LINE
8
BLACK
6
CONTINUOUS
10
206.429
20
20.4643
11
206.5
21
20.6071
0
LINE
8
BLACK
6
CONTINUOUS
10
206.5
20
20.6071
11
206.643
21
20.75
0
LINE
8
BLACK
6
CONTINUOUS
10
206.643
20
20.75
11
206.857
21
20.8214
0
LINE
8
BLACK
6
CONTINUOUS
10
206.857
20
20.8214
11
207
21
20.8214
0
LINE
8
BLACK
6
CONTINUOUS
10
207
20
20.8214
11
207.214
21
20.75
0
LINE
8
BLACK
6
CONTINUOUS
10
207.214
20
20.75
11
207.286
21
20.6786
0
LINE
8
BLACK
6
CONTINUOUS
10
208.429
20
20.1071
11
208.643
21
20.0357
0
LINE
8
BLACK
6
CONTINUOUS
10
208.643
20
20.0357
11
208.714
21
19.9643
0
LINE
8
BLACK
6
CONTINUOUS
10
208.714
20
19.9643
11
208.786
21
19.8214
0
LINE
8
BLACK
6
CONTINUOUS
10
208.786
20
19.8214
11
208.786
21
19.6071
0
LINE
8
BLACK
6
CONTINUOUS
10
208.786
20
19.6071
11
208.714
21
19.4643
0
LINE
8
BLACK
6
CONTINUOUS
10
208.714
20
19.4643
11
208.643
21
19.3929
0
LINE
8
BLACK
6
CONTINUOUS
10
208.643
20
19.3929
11
208.5
21
19.3214
0
LINE
8
BLACK
6
CONTINUOUS
10
208.5
20
19.3214
11
207.929
21
19.3214
0
LINE
8
BLACK
6
CONTINUOUS
10
207.929
20
19.3214
11
207.929
21
20.8214
0
LINE
8
BLACK
6
CONTINUOUS
10
207.929
20
20.8214
11
208.429
21
20.8214
0
LINE
8
BLACK
6
CONTINUOUS
10
208.429
20
20.8214
11
208.571
21
20.75
0
LINE
8
BLACK
6
CONTINUOUS
10
208.571
20
20.75
11
208.643
21
20.6786
0
LINE
8
BLACK
6
CONTINUOUS
10
208.643
20
20.6786
11
208.714
21
20.5357
0
LINE
8
BLACK
6
CONTINUOUS
10
208.714
20
20.5357
11
208.714
21
20.3929
0
LINE
8
BLACK
6
CONTINUOUS
10
208.714
20
20.3929
11
208.643
21
20.25
0
LINE
8
BLACK
6
CONTINUOUS
10
208.643
20
20.25
11
208.571
21
20.1786
0
LINE
8
BLACK
6
CONTINUOUS
10
208.571
20
20.1786
11
208.429
21
20.1071
0
LINE
8
BLACK
6
CONTINUOUS
10
208.429
20
20.1071
11
207.929
21
20.1071
0
LINE
8
BLACK
6
CONTINUOUS
10
209.286
20
20.8214
11
210.214
21
20.8214
0
LINE
8
BLACK
6
CONTINUOUS
10
210.214
20
20.8214
11
209.714
21
20.25
0
LINE
8
BLACK
6
CONTINUOUS
10
209.714
20
20.25
11
209.929
21
20.25
0
LINE
8
BLACK
6
CONTINUOUS
10
209.929
20
20.25
11
210.071
21
20.1786
0
LINE
8
BLACK
6
CONTINUOUS
10
210.071
20
20.1786
11
210.143
21
20.1071
0
LINE
8
BLACK
6
CONTINUOUS
10
210.143
20
20.1071
11
210.214
21
19.9643
0
LINE
8
BLACK
6
CONTINUOUS
10
210.214
20
19.9643
11
210.214
21
19.6071
0
LINE
8
BLACK
6
CONTINUOUS
10
210.214
20
19.6071
11
210.143
21
19.4643
0
LINE
8
BLACK
6
CONTINUOUS
10
210.143
20
19.4643
11
210.071
21
19.3929
0
LINE
8
BLACK
6
CONTINUOUS
10
210.071
20
19.3929
11
209.929
21
19.3214
0
LINE
8
BLACK
6
CONTINUOUS
10
209.929
20
19.3214
11
209.5
21
19.3214
0
LINE
8
BLACK
6
CONTINUOUS
10
209.5
20
19.3214
11
209.357
21
19.3929
0
LINE
8
BLACK
6
CONTINUOUS
10
209.357
20
19.3929
11
209.286
21
19.4643
0
LINE
8
BLACK
6
CONTINUOUS
10
210.857
20
19.3214
11
210.857
21
20.8214
0
LINE
8
BLACK
6
CONTINUOUS
10
210.857
20
20.8214
11
211.214
21
20.8214
0
LINE
8
BLACK
6
CONTINUOUS
10
211.214
20
20.8214
11
211.429
21
20.75
0
LINE
8
BLACK
6
CONTINUOUS
10
211.429
20
20.75
11
211.571
21
20.6071
0
LINE
8
BLACK
6
CONTINUOUS
10
211.571
20
20.6071
11
211.643
21
20.4643
0
LINE
8
BLACK
6
CONTINUOUS
10
211.643
20
20.4643
11
211.714
21
20.1786
0
LINE
8
BLACK
6
CONTINUOUS
10
211.714
20
20.1786
11
211.714
21
19.9643
0
LINE
8
BLACK
6
CONTINUOUS
10
211.714
20
19.9643
11
211.643
21
19.6786
0
LINE
8
BLACK
6
CONTINUOUS
10
211.643
20
19.6786
11
211.571
21
19.5357
0
LINE
8
BLACK
6
CONTINUOUS
10
211.571
20
19.5357
11
211.429
21
19.3929
0
LINE
8
BLACK
6
CONTINUOUS
10
211.429
20
19.3929
11
211.214
21
19.3214
0
LINE
8
BLACK
6
CONTINUOUS
10
211.214
20
19.3214
11
210.857
21
19.3214
0
LINE
8
BLACK
6
CONTINUOUS
10
212
20
19.1786
11
213.143
21
19.1786
0
LINE
8
BLACK
6
CONTINUOUS
10
213.286
20
20.8214
11
214.143
21
20.8214
0
LINE
8
BLACK
6
CONTINUOUS
10
213.714
20
19.3214
11
213.714
21
20.8214
0
LINE
8
BLACK
6
CONTINUOUS
10
215.357
20
19.3214
11
214.643
21
19.3214
0
LINE
8
BLACK
6
CONTINUOUS
10
214.643
20
19.3214
11
214.643
21
20.8214
0
LINE
8
BLACK
6
CONTINUOUS
10
215.5
20
19.1786
11
216.643
21
19.1786
0
LINE
8
BLACK
6
CONTINUOUS
10
217.5
20
20.1071
11
217.714
21
20.0357
0
LINE
8
BLACK
6
CONTINUOUS
10
217.714
20
20.0357
11
217.786
21
19.9643
0
LINE
8
BLACK
6
CONTINUOUS
10
217.786
20
19.9643
11
217.857
21
19.8214
0
LINE
8
BLACK
6
CONTINUOUS
10
217.857
20
19.8214
11
217.857
21
19.6071
0
LINE
8
BLACK
6
CONTINUOUS
10
217.857
20
19.6071
11
217.786
21
19.4643
0
LINE
8
BLACK
6
CONTINUOUS
10
217.786
20
19.4643
11
217.714
21
19.3929
0
LINE
8
BLACK
6
CONTINUOUS
10
217.714
20
19.3929
11
217.571
21
19.3214
0
LINE
8
BLACK
6
CONTINUOUS
10
217.571
20
19.3214
11
217
21
19.3214
0
LINE
8
BLACK
6
CONTINUOUS
10
217
20
19.3214
11
217
21
20.8214
0
LINE
8
BLACK
6
CONTINUOUS
10
217
20
20.8214
11
217.5
21
20.8214
0
LINE
8
BLACK
6
CONTINUOUS
10
217.5
20
20.8214
11
217.643
21
20.75
0
LINE
8
BLACK
6
CONTINUOUS
10
217.643
20
20.75
11
217.714
21
20.6786
0
LINE
8
BLACK
6
CONTINUOUS
10
217.714
20
20.6786
11
217.786
21
20.5357
0
LINE
8
BLACK
6
CONTINUOUS
10
217.786
20
20.5357
11
217.786
21
20.3929
0
LINE
8
BLACK
6
CONTINUOUS
10
217.786
20
20.3929
11
217.714
21
20.25
0
LINE
8
BLACK
6
CONTINUOUS
10
217.714
20
20.25
11
217.643
21
20.1786
0
LINE
8
BLACK
6
CONTINUOUS
10
217.643
20
20.1786
11
217.5
21
20.1071
0
LINE
8
BLACK
6
CONTINUOUS
10
217.5
20
20.1071
11
217
21
20.1071
0
LINE
8
BLACK
6
CONTINUOUS
10
218.786
20
20.8214
11
219.071
21
20.8214
0
LINE
8
BLACK
6
CONTINUOUS
10
219.071
20
20.8214
11
219.214
21
20.75
0
LINE
8
BLACK
6
CONTINUOUS
10
219.214
20
20.75
11
219.357
21
20.6071
0
LINE
8
BLACK
6
CONTINUOUS
10
219.357
20
20.6071
11
219.429
21
20.3214
0
LINE
8
BLACK
6
CONTINUOUS
10
219.429
20
20.3214
11
219.429
21
19.8214
0
LINE
8
BLACK
6
CONTINUOUS
10
219.429
20
19.8214
11
219.357
21
19.5357
0
LINE
8
BLACK
6
CONTINUOUS
10
219.357
20
19.5357
11
219.214
21
19.3929
0
LINE
8
BLACK
6
CONTINUOUS
10
219.214
20
19.3929
11
219.071
21
19.3214
0
LINE
8
BLACK
6
CONTINUOUS
10
219.071
20
19.3214
11
218.786
21
19.3214
0
LINE
8
BLACK
6
CONTINUOUS
10
218.786
20
19.3214
11
218.643
21
19.3929
0
LINE
8
BLACK
6
CONTINUOUS
10
218.643
20
19.3929
11
218.5
21
19.5357
0
LINE
8
BLACK
6
CONTINUOUS
10
218.5
20
19.5357
11
218.429
21
19.8214
0
LINE
8
BLACK
6
CONTINUOUS
10
218.429
20
19.8214
11
218.429
21
20.3214
0
LINE
8
BLACK
6
CONTINUOUS
10
218.429
20
20.3214
11
218.5
21
20.6071
0
LINE
8
BLACK
6
CONTINUOUS
10
218.5
20
20.6071
11
218.643
21
20.75
0
LINE
8
BLACK
6
CONTINUOUS
10
218.643
20
20.75
11
218.786
21
20.8214
0
LINE
8
BLACK
6
CONTINUOUS
10
220
20
19.75
11
220.714
21
19.75
0
LINE
8
BLACK
6
CONTINUOUS
10
219.857
20
19.3214
11
220.357
21
20.8214
0
LINE
8
BLACK
6
CONTINUOUS
10
220.357
20
20.8214
11
220.857
21
19.3214
0
LINE
8
BLACK
6
CONTINUOUS
10
222.214
20
19.3214
11
221.714
21
20.0357
0
LINE
8
BLACK
6
CONTINUOUS
10
221.357
20
19.3214
11
221.357
21
20.8214
0
LINE
8
BLACK
6
CONTINUOUS
10
221.357
20
20.8214
11
221.929
21
20.8214
0
LINE
8
BLACK
6
CONTINUOUS
10
221.929
20
20.8214
11
222.071
21
20.75
0
LINE
8
BLACK
6
CONTINUOUS
10
222.071
20
20.75
11
222.143
21
20.6786
0
LINE
8
BLACK
6
CONTINUOUS
10
222.143
20
20.6786
11
222.214
21
20.5357
0
LINE
8
BLACK
6
CONTINUOUS
10
222.214
20
20.5357
11
222.214
21
20.3214
0
LINE
8
BLACK
6
CONTINUOUS
10
222.214
20
20.3214
11
222.143
21
20.1786
0
LINE
8
BLACK
6
CONTINUOUS
10
222.143
20
20.1786
11
222.071
21
20.1071
0
LINE
8
BLACK
6
CONTINUOUS
10
222.071
20
20.1071
11
221.929
21
20.0357
0
LINE
8
BLACK
6
CONTINUOUS
10
221.929
20
20.0357
11
221.357
21
20.0357
0
LINE
8
BLACK
6
CONTINUOUS
10
222.857
20
19.3214
11
222.857
21
20.8214
0
LINE
8
BLACK
6
CONTINUOUS
10
222.857
20
20.8214
11
223.214
21
20.8214
0
LINE
8
BLACK
6
CONTINUOUS
10
223.214
20
20.8214
11
223.429
21
20.75
0
LINE
8
BLACK
6
CONTINUOUS
10
223.429
20
20.75
11
223.571
21
20.6071
0
LINE
8
BLACK
6
CONTINUOUS
10
223.571
20
20.6071
11
223.643
21
20.4643
0
LINE
8
BLACK
6
CONTINUOUS
10
223.643
20
20.4643
11
223.714
21
20.1786
0
LINE
8
BLACK
6
CONTINUOUS
10
223.714
20
20.1786
11
223.714
21
19.9643
0
LINE
8
BLACK
6
CONTINUOUS
10
223.714
20
19.9643
11
223.643
21
19.6786
0
LINE
8
BLACK
6
CONTINUOUS
10
223.643
20
19.6786
11
223.571
21
19.5357
0
LINE
8
BLACK
6
CONTINUOUS
10
223.571
20
19.5357
11
223.429
21
19.3929
0
LINE
8
BLACK
6
CONTINUOUS
10
223.429
20
19.3929
11
223.214
21
19.3214
0
LINE
8
BLACK
6
CONTINUOUS
10
223.214
20
19.3214
11
222.857
21
19.3214
0
LINE
8
BLACK
6
CONTINUOUS
10
224.286
20
20.6786
11
224.357
21
20.75
0
LINE
8
BLACK
6
CONTINUOUS
10
224.357
20
20.75
11
224.5
21
20.8214
0
LINE
8
BLACK
6
CONTINUOUS
10
224.5
20
20.8214
11
224.857
21
20.8214
0
LINE
8
BLACK
6
CONTINUOUS
10
224.857
20
20.8214
11
225
21
20.75
0
LINE
8
BLACK
6
CONTINUOUS
10
225
20
20.75
11
225.071
21
20.6786
0
LINE
8
BLACK
6
CONTINUOUS
10
225.071
20
20.6786
11
225.143
21
20.5357
0
LINE
8
BLACK
6
CONTINUOUS
10
225.143
20
20.5357
11
225.143
21
20.3929
0
LINE
8
BLACK
6
CONTINUOUS
10
225.143
20
20.3929
11
225.071
21
20.1786
0
LINE
8
BLACK
6
CONTINUOUS
10
225.071
20
20.1786
11
224.214
21
19.3214
0
LINE
8
BLACK
6
CONTINUOUS
10
224.214
20
19.3214
11
225.143
21
19.3214
0
LINE
8
BLACK
6
CONTINUOUS
10
-30.0714
20
9.32143
11
-30.0714
21
10.8214
0
LINE
8
BLACK
6
CONTINUOUS
10
-30.0714
20
10.8214
11
-29.5
21
10.8214
0
LINE
8
BLACK
6
CONTINUOUS
10
-29.5
20
10.8214
11
-29.3571
21
10.75
0
LINE
8
BLACK
6
CONTINUOUS
10
-29.3571
20
10.75
11
-29.2857
21
10.6786
0
LINE
8
BLACK
6
CONTINUOUS
10
-29.2857
20
10.6786
11
-29.2143
21
10.5357
0
LINE
8
BLACK
6
CONTINUOUS
10
-29.2143
20
10.5357
11
-29.2143
21
10.3214
0
LINE
8
BLACK
6
CONTINUOUS
10
-29.2143
20
10.3214
11
-29.2857
21
10.1786
0
LINE
8
BLACK
6
CONTINUOUS
10
-29.2857
20
10.1786
11
-29.3571
21
10.1071
0
LINE
8
BLACK
6
CONTINUOUS
10
-29.3571
20
10.1071
11
-29.5
21
10.0357
0
LINE
8
BLACK
6
CONTINUOUS
10
-29.5
20
10.0357
11
-30.0714
21
10.0357
0
LINE
8
BLACK
6
CONTINUOUS
10
-27.7143
20
9.46429
11
-27.7857
21
9.39286
0
LINE
8
BLACK
6
CONTINUOUS
10
-27.7857
20
9.39286
11
-28
21
9.32143
0
LINE
8
BLACK
6
CONTINUOUS
10
-28
20
9.32143
11
-28.1429
21
9.32143
0
LINE
8
BLACK
6
CONTINUOUS
10
-28.1429
20
9.32143
11
-28.3571
21
9.39286
0
LINE
8
BLACK
6
CONTINUOUS
10
-28.3571
20
9.39286
11
-28.5
21
9.53571
0
LINE
8
BLACK
6
CONTINUOUS
10
-28.5
20
9.53571
11
-28.5714
21
9.67857
0
LINE
8
BLACK
6
CONTINUOUS
10
-28.5714
20
9.67857
11
-28.6429
21
9.96429
0
LINE
8
BLACK
6
CONTINUOUS
10
-28.6429
20
9.96429
11
-28.6429
21
10.1786
0
LINE
8
BLACK
6
CONTINUOUS
10
-28.6429
20
10.1786
11
-28.5714
21
10.4643
0
LINE
8
BLACK
6
CONTINUOUS
10
-28.5714
20
10.4643
11
-28.5
21
10.6071
0
LINE
8
BLACK
6
CONTINUOUS
10
-28.5
20
10.6071
11
-28.3571
21
10.75
0
LINE
8
BLACK
6
CONTINUOUS
10
-28.3571
20
10.75
11
-28.1429
21
10.8214
0
LINE
8
BLACK
6
CONTINUOUS
10
-28.1429
20
10.8214
11
-28
21
10.8214
0
LINE
8
BLACK
6
CONTINUOUS
10
-28
20
10.8214
11
-27.7857
21
10.75
0
LINE
8
BLACK
6
CONTINUOUS
10
-27.7857
20
10.75
11
-27.7143
21
10.6786
0
LINE
8
BLACK
6
CONTINUOUS
10
-26.5714
20
10.1071
11
-26.3571
21
10.0357
0
LINE
8
BLACK
6
CONTINUOUS
10
-26.3571
20
10.0357
11
-26.2857
21
9.96429
0
LINE
8
BLACK
6
CONTINUOUS
10
-26.2857
20
9.96429
11
-26.2143
21
9.82143
0
LINE
8
BLACK
6
CONTINUOUS
10
-26.2143
20
9.82143
11
-26.2143
21
9.60714
0
LINE
8
BLACK
6
CONTINUOUS
10
-26.2143
20
9.60714
11
-26.2857
21
9.46429
0
LINE
8
BLACK
6
CONTINUOUS
10
-26.2857
20
9.46429
11
-26.3571
21
9.39286
0
LINE
8
BLACK
6
CONTINUOUS
10
-26.3571
20
9.39286
11
-26.5
21
9.32143
0
LINE
8
BLACK
6
CONTINUOUS
10
-26.5
20
9.32143
11
-27.0714
21
9.32143
0
LINE
8
BLACK
6
CONTINUOUS
10
-27.0714
20
9.32143
11
-27.0714
21
10.8214
0
LINE
8
BLACK
6
CONTINUOUS
10
-27.0714
20
10.8214
11
-26.5714
21
10.8214
0
LINE
8
BLACK
6
CONTINUOUS
10
-26.5714
20
10.8214
11
-26.4286
21
10.75
0
LINE
8
BLACK
6
CONTINUOUS
10
-26.4286
20
10.75
11
-26.3571
21
10.6786
0
LINE
8
BLACK
6
CONTINUOUS
10
-26.3571
20
10.6786
11
-26.2857
21
10.5357
0
LINE
8
BLACK
6
CONTINUOUS
10
-26.2857
20
10.5357
11
-26.2857
21
10.3929
0
LINE
8
BLACK
6
CONTINUOUS
10
-26.2857
20
10.3929
11
-26.3571
21
10.25
0
LINE
8
BLACK
6
CONTINUOUS
10
-26.3571
20
10.25
11
-26.4286
21
10.1786
0
LINE
8
BLACK
6
CONTINUOUS
10
-26.4286
20
10.1786
11
-26.5714
21
10.1071
0
LINE
8
BLACK
6
CONTINUOUS
10
-26.5714
20
10.1071
11
-27.0714
21
10.1071
0
LINE
8
BLACK
6
CONTINUOUS
10
-25.7143
20
10.8214
11
-24.7857
21
10.8214
0
LINE
8
BLACK
6
CONTINUOUS
10
-24.7857
20
10.8214
11
-25.2857
21
10.25
0
LINE
8
BLACK
6
CONTINUOUS
10
-25.2857
20
10.25
11
-25.0714
21
10.25
0
LINE
8
BLACK
6
CONTINUOUS
10
-25.0714
20
10.25
11
-24.9286
21
10.1786
0
LINE
8
BLACK
6
CONTINUOUS
10
-24.9286
20
10.1786
11
-24.8571
21
10.1071
0
LINE
8
BLACK
6
CONTINUOUS
10
-24.8571
20
10.1071
11
-24.7857
21
9.96429
0
LINE
8
BLACK
6
CONTINUOUS
10
-24.7857
20
9.96429
11
-24.7857
21
9.60714
0
LINE
8
BLACK
6
CONTINUOUS
10
-24.7857
20
9.60714
11
-24.8571
21
9.46429
0
LINE
8
BLACK
6
CONTINUOUS
10
-24.8571
20
9.46429
11
-24.9286
21
9.39286
0
LINE
8
BLACK
6
CONTINUOUS
10
-24.9286
20
9.39286
11
-25.0714
21
9.32143
0
LINE
8
BLACK
6
CONTINUOUS
10
-25.0714
20
9.32143
11
-25.5
21
9.32143
0
LINE
8
BLACK
6
CONTINUOUS
10
-25.5
20
9.32143
11
-25.6429
21
9.39286
0
LINE
8
BLACK
6
CONTINUOUS
10
-25.6429
20
9.39286
11
-25.7143
21
9.46429
0
LINE
8
BLACK
6
CONTINUOUS
10
-24.1429
20
9.32143
11
-24.1429
21
10.8214
0
LINE
8
BLACK
6
CONTINUOUS
10
-24.1429
20
10.8214
11
-23.7857
21
10.8214
0
LINE
8
BLACK
6
CONTINUOUS
10
-23.7857
20
10.8214
11
-23.5714
21
10.75
0
LINE
8
BLACK
6
CONTINUOUS
10
-23.5714
20
10.75
11
-23.4286
21
10.6071
0
LINE
8
BLACK
6
CONTINUOUS
10
-23.4286
20
10.6071
11
-23.3571
21
10.4643
0
LINE
8
BLACK
6
CONTINUOUS
10
-23.3571
20
10.4643
11
-23.2857
21
10.1786
0
LINE
8
BLACK
6
CONTINUOUS
10
-23.2857
20
10.1786
11
-23.2857
21
9.96429
0
LINE
8
BLACK
6
CONTINUOUS
10
-23.2857
20
9.96429
11
-23.3571
21
9.67857
0
LINE
8
BLACK
6
CONTINUOUS
10
-23.3571
20
9.67857
11
-23.4286
21
9.53571
0
LINE
8
BLACK
6
CONTINUOUS
10
-23.4286
20
9.53571
11
-23.5714
21
9.39286
0
LINE
8
BLACK
6
CONTINUOUS
10
-23.5714
20
9.39286
11
-23.7857
21
9.32143
0
LINE
8
BLACK
6
CONTINUOUS
10
-23.7857
20
9.32143
11
-24.1429
21
9.32143
0
LINE
8
BLACK
6
CONTINUOUS
10
-23
20
9.17857
11
-21.8571
21
9.17857
0
LINE
8
BLACK
6
CONTINUOUS
10
-21.7143
20
10.8214
11
-20.8571
21
10.8214
0
LINE
8
BLACK
6
CONTINUOUS
10
-21.2857
20
9.32143
11
-21.2857
21
10.8214
0
LINE
8
BLACK
6
CONTINUOUS
10
-19.6429
20
9.32143
11
-20.3571
21
9.32143
0
LINE
8
BLACK
6
CONTINUOUS
10
-20.3571
20
9.32143
11
-20.3571
21
10.8214
0
LINE
8
BLACK
6
CONTINUOUS
10
-19.5
20
9.17857
11
-18.3571
21
9.17857
0
LINE
8
BLACK
6
CONTINUOUS
10
-17.5
20
10.1071
11
-17.2857
21
10.0357
0
LINE
8
BLACK
6
CONTINUOUS
10
-17.2857
20
10.0357
11
-17.2143
21
9.96429
0
LINE
8
BLACK
6
CONTINUOUS
10
-17.2143
20
9.96429
11
-17.1429
21
9.82143
0
LINE
8
BLACK
6
CONTINUOUS
10
-17.1429
20
9.82143
11
-17.1429
21
9.60714
0
LINE
8
BLACK
6
CONTINUOUS
10
-17.1429
20
9.60714
11
-17.2143
21
9.46429
0
LINE
8
BLACK
6
CONTINUOUS
10
-17.2143
20
9.46429
11
-17.2857
21
9.39286
0
LINE
8
BLACK
6
CONTINUOUS
10
-17.2857
20
9.39286
11
-17.4286
21
9.32143
0
LINE
8
BLACK
6
CONTINUOUS
10
-17.4286
20
9.32143
11
-18
21
9.32143
0
LINE
8
BLACK
6
CONTINUOUS
10
-18
20
9.32143
11
-18
21
10.8214
0
LINE
8
BLACK
6
CONTINUOUS
10
-18
20
10.8214
11
-17.5
21
10.8214
0
LINE
8
BLACK
6
CONTINUOUS
10
-17.5
20
10.8214
11
-17.3571
21
10.75
0
LINE
8
BLACK
6
CONTINUOUS
10
-17.3571
20
10.75
11
-17.2857
21
10.6786
0
LINE
8
BLACK
6
CONTINUOUS
10
-17.2857
20
10.6786
11
-17.2143
21
10.5357
0
LINE
8
BLACK
6
CONTINUOUS
10
-17.2143
20
10.5357
11
-17.2143
21
10.3929
0
LINE
8
BLACK
6
CONTINUOUS
10
-17.2143
20
10.3929
11
-17.2857
21
10.25
0
LINE
8
BLACK
6
CONTINUOUS
10
-17.2857
20
10.25
11
-17.3571
21
10.1786
0
LINE
8
BLACK
6
CONTINUOUS
10
-17.3571
20
10.1786
11
-17.5
21
10.1071
0
LINE
8
BLACK
6
CONTINUOUS
10
-17.5
20
10.1071
11
-18
21
10.1071
0
LINE
8
BLACK
6
CONTINUOUS
10
-16.2143
20
10.8214
11
-15.9286
21
10.8214
0
LINE
8
BLACK
6
CONTINUOUS
10
-15.9286
20
10.8214
11
-15.7857
21
10.75
0
LINE
8
BLACK
6
CONTINUOUS
10
-15.7857
20
10.75
11
-15.6429
21
10.6071
0
LINE
8
BLACK
6
CONTINUOUS
10
-15.6429
20
10.6071
11
-15.5714
21
10.3214
0
LINE
8
BLACK
6
CONTINUOUS
10
-15.5714
20
10.3214
11
-15.5714
21
9.82143
0
LINE
8
BLACK
6
CONTINUOUS
10
-15.5714
20
9.82143
11
-15.6429
21
9.53571
0
LINE
8
BLACK
6
CONTINUOUS
10
-15.6429
20
9.53571
11
-15.7857
21
9.39286
0
LINE
8
BLACK
6
CONTINUOUS
10
-15.7857
20
9.39286
11
-15.9286
21
9.32143
0
LINE
8
BLACK
6
CONTINUOUS
10
-15.9286
20
9.32143
11
-16.2143
21
9.32143
0
LINE
8
BLACK
6
CONTINUOUS
10
-16.2143
20
9.32143
11
-16.3571
21
9.39286
0
LINE
8
BLACK
6
CONTINUOUS
10
-16.3571
20
9.39286
11
-16.5
21
9.53571
0
LINE
8
BLACK
6
CONTINUOUS
10
-16.5
20
9.53571
11
-16.5714
21
9.82143
0
LINE
8
BLACK
6
CONTINUOUS
10
-16.5714
20
9.82143
11
-16.5714
21
10.3214
0
LINE
8
BLACK
6
CONTINUOUS
10
-16.5714
20
10.3214
11
-16.5
21
10.6071
0
LINE
8
BLACK
6
CONTINUOUS
10
-16.5
20
10.6071
11
-16.3571
21
10.75
0
LINE
8
BLACK
6
CONTINUOUS
10
-16.3571
20
10.75
11
-16.2143
21
10.8214
0
LINE
8
BLACK
6
CONTINUOUS
10
-15
20
9.75
11
-14.2857
21
9.75
0
LINE
8
BLACK
6
CONTINUOUS
10
-15.1429
20
9.32143
11
-14.6429
21
10.8214
0
LINE
8
BLACK
6
CONTINUOUS
10
-14.6429
20
10.8214
11
-14.1429
21
9.32143
0
LINE
8
BLACK
6
CONTINUOUS
10
-12.7857
20
9.32143
11
-13.2857
21
10.0357
0
LINE
8
BLACK
6
CONTINUOUS
10
-13.6429
20
9.32143
11
-13.6429
21
10.8214
0
LINE
8
BLACK
6
CONTINUOUS
10
-13.6429
20
10.8214
11
-13.0714
21
10.8214
0
LINE
8
BLACK
6
CONTINUOUS
10
-13.0714
20
10.8214
11
-12.9286
21
10.75
0
LINE
8
BLACK
6
CONTINUOUS
10
-12.9286
20
10.75
11
-12.8571
21
10.6786
0
LINE
8
BLACK
6
CONTINUOUS
10
-12.8571
20
10.6786
11
-12.7857
21
10.5357
0
LINE
8
BLACK
6
CONTINUOUS
10
-12.7857
20
10.5357
11
-12.7857
21
10.3214
0
LINE
8
BLACK
6
CONTINUOUS
10
-12.7857
20
10.3214
11
-12.8571
21
10.1786
0
LINE
8
BLACK
6
CONTINUOUS
10
-12.8571
20
10.1786
11
-12.9286
21
10.1071
0
LINE
8
BLACK
6
CONTINUOUS
10
-12.9286
20
10.1071
11
-13.0714
21
10.0357
0
LINE
8
BLACK
6
CONTINUOUS
10
-13.0714
20
10.0357
11
-13.6429
21
10.0357
0
LINE
8
BLACK
6
CONTINUOUS
10
-12.1429
20
9.32143
11
-12.1429
21
10.8214
0
LINE
8
BLACK
6
CONTINUOUS
10
-12.1429
20
10.8214
11
-11.7857
21
10.8214
0
LINE
8
BLACK
6
CONTINUOUS
10
-11.7857
20
10.8214
11
-11.5714
21
10.75
0
LINE
8
BLACK
6
CONTINUOUS
10
-11.5714
20
10.75
11
-11.4286
21
10.6071
0
LINE
8
BLACK
6
CONTINUOUS
10
-11.4286
20
10.6071
11
-11.3571
21
10.4643
0
LINE
8
BLACK
6
CONTINUOUS
10
-11.3571
20
10.4643
11
-11.2857
21
10.1786
0
LINE
8
BLACK
6
CONTINUOUS
10
-11.2857
20
10.1786
11
-11.2857
21
9.96429
0
LINE
8
BLACK
6
CONTINUOUS
10
-11.2857
20
9.96429
11
-11.3571
21
9.67857
0
LINE
8
BLACK
6
CONTINUOUS
10
-11.3571
20
9.67857
11
-11.4286
21
9.53571
0
LINE
8
BLACK
6
CONTINUOUS
10
-11.4286
20
9.53571
11
-11.5714
21
9.39286
0
LINE
8
BLACK
6
CONTINUOUS
10
-11.5714
20
9.39286
11
-11.7857
21
9.32143
0
LINE
8
BLACK
6
CONTINUOUS
10
-11.7857
20
9.32143
11
-12.1429
21
9.32143
0
LINE
8
BLACK
6
CONTINUOUS
10
-10.3571
20
10.8214
11
-10.2143
21
10.8214
0
LINE
8
BLACK
6
CONTINUOUS
10
-10.2143
20
10.8214
11
-10.0714
21
10.75
0
LINE
8
BLACK
6
CONTINUOUS
10
-10.0714
20
10.75
11
-10
21
10.6786
0
LINE
8
BLACK
6
CONTINUOUS
10
-10
20
10.6786
11
-9.92857
21
10.5357
0
LINE
8
BLACK
6
CONTINUOUS
10
-9.92857
20
10.5357
11
-9.85714
21
10.25
0
LINE
8
BLACK
6
CONTINUOUS
10
-9.85714
20
10.25
11
-9.85714
21
9.89286
0
LINE
8
BLACK
6
CONTINUOUS
10
-9.85714
20
9.89286
11
-9.92857
21
9.60714
0
LINE
8
BLACK
6
CONTINUOUS
10
-9.92857
20
9.60714
11
-10
21
9.46429
0
LINE
8
BLACK
6
CONTINUOUS
10
-10
20
9.46429
11
-10.0714
21
9.39286
0
LINE
8
BLACK
6
CONTINUOUS
10
-10.0714
20
9.39286
11
-10.2143
21
9.32143
0
LINE
8
BLACK
6
CONTINUOUS
10
-10.2143
20
9.32143
11
-10.3571
21
9.32143
0
LINE
8
BLACK
6
CONTINUOUS
10
-10.3571
20
9.32143
11
-10.5
21
9.39286
0
LINE
8
BLACK
6
CONTINUOUS
10
-10.5
20
9.39286
11
-10.5714
21
9.46429
0
LINE
8
BLACK
6
CONTINUOUS
10
-10.5714
20
9.46429
11
-10.6429
21
9.60714
0
LINE
8
BLACK
6
CONTINUOUS
10
-10.6429
20
9.60714
11
-10.7143
21
9.89286
0
LINE
8
BLACK
6
CONTINUOUS
10
-10.7143
20
9.89286
11
-10.7143
21
10.25
0
LINE
8
BLACK
6
CONTINUOUS
10
-10.7143
20
10.25
11
-10.6429
21
10.5357
0
LINE
8
BLACK
6
CONTINUOUS
10
-10.6429
20
10.5357
11
-10.5714
21
10.6786
0
LINE
8
BLACK
6
CONTINUOUS
10
-10.5714
20
10.6786
11
-10.5
21
10.75
0
LINE
8
BLACK
6
CONTINUOUS
10
-10.5
20
10.75
11
-10.3571
21
10.8214
0
LINE
8
BLACK
6
CONTINUOUS
10
199.607
20
-150.679
11
199.607
21
-149.179
0
LINE
8
BLACK
6
CONTINUOUS
10
199.607
20
-149.179
11
200.179
21
-149.179
0
LINE
8
BLACK
6
CONTINUOUS
10
200.179
20
-149.179
11
200.321
21
-149.25
0
LINE
8
BLACK
6
CONTINUOUS
10
200.321
20
-149.25
11
200.393
21
-149.321
0
LINE
8
BLACK
6
CONTINUOUS
10
200.393
20
-149.321
11
200.464
21
-149.464
0
LINE
8
BLACK
6
CONTINUOUS
10
200.464
20
-149.464
11
200.464
21
-149.679
0
LINE
8
BLACK
6
CONTINUOUS
10
200.464
20
-149.679
11
200.393
21
-149.821
0
LINE
8
BLACK
6
CONTINUOUS
10
200.393
20
-149.821
11
200.321
21
-149.893
0
LINE
8
BLACK
6
CONTINUOUS
10
200.321
20
-149.893
11
200.179
21
-149.964
0
LINE
8
BLACK
6
CONTINUOUS
10
200.179
20
-149.964
11
199.607
21
-149.964
0
LINE
8
BLACK
6
CONTINUOUS
10
201.964
20
-150.536
11
201.893
21
-150.607
0
LINE
8
BLACK
6
CONTINUOUS
10
201.893
20
-150.607
11
201.679
21
-150.679
0
LINE
8
BLACK
6
CONTINUOUS
10
201.679
20
-150.679
11
201.536
21
-150.679
0
LINE
8
BLACK
6
CONTINUOUS
10
201.536
20
-150.679
11
201.321
21
-150.607
0
LINE
8
BLACK
6
CONTINUOUS
10
201.321
20
-150.607
11
201.179
21
-150.464
0
LINE
8
BLACK
6
CONTINUOUS
10
201.179
20
-150.464
11
201.107
21
-150.321
0
LINE
8
BLACK
6
CONTINUOUS
10
201.107
20
-150.321
11
201.036
21
-150.036
0
LINE
8
BLACK
6
CONTINUOUS
10
201.036
20
-150.036
11
201.036
21
-149.821
0
LINE
8
BLACK
6
CONTINUOUS
10
201.036
20
-149.821
11
201.107
21
-149.536
0
LINE
8
BLACK
6
CONTINUOUS
10
201.107
20
-149.536
11
201.179
21
-149.393
0
LINE
8
BLACK
6
CONTINUOUS
10
201.179
20
-149.393
11
201.321
21
-149.25
0
LINE
8
BLACK
6
CONTINUOUS
10
201.321
20
-149.25
11
201.536
21
-149.179
0
LINE
8
BLACK
6
CONTINUOUS
10
201.536
20
-149.179
11
201.679
21
-149.179
0
LINE
8
BLACK
6
CONTINUOUS
10
201.679
20
-149.179
11
201.893
21
-149.25
0
LINE
8
BLACK
6
CONTINUOUS
10
201.893
20
-149.25
11
201.964
21
-149.321
0
LINE
8
BLACK
6
CONTINUOUS
10
203.107
20
-149.893
11
203.321
21
-149.964
0
LINE
8
BLACK
6
CONTINUOUS
10
203.321
20
-149.964
11
203.393
21
-150.036
0
LINE
8
BLACK
6
CONTINUOUS
10
203.393
20
-150.036
11
203.464
21
-150.179
0
LINE
8
BLACK
6
CONTINUOUS
10
203.464
20
-150.179
11
203.464
21
-150.393
0
LINE
8
BLACK
6
CONTINUOUS
10
203.464
20
-150.393
11
203.393
21
-150.536
0
LINE
8
BLACK
6
CONTINUOUS
10
203.393
20
-150.536
11
203.321
21
-150.607
0
LINE
8
BLACK
6
CONTINUOUS
10
203.321
20
-150.607
11
203.179
21
-150.679
0
LINE
8
BLACK
6
CONTINUOUS
10
203.179
20
-150.679
11
202.607
21
-150.679
0
LINE
8
BLACK
6
CONTINUOUS
10
202.607
20
-150.679
11
202.607
21
-149.179
0
LINE
8
BLACK
6
CONTINUOUS
10
202.607
20
-149.179
11
203.107
21
-149.179
0
LINE
8
BLACK
6
CONTINUOUS
10
203.107
20
-149.179
11
203.25
21
-149.25
0
LINE
8
BLACK
6
CONTINUOUS
10
203.25
20
-149.25
11
203.321
21
-149.321
0
LINE
8
BLACK
6
CONTINUOUS
10
203.321
20
-149.321
11
203.393
21
-149.464
0
LINE
8
BLACK
6
CONTINUOUS
10
203.393
20
-149.464
11
203.393
21
-149.607
0
LINE
8
BLACK
6
CONTINUOUS
10
203.393
20
-149.607
11
203.321
21
-149.75
0
LINE
8
BLACK
6
CONTINUOUS
10
203.321
20
-149.75
11
203.25
21
-149.821
0
LINE
8
BLACK
6
CONTINUOUS
10
203.25
20
-149.821
11
203.107
21
-149.893
0
LINE
8
BLACK
6
CONTINUOUS
10
203.107
20
-149.893
11
202.607
21
-149.893
0
LINE
8
BLACK
6
CONTINUOUS
10
203.964
20
-149.179
11
204.893
21
-149.179
0
LINE
8
BLACK
6
CONTINUOUS
10
204.893
20
-149.179
11
204.393
21
-149.75
0
LINE
8
BLACK
6
CONTINUOUS
10
204.393
20
-149.75
11
204.607
21
-149.75
0
LINE
8
BLACK
6
CONTINUOUS
10
204.607
20
-149.75
11
204.75
21
-149.821
0
LINE
8
BLACK
6
CONTINUOUS
10
204.75
20
-149.821
11
204.821
21
-149.893
0
LINE
8
BLACK
6
CONTINUOUS
10
204.821
20
-149.893
11
204.893
21
-150.036
0
LINE
8
BLACK
6
CONTINUOUS
10
204.893
20
-150.036
11
204.893
21
-150.393
0
LINE
8
BLACK
6
CONTINUOUS
10
204.893
20
-150.393
11
204.821
21
-150.536
0
LINE
8
BLACK
6
CONTINUOUS
10
204.821
20
-150.536
11
204.75
21
-150.607
0
LINE
8
BLACK
6
CONTINUOUS
10
204.75
20
-150.607
11
204.607
21
-150.679
0
LINE
8
BLACK
6
CONTINUOUS
10
204.607
20
-150.679
11
204.179
21
-150.679
0
LINE
8
BLACK
6
CONTINUOUS
10
204.179
20
-150.679
11
204.036
21
-150.607
0
LINE
8
BLACK
6
CONTINUOUS
10
204.036
20
-150.607
11
203.964
21
-150.536
0
LINE
8
BLACK
6
CONTINUOUS
10
205.536
20
-150.679
11
205.536
21
-149.179
0
LINE
8
BLACK
6
CONTINUOUS
10
205.536
20
-149.179
11
205.893
21
-149.179
0
LINE
8
BLACK
6
CONTINUOUS
10
205.893
20
-149.179
11
206.107
21
-149.25
0
LINE
8
BLACK
6
CONTINUOUS
10
206.107
20
-149.25
11
206.25
21
-149.393
0
LINE
8
BLACK
6
CONTINUOUS
10
206.25
20
-149.393
11
206.321
21
-149.536
0
LINE
8
BLACK
6
CONTINUOUS
10
206.321
20
-149.536
11
206.393
21
-149.821
0
LINE
8
BLACK
6
CONTINUOUS
10
206.393
20
-149.821
11
206.393
21
-150.036
0
LINE
8
BLACK
6
CONTINUOUS
10
206.393
20
-150.036
11
206.321
21
-150.321
0
LINE
8
BLACK
6
CONTINUOUS
10
206.321
20
-150.321
11
206.25
21
-150.464
0
LINE
8
BLACK
6
CONTINUOUS
10
206.25
20
-150.464
11
206.107
21
-150.607
0
LINE
8
BLACK
6
CONTINUOUS
10
206.107
20
-150.607
11
205.893
21
-150.679
0
LINE
8
BLACK
6
CONTINUOUS
10
205.893
20
-150.679
11
205.536
21
-150.679
0
LINE
8
BLACK
6
CONTINUOUS
10
206.679
20
-150.821
11
207.821
21
-150.821
0
LINE
8
BLACK
6
CONTINUOUS
10
208.679
20
-149.893
11
208.893
21
-149.964
0
LINE
8
BLACK
6
CONTINUOUS
10
208.893
20
-149.964
11
208.964
21
-150.036
0
LINE
8
BLACK
6
CONTINUOUS
10
208.964
20
-150.036
11
209.036
21
-150.179
0
LINE
8
BLACK
6
CONTINUOUS
10
209.036
20
-150.179
11
209.036
21
-150.393
0
LINE
8
BLACK
6
CONTINUOUS
10
209.036
20
-150.393
11
208.964
21
-150.536
0
LINE
8
BLACK
6
CONTINUOUS
10
208.964
20
-150.536
11
208.893
21
-150.607
0
LINE
8
BLACK
6
CONTINUOUS
10
208.893
20
-150.607
11
208.75
21
-150.679
0
LINE
8
BLACK
6
CONTINUOUS
10
208.75
20
-150.679
11
208.179
21
-150.679
0
LINE
8
BLACK
6
CONTINUOUS
10
208.179
20
-150.679
11
208.179
21
-149.179
0
LINE
8
BLACK
6
CONTINUOUS
10
208.179
20
-149.179
11
208.679
21
-149.179
0
LINE
8
BLACK
6
CONTINUOUS
10
208.679
20
-149.179
11
208.821
21
-149.25
0
LINE
8
BLACK
6
CONTINUOUS
10
208.821
20
-149.25
11
208.893
21
-149.321
0
LINE
8
BLACK
6
CONTINUOUS
10
208.893
20
-149.321
11
208.964
21
-149.464
0
LINE
8
BLACK
6
CONTINUOUS
10
208.964
20
-149.464
11
208.964
21
-149.607
0
LINE
8
BLACK
6
CONTINUOUS
10
208.964
20
-149.607
11
208.893
21
-149.75
0
LINE
8
BLACK
6
CONTINUOUS
10
208.893
20
-149.75
11
208.821
21
-149.821
0
LINE
8
BLACK
6
CONTINUOUS
10
208.821
20
-149.821
11
208.679
21
-149.893
0
LINE
8
BLACK
6
CONTINUOUS
10
208.679
20
-149.893
11
208.179
21
-149.893
0
LINE
8
BLACK
6
CONTINUOUS
10
210.536
20
-150.679
11
210.036
21
-149.964
0
LINE
8
BLACK
6
CONTINUOUS
10
209.679
20
-150.679
11
209.679
21
-149.179
0
LINE
8
BLACK
6
CONTINUOUS
10
209.679
20
-149.179
11
210.25
21
-149.179
0
LINE
8
BLACK
6
CONTINUOUS
10
210.25
20
-149.179
11
210.393
21
-149.25
0
LINE
8
BLACK
6
CONTINUOUS
10
210.393
20
-149.25
11
210.464
21
-149.321
0
LINE
8
BLACK
6
CONTINUOUS
10
210.464
20
-149.321
11
210.536
21
-149.464
0
LINE
8
BLACK
6
CONTINUOUS
10
210.536
20
-149.464
11
210.536
21
-149.679
0
LINE
8
BLACK
6
CONTINUOUS
10
210.536
20
-149.679
11
210.464
21
-149.821
0
LINE
8
BLACK
6
CONTINUOUS
10
210.464
20
-149.821
11
210.393
21
-149.893
0
LINE
8
BLACK
6
CONTINUOUS
10
210.393
20
-149.893
11
210.25
21
-149.964
0
LINE
8
BLACK
6
CONTINUOUS
10
210.25
20
-149.964
11
209.679
21
-149.964
0
LINE
8
BLACK
6
CONTINUOUS
10
210.821
20
-150.821
11
211.964
21
-150.821
0
LINE
8
BLACK
6
CONTINUOUS
10
212.821
20
-149.893
11
213.036
21
-149.964
0
LINE
8
BLACK
6
CONTINUOUS
10
213.036
20
-149.964
11
213.107
21
-150.036
0
LINE
8
BLACK
6
CONTINUOUS
10
213.107
20
-150.036
11
213.179
21
-150.179
0
LINE
8
BLACK
6
CONTINUOUS
10
213.179
20
-150.179
11
213.179
21
-150.393
0
LINE
8
BLACK
6
CONTINUOUS
10
213.179
20
-150.393
11
213.107
21
-150.536
0
LINE
8
BLACK
6
CONTINUOUS
10
213.107
20
-150.536
11
213.036
21
-150.607
0
LINE
8
BLACK
6
CONTINUOUS
10
213.036
20
-150.607
11
212.893
21
-150.679
0
LINE
8
BLACK
6
CONTINUOUS
10
212.893
20
-150.679
11
212.321
21
-150.679
0
LINE
8
BLACK
6
CONTINUOUS
10
212.321
20
-150.679
11
212.321
21
-149.179
0
LINE
8
BLACK
6
CONTINUOUS
10
212.321
20
-149.179
11
212.821
21
-149.179
0
LINE
8
BLACK
6
CONTINUOUS
10
212.821
20
-149.179
11
212.964
21
-149.25
0
LINE
8
BLACK
6
CONTINUOUS
10
212.964
20
-149.25
11
213.036
21
-149.321
0
LINE
8
BLACK
6
CONTINUOUS
10
213.036
20
-149.321
11
213.107
21
-149.464
0
LINE
8
BLACK
6
CONTINUOUS
10
213.107
20
-149.464
11
213.107
21
-149.607
0
LINE
8
BLACK
6
CONTINUOUS
10
213.107
20
-149.607
11
213.036
21
-149.75
0
LINE
8
BLACK
6
CONTINUOUS
10
213.036
20
-149.75
11
212.964
21
-149.821
0
LINE
8
BLACK
6
CONTINUOUS
10
212.964
20
-149.821
11
212.821
21
-149.893
0
LINE
8
BLACK
6
CONTINUOUS
10
212.821
20
-149.893
11
212.321
21
-149.893
0
LINE
8
BLACK
6
CONTINUOUS
10
214.107
20
-149.179
11
214.393
21
-149.179
0
LINE
8
BLACK
6
CONTINUOUS
10
214.393
20
-149.179
11
214.536
21
-149.25
0
LINE
8
BLACK
6
CONTINUOUS
10
214.536
20
-149.25
11
214.679
21
-149.393
0
LINE
8
BLACK
6
CONTINUOUS
10
214.679
20
-149.393
11
214.75
21
-149.679
0
LINE
8
BLACK
6
CONTINUOUS
10
214.75
20
-149.679
11
214.75
21
-150.179
0
LINE
8
BLACK
6
CONTINUOUS
10
214.75
20
-150.179
11
214.679
21
-150.464
0
LINE
8
BLACK
6
CONTINUOUS
10
214.679
20
-150.464
11
214.536
21
-150.607
0
LINE
8
BLACK
6
CONTINUOUS
10
214.536
20
-150.607
11
214.393
21
-150.679
0
LINE
8
BLACK
6
CONTINUOUS
10
214.393
20
-150.679
11
214.107
21
-150.679
0
LINE
8
BLACK
6
CONTINUOUS
10
214.107
20
-150.679
11
213.964
21
-150.607
0
LINE
8
BLACK
6
CONTINUOUS
10
213.964
20
-150.607
11
213.821
21
-150.464
0
LINE
8
BLACK
6
CONTINUOUS
10
213.821
20
-150.464
11
213.75
21
-150.179
0
LINE
8
BLACK
6
CONTINUOUS
10
213.75
20
-150.179
11
213.75
21
-149.679
0
LINE
8
BLACK
6
CONTINUOUS
10
213.75
20
-149.679
11
213.821
21
-149.393
0
LINE
8
BLACK
6
CONTINUOUS
10
213.821
20
-149.393
11
213.964
21
-149.25
0
LINE
8
BLACK
6
CONTINUOUS
10
213.964
20
-149.25
11
214.107
21
-149.179
0
LINE
8
BLACK
6
CONTINUOUS
10
215.321
20
-150.25
11
216.036
21
-150.25
0
LINE
8
BLACK
6
CONTINUOUS
10
215.179
20
-150.679
11
215.679
21
-149.179
0
LINE
8
BLACK
6
CONTINUOUS
10
215.679
20
-149.179
11
216.179
21
-150.679
0
LINE
8
BLACK
6
CONTINUOUS
10
217.536
20
-150.679
11
217.036
21
-149.964
0
LINE
8
BLACK
6
CONTINUOUS
10
216.679
20
-150.679
11
216.679
21
-149.179
0
LINE
8
BLACK
6
CONTINUOUS
10
216.679
20
-149.179
11
217.25
21
-149.179
0
LINE
8
BLACK
6
CONTINUOUS
10
217.25
20
-149.179
11
217.393
21
-149.25
0
LINE
8
BLACK
6
CONTINUOUS
10
217.393
20
-149.25
11
217.464
21
-149.321
0
LINE
8
BLACK
6
CONTINUOUS
10
217.464
20
-149.321
11
217.536
21
-149.464
0
LINE
8
BLACK
6
CONTINUOUS
10
217.536
20
-149.464
11
217.536
21
-149.679
0
LINE
8
BLACK
6
CONTINUOUS
10
217.536
20
-149.679
11
217.464
21
-149.821
0
LINE
8
BLACK
6
CONTINUOUS
10
217.464
20
-149.821
11
217.393
21
-149.893
0
LINE
8
BLACK
6
CONTINUOUS
10
217.393
20
-149.893
11
217.25
21
-149.964
0
LINE
8
BLACK
6
CONTINUOUS
10
217.25
20
-149.964
11
216.679
21
-149.964
0
LINE
8
BLACK
6
CONTINUOUS
10
218.179
20
-150.679
11
218.179
21
-149.179
0
LINE
8
BLACK
6
CONTINUOUS
10
218.179
20
-149.179
11
218.536
21
-149.179
0
LINE
8
BLACK
6
CONTINUOUS
10
218.536
20
-149.179
11
218.75
21
-149.25
0
LINE
8
BLACK
6
CONTINUOUS
10
218.75
20
-149.25
11
218.893
21
-149.393
0
LINE
8
BLACK
6
CONTINUOUS
10
218.893
20
-149.393
11
218.964
21
-149.536
0
LINE
8
BLACK
6
CONTINUOUS
10
218.964
20
-149.536
11
219.036
21
-149.821
0
LINE
8
BLACK
6
CONTINUOUS
10
219.036
20
-149.821
11
219.036
21
-150.036
0
LINE
8
BLACK
6
CONTINUOUS
10
219.036
20
-150.036
11
218.964
21
-150.321
0
LINE
8
BLACK
6
CONTINUOUS
10
218.964
20
-150.321
11
218.893
21
-150.464
0
LINE
8
BLACK
6
CONTINUOUS
10
218.893
20
-150.464
11
218.75
21
-150.607
0
LINE
8
BLACK
6
CONTINUOUS
10
218.75
20
-150.607
11
218.536
21
-150.679
0
LINE
8
BLACK
6
CONTINUOUS
10
218.536
20
-150.679
11
218.179
21
-150.679
0
LINE
8
BLACK
6
CONTINUOUS
10
219.964
20
-149.179
11
220.107
21
-149.179
0
LINE
8
BLACK
6
CONTINUOUS
10
220.107
20
-149.179
11
220.25
21
-149.25
0
LINE
8
BLACK
6
CONTINUOUS
10
220.25
20
-149.25
11
220.321
21
-149.321
0
LINE
8
BLACK
6
CONTINUOUS
10
220.321
20
-149.321
11
220.393
21
-149.464
0
LINE
8
BLACK
6
CONTINUOUS
10
220.393
20
-149.464
11
220.464
21
-149.75
0
LINE
8
BLACK
6
CONTINUOUS
10
220.464
20
-149.75
11
220.464
21
-150.107
0
LINE
8
BLACK
6
CONTINUOUS
10
220.464
20
-150.107
11
220.393
21
-150.393
0
LINE
8
BLACK
6
CONTINUOUS
10
220.393
20
-150.393
11
220.321
21
-150.536
0
LINE
8
BLACK
6
CONTINUOUS
10
220.321
20
-150.536
11
220.25
21
-150.607
0
LINE
8
BLACK
6
CONTINUOUS
10
220.25
20
-150.607
11
220.107
21
-150.679
0
LINE
8
BLACK
6
CONTINUOUS
10
220.107
20
-150.679
11
219.964
21
-150.679
0
LINE
8
BLACK
6
CONTINUOUS
10
219.964
20
-150.679
11
219.821
21
-150.607
0
LINE
8
BLACK
6
CONTINUOUS
10
219.821
20
-150.607
11
219.75
21
-150.536
0
LINE
8
BLACK
6
CONTINUOUS
10
219.75
20
-150.536
11
219.679
21
-150.393
0
LINE
8
BLACK
6
CONTINUOUS
10
219.679
20
-150.393
11
219.607
21
-150.107
0
LINE
8
BLACK
6
CONTINUOUS
10
219.607
20
-150.107
11
219.607
21
-149.75
0
LINE
8
BLACK
6
CONTINUOUS
10
219.607
20
-149.75
11
219.679
21
-149.464
0
LINE
8
BLACK
6
CONTINUOUS
10
219.679
20
-149.464
11
219.75
21
-149.321
0
LINE
8
BLACK
6
CONTINUOUS
10
219.75
20
-149.321
11
219.821
21
-149.25
0
LINE
8
BLACK
6
CONTINUOUS
10
219.821
20
-149.25
11
219.964
21
-149.179
0
LINE
8
BLACK
6
CONTINUOUS
10
-30.0714
20
-190.679
11
-30.0714
21
-189.179
0
LINE
8
BLACK
6
CONTINUOUS
10
-30.0714
20
-189.179
11
-29.5
21
-189.179
0
LINE
8
BLACK
6
CONTINUOUS
10
-29.5
20
-189.179
11
-29.3571
21
-189.25
0
LINE
8
BLACK
6
CONTINUOUS
10
-29.3571
20
-189.25
11
-29.2857
21
-189.321
0
LINE
8
BLACK
6
CONTINUOUS
10
-29.2857
20
-189.321
11
-29.2143
21
-189.464
0
LINE
8
BLACK
6
CONTINUOUS
10
-29.2143
20
-189.464
11
-29.2143
21
-189.679
0
LINE
8
BLACK
6
CONTINUOUS
10
-29.2143
20
-189.679
11
-29.2857
21
-189.821
0
LINE
8
BLACK
6
CONTINUOUS
10
-29.2857
20
-189.821
11
-29.3571
21
-189.893
0
LINE
8
BLACK
6
CONTINUOUS
10
-29.3571
20
-189.893
11
-29.5
21
-189.964
0
LINE
8
BLACK
6
CONTINUOUS
10
-29.5
20
-189.964
11
-30.0714
21
-189.964
0
LINE
8
BLACK
6
CONTINUOUS
10
-27.7143
20
-190.536
11
-27.7857
21
-190.607
0
LINE
8
BLACK
6
CONTINUOUS
10
-27.7857
20
-190.607
11
-28
21
-190.679
0
LINE
8
BLACK
6
CONTINUOUS
10
-28
20
-190.679
11
-28.1429
21
-190.679
0
LINE
8
BLACK
6
CONTINUOUS
10
-28.1429
20
-190.679
11
-28.3571
21
-190.607
0
LINE
8
BLACK
6
CONTINUOUS
10
-28.3571
20
-190.607
11
-28.5
21
-190.464
0
LINE
8
BLACK
6
CONTINUOUS
10
-28.5
20
-190.464
11
-28.5714
21
-190.321
0
LINE
8
BLACK
6
CONTINUOUS
10
-28.5714
20
-190.321
11
-28.6429
21
-190.036
0
LINE
8
BLACK
6
CONTINUOUS
10
-28.6429
20
-190.036
11
-28.6429
21
-189.821
0
LINE
8
BLACK
6
CONTINUOUS
10
-28.6429
20
-189.821
11
-28.5714
21
-189.536
0
LINE
8
BLACK
6
CONTINUOUS
10
-28.5714
20
-189.536
11
-28.5
21
-189.393
0
LINE
8
BLACK
6
CONTINUOUS
10
-28.5
20
-189.393
11
-28.3571
21
-189.25
0
LINE
8
BLACK
6
CONTINUOUS
10
-28.3571
20
-189.25
11
-28.1429
21
-189.179
0
LINE
8
BLACK
6
CONTINUOUS
10
-28.1429
20
-189.179
11
-28
21
-189.179
0
LINE
8
BLACK
6
CONTINUOUS
10
-28
20
-189.179
11
-27.7857
21
-189.25
0
LINE
8
BLACK
6
CONTINUOUS
10
-27.7857
20
-189.25
11
-27.7143
21
-189.321
0
LINE
8
BLACK
6
CONTINUOUS
10
-26.5714
20
-189.893
11
-26.3571
21
-189.964
0
LINE
8
BLACK
6
CONTINUOUS
10
-26.3571
20
-189.964
11
-26.2857
21
-190.036
0
LINE
8
BLACK
6
CONTINUOUS
10
-26.2857
20
-190.036
11
-26.2143
21
-190.179
0
LINE
8
BLACK
6
CONTINUOUS
10
-26.2143
20
-190.179
11
-26.2143
21
-190.393
0
LINE
8
BLACK
6
CONTINUOUS
10
-26.2143
20
-190.393
11
-26.2857
21
-190.536
0
LINE
8
BLACK
6
CONTINUOUS
10
-26.2857
20
-190.536
11
-26.3571
21
-190.607
0
LINE
8
BLACK
6
CONTINUOUS
10
-26.3571
20
-190.607
11
-26.5
21
-190.679
0
LINE
8
BLACK
6
CONTINUOUS
10
-26.5
20
-190.679
11
-27.0714
21
-190.679
0
LINE
8
BLACK
6
CONTINUOUS
10
-27.0714
20
-190.679
11
-27.0714
21
-189.179
0
LINE
8
BLACK
6
CONTINUOUS
10
-27.0714
20
-189.179
11
-26.5714
21
-189.179
0
LINE
8
BLACK
6
CONTINUOUS
10
-26.5714
20
-189.179
11
-26.4286
21
-189.25
0
LINE
8
BLACK
6
CONTINUOUS
10
-26.4286
20
-189.25
11
-26.3571
21
-189.321
0
LINE
8
BLACK
6
CONTINUOUS
10
-26.3571
20
-189.321
11
-26.2857
21
-189.464
0
LINE
8
BLACK
6
CONTINUOUS
10
-26.2857
20
-189.464
11
-26.2857
21
-189.607
0
LINE
8
BLACK
6
CONTINUOUS
10
-26.2857
20
-189.607
11
-26.3571
21
-189.75
0
LINE
8
BLACK
6
CONTINUOUS
10
-26.3571
20
-189.75
11
-26.4286
21
-189.821
0
LINE
8
BLACK
6
CONTINUOUS
10
-26.4286
20
-189.821
11
-26.5714
21
-189.893
0
LINE
8
BLACK
6
CONTINUOUS
10
-26.5714
20
-189.893
11
-27.0714
21
-189.893
0
LINE
8
BLACK
6
CONTINUOUS
10
-25.7143
20
-189.179
11
-24.7857
21
-189.179
0
LINE
8
BLACK
6
CONTINUOUS
10
-24.7857
20
-189.179
11
-25.2857
21
-189.75
0
LINE
8
BLACK
6
CONTINUOUS
10
-25.2857
20
-189.75
11
-25.0714
21
-189.75
0
LINE
8
BLACK
6
CONTINUOUS
10
-25.0714
20
-189.75
11
-24.9286
21
-189.821
0
LINE
8
BLACK
6
CONTINUOUS
10
-24.9286
20
-189.821
11
-24.8571
21
-189.893
0
LINE
8
BLACK
6
CONTINUOUS
10
-24.8571
20
-189.893
11
-24.7857
21
-190.036
0
LINE
8
BLACK
6
CONTINUOUS
10
-24.7857
20
-190.036
11
-24.7857
21
-190.393
0
LINE
8
BLACK
6
CONTINUOUS
10
-24.7857
20
-190.393
11
-24.8571
21
-190.536
0
LINE
8
BLACK
6
CONTINUOUS
10
-24.8571
20
-190.536
11
-24.9286
21
-190.607
0
LINE
8
BLACK
6
CONTINUOUS
10
-24.9286
20
-190.607
11
-25.0714
21
-190.679
0
LINE
8
BLACK
6
CONTINUOUS
10
-25.0714
20
-190.679
11
-25.5
21
-190.679
0
LINE
8
BLACK
6
CONTINUOUS
10
-25.5
20
-190.679
11
-25.6429
21
-190.607
0
LINE
8
BLACK
6
CONTINUOUS
10
-25.6429
20
-190.607
11
-25.7143
21
-190.536
0
LINE
8
BLACK
6
CONTINUOUS
10
-24.1429
20
-190.679
11
-24.1429
21
-189.179
0
LINE
8
BLACK
6
CONTINUOUS
10
-24.1429
20
-189.179
11
-23.7857
21
-189.179
0
LINE
8
BLACK
6
CONTINUOUS
10
-23.7857
20
-189.179
11
-23.5714
21
-189.25
0
LINE
8
BLACK
6
CONTINUOUS
10
-23.5714
20
-189.25
11
-23.4286
21
-189.393
0
LINE
8
BLACK
6
CONTINUOUS
10
-23.4286
20
-189.393
11
-23.3571
21
-189.536
0
LINE
8
BLACK
6
CONTINUOUS
10
-23.3571
20
-189.536
11
-23.2857
21
-189.821
0
LINE
8
BLACK
6
CONTINUOUS
10
-23.2857
20
-189.821
11
-23.2857
21
-190.036
0
LINE
8
BLACK
6
CONTINUOUS
10
-23.2857
20
-190.036
11
-23.3571
21
-190.321
0
LINE
8
BLACK
6
CONTINUOUS
10
-23.3571
20
-190.321
11
-23.4286
21
-190.464
0
LINE
8
BLACK
6
CONTINUOUS
10
-23.4286
20
-190.464
11
-23.5714
21
-190.607
0
LINE
8
BLACK
6
CONTINUOUS
10
-23.5714
20
-190.607
11
-23.7857
21
-190.679
0
LINE
8
BLACK
6
CONTINUOUS
10
-23.7857
20
-190.679
11
-24.1429
21
-190.679
0
LINE
8
BLACK
6
CONTINUOUS
10
-23
20
-190.821
11
-21.8571
21
-190.821
0
LINE
8
BLACK
6
CONTINUOUS
10
-21.7143
20
-189.179
11
-20.8571
21
-189.179
0
LINE
8
BLACK
6
CONTINUOUS
10
-21.2857
20
-190.679
11
-21.2857
21
-189.179
0
LINE
8
BLACK
6
CONTINUOUS
10
-19.6429
20
-190.679
11
-20.3571
21
-190.679
0
LINE
8
BLACK
6
CONTINUOUS
10
-20.3571
20
-190.679
11
-20.3571
21
-189.179
0
LINE
8
BLACK
6
CONTINUOUS
10
-19.5
20
-190.821
11
-18.3571
21
-190.821
0
LINE
8
BLACK
6
CONTINUOUS
10
-17.5
20
-189.893
11
-17.2857
21
-189.964
0
LINE
8
BLACK
6
CONTINUOUS
10
-17.2857
20
-189.964
11
-17.2143
21
-190.036
0
LINE
8
BLACK
6
CONTINUOUS
10
-17.2143
20
-190.036
11
-17.1429
21
-190.179
0
LINE
8
BLACK
6
CONTINUOUS
10
-17.1429
20
-190.179
11
-17.1429
21
-190.393
0
LINE
8
BLACK
6
CONTINUOUS
10
-17.1429
20
-190.393
11
-17.2143
21
-190.536
0
LINE
8
BLACK
6
CONTINUOUS
10
-17.2143
20
-190.536
11
-17.2857
21
-190.607
0
LINE
8
BLACK
6
CONTINUOUS
10
-17.2857
20
-190.607
11
-17.4286
21
-190.679
0
LINE
8
BLACK
6
CONTINUOUS
10
-17.4286
20
-190.679
11
-18
21
-190.679
0
LINE
8
BLACK
6
CONTINUOUS
10
-18
20
-190.679
11
-18
21
-189.179
0
LINE
8
BLACK
6
CONTINUOUS
10
-18
20
-189.179
11
-17.5
21
-189.179
0
LINE
8
BLACK
6
CONTINUOUS
10
-17.5
20
-189.179
11
-17.3571
21
-189.25
0
LINE
8
BLACK
6
CONTINUOUS
10
-17.3571
20
-189.25
11
-17.2857
21
-189.321
0
LINE
8
BLACK
6
CONTINUOUS
10
-17.2857
20
-189.321
11
-17.2143
21
-189.464
0
LINE
8
BLACK
6
CONTINUOUS
10
-17.2143
20
-189.464
11
-17.2143
21
-189.607
0
LINE
8
BLACK
6
CONTINUOUS
10
-17.2143
20
-189.607
11
-17.2857
21
-189.75
0
LINE
8
BLACK
6
CONTINUOUS
10
-17.2857
20
-189.75
11
-17.3571
21
-189.821
0
LINE
8
BLACK
6
CONTINUOUS
10
-17.3571
20
-189.821
11
-17.5
21
-189.893
0
LINE
8
BLACK
6
CONTINUOUS
10
-17.5
20
-189.893
11
-18
21
-189.893
0
LINE
8
BLACK
6
CONTINUOUS
10
-16.2143
20
-189.179
11
-15.9286
21
-189.179
0
LINE
8
BLACK
6
CONTINUOUS
10
-15.9286
20
-189.179
11
-15.7857
21
-189.25
0
LINE
8
BLACK
6
CONTINUOUS
10
-15.7857
20
-189.25
11
-15.6429
21
-189.393
0
LINE
8
BLACK
6
CONTINUOUS
10
-15.6429
20
-189.393
11
-15.5714
21
-189.679
0
LINE
8
BLACK
6
CONTINUOUS
10
-15.5714
20
-189.679
11
-15.5714
21
-190.179
0
LINE
8
BLACK
6
CONTINUOUS
10
-15.5714
20
-190.179
11
-15.6429
21
-190.464
0
LINE
8
BLACK
6
CONTINUOUS
10
-15.6429
20
-190.464
11
-15.7857
21
-190.607
0
LINE
8
BLACK
6
CONTINUOUS
10
-15.7857
20
-190.607
11
-15.9286
21
-190.679
0
LINE
8
BLACK
6
CONTINUOUS
10
-15.9286
20
-190.679
11
-16.2143
21
-190.679
0
LINE
8
BLACK
6
CONTINUOUS
10
-16.2143
20
-190.679
11
-16.3571
21
-190.607
0
LINE
8
BLACK
6
CONTINUOUS
10
-16.3571
20
-190.607
11
-16.5
21
-190.464
0
LINE
8
BLACK
6
CONTINUOUS
10
-16.5
20
-190.464
11
-16.5714
21
-190.179
0
LINE
8
BLACK
6
CONTINUOUS
10
-16.5714
20
-190.179
11
-16.5714
21
-189.679
0
LINE
8
BLACK
6
CONTINUOUS
10
-16.5714
20
-189.679
11
-16.5
21
-189.393
0
LINE
8
BLACK
6
CONTINUOUS
10
-16.5
20
-189.393
11
-16.3571
21
-189.25
0
LINE
8
BLACK
6
CONTINUOUS
10
-16.3571
20
-189.25
11
-16.2143
21
-189.179
0
LINE
8
BLACK
6
CONTINUOUS
10
-15
20
-190.25
11
-14.2857
21
-190.25
0
LINE
8
BLACK
6
CONTINUOUS
10
-15.1429
20
-190.679
11
-14.6429
21
-189.179
0
LINE
8
BLACK
6
CONTINUOUS
10
-14.6429
20
-189.179
11
-14.1429
21
-190.679
0
LINE
8
BLACK
6
CONTINUOUS
10
-12.7857
20
-190.679
11
-13.2857
21
-189.964
0
LINE
8
BLACK
6
CONTINUOUS
10
-13.6429
20
-190.679
11
-13.6429
21
-189.179
0
LINE
8
BLACK
6
CONTINUOUS
10
-13.6429
20
-189.179
11
-13.0714
21
-189.179
0
LINE
8
BLACK
6
CONTINUOUS
10
-13.0714
20
-189.179
11
-12.9286
21
-189.25
0
LINE
8
BLACK
6
CONTINUOUS
10
-12.9286
20
-189.25
11
-12.8571
21
-189.321
0
LINE
8
BLACK
6
CONTINUOUS
10
-12.8571
20
-189.321
11
-12.7857
21
-189.464
0
LINE
8
BLACK
6
CONTINUOUS
10
-12.7857
20
-189.464
11
-12.7857
21
-189.679
0
LINE
8
BLACK
6
CONTINUOUS
10
-12.7857
20
-189.679
11
-12.8571
21
-189.821
0
LINE
8
BLACK
6
CONTINUOUS
10
-12.8571
20
-189.821
11
-12.9286
21
-189.893
0
LINE
8
BLACK
6
CONTINUOUS
10
-12.9286
20
-189.893
11
-13.0714
21
-189.964
0
LINE
8
BLACK
6
CONTINUOUS
10
-13.0714
20
-189.964
11
-13.6429
21
-189.964
0
LINE
8
BLACK
6
CONTINUOUS
10
-12.1429
20
-190.679
11
-12.1429
21
-189.179
0
LINE
8
BLACK
6
CONTINUOUS
10
-12.1429
20
-189.179
11
-11.7857
21
-189.179
0
LINE
8
BLACK
6
CONTINUOUS
10
-11.7857
20
-189.179
11
-11.5714
21
-189.25
0
LINE
8
BLACK
6
CONTINUOUS
10
-11.5714
20
-189.25
11
-11.4286
21
-189.393
0
LINE
8
BLACK
6
CONTINUOUS
10
-11.4286
20
-189.393
11
-11.3571
21
-189.536
0
LINE
8
BLACK
6
CONTINUOUS
10
-11.3571
20
-189.536
11
-11.2857
21
-189.821
0
LINE
8
BLACK
6
CONTINUOUS
10
-11.2857
20
-189.821
11
-11.2857
21
-190.036
0
LINE
8
BLACK
6
CONTINUOUS
10
-11.2857
20
-190.036
11
-11.3571
21
-190.321
0
LINE
8
BLACK
6
CONTINUOUS
10
-11.3571
20
-190.321
11
-11.4286
21
-190.464
0
LINE
8
BLACK
6
CONTINUOUS
10
-11.4286
20
-190.464
11
-11.5714
21
-190.607
0
LINE
8
BLACK
6
CONTINUOUS
10
-11.5714
20
-190.607
11
-11.7857
21
-190.679
0
LINE
8
BLACK
6
CONTINUOUS
10
-11.7857
20
-190.679
11
-12.1429
21
-190.679
0
LINE
8
BLACK
6
CONTINUOUS
10
-9.85714
20
-190.679
11
-10.7143
21
-190.679
0
LINE
8
BLACK
6
CONTINUOUS
10
-10.2857
20
-190.679
11
-10.2857
21
-189.179
0
LINE
8
BLACK
6
CONTINUOUS
10
-10.2857
20
-189.179
11
-10.4286
21
-189.393
0
LINE
8
BLACK
6
CONTINUOUS
10
-10.4286
20
-189.393
11
-10.5714
21
-189.536
0
LINE
8
BLACK
6
CONTINUOUS
10
-10.5714
20
-189.536
11
-10.7143
21
-189.607
0
LINE
8
BLACK
6
CONTINUOUS
10
-35.4286
20
9.54762
11
-35.4286
21
10.5476
0
LINE
8
BLACK
6
CONTINUOUS
10
-35.4286
20
10.5476
11
-35.0476
21
10.5476
0
LINE
8
BLACK
6
CONTINUOUS
10
-35.0476
20
10.5476
11
-34.9524
21
10.5
0
LINE
8
BLACK
6
CONTINUOUS
10
-34.9524
20
10.5
11
-34.9048
21
10.4524
0
LINE
8
BLACK
6
CONTINUOUS
10
-34.9048
20
10.4524
11
-34.8571
21
10.3571
0
LINE
8
BLACK
6
CONTINUOUS
10
-34.8571
20
10.3571
11
-34.8571
21
10.2143
0
LINE
8
BLACK
6
CONTINUOUS
10
-34.8571
20
10.2143
11
-34.9048
21
10.119
0
LINE
8
BLACK
6
CONTINUOUS
10
-34.9048
20
10.119
11
-34.9524
21
10.0714
0
LINE
8
BLACK
6
CONTINUOUS
10
-34.9524
20
10.0714
11
-35.0476
21
10.0238
0
LINE
8
BLACK
6
CONTINUOUS
10
-35.0476
20
10.0238
11
-35.4286
21
10.0238
0
LINE
8
BLACK
6
CONTINUOUS
10
-33.8571
20
9.64286
11
-33.9048
21
9.59524
0
LINE
8
BLACK
6
CONTINUOUS
10
-33.9048
20
9.59524
11
-34.0476
21
9.54762
0
LINE
8
BLACK
6
CONTINUOUS
10
-34.0476
20
9.54762
11
-34.1429
21
9.54762
0
LINE
8
BLACK
6
CONTINUOUS
10
-34.1429
20
9.54762
11
-34.2857
21
9.59524
0
LINE
8
BLACK
6
CONTINUOUS
10
-34.2857
20
9.59524
11
-34.381
21
9.69048
0
LINE
8
BLACK
6
CONTINUOUS
10
-34.381
20
9.69048
11
-34.4286
21
9.78571
0
LINE
8
BLACK
6
CONTINUOUS
10
-34.4286
20
9.78571
11
-34.4762
21
9.97619
0
LINE
8
BLACK
6
CONTINUOUS
10
-34.4762
20
9.97619
11
-34.4762
21
10.119
0
LINE
8
BLACK
6
CONTINUOUS
10
-34.4762
20
10.119
11
-34.4286
21
10.3095
0
LINE
8
BLACK
6
CONTINUOUS
10
-34.4286
20
10.3095
11
-34.381
21
10.4048
0
LINE
8
BLACK
6
CONTINUOUS
10
-34.381
20
10.4048
11
-34.2857
21
10.5
0
LINE
8
BLACK
6
CONTINUOUS
10
-34.2857
20
10.5
11
-34.1429
21
10.5476
0
LINE
8
BLACK
6
CONTINUOUS
10
-34.1429
20
10.5476
11
-34.0476
21
10.5476
0
LINE
8
BLACK
6
CONTINUOUS
10
-34.0476
20
10.5476
11
-33.9048
21
10.5
0
LINE
8
BLACK
6
CONTINUOUS
10
-33.9048
20
10.5
11
-33.8571
21
10.4524
0
LINE
8
BLACK
6
CONTINUOUS
10
-33.0952
20
10.0714
11
-32.9524
21
10.0238
0
LINE
8
BLACK
6
CONTINUOUS
10
-32.9524
20
10.0238
11
-32.9048
21
9.97619
0
LINE
8
BLACK
6
CONTINUOUS
10
-32.9048
20
9.97619
11
-32.8571
21
9.88095
0
LINE
8
BLACK
6
CONTINUOUS
10
-32.8571
20
9.88095
11
-32.8571
21
9.73809
0
LINE
8
BLACK
6
CONTINUOUS
10
-32.8571
20
9.73809
11
-32.9048
21
9.64286
0
LINE
8
BLACK
6
CONTINUOUS
10
-32.9048
20
9.64286
11
-32.9524
21
9.59524
0
LINE
8
BLACK
6
CONTINUOUS
10
-32.9524
20
9.59524
11
-33.0476
21
9.54762
0
LINE
8
BLACK
6
CONTINUOUS
10
-33.0476
20
9.54762
11
-33.4286
21
9.54762
0
LINE
8
BLACK
6
CONTINUOUS
10
-33.4286
20
9.54762
11
-33.4286
21
10.5476
0
LINE
8
BLACK
6
CONTINUOUS
10
-33.4286
20
10.5476
11
-33.0952
21
10.5476
0
LINE
8
BLACK
6
CONTINUOUS
10
-33.0952
20
10.5476
11
-33
21
10.5
0
LINE
8
BLACK
6
CONTINUOUS
10
-33
20
10.5
11
-32.9524
21
10.4524
0
LINE
8
BLACK
6
CONTINUOUS
10
-32.9524
20
10.4524
11
-32.9048
21
10.3571
0
LINE
8
BLACK
6
CONTINUOUS
10
-32.9048
20
10.3571
11
-32.9048
21
10.2619
0
LINE
8
BLACK
6
CONTINUOUS
10
-32.9048
20
10.2619
11
-32.9524
21
10.1667
0
LINE
8
BLACK
6
CONTINUOUS
10
-32.9524
20
10.1667
11
-33
21
10.119
0
LINE
8
BLACK
6
CONTINUOUS
10
-33
20
10.119
11
-33.0952
21
10.0714
0
LINE
8
BLACK
6
CONTINUOUS
10
-33.0952
20
10.0714
11
-33.4286
21
10.0714
0
LINE
8
BLACK
6
CONTINUOUS
10
-32.5238
20
10.5476
11
-31.9048
21
10.5476
0
LINE
8
BLACK
6
CONTINUOUS
10
-31.9048
20
10.5476
11
-32.2381
21
10.1667
0
LINE
8
BLACK
6
CONTINUOUS
10
-32.2381
20
10.1667
11
-32.0952
21
10.1667
0
LINE
8
BLACK
6
CONTINUOUS
10
-32.0952
20
10.1667
11
-32
21
10.119
0
LINE
8
BLACK
6
CONTINUOUS
10
-32
20
10.119
11
-31.9524
21
10.0714
0
LINE
8
BLACK
6
CONTINUOUS
10
-31.9524
20
10.0714
11
-31.9048
21
9.97619
0
LINE
8
BLACK
6
CONTINUOUS
10
-31.9048
20
9.97619
11
-31.9048
21
9.73809
0
LINE
8
BLACK
6
CONTINUOUS
10
-31.9048
20
9.73809
11
-31.9524
21
9.64286
0
LINE
8
BLACK
6
CONTINUOUS
10
-31.9524
20
9.64286
11
-32
21
9.59524
0
LINE
8
BLACK
6
CONTINUOUS
10
-32
20
9.59524
11
-32.0952
21
9.54762
0
LINE
8
BLACK
6
CONTINUOUS
10
-32.0952
20
9.54762
11
-32.381
21
9.54762
0
LINE
8
BLACK
6
CONTINUOUS
10
-32.381
20
9.54762
11
-32.4762
21
9.59524
0
LINE
8
BLACK
6
CONTINUOUS
10
-32.4762
20
9.59524
11
-32.5238
21
9.64286
0
LINE
8
BLACK
6
CONTINUOUS
10
-31.4762
20
9.54762
11
-31.4762
21
10.5476
0
LINE
8
BLACK
6
CONTINUOUS
10
-31.4762
20
10.5476
11
-31.2381
21
10.5476
0
LINE
8
BLACK
6
CONTINUOUS
10
-31.2381
20
10.5476
11
-31.0952
21
10.5
0
LINE
8
BLACK
6
CONTINUOUS
10
-31.0952
20
10.5
11
-31
21
10.4048
0
LINE
8
BLACK
6
CONTINUOUS
10
-31
20
10.4048
11
-30.9524
21
10.3095
0
LINE
8
BLACK
6
CONTINUOUS
10
-30.9524
20
10.3095
11
-30.9048
21
10.119
0
LINE
8
BLACK
6
CONTINUOUS
10
-30.9048
20
10.119
11
-30.9048
21
9.97619
0
LINE
8
BLACK
6
CONTINUOUS
10
-30.9048
20
9.97619
11
-30.9524
21
9.78571
0
LINE
8
BLACK
6
CONTINUOUS
10
-30.9524
20
9.78571
11
-31
21
9.69048
0
LINE
8
BLACK
6
CONTINUOUS
10
-31
20
9.69048
11
-31.0952
21
9.59524
0
LINE
8
BLACK
6
CONTINUOUS
10
-31.0952
20
9.59524
11
-31.2381
21
9.54762
0
LINE
8
BLACK
6
CONTINUOUS
10
-31.2381
20
9.54762
11
-31.4762
21
9.54762
0
LINE
8
BLACK
6
CONTINUOUS
10
-30.7143
20
9.45238
11
-29.9524
21
9.45238
0
LINE
8
BLACK
6
CONTINUOUS
10
-29.7619
20
9.59524
11
-29.619
21
9.54762
0
LINE
8
BLACK
6
CONTINUOUS
10
-29.619
20
9.54762
11
-29.381
21
9.54762
0
LINE
8
BLACK
6
CONTINUOUS
10
-29.381
20
9.54762
11
-29.2857
21
9.59524
0
LINE
8
BLACK
6
CONTINUOUS
10
-29.2857
20
9.59524
11
-29.2381
21
9.64286
0
LINE
8
BLACK
6
CONTINUOUS
10
-29.2381
20
9.64286
11
-29.1905
21
9.73809
0
LINE
8
BLACK
6
CONTINUOUS
10
-29.1905
20
9.73809
11
-29.1905
21
9.83333
0
LINE
8
BLACK
6
CONTINUOUS
10
-29.1905
20
9.83333
11
-29.2381
21
9.92857
0
LINE
8
BLACK
6
CONTINUOUS
10
-29.2381
20
9.92857
11
-29.2857
21
9.97619
0
LINE
8
BLACK
6
CONTINUOUS
10
-29.2857
20
9.97619
11
-29.381
21
10.0238
0
LINE
8
BLACK
6
CONTINUOUS
10
-29.381
20
10.0238
11
-29.5714
21
10.0714
0
LINE
8
BLACK
6
CONTINUOUS
10
-29.5714
20
10.0714
11
-29.6667
21
10.119
0
LINE
8
BLACK
6
CONTINUOUS
10
-29.6667
20
10.119
11
-29.7143
21
10.1667
0
LINE
8
BLACK
6
CONTINUOUS
10
-29.7143
20
10.1667
11
-29.7619
21
10.2619
0
LINE
8
BLACK
6
CONTINUOUS
10
-29.7619
20
10.2619
11
-29.7619
21
10.3571
0
LINE
8
BLACK
6
CONTINUOUS
10
-29.7619
20
10.3571
11
-29.7143
21
10.4524
0
LINE
8
BLACK
6
CONTINUOUS
10
-29.7143
20
10.4524
11
-29.6667
21
10.5
0
LINE
8
BLACK
6
CONTINUOUS
10
-29.6667
20
10.5
11
-29.5714
21
10.5476
0
LINE
8
BLACK
6
CONTINUOUS
10
-29.5714
20
10.5476
11
-29.3333
21
10.5476
0
LINE
8
BLACK
6
CONTINUOUS
10
-29.3333
20
10.5476
11
-29.1905
21
10.5
0
LINE
8
BLACK
6
CONTINUOUS
10
-28.9048
20
10.5476
11
-28.3333
21
10.5476
0
LINE
8
BLACK
6
CONTINUOUS
10
-28.619
20
9.54762
11
-28.619
21
10.5476
0
LINE
8
BLACK
6
CONTINUOUS
10
-28.0476
20
9.83333
11
-27.5714
21
9.83333
0
LINE
8
BLACK
6
CONTINUOUS
10
-28.1429
20
9.54762
11
-27.8095
21
10.5476
0
LINE
8
BLACK
6
CONTINUOUS
10
-27.8095
20
10.5476
11
-27.4762
21
9.54762
0
LINE
8
BLACK
6
CONTINUOUS
10
-26.5714
20
9.64286
11
-26.619
21
9.59524
0
LINE
8
BLACK
6
CONTINUOUS
10
-26.619
20
9.59524
11
-26.7619
21
9.54762
0
LINE
8
BLACK
6
CONTINUOUS
10
-26.7619
20
9.54762
11
-26.8571
21
9.54762
0
LINE
8
BLACK
6
CONTINUOUS
10
-26.8571
20
9.54762
11
-27
21
9.59524
0
LINE
8
BLACK
6
CONTINUOUS
10
-27
20
9.59524
11
-27.0952
21
9.69048
0
LINE
8
BLACK
6
CONTINUOUS
10
-27.0952
20
9.69048
11
-27.1429
21
9.78571
0
LINE
8
BLACK
6
CONTINUOUS
10
-27.1429
20
9.78571
11
-27.1905
21
9.97619
0
LINE
8
BLACK
6
CONTINUOUS
10
-27.1905
20
9.97619
11
-27.1905
21
10.119
0
LINE
8
BLACK
6
CONTINUOUS
10
-27.1905
20
10.119
11
-27.1429
21
10.3095
0
LINE
8
BLACK
6
CONTINUOUS
10
-27.1429
20
10.3095
11
-27.0952
21
10.4048
0
LINE
8
BLACK
6
CONTINUOUS
10
-27.0952
20
10.4048
11
-27
21
10.5
0
LINE
8
BLACK
6
CONTINUOUS
10
-27
20
10.5
11
-26.8571
21
10.5476
0
LINE
8
BLACK
6
CONTINUOUS
10
-26.8571
20
10.5476
11
-26.7619
21
10.5476
0
LINE
8
BLACK
6
CONTINUOUS
10
-26.7619
20
10.5476
11
-26.619
21
10.5
0
LINE
8
BLACK
6
CONTINUOUS
10
-26.619
20
10.5
11
-26.5714
21
10.4524
0
LINE
8
BLACK
6
CONTINUOUS
10
-26.1429
20
9.54762
11
-26.1429
21
10.5476
0
LINE
8
BLACK
6
CONTINUOUS
10
-25.5714
20
9.54762
11
-26
21
10.119
0
LINE
8
BLACK
6
CONTINUOUS
10
-25.5714
20
10.5476
11
-26.1429
21
9.97619
0
LINE
8
BLACK
6
CONTINUOUS
10
-25.381
20
9.45238
11
-24.619
21
9.45238
0
LINE
8
BLACK
6
CONTINUOUS
10
-24.0476
20
10.0714
11
-23.9048
21
10.0238
0
LINE
8
BLACK
6
CONTINUOUS
10
-23.9048
20
10.0238
11
-23.8571
21
9.97619
0
LINE
8
BLACK
6
CONTINUOUS
10
-23.8571
20
9.97619
11
-23.8095
21
9.88095
0
LINE
8
BLACK
6
CONTINUOUS
10
-23.8095
20
9.88095
11
-23.8095
21
9.73809
0
LINE
8
BLACK
6
CONTINUOUS
10
-23.8095
20
9.73809
11
-23.8571
21
9.64286
0
LINE
8
BLACK
6
CONTINUOUS
10
-23.8571
20
9.64286
11
-23.9048
21
9.59524
0
LINE
8
BLACK
6
CONTINUOUS
10
-23.9048
20
9.59524
11
-24
21
9.54762
0
LINE
8
BLACK
6
CONTINUOUS
10
-24
20
9.54762
11
-24.381
21
9.54762
0
LINE
8
BLACK
6
CONTINUOUS
10
-24.381
20
9.54762
11
-24.381
21
10.5476
0
LINE
8
BLACK
6
CONTINUOUS
10
-24.381
20
10.5476
11
-24.0476
21
10.5476
0
LINE
8
BLACK
6
CONTINUOUS
10
-24.0476
20
10.5476
11
-23.9524
21
10.5
0
LINE
8
BLACK
6
CONTINUOUS
10
-23.9524
20
10.5
11
-23.9048
21
10.4524
0
LINE
8
BLACK
6
CONTINUOUS
10
-23.9048
20
10.4524
11
-23.8571
21
10.3571
0
LINE
8
BLACK
6
CONTINUOUS
10
-23.8571
20
10.3571
11
-23.8571
21
10.2619
0
LINE
8
BLACK
6
CONTINUOUS
10
-23.8571
20
10.2619
11
-23.9048
21
10.1667
0
LINE
8
BLACK
6
CONTINUOUS
10
-23.9048
20
10.1667
11
-23.9524
21
10.119
0
LINE
8
BLACK
6
CONTINUOUS
10
-23.9524
20
10.119
11
-24.0476
21
10.0714
0
LINE
8
BLACK
6
CONTINUOUS
10
-24.0476
20
10.0714
11
-24.381
21
10.0714
0
LINE
8
BLACK
6
CONTINUOUS
10
-23.1905
20
10.5476
11
-23
21
10.5476
0
LINE
8
BLACK
6
CONTINUOUS
10
-23
20
10.5476
11
-22.9048
21
10.5
0
LINE
8
BLACK
6
CONTINUOUS
10
-22.9048
20
10.5
11
-22.8095
21
10.4048
0
LINE
8
BLACK
6
CONTINUOUS
10
-22.8095
20
10.4048
11
-22.7619
21
10.2143
0
LINE
8
BLACK
6
CONTINUOUS
10
-22.7619
20
10.2143
11
-22.7619
21
9.88095
0
LINE
8
BLACK
6
CONTINUOUS
10
-22.7619
20
9.88095
11
-22.8095
21
9.69048
0
LINE
8
BLACK
6
CONTINUOUS
10
-22.8095
20
9.69048
11
-22.9048
21
9.59524
0
LINE
8
BLACK
6
CONTINUOUS
10
-22.9048
20
9.59524
11
-23
21
9.54762
0
LINE
8
BLACK
6
CONTINUOUS
10
-23
20
9.54762
11
-23.1905
21
9.54762
0
LINE
8
BLACK
6
CONTINUOUS
10
-23.1905
20
9.54762
11
-23.2857
21
9.59524
0
LINE
8
BLACK
6
CONTINUOUS
10
-23.2857
20
9.59524
11
-23.381
21
9.69048
0
LINE
8
BLACK
6
CONTINUOUS
10
-23.381
20
9.69048
11
-23.4286
21
9.88095
0
LINE
8
BLACK
6
CONTINUOUS
10
-23.4286
20
9.88095
11
-23.4286
21
10.2143
0
LINE
8
BLACK
6
CONTINUOUS
10
-23.4286
20
10.2143
11
-23.381
21
10.4048
0
LINE
8
BLACK
6
CONTINUOUS
10
-23.381
20
10.4048
11
-23.2857
21
10.5
0
LINE
8
BLACK
6
CONTINUOUS
10
-23.2857
20
10.5
11
-23.1905
21
10.5476
0
LINE
8
BLACK
6
CONTINUOUS
10
-22.381
20
9.83333
11
-21.9048
21
9.83333
0
LINE
8
BLACK
6
CONTINUOUS
10
-22.4762
20
9.54762
11
-22.1429
21
10.5476
0
LINE
8
BLACK
6
CONTINUOUS
10
-22.1429
20
10.5476
11
-21.8095
21
9.54762
0
LINE
8
BLACK
6
CONTINUOUS
10
-20.9048
20
9.54762
11
-21.2381
21
10.0238
0
LINE
8
BLACK
6
CONTINUOUS
10
-21.4762
20
9.54762
11
-21.4762
21
10.5476
0
LINE
8
BLACK
6
CONTINUOUS
10
-21.4762
20
10.5476
11
-21.0952
21
10.5476
0
LINE
8
BLACK
6
CONTINUOUS
10
-21.0952
20
10.5476
11
-21
21
10.5
0
LINE
8
BLACK
6
CONTINUOUS
10
-21
20
10.5
11
-20.9524
21
10.4524
0
LINE
8
BLACK
6
CONTINUOUS
10
-20.9524
20
10.4524
11
-20.9048
21
10.3571
0
LINE
8
BLACK
6
CONTINUOUS
10
-20.9048
20
10.3571
11
-20.9048
21
10.2143
0
LINE
8
BLACK
6
CONTINUOUS
10
-20.9048
20
10.2143
11
-20.9524
21
10.119
0
LINE
8
BLACK
6
CONTINUOUS
10
-20.9524
20
10.119
11
-21
21
10.0714
0
LINE
8
BLACK
6
CONTINUOUS
10
-21
20
10.0714
11
-21.0952
21
10.0238
0
LINE
8
BLACK
6
CONTINUOUS
10
-21.0952
20
10.0238
11
-21.4762
21
10.0238
0
LINE
8
BLACK
6
CONTINUOUS
10
-20.4762
20
9.54762
11
-20.4762
21
10.5476
0
LINE
8
BLACK
6
CONTINUOUS
10
-20.4762
20
10.5476
11
-20.2381
21
10.5476
0
LINE
8
BLACK
6
CONTINUOUS
10
-20.2381
20
10.5476
11
-20.0952
21
10.5
0
LINE
8
BLACK
6
CONTINUOUS
10
-20.0952
20
10.5
11
-20
21
10.4048
0
LINE
8
BLACK
6
CONTINUOUS
10
-20
20
10.4048
11
-19.9524
21
10.3095
0
LINE
8
BLACK
6
CONTINUOUS
10
-19.9524
20
10.3095
11
-19.9048
21
10.119
0
LINE
8
BLACK
6
CONTINUOUS
10
-19.9048
20
10.119
11
-19.9048
21
9.97619
0
LINE
8
BLACK
6
CONTINUOUS
10
-19.9048
20
9.97619
11
-19.9524
21
9.78571
0
LINE
8
BLACK
6
CONTINUOUS
10
-19.9524
20
9.78571
11
-20
21
9.69048
0
LINE
8
BLACK
6
CONTINUOUS
10
-20
20
9.69048
11
-20.0952
21
9.59524
0
LINE
8
BLACK
6
CONTINUOUS
10
-20.0952
20
9.59524
11
-20.2381
21
9.54762
0
LINE
8
BLACK
6
CONTINUOUS
10
-20.2381
20
9.54762
11
-20.4762
21
9.54762
0
LINE
8
BLACK
6
CONTINUOUS
10
-18.9524
20
9.54762
11
-19.5238
21
9.54762
0
LINE
8
BLACK
6
CONTINUOUS
10
-19.2381
20
9.54762
11
-19.2381
21
10.5476
0
LINE
8
BLACK
6
CONTINUOUS
10
-19.2381
20
10.5476
11
-19.3333
21
10.4048
0
LINE
8
BLACK
6
CONTINUOUS
10
-19.3333
20
10.4048
11
-19.4286
21
10.3095
0
LINE
8
BLACK
6
CONTINUOUS
10
-19.4286
20
10.3095
11
-19.5238
21
10.2619
0
LINE
8
BLACK
6
CONTINUOUS
10
-18.7619
20
9.45238
11
-18
21
9.45238
0
LINE
8
BLACK
6
CONTINUOUS
10
-17.5714
20
10.5476
11
-17.381
21
10.5476
0
LINE
8
BLACK
6
CONTINUOUS
10
-17.381
20
10.5476
11
-17.2857
21
10.5
0
LINE
8
BLACK
6
CONTINUOUS
10
-17.2857
20
10.5
11
-17.1905
21
10.4048
0
LINE
8
BLACK
6
CONTINUOUS
10
-17.1905
20
10.4048
11
-17.1429
21
10.2143
0
LINE
8
BLACK
6
CONTINUOUS
10
-17.1429
20
10.2143
11
-17.1429
21
9.88095
0
LINE
8
BLACK
6
CONTINUOUS
10
-17.1429
20
9.88095
11
-17.1905
21
9.69048
0
LINE
8
BLACK
6
CONTINUOUS
10
-17.1905
20
9.69048
11
-17.2857
21
9.59524
0
LINE
8
BLACK
6
CONTINUOUS
10
-17.2857
20
9.59524
11
-17.381
21
9.54762
0
LINE
8
BLACK
6
CONTINUOUS
10
-17.381
20
9.54762
11
-17.5714
21
9.54762
0
LINE
8
BLACK
6
CONTINUOUS
10
-17.5714
20
9.54762
11
-17.6667
21
9.59524
0
LINE
8
BLACK
6
CONTINUOUS
10
-17.6667
20
9.59524
11
-17.7619
21
9.69048
0
LINE
8
BLACK
6
CONTINUOUS
10
-17.7619
20
9.69048
11
-17.8095
21
9.88095
0
LINE
8
BLACK
6
CONTINUOUS
10
-17.8095
20
9.88095
11
-17.8095
21
10.2143
0
LINE
8
BLACK
6
CONTINUOUS
10
-17.8095
20
10.2143
11
-17.7619
21
10.4048
0
LINE
8
BLACK
6
CONTINUOUS
10
-17.7619
20
10.4048
11
-17.6667
21
10.5
0
LINE
8
BLACK
6
CONTINUOUS
10
-17.6667
20
10.5
11
-17.5714
21
10.5476
0
LINE
8
BLACK
6
CONTINUOUS
10
-16.7143
20
9.54762
11
-16.7143
21
10.5476
0
LINE
8
BLACK
6
CONTINUOUS
10
-16.7143
20
10.5476
11
-16.1429
21
9.54762
0
LINE
8
BLACK
6
CONTINUOUS
10
-16.1429
20
9.54762
11
-16.1429
21
10.5476
0
LINE
8
BLACK
6
CONTINUOUS
10
-15.8095
20
10.5476
11
-15.2381
21
10.5476
0
LINE
8
BLACK
6
CONTINUOUS
10
-15.5238
20
9.54762
11
-15.5238
21
10.5476
0
LINE
8
BLACK
6
CONTINUOUS
10
-14.7143
20
10.5476
11
-14.5238
21
10.5476
0
LINE
8
BLACK
6
CONTINUOUS
10
-14.5238
20
10.5476
11
-14.4286
21
10.5
0
LINE
8
BLACK
6
CONTINUOUS
10
-14.4286
20
10.5
11
-14.3333
21
10.4048
0
LINE
8
BLACK
6
CONTINUOUS
10
-14.3333
20
10.4048
11
-14.2857
21
10.2143
0
LINE
8
BLACK
6
CONTINUOUS
10
-14.2857
20
10.2143
11
-14.2857
21
9.88095
0
LINE
8
BLACK
6
CONTINUOUS
10
-14.2857
20
9.88095
11
-14.3333
21
9.69048
0
LINE
8
BLACK
6
CONTINUOUS
10
-14.3333
20
9.69048
11
-14.4286
21
9.59524
0
LINE
8
BLACK
6
CONTINUOUS
10
-14.4286
20
9.59524
11
-14.5238
21
9.54762
0
LINE
8
BLACK
6
CONTINUOUS
10
-14.5238
20
9.54762
11
-14.7143
21
9.54762
0
LINE
8
BLACK
6
CONTINUOUS
10
-14.7143
20
9.54762
11
-14.8095
21
9.59524
0
LINE
8
BLACK
6
CONTINUOUS
10
-14.8095
20
9.59524
11
-14.9048
21
9.69048
0
LINE
8
BLACK
6
CONTINUOUS
10
-14.9048
20
9.69048
11
-14.9524
21
9.88095
0
LINE
8
BLACK
6
CONTINUOUS
10
-14.9524
20
9.88095
11
-14.9524
21
10.2143
0
LINE
8
BLACK
6
CONTINUOUS
10
-14.9524
20
10.2143
11
-14.9048
21
10.4048
0
LINE
8
BLACK
6
CONTINUOUS
10
-14.9048
20
10.4048
11
-14.8095
21
10.5
0
LINE
8
BLACK
6
CONTINUOUS
10
-14.8095
20
10.5
11
-14.7143
21
10.5476
0
LINE
8
BLACK
6
CONTINUOUS
10
-14.0952
20
9.45238
11
-13.3333
21
9.45238
0
LINE
8
BLACK
6
CONTINUOUS
10
-12.7619
20
10.0714
11
-12.619
21
10.0238
0
LINE
8
BLACK
6
CONTINUOUS
10
-12.619
20
10.0238
11
-12.5714
21
9.97619
0
LINE
8
BLACK
6
CONTINUOUS
10
-12.5714
20
9.97619
11
-12.5238
21
9.88095
0
LINE
8
BLACK
6
CONTINUOUS
10
-12.5238
20
9.88095
11
-12.5238
21
9.73809
0
LINE
8
BLACK
6
CONTINUOUS
10
-12.5238
20
9.73809
11
-12.5714
21
9.64286
0
LINE
8
BLACK
6
CONTINUOUS
10
-12.5714
20
9.64286
11
-12.619
21
9.59524
0
LINE
8
BLACK
6
CONTINUOUS
10
-12.619
20
9.59524
11
-12.7143
21
9.54762
0
LINE
8
BLACK
6
CONTINUOUS
10
-12.7143
20
9.54762
11
-13.0952
21
9.54762
0
LINE
8
BLACK
6
CONTINUOUS
10
-13.0952
20
9.54762
11
-13.0952
21
10.5476
0
LINE
8
BLACK
6
CONTINUOUS
10
-13.0952
20
10.5476
11
-12.7619
21
10.5476
0
LINE
8
BLACK
6
CONTINUOUS
10
-12.7619
20
10.5476
11
-12.6667
21
10.5
0
LINE
8
BLACK
6
CONTINUOUS
10
-12.6667
20
10.5
11
-12.619
21
10.4524
0
LINE
8
BLACK
6
CONTINUOUS
10
-12.619
20
10.4524
11
-12.5714
21
10.3571
0
LINE
8
BLACK
6
CONTINUOUS
10
-12.5714
20
10.3571
11
-12.5714
21
10.2619
0
LINE
8
BLACK
6
CONTINUOUS
10
-12.5714
20
10.2619
11
-12.619
21
10.1667
0
LINE
8
BLACK
6
CONTINUOUS
10
-12.619
20
10.1667
11
-12.6667
21
10.119
0
LINE
8
BLACK
6
CONTINUOUS
10
-12.6667
20
10.119
11
-12.7619
21
10.0714
0
LINE
8
BLACK
6
CONTINUOUS
10
-12.7619
20
10.0714
11
-13.0952
21
10.0714
0
LINE
8
BLACK
6
CONTINUOUS
10
-11.9048
20
10.5476
11
-11.7143
21
10.5476
0
LINE
8
BLACK
6
CONTINUOUS
10
-11.7143
20
10.5476
11
-11.619
21
10.5
0
LINE
8
BLACK
6
CONTINUOUS
10
-11.619
20
10.5
11
-11.5238
21
10.4048
0
LINE
8
BLACK
6
CONTINUOUS
10
-11.5238
20
10.4048
11
-11.4762
21
10.2143
0
LINE
8
BLACK
6
CONTINUOUS
10
-11.4762
20
10.2143
11
-11.4762
21
9.88095
0
LINE
8
BLACK
6
CONTINUOUS
10
-11.4762
20
9.88095
11
-11.5238
21
9.69048
0
LINE
8
BLACK
6
CONTINUOUS
10
-11.5238
20
9.69048
11
-11.619
21
9.59524
0
LINE
8
BLACK
6
CONTINUOUS
10
-11.619
20
9.59524
11
-11.7143
21
9.54762
0
LINE
8
BLACK
6
CONTINUOUS
10
-11.7143
20
9.54762
11
-11.9048
21
9.54762
0
LINE
8
BLACK
6
CONTINUOUS
10
-11.9048
20
9.54762
11
-12
21
9.59524
0
LINE
8
BLACK
6
CONTINUOUS
10
-12
20
9.59524
11
-12.0952
21
9.69048
0
LINE
8
BLACK
6
CONTINUOUS
10
-12.0952
20
9.69048
11
-12.1429
21
9.88095
0
LINE
8
BLACK
6
CONTINUOUS
10
-12.1429
20
9.88095
11
-12.1429
21
10.2143
0
LINE
8
BLACK
6
CONTINUOUS
10
-12.1429
20
10.2143
11
-12.0952
21
10.4048
0
LINE
8
BLACK
6
CONTINUOUS
10
-12.0952
20
10.4048
11
-12
21
10.5
0
LINE
8
BLACK
6
CONTINUOUS
10
-12
20
10.5
11
-11.9048
21
10.5476
0
LINE
8
BLACK
6
CONTINUOUS
10
-11.0952
20
9.83333
11
-10.619
21
9.83333
0
LINE
8
BLACK
6
CONTINUOUS
10
-11.1905
20
9.54762
11
-10.8571
21
10.5476
0
LINE
8
BLACK
6
CONTINUOUS
10
-10.8571
20
10.5476
11
-10.5238
21
9.54762
0
LINE
8
BLACK
6
CONTINUOUS
10
-9.61905
20
9.54762
11
-9.95238
21
10.0238
0
LINE
8
BLACK
6
CONTINUOUS
10
-10.1905
20
9.54762
11
-10.1905
21
10.5476
0
LINE
8
BLACK
6
CONTINUOUS
10
-10.1905
20
10.5476
11
-9.80952
21
10.5476
0
LINE
8
BLACK
6
CONTINUOUS
10
-9.80952
20
10.5476
11
-9.71429
21
10.5
0
LINE
8
BLACK
6
CONTINUOUS
10
-9.71429
20
10.5
11
-9.66667
21
10.4524
0
LINE
8
BLACK
6
CONTINUOUS
10
-9.66667
20
10.4524
11
-9.61905
21
10.3571
0
LINE
8
BLACK
6
CONTINUOUS
10
-9.61905
20
10.3571
11
-9.61905
21
10.2143
0
LINE
8
BLACK
6
CONTINUOUS
10
-9.61905
20
10.2143
11
-9.66667
21
10.119
0
LINE
8
BLACK
6
CONTINUOUS
10
-9.66667
20
10.119
11
-9.71429
21
10.0714
0
LINE
8
BLACK
6
CONTINUOUS
10
-9.71429
20
10.0714
11
-9.80952
21
10.0238
0
LINE
8
BLACK
6
CONTINUOUS
10
-9.80952
20
10.0238
11
-10.1905
21
10.0238
0
LINE
8
BLACK
6
CONTINUOUS
10
-9.19048
20
9.54762
11
-9.19048
21
10.5476
0
LINE
8
BLACK
6
CONTINUOUS
10
-9.19048
20
10.5476
11
-8.95238
21
10.5476
0
LINE
8
BLACK
6
CONTINUOUS
10
-8.95238
20
10.5476
11
-8.80952
21
10.5
0
LINE
8
BLACK
6
CONTINUOUS
10
-8.80952
20
10.5
11
-8.71429
21
10.4048
0
LINE
8
BLACK
6
CONTINUOUS
10
-8.71429
20
10.4048
11
-8.66667
21
10.3095
0
LINE
8
BLACK
6
CONTINUOUS
10
-8.66667
20
10.3095
11
-8.61905
21
10.119
0
LINE
8
BLACK
6
CONTINUOUS
10
-8.61905
20
10.119
11
-8.61905
21
9.97619
0
LINE
8
BLACK
6
CONTINUOUS
10
-8.61905
20
9.97619
11
-8.66667
21
9.78571
0
LINE
8
BLACK
6
CONTINUOUS
10
-8.66667
20
9.78571
11
-8.71429
21
9.69048
0
LINE
8
BLACK
6
CONTINUOUS
10
-8.71429
20
9.69048
11
-8.80952
21
9.59524
0
LINE
8
BLACK
6
CONTINUOUS
10
-8.80952
20
9.59524
11
-8.95238
21
9.54762
0
LINE
8
BLACK
6
CONTINUOUS
10
-8.95238
20
9.54762
11
-9.19048
21
9.54762
0
LINE
8
BLACK
6
CONTINUOUS
10
-8
20
10.5476
11
-7.90476
21
10.5476
0
LINE
8
BLACK
6
CONTINUOUS
10
-7.90476
20
10.5476
11
-7.80952
21
10.5
0
LINE
8
BLACK
6
CONTINUOUS
10
-7.80952
20
10.5
11
-7.7619
21
10.4524
0
LINE
8
BLACK
6
CONTINUOUS
10
-7.7619
20
10.4524
11
-7.71428
21
10.3571
0
LINE
8
BLACK
6
CONTINUOUS
10
-7.71428
20
10.3571
11
-7.66667
21
10.1667
0
LINE
8
BLACK
6
CONTINUOUS
10
-7.66667
20
10.1667
11
-7.66667
21
9.92857
0
LINE
8
BLACK
6
CONTINUOUS
10
-7.66667
20
9.92857
11
-7.71428
21
9.73809
0
LINE
8
BLACK
6
CONTINUOUS
10
-7.71428
20
9.73809
11
-7.7619
21
9.64286
0
LINE
8
BLACK
6
CONTINUOUS
10
-7.7619
20
9.64286
11
-7.80952
21
9.59524
0
LINE
8
BLACK
6
CONTINUOUS
10
-7.80952
20
9.59524
11
-7.90476
21
9.54762
0
LINE
8
BLACK
6
CONTINUOUS
10
-7.90476
20
9.54762
11
-8
21
9.54762
0
LINE
8
BLACK
6
CONTINUOUS
10
-8
20
9.54762
11
-8.09524
21
9.59524
0
LINE
8
BLACK
6
CONTINUOUS
10
-8.09524
20
9.59524
11
-8.14286
21
9.64286
0
LINE
8
BLACK
6
CONTINUOUS
10
-8.14286
20
9.64286
11
-8.19048
21
9.73809
0
LINE
8
BLACK
6
CONTINUOUS
10
-8.19048
20
9.73809
11
-8.23809
21
9.92857
0
LINE
8
BLACK
6
CONTINUOUS
10
-8.23809
20
9.92857
11
-8.23809
21
10.1667
0
LINE
8
BLACK
6
CONTINUOUS
10
-8.23809
20
10.1667
11
-8.19048
21
10.3571
0
LINE
8
BLACK
6
CONTINUOUS
10
-8.19048
20
10.3571
11
-8.14286
21
10.4524
0
LINE
8
BLACK
6
CONTINUOUS
10
-8.14286
20
10.4524
11
-8.09524
21
10.5
0
LINE
8
BLACK
6
CONTINUOUS
10
-8.09524
20
10.5
11
-8
21
10.5476
0
LINE
8
BLACK
6
CONTINUOUS
10
-7.47619
20
9.45238
11
-6.71428
21
9.45238
0
LINE
8
BLACK
6
CONTINUOUS
10
-6.57143
20
10.5476
11
-5.95238
21
10.5476
0
LINE
8
BLACK
6
CONTINUOUS
10
-5.95238
20
10.5476
11
-6.28571
21
10.1667
0
LINE
8
BLACK
6
CONTINUOUS
10
-6.28571
20
10.1667
11
-6.14286
21
10.1667
0
LINE
8
BLACK
6
CONTINUOUS
10
-6.14286
20
10.1667
11
-6.04762
21
10.119
0
LINE
8
BLACK
6
CONTINUOUS
10
-6.04762
20
10.119
11
-6
21
10.0714
0
LINE
8
BLACK
6
CONTINUOUS
10
-6
20
10.0714
11
-5.95238
21
9.97619
0
LINE
8
BLACK
6
CONTINUOUS
10
-5.95238
20
9.97619
11
-5.95238
21
9.73809
0
LINE
8
BLACK
6
CONTINUOUS
10
-5.95238
20
9.73809
11
-6
21
9.64286
0
LINE
8
BLACK
6
CONTINUOUS
10
-6
20
9.64286
11
-6.04762
21
9.59524
0
LINE
8
BLACK
6
CONTINUOUS
10
-6.04762
20
9.59524
11
-6.14286
21
9.54762
0
LINE
8
BLACK
6
CONTINUOUS
10
-6.14286
20
9.54762
11
-6.42857
21
9.54762
0
LINE
8
BLACK
6
CONTINUOUS
10
-6.42857
20
9.54762
11
-6.52381
21
9.59524
0
LINE
8
BLACK
6
CONTINUOUS
10
-6.52381
20
9.59524
11
-6.57143
21
9.64286
0
LINE
8
BLACK
6
CONTINUOUS
10
-5.52381
20
9.64286
11
-5.47619
21
9.59524
0
LINE
8
BLACK
6
CONTINUOUS
10
-5.47619
20
9.59524
11
-5.52381
21
9.54762
0
LINE
8
BLACK
6
CONTINUOUS
10
-5.52381
20
9.54762
11
-5.57143
21
9.59524
0
LINE
8
BLACK
6
CONTINUOUS
10
-5.57143
20
9.59524
11
-5.52381
21
9.64286
0
LINE
8
BLACK
6
CONTINUOUS
10
-5.52381
20
9.64286
11
-5.52381
21
9.54762
0
LINE
8
BLACK
6
CONTINUOUS
10
-4.61905
20
10.2143
11
-4.61905
21
9.54762
0
LINE
8
BLACK
6
CONTINUOUS
10
-4.85714
20
10.5952
11
-5.09524
21
9.88095
0
LINE
8
BLACK
6
CONTINUOUS
10
-5.09524
20
9.88095
11
-4.47619
21
9.88095
0
LINE
8
BLACK
6
CONTINUOUS
10
35.119
20
-207.452
11
35.119
21
-206.452
0
LINE
8
BLACK
6
CONTINUOUS
10
35.6905
20
-207.452
11
35.2619
21
-206.881
0
LINE
8
BLACK
6
CONTINUOUS
10
35.6905
20
-206.452
11
35.119
21
-207.024
0
LINE
8
BLACK
6
CONTINUOUS
10
36.5
20
-207.405
11
36.4048
21
-207.452
0
LINE
8
BLACK
6
CONTINUOUS
10
36.4048
20
-207.452
11
36.2143
21
-207.452
0
LINE
8
BLACK
6
CONTINUOUS
10
36.2143
20
-207.452
11
36.119
21
-207.405
0
LINE
8
BLACK
6
CONTINUOUS
10
36.119
20
-207.405
11
36.0714
21
-207.31
0
LINE
8
BLACK
6
CONTINUOUS
10
36.0714
20
-207.31
11
36.0714
21
-206.929
0
LINE
8
BLACK
6
CONTINUOUS
10
36.0714
20
-206.929
11
36.119
21
-206.833
0
LINE
8
BLACK
6
CONTINUOUS
10
36.119
20
-206.833
11
36.2143
21
-206.786
0
LINE
8
BLACK
6
CONTINUOUS
10
36.2143
20
-206.786
11
36.4048
21
-206.786
0
LINE
8
BLACK
6
CONTINUOUS
10
36.4048
20
-206.786
11
36.5
21
-206.833
0
LINE
8
BLACK
6
CONTINUOUS
10
36.5
20
-206.833
11
36.5476
21
-206.929
0
LINE
8
BLACK
6
CONTINUOUS
10
36.5476
20
-206.929
11
36.5476
21
-207.024
0
LINE
8
BLACK
6
CONTINUOUS
10
36.5476
20
-207.024
11
36.0714
21
-207.119
0
LINE
8
BLACK
6
CONTINUOUS
10
37.3571
20
-207.405
11
37.2619
21
-207.452
0
LINE
8
BLACK
6
CONTINUOUS
10
37.2619
20
-207.452
11
37.0714
21
-207.452
0
LINE
8
BLACK
6
CONTINUOUS
10
37.0714
20
-207.452
11
36.9762
21
-207.405
0
LINE
8
BLACK
6
CONTINUOUS
10
36.9762
20
-207.405
11
36.9286
21
-207.31
0
LINE
8
BLACK
6
CONTINUOUS
10
36.9286
20
-207.31
11
36.9286
21
-206.929
0
LINE
8
BLACK
6
CONTINUOUS
10
36.9286
20
-206.929
11
36.9762
21
-206.833
0
LINE
8
BLACK
6
CONTINUOUS
10
36.9762
20
-206.833
11
37.0714
21
-206.786
0
LINE
8
BLACK
6
CONTINUOUS
10
37.0714
20
-206.786
11
37.2619
21
-206.786
0
LINE
8
BLACK
6
CONTINUOUS
10
37.2619
20
-206.786
11
37.3571
21
-206.833
0
LINE
8
BLACK
6
CONTINUOUS
10
37.3571
20
-206.833
11
37.4048
21
-206.929
0
LINE
8
BLACK
6
CONTINUOUS
10
37.4048
20
-206.929
11
37.4048
21
-207.024
0
LINE
8
BLACK
6
CONTINUOUS
10
37.4048
20
-207.024
11
36.9286
21
-207.119
0
LINE
8
BLACK
6
CONTINUOUS
10
37.8333
20
-206.786
11
37.8333
21
-207.786
0
LINE
8
BLACK
6
CONTINUOUS
10
37.8333
20
-206.833
11
37.9286
21
-206.786
0
LINE
8
BLACK
6
CONTINUOUS
10
37.9286
20
-206.786
11
38.119
21
-206.786
0
LINE
8
BLACK
6
CONTINUOUS
10
38.119
20
-206.786
11
38.2143
21
-206.833
0
LINE
8
BLACK
6
CONTINUOUS
10
38.2143
20
-206.833
11
38.2619
21
-206.881
0
LINE
8
BLACK
6
CONTINUOUS
10
38.2619
20
-206.881
11
38.3095
21
-206.976
0
LINE
8
BLACK
6
CONTINUOUS
10
38.3095
20
-206.976
11
38.3095
21
-207.262
0
LINE
8
BLACK
6
CONTINUOUS
10
38.3095
20
-207.262
11
38.2619
21
-207.357
0
LINE
8
BLACK
6
CONTINUOUS
10
38.2619
20
-207.357
11
38.2143
21
-207.405
0
LINE
8
BLACK
6
CONTINUOUS
10
38.2143
20
-207.405
11
38.119
21
-207.452
0
LINE
8
BLACK
6
CONTINUOUS
10
38.119
20
-207.452
11
37.9286
21
-207.452
0
LINE
8
BLACK
6
CONTINUOUS
10
37.9286
20
-207.452
11
37.8333
21
-207.405
0
LINE
8
BLACK
6
CONTINUOUS
10
38.881
20
-207.452
11
38.7857
21
-207.405
0
LINE
8
BLACK
6
CONTINUOUS
10
38.7857
20
-207.405
11
38.7381
21
-207.357
0
LINE
8
BLACK
6
CONTINUOUS
10
38.7381
20
-207.357
11
38.6905
21
-207.262
0
LINE
8
BLACK
6
CONTINUOUS
10
38.6905
20
-207.262
11
38.6905
21
-206.976
0
LINE
8
BLACK
6
CONTINUOUS
10
38.6905
20
-206.976
11
38.7381
21
-206.881
0
LINE
8
BLACK
6
CONTINUOUS
10
38.7381
20
-206.881
11
38.7857
21
-206.833
0
LINE
8
BLACK
6
CONTINUOUS
10
38.7857
20
-206.833
11
38.881
21
-206.786
0
LINE
8
BLACK
6
CONTINUOUS
10
38.881
20
-206.786
11
39.0238
21
-206.786
0
LINE
8
BLACK
6
CONTINUOUS
10
39.0238
20
-206.786
11
39.119
21
-206.833
0
LINE
8
BLACK
6
CONTINUOUS
10
39.119
20
-206.833
11
39.1667
21
-206.881
0
LINE
8
BLACK
6
CONTINUOUS
10
39.1667
20
-206.881
11
39.2143
21
-206.976
0
LINE
8
BLACK
6
CONTINUOUS
10
39.2143
20
-206.976
11
39.2143
21
-207.262
0
LINE
8
BLACK
6
CONTINUOUS
10
39.2143
20
-207.262
11
39.1667
21
-207.357
0
LINE
8
BLACK
6
CONTINUOUS
10
39.1667
20
-207.357
11
39.119
21
-207.405
0
LINE
8
BLACK
6
CONTINUOUS
10
39.119
20
-207.405
11
39.0238
21
-207.452
0
LINE
8
BLACK
6
CONTINUOUS
10
39.0238
20
-207.452
11
38.881
21
-207.452
0
LINE
8
BLACK
6
CONTINUOUS
10
40.0714
20
-206.786
11
40.0714
21
-207.452
0
LINE
8
BLACK
6
CONTINUOUS
10
39.6429
20
-206.786
11
39.6429
21
-207.31
0
LINE
8
BLACK
6
CONTINUOUS
10
39.6429
20
-207.31
11
39.6905
21
-207.405
0
LINE
8
BLACK
6
CONTINUOUS
10
39.6905
20
-207.405
11
39.7857
21
-207.452
0
LINE
8
BLACK
6
CONTINUOUS
10
39.7857
20
-207.452
11
39.9286
21
-207.452
0
LINE
8
BLACK
6
CONTINUOUS
10
39.9286
20
-207.452
11
40.0238
21
-207.405
0
LINE
8
BLACK
6
CONTINUOUS
10
40.0238
20
-207.405
11
40.0714
21
-207.357
0
LINE
8
BLACK
6
CONTINUOUS
10
40.4048
20
-206.786
11
40.7857
21
-206.786
0
LINE
8
BLACK
6
CONTINUOUS
10
40.5476
20
-206.452
11
40.5476
21
-207.31
0
LINE
8
BLACK
6
CONTINUOUS
10
40.5476
20
-207.31
11
40.5952
21
-207.405
0
LINE
8
BLACK
6
CONTINUOUS
10
40.5952
20
-207.405
11
40.6905
21
-207.452
0
LINE
8
BLACK
6
CONTINUOUS
10
40.6905
20
-207.452
11
40.7857
21
-207.452
0
LINE
8
BLACK
6
CONTINUOUS
10
41.881
20
-206.786
11
41.881
21
-207.786
0
LINE
8
BLACK
6
CONTINUOUS
10
41.881
20
-206.833
11
41.9762
21
-206.786
0
LINE
8
BLACK
6
CONTINUOUS
10
41.9762
20
-206.786
11
42.1667
21
-206.786
0
LINE
8
BLACK
6
CONTINUOUS
10
42.1667
20
-206.786
11
42.2619
21
-206.833
0
LINE
8
BLACK
6
CONTINUOUS
10
42.2619
20
-206.833
11
42.3095
21
-206.881
0
LINE
8
BLACK
6
CONTINUOUS
10
42.3095
20
-206.881
11
42.3571
21
-206.976
0
LINE
8
BLACK
6
CONTINUOUS
10
42.3571
20
-206.976
11
42.3571
21
-207.262
0
LINE
8
BLACK
6
CONTINUOUS
10
42.3571
20
-207.262
11
42.3095
21
-207.357
0
LINE
8
BLACK
6
CONTINUOUS
10
42.3095
20
-207.357
11
42.2619
21
-207.405
0
LINE
8
BLACK
6
CONTINUOUS
10
42.2619
20
-207.405
11
42.1667
21
-207.452
0
LINE
8
BLACK
6
CONTINUOUS
10
42.1667
20
-207.452
11
41.9762
21
-207.452
0
LINE
8
BLACK
6
CONTINUOUS
10
41.9762
20
-207.452
11
41.881
21
-207.405
0
LINE
8
BLACK
6
CONTINUOUS
10
43.2143
20
-206.786
11
43.2143
21
-207.452
0
LINE
8
BLACK
6
CONTINUOUS
10
42.7857
20
-206.786
11
42.7857
21
-207.31
0
LINE
8
BLACK
6
CONTINUOUS
10
42.7857
20
-207.31
11
42.8333
21
-207.405
0
LINE
8
BLACK
6
CONTINUOUS
10
42.8333
20
-207.405
11
42.9286
21
-207.452
0
LINE
8
BLACK
6
CONTINUOUS
10
42.9286
20
-207.452
11
43.0714
21
-207.452
0
LINE
8
BLACK
6
CONTINUOUS
10
43.0714
20
-207.452
11
43.1667
21
-207.405
0
LINE
8
BLACK
6
CONTINUOUS
10
43.1667
20
-207.405
11
43.2143
21
-207.357
0
LINE
8
BLACK
6
CONTINUOUS
10
43.6905
20
-207.452
11
43.6905
21
-206.786
0
LINE
8
BLACK
6
CONTINUOUS
10
43.6905
20
-206.976
11
43.7381
21
-206.881
0
LINE
8
BLACK
6
CONTINUOUS
10
43.7381
20
-206.881
11
43.7857
21
-206.833
0
LINE
8
BLACK
6
CONTINUOUS
10
43.7857
20
-206.833
11
43.881
21
-206.786
0
LINE
8
BLACK
6
CONTINUOUS
10
43.881
20
-206.786
11
43.9762
21
-206.786
0
LINE
8
BLACK
6
CONTINUOUS
10
44.6905
20
-207.405
11
44.5952
21
-207.452
0
LINE
8
BLACK
6
CONTINUOUS
10
44.5952
20
-207.452
11
44.4048
21
-207.452
0
LINE
8
BLACK
6
CONTINUOUS
10
44.4048
20
-207.452
11
44.3095
21
-207.405
0
LINE
8
BLACK
6
CONTINUOUS
10
44.3095
20
-207.405
11
44.2619
21
-207.31
0
LINE
8
BLACK
6
CONTINUOUS
10
44.2619
20
-207.31
11
44.2619
21
-206.929
0
LINE
8
BLACK
6
CONTINUOUS
10
44.2619
20
-206.929
11
44.3095
21
-206.833
0
LINE
8
BLACK
6
CONTINUOUS
10
44.3095
20
-206.833
11
44.4048
21
-206.786
0
LINE
8
BLACK
6
CONTINUOUS
10
44.4048
20
-206.786
11
44.5952
21
-206.786
0
LINE
8
BLACK
6
CONTINUOUS
10
44.5952
20
-206.786
11
44.6905
21
-206.833
0
LINE
8
BLACK
6
CONTINUOUS
10
44.6905
20
-206.833
11
44.7381
21
-206.929
0
LINE
8
BLACK
6
CONTINUOUS
10
44.7381
20
-206.929
11
44.7381
21
-207.024
0
LINE
8
BLACK
6
CONTINUOUS
10
44.7381
20
-207.024
11
44.2619
21
-207.119
0
LINE
8
BLACK
6
CONTINUOUS
10
45.3095
20
-207.452
11
45.2143
21
-207.405
0
LINE
8
BLACK
6
CONTINUOUS
10
45.2143
20
-207.405
11
45.1667
21
-207.31
0
LINE
8
BLACK
6
CONTINUOUS
10
45.1667
20
-207.31
11
45.1667
21
-206.452
0
LINE
8
BLACK
6
CONTINUOUS
10
45.5952
20
-206.786
11
45.8333
21
-207.452
0
LINE
8
BLACK
6
CONTINUOUS
10
46.0714
20
-206.786
11
45.8333
21
-207.452
0
LINE
8
BLACK
6
CONTINUOUS
10
45.8333
20
-207.452
11
45.7381
21
-207.69
0
LINE
8
BLACK
6
CONTINUOUS
10
45.7381
20
-207.69
11
45.6905
21
-207.738
0
LINE
8
BLACK
6
CONTINUOUS
10
45.6905
20
-207.738
11
45.5952
21
-207.786
0
LINE
8
BLACK
6
CONTINUOUS
10
47.0714
20
-206.786
11
47.4524
21
-206.786
0
LINE
8
BLACK
6
CONTINUOUS
10
47.2143
20
-206.452
11
47.2143
21
-207.31
0
LINE
8
BLACK
6
CONTINUOUS
10
47.2143
20
-207.31
11
47.2619
21
-207.405
0
LINE
8
BLACK
6
CONTINUOUS
10
47.2619
20
-207.405
11
47.3571
21
-207.452
0
LINE
8
BLACK
6
CONTINUOUS
10
47.3571
20
-207.452
11
47.4524
21
-207.452
0
LINE
8
BLACK
6
CONTINUOUS
10
47.7857
20
-207.452
11
47.7857
21
-206.452
0
LINE
8
BLACK
6
CONTINUOUS
10
48.2143
20
-207.452
11
48.2143
21
-206.929
0
LINE
8
BLACK
6
CONTINUOUS
10
48.2143
20
-206.929
11
48.1667
21
-206.833
0
LINE
8
BLACK
6
CONTINUOUS
10
48.1667
20
-206.833
11
48.0714
21
-206.786
0
LINE
8
BLACK
6
CONTINUOUS
10
48.0714
20
-206.786
11
47.9286
21
-206.786
0
LINE
8
BLACK
6
CONTINUOUS
10
47.9286
20
-206.786
11
47.8333
21
-206.833
0
LINE
8
BLACK
6
CONTINUOUS
10
47.8333
20
-206.833
11
47.7857
21
-206.881
0
LINE
8
BLACK
6
CONTINUOUS
10
49.0714
20
-207.405
11
48.9762
21
-207.452
0
LINE
8
BLACK
6
CONTINUOUS
10
48.9762
20
-207.452
11
48.7857
21
-207.452
0
LINE
8
BLACK
6
CONTINUOUS
10
48.7857
20
-207.452
11
48.6905
21
-207.405
0
LINE
8
BLACK
6
CONTINUOUS
10
48.6905
20
-207.405
11
48.6429
21
-207.31
0
LINE
8
BLACK
6
CONTINUOUS
10
48.6429
20
-207.31
11
48.6429
21
-206.929
0
LINE
8
BLACK
6
CONTINUOUS
10
48.6429
20
-206.929
11
48.6905
21
-206.833
0
LINE
8
BLACK
6
CONTINUOUS
10
48.6905
20
-206.833
11
48.7857
21
-206.786
0
LINE
8
BLACK
6
CONTINUOUS
10
48.7857
20
-206.786
11
48.9762
21
-206.786
0
LINE
8
BLACK
6
CONTINUOUS
10
48.9762
20
-206.786
11
49.0714
21
-206.833
0
LINE
8
BLACK
6
CONTINUOUS
10
49.0714
20
-206.833
11
49.119
21
-206.929
0
LINE
8
BLACK
6
CONTINUOUS
10
49.119
20
-206.929
11
49.119
21
-207.024
0
LINE
8
BLACK
6
CONTINUOUS
10
49.119
20
-207.024
11
48.6429
21
-207.119
0
LINE
8
BLACK
6
CONTINUOUS
10
49.5476
20
-207.452
11
49.5476
21
-206.786
0
LINE
8
BLACK
6
CONTINUOUS
10
49.5476
20
-206.976
11
49.5952
21
-206.881
0
LINE
8
BLACK
6
CONTINUOUS
10
49.5952
20
-206.881
11
49.6429
21
-206.833
0
LINE
8
BLACK
6
CONTINUOUS
10
49.6429
20
-206.833
11
49.7381
21
-206.786
0
LINE
8
BLACK
6
CONTINUOUS
10
49.7381
20
-206.786
11
49.8333
21
-206.786
0
LINE
8
BLACK
6
CONTINUOUS
10
50.5476
20
-207.405
11
50.4524
21
-207.452
0
LINE
8
BLACK
6
CONTINUOUS
10
50.4524
20
-207.452
11
50.2619
21
-207.452
0
LINE
8
BLACK
6
CONTINUOUS
10
50.2619
20
-207.452
11
50.1667
21
-207.405
0
LINE
8
BLACK
6
CONTINUOUS
10
50.1667
20
-207.405
11
50.119
21
-207.31
0
LINE
8
BLACK
6
CONTINUOUS
10
50.119
20
-207.31
11
50.119
21
-206.929
0
LINE
8
BLACK
6
CONTINUOUS
10
50.119
20
-206.929
11
50.1667
21
-206.833
0
LINE
8
BLACK
6
CONTINUOUS
10
50.1667
20
-206.833
11
50.2619
21
-206.786
0
LINE
8
BLACK
6
CONTINUOUS
10
50.2619
20
-206.786
11
50.4524
21
-206.786
0
LINE
8
BLACK
6
CONTINUOUS
10
50.4524
20
-206.786
11
50.5476
21
-206.833
0
LINE
8
BLACK
6
CONTINUOUS
10
50.5476
20
-206.833
11
50.5952
21
-206.929
0
LINE
8
BLACK
6
CONTINUOUS
10
50.5952
20
-206.929
11
50.5952
21
-207.024
0
LINE
8
BLACK
6
CONTINUOUS
10
50.5952
20
-207.024
11
50.119
21
-207.119
0
LINE
8
BLACK
6
CONTINUOUS
10
51.6429
20
-206.786
11
52.0238
21
-206.786
0
LINE
8
BLACK
6
CONTINUOUS
10
51.7857
20
-206.452
11
51.7857
21
-207.31
0
LINE
8
BLACK
6
CONTINUOUS
10
51.7857
20
-207.31
11
51.8333
21
-207.405
0
LINE
8
BLACK
6
CONTINUOUS
10
51.8333
20
-207.405
11
51.9286
21
-207.452
0
LINE
8
BLACK
6
CONTINUOUS
10
51.9286
20
-207.452
11
52.0238
21
-207.452
0
LINE
8
BLACK
6
CONTINUOUS
10
52.5
20
-207.452
11
52.4048
21
-207.405
0
LINE
8
BLACK
6
CONTINUOUS
10
52.4048
20
-207.405
11
52.3571
21
-207.357
0
LINE
8
BLACK
6
CONTINUOUS
10
52.3571
20
-207.357
11
52.3095
21
-207.262
0
LINE
8
BLACK
6
CONTINUOUS
10
52.3095
20
-207.262
11
52.3095
21
-206.976
0
LINE
8
BLACK
6
CONTINUOUS
10
52.3095
20
-206.976
11
52.3571
21
-206.881
0
LINE
8
BLACK
6
CONTINUOUS
10
52.3571
20
-206.881
11
52.4048
21
-206.833
0
LINE
8
BLACK
6
CONTINUOUS
10
52.4048
20
-206.833
11
52.5
21
-206.786
0
LINE
8
BLACK
6
CONTINUOUS
10
52.5
20
-206.786
11
52.6429
21
-206.786
0
LINE
8
BLACK
6
CONTINUOUS
10
52.6429
20
-206.786
11
52.7381
21
-206.833
0
LINE
8
BLACK
6
CONTINUOUS
10
52.7381
20
-206.833
11
52.7857
21
-206.881
0
LINE
8
BLACK
6
CONTINUOUS
10
52.7857
20
-206.881
11
52.8333
21
-206.976
0
LINE
8
BLACK
6
CONTINUOUS
10
52.8333
20
-206.976
11
52.8333
21
-207.262
0
LINE
8
BLACK
6
CONTINUOUS
10
52.8333
20
-207.262
11
52.7857
21
-207.357
0
LINE
8
BLACK
6
CONTINUOUS
10
52.7857
20
-207.357
11
52.7381
21
-207.405
0
LINE
8
BLACK
6
CONTINUOUS
10
52.7381
20
-207.405
11
52.6429
21
-207.452
0
LINE
8
BLACK
6
CONTINUOUS
10
52.6429
20
-207.452
11
52.5
21
-207.452
0
LINE
8
BLACK
6
CONTINUOUS
10
54.4524
20
-207.405
11
54.3571
21
-207.452
0
LINE
8
BLACK
6
CONTINUOUS
10
54.3571
20
-207.452
11
54.1667
21
-207.452
0
LINE
8
BLACK
6
CONTINUOUS
10
54.1667
20
-207.452
11
54.0714
21
-207.405
0
LINE
8
BLACK
6
CONTINUOUS
10
54.0714
20
-207.405
11
54.0238
21
-207.357
0
LINE
8
BLACK
6
CONTINUOUS
10
54.0238
20
-207.357
11
53.9762
21
-207.262
0
LINE
8
BLACK
6
CONTINUOUS
10
53.9762
20
-207.262
11
53.9762
21
-206.976
0
LINE
8
BLACK
6
CONTINUOUS
10
53.9762
20
-206.976
11
54.0238
21
-206.881
0
LINE
8
BLACK
6
CONTINUOUS
10
54.0238
20
-206.881
11
54.0714
21
-206.833
0
LINE
8
BLACK
6
CONTINUOUS
10
54.0714
20
-206.833
11
54.1667
21
-206.786
0
LINE
8
BLACK
6
CONTINUOUS
10
54.1667
20
-206.786
11
54.3571
21
-206.786
0
LINE
8
BLACK
6
CONTINUOUS
10
54.3571
20
-206.786
11
54.4524
21
-206.833
0
LINE
8
BLACK
6
CONTINUOUS
10
54.881
20
-207.452
11
54.881
21
-206.786
0
LINE
8
BLACK
6
CONTINUOUS
10
54.881
20
-206.976
11
54.9286
21
-206.881
0
LINE
8
BLACK
6
CONTINUOUS
10
54.9286
20
-206.881
11
54.9762
21
-206.833
0
LINE
8
BLACK
6
CONTINUOUS
10
54.9762
20
-206.833
11
55.0714
21
-206.786
0
LINE
8
BLACK
6
CONTINUOUS
10
55.0714
20
-206.786
11
55.1667
21
-206.786
0
LINE
8
BLACK
6
CONTINUOUS
10
55.881
20
-207.405
11
55.7857
21
-207.452
0
LINE
8
BLACK
6
CONTINUOUS
10
55.7857
20
-207.452
11
55.5952
21
-207.452
0
LINE
8
BLACK
6
CONTINUOUS
10
55.5952
20
-207.452
11
55.5
21
-207.405
0
LINE
8
BLACK
6
CONTINUOUS
10
55.5
20
-207.405
11
55.4524
21
-207.31
0
LINE
8
BLACK
6
CONTINUOUS
10
55.4524
20
-207.31
11
55.4524
21
-206.929
0
LINE
8
BLACK
6
CONTINUOUS
10
55.4524
20
-206.929
11
55.5
21
-206.833
0
LINE
8
BLACK
6
CONTINUOUS
10
55.5
20
-206.833
11
55.5952
21
-206.786
0
LINE
8
BLACK
6
CONTINUOUS
10
55.5952
20
-206.786
11
55.7857
21
-206.786
0
LINE
8
BLACK
6
CONTINUOUS
10
55.7857
20
-206.786
11
55.881
21
-206.833
0
LINE
8
BLACK
6
CONTINUOUS
10
55.881
20
-206.833
11
55.9286
21
-206.929
0
LINE
8
BLACK
6
CONTINUOUS
10
55.9286
20
-206.929
11
55.9286
21
-207.024
0
LINE
8
BLACK
6
CONTINUOUS
10
55.9286
20
-207.024
11
55.4524
21
-207.119
0
LINE
8
BLACK
6
CONTINUOUS
10
56.7857
20
-207.452
11
56.7857
21
-206.929
0
LINE
8
BLACK
6
CONTINUOUS
10
56.7857
20
-206.929
11
56.7381
21
-206.833
0
LINE
8
BLACK
6
CONTINUOUS
10
56.7381
20
-206.833
11
56.6429
21
-206.786
0
LINE
8
BLACK
6
CONTINUOUS
10
56.6429
20
-206.786
11
56.4524
21
-206.786
0
LINE
8
BLACK
6
CONTINUOUS
10
56.4524
20
-206.786
11
56.3571
21
-206.833
0
LINE
8
BLACK
6
CONTINUOUS
10
56.7857
20
-207.405
11
56.6905
21
-207.452
0
LINE
8
BLACK
6
CONTINUOUS
10
56.6905
20
-207.452
11
56.4524
21
-207.452
0
LINE
8
BLACK
6
CONTINUOUS
10
56.4524
20
-207.452
11
56.3571
21
-207.405
0
LINE
8
BLACK
6
CONTINUOUS
10
56.3571
20
-207.405
11
56.3095
21
-207.31
0
LINE
8
BLACK
6
CONTINUOUS
10
56.3095
20
-207.31
11
56.3095
21
-207.214
0
LINE
8
BLACK
6
CONTINUOUS
10
56.3095
20
-207.214
11
56.3571
21
-207.119
0
LINE
8
BLACK
6
CONTINUOUS
10
56.3571
20
-207.119
11
56.4524
21
-207.071
0
LINE
8
BLACK
6
CONTINUOUS
10
56.4524
20
-207.071
11
56.6905
21
-207.071
0
LINE
8
BLACK
6
CONTINUOUS
10
56.6905
20
-207.071
11
56.7857
21
-207.024
0
LINE
8
BLACK
6
CONTINUOUS
10
57.119
20
-206.786
11
57.5
21
-206.786
0
LINE
8
BLACK
6
CONTINUOUS
10
57.2619
20
-206.452
11
57.2619
21
-207.31
0
LINE
8
BLACK
6
CONTINUOUS
10
57.2619
20
-207.31
11
57.3095
21
-207.405
0
LINE
8
BLACK
6
CONTINUOUS
10
57.3095
20
-207.405
11
57.4048
21
-207.452
0
LINE
8
BLACK
6
CONTINUOUS
10
57.4048
20
-207.452
11
57.5
21
-207.452
0
LINE
8
BLACK
6
CONTINUOUS
10
58.2143
20
-207.405
11
58.119
21
-207.452
0
LINE
8
BLACK
6
CONTINUOUS
10
58.119
20
-207.452
11
57.9286
21
-207.452
0
LINE
8
BLACK
6
CONTINUOUS
10
57.9286
20
-207.452
11
57.8333
21
-207.405
0
LINE
8
BLACK
6
CONTINUOUS
10
57.8333
20
-207.405
11
57.7857
21
-207.31
0
LINE
8
BLACK
6
CONTINUOUS
10
57.7857
20
-207.31
11
57.7857
21
-206.929
0
LINE
8
BLACK
6
CONTINUOUS
10
57.7857
20
-206.929
11
57.8333
21
-206.833
0
LINE
8
BLACK
6
CONTINUOUS
10
57.8333
20
-206.833
11
57.9286
21
-206.786
0
LINE
8
BLACK
6
CONTINUOUS
10
57.9286
20
-206.786
11
58.119
21
-206.786
0
LINE
8
BLACK
6
CONTINUOUS
10
58.119
20
-206.786
11
58.2143
21
-206.833
0
LINE
8
BLACK
6
CONTINUOUS
10
58.2143
20
-206.833
11
58.2619
21
-206.929
0
LINE
8
BLACK
6
CONTINUOUS
10
58.2619
20
-206.929
11
58.2619
21
-207.024
0
LINE
8
BLACK
6
CONTINUOUS
10
58.2619
20
-207.024
11
57.7857
21
-207.119
0
LINE
8
BLACK
6
CONTINUOUS
10
59.881
20
-207.452
11
59.881
21
-206.929
0
LINE
8
BLACK
6
CONTINUOUS
10
59.881
20
-206.929
11
59.8333
21
-206.833
0
LINE
8
BLACK
6
CONTINUOUS
10
59.8333
20
-206.833
11
59.7381
21
-206.786
0
LINE
8
BLACK
6
CONTINUOUS
10
59.7381
20
-206.786
11
59.5476
21
-206.786
0
LINE
8
BLACK
6
CONTINUOUS
10
59.5476
20
-206.786
11
59.4524
21
-206.833
0
LINE
8
BLACK
6
CONTINUOUS
10
59.881
20
-207.405
11
59.7857
21
-207.452
0
LINE
8
BLACK
6
CONTINUOUS
10
59.7857
20
-207.452
11
59.5476
21
-207.452
0
LINE
8
BLACK
6
CONTINUOUS
10
59.5476
20
-207.452
11
59.4524
21
-207.405
0
LINE
8
BLACK
6
CONTINUOUS
10
59.4524
20
-207.405
11
59.4048
21
-207.31
0
LINE
8
BLACK
6
CONTINUOUS
10
59.4048
20
-207.31
11
59.4048
21
-207.214
0
LINE
8
BLACK
6
CONTINUOUS
10
59.4048
20
-207.214
11
59.4524
21
-207.119
0
LINE
8
BLACK
6
CONTINUOUS
10
59.4524
20
-207.119
11
59.5476
21
-207.071
0
LINE
8
BLACK
6
CONTINUOUS
10
59.5476
20
-207.071
11
59.7857
21
-207.071
0
LINE
8
BLACK
6
CONTINUOUS
10
59.7857
20
-207.071
11
59.881
21
-207.024
0
LINE
8
BLACK
6
CONTINUOUS
10
61.2619
20
-207.452
11
61.1667
21
-207.405
0
LINE
8
BLACK
6
CONTINUOUS
10
61.1667
20
-207.405
11
61.119
21
-207.31
0
LINE
8
BLACK
6
CONTINUOUS
10
61.119
20
-207.31
11
61.119
21
-206.452
0
LINE
8
BLACK
6
CONTINUOUS
10
61.6429
20
-207.452
11
61.6429
21
-206.786
0
LINE
8
BLACK
6
CONTINUOUS
10
61.6429
20
-206.452
11
61.5952
21
-206.5
0
LINE
8
BLACK
6
CONTINUOUS
10
61.5952
20
-206.5
11
61.6429
21
-206.548
0
LINE
8
BLACK
6
CONTINUOUS
10
61.6429
20
-206.548
11
61.6905
21
-206.5
0
LINE
8
BLACK
6
CONTINUOUS
10
61.6905
20
-206.5
11
61.6429
21
-206.452
0
LINE
8
BLACK
6
CONTINUOUS
10
61.6429
20
-206.452
11
61.6429
21
-206.548
0
LINE
8
BLACK
6
CONTINUOUS
10
61.9762
20
-206.786
11
62.3571
21
-206.786
0
LINE
8
BLACK
6
CONTINUOUS
10
62.119
20
-206.452
11
62.119
21
-207.31
0
LINE
8
BLACK
6
CONTINUOUS
10
62.119
20
-207.31
11
62.1667
21
-207.405
0
LINE
8
BLACK
6
CONTINUOUS
10
62.1667
20
-207.405
11
62.2619
21
-207.452
0
LINE
8
BLACK
6
CONTINUOUS
10
62.2619
20
-207.452
11
62.3571
21
-207.452
0
LINE
8
BLACK
6
CONTINUOUS
10
62.5476
20
-206.786
11
62.9286
21
-206.786
0
LINE
8
BLACK
6
CONTINUOUS
10
62.6905
20
-206.452
11
62.6905
21
-207.31
0
LINE
8
BLACK
6
CONTINUOUS
10
62.6905
20
-207.31
11
62.7381
21
-207.405
0
LINE
8
BLACK
6
CONTINUOUS
10
62.7381
20
-207.405
11
62.8333
21
-207.452
0
LINE
8
BLACK
6
CONTINUOUS
10
62.8333
20
-207.452
11
62.9286
21
-207.452
0
LINE
8
BLACK
6
CONTINUOUS
10
63.4048
20
-207.452
11
63.3095
21
-207.405
0
LINE
8
BLACK
6
CONTINUOUS
10
63.3095
20
-207.405
11
63.2619
21
-207.31
0
LINE
8
BLACK
6
CONTINUOUS
10
63.2619
20
-207.31
11
63.2619
21
-206.452
0
LINE
8
BLACK
6
CONTINUOUS
10
64.1667
20
-207.405
11
64.0714
21
-207.452
0
LINE
8
BLACK
6
CONTINUOUS
10
64.0714
20
-207.452
11
63.881
21
-207.452
0
LINE
8
BLACK
6
CONTINUOUS
10
63.881
20
-207.452
11
63.7857
21
-207.405
0
LINE
8
BLACK
6
CONTINUOUS
10
63.7857
20
-207.405
11
63.7381
21
-207.31
0
LINE
8
BLACK
6
CONTINUOUS
10
63.7381
20
-207.31
11
63.7381
21
-206.929
0
LINE
8
BLACK
6
CONTINUOUS
10
63.7381
20
-206.929
11
63.7857
21
-206.833
0
LINE
8
BLACK
6
CONTINUOUS
10
63.7857
20
-206.833
11
63.881
21
-206.786
0
LINE
8
BLACK
6
CONTINUOUS
10
63.881
20
-206.786
11
64.0714
21
-206.786
0
LINE
8
BLACK
6
CONTINUOUS
10
64.0714
20
-206.786
11
64.1667
21
-206.833
0
LINE
8
BLACK
6
CONTINUOUS
10
64.1667
20
-206.833
11
64.2143
21
-206.929
0
LINE
8
BLACK
6
CONTINUOUS
10
64.2143
20
-206.929
11
64.2143
21
-207.024
0
LINE
8
BLACK
6
CONTINUOUS
10
64.2143
20
-207.024
11
63.7381
21
-207.119
0
LINE
8
BLACK
6
CONTINUOUS
10
65.7857
20
-207.405
11
65.6905
21
-207.452
0
LINE
8
BLACK
6
CONTINUOUS
10
65.6905
20
-207.452
11
65.5
21
-207.452
0
LINE
8
BLACK
6
CONTINUOUS
10
65.5
20
-207.452
11
65.4048
21
-207.405
0
LINE
8
BLACK
6
CONTINUOUS
10
65.4048
20
-207.405
11
65.3571
21
-207.31
0
LINE
8
BLACK
6
CONTINUOUS
10
65.3571
20
-207.31
11
65.3571
21
-206.929
0
LINE
8
BLACK
6
CONTINUOUS
10
65.3571
20
-206.929
11
65.4048
21
-206.833
0
LINE
8
BLACK
6
CONTINUOUS
10
65.4048
20
-206.833
11
65.5
21
-206.786
0
LINE
8
BLACK
6
CONTINUOUS
10
65.5
20
-206.786
11
65.6905
21
-206.786
0
LINE
8
BLACK
6
CONTINUOUS
10
65.6905
20
-206.786
11
65.7857
21
-206.833
0
LINE
8
BLACK
6
CONTINUOUS
10
65.7857
20
-206.833
11
65.8333
21
-206.929
0
LINE
8
BLACK
6
CONTINUOUS
10
65.8333
20
-206.929
11
65.8333
21
-207.024
0
LINE
8
BLACK
6
CONTINUOUS
10
65.8333
20
-207.024
11
65.3571
21
-207.119
0
LINE
8
BLACK
6
CONTINUOUS
10
66.1667
20
-207.452
11
66.6905
21
-206.786
0
LINE
8
BLACK
6
CONTINUOUS
10
66.1667
20
-206.786
11
66.6905
21
-207.452
0
LINE
8
BLACK
6
CONTINUOUS
10
66.9286
20
-206.786
11
67.3095
21
-206.786
0
LINE
8
BLACK
6
CONTINUOUS
10
67.0714
20
-206.452
11
67.0714
21
-207.31
0
LINE
8
BLACK
6
CONTINUOUS
10
67.0714
20
-207.31
11
67.119
21
-207.405
0
LINE
8
BLACK
6
CONTINUOUS
10
67.119
20
-207.405
11
67.2143
21
-207.452
0
LINE
8
BLACK
6
CONTINUOUS
10
67.2143
20
-207.452
11
67.3095
21
-207.452
0
LINE
8
BLACK
6
CONTINUOUS
10
67.6429
20
-207.452
11
67.6429
21
-206.786
0
LINE
8
BLACK
6
CONTINUOUS
10
67.6429
20
-206.976
11
67.6905
21
-206.881
0
LINE
8
BLACK
6
CONTINUOUS
10
67.6905
20
-206.881
11
67.7381
21
-206.833
0
LINE
8
BLACK
6
CONTINUOUS
10
67.7381
20
-206.833
11
67.8333
21
-206.786
0
LINE
8
BLACK
6
CONTINUOUS
10
67.8333
20
-206.786
11
67.9286
21
-206.786
0
LINE
8
BLACK
6
CONTINUOUS
10
68.6905
20
-207.452
11
68.6905
21
-206.929
0
LINE
8
BLACK
6
CONTINUOUS
10
68.6905
20
-206.929
11
68.6429
21
-206.833
0
LINE
8
BLACK
6
CONTINUOUS
10
68.6429
20
-206.833
11
68.5476
21
-206.786
0
LINE
8
BLACK
6
CONTINUOUS
10
68.5476
20
-206.786
11
68.3571
21
-206.786
0
LINE
8
BLACK
6
CONTINUOUS
10
68.3571
20
-206.786
11
68.2619
21
-206.833
0
LINE
8
BLACK
6
CONTINUOUS
10
68.6905
20
-207.405
11
68.5952
21
-207.452
0
LINE
8
BLACK
6
CONTINUOUS
10
68.5952
20
-207.452
11
68.3571
21
-207.452
0
LINE
8
BLACK
6
CONTINUOUS
10
68.3571
20
-207.452
11
68.2619
21
-207.405
0
LINE
8
BLACK
6
CONTINUOUS
10
68.2619
20
-207.405
11
68.2143
21
-207.31
0
LINE
8
BLACK
6
CONTINUOUS
10
68.2143
20
-207.31
11
68.2143
21
-207.214
0
LINE
8
BLACK
6
CONTINUOUS
10
68.2143
20
-207.214
11
68.2619
21
-207.119
0
LINE
8
BLACK
6
CONTINUOUS
10
68.2619
20
-207.119
11
68.3571
21
-207.071
0
LINE
8
BLACK
6
CONTINUOUS
10
68.3571
20
-207.071
11
68.5952
21
-207.071
0
LINE
8
BLACK
6
CONTINUOUS
10
68.5952
20
-207.071
11
68.6905
21
-207.024
0
LINE
8
BLACK
6
CONTINUOUS
10
69.881
20
-207.405
11
69.9762
21
-207.452
0
LINE
8
BLACK
6
CONTINUOUS
10
69.9762
20
-207.452
11
70.1667
21
-207.452
0
LINE
8
BLACK
6
CONTINUOUS
10
70.1667
20
-207.452
11
70.2619
21
-207.405
0
LINE
8
BLACK
6
CONTINUOUS
10
70.2619
20
-207.405
11
70.3095
21
-207.31
0
LINE
8
BLACK
6
CONTINUOUS
10
70.3095
20
-207.31
11
70.3095
21
-207.262
0
LINE
8
BLACK
6
CONTINUOUS
10
70.3095
20
-207.262
11
70.2619
21
-207.167
0
LINE
8
BLACK
6
CONTINUOUS
10
70.2619
20
-207.167
11
70.1667
21
-207.119
0
LINE
8
BLACK
6
CONTINUOUS
10
70.1667
20
-207.119
11
70.0238
21
-207.119
0
LINE
8
BLACK
6
CONTINUOUS
10
70.0238
20
-207.119
11
69.9286
21
-207.071
0
LINE
8
BLACK
6
CONTINUOUS
10
69.9286
20
-207.071
11
69.881
21
-206.976
0
LINE
8
BLACK
6
CONTINUOUS
10
69.881
20
-206.976
11
69.881
21
-206.929
0
LINE
8
BLACK
6
CONTINUOUS
10
69.881
20
-206.929
11
69.9286
21
-206.833
0
LINE
8
BLACK
6
CONTINUOUS
10
69.9286
20
-206.833
11
70.0238
21
-206.786
0
LINE
8
BLACK
6
CONTINUOUS
10
70.0238
20
-206.786
11
70.1667
21
-206.786
0
LINE
8
BLACK
6
CONTINUOUS
10
70.1667
20
-206.786
11
70.2619
21
-206.833
0
LINE
8
BLACK
6
CONTINUOUS
10
70.7381
20
-206.786
11
70.7381
21
-207.786
0
LINE
8
BLACK
6
CONTINUOUS
10
70.7381
20
-206.833
11
70.8333
21
-206.786
0
LINE
8
BLACK
6
CONTINUOUS
10
70.8333
20
-206.786
11
71.0238
21
-206.786
0
LINE
8
BLACK
6
CONTINUOUS
10
71.0238
20
-206.786
11
71.119
21
-206.833
0
LINE
8
BLACK
6
CONTINUOUS
10
71.119
20
-206.833
11
71.1667
21
-206.881
0
LINE
8
BLACK
6
CONTINUOUS
10
71.1667
20
-206.881
11
71.2143
21
-206.976
0
LINE
8
BLACK
6
CONTINUOUS
10
71.2143
20
-206.976
11
71.2143
21
-207.262
0
LINE
8
BLACK
6
CONTINUOUS
10
71.2143
20
-207.262
11
71.1667
21
-207.357
0
LINE
8
BLACK
6
CONTINUOUS
10
71.1667
20
-207.357
11
71.119
21
-207.405
0
LINE
8
BLACK
6
CONTINUOUS
10
71.119
20
-207.405
11
71.0238
21
-207.452
0
LINE
8
BLACK
6
CONTINUOUS
10
71.0238
20
-207.452
11
70.8333
21
-207.452
0
LINE
8
BLACK
6
CONTINUOUS
10
70.8333
20
-207.452
11
70.7381
21
-207.405
0
LINE
8
BLACK
6
CONTINUOUS
10
72.0714
20
-207.452
11
72.0714
21
-206.929
0
LINE
8
BLACK
6
CONTINUOUS
10
72.0714
20
-206.929
11
72.0238
21
-206.833
0
LINE
8
BLACK
6
CONTINUOUS
10
72.0238
20
-206.833
11
71.9286
21
-206.786
0
LINE
8
BLACK
6
CONTINUOUS
10
71.9286
20
-206.786
11
71.7381
21
-206.786
0
LINE
8
BLACK
6
CONTINUOUS
10
71.7381
20
-206.786
11
71.6429
21
-206.833
0
LINE
8
BLACK
6
CONTINUOUS
10
72.0714
20
-207.405
11
71.9762
21
-207.452
0
LINE
8
BLACK
6
CONTINUOUS
10
71.9762
20
-207.452
11
71.7381
21
-207.452
0
LINE
8
BLACK
6
CONTINUOUS
10
71.7381
20
-207.452
11
71.6429
21
-207.405
0
LINE
8
BLACK
6
CONTINUOUS
10
71.6429
20
-207.405
11
71.5952
21
-207.31
0
LINE
8
BLACK
6
CONTINUOUS
10
71.5952
20
-207.31
11
71.5952
21
-207.214
0
LINE
8
BLACK
6
CONTINUOUS
10
71.5952
20
-207.214
11
71.6429
21
-207.119
0
LINE
8
BLACK
6
CONTINUOUS
10
71.6429
20
-207.119
11
71.7381
21
-207.071
0
LINE
8
BLACK
6
CONTINUOUS
10
71.7381
20
-207.071
11
71.9762
21
-207.071
0
LINE
8
BLACK
6
CONTINUOUS
10
71.9762
20
-207.071
11
72.0714
21
-207.024
0
LINE
8
BLACK
6
CONTINUOUS
10
72.9762
20
-207.405
11
72.881
21
-207.452
0
LINE
8
BLACK
6
CONTINUOUS
10
72.881
20
-207.452
11
72.6905
21
-207.452
0
LINE
8
BLACK
6
CONTINUOUS
10
72.6905
20
-207.452
11
72.5952
21
-207.405
0
LINE
8
BLACK
6
CONTINUOUS
10
72.5952
20
-207.405
11
72.5476
21
-207.357
0
LINE
8
BLACK
6
CONTINUOUS
10
72.5476
20
-207.357
11
72.5
21
-207.262
0
LINE
8
BLACK
6
CONTINUOUS
10
72.5
20
-207.262
11
72.5
21
-206.976
0
LINE
8
BLACK
6
CONTINUOUS
10
72.5
20
-206.976
11
72.5476
21
-206.881
0
LINE
8
BLACK
6
CONTINUOUS
10
72.5476
20
-206.881
11
72.5952
21
-206.833
0
LINE
8
BLACK
6
CONTINUOUS
10
72.5952
20
-206.833
11
72.6905
21
-206.786
0
LINE
8
BLACK
6
CONTINUOUS
10
72.6905
20
-206.786
11
72.881
21
-206.786
0
LINE
8
BLACK
6
CONTINUOUS
10
72.881
20
-206.786
11
72.9762
21
-206.833
0
LINE
8
BLACK
6
CONTINUOUS
10
73.7857
20
-207.405
11
73.6905
21
-207.452
0
LINE
8
BLACK
6
CONTINUOUS
10
73.6905
20
-207.452
11
73.5
21
-207.452
0
LINE
8
BLACK
6
CONTINUOUS
10
73.5
20
-207.452
11
73.4048
21
-207.405
0
LINE
8
BLACK
6
CONTINUOUS
10
73.4048
20
-207.405
11
73.3571
21
-207.31
0
LINE
8
BLACK
6
CONTINUOUS
10
73.3571
20
-207.31
11
73.3571
21
-206.929
0
LINE
8
BLACK
6
CONTINUOUS
10
73.3571
20
-206.929
11
73.4048
21
-206.833
0
LINE
8
BLACK
6
CONTINUOUS
10
73.4048
20
-206.833
11
73.5
21
-206.786
0
LINE
8
BLACK
6
CONTINUOUS
10
73.5
20
-206.786
11
73.6905
21
-206.786
0
LINE
8
BLACK
6
CONTINUOUS
10
73.6905
20
-206.786
11
73.7857
21
-206.833
0
LINE
8
BLACK
6
CONTINUOUS
10
73.7857
20
-206.833
11
73.8333
21
-206.929
0
LINE
8
BLACK
6
CONTINUOUS
10
73.8333
20
-206.929
11
73.8333
21
-207.024
0
LINE
8
BLACK
6
CONTINUOUS
10
73.8333
20
-207.024
11
73.3571
21
-207.119
0
LINE
8
BLACK
6
CONTINUOUS
10
74.881
20
-206.786
11
75.2619
21
-206.786
0
LINE
8
BLACK
6
CONTINUOUS
10
75.0238
20
-207.452
11
75.0238
21
-206.595
0
LINE
8
BLACK
6
CONTINUOUS
10
75.0238
20
-206.595
11
75.0714
21
-206.5
0
LINE
8
BLACK
6
CONTINUOUS
10
75.0714
20
-206.5
11
75.1667
21
-206.452
0
LINE
8
BLACK
6
CONTINUOUS
10
75.1667
20
-206.452
11
75.2619
21
-206.452
0
LINE
8
BLACK
6
CONTINUOUS
10
75.7381
20
-207.452
11
75.6429
21
-207.405
0
LINE
8
BLACK
6
CONTINUOUS
10
75.6429
20
-207.405
11
75.5952
21
-207.357
0
LINE
8
BLACK
6
CONTINUOUS
10
75.5952
20
-207.357
11
75.5476
21
-207.262
0
LINE
8
BLACK
6
CONTINUOUS
10
75.5476
20
-207.262
11
75.5476
21
-206.976
0
LINE
8
BLACK
6
CONTINUOUS
10
75.5476
20
-206.976
11
75.5952
21
-206.881
0
LINE
8
BLACK
6
CONTINUOUS
10
75.5952
20
-206.881
11
75.6429
21
-206.833
0
LINE
8
BLACK
6
CONTINUOUS
10
75.6429
20
-206.833
11
75.7381
21
-206.786
0
LINE
8
BLACK
6
CONTINUOUS
10
75.7381
20
-206.786
11
75.881
21
-206.786
0
LINE
8
BLACK
6
CONTINUOUS
10
75.881
20
-206.786
11
75.9762
21
-206.833
0
LINE
8
BLACK
6
CONTINUOUS
10
75.9762
20
-206.833
11
76.0238
21
-206.881
0
LINE
8
BLACK
6
CONTINUOUS
10
76.0238
20
-206.881
11
76.0714
21
-206.976
0
LINE
8
BLACK
6
CONTINUOUS
10
76.0714
20
-206.976
11
76.0714
21
-207.262
0
LINE
8
BLACK
6
CONTINUOUS
10
76.0714
20
-207.262
11
76.0238
21
-207.357
0
LINE
8
BLACK
6
CONTINUOUS
10
76.0238
20
-207.357
11
75.9762
21
-207.405
0
LINE
8
BLACK
6
CONTINUOUS
10
75.9762
20
-207.405
11
75.881
21
-207.452
0
LINE
8
BLACK
6
CONTINUOUS
10
75.881
20
-207.452
11
75.7381
21
-207.452
0
LINE
8
BLACK
6
CONTINUOUS
10
76.5
20
-207.452
11
76.5
21
-206.786
0
LINE
8
BLACK
6
CONTINUOUS
10
76.5
20
-206.976
11
76.5476
21
-206.881
0
LINE
8
BLACK
6
CONTINUOUS
10
76.5476
20
-206.881
11
76.5952
21
-206.833
0
LINE
8
BLACK
6
CONTINUOUS
10
76.5952
20
-206.833
11
76.6905
21
-206.786
0
LINE
8
BLACK
6
CONTINUOUS
10
76.6905
20
-206.786
11
76.7857
21
-206.786
0
LINE
8
BLACK
6
CONTINUOUS
10
77.7381
20
-206.786
11
78.119
21
-206.786
0
LINE
8
BLACK
6
CONTINUOUS
10
77.881
20
-206.452
11
77.881
21
-207.31
0
LINE
8
BLACK
6
CONTINUOUS
10
77.881
20
-207.31
11
77.9286
21
-207.405
0
LINE
8
BLACK
6
CONTINUOUS
10
77.9286
20
-207.405
11
78.0238
21
-207.452
0
LINE
8
BLACK
6
CONTINUOUS
10
78.0238
20
-207.452
11
78.119
21
-207.452
0
LINE
8
BLACK
6
CONTINUOUS
10
78.4524
20
-207.452
11
78.4524
21
-206.452
0
LINE
8
BLACK
6
CONTINUOUS
10
78.881
20
-207.452
11
78.881
21
-206.929
0
LINE
8
BLACK
6
CONTINUOUS
10
78.881
20
-206.929
11
78.8333
21
-206.833
0
LINE
8
BLACK
6
CONTINUOUS
10
78.8333
20
-206.833
11
78.7381
21
-206.786
0
LINE
8
BLACK
6
CONTINUOUS
10
78.7381
20
-206.786
11
78.5952
21
-206.786
0
LINE
8
BLACK
6
CONTINUOUS
10
78.5952
20
-206.786
11
78.5
21
-206.833
0
LINE
8
BLACK
6
CONTINUOUS
10
78.5
20
-206.833
11
78.4524
21
-206.881
0
LINE
8
BLACK
6
CONTINUOUS
10
79.7381
20
-207.405
11
79.6429
21
-207.452
0
LINE
8
BLACK
6
CONTINUOUS
10
79.6429
20
-207.452
11
79.4524
21
-207.452
0
LINE
8
BLACK
6
CONTINUOUS
10
79.4524
20
-207.452
11
79.3571
21
-207.405
0
LINE
8
BLACK
6
CONTINUOUS
10
79.3571
20
-207.405
11
79.3095
21
-207.31
0
LINE
8
BLACK
6
CONTINUOUS
10
79.3095
20
-207.31
11
79.3095
21
-206.929
0
LINE
8
BLACK
6
CONTINUOUS
10
79.3095
20
-206.929
11
79.3571
21
-206.833
0
LINE
8
BLACK
6
CONTINUOUS
10
79.3571
20
-206.833
11
79.4524
21
-206.786
0
LINE
8
BLACK
6
CONTINUOUS
10
79.4524
20
-206.786
11
79.6429
21
-206.786
0
LINE
8
BLACK
6
CONTINUOUS
10
79.6429
20
-206.786
11
79.7381
21
-206.833
0
LINE
8
BLACK
6
CONTINUOUS
10
79.7381
20
-206.833
11
79.7857
21
-206.929
0
LINE
8
BLACK
6
CONTINUOUS
10
79.7857
20
-206.929
11
79.7857
21
-207.024
0
LINE
8
BLACK
6
CONTINUOUS
10
79.7857
20
-207.024
11
79.3095
21
-207.119
0
LINE
8
BLACK
6
CONTINUOUS
10
81.4048
20
-206.786
11
81.4048
21
-207.452
0
LINE
8
BLACK
6
CONTINUOUS
10
80.9762
20
-206.786
11
80.9762
21
-207.31
0
LINE
8
BLACK
6
CONTINUOUS
10
80.9762
20
-207.31
11
81.0238
21
-207.405
0
LINE
8
BLACK
6
CONTINUOUS
10
81.0238
20
-207.405
11
81.119
21
-207.452
0
LINE
8
BLACK
6
CONTINUOUS
10
81.119
20
-207.452
11
81.2619
21
-207.452
0
LINE
8
BLACK
6
CONTINUOUS
10
81.2619
20
-207.452
11
81.3571
21
-207.405
0
LINE
8
BLACK
6
CONTINUOUS
10
81.3571
20
-207.405
11
81.4048
21
-207.357
0
LINE
8
BLACK
6
CONTINUOUS
10
81.8333
20
-207.405
11
81.9286
21
-207.452
0
LINE
8
BLACK
6
CONTINUOUS
10
81.9286
20
-207.452
11
82.119
21
-207.452
0
LINE
8
BLACK
6
CONTINUOUS
10
82.119
20
-207.452
11
82.2143
21
-207.405
0
LINE
8
BLACK
6
CONTINUOUS
10
82.2143
20
-207.405
11
82.2619
21
-207.31
0
LINE
8
BLACK
6
CONTINUOUS
10
82.2619
20
-207.31
11
82.2619
21
-207.262
0
LINE
8
BLACK
6
CONTINUOUS
10
82.2619
20
-207.262
11
82.2143
21
-207.167
0
LINE
8
BLACK
6
CONTINUOUS
10
82.2143
20
-207.167
11
82.119
21
-207.119
0
LINE
8
BLACK
6
CONTINUOUS
10
82.119
20
-207.119
11
81.9762
21
-207.119
0
LINE
8
BLACK
6
CONTINUOUS
10
81.9762
20
-207.119
11
81.881
21
-207.071
0
LINE
8
BLACK
6
CONTINUOUS
10
81.881
20
-207.071
11
81.8333
21
-206.976
0
LINE
8
BLACK
6
CONTINUOUS
10
81.8333
20
-206.976
11
81.8333
21
-206.929
0
LINE
8
BLACK
6
CONTINUOUS
10
81.8333
20
-206.929
11
81.881
21
-206.833
0
LINE
8
BLACK
6
CONTINUOUS
10
81.881
20
-206.833
11
81.9762
21
-206.786
0
LINE
8
BLACK
6
CONTINUOUS
10
81.9762
20
-206.786
11
82.119
21
-206.786
0
LINE
8
BLACK
6
CONTINUOUS
10
82.119
20
-206.786
11
82.2143
21
-206.833
0
LINE
8
BLACK
6
CONTINUOUS
10
82.6905
20
-207.452
11
82.6905
21
-206.452
0
LINE
8
BLACK
6
CONTINUOUS
10
82.6905
20
-206.833
11
82.7857
21
-206.786
0
LINE
8
BLACK
6
CONTINUOUS
10
82.7857
20
-206.786
11
82.9762
21
-206.786
0
LINE
8
BLACK
6
CONTINUOUS
10
82.9762
20
-206.786
11
83.0714
21
-206.833
0
LINE
8
BLACK
6
CONTINUOUS
10
83.0714
20
-206.833
11
83.119
21
-206.881
0
LINE
8
BLACK
6
CONTINUOUS
10
83.119
20
-206.881
11
83.1667
21
-206.976
0
LINE
8
BLACK
6
CONTINUOUS
10
83.1667
20
-206.976
11
83.1667
21
-207.262
0
LINE
8
BLACK
6
CONTINUOUS
10
83.1667
20
-207.262
11
83.119
21
-207.357
0
LINE
8
BLACK
6
CONTINUOUS
10
83.119
20
-207.357
11
83.0714
21
-207.405
0
LINE
8
BLACK
6
CONTINUOUS
10
83.0714
20
-207.405
11
82.9762
21
-207.452
0
LINE
8
BLACK
6
CONTINUOUS
10
82.9762
20
-207.452
11
82.7857
21
-207.452
0
LINE
8
BLACK
6
CONTINUOUS
10
82.7857
20
-207.452
11
82.6905
21
-207.405
0
LINE
8
BLACK
6
CONTINUOUS
10
84.3571
20
-206.786
11
84.3571
21
-207.786
0
LINE
8
BLACK
6
CONTINUOUS
10
84.3571
20
-206.833
11
84.4524
21
-206.786
0
LINE
8
BLACK
6
CONTINUOUS
10
84.4524
20
-206.786
11
84.6429
21
-206.786
0
LINE
8
BLACK
6
CONTINUOUS
10
84.6429
20
-206.786
11
84.7381
21
-206.833
0
LINE
8
BLACK
6
CONTINUOUS
10
84.7381
20
-206.833
11
84.7857
21
-206.881
0
LINE
8
BLACK
6
CONTINUOUS
10
84.7857
20
-206.881
11
84.8333
21
-206.976
0
LINE
8
BLACK
6
CONTINUOUS
10
84.8333
20
-206.976
11
84.8333
21
-207.262
0
LINE
8
BLACK
6
CONTINUOUS
10
84.8333
20
-207.262
11
84.7857
21
-207.357
0
LINE
8
BLACK
6
CONTINUOUS
10
84.7857
20
-207.357
11
84.7381
21
-207.405
0
LINE
8
BLACK
6
CONTINUOUS
10
84.7381
20
-207.405
11
84.6429
21
-207.452
0
LINE
8
BLACK
6
CONTINUOUS
10
84.6429
20
-207.452
11
84.4524
21
-207.452
0
LINE
8
BLACK
6
CONTINUOUS
10
84.4524
20
-207.452
11
84.3571
21
-207.405
0
LINE
8
BLACK
6
CONTINUOUS
10
85.4048
20
-207.452
11
85.3095
21
-207.405
0
LINE
8
BLACK
6
CONTINUOUS
10
85.3095
20
-207.405
11
85.2619
21
-207.357
0
LINE
8
BLACK
6
CONTINUOUS
10
85.2619
20
-207.357
11
85.2143
21
-207.262
0
LINE
8
BLACK
6
CONTINUOUS
10
85.2143
20
-207.262
11
85.2143
21
-206.976
0
LINE
8
BLACK
6
CONTINUOUS
10
85.2143
20
-206.976
11
85.2619
21
-206.881
0
LINE
8
BLACK
6
CONTINUOUS
10
85.2619
20
-206.881
11
85.3095
21
-206.833
0
LINE
8
BLACK
6
CONTINUOUS
10
85.3095
20
-206.833
11
85.4048
21
-206.786
0
LINE
8
BLACK
6
CONTINUOUS
10
85.4048
20
-206.786
11
85.5476
21
-206.786
0
LINE
8
BLACK
6
CONTINUOUS
10
85.5476
20
-206.786
11
85.6429
21
-206.833
0
LINE
8
BLACK
6
CONTINUOUS
10
85.6429
20
-206.833
11
85.6905
21
-206.881
0
LINE
8
BLACK
6
CONTINUOUS
10
85.6905
20
-206.881
11
85.7381
21
-206.976
0
LINE
8
BLACK
6
CONTINUOUS
10
85.7381
20
-206.976
11
85.7381
21
-207.262
0
LINE
8
BLACK
6
CONTINUOUS
10
85.7381
20
-207.262
11
85.6905
21
-207.357
0
LINE
8
BLACK
6
CONTINUOUS
10
85.6905
20
-207.357
11
85.6429
21
-207.405
0
LINE
8
BLACK
6
CONTINUOUS
10
85.6429
20
-207.405
11
85.5476
21
-207.452
0
LINE
8
BLACK
6
CONTINUOUS
10
85.5476
20
-207.452
11
85.4048
21
-207.452
0
LINE
8
BLACK
6
CONTINUOUS
10
86.1667
20
-207.452
11
86.1667
21
-206.786
0
LINE
8
BLACK
6
CONTINUOUS
10
86.1667
20
-206.976
11
86.2143
21
-206.881
0
LINE
8
BLACK
6
CONTINUOUS
10
86.2143
20
-206.881
11
86.2619
21
-206.833
0
LINE
8
BLACK
6
CONTINUOUS
10
86.2619
20
-206.833
11
86.3571
21
-206.786
0
LINE
8
BLACK
6
CONTINUOUS
10
86.3571
20
-206.786
11
86.4524
21
-206.786
0
LINE
8
BLACK
6
CONTINUOUS
10
86.6429
20
-206.786
11
87.0238
21
-206.786
0
LINE
8
BLACK
6
CONTINUOUS
10
86.7857
20
-206.452
11
86.7857
21
-207.31
0
LINE
8
BLACK
6
CONTINUOUS
10
86.7857
20
-207.31
11
86.8333
21
-207.405
0
LINE
8
BLACK
6
CONTINUOUS
10
86.8333
20
-207.405
11
86.9286
21
-207.452
0
LINE
8
BLACK
6
CONTINUOUS
10
86.9286
20
-207.452
11
87.0238
21
-207.452
0
LINE
8
BLACK
6
CONTINUOUS
10
199.607
20
-350.679
11
199.607
21
-349.179
0
LINE
8
BLACK
6
CONTINUOUS
10
199.607
20
-349.179
11
200.179
21
-349.179
0
LINE
8
BLACK
6
CONTINUOUS
10
200.179
20
-349.179
11
200.321
21
-349.25
0
LINE
8
BLACK
6
CONTINUOUS
10
200.321
20
-349.25
11
200.393
21
-349.321
0
LINE
8
BLACK
6
CONTINUOUS
10
200.393
20
-349.321
11
200.464
21
-349.464
0
LINE
8
BLACK
6
CONTINUOUS
10
200.464
20
-349.464
11
200.464
21
-349.679
0
LINE
8
BLACK
6
CONTINUOUS
10
200.464
20
-349.679
11
200.393
21
-349.821
0
LINE
8
BLACK
6
CONTINUOUS
10
200.393
20
-349.821
11
200.321
21
-349.893
0
LINE
8
BLACK
6
CONTINUOUS
10
200.321
20
-349.893
11
200.179
21
-349.964
0
LINE
8
BLACK
6
CONTINUOUS
10
200.179
20
-349.964
11
199.607
21
-349.964
0
LINE
8
BLACK
6
CONTINUOUS
10
201.964
20
-350.536
11
201.893
21
-350.607
0
LINE
8
BLACK
6
CONTINUOUS
10
201.893
20
-350.607
11
201.679
21
-350.679
0
LINE
8
BLACK
6
CONTINUOUS
10
201.679
20
-350.679
11
201.536
21
-350.679
0
LINE
8
BLACK
6
CONTINUOUS
10
201.536
20
-350.679
11
201.321
21
-350.607
0
LINE
8
BLACK
6
CONTINUOUS
10
201.321
20
-350.607
11
201.179
21
-350.464
0
LINE
8
BLACK
6
CONTINUOUS
10
201.179
20
-350.464
11
201.107
21
-350.321
0
LINE
8
BLACK
6
CONTINUOUS
10
201.107
20
-350.321
11
201.036
21
-350.036
0
LINE
8
BLACK
6
CONTINUOUS
10
201.036
20
-350.036
11
201.036
21
-349.821
0
LINE
8
BLACK
6
CONTINUOUS
10
201.036
20
-349.821
11
201.107
21
-349.536
0
LINE
8
BLACK
6
CONTINUOUS
10
201.107
20
-349.536
11
201.179
21
-349.393
0
LINE
8
BLACK
6
CONTINUOUS
10
201.179
20
-349.393
11
201.321
21
-349.25
0
LINE
8
BLACK
6
CONTINUOUS
10
201.321
20
-349.25
11
201.536
21
-349.179
0
LINE
8
BLACK
6
CONTINUOUS
10
201.536
20
-349.179
11
201.679
21
-349.179
0
LINE
8
BLACK
6
CONTINUOUS
10
201.679
20
-349.179
11
201.893
21
-349.25
0
LINE
8
BLACK
6
CONTINUOUS
10
201.893
20
-349.25
11
201.964
21
-349.321
0
LINE
8
BLACK
6
CONTINUOUS
10
203.107
20
-349.893
11
203.321
21
-349.964
0
LINE
8
BLACK
6
CONTINUOUS
10
203.321
20
-349.964
11
203.393
21
-350.036
0
LINE
8
BLACK
6
CONTINUOUS
10
203.393
20
-350.036
11
203.464
21
-350.179
0
LINE
8
BLACK
6
CONTINUOUS
10
203.464
20
-350.179
11
203.464
21
-350.393
0
LINE
8
BLACK
6
CONTINUOUS
10
203.464
20
-350.393
11
203.393
21
-350.536
0
LINE
8
BLACK
6
CONTINUOUS
10
203.393
20
-350.536
11
203.321
21
-350.607
0
LINE
8
BLACK
6
CONTINUOUS
10
203.321
20
-350.607
11
203.179
21
-350.679
0
LINE
8
BLACK
6
CONTINUOUS
10
203.179
20
-350.679
11
202.607
21
-350.679
0
LINE
8
BLACK
6
CONTINUOUS
10
202.607
20
-350.679
11
202.607
21
-349.179
0
LINE
8
BLACK
6
CONTINUOUS
10
202.607
20
-349.179
11
203.107
21
-349.179
0
LINE
8
BLACK
6
CONTINUOUS
10
203.107
20
-349.179
11
203.25
21
-349.25
0
LINE
8
BLACK
6
CONTINUOUS
10
203.25
20
-349.25
11
203.321
21
-349.321
0
LINE
8
BLACK
6
CONTINUOUS
10
203.321
20
-349.321
11
203.393
21
-349.464
0
LINE
8
BLACK
6
CONTINUOUS
10
203.393
20
-349.464
11
203.393
21
-349.607
0
LINE
8
BLACK
6
CONTINUOUS
10
203.393
20
-349.607
11
203.321
21
-349.75
0
LINE
8
BLACK
6
CONTINUOUS
10
203.321
20
-349.75
11
203.25
21
-349.821
0
LINE
8
BLACK
6
CONTINUOUS
10
203.25
20
-349.821
11
203.107
21
-349.893
0
LINE
8
BLACK
6
CONTINUOUS
10
203.107
20
-349.893
11
202.607
21
-349.893
0
LINE
8
BLACK
6
CONTINUOUS
10
203.964
20
-349.179
11
204.893
21
-349.179
0
LINE
8
BLACK
6
CONTINUOUS
10
204.893
20
-349.179
11
204.393
21
-349.75
0
LINE
8
BLACK
6
CONTINUOUS
10
204.393
20
-349.75
11
204.607
21
-349.75
0
LINE
8
BLACK
6
CONTINUOUS
10
204.607
20
-349.75
11
204.75
21
-349.821
0
LINE
8
BLACK
6
CONTINUOUS
10
204.75
20
-349.821
11
204.821
21
-349.893
0
LINE
8
BLACK
6
CONTINUOUS
10
204.821
20
-349.893
11
204.893
21
-350.036
0
LINE
8
BLACK
6
CONTINUOUS
10
204.893
20
-350.036
11
204.893
21
-350.393
0
LINE
8
BLACK
6
CONTINUOUS
10
204.893
20
-350.393
11
204.821
21
-350.536
0
LINE
8
BLACK
6
CONTINUOUS
10
204.821
20
-350.536
11
204.75
21
-350.607
0
LINE
8
BLACK
6
CONTINUOUS
10
204.75
20
-350.607
11
204.607
21
-350.679
0
LINE
8
BLACK
6
CONTINUOUS
10
204.607
20
-350.679
11
204.179
21
-350.679
0
LINE
8
BLACK
6
CONTINUOUS
10
204.179
20
-350.679
11
204.036
21
-350.607
0
LINE
8
BLACK
6
CONTINUOUS
10
204.036
20
-350.607
11
203.964
21
-350.536
0
LINE
8
BLACK
6
CONTINUOUS
10
205.536
20
-350.679
11
205.536
21
-349.179
0
LINE
8
BLACK
6
CONTINUOUS
10
205.536
20
-349.179
11
205.893
21
-349.179
0
LINE
8
BLACK
6
CONTINUOUS
10
205.893
20
-349.179
11
206.107
21
-349.25
0
LINE
8
BLACK
6
CONTINUOUS
10
206.107
20
-349.25
11
206.25
21
-349.393
0
LINE
8
BLACK
6
CONTINUOUS
10
206.25
20
-349.393
11
206.321
21
-349.536
0
LINE
8
BLACK
6
CONTINUOUS
10
206.321
20
-349.536
11
206.393
21
-349.821
0
LINE
8
BLACK
6
CONTINUOUS
10
206.393
20
-349.821
11
206.393
21
-350.036
0
LINE
8
BLACK
6
CONTINUOUS
10
206.393
20
-350.036
11
206.321
21
-350.321
0
LINE
8
BLACK
6
CONTINUOUS
10
206.321
20
-350.321
11
206.25
21
-350.464
0
LINE
8
BLACK
6
CONTINUOUS
10
206.25
20
-350.464
11
206.107
21
-350.607
0
LINE
8
BLACK
6
CONTINUOUS
10
206.107
20
-350.607
11
205.893
21
-350.679
0
LINE
8
BLACK
6
CONTINUOUS
10
205.893
20
-350.679
11
205.536
21
-350.679
0
LINE
8
BLACK
6
CONTINUOUS
10
206.679
20
-350.821
11
207.821
21
-350.821
0
LINE
8
BLACK
6
CONTINUOUS
10
208.679
20
-349.893
11
208.893
21
-349.964
0
LINE
8
BLACK
6
CONTINUOUS
10
208.893
20
-349.964
11
208.964
21
-350.036
0
LINE
8
BLACK
6
CONTINUOUS
10
208.964
20
-350.036
11
209.036
21
-350.179
0
LINE
8
BLACK
6
CONTINUOUS
10
209.036
20
-350.179
11
209.036
21
-350.393
0
LINE
8
BLACK
6
CONTINUOUS
10
209.036
20
-350.393
11
208.964
21
-350.536
0
LINE
8
BLACK
6
CONTINUOUS
10
208.964
20
-350.536
11
208.893
21
-350.607
0
LINE
8
BLACK
6
CONTINUOUS
10
208.893
20
-350.607
11
208.75
21
-350.679
0
LINE
8
BLACK
6
CONTINUOUS
10
208.75
20
-350.679
11
208.179
21
-350.679
0
LINE
8
BLACK
6
CONTINUOUS
10
208.179
20
-350.679
11
208.179
21
-349.179
0
LINE
8
BLACK
6
CONTINUOUS
10
208.179
20
-349.179
11
208.679
21
-349.179
0
LINE
8
BLACK
6
CONTINUOUS
10
208.679
20
-349.179
11
208.821
21
-349.25
0
LINE
8
BLACK
6
CONTINUOUS
10
208.821
20
-349.25
11
208.893
21
-349.321
0
LINE
8
BLACK
6
CONTINUOUS
10
208.893
20
-349.321
11
208.964
21
-349.464
0
LINE
8
BLACK
6
CONTINUOUS
10
208.964
20
-349.464
11
208.964
21
-349.607
0
LINE
8
BLACK
6
CONTINUOUS
10
208.964
20
-349.607
11
208.893
21
-349.75
0
LINE
8
BLACK
6
CONTINUOUS
10
208.893
20
-349.75
11
208.821
21
-349.821
0
LINE
8
BLACK
6
CONTINUOUS
10
208.821
20
-349.821
11
208.679
21
-349.893
0
LINE
8
BLACK
6
CONTINUOUS
10
208.679
20
-349.893
11
208.179
21
-349.893
0
LINE
8
BLACK
6
CONTINUOUS
10
210.536
20
-350.679
11
210.036
21
-349.964
0
LINE
8
BLACK
6
CONTINUOUS
10
209.679
20
-350.679
11
209.679
21
-349.179
0
LINE
8
BLACK
6
CONTINUOUS
10
209.679
20
-349.179
11
210.25
21
-349.179
0
LINE
8
BLACK
6
CONTINUOUS
10
210.25
20
-349.179
11
210.393
21
-349.25
0
LINE
8
BLACK
6
CONTINUOUS
10
210.393
20
-349.25
11
210.464
21
-349.321
0
LINE
8
BLACK
6
CONTINUOUS
10
210.464
20
-349.321
11
210.536
21
-349.464
0
LINE
8
BLACK
6
CONTINUOUS
10
210.536
20
-349.464
11
210.536
21
-349.679
0
LINE
8
BLACK
6
CONTINUOUS
10
210.536
20
-349.679
11
210.464
21
-349.821
0
LINE
8
BLACK
6
CONTINUOUS
10
210.464
20
-349.821
11
210.393
21
-349.893
0
LINE
8
BLACK
6
CONTINUOUS
10
210.393
20
-349.893
11
210.25
21
-349.964
0
LINE
8
BLACK
6
CONTINUOUS
10
210.25
20
-349.964
11
209.679
21
-349.964
0
LINE
8
BLACK
6
CONTINUOUS
10
210.821
20
-350.821
11
211.964
21
-350.821
0
LINE
8
BLACK
6
CONTINUOUS
10
212.821
20
-349.893
11
213.036
21
-349.964
0
LINE
8
BLACK
6
CONTINUOUS
10
213.036
20
-349.964
11
213.107
21
-350.036
0
LINE
8
BLACK
6
CONTINUOUS
10
213.107
20
-350.036
11
213.179
21
-350.179
0
LINE
8
BLACK
6
CONTINUOUS
10
213.179
20
-350.179
11
213.179
21
-350.393
0
LINE
8
BLACK
6
CONTINUOUS
10
213.179
20
-350.393
11
213.107
21
-350.536
0
LINE
8
BLACK
6
CONTINUOUS
10
213.107
20
-350.536
11
213.036
21
-350.607
0
LINE
8
BLACK
6
CONTINUOUS
10
213.036
20
-350.607
11
212.893
21
-350.679
0
LINE
8
BLACK
6
CONTINUOUS
10
212.893
20
-350.679
11
212.321
21
-350.679
0
LINE
8
BLACK
6
CONTINUOUS
10
212.321
20
-350.679
11
212.321
21
-349.179
0
LINE
8
BLACK
6
CONTINUOUS
10
212.321
20
-349.179
11
212.821
21
-349.179
0
LINE
8
BLACK
6
CONTINUOUS
10
212.821
20
-349.179
11
212.964
21
-349.25
0
LINE
8
BLACK
6
CONTINUOUS
10
212.964
20
-349.25
11
213.036
21
-349.321
0
LINE
8
BLACK
6
CONTINUOUS
10
213.036
20
-349.321
11
213.107
21
-349.464
0
LINE
8
BLACK
6
CONTINUOUS
10
213.107
20
-349.464
11
213.107
21
-349.607
0
LINE
8
BLACK
6
CONTINUOUS
10
213.107
20
-349.607
11
213.036
21
-349.75
0
LINE
8
BLACK
6
CONTINUOUS
10
213.036
20
-349.75
11
212.964
21
-349.821
0
LINE
8
BLACK
6
CONTINUOUS
10
212.964
20
-349.821
11
212.821
21
-349.893
0
LINE
8
BLACK
6
CONTINUOUS
10
212.821
20
-349.893
11
212.321
21
-349.893
0
LINE
8
BLACK
6
CONTINUOUS
10
214.107
20
-349.179
11
214.393
21
-349.179
0
LINE
8
BLACK
6
CONTINUOUS
10
214.393
20
-349.179
11
214.536
21
-349.25
0
LINE
8
BLACK
6
CONTINUOUS
10
214.536
20
-349.25
11
214.679
21
-349.393
0
LINE
8
BLACK
6
CONTINUOUS
10
214.679
20
-349.393
11
214.75
21
-349.679
0
LINE
8
BLACK
6
CONTINUOUS
10
214.75
20
-349.679
11
214.75
21
-350.179
0
LINE
8
BLACK
6
CONTINUOUS
10
214.75
20
-350.179
11
214.679
21
-350.464
0
LINE
8
BLACK
6
CONTINUOUS
10
214.679
20
-350.464
11
214.536
21
-350.607
0
LINE
8
BLACK
6
CONTINUOUS
10
214.536
20
-350.607
11
214.393
21
-350.679
0
LINE
8
BLACK
6
CONTINUOUS
10
214.393
20
-350.679
11
214.107
21
-350.679
0
LINE
8
BLACK
6
CONTINUOUS
10
214.107
20
-350.679
11
213.964
21
-350.607
0
LINE
8
BLACK
6
CONTINUOUS
10
213.964
20
-350.607
11
213.821
21
-350.464
0
LINE
8
BLACK
6
CONTINUOUS
10
213.821
20
-350.464
11
213.75
21
-350.179
0
LINE
8
BLACK
6
CONTINUOUS
10
213.75
20
-350.179
11
213.75
21
-349.679
0
LINE
8
BLACK
6
CONTINUOUS
10
213.75
20
-349.679
11
213.821
21
-349.393
0
LINE
8
BLACK
6
CONTINUOUS
10
213.821
20
-349.393
11
213.964
21
-349.25
0
LINE
8
BLACK
6
CONTINUOUS
10
213.964
20
-349.25
11
214.107
21
-349.179
0
LINE
8
BLACK
6
CONTINUOUS
10
215.321
20
-350.25
11
216.036
21
-350.25
0
LINE
8
BLACK
6
CONTINUOUS
10
215.179
20
-350.679
11
215.679
21
-349.179
0
LINE
8
BLACK
6
CONTINUOUS
10
215.679
20
-349.179
11
216.179
21
-350.679
0
LINE
8
BLACK
6
CONTINUOUS
10
217.536
20
-350.679
11
217.036
21
-349.964
0
LINE
8
BLACK
6
CONTINUOUS
10
216.679
20
-350.679
11
216.679
21
-349.179
0
LINE
8
BLACK
6
CONTINUOUS
10
216.679
20
-349.179
11
217.25
21
-349.179
0
LINE
8
BLACK
6
CONTINUOUS
10
217.25
20
-349.179
11
217.393
21
-349.25
0
LINE
8
BLACK
6
CONTINUOUS
10
217.393
20
-349.25
11
217.464
21
-349.321
0
LINE
8
BLACK
6
CONTINUOUS
10
217.464
20
-349.321
11
217.536
21
-349.464
0
LINE
8
BLACK
6
CONTINUOUS
10
217.536
20
-349.464
11
217.536
21
-349.679
0
LINE
8
BLACK
6
CONTINUOUS
10
217.536
20
-349.679
11
217.464
21
-349.821
0
LINE
8
BLACK
6
CONTINUOUS
10
217.464
20
-349.821
11
217.393
21
-349.893
0
LINE
8
BLACK
6
CONTINUOUS
10
217.393
20
-349.893
11
217.25
21
-349.964
0
LINE
8
BLACK
6
CONTINUOUS
10
217.25
20
-349.964
11
216.679
21
-349.964
0
LINE
8
BLACK
6
CONTINUOUS
10
218.179
20
-350.679
11
218.179
21
-349.179
0
LINE
8
BLACK
6
CONTINUOUS
10
218.179
20
-349.179
11
218.536
21
-349.179
0
LINE
8
BLACK
6
CONTINUOUS
10
218.536
20
-349.179
11
218.75
21
-349.25
0
LINE
8
BLACK
6
CONTINUOUS
10
218.75
20
-349.25
11
218.893
21
-349.393
0
LINE
8
BLACK
6
CONTINUOUS
10
218.893
20
-349.393
11
218.964
21
-349.536
0
LINE
8
BLACK
6
CONTINUOUS
10
218.964
20
-349.536
11
219.036
21
-349.821
0
LINE
8
BLACK
6
CONTINUOUS
10
219.036
20
-349.821
11
219.036
21
-350.036
0
LINE
8
BLACK
6
CONTINUOUS
10
219.036
20
-350.036
11
218.964
21
-350.321
0
LINE
8
BLACK
6
CONTINUOUS
10
218.964
20
-350.321
11
218.893
21
-350.464
0
LINE
8
BLACK
6
CONTINUOUS
10
218.893
20
-350.464
11
218.75
21
-350.607
0
LINE
8
BLACK
6
CONTINUOUS
10
218.75
20
-350.607
11
218.536
21
-350.679
0
LINE
8
BLACK
6
CONTINUOUS
10
218.536
20
-350.679
11
218.179
21
-350.679
0
LINE
8
BLACK
6
CONTINUOUS
10
220.464
20
-350.679
11
219.607
21
-350.679
0
LINE
8
BLACK
6
CONTINUOUS
10
220.036
20
-350.679
11
220.036
21
-349.179
0
LINE
8
BLACK
6
CONTINUOUS
10
220.036
20
-349.179
11
219.893
21
-349.393
0
LINE
8
BLACK
6
CONTINUOUS
10
219.893
20
-349.393
11
219.75
21
-349.536
0
LINE
8
BLACK
6
CONTINUOUS
10
219.75
20
-349.536
11
219.607
21
-349.607
0
LINE
8
BLACK
6
CONTINUOUS
10
204.929
20
-180.679
11
204.929
21
-179.179
0
LINE
8
BLACK
6
CONTINUOUS
10
204.929
20
-179.179
11
205.5
21
-179.179
0
LINE
8
BLACK
6
CONTINUOUS
10
205.5
20
-179.179
11
205.643
21
-179.25
0
LINE
8
BLACK
6
CONTINUOUS
10
205.643
20
-179.25
11
205.714
21
-179.321
0
LINE
8
BLACK
6
CONTINUOUS
10
205.714
20
-179.321
11
205.786
21
-179.464
0
LINE
8
BLACK
6
CONTINUOUS
10
205.786
20
-179.464
11
205.786
21
-179.679
0
LINE
8
BLACK
6
CONTINUOUS
10
205.786
20
-179.679
11
205.714
21
-179.821
0
LINE
8
BLACK
6
CONTINUOUS
10
205.714
20
-179.821
11
205.643
21
-179.893
0
LINE
8
BLACK
6
CONTINUOUS
10
205.643
20
-179.893
11
205.5
21
-179.964
0
LINE
8
BLACK
6
CONTINUOUS
10
205.5
20
-179.964
11
204.929
21
-179.964
0
LINE
8
BLACK
6
CONTINUOUS
10
207.286
20
-180.536
11
207.214
21
-180.607
0
LINE
8
BLACK
6
CONTINUOUS
10
207.214
20
-180.607
11
207
21
-180.679
0
LINE
8
BLACK
6
CONTINUOUS
10
207
20
-180.679
11
206.857
21
-180.679
0
LINE
8
BLACK
6
CONTINUOUS
10
206.857
20
-180.679
11
206.643
21
-180.607
0
LINE
8
BLACK
6
CONTINUOUS
10
206.643
20
-180.607
11
206.5
21
-180.464
0
LINE
8
BLACK
6
CONTINUOUS
10
206.5
20
-180.464
11
206.429
21
-180.321
0
LINE
8
BLACK
6
CONTINUOUS
10
206.429
20
-180.321
11
206.357
21
-180.036
0
LINE
8
BLACK
6
CONTINUOUS
10
206.357
20
-180.036
11
206.357
21
-179.821
0
LINE
8
BLACK
6
CONTINUOUS
10
206.357
20
-179.821
11
206.429
21
-179.536
0
LINE
8
BLACK
6
CONTINUOUS
10
206.429
20
-179.536
11
206.5
21
-179.393
0
LINE
8
BLACK
6
CONTINUOUS
10
206.5
20
-179.393
11
206.643
21
-179.25
0
LINE
8
BLACK
6
CONTINUOUS
10
206.643
20
-179.25
11
206.857
21
-179.179
0
LINE
8
BLACK
6
CONTINUOUS
10
206.857
20
-179.179
11
207
21
-179.179
0
LINE
8
BLACK
6
CONTINUOUS
10
207
20
-179.179
11
207.214
21
-179.25
0
LINE
8
BLACK
6
CONTINUOUS
10
207.214
20
-179.25
11
207.286
21
-179.321
0
LINE
8
BLACK
6
CONTINUOUS
10
208.429
20
-179.893
11
208.643
21
-179.964
0
LINE
8
BLACK
6
CONTINUOUS
10
208.643
20
-179.964
11
208.714
21
-180.036
0
LINE
8
BLACK
6
CONTINUOUS
10
208.714
20
-180.036
11
208.786
21
-180.179
0
LINE
8
BLACK
6
CONTINUOUS
10
208.786
20
-180.179
11
208.786
21
-180.393
0
LINE
8
BLACK
6
CONTINUOUS
10
208.786
20
-180.393
11
208.714
21
-180.536
0
LINE
8
BLACK
6
CONTINUOUS
10
208.714
20
-180.536
11
208.643
21
-180.607
0
LINE
8
BLACK
6
CONTINUOUS
10
208.643
20
-180.607
11
208.5
21
-180.679
0
LINE
8
BLACK
6
CONTINUOUS
10
208.5
20
-180.679
11
207.929
21
-180.679
0
LINE
8
BLACK
6
CONTINUOUS
10
207.929
20
-180.679
11
207.929
21
-179.179
0
LINE
8
BLACK
6
CONTINUOUS
10
207.929
20
-179.179
11
208.429
21
-179.179
0
LINE
8
BLACK
6
CONTINUOUS
10
208.429
20
-179.179
11
208.571
21
-179.25
0
LINE
8
BLACK
6
CONTINUOUS
10
208.571
20
-179.25
11
208.643
21
-179.321
0
LINE
8
BLACK
6
CONTINUOUS
10
208.643
20
-179.321
11
208.714
21
-179.464
0
LINE
8
BLACK
6
CONTINUOUS
10
208.714
20
-179.464
11
208.714
21
-179.607
0
LINE
8
BLACK
6
CONTINUOUS
10
208.714
20
-179.607
11
208.643
21
-179.75
0
LINE
8
BLACK
6
CONTINUOUS
10
208.643
20
-179.75
11
208.571
21
-179.821
0
LINE
8
BLACK
6
CONTINUOUS
10
208.571
20
-179.821
11
208.429
21
-179.893
0
LINE
8
BLACK
6
CONTINUOUS
10
208.429
20
-179.893
11
207.929
21
-179.893
0
LINE
8
BLACK
6
CONTINUOUS
10
209.286
20
-179.179
11
210.214
21
-179.179
0
LINE
8
BLACK
6
CONTINUOUS
10
210.214
20
-179.179
11
209.714
21
-179.75
0
LINE
8
BLACK
6
CONTINUOUS
10
209.714
20
-179.75
11
209.929
21
-179.75
0
LINE
8
BLACK
6
CONTINUOUS
10
209.929
20
-179.75
11
210.071
21
-179.821
0
LINE
8
BLACK
6
CONTINUOUS
10
210.071
20
-179.821
11
210.143
21
-179.893
0
LINE
8
BLACK
6
CONTINUOUS
10
210.143
20
-179.893
11
210.214
21
-180.036
0
LINE
8
BLACK
6
CONTINUOUS
10
210.214
20
-180.036
11
210.214
21
-180.393
0
LINE
8
BLACK
6
CONTINUOUS
10
210.214
20
-180.393
11
210.143
21
-180.536
0
LINE
8
BLACK
6
CONTINUOUS
10
210.143
20
-180.536
11
210.071
21
-180.607
0
LINE
8
BLACK
6
CONTINUOUS
10
210.071
20
-180.607
11
209.929
21
-180.679
0
LINE
8
BLACK
6
CONTINUOUS
10
209.929
20
-180.679
11
209.5
21
-180.679
0
LINE
8
BLACK
6
CONTINUOUS
10
209.5
20
-180.679
11
209.357
21
-180.607
0
LINE
8
BLACK
6
CONTINUOUS
10
209.357
20
-180.607
11
209.286
21
-180.536
0
LINE
8
BLACK
6
CONTINUOUS
10
210.857
20
-180.679
11
210.857
21
-179.179
0
LINE
8
BLACK
6
CONTINUOUS
10
210.857
20
-179.179
11
211.214
21
-179.179
0
LINE
8
BLACK
6
CONTINUOUS
10
211.214
20
-179.179
11
211.429
21
-179.25
0
LINE
8
BLACK
6
CONTINUOUS
10
211.429
20
-179.25
11
211.571
21
-179.393
0
LINE
8
BLACK
6
CONTINUOUS
10
211.571
20
-179.393
11
211.643
21
-179.536
0
LINE
8
BLACK
6
CONTINUOUS
10
211.643
20
-179.536
11
211.714
21
-179.821
0
LINE
8
BLACK
6
CONTINUOUS
10
211.714
20
-179.821
11
211.714
21
-180.036
0
LINE
8
BLACK
6
CONTINUOUS
10
211.714
20
-180.036
11
211.643
21
-180.321
0
LINE
8
BLACK
6
CONTINUOUS
10
211.643
20
-180.321
11
211.571
21
-180.464
0
LINE
8
BLACK
6
CONTINUOUS
10
211.571
20
-180.464
11
211.429
21
-180.607
0
LINE
8
BLACK
6
CONTINUOUS
10
211.429
20
-180.607
11
211.214
21
-180.679
0
LINE
8
BLACK
6
CONTINUOUS
10
211.214
20
-180.679
11
210.857
21
-180.679
0
LINE
8
BLACK
6
CONTINUOUS
10
212
20
-180.821
11
213.143
21
-180.821
0
LINE
8
BLACK
6
CONTINUOUS
10
213.286
20
-179.179
11
214.143
21
-179.179
0
LINE
8
BLACK
6
CONTINUOUS
10
213.714
20
-180.679
11
213.714
21
-179.179
0
LINE
8
BLACK
6
CONTINUOUS
10
215.357
20
-180.679
11
214.643
21
-180.679
0
LINE
8
BLACK
6
CONTINUOUS
10
214.643
20
-180.679
11
214.643
21
-179.179
0
LINE
8
BLACK
6
CONTINUOUS
10
215.5
20
-180.821
11
216.643
21
-180.821
0
LINE
8
BLACK
6
CONTINUOUS
10
217.5
20
-179.893
11
217.714
21
-179.964
0
LINE
8
BLACK
6
CONTINUOUS
10
217.714
20
-179.964
11
217.786
21
-180.036
0
LINE
8
BLACK
6
CONTINUOUS
10
217.786
20
-180.036
11
217.857
21
-180.179
0
LINE
8
BLACK
6
CONTINUOUS
10
217.857
20
-180.179
11
217.857
21
-180.393
0
LINE
8
BLACK
6
CONTINUOUS
10
217.857
20
-180.393
11
217.786
21
-180.536
0
LINE
8
BLACK
6
CONTINUOUS
10
217.786
20
-180.536
11
217.714
21
-180.607
0
LINE
8
BLACK
6
CONTINUOUS
10
217.714
20
-180.607
11
217.571
21
-180.679
0
LINE
8
BLACK
6
CONTINUOUS
10
217.571
20
-180.679
11
217
21
-180.679
0
LINE
8
BLACK
6
CONTINUOUS
10
217
20
-180.679
11
217
21
-179.179
0
LINE
8
BLACK
6
CONTINUOUS
10
217
20
-179.179
11
217.5
21
-179.179
0
LINE
8
BLACK
6
CONTINUOUS
10
217.5
20
-179.179
11
217.643
21
-179.25
0
LINE
8
BLACK
6
CONTINUOUS
10
217.643
20
-179.25
11
217.714
21
-179.321
0
LINE
8
BLACK
6
CONTINUOUS
10
217.714
20
-179.321
11
217.786
21
-179.464
0
LINE
8
BLACK
6
CONTINUOUS
10
217.786
20
-179.464
11
217.786
21
-179.607
0
LINE
8
BLACK
6
CONTINUOUS
10
217.786
20
-179.607
11
217.714
21
-179.75
0
LINE
8
BLACK
6
CONTINUOUS
10
217.714
20
-179.75
11
217.643
21
-179.821
0
LINE
8
BLACK
6
CONTINUOUS
10
217.643
20
-179.821
11
217.5
21
-179.893
0
LINE
8
BLACK
6
CONTINUOUS
10
217.5
20
-179.893
11
217
21
-179.893
0
LINE
8
BLACK
6
CONTINUOUS
10
218.786
20
-179.179
11
219.071
21
-179.179
0
LINE
8
BLACK
6
CONTINUOUS
10
219.071
20
-179.179
11
219.214
21
-179.25
0
LINE
8
BLACK
6
CONTINUOUS
10
219.214
20
-179.25
11
219.357
21
-179.393
0
LINE
8
BLACK
6
CONTINUOUS
10
219.357
20
-179.393
11
219.429
21
-179.679
0
LINE
8
BLACK
6
CONTINUOUS
10
219.429
20
-179.679
11
219.429
21
-180.179
0
LINE
8
BLACK
6
CONTINUOUS
10
219.429
20
-180.179
11
219.357
21
-180.464
0
LINE
8
BLACK
6
CONTINUOUS
10
219.357
20
-180.464
11
219.214
21
-180.607
0
LINE
8
BLACK
6
CONTINUOUS
10
219.214
20
-180.607
11
219.071
21
-180.679
0
LINE
8
BLACK
6
CONTINUOUS
10
219.071
20
-180.679
11
218.786
21
-180.679
0
LINE
8
BLACK
6
CONTINUOUS
10
218.786
20
-180.679
11
218.643
21
-180.607
0
LINE
8
BLACK
6
CONTINUOUS
10
218.643
20
-180.607
11
218.5
21
-180.464
0
LINE
8
BLACK
6
CONTINUOUS
10
218.5
20
-180.464
11
218.429
21
-180.179
0
LINE
8
BLACK
6
CONTINUOUS
10
218.429
20
-180.179
11
218.429
21
-179.679
0
LINE
8
BLACK
6
CONTINUOUS
10
218.429
20
-179.679
11
218.5
21
-179.393
0
LINE
8
BLACK
6
CONTINUOUS
10
218.5
20
-179.393
11
218.643
21
-179.25
0
LINE
8
BLACK
6
CONTINUOUS
10
218.643
20
-179.25
11
218.786
21
-179.179
0
LINE
8
BLACK
6
CONTINUOUS
10
220
20
-180.25
11
220.714
21
-180.25
0
LINE
8
BLACK
6
CONTINUOUS
10
219.857
20
-180.679
11
220.357
21
-179.179
0
LINE
8
BLACK
6
CONTINUOUS
10
220.357
20
-179.179
11
220.857
21
-180.679
0
LINE
8
BLACK
6
CONTINUOUS
10
222.214
20
-180.679
11
221.714
21
-179.964
0
LINE
8
BLACK
6
CONTINUOUS
10
221.357
20
-180.679
11
221.357
21
-179.179
0
LINE
8
BLACK
6
CONTINUOUS
10
221.357
20
-179.179
11
221.929
21
-179.179
0
LINE
8
BLACK
6
CONTINUOUS
10
221.929
20
-179.179
11
222.071
21
-179.25
0
LINE
8
BLACK
6
CONTINUOUS
10
222.071
20
-179.25
11
222.143
21
-179.321
0
LINE
8
BLACK
6
CONTINUOUS
10
222.143
20
-179.321
11
222.214
21
-179.464
0
LINE
8
BLACK
6
CONTINUOUS
10
222.214
20
-179.464
11
222.214
21
-179.679
0
LINE
8
BLACK
6
CONTINUOUS
10
222.214
20
-179.679
11
222.143
21
-179.821
0
LINE
8
BLACK
6
CONTINUOUS
10
222.143
20
-179.821
11
222.071
21
-179.893
0
LINE
8
BLACK
6
CONTINUOUS
10
222.071
20
-179.893
11
221.929
21
-179.964
0
LINE
8
BLACK
6
CONTINUOUS
10
221.929
20
-179.964
11
221.357
21
-179.964
0
LINE
8
BLACK
6
CONTINUOUS
10
222.857
20
-180.679
11
222.857
21
-179.179
0
LINE
8
BLACK
6
CONTINUOUS
10
222.857
20
-179.179
11
223.214
21
-179.179
0
LINE
8
BLACK
6
CONTINUOUS
10
223.214
20
-179.179
11
223.429
21
-179.25
0
LINE
8
BLACK
6
CONTINUOUS
10
223.429
20
-179.25
11
223.571
21
-179.393
0
LINE
8
BLACK
6
CONTINUOUS
10
223.571
20
-179.393
11
223.643
21
-179.536
0
LINE
8
BLACK
6
CONTINUOUS
10
223.643
20
-179.536
11
223.714
21
-179.821
0
LINE
8
BLACK
6
CONTINUOUS
10
223.714
20
-179.821
11
223.714
21
-180.036
0
LINE
8
BLACK
6
CONTINUOUS
10
223.714
20
-180.036
11
223.643
21
-180.321
0
LINE
8
BLACK
6
CONTINUOUS
10
223.643
20
-180.321
11
223.571
21
-180.464
0
LINE
8
BLACK
6
CONTINUOUS
10
223.571
20
-180.464
11
223.429
21
-180.607
0
LINE
8
BLACK
6
CONTINUOUS
10
223.429
20
-180.607
11
223.214
21
-180.679
0
LINE
8
BLACK
6
CONTINUOUS
10
223.214
20
-180.679
11
222.857
21
-180.679
0
LINE
8
BLACK
6
CONTINUOUS
10
224.214
20
-179.179
11
225.143
21
-179.179
0
LINE
8
BLACK
6
CONTINUOUS
10
225.143
20
-179.179
11
224.643
21
-179.75
0
LINE
8
BLACK
6
CONTINUOUS
10
224.643
20
-179.75
11
224.857
21
-179.75
0
LINE
8
BLACK
6
CONTINUOUS
10
224.857
20
-179.75
11
225
21
-179.821
0
LINE
8
BLACK
6
CONTINUOUS
10
225
20
-179.821
11
225.071
21
-179.893
0
LINE
8
BLACK
6
CONTINUOUS
10
225.071
20
-179.893
11
225.143
21
-180.036
0
LINE
8
BLACK
6
CONTINUOUS
10
225.143
20
-180.036
11
225.143
21
-180.393
0
LINE
8
BLACK
6
CONTINUOUS
10
225.143
20
-180.393
11
225.071
21
-180.536
0
LINE
8
BLACK
6
CONTINUOUS
10
225.071
20
-180.536
11
225
21
-180.607
0
LINE
8
BLACK
6
CONTINUOUS
10
225
20
-180.607
11
224.857
21
-180.679
0
LINE
8
BLACK
6
CONTINUOUS
10
224.857
20
-180.679
11
224.429
21
-180.679
0
LINE
8
BLACK
6
CONTINUOUS
10
224.429
20
-180.679
11
224.286
21
-180.607
0
LINE
8
BLACK
6
CONTINUOUS
10
224.286
20
-180.607
11
224.214
21
-180.536
0
LINE
8
BLACK
6
CONTINUOUS
10
434.607
20
-140.679
11
434.607
21
-139.179
0
LINE
8
BLACK
6
CONTINUOUS
10
434.607
20
-139.179
11
435.179
21
-139.179
0
LINE
8
BLACK
6
CONTINUOUS
10
435.179
20
-139.179
11
435.321
21
-139.25
0
LINE
8
BLACK
6
CONTINUOUS
10
435.321
20
-139.25
11
435.393
21
-139.321
0
LINE
8
BLACK
6
CONTINUOUS
10
435.393
20
-139.321
11
435.464
21
-139.464
0
LINE
8
BLACK
6
CONTINUOUS
10
435.464
20
-139.464
11
435.464
21
-139.679
0
LINE
8
BLACK
6
CONTINUOUS
10
435.464
20
-139.679
11
435.393
21
-139.821
0
LINE
8
BLACK
6
CONTINUOUS
10
435.393
20
-139.821
11
435.321
21
-139.893
0
LINE
8
BLACK
6
CONTINUOUS
10
435.321
20
-139.893
11
435.179
21
-139.964
0
LINE
8
BLACK
6
CONTINUOUS
10
435.179
20
-139.964
11
434.607
21
-139.964
0
LINE
8
BLACK
6
CONTINUOUS
10
436.964
20
-140.536
11
436.893
21
-140.607
0
LINE
8
BLACK
6
CONTINUOUS
10
436.893
20
-140.607
11
436.679
21
-140.679
0
LINE
8
BLACK
6
CONTINUOUS
10
436.679
20
-140.679
11
436.536
21
-140.679
0
LINE
8
BLACK
6
CONTINUOUS
10
436.536
20
-140.679
11
436.321
21
-140.607
0
LINE
8
BLACK
6
CONTINUOUS
10
436.321
20
-140.607
11
436.179
21
-140.464
0
LINE
8
BLACK
6
CONTINUOUS
10
436.179
20
-140.464
11
436.107
21
-140.321
0
LINE
8
BLACK
6
CONTINUOUS
10
436.107
20
-140.321
11
436.036
21
-140.036
0
LINE
8
BLACK
6
CONTINUOUS
10
436.036
20
-140.036
11
436.036
21
-139.821
0
LINE
8
BLACK
6
CONTINUOUS
10
436.036
20
-139.821
11
436.107
21
-139.536
0
LINE
8
BLACK
6
CONTINUOUS
10
436.107
20
-139.536
11
436.179
21
-139.393
0
LINE
8
BLACK
6
CONTINUOUS
10
436.179
20
-139.393
11
436.321
21
-139.25
0
LINE
8
BLACK
6
CONTINUOUS
10
436.321
20
-139.25
11
436.536
21
-139.179
0
LINE
8
BLACK
6
CONTINUOUS
10
436.536
20
-139.179
11
436.679
21
-139.179
0
LINE
8
BLACK
6
CONTINUOUS
10
436.679
20
-139.179
11
436.893
21
-139.25
0
LINE
8
BLACK
6
CONTINUOUS
10
436.893
20
-139.25
11
436.964
21
-139.321
0
LINE
8
BLACK
6
CONTINUOUS
10
438.107
20
-139.893
11
438.321
21
-139.964
0
LINE
8
BLACK
6
CONTINUOUS
10
438.321
20
-139.964
11
438.393
21
-140.036
0
LINE
8
BLACK
6
CONTINUOUS
10
438.393
20
-140.036
11
438.464
21
-140.179
0
LINE
8
BLACK
6
CONTINUOUS
10
438.464
20
-140.179
11
438.464
21
-140.393
0
LINE
8
BLACK
6
CONTINUOUS
10
438.464
20
-140.393
11
438.393
21
-140.536
0
LINE
8
BLACK
6
CONTINUOUS
10
438.393
20
-140.536
11
438.321
21
-140.607
0
LINE
8
BLACK
6
CONTINUOUS
10
438.321
20
-140.607
11
438.179
21
-140.679
0
LINE
8
BLACK
6
CONTINUOUS
10
438.179
20
-140.679
11
437.607
21
-140.679
0
LINE
8
BLACK
6
CONTINUOUS
10
437.607
20
-140.679
11
437.607
21
-139.179
0
LINE
8
BLACK
6
CONTINUOUS
10
437.607
20
-139.179
11
438.107
21
-139.179
0
LINE
8
BLACK
6
CONTINUOUS
10
438.107
20
-139.179
11
438.25
21
-139.25
0
LINE
8
BLACK
6
CONTINUOUS
10
438.25
20
-139.25
11
438.321
21
-139.321
0
LINE
8
BLACK
6
CONTINUOUS
10
438.321
20
-139.321
11
438.393
21
-139.464
0
LINE
8
BLACK
6
CONTINUOUS
10
438.393
20
-139.464
11
438.393
21
-139.607
0
LINE
8
BLACK
6
CONTINUOUS
10
438.393
20
-139.607
11
438.321
21
-139.75
0
LINE
8
BLACK
6
CONTINUOUS
10
438.321
20
-139.75
11
438.25
21
-139.821
0
LINE
8
BLACK
6
CONTINUOUS
10
438.25
20
-139.821
11
438.107
21
-139.893
0
LINE
8
BLACK
6
CONTINUOUS
10
438.107
20
-139.893
11
437.607
21
-139.893
0
LINE
8
BLACK
6
CONTINUOUS
10
438.964
20
-139.179
11
439.893
21
-139.179
0
LINE
8
BLACK
6
CONTINUOUS
10
439.893
20
-139.179
11
439.393
21
-139.75
0
LINE
8
BLACK
6
CONTINUOUS
10
439.393
20
-139.75
11
439.607
21
-139.75
0
LINE
8
BLACK
6
CONTINUOUS
10
439.607
20
-139.75
11
439.75
21
-139.821
0
LINE
8
BLACK
6
CONTINUOUS
10
439.75
20
-139.821
11
439.821
21
-139.893
0
LINE
8
BLACK
6
CONTINUOUS
10
439.821
20
-139.893
11
439.893
21
-140.036
0
LINE
8
BLACK
6
CONTINUOUS
10
439.893
20
-140.036
11
439.893
21
-140.393
0
LINE
8
BLACK
6
CONTINUOUS
10
439.893
20
-140.393
11
439.821
21
-140.536
0
LINE
8
BLACK
6
CONTINUOUS
10
439.821
20
-140.536
11
439.75
21
-140.607
0
LINE
8
BLACK
6
CONTINUOUS
10
439.75
20
-140.607
11
439.607
21
-140.679
0
LINE
8
BLACK
6
CONTINUOUS
10
439.607
20
-140.679
11
439.179
21
-140.679
0
LINE
8
BLACK
6
CONTINUOUS
10
439.179
20
-140.679
11
439.036
21
-140.607
0
LINE
8
BLACK
6
CONTINUOUS
10
439.036
20
-140.607
11
438.964
21
-140.536
0
LINE
8
BLACK
6
CONTINUOUS
10
440.536
20
-140.679
11
440.536
21
-139.179
0
LINE
8
BLACK
6
CONTINUOUS
10
440.536
20
-139.179
11
440.893
21
-139.179
0
LINE
8
BLACK
6
CONTINUOUS
10
440.893
20
-139.179
11
441.107
21
-139.25
0
LINE
8
BLACK
6
CONTINUOUS
10
441.107
20
-139.25
11
441.25
21
-139.393
0
LINE
8
BLACK
6
CONTINUOUS
10
441.25
20
-139.393
11
441.321
21
-139.536
0
LINE
8
BLACK
6
CONTINUOUS
10
441.321
20
-139.536
11
441.393
21
-139.821
0
LINE
8
BLACK
6
CONTINUOUS
10
441.393
20
-139.821
11
441.393
21
-140.036
0
LINE
8
BLACK
6
CONTINUOUS
10
441.393
20
-140.036
11
441.321
21
-140.321
0
LINE
8
BLACK
6
CONTINUOUS
10
441.321
20
-140.321
11
441.25
21
-140.464
0
LINE
8
BLACK
6
CONTINUOUS
10
441.25
20
-140.464
11
441.107
21
-140.607
0
LINE
8
BLACK
6
CONTINUOUS
10
441.107
20
-140.607
11
440.893
21
-140.679
0
LINE
8
BLACK
6
CONTINUOUS
10
440.893
20
-140.679
11
440.536
21
-140.679
0
LINE
8
BLACK
6
CONTINUOUS
10
441.679
20
-140.821
11
442.821
21
-140.821
0
LINE
8
BLACK
6
CONTINUOUS
10
443.679
20
-139.893
11
443.893
21
-139.964
0
LINE
8
BLACK
6
CONTINUOUS
10
443.893
20
-139.964
11
443.964
21
-140.036
0
LINE
8
BLACK
6
CONTINUOUS
10
443.964
20
-140.036
11
444.036
21
-140.179
0
LINE
8
BLACK
6
CONTINUOUS
10
444.036
20
-140.179
11
444.036
21
-140.393
0
LINE
8
BLACK
6
CONTINUOUS
10
444.036
20
-140.393
11
443.964
21
-140.536
0
LINE
8
BLACK
6
CONTINUOUS
10
443.964
20
-140.536
11
443.893
21
-140.607
0
LINE
8
BLACK
6
CONTINUOUS
10
443.893
20
-140.607
11
443.75
21
-140.679
0
LINE
8
BLACK
6
CONTINUOUS
10
443.75
20
-140.679
11
443.179
21
-140.679
0
LINE
8
BLACK
6
CONTINUOUS
10
443.179
20
-140.679
11
443.179
21
-139.179
0
LINE
8
BLACK
6
CONTINUOUS
10
443.179
20
-139.179
11
443.679
21
-139.179
0
LINE
8
BLACK
6
CONTINUOUS
10
443.679
20
-139.179
11
443.821
21
-139.25
0
LINE
8
BLACK
6
CONTINUOUS
10
443.821
20
-139.25
11
443.893
21
-139.321
0
LINE
8
BLACK
6
CONTINUOUS
10
443.893
20
-139.321
11
443.964
21
-139.464
0
LINE
8
BLACK
6
CONTINUOUS
10
443.964
20
-139.464
11
443.964
21
-139.607
0
LINE
8
BLACK
6
CONTINUOUS
10
443.964
20
-139.607
11
443.893
21
-139.75
0
LINE
8
BLACK
6
CONTINUOUS
10
443.893
20
-139.75
11
443.821
21
-139.821
0
LINE
8
BLACK
6
CONTINUOUS
10
443.821
20
-139.821
11
443.679
21
-139.893
0
LINE
8
BLACK
6
CONTINUOUS
10
443.679
20
-139.893
11
443.179
21
-139.893
0
LINE
8
BLACK
6
CONTINUOUS
10
445.536
20
-140.679
11
445.036
21
-139.964
0
LINE
8
BLACK
6
CONTINUOUS
10
444.679
20
-140.679
11
444.679
21
-139.179
0
LINE
8
BLACK
6
CONTINUOUS
10
444.679
20
-139.179
11
445.25
21
-139.179
0
LINE
8
BLACK
6
CONTINUOUS
10
445.25
20
-139.179
11
445.393
21
-139.25
0
LINE
8
BLACK
6
CONTINUOUS
10
445.393
20
-139.25
11
445.464
21
-139.321
0
LINE
8
BLACK
6
CONTINUOUS
10
445.464
20
-139.321
11
445.536
21
-139.464
0
LINE
8
BLACK
6
CONTINUOUS
10
445.536
20
-139.464
11
445.536
21
-139.679
0
LINE
8
BLACK
6
CONTINUOUS
10
445.536
20
-139.679
11
445.464
21
-139.821
0
LINE
8
BLACK
6
CONTINUOUS
10
445.464
20
-139.821
11
445.393
21
-139.893
0
LINE
8
BLACK
6
CONTINUOUS
10
445.393
20
-139.893
11
445.25
21
-139.964
0
LINE
8
BLACK
6
CONTINUOUS
10
445.25
20
-139.964
11
444.679
21
-139.964
0
LINE
8
BLACK
6
CONTINUOUS
10
445.821
20
-140.821
11
446.964
21
-140.821
0
LINE
8
BLACK
6
CONTINUOUS
10
447.821
20
-139.893
11
448.036
21
-139.964
0
LINE
8
BLACK
6
CONTINUOUS
10
448.036
20
-139.964
11
448.107
21
-140.036
0
LINE
8
BLACK
6
CONTINUOUS
10
448.107
20
-140.036
11
448.179
21
-140.179
0
LINE
8
BLACK
6
CONTINUOUS
10
448.179
20
-140.179
11
448.179
21
-140.393
0
LINE
8
BLACK
6
CONTINUOUS
10
448.179
20
-140.393
11
448.107
21
-140.536
0
LINE
8
BLACK
6
CONTINUOUS
10
448.107
20
-140.536
11
448.036
21
-140.607
0
LINE
8
BLACK
6
CONTINUOUS
10
448.036
20
-140.607
11
447.893
21
-140.679
0
LINE
8
BLACK
6
CONTINUOUS
10
447.893
20
-140.679
11
447.321
21
-140.679
0
LINE
8
BLACK
6
CONTINUOUS
10
447.321
20
-140.679
11
447.321
21
-139.179
0
LINE
8
BLACK
6
CONTINUOUS
10
447.321
20
-139.179
11
447.821
21
-139.179
0
LINE
8
BLACK
6
CONTINUOUS
10
447.821
20
-139.179
11
447.964
21
-139.25
0
LINE
8
BLACK
6
CONTINUOUS
10
447.964
20
-139.25
11
448.036
21
-139.321
0
LINE
8
BLACK
6
CONTINUOUS
10
448.036
20
-139.321
11
448.107
21
-139.464
0
LINE
8
BLACK
6
CONTINUOUS
10
448.107
20
-139.464
11
448.107
21
-139.607
0
LINE
8
BLACK
6
CONTINUOUS
10
448.107
20
-139.607
11
448.036
21
-139.75
0
LINE
8
BLACK
6
CONTINUOUS
10
448.036
20
-139.75
11
447.964
21
-139.821
0
LINE
8
BLACK
6
CONTINUOUS
10
447.964
20
-139.821
11
447.821
21
-139.893
0
LINE
8
BLACK
6
CONTINUOUS
10
447.821
20
-139.893
11
447.321
21
-139.893
0
LINE
8
BLACK
6
CONTINUOUS
10
449.107
20
-139.179
11
449.393
21
-139.179
0
LINE
8
BLACK
6
CONTINUOUS
10
449.393
20
-139.179
11
449.536
21
-139.25
0
LINE
8
BLACK
6
CONTINUOUS
10
449.536
20
-139.25
11
449.679
21
-139.393
0
LINE
8
BLACK
6
CONTINUOUS
10
449.679
20
-139.393
11
449.75
21
-139.679
0
LINE
8
BLACK
6
CONTINUOUS
10
449.75
20
-139.679
11
449.75
21
-140.179
0
LINE
8
BLACK
6
CONTINUOUS
10
449.75
20
-140.179
11
449.679
21
-140.464
0
LINE
8
BLACK
6
CONTINUOUS
10
449.679
20
-140.464
11
449.536
21
-140.607
0
LINE
8
BLACK
6
CONTINUOUS
10
449.536
20
-140.607
11
449.393
21
-140.679
0
LINE
8
BLACK
6
CONTINUOUS
10
449.393
20
-140.679
11
449.107
21
-140.679
0
LINE
8
BLACK
6
CONTINUOUS
10
449.107
20
-140.679
11
448.964
21
-140.607
0
LINE
8
BLACK
6
CONTINUOUS
10
448.964
20
-140.607
11
448.821
21
-140.464
0
LINE
8
BLACK
6
CONTINUOUS
10
448.821
20
-140.464
11
448.75
21
-140.179
0
LINE
8
BLACK
6
CONTINUOUS
10
448.75
20
-140.179
11
448.75
21
-139.679
0
LINE
8
BLACK
6
CONTINUOUS
10
448.75
20
-139.679
11
448.821
21
-139.393
0
LINE
8
BLACK
6
CONTINUOUS
10
448.821
20
-139.393
11
448.964
21
-139.25
0
LINE
8
BLACK
6
CONTINUOUS
10
448.964
20
-139.25
11
449.107
21
-139.179
0
LINE
8
BLACK
6
CONTINUOUS
10
450.321
20
-140.25
11
451.036
21
-140.25
0
LINE
8
BLACK
6
CONTINUOUS
10
450.179
20
-140.679
11
450.679
21
-139.179
0
LINE
8
BLACK
6
CONTINUOUS
10
450.679
20
-139.179
11
451.179
21
-140.679
0
LINE
8
BLACK
6
CONTINUOUS
10
452.536
20
-140.679
11
452.036
21
-139.964
0
LINE
8
BLACK
6
CONTINUOUS
10
451.679
20
-140.679
11
451.679
21
-139.179
0
LINE
8
BLACK
6
CONTINUOUS
10
451.679
20
-139.179
11
452.25
21
-139.179
0
LINE
8
BLACK
6
CONTINUOUS
10
452.25
20
-139.179
11
452.393
21
-139.25
0
LINE
8
BLACK
6
CONTINUOUS
10
452.393
20
-139.25
11
452.464
21
-139.321
0
LINE
8
BLACK
6
CONTINUOUS
10
452.464
20
-139.321
11
452.536
21
-139.464
0
LINE
8
BLACK
6
CONTINUOUS
10
452.536
20
-139.464
11
452.536
21
-139.679
0
LINE
8
BLACK
6
CONTINUOUS
10
452.536
20
-139.679
11
452.464
21
-139.821
0
LINE
8
BLACK
6
CONTINUOUS
10
452.464
20
-139.821
11
452.393
21
-139.893
0
LINE
8
BLACK
6
CONTINUOUS
10
452.393
20
-139.893
11
452.25
21
-139.964
0
LINE
8
BLACK
6
CONTINUOUS
10
452.25
20
-139.964
11
451.679
21
-139.964
0
LINE
8
BLACK
6
CONTINUOUS
10
453.179
20
-140.679
11
453.179
21
-139.179
0
LINE
8
BLACK
6
CONTINUOUS
10
453.179
20
-139.179
11
453.536
21
-139.179
0
LINE
8
BLACK
6
CONTINUOUS
10
453.536
20
-139.179
11
453.75
21
-139.25
0
LINE
8
BLACK
6
CONTINUOUS
10
453.75
20
-139.25
11
453.893
21
-139.393
0
LINE
8
BLACK
6
CONTINUOUS
10
453.893
20
-139.393
11
453.964
21
-139.536
0
LINE
8
BLACK
6
CONTINUOUS
10
453.964
20
-139.536
11
454.036
21
-139.821
0
LINE
8
BLACK
6
CONTINUOUS
10
454.036
20
-139.821
11
454.036
21
-140.036
0
LINE
8
BLACK
6
CONTINUOUS
10
454.036
20
-140.036
11
453.964
21
-140.321
0
LINE
8
BLACK
6
CONTINUOUS
10
453.964
20
-140.321
11
453.893
21
-140.464
0
LINE
8
BLACK
6
CONTINUOUS
10
453.893
20
-140.464
11
453.75
21
-140.607
0
LINE
8
BLACK
6
CONTINUOUS
10
453.75
20
-140.607
11
453.536
21
-140.679
0
LINE
8
BLACK
6
CONTINUOUS
10
453.536
20
-140.679
11
453.179
21
-140.679
0
LINE
8
BLACK
6
CONTINUOUS
10
454.607
20
-139.321
11
454.679
21
-139.25
0
LINE
8
BLACK
6
CONTINUOUS
10
454.679
20
-139.25
11
454.821
21
-139.179
0
LINE
8
BLACK
6
CONTINUOUS
10
454.821
20
-139.179
11
455.179
21
-139.179
0
LINE
8
BLACK
6
CONTINUOUS
10
455.179
20
-139.179
11
455.321
21
-139.25
0
LINE
8
BLACK
6
CONTINUOUS
10
455.321
20
-139.25
11
455.393
21
-139.321
0
LINE
8
BLACK
6
CONTINUOUS
10
455.393
20
-139.321
11
455.464
21
-139.464
0
LINE
8
BLACK
6
CONTINUOUS
10
455.464
20
-139.464
11
455.464
21
-139.607
0
LINE
8
BLACK
6
CONTINUOUS
10
455.464
20
-139.607
11
455.393
21
-139.821
0
LINE
8
BLACK
6
CONTINUOUS
10
455.393
20
-139.821
11
454.536
21
-140.679
0
LINE
8
BLACK
6
CONTINUOUS
10
454.536
20
-140.679
11
455.464
21
-140.679
0
LINE
8
BLACK
6
CONTINUOUS
10
434.607
20
-340.679
11
434.607
21
-339.179
0
LINE
8
BLACK
6
CONTINUOUS
10
434.607
20
-339.179
11
435.179
21
-339.179
0
LINE
8
BLACK
6
CONTINUOUS
10
435.179
20
-339.179
11
435.321
21
-339.25
0
LINE
8
BLACK
6
CONTINUOUS
10
435.321
20
-339.25
11
435.393
21
-339.321
0
LINE
8
BLACK
6
CONTINUOUS
10
435.393
20
-339.321
11
435.464
21
-339.464
0
LINE
8
BLACK
6
CONTINUOUS
10
435.464
20
-339.464
11
435.464
21
-339.679
0
LINE
8
BLACK
6
CONTINUOUS
10
435.464
20
-339.679
11
435.393
21
-339.821
0
LINE
8
BLACK
6
CONTINUOUS
10
435.393
20
-339.821
11
435.321
21
-339.893
0
LINE
8
BLACK
6
CONTINUOUS
10
435.321
20
-339.893
11
435.179
21
-339.964
0
LINE
8
BLACK
6
CONTINUOUS
10
435.179
20
-339.964
11
434.607
21
-339.964
0
LINE
8
BLACK
6
CONTINUOUS
10
436.964
20
-340.536
11
436.893
21
-340.607
0
LINE
8
BLACK
6
CONTINUOUS
10
436.893
20
-340.607
11
436.679
21
-340.679
0
LINE
8
BLACK
6
CONTINUOUS
10
436.679
20
-340.679
11
436.536
21
-340.679
0
LINE
8
BLACK
6
CONTINUOUS
10
436.536
20
-340.679
11
436.321
21
-340.607
0
LINE
8
BLACK
6
CONTINUOUS
10
436.321
20
-340.607
11
436.179
21
-340.464
0
LINE
8
BLACK
6
CONTINUOUS
10
436.179
20
-340.464
11
436.107
21
-340.321
0
LINE
8
BLACK
6
CONTINUOUS
10
436.107
20
-340.321
11
436.036
21
-340.036
0
LINE
8
BLACK
6
CONTINUOUS
10
436.036
20
-340.036
11
436.036
21
-339.821
0
LINE
8
BLACK
6
CONTINUOUS
10
436.036
20
-339.821
11
436.107
21
-339.536
0
LINE
8
BLACK
6
CONTINUOUS
10
436.107
20
-339.536
11
436.179
21
-339.393
0
LINE
8
BLACK
6
CONTINUOUS
10
436.179
20
-339.393
11
436.321
21
-339.25
0
LINE
8
BLACK
6
CONTINUOUS
10
436.321
20
-339.25
11
436.536
21
-339.179
0
LINE
8
BLACK
6
CONTINUOUS
10
436.536
20
-339.179
11
436.679
21
-339.179
0
LINE
8
BLACK
6
CONTINUOUS
10
436.679
20
-339.179
11
436.893
21
-339.25
0
LINE
8
BLACK
6
CONTINUOUS
10
436.893
20
-339.25
11
436.964
21
-339.321
0
LINE
8
BLACK
6
CONTINUOUS
10
438.107
20
-339.893
11
438.321
21
-339.964
0
LINE
8
BLACK
6
CONTINUOUS
10
438.321
20
-339.964
11
438.393
21
-340.036
0
LINE
8
BLACK
6
CONTINUOUS
10
438.393
20
-340.036
11
438.464
21
-340.179
0
LINE
8
BLACK
6
CONTINUOUS
10
438.464
20
-340.179
11
438.464
21
-340.393
0
LINE
8
BLACK
6
CONTINUOUS
10
438.464
20
-340.393
11
438.393
21
-340.536
0
LINE
8
BLACK
6
CONTINUOUS
10
438.393
20
-340.536
11
438.321
21
-340.607
0
LINE
8
BLACK
6
CONTINUOUS
10
438.321
20
-340.607
11
438.179
21
-340.679
0
LINE
8
BLACK
6
CONTINUOUS
10
438.179
20
-340.679
11
437.607
21
-340.679
0
LINE
8
BLACK
6
CONTINUOUS
10
437.607
20
-340.679
11
437.607
21
-339.179
0
LINE
8
BLACK
6
CONTINUOUS
10
437.607
20
-339.179
11
438.107
21
-339.179
0
LINE
8
BLACK
6
CONTINUOUS
10
438.107
20
-339.179
11
438.25
21
-339.25
0
LINE
8
BLACK
6
CONTINUOUS
10
438.25
20
-339.25
11
438.321
21
-339.321
0
LINE
8
BLACK
6
CONTINUOUS
10
438.321
20
-339.321
11
438.393
21
-339.464
0
LINE
8
BLACK
6
CONTINUOUS
10
438.393
20
-339.464
11
438.393
21
-339.607
0
LINE
8
BLACK
6
CONTINUOUS
10
438.393
20
-339.607
11
438.321
21
-339.75
0
LINE
8
BLACK
6
CONTINUOUS
10
438.321
20
-339.75
11
438.25
21
-339.821
0
LINE
8
BLACK
6
CONTINUOUS
10
438.25
20
-339.821
11
438.107
21
-339.893
0
LINE
8
BLACK
6
CONTINUOUS
10
438.107
20
-339.893
11
437.607
21
-339.893
0
LINE
8
BLACK
6
CONTINUOUS
10
438.964
20
-339.179
11
439.893
21
-339.179
0
LINE
8
BLACK
6
CONTINUOUS
10
439.893
20
-339.179
11
439.393
21
-339.75
0
LINE
8
BLACK
6
CONTINUOUS
10
439.393
20
-339.75
11
439.607
21
-339.75
0
LINE
8
BLACK
6
CONTINUOUS
10
439.607
20
-339.75
11
439.75
21
-339.821
0
LINE
8
BLACK
6
CONTINUOUS
10
439.75
20
-339.821
11
439.821
21
-339.893
0
LINE
8
BLACK
6
CONTINUOUS
10
439.821
20
-339.893
11
439.893
21
-340.036
0
LINE
8
BLACK
6
CONTINUOUS
10
439.893
20
-340.036
11
439.893
21
-340.393
0
LINE
8
BLACK
6
CONTINUOUS
10
439.893
20
-340.393
11
439.821
21
-340.536
0
LINE
8
BLACK
6
CONTINUOUS
10
439.821
20
-340.536
11
439.75
21
-340.607
0
LINE
8
BLACK
6
CONTINUOUS
10
439.75
20
-340.607
11
439.607
21
-340.679
0
LINE
8
BLACK
6
CONTINUOUS
10
439.607
20
-340.679
11
439.179
21
-340.679
0
LINE
8
BLACK
6
CONTINUOUS
10
439.179
20
-340.679
11
439.036
21
-340.607
0
LINE
8
BLACK
6
CONTINUOUS
10
439.036
20
-340.607
11
438.964
21
-340.536
0
LINE
8
BLACK
6
CONTINUOUS
10
440.536
20
-340.679
11
440.536
21
-339.179
0
LINE
8
BLACK
6
CONTINUOUS
10
440.536
20
-339.179
11
440.893
21
-339.179
0
LINE
8
BLACK
6
CONTINUOUS
10
440.893
20
-339.179
11
441.107
21
-339.25
0
LINE
8
BLACK
6
CONTINUOUS
10
441.107
20
-339.25
11
441.25
21
-339.393
0
LINE
8
BLACK
6
CONTINUOUS
10
441.25
20
-339.393
11
441.321
21
-339.536
0
LINE
8
BLACK
6
CONTINUOUS
10
441.321
20
-339.536
11
441.393
21
-339.821
0
LINE
8
BLACK
6
CONTINUOUS
10
441.393
20
-339.821
11
441.393
21
-340.036
0
LINE
8
BLACK
6
CONTINUOUS
10
441.393
20
-340.036
11
441.321
21
-340.321
0
LINE
8
BLACK
6
CONTINUOUS
10
441.321
20
-340.321
11
441.25
21
-340.464
0
LINE
8
BLACK
6
CONTINUOUS
10
441.25
20
-340.464
11
441.107
21
-340.607
0
LINE
8
BLACK
6
CONTINUOUS
10
441.107
20
-340.607
11
440.893
21
-340.679
0
LINE
8
BLACK
6
CONTINUOUS
10
440.893
20
-340.679
11
440.536
21
-340.679
0
LINE
8
BLACK
6
CONTINUOUS
10
441.679
20
-340.821
11
442.821
21
-340.821
0
LINE
8
BLACK
6
CONTINUOUS
10
443.679
20
-339.893
11
443.893
21
-339.964
0
LINE
8
BLACK
6
CONTINUOUS
10
443.893
20
-339.964
11
443.964
21
-340.036
0
LINE
8
BLACK
6
CONTINUOUS
10
443.964
20
-340.036
11
444.036
21
-340.179
0
LINE
8
BLACK
6
CONTINUOUS
10
444.036
20
-340.179
11
444.036
21
-340.393
0
LINE
8
BLACK
6
CONTINUOUS
10
444.036
20
-340.393
11
443.964
21
-340.536
0
LINE
8
BLACK
6
CONTINUOUS
10
443.964
20
-340.536
11
443.893
21
-340.607
0
LINE
8
BLACK
6
CONTINUOUS
10
443.893
20
-340.607
11
443.75
21
-340.679
0
LINE
8
BLACK
6
CONTINUOUS
10
443.75
20
-340.679
11
443.179
21
-340.679
0
LINE
8
BLACK
6
CONTINUOUS
10
443.179
20
-340.679
11
443.179
21
-339.179
0
LINE
8
BLACK
6
CONTINUOUS
10
443.179
20
-339.179
11
443.679
21
-339.179
0
LINE
8
BLACK
6
CONTINUOUS
10
443.679
20
-339.179
11
443.821
21
-339.25
0
LINE
8
BLACK
6
CONTINUOUS
10
443.821
20
-339.25
11
443.893
21
-339.321
0
LINE
8
BLACK
6
CONTINUOUS
10
443.893
20
-339.321
11
443.964
21
-339.464
0
LINE
8
BLACK
6
CONTINUOUS
10
443.964
20
-339.464
11
443.964
21
-339.607
0
LINE
8
BLACK
6
CONTINUOUS
10
443.964
20
-339.607
11
443.893
21
-339.75
0
LINE
8
BLACK
6
CONTINUOUS
10
443.893
20
-339.75
11
443.821
21
-339.821
0
LINE
8
BLACK
6
CONTINUOUS
10
443.821
20
-339.821
11
443.679
21
-339.893
0
LINE
8
BLACK
6
CONTINUOUS
10
443.679
20
-339.893
11
443.179
21
-339.893
0
LINE
8
BLACK
6
CONTINUOUS
10
445.536
20
-340.679
11
445.036
21
-339.964
0
LINE
8
BLACK
6
CONTINUOUS
10
444.679
20
-340.679
11
444.679
21
-339.179
0
LINE
8
BLACK
6
CONTINUOUS
10
444.679
20
-339.179
11
445.25
21
-339.179
0
LINE
8
BLACK
6
CONTINUOUS
10
445.25
20
-339.179
11
445.393
21
-339.25
0
LINE
8
BLACK
6
CONTINUOUS
10
445.393
20
-339.25
11
445.464
21
-339.321
0
LINE
8
BLACK
6
CONTINUOUS
10
445.464
20
-339.321
11
445.536
21
-339.464
0
LINE
8
BLACK
6
CONTINUOUS
10
445.536
20
-339.464
11
445.536
21
-339.679
0
LINE
8
BLACK
6
CONTINUOUS
10
445.536
20
-339.679
11
445.464
21
-339.821
0
LINE
8
BLACK
6
CONTINUOUS
10
445.464
20
-339.821
11
445.393
21
-339.893
0
LINE
8
BLACK
6
CONTINUOUS
10
445.393
20
-339.893
11
445.25
21
-339.964
0
LINE
8
BLACK
6
CONTINUOUS
10
445.25
20
-339.964
11
444.679
21
-339.964
0
LINE
8
BLACK
6
CONTINUOUS
10
445.821
20
-340.821
11
446.964
21
-340.821
0
LINE
8
BLACK
6
CONTINUOUS
10
447.821
20
-339.893
11
448.036
21
-339.964
0
LINE
8
BLACK
6
CONTINUOUS
10
448.036
20
-339.964
11
448.107
21
-340.036
0
LINE
8
BLACK
6
CONTINUOUS
10
448.107
20
-340.036
11
448.179
21
-340.179
0
LINE
8
BLACK
6
CONTINUOUS
10
448.179
20
-340.179
11
448.179
21
-340.393
0
LINE
8
BLACK
6
CONTINUOUS
10
448.179
20
-340.393
11
448.107
21
-340.536
0
LINE
8
BLACK
6
CONTINUOUS
10
448.107
20
-340.536
11
448.036
21
-340.607
0
LINE
8
BLACK
6
CONTINUOUS
10
448.036
20
-340.607
11
447.893
21
-340.679
0
LINE
8
BLACK
6
CONTINUOUS
10
447.893
20
-340.679
11
447.321
21
-340.679
0
LINE
8
BLACK
6
CONTINUOUS
10
447.321
20
-340.679
11
447.321
21
-339.179
0
LINE
8
BLACK
6
CONTINUOUS
10
447.321
20
-339.179
11
447.821
21
-339.179
0
LINE
8
BLACK
6
CONTINUOUS
10
447.821
20
-339.179
11
447.964
21
-339.25
0
LINE
8
BLACK
6
CONTINUOUS
10
447.964
20
-339.25
11
448.036
21
-339.321
0
LINE
8
BLACK
6
CONTINUOUS
10
448.036
20
-339.321
11
448.107
21
-339.464
0
LINE
8
BLACK
6
CONTINUOUS
10
448.107
20
-339.464
11
448.107
21
-339.607
0
LINE
8
BLACK
6
CONTINUOUS
10
448.107
20
-339.607
11
448.036
21
-339.75
0
LINE
8
BLACK
6
CONTINUOUS
10
448.036
20
-339.75
11
447.964
21
-339.821
0
LINE
8
BLACK
6
CONTINUOUS
10
447.964
20
-339.821
11
447.821
21
-339.893
0
LINE
8
BLACK
6
CONTINUOUS
10
447.821
20
-339.893
11
447.321
21
-339.893
0
LINE
8
BLACK
6
CONTINUOUS
10
449.107
20
-339.179
11
449.393
21
-339.179
0
LINE
8
BLACK
6
CONTINUOUS
10
449.393
20
-339.179
11
449.536
21
-339.25
0
LINE
8
BLACK
6
CONTINUOUS
10
449.536
20
-339.25
11
449.679
21
-339.393
0
LINE
8
BLACK
6
CONTINUOUS
10
449.679
20
-339.393
11
449.75
21
-339.679
0
LINE
8
BLACK
6
CONTINUOUS
10
449.75
20
-339.679
11
449.75
21
-340.179
0
LINE
8
BLACK
6
CONTINUOUS
10
449.75
20
-340.179
11
449.679
21
-340.464
0
LINE
8
BLACK
6
CONTINUOUS
10
449.679
20
-340.464
11
449.536
21
-340.607
0
LINE
8
BLACK
6
CONTINUOUS
10
449.536
20
-340.607
11
449.393
21
-340.679
0
LINE
8
BLACK
6
CONTINUOUS
10
449.393
20
-340.679
11
449.107
21
-340.679
0
LINE
8
BLACK
6
CONTINUOUS
10
449.107
20
-340.679
11
448.964
21
-340.607
0
LINE
8
BLACK
6
CONTINUOUS
10
448.964
20
-340.607
11
448.821
21
-340.464
0
LINE
8
BLACK
6
CONTINUOUS
10
448.821
20
-340.464
11
448.75
21
-340.179
0
LINE
8
BLACK
6
CONTINUOUS
10
448.75
20
-340.179
11
448.75
21
-339.679
0
LINE
8
BLACK
6
CONTINUOUS
10
448.75
20
-339.679
11
448.821
21
-339.393
0
LINE
8
BLACK
6
CONTINUOUS
10
448.821
20
-339.393
11
448.964
21
-339.25
0
LINE
8
BLACK
6
CONTINUOUS
10
448.964
20
-339.25
11
449.107
21
-339.179
0
LINE
8
BLACK
6
CONTINUOUS
10
450.321
20
-340.25
11
451.036
21
-340.25
0
LINE
8
BLACK
6
CONTINUOUS
10
450.179
20
-340.679
11
450.679
21
-339.179
0
LINE
8
BLACK
6
CONTINUOUS
10
450.679
20
-339.179
11
451.179
21
-340.679
0
LINE
8
BLACK
6
CONTINUOUS
10
452.536
20
-340.679
11
452.036
21
-339.964
0
LINE
8
BLACK
6
CONTINUOUS
10
451.679
20
-340.679
11
451.679
21
-339.179
0
LINE
8
BLACK
6
CONTINUOUS
10
451.679
20
-339.179
11
452.25
21
-339.179
0
LINE
8
BLACK
6
CONTINUOUS
10
452.25
20
-339.179
11
452.393
21
-339.25
0
LINE
8
BLACK
6
CONTINUOUS
10
452.393
20
-339.25
11
452.464
21
-339.321
0
LINE
8
BLACK
6
CONTINUOUS
10
452.464
20
-339.321
11
452.536
21
-339.464
0
LINE
8
BLACK
6
CONTINUOUS
10
452.536
20
-339.464
11
452.536
21
-339.679
0
LINE
8
BLACK
6
CONTINUOUS
10
452.536
20
-339.679
11
452.464
21
-339.821
0
LINE
8
BLACK
6
CONTINUOUS
10
452.464
20
-339.821
11
452.393
21
-339.893
0
LINE
8
BLACK
6
CONTINUOUS
10
452.393
20
-339.893
11
452.25
21
-339.964
0
LINE
8
BLACK
6
CONTINUOUS
10
452.25
20
-339.964
11
451.679
21
-339.964
0
LINE
8
BLACK
6
CONTINUOUS
10
453.179
20
-340.679
11
453.179
21
-339.179
0
LINE
8
BLACK
6
CONTINUOUS
10
453.179
20
-339.179
11
453.536
21
-339.179
0
LINE
8
BLACK
6
CONTINUOUS
10
453.536
20
-339.179
11
453.75
21
-339.25
0
LINE
8
BLACK
6
CONTINUOUS
10
453.75
20
-339.25
11
453.893
21
-339.393
0
LINE
8
BLACK
6
CONTINUOUS
10
453.893
20
-339.393
11
453.964
21
-339.536
0
LINE
8
BLACK
6
CONTINUOUS
10
453.964
20
-339.536
11
454.036
21
-339.821
0
LINE
8
BLACK
6
CONTINUOUS
10
454.036
20
-339.821
11
454.036
21
-340.036
0
LINE
8
BLACK
6
CONTINUOUS
10
454.036
20
-340.036
11
453.964
21
-340.321
0
LINE
8
BLACK
6
CONTINUOUS
10
453.964
20
-340.321
11
453.893
21
-340.464
0
LINE
8
BLACK
6
CONTINUOUS
10
453.893
20
-340.464
11
453.75
21
-340.607
0
LINE
8
BLACK
6
CONTINUOUS
10
453.75
20
-340.607
11
453.536
21
-340.679
0
LINE
8
BLACK
6
CONTINUOUS
10
453.536
20
-340.679
11
453.179
21
-340.679
0
LINE
8
BLACK
6
CONTINUOUS
10
454.536
20
-339.179
11
455.464
21
-339.179
0
LINE
8
BLACK
6
CONTINUOUS
10
455.464
20
-339.179
11
454.964
21
-339.75
0
LINE
8
BLACK
6
CONTINUOUS
10
454.964
20
-339.75
11
455.179
21
-339.75
0
LINE
8
BLACK
6
CONTINUOUS
10
455.179
20
-339.75
11
455.321
21
-339.821
0
LINE
8
BLACK
6
CONTINUOUS
10
455.321
20
-339.821
11
455.393
21
-339.893
0
LINE
8
BLACK
6
CONTINUOUS
10
455.393
20
-339.893
11
455.464
21
-340.036
0
LINE
8
BLACK
6
CONTINUOUS
10
455.464
20
-340.036
11
455.464
21
-340.393
0
LINE
8
BLACK
6
CONTINUOUS
10
455.464
20
-340.393
11
455.393
21
-340.536
0
LINE
8
BLACK
6
CONTINUOUS
10
455.393
20
-340.536
11
455.321
21
-340.607
0
LINE
8
BLACK
6
CONTINUOUS
10
455.321
20
-340.607
11
455.179
21
-340.679
0
LINE
8
BLACK
6
CONTINUOUS
10
455.179
20
-340.679
11
454.75
21
-340.679
0
LINE
8
BLACK
6
CONTINUOUS
10
454.75
20
-340.679
11
454.607
21
-340.607
0
LINE
8
BLACK
6
CONTINUOUS
10
454.607
20
-340.607
11
454.536
21
-340.536
0
CIRCLE
8
BLACK
10
273
20
-122
40
3.2
0
CIRCLE
8
BLACK
10
378
20
-23
40
3.2
0
CIRCLE
8
BLACK
10
380
20
-68
40
3.2
0
CIRCLE
8
BLACK
10
377
20
-101.09
40
3.2
  0
ENDSEC
  0
EOF
