  0
SECTION
  2
HEADER
  9
$ANGBASE
  50
0.0
  9
$ANGDIR
  70
1
  9
$MEASUREMENT
  70
1
  0
ENDSEC
  0
SECTION
  2
TABLES
  0
TABLE
  2
LTYPE
  70
4
  0
LTYPE
  5
40F
  2
CONTINUOUS
  70
0
  3
Solid line
  72
65
  73
0
  40
0.0
  0
LTYPE
  5
410
  2
DASHDOT
 70
0
  3
Dash Dot ____ _ ____ _
 72
65
 73
4
 40
2.0
 49
1.25
 49
-0.25
 49
0.25
 49
-0.25
  0
LTYPE
  5
411
  2
DASHED
 70
0
  3
Dashed __ __ __ __ __
 72
65
 73
2
 40
0.75
 49
0.5
 49
-0.25
  0
LTYPE
  5
43B
  2
DOTTED
 70
0
  3
Dotted .  .  .  .
 72
65
 73
2
 40
0.2
 49
0.0
 49
-0.2
  0
ENDTAB
  0
TABLE
  2
STYLE
  70
4
  0
STYLE
  2
KICAD
  70
0
  40
0
  41
1
  42
1
  50
0
  71
0
  3
isocp.shx
  0
STYLE
  2
KICADB
  70
0
  40
0
  41
1
  42
1
  50
0
  71
0
  3
isocp.shx
  0
STYLE
  2
KICADI
  70
0
  40
0
  41
1
  42
1
  50
15
  71
0
  3
isocp.shx
  0
STYLE
  2
KICADBI
  70
0
  40
0
  41
1
  42
1
  50
15
  71
0
  3
isocp.shx
  0
ENDTAB
  0
TABLE
  2
LAYER
  70
1
  0
LAYER
  2
BLACK
  70
0
  62
7
  6
CONTINUOUS
  0
ENDTAB
  0
ENDSEC
  0
SECTION
  2
ENTITIES
0
LINE
8
BLACK
6
CONTINUOUS
10
71.0354
20
-15.9646
11
71.05
21
-16
0
LINE
8
BLACK
6
CONTINUOUS
10
71.05
20
-16
11
71.0354
21
-16.0354
0
LINE
8
BLACK
6
CONTINUOUS
10
71.0354
20
-16.0354
11
71
21
-16.05
0
LINE
8
BLACK
6
CONTINUOUS
10
71
20
-16.05
11
17
21
-16.05
0
LINE
8
BLACK
6
CONTINUOUS
10
17
20
-16.05
11
16.9928
21
-16.047
0
LINE
8
BLACK
6
CONTINUOUS
10
16.9928
20
-16.047
11
16.8344
21
-16.0609
0
LINE
8
BLACK
6
CONTINUOUS
10
16.8344
20
-16.0609
11
16.6738
21
-16.1039
0
LINE
8
BLACK
6
CONTINUOUS
10
16.6738
20
-16.1039
11
16.5232
21
-16.1741
0
LINE
8
BLACK
6
CONTINUOUS
10
16.5232
20
-16.1741
11
16.387
21
-16.2695
0
LINE
8
BLACK
6
CONTINUOUS
10
16.387
20
-16.2695
11
16.2695
21
-16.387
0
LINE
8
BLACK
6
CONTINUOUS
10
16.2695
20
-16.387
11
16.1741
21
-16.5232
0
LINE
8
BLACK
6
CONTINUOUS
10
16.1741
20
-16.5232
11
16.1039
21
-16.6738
0
LINE
8
BLACK
6
CONTINUOUS
10
16.1039
20
-16.6738
11
16.0609
21
-16.8344
0
LINE
8
BLACK
6
CONTINUOUS
10
16.0609
20
-16.8344
11
16.047
21
-16.9928
0
LINE
8
BLACK
6
CONTINUOUS
10
16.047
20
-16.9928
11
16.05
21
-17
0
LINE
8
BLACK
6
CONTINUOUS
10
16.05
20
-17
11
16.0354
21
-17.0354
0
LINE
8
BLACK
6
CONTINUOUS
10
16.0354
20
-17.0354
11
16
21
-17.05
0
LINE
8
BLACK
6
CONTINUOUS
10
16
20
-17.05
11
15.9646
21
-17.0354
0
LINE
8
BLACK
6
CONTINUOUS
10
15.9646
20
-17.0354
11
15.95
21
-17
0
LINE
8
BLACK
6
CONTINUOUS
10
15.95
20
-17
11
15.966
21
-16.8177
0
LINE
8
BLACK
6
CONTINUOUS
10
15.966
20
-16.8177
11
16.0133
21
-16.6409
0
LINE
8
BLACK
6
CONTINUOUS
10
16.0133
20
-16.6409
11
16.0907
21
-16.475
0
LINE
8
BLACK
6
CONTINUOUS
10
16.0907
20
-16.475
11
16.1957
21
-16.3251
0
LINE
8
BLACK
6
CONTINUOUS
10
16.1957
20
-16.3251
11
16.3251
21
-16.1957
0
LINE
8
BLACK
6
CONTINUOUS
10
16.3251
20
-16.1957
11
16.475
21
-16.0907
0
LINE
8
BLACK
6
CONTINUOUS
10
16.475
20
-16.0907
11
16.6409
21
-16.0133
0
LINE
8
BLACK
6
CONTINUOUS
10
16.6409
20
-16.0133
11
16.8177
21
-15.966
0
LINE
8
BLACK
6
CONTINUOUS
10
16.8177
20
-15.966
11
17
21
-15.95
0
LINE
8
BLACK
6
CONTINUOUS
10
17
20
-15.95
11
71
21
-15.95
0
LINE
8
BLACK
6
CONTINUOUS
10
71
20
-15.95
11
71.0354
21
-15.9646
0
LINE
8
BLACK
6
CONTINUOUS
10
110.975
20
-110.452
11
111.038
21
-109.97
0
LINE
8
BLACK
6
CONTINUOUS
10
111.038
20
-109.97
11
111.14
21
-109.495
0
LINE
8
BLACK
6
CONTINUOUS
10
111.14
20
-109.495
11
111.28
21
-109.03
0
LINE
8
BLACK
6
CONTINUOUS
10
111.28
20
-109.03
11
111.456
21
-108.578
0
LINE
8
BLACK
6
CONTINUOUS
10
111.456
20
-108.578
11
111.668
21
-108.141
0
LINE
8
BLACK
6
CONTINUOUS
10
111.668
20
-108.141
11
111.915
21
-107.723
0
LINE
8
BLACK
6
CONTINUOUS
10
111.915
20
-107.723
11
112.194
21
-107.325
0
LINE
8
BLACK
6
CONTINUOUS
10
112.194
20
-107.325
11
112.504
21
-106.952
0
LINE
8
BLACK
6
CONTINUOUS
10
112.504
20
-106.952
11
112.843
21
-106.604
0
LINE
8
BLACK
6
CONTINUOUS
10
112.843
20
-106.604
11
113.209
21
-106.285
0
LINE
8
BLACK
6
CONTINUOUS
10
113.209
20
-106.285
11
113.599
21
-105.996
0
LINE
8
BLACK
6
CONTINUOUS
10
113.599
20
-105.996
11
114.012
21
-105.74
0
LINE
8
BLACK
6
CONTINUOUS
10
114.012
20
-105.74
11
114.443
21
-105.517
0
LINE
8
BLACK
6
CONTINUOUS
10
114.443
20
-105.517
11
114.891
21
-105.329
0
LINE
8
BLACK
6
CONTINUOUS
10
114.891
20
-105.329
11
115.353
21
-105.179
0
LINE
8
BLACK
6
CONTINUOUS
10
115.353
20
-105.179
11
115.825
21
-105.065
0
LINE
8
BLACK
6
CONTINUOUS
10
115.825
20
-105.065
11
116.305
21
-104.99
0
LINE
8
BLACK
6
CONTINUOUS
10
116.305
20
-104.99
11
116.789
21
-104.954
0
LINE
8
BLACK
6
CONTINUOUS
10
116.789
20
-104.954
11
117.274
21
-104.956
0
LINE
8
BLACK
6
CONTINUOUS
10
117.274
20
-104.956
11
117.758
21
-104.998
0
LINE
8
BLACK
6
CONTINUOUS
10
117.758
20
-104.998
11
118.237
21
-105.078
0
LINE
8
BLACK
6
CONTINUOUS
10
118.237
20
-105.078
11
118.708
21
-105.196
0
LINE
8
BLACK
6
CONTINUOUS
10
118.708
20
-105.196
11
119.168
21
-105.352
0
LINE
8
BLACK
6
CONTINUOUS
10
119.168
20
-105.352
11
119.614
21
-105.544
0
LINE
8
BLACK
6
CONTINUOUS
10
119.614
20
-105.544
11
120.043
21
-105.771
0
LINE
8
BLACK
6
CONTINUOUS
10
120.043
20
-105.771
11
120.453
21
-106.032
0
LINE
8
BLACK
6
CONTINUOUS
10
120.453
20
-106.032
11
120.84
21
-106.325
0
LINE
8
BLACK
6
CONTINUOUS
10
120.84
20
-106.325
11
121.203
21
-106.648
0
LINE
8
BLACK
6
CONTINUOUS
10
121.203
20
-106.648
11
121.538
21
-106.999
0
LINE
8
BLACK
6
CONTINUOUS
10
121.538
20
-106.999
11
121.844
21
-107.376
0
LINE
8
BLACK
6
CONTINUOUS
10
121.844
20
-107.376
11
122.119
21
-107.776
0
LINE
8
BLACK
6
CONTINUOUS
10
122.119
20
-107.776
11
122.362
21
-108.197
0
LINE
8
BLACK
6
CONTINUOUS
10
122.362
20
-108.197
11
122.569
21
-108.636
0
LINE
8
BLACK
6
CONTINUOUS
10
122.569
20
-108.636
11
122.741
21
-109.09
0
LINE
8
BLACK
6
CONTINUOUS
10
122.741
20
-109.09
11
122.875
21
-109.557
0
LINE
8
BLACK
6
CONTINUOUS
10
122.875
20
-109.557
11
122.972
21
-110.033
0
LINE
8
BLACK
6
CONTINUOUS
10
122.972
20
-110.033
11
123.031
21
-110.515
0
LINE
8
BLACK
6
CONTINUOUS
10
123.031
20
-110.515
11
123.05
21
-111
0
LINE
8
BLACK
6
CONTINUOUS
10
123.05
20
-111
11
123.049
21
-111.127
0
LINE
8
BLACK
6
CONTINUOUS
10
123.049
20
-111.127
11
123.019
21
-111.611
0
LINE
8
BLACK
6
CONTINUOUS
10
123.019
20
-111.611
11
122.951
21
-112.092
0
LINE
8
BLACK
6
CONTINUOUS
10
122.951
20
-112.092
11
122.844
21
-112.566
0
LINE
8
BLACK
6
CONTINUOUS
10
122.844
20
-112.566
11
122.699
21
-113.029
0
LINE
8
BLACK
6
CONTINUOUS
10
122.699
20
-113.029
11
122.518
21
-113.48
0
LINE
8
BLACK
6
CONTINUOUS
10
122.518
20
-113.48
11
122.302
21
-113.915
0
LINE
8
BLACK
6
CONTINUOUS
10
122.302
20
-113.915
11
122.051
21
-114.33
0
LINE
8
BLACK
6
CONTINUOUS
10
122.051
20
-114.33
11
121.767
21
-114.725
0
LINE
8
BLACK
6
CONTINUOUS
10
121.767
20
-114.725
11
121.453
21
-115.095
0
LINE
8
BLACK
6
CONTINUOUS
10
121.453
20
-115.095
11
121.111
21
-115.439
0
LINE
8
BLACK
6
CONTINUOUS
10
121.111
20
-115.439
11
120.741
21
-115.754
0
LINE
8
BLACK
6
CONTINUOUS
10
120.741
20
-115.754
11
120.348
21
-116.039
0
LINE
8
BLACK
6
CONTINUOUS
10
120.348
20
-116.039
11
119.933
21
-116.291
0
LINE
8
BLACK
6
CONTINUOUS
10
119.933
20
-116.291
11
119.499
21
-116.51
0
LINE
8
BLACK
6
CONTINUOUS
10
119.499
20
-116.51
11
119.049
21
-116.692
0
LINE
8
BLACK
6
CONTINUOUS
10
119.049
20
-116.692
11
118.586
21
-116.838
0
LINE
8
BLACK
6
CONTINUOUS
10
118.586
20
-116.838
11
118.113
21
-116.947
0
LINE
8
BLACK
6
CONTINUOUS
10
118.113
20
-116.947
11
117.632
21
-117.017
0
LINE
8
BLACK
6
CONTINUOUS
10
117.632
20
-117.017
11
117.148
21
-117.048
0
LINE
8
BLACK
6
CONTINUOUS
10
117.148
20
-117.048
11
116.662
21
-117.041
0
LINE
8
BLACK
6
CONTINUOUS
10
116.662
20
-117.041
11
116.179
21
-116.994
0
LINE
8
BLACK
6
CONTINUOUS
10
116.179
20
-116.994
11
115.701
21
-116.909
0
LINE
8
BLACK
6
CONTINUOUS
10
115.701
20
-116.909
11
115.231
21
-116.786
0
LINE
8
BLACK
6
CONTINUOUS
10
115.231
20
-116.786
11
114.773
21
-116.625
0
LINE
8
BLACK
6
CONTINUOUS
10
114.773
20
-116.625
11
114.329
21
-116.428
0
LINE
8
BLACK
6
CONTINUOUS
10
114.329
20
-116.428
11
113.902
21
-116.197
0
LINE
8
BLACK
6
CONTINUOUS
10
113.902
20
-116.197
11
113.495
21
-115.932
0
LINE
8
BLACK
6
CONTINUOUS
10
113.495
20
-115.932
11
113.111
21
-115.635
0
LINE
8
BLACK
6
CONTINUOUS
10
113.111
20
-115.635
11
112.752
21
-115.308
0
LINE
8
BLACK
6
CONTINUOUS
10
112.752
20
-115.308
11
112.42
21
-114.953
0
LINE
8
BLACK
6
CONTINUOUS
10
112.42
20
-114.953
11
112.118
21
-114.573
0
LINE
8
BLACK
6
CONTINUOUS
10
112.118
20
-114.573
11
111.847
21
-114.17
0
LINE
8
BLACK
6
CONTINUOUS
10
111.847
20
-114.17
11
111.609
21
-113.747
0
LINE
8
BLACK
6
CONTINUOUS
10
111.609
20
-113.747
11
111.406
21
-113.305
0
LINE
8
BLACK
6
CONTINUOUS
10
111.406
20
-113.305
11
111.24
21
-112.849
0
LINE
8
BLACK
6
CONTINUOUS
10
111.24
20
-112.849
11
111.11
21
-112.382
0
LINE
8
BLACK
6
CONTINUOUS
10
111.11
20
-112.382
11
111.018
21
-111.905
0
LINE
8
BLACK
6
CONTINUOUS
10
111.018
20
-111.905
11
110.965
21
-111.422
0
LINE
8
BLACK
6
CONTINUOUS
10
110.965
20
-111.422
11
110.95
21
-110.938
0
LINE
8
BLACK
6
CONTINUOUS
10
110.95
20
-110.938
11
110.95
21
-110.937
0
LINE
8
BLACK
6
CONTINUOUS
10
110.95
20
-110.937
11
110.975
21
-110.452
0
LINE
8
BLACK
6
CONTINUOUS
10
111.112
20
-111.89
11
111.203
21
-112.36
0
LINE
8
BLACK
6
CONTINUOUS
10
111.203
20
-112.36
11
111.33
21
-112.82
0
LINE
8
BLACK
6
CONTINUOUS
10
111.33
20
-112.82
11
111.494
21
-113.269
0
LINE
8
BLACK
6
CONTINUOUS
10
111.494
20
-113.269
11
111.694
21
-113.703
0
LINE
8
BLACK
6
CONTINUOUS
10
111.694
20
-113.703
11
111.928
21
-114.12
0
LINE
8
BLACK
6
CONTINUOUS
10
111.928
20
-114.12
11
112.195
21
-114.517
0
LINE
8
BLACK
6
CONTINUOUS
10
112.195
20
-114.517
11
112.492
21
-114.891
0
LINE
8
BLACK
6
CONTINUOUS
10
112.492
20
-114.891
11
112.819
21
-115.24
0
LINE
8
BLACK
6
CONTINUOUS
10
112.819
20
-115.24
11
113.172
21
-115.562
0
LINE
8
BLACK
6
CONTINUOUS
10
113.172
20
-115.562
11
113.55
21
-115.854
0
LINE
8
BLACK
6
CONTINUOUS
10
113.55
20
-115.854
11
113.951
21
-116.115
0
LINE
8
BLACK
6
CONTINUOUS
10
113.951
20
-116.115
11
114.371
21
-116.343
0
LINE
8
BLACK
6
CONTINUOUS
10
114.371
20
-116.343
11
114.808
21
-116.537
0
LINE
8
BLACK
6
CONTINUOUS
10
114.808
20
-116.537
11
115.259
21
-116.695
0
LINE
8
BLACK
6
CONTINUOUS
10
115.259
20
-116.695
11
115.721
21
-116.816
0
LINE
8
BLACK
6
CONTINUOUS
10
115.721
20
-116.816
11
116.192
21
-116.9
0
LINE
8
BLACK
6
CONTINUOUS
10
116.192
20
-116.9
11
116.668
21
-116.946
0
LINE
8
BLACK
6
CONTINUOUS
10
116.668
20
-116.946
11
117.145
21
-116.953
0
LINE
8
BLACK
6
CONTINUOUS
10
117.145
20
-116.953
11
117.622
21
-116.922
0
LINE
8
BLACK
6
CONTINUOUS
10
117.622
20
-116.922
11
118.095
21
-116.853
0
LINE
8
BLACK
6
CONTINUOUS
10
118.095
20
-116.853
11
118.561
21
-116.747
0
LINE
8
BLACK
6
CONTINUOUS
10
118.561
20
-116.747
11
119.017
21
-116.603
0
LINE
8
BLACK
6
CONTINUOUS
10
119.017
20
-116.603
11
119.46
21
-116.423
0
LINE
8
BLACK
6
CONTINUOUS
10
119.46
20
-116.423
11
119.887
21
-116.208
0
LINE
8
BLACK
6
CONTINUOUS
10
119.887
20
-116.208
11
120.295
21
-115.96
0
LINE
8
BLACK
6
CONTINUOUS
10
120.295
20
-115.96
11
120.683
21
-115.68
0
LINE
8
BLACK
6
CONTINUOUS
10
120.683
20
-115.68
11
121.046
21
-115.369
0
LINE
8
BLACK
6
CONTINUOUS
10
121.046
20
-115.369
11
121.383
21
-115.031
0
LINE
8
BLACK
6
CONTINUOUS
10
121.383
20
-115.031
11
121.692
21
-114.666
0
LINE
8
BLACK
6
CONTINUOUS
10
121.692
20
-114.666
11
121.971
21
-114.278
0
LINE
8
BLACK
6
CONTINUOUS
10
121.971
20
-114.278
11
122.218
21
-113.869
0
LINE
8
BLACK
6
CONTINUOUS
10
122.218
20
-113.869
11
122.432
21
-113.441
0
LINE
8
BLACK
6
CONTINUOUS
10
122.432
20
-113.441
11
122.61
21
-112.998
0
LINE
8
BLACK
6
CONTINUOUS
10
122.61
20
-112.998
11
122.752
21
-112.541
0
LINE
8
BLACK
6
CONTINUOUS
10
122.752
20
-112.541
11
122.857
21
-112.075
0
LINE
8
BLACK
6
CONTINUOUS
10
122.857
20
-112.075
11
122.924
21
-111.602
0
LINE
8
BLACK
6
CONTINUOUS
10
122.924
20
-111.602
11
122.954
21
-111.125
0
LINE
8
BLACK
6
CONTINUOUS
10
122.954
20
-111.125
11
122.955
21
-111
0
LINE
8
BLACK
6
CONTINUOUS
10
122.955
20
-111
11
122.936
21
-110.522
0
LINE
8
BLACK
6
CONTINUOUS
10
122.936
20
-110.522
11
122.878
21
-110.048
0
LINE
8
BLACK
6
CONTINUOUS
10
122.878
20
-110.048
11
122.783
21
-109.58
0
LINE
8
BLACK
6
CONTINUOUS
10
122.783
20
-109.58
11
122.65
21
-109.12
0
LINE
8
BLACK
6
CONTINUOUS
10
122.65
20
-109.12
11
122.481
21
-108.673
0
LINE
8
BLACK
6
CONTINUOUS
10
122.481
20
-108.673
11
122.277
21
-108.241
0
LINE
8
BLACK
6
CONTINUOUS
10
122.277
20
-108.241
11
122.039
21
-107.827
0
LINE
8
BLACK
6
CONTINUOUS
10
122.039
20
-107.827
11
121.768
21
-107.433
0
LINE
8
BLACK
6
CONTINUOUS
10
121.768
20
-107.433
11
121.467
21
-107.062
0
LINE
8
BLACK
6
CONTINUOUS
10
121.467
20
-107.062
11
121.137
21
-106.716
0
LINE
8
BLACK
6
CONTINUOUS
10
121.137
20
-106.716
11
120.78
21
-106.399
0
LINE
8
BLACK
6
CONTINUOUS
10
120.78
20
-106.399
11
120.399
21
-106.11
0
LINE
8
BLACK
6
CONTINUOUS
10
120.399
20
-106.11
11
119.995
21
-105.853
0
LINE
8
BLACK
6
CONTINUOUS
10
119.995
20
-105.853
11
119.573
21
-105.63
0
LINE
8
BLACK
6
CONTINUOUS
10
119.573
20
-105.63
11
119.134
21
-105.441
0
LINE
8
BLACK
6
CONTINUOUS
10
119.134
20
-105.441
11
118.681
21
-105.287
0
LINE
8
BLACK
6
CONTINUOUS
10
118.681
20
-105.287
11
118.218
21
-105.171
0
LINE
8
BLACK
6
CONTINUOUS
10
118.218
20
-105.171
11
117.746
21
-105.092
0
LINE
8
BLACK
6
CONTINUOUS
10
117.746
20
-105.092
11
117.27
21
-105.051
0
LINE
8
BLACK
6
CONTINUOUS
10
117.27
20
-105.051
11
116.792
21
-105.049
0
LINE
8
BLACK
6
CONTINUOUS
10
116.792
20
-105.049
11
116.316
21
-105.085
0
LINE
8
BLACK
6
CONTINUOUS
10
116.316
20
-105.085
11
115.843
21
-105.159
0
LINE
8
BLACK
6
CONTINUOUS
10
115.843
20
-105.159
11
115.379
21
-105.27
0
LINE
8
BLACK
6
CONTINUOUS
10
115.379
20
-105.27
11
114.924
21
-105.419
0
LINE
8
BLACK
6
CONTINUOUS
10
114.924
20
-105.419
11
114.483
21
-105.603
0
LINE
8
BLACK
6
CONTINUOUS
10
114.483
20
-105.603
11
114.059
21
-105.822
0
LINE
8
BLACK
6
CONTINUOUS
10
114.059
20
-105.822
11
113.653
21
-106.075
0
LINE
8
BLACK
6
CONTINUOUS
10
113.653
20
-106.075
11
113.269
21
-106.359
0
LINE
8
BLACK
6
CONTINUOUS
10
113.269
20
-106.359
11
112.909
21
-106.673
0
LINE
8
BLACK
6
CONTINUOUS
10
112.909
20
-106.673
11
112.575
21
-107.015
0
LINE
8
BLACK
6
CONTINUOUS
10
112.575
20
-107.015
11
112.269
21
-107.383
0
LINE
8
BLACK
6
CONTINUOUS
10
112.269
20
-107.383
11
111.995
21
-107.774
0
LINE
8
BLACK
6
CONTINUOUS
10
111.995
20
-107.774
11
111.752
21
-108.186
0
LINE
8
BLACK
6
CONTINUOUS
10
111.752
20
-108.186
11
111.543
21
-108.616
0
LINE
8
BLACK
6
CONTINUOUS
10
111.543
20
-108.616
11
111.37
21
-109.061
0
LINE
8
BLACK
6
CONTINUOUS
10
111.37
20
-109.061
11
111.232
21
-109.519
0
LINE
8
BLACK
6
CONTINUOUS
10
111.232
20
-109.519
11
111.132
21
-109.986
0
LINE
8
BLACK
6
CONTINUOUS
10
111.132
20
-109.986
11
111.07
21
-110.46
0
LINE
8
BLACK
6
CONTINUOUS
10
111.07
20
-110.46
11
111.045
21
-110.938
0
LINE
8
BLACK
6
CONTINUOUS
10
111.045
20
-110.938
11
111.06
21
-111.415
0
LINE
8
BLACK
6
CONTINUOUS
10
111.06
20
-111.415
11
111.112
21
-111.89
0
LINE
8
BLACK
6
CONTINUOUS
10
57.9749
20
-59.4517
11
58.0383
21
-58.9702
0
LINE
8
BLACK
6
CONTINUOUS
10
58.0383
20
-58.9702
11
58.1401
21
-58.4954
0
LINE
8
BLACK
6
CONTINUOUS
10
58.1401
20
-58.4954
11
58.2796
21
-58.0303
0
LINE
8
BLACK
6
CONTINUOUS
10
58.2796
20
-58.0303
11
58.456
21
-57.5779
0
LINE
8
BLACK
6
CONTINUOUS
10
58.456
20
-57.5779
11
58.6681
21
-57.1411
0
LINE
8
BLACK
6
CONTINUOUS
10
58.6681
20
-57.1411
11
58.9146
21
-56.7227
0
LINE
8
BLACK
6
CONTINUOUS
10
58.9146
20
-56.7227
11
59.1938
21
-56.3254
0
LINE
8
BLACK
6
CONTINUOUS
10
59.1938
20
-56.3254
11
59.504
21
-55.9518
0
LINE
8
BLACK
6
CONTINUOUS
10
59.504
20
-55.9518
11
59.8431
21
-55.6042
0
LINE
8
BLACK
6
CONTINUOUS
10
59.8431
20
-55.6042
11
60.209
21
-55.285
0
LINE
8
BLACK
6
CONTINUOUS
10
60.209
20
-55.285
11
60.5994
21
-54.9962
0
LINE
8
BLACK
6
CONTINUOUS
10
60.5994
20
-54.9962
11
61.0117
21
-54.7396
0
LINE
8
BLACK
6
CONTINUOUS
10
61.0117
20
-54.7396
11
61.4432
21
-54.5168
0
LINE
8
BLACK
6
CONTINUOUS
10
61.4432
20
-54.5168
11
61.8911
21
-54.3294
0
LINE
8
BLACK
6
CONTINUOUS
10
61.8911
20
-54.3294
11
62.3527
21
-54.1786
0
LINE
8
BLACK
6
CONTINUOUS
10
62.3527
20
-54.1786
11
62.8249
21
-54.0652
0
LINE
8
BLACK
6
CONTINUOUS
10
62.8249
20
-54.0652
11
63.3046
21
-53.9901
0
LINE
8
BLACK
6
CONTINUOUS
10
63.3046
20
-53.9901
11
63.7889
21
-53.9537
0
LINE
8
BLACK
6
CONTINUOUS
10
63.7889
20
-53.9537
11
64.2744
21
-53.9562
0
LINE
8
BLACK
6
CONTINUOUS
10
64.2744
20
-53.9562
11
64.7583
21
-53.9977
0
LINE
8
BLACK
6
CONTINUOUS
10
64.7583
20
-53.9977
11
65.2372
21
-54.0779
0
LINE
8
BLACK
6
CONTINUOUS
10
65.2372
20
-54.0779
11
65.7082
21
-54.1961
0
LINE
8
BLACK
6
CONTINUOUS
10
65.7082
20
-54.1961
11
66.1681
21
-54.3518
0
LINE
8
BLACK
6
CONTINUOUS
10
66.1681
20
-54.3518
11
66.6141
21
-54.5439
0
LINE
8
BLACK
6
CONTINUOUS
10
66.6141
20
-54.5439
11
67.0433
21
-54.7711
0
LINE
8
BLACK
6
CONTINUOUS
10
67.0433
20
-54.7711
11
67.4528
21
-55.032
0
LINE
8
BLACK
6
CONTINUOUS
10
67.4528
20
-55.032
11
67.8401
21
-55.325
0
LINE
8
BLACK
6
CONTINUOUS
10
67.8401
20
-55.325
11
68.2027
21
-55.648
0
LINE
8
BLACK
6
CONTINUOUS
10
68.2027
20
-55.648
11
68.5382
21
-55.9991
0
LINE
8
BLACK
6
CONTINUOUS
10
68.5382
20
-55.9991
11
68.8444
21
-56.3759
0
LINE
8
BLACK
6
CONTINUOUS
10
68.8444
20
-56.3759
11
69.1195
21
-56.7761
0
LINE
8
BLACK
6
CONTINUOUS
10
69.1195
20
-56.7761
11
69.3615
21
-57.1971
0
LINE
8
BLACK
6
CONTINUOUS
10
69.3615
20
-57.1971
11
69.5691
21
-57.6361
0
LINE
8
BLACK
6
CONTINUOUS
10
69.5691
20
-57.6361
11
69.7407
21
-58.0903
0
LINE
8
BLACK
6
CONTINUOUS
10
69.7407
20
-58.0903
11
69.8754
21
-58.5569
0
LINE
8
BLACK
6
CONTINUOUS
10
69.8754
20
-58.5569
11
69.9722
21
-59.0327
0
LINE
8
BLACK
6
CONTINUOUS
10
69.9722
20
-59.0327
11
70.0305
21
-59.5148
0
LINE
8
BLACK
6
CONTINUOUS
10
70.0305
20
-59.5148
11
70.05
21
-60
0
LINE
8
BLACK
6
CONTINUOUS
10
70.05
20
-60
11
70.0487
21
-60.1267
0
LINE
8
BLACK
6
CONTINUOUS
10
70.0487
20
-60.1267
11
70.019
21
-60.6114
0
LINE
8
BLACK
6
CONTINUOUS
10
70.019
20
-60.6114
11
69.9506
21
-61.0921
0
LINE
8
BLACK
6
CONTINUOUS
10
69.9506
20
-61.0921
11
69.8439
21
-61.5659
0
LINE
8
BLACK
6
CONTINUOUS
10
69.8439
20
-61.5659
11
69.6994
21
-62.0295
0
LINE
8
BLACK
6
CONTINUOUS
10
69.6994
20
-62.0295
11
69.5183
21
-62.48
0
LINE
8
BLACK
6
CONTINUOUS
10
69.5183
20
-62.48
11
69.3017
21
-62.9146
0
LINE
8
BLACK
6
CONTINUOUS
10
69.3017
20
-62.9146
11
69.0508
21
-63.3304
0
LINE
8
BLACK
6
CONTINUOUS
10
69.0508
20
-63.3304
11
68.7675
21
-63.7248
0
LINE
8
BLACK
6
CONTINUOUS
10
68.7675
20
-63.7248
11
68.4534
21
-64.0951
0
LINE
8
BLACK
6
CONTINUOUS
10
68.4534
20
-64.0951
11
68.1106
21
-64.4391
0
LINE
8
BLACK
6
CONTINUOUS
10
68.1106
20
-64.4391
11
67.7414
21
-64.7544
0
LINE
8
BLACK
6
CONTINUOUS
10
67.7414
20
-64.7544
11
67.348
21
-65.0392
0
LINE
8
BLACK
6
CONTINUOUS
10
67.348
20
-65.0392
11
66.9331
21
-65.2914
0
LINE
8
BLACK
6
CONTINUOUS
10
66.9331
20
-65.2914
11
66.4993
21
-65.5096
0
LINE
8
BLACK
6
CONTINUOUS
10
66.4993
20
-65.5096
11
66.0494
21
-65.6923
0
LINE
8
BLACK
6
CONTINUOUS
10
66.0494
20
-65.6923
11
65.5862
21
-65.8383
0
LINE
8
BLACK
6
CONTINUOUS
10
65.5862
20
-65.8383
11
65.1129
21
-65.9468
0
LINE
8
BLACK
6
CONTINUOUS
10
65.1129
20
-65.9468
11
64.6324
21
-66.0169
0
LINE
8
BLACK
6
CONTINUOUS
10
64.6324
20
-66.0169
11
64.1478
21
-66.0482
0
LINE
8
BLACK
6
CONTINUOUS
10
64.1478
20
-66.0482
11
63.6623
21
-66.0406
0
LINE
8
BLACK
6
CONTINUOUS
10
63.6623
20
-66.0406
11
63.1789
21
-65.994
0
LINE
8
BLACK
6
CONTINUOUS
10
63.1789
20
-65.994
11
62.7009
21
-65.9089
0
LINE
8
BLACK
6
CONTINUOUS
10
62.7009
20
-65.9089
11
62.2312
21
-65.7856
0
LINE
8
BLACK
6
CONTINUOUS
10
62.2312
20
-65.7856
11
61.7728
21
-65.6251
0
LINE
8
BLACK
6
CONTINUOUS
10
61.7728
20
-65.6251
11
61.3289
21
-65.4284
0
LINE
8
BLACK
6
CONTINUOUS
10
61.3289
20
-65.4284
11
60.9021
21
-65.1967
0
LINE
8
BLACK
6
CONTINUOUS
10
60.9021
20
-65.1967
11
60.4953
21
-64.9315
0
LINE
8
BLACK
6
CONTINUOUS
10
60.4953
20
-64.9315
11
60.1111
21
-64.6346
0
LINE
8
BLACK
6
CONTINUOUS
10
60.1111
20
-64.6346
11
59.752
21
-64.3078
0
LINE
8
BLACK
6
CONTINUOUS
10
59.752
20
-64.3078
11
59.55
21
-64.0919
0
LINE
8
BLACK
6
CONTINUOUS
10
59.55
20
-64.0919
11
59.55
21
-65.5
0
LINE
8
BLACK
6
CONTINUOUS
10
59.55
20
-65.5
11
59.5354
21
-65.5354
0
LINE
8
BLACK
6
CONTINUOUS
10
59.5354
20
-65.5354
11
59.5
21
-65.55
0
LINE
8
BLACK
6
CONTINUOUS
10
59.5
20
-65.55
11
59.4646
21
-65.5354
0
LINE
8
BLACK
6
CONTINUOUS
10
59.4646
20
-65.5354
11
59.45
21
-65.5
0
LINE
8
BLACK
6
CONTINUOUS
10
59.45
20
-65.5
11
59.45
21
-63.9851
0
LINE
8
BLACK
6
CONTINUOUS
10
59.45
20
-63.9851
11
59.4202
21
-63.9532
0
LINE
8
BLACK
6
CONTINUOUS
10
59.4202
20
-63.9532
11
59.1179
21
-63.5732
0
LINE
8
BLACK
6
CONTINUOUS
10
59.1179
20
-63.5732
11
58.8471
21
-63.1701
0
LINE
8
BLACK
6
CONTINUOUS
10
58.8471
20
-63.1701
11
58.6094
21
-62.7466
0
LINE
8
BLACK
6
CONTINUOUS
10
58.6094
20
-62.7466
11
58.4065
21
-62.3055
0
LINE
8
BLACK
6
CONTINUOUS
10
58.4065
20
-62.3055
11
58.2396
21
-61.8495
0
LINE
8
BLACK
6
CONTINUOUS
10
58.2396
20
-61.8495
11
58.1098
21
-61.3815
0
LINE
8
BLACK
6
CONTINUOUS
10
58.1098
20
-61.3815
11
58.046
21
-61.05
0
LINE
8
BLACK
6
CONTINUOUS
10
58.046
20
-61.05
11
56
21
-61.05
0
LINE
8
BLACK
6
CONTINUOUS
10
56
20
-61.05
11
55.9646
21
-61.0354
0
LINE
8
BLACK
6
CONTINUOUS
10
55.9646
20
-61.0354
11
55.95
21
-61
0
LINE
8
BLACK
6
CONTINUOUS
10
55.95
20
-61
11
55.9646
21
-60.9646
0
LINE
8
BLACK
6
CONTINUOUS
10
55.9646
20
-60.9646
11
56
21
-60.95
0
LINE
8
BLACK
6
CONTINUOUS
10
56
20
-60.95
11
58.0267
21
-60.95
0
LINE
8
BLACK
6
CONTINUOUS
10
58.0267
20
-60.95
11
58.018
21
-60.9047
0
LINE
8
BLACK
6
CONTINUOUS
10
58.018
20
-60.9047
11
57.9647
21
-60.422
0
LINE
8
BLACK
6
CONTINUOUS
10
57.9647
20
-60.422
11
57.9504
21
-59.9376
0
LINE
8
BLACK
6
CONTINUOUS
10
57.9504
20
-59.9376
11
57.9503
21
-59.9366
0
LINE
8
BLACK
6
CONTINUOUS
10
57.9503
20
-59.9366
11
57.9749
21
-59.4517
0
LINE
8
BLACK
6
CONTINUOUS
10
59.5354
20
-61.4646
11
59.55
21
-61.5
0
LINE
8
BLACK
6
CONTINUOUS
10
59.55
20
-61.5
11
59.55
21
-63.9527
0
LINE
8
BLACK
6
CONTINUOUS
10
59.55
20
-63.9527
11
59.8188
21
-64.24
0
LINE
8
BLACK
6
CONTINUOUS
10
59.8188
20
-64.24
11
60.1723
21
-64.5617
0
LINE
8
BLACK
6
CONTINUOUS
10
60.1723
20
-64.5617
11
60.5505
21
-64.8539
0
LINE
8
BLACK
6
CONTINUOUS
10
60.5505
20
-64.8539
11
60.9509
21
-65.115
0
LINE
8
BLACK
6
CONTINUOUS
10
60.9509
20
-65.115
11
61.3709
21
-65.343
0
LINE
8
BLACK
6
CONTINUOUS
10
61.3709
20
-65.343
11
61.8079
21
-65.5367
0
LINE
8
BLACK
6
CONTINUOUS
10
61.8079
20
-65.5367
11
62.259
21
-65.6946
0
LINE
8
BLACK
6
CONTINUOUS
10
62.259
20
-65.6946
11
62.7213
21
-65.8159
0
LINE
8
BLACK
6
CONTINUOUS
10
62.7213
20
-65.8159
11
63.1918
21
-65.8997
0
LINE
8
BLACK
6
CONTINUOUS
10
63.1918
20
-65.8997
11
63.6676
21
-65.9455
0
LINE
8
BLACK
6
CONTINUOUS
10
63.6676
20
-65.9455
11
64.1455
21
-65.9531
0
LINE
8
BLACK
6
CONTINUOUS
10
64.1455
20
-65.9531
11
64.6224
21
-65.9222
0
LINE
8
BLACK
6
CONTINUOUS
10
64.6224
20
-65.9222
11
65.0954
21
-65.8532
0
LINE
8
BLACK
6
CONTINUOUS
10
65.0954
20
-65.8532
11
65.5613
21
-65.7465
0
LINE
8
BLACK
6
CONTINUOUS
10
65.5613
20
-65.7465
11
66.0171
21
-65.6028
0
LINE
8
BLACK
6
CONTINUOUS
10
66.0171
20
-65.6028
11
66.46
21
-65.423
0
LINE
8
BLACK
6
CONTINUOUS
10
66.46
20
-65.423
11
66.887
21
-65.2082
0
LINE
8
BLACK
6
CONTINUOUS
10
66.887
20
-65.2082
11
67.2954
21
-64.9599
0
LINE
8
BLACK
6
CONTINUOUS
10
67.2954
20
-64.9599
11
67.6825
21
-64.6796
0
LINE
8
BLACK
6
CONTINUOUS
10
67.6825
20
-64.6796
11
68.046
21
-64.3692
0
LINE
8
BLACK
6
CONTINUOUS
10
68.046
20
-64.3692
11
68.3833
21
-64.0307
0
LINE
8
BLACK
6
CONTINUOUS
10
68.3833
20
-64.0307
11
68.6925
21
-63.6662
0
LINE
8
BLACK
6
CONTINUOUS
10
68.6925
20
-63.6662
11
68.9714
21
-63.278
0
LINE
8
BLACK
6
CONTINUOUS
10
68.9714
20
-63.278
11
69.2183
21
-62.8688
0
LINE
8
BLACK
6
CONTINUOUS
10
69.2183
20
-62.8688
11
69.4315
21
-62.441
0
LINE
8
BLACK
6
CONTINUOUS
10
69.4315
20
-62.441
11
69.6098
21
-61.9976
0
LINE
8
BLACK
6
CONTINUOUS
10
69.6098
20
-61.9976
11
69.7519
21
-61.5412
0
LINE
8
BLACK
6
CONTINUOUS
10
69.7519
20
-61.5412
11
69.857
21
-61.075
0
LINE
8
BLACK
6
CONTINUOUS
10
69.857
20
-61.075
11
69.9243
21
-60.6018
0
LINE
8
BLACK
6
CONTINUOUS
10
69.9243
20
-60.6018
11
69.9535
21
-60.1247
0
LINE
8
BLACK
6
CONTINUOUS
10
69.9535
20
-60.1247
11
69.9548
21
-60
0
LINE
8
BLACK
6
CONTINUOUS
10
69.9548
20
-60
11
69.9356
21
-59.5224
0
LINE
8
BLACK
6
CONTINUOUS
10
69.9356
20
-59.5224
11
69.8782
21
-59.0479
0
LINE
8
BLACK
6
CONTINUOUS
10
69.8782
20
-59.0479
11
69.7829
21
-58.5796
0
LINE
8
BLACK
6
CONTINUOUS
10
69.7829
20
-58.5796
11
69.6504
21
-58.1204
0
LINE
8
BLACK
6
CONTINUOUS
10
69.6504
20
-58.1204
11
69.4814
21
-57.6733
0
LINE
8
BLACK
6
CONTINUOUS
10
69.4814
20
-57.6733
11
69.2772
21
-57.2412
0
LINE
8
BLACK
6
CONTINUOUS
10
69.2772
20
-57.2412
11
69.0389
21
-56.8268
0
LINE
8
BLACK
6
CONTINUOUS
10
69.0389
20
-56.8268
11
68.7682
21
-56.4329
0
LINE
8
BLACK
6
CONTINUOUS
10
68.7682
20
-56.4329
11
68.4668
21
-56.062
0
LINE
8
BLACK
6
CONTINUOUS
10
68.4668
20
-56.062
11
68.1366
21
-55.7165
0
LINE
8
BLACK
6
CONTINUOUS
10
68.1366
20
-55.7165
11
67.7797
21
-55.3985
0
LINE
8
BLACK
6
CONTINUOUS
10
67.7797
20
-55.3985
11
67.3985
21
-55.1102
0
LINE
8
BLACK
6
CONTINUOUS
10
67.3985
20
-55.1102
11
66.9954
21
-54.8534
0
LINE
8
BLACK
6
CONTINUOUS
10
66.9954
20
-54.8534
11
66.573
21
-54.6297
0
LINE
8
BLACK
6
CONTINUOUS
10
66.573
20
-54.6297
11
66.134
21
-54.4407
0
LINE
8
BLACK
6
CONTINUOUS
10
66.134
20
-54.4407
11
65.6813
21
-54.2874
0
LINE
8
BLACK
6
CONTINUOUS
10
65.6813
20
-54.2874
11
65.2177
21
-54.171
0
LINE
8
BLACK
6
CONTINUOUS
10
65.2177
20
-54.171
11
64.7463
21
-54.0921
0
LINE
8
BLACK
6
CONTINUOUS
10
64.7463
20
-54.0921
11
64.2701
21
-54.0513
0
LINE
8
BLACK
6
CONTINUOUS
10
64.2701
20
-54.0513
11
63.7922
21
-54.0488
0
LINE
8
BLACK
6
CONTINUOUS
10
63.7922
20
-54.0488
11
63.3156
21
-54.0846
0
LINE
8
BLACK
6
CONTINUOUS
10
63.3156
20
-54.0846
11
62.8434
21
-54.1586
0
LINE
8
BLACK
6
CONTINUOUS
10
62.8434
20
-54.1586
11
62.3786
21
-54.2702
0
LINE
8
BLACK
6
CONTINUOUS
10
62.3786
20
-54.2702
11
61.9243
21
-54.4186
0
LINE
8
BLACK
6
CONTINUOUS
10
61.9243
20
-54.4186
11
61.4834
21
-54.6031
0
LINE
8
BLACK
6
CONTINUOUS
10
61.4834
20
-54.6031
11
61.0587
21
-54.8223
0
LINE
8
BLACK
6
CONTINUOUS
10
61.0587
20
-54.8223
11
60.6529
21
-55.0749
0
LINE
8
BLACK
6
CONTINUOUS
10
60.6529
20
-55.0749
11
60.2687
21
-55.3592
0
LINE
8
BLACK
6
CONTINUOUS
10
60.2687
20
-55.3592
11
59.9085
21
-55.6734
0
LINE
8
BLACK
6
CONTINUOUS
10
59.9085
20
-55.6734
11
59.5747
21
-56.0154
0
LINE
8
BLACK
6
CONTINUOUS
10
59.5747
20
-56.0154
11
59.2694
21
-56.3832
0
LINE
8
BLACK
6
CONTINUOUS
10
59.2694
20
-56.3832
11
58.9946
21
-56.7742
0
LINE
8
BLACK
6
CONTINUOUS
10
58.9946
20
-56.7742
11
58.752
21
-57.186
0
LINE
8
BLACK
6
CONTINUOUS
10
58.752
20
-57.186
11
58.5432
21
-57.616
0
LINE
8
BLACK
6
CONTINUOUS
10
58.5432
20
-57.616
11
58.3696
21
-58.0613
0
LINE
8
BLACK
6
CONTINUOUS
10
58.3696
20
-58.0613
11
58.2323
21
-58.5191
0
LINE
8
BLACK
6
CONTINUOUS
10
58.2323
20
-58.5191
11
58.1321
21
-58.9864
0
LINE
8
BLACK
6
CONTINUOUS
10
58.1321
20
-58.9864
11
58.0697
21
-59.4603
0
LINE
8
BLACK
6
CONTINUOUS
10
58.0697
20
-59.4603
11
58.0455
21
-59.9376
0
LINE
8
BLACK
6
CONTINUOUS
10
58.0455
20
-59.9376
11
58.0597
21
-60.4154
0
LINE
8
BLACK
6
CONTINUOUS
10
58.0597
20
-60.4154
11
58.1121
21
-60.8905
0
LINE
8
BLACK
6
CONTINUOUS
10
58.1121
20
-60.8905
11
58.1236
21
-60.95
0
LINE
8
BLACK
6
CONTINUOUS
10
58.1236
20
-60.95
11
59
21
-60.95
0
LINE
8
BLACK
6
CONTINUOUS
10
59
20
-60.95
11
59.0354
21
-60.9646
0
LINE
8
BLACK
6
CONTINUOUS
10
59.0354
20
-60.9646
11
59.5354
21
-61.4646
0
LINE
8
BLACK
6
CONTINUOUS
10
58.1428
20
-61.05
11
58.2025
21
-61.3598
0
LINE
8
BLACK
6
CONTINUOUS
10
58.2025
20
-61.3598
11
58.3302
21
-61.8204
0
LINE
8
BLACK
6
CONTINUOUS
10
58.3302
20
-61.8204
11
58.4945
21
-62.2692
0
LINE
8
BLACK
6
CONTINUOUS
10
58.4945
20
-62.2692
11
58.6942
21
-62.7034
0
LINE
8
BLACK
6
CONTINUOUS
10
58.6942
20
-62.7034
11
58.9281
21
-63.1202
0
LINE
8
BLACK
6
CONTINUOUS
10
58.9281
20
-63.1202
11
59.1947
21
-63.517
0
LINE
8
BLACK
6
CONTINUOUS
10
59.1947
20
-63.517
11
59.45
21
-63.8379
0
LINE
8
BLACK
6
CONTINUOUS
10
59.45
20
-63.8379
11
59.45
21
-61.5207
0
LINE
8
BLACK
6
CONTINUOUS
10
59.45
20
-61.5207
11
58.9793
21
-61.05
0
LINE
8
BLACK
6
CONTINUOUS
10
58.9793
20
-61.05
11
58.1428
21
-61.05
  0
ENDSEC
  0
EOF
