G04 #@! TF.GenerationSoftware,KiCad,Pcbnew,(6.0.10)*
G04 #@! TF.CreationDate,2023-01-02T23:38:31+01:00*
G04 #@! TF.ProjectId,arisu,61726973-752e-46b6-9963-61645f706362,1.1*
G04 #@! TF.SameCoordinates,Original*
G04 #@! TF.FileFunction,Legend,Bot*
G04 #@! TF.FilePolarity,Positive*
%FSLAX46Y46*%
G04 Gerber Fmt 4.6, Leading zero omitted, Abs format (unit mm)*
G04 Created by KiCad (PCBNEW (6.0.10)) date 2023-01-02 23:38:31*
%MOMM*%
%LPD*%
G01*
G04 APERTURE LIST*
G04 Aperture macros list*
%AMRoundRect*
0 Rectangle with rounded corners*
0 $1 Rounding radius*
0 $2 $3 $4 $5 $6 $7 $8 $9 X,Y pos of 4 corners*
0 Add a 4 corners polygon primitive as box body*
4,1,4,$2,$3,$4,$5,$6,$7,$8,$9,$2,$3,0*
0 Add four circle primitives for the rounded corners*
1,1,$1+$1,$2,$3*
1,1,$1+$1,$4,$5*
1,1,$1+$1,$6,$7*
1,1,$1+$1,$8,$9*
0 Add four rect primitives between the rounded corners*
20,1,$1+$1,$2,$3,$4,$5,0*
20,1,$1+$1,$4,$5,$6,$7,0*
20,1,$1+$1,$6,$7,$8,$9,0*
20,1,$1+$1,$8,$9,$2,$3,0*%
G04 Aperture macros list end*
%ADD10C,0.160000*%
%ADD11C,0.120000*%
%ADD12C,0.150000*%
%ADD13RoundRect,0.301000X0.450000X-0.262500X0.450000X0.262500X-0.450000X0.262500X-0.450000X-0.262500X0*%
%ADD14RoundRect,0.051000X-0.500000X1.000000X-0.500000X-1.000000X0.500000X-1.000000X0.500000X1.000000X0*%
G04 APERTURE END LIST*
D10*
X355131427Y-238556429D02*
X355131427Y-239135001D01*
X355169999Y-239250715D01*
X355247141Y-239327858D01*
X355362856Y-239366429D01*
X355439999Y-239366429D01*
X354359999Y-239366429D02*
X354745713Y-239366429D01*
X354745713Y-238556429D01*
X353627141Y-239289286D02*
X353665713Y-239327858D01*
X353781427Y-239366429D01*
X353858570Y-239366429D01*
X353974284Y-239327858D01*
X354051427Y-239250715D01*
X354089999Y-239173572D01*
X354128570Y-239019286D01*
X354128570Y-238903572D01*
X354089999Y-238749286D01*
X354051427Y-238672143D01*
X353974284Y-238595001D01*
X353858570Y-238556429D01*
X353781427Y-238556429D01*
X353665713Y-238595001D01*
X353627141Y-238633572D01*
X353048570Y-238556429D02*
X353048570Y-239135001D01*
X353087141Y-239250715D01*
X353164284Y-239327858D01*
X353279999Y-239366429D01*
X353357141Y-239366429D01*
X352277141Y-239366429D02*
X352662856Y-239366429D01*
X352662856Y-238556429D01*
X351544284Y-239289286D02*
X351582856Y-239327858D01*
X351698570Y-239366429D01*
X351775713Y-239366429D01*
X351891427Y-239327858D01*
X351968570Y-239250715D01*
X352007141Y-239173572D01*
X352045713Y-239019286D01*
X352045713Y-238903572D01*
X352007141Y-238749286D01*
X351968570Y-238672143D01*
X351891427Y-238595001D01*
X351775713Y-238556429D01*
X351698570Y-238556429D01*
X351582856Y-238595001D01*
X351544284Y-238633572D01*
X350965713Y-238556429D02*
X350965713Y-239135001D01*
X351004284Y-239250715D01*
X351081427Y-239327858D01*
X351197141Y-239366429D01*
X351274284Y-239366429D01*
X350194284Y-239366429D02*
X350579999Y-239366429D01*
X350579999Y-238556429D01*
X349461427Y-239289286D02*
X349499999Y-239327858D01*
X349615713Y-239366429D01*
X349692856Y-239366429D01*
X349808570Y-239327858D01*
X349885713Y-239250715D01*
X349924284Y-239173572D01*
X349962856Y-239019286D01*
X349962856Y-238903572D01*
X349924284Y-238749286D01*
X349885713Y-238672143D01*
X349808570Y-238595001D01*
X349692856Y-238556429D01*
X349615713Y-238556429D01*
X349499999Y-238595001D01*
X349461427Y-238633572D01*
X348882856Y-238556429D02*
X348882856Y-239135001D01*
X348921427Y-239250715D01*
X348998570Y-239327858D01*
X349114284Y-239366429D01*
X349191427Y-239366429D01*
X348111427Y-239366429D02*
X348497141Y-239366429D01*
X348497141Y-238556429D01*
X347378570Y-239289286D02*
X347417141Y-239327858D01*
X347532856Y-239366429D01*
X347609999Y-239366429D01*
X347725713Y-239327858D01*
X347802856Y-239250715D01*
X347841427Y-239173572D01*
X347879999Y-239019286D01*
X347879999Y-238903572D01*
X347841427Y-238749286D01*
X347802856Y-238672143D01*
X347725713Y-238595001D01*
X347609999Y-238556429D01*
X347532856Y-238556429D01*
X347417141Y-238595001D01*
X347378570Y-238633572D01*
D11*
X412265000Y-250227064D02*
X412265000Y-249772936D01*
X413735000Y-250227064D02*
X413735000Y-249772936D01*
X415265000Y-250227064D02*
X415265000Y-249772936D01*
X416735000Y-250227064D02*
X416735000Y-249772936D01*
%LPC*%
D12*
X375639999Y-223000001D02*
X386639999Y-223000001D01*
X386639999Y-223000001D02*
X386639999Y-213500001D01*
X386639999Y-213500001D02*
X375639999Y-213500001D01*
X375639999Y-213500001D02*
X375639999Y-223000001D01*
G36*
X375639999Y-223000001D02*
G01*
X386639999Y-223000001D01*
X386639999Y-213500001D01*
X375639999Y-213500001D01*
X375639999Y-223000001D01*
G37*
X375639999Y-223000001D02*
X386639999Y-223000001D01*
X386639999Y-223000001D02*
X386639999Y-213500001D01*
X386639999Y-213500001D02*
X375639999Y-213500001D01*
X375639999Y-213500001D02*
X375639999Y-223000001D01*
G36*
X375639999Y-223000001D02*
G01*
X386639999Y-223000001D01*
X386639999Y-213500001D01*
X375639999Y-213500001D01*
X375639999Y-223000001D01*
G37*
D13*
X413000000Y-250912500D03*
X413000000Y-249087500D03*
D14*
X349269999Y-314000000D03*
X350539999Y-314000000D03*
X351809999Y-314000000D03*
D13*
X416000000Y-250912500D03*
X416000000Y-249087500D03*
M02*
