G04 #@! TF.GenerationSoftware,KiCad,Pcbnew,(6.0.10)*
G04 #@! TF.CreationDate,2023-01-02T23:24:36+01:00*
G04 #@! TF.ProjectId,arisu,61726973-752e-46b6-9963-61645f706362,1.1*
G04 #@! TF.SameCoordinates,Original*
G04 #@! TF.FileFunction,Legend,Bot*
G04 #@! TF.FilePolarity,Positive*
%FSLAX46Y46*%
G04 Gerber Fmt 4.6, Leading zero omitted, Abs format (unit mm)*
G04 Created by KiCad (PCBNEW (6.0.10)) date 2023-01-02 23:24:36*
%MOMM*%
%LPD*%
G01*
G04 APERTURE LIST*
G04 Aperture macros list*
%AMRoundRect*
0 Rectangle with rounded corners*
0 $1 Rounding radius*
0 $2 $3 $4 $5 $6 $7 $8 $9 X,Y pos of 4 corners*
0 Add a 4 corners polygon primitive as box body*
4,1,4,$2,$3,$4,$5,$6,$7,$8,$9,$2,$3,0*
0 Add four circle primitives for the rounded corners*
1,1,$1+$1,$2,$3*
1,1,$1+$1,$4,$5*
1,1,$1+$1,$6,$7*
1,1,$1+$1,$8,$9*
0 Add four rect primitives between the rounded corners*
20,1,$1+$1,$2,$3,$4,$5,0*
20,1,$1+$1,$4,$5,$6,$7,0*
20,1,$1+$1,$6,$7,$8,$9,0*
20,1,$1+$1,$8,$9,$2,$3,0*%
G04 Aperture macros list end*
%ADD10C,0.150000*%
%ADD11C,0.120000*%
%ADD12C,4.102000*%
%ADD13C,3.102000*%
%ADD14C,0.902000*%
%ADD15RoundRect,0.051000X-0.987249X-1.487772X1.507028X-0.957597X0.987249X1.487772X-1.507028X0.957597X0*%
%ADD16RoundRect,0.051000X-1.275000X-1.250000X1.275000X-1.250000X1.275000X1.250000X-1.275000X1.250000X0*%
%ADD17C,1.802000*%
%ADD18RoundRect,0.051000X0.500000X-0.500000X0.500000X0.500000X-0.500000X0.500000X-0.500000X-0.500000X0*%
%ADD19O,1.102000X1.102000*%
%ADD20C,0.752000*%
%ADD21O,1.102000X1.702000*%
%ADD22O,1.102000X2.202000*%
%ADD23RoundRect,0.051000X-0.850000X-0.850000X0.850000X-0.850000X0.850000X0.850000X-0.850000X0.850000X0*%
%ADD24O,1.802000X1.802000*%
%ADD25RoundRect,0.051000X0.600000X-0.450000X0.600000X0.450000X-0.600000X0.450000X-0.600000X-0.450000X0*%
%ADD26RoundRect,0.201000X0.512500X0.150000X-0.512500X0.150000X-0.512500X-0.150000X0.512500X-0.150000X0*%
%ADD27RoundRect,0.051000X0.680449X-0.315419X0.493328X0.564913X-0.680449X0.315419X-0.493328X-0.564913X0*%
%ADD28RoundRect,0.201000X-0.587500X-0.150000X0.587500X-0.150000X0.587500X0.150000X-0.587500X0.150000X0*%
%ADD29RoundRect,0.301000X0.250000X0.475000X-0.250000X0.475000X-0.250000X-0.475000X0.250000X-0.475000X0*%
%ADD30RoundRect,0.251000X-0.335876X-0.053033X-0.053033X-0.335876X0.335876X0.053033X0.053033X0.335876X0*%
%ADD31RoundRect,0.251000X-0.200000X-0.275000X0.200000X-0.275000X0.200000X0.275000X-0.200000X0.275000X0*%
%ADD32RoundRect,0.051000X0.315419X0.680449X-0.564913X0.493328X-0.315419X-0.680449X0.564913X-0.493328X0*%
%ADD33RoundRect,0.051000X0.450000X0.600000X-0.450000X0.600000X-0.450000X-0.600000X0.450000X-0.600000X0*%
%ADD34RoundRect,0.186000X0.135000X0.185000X-0.135000X0.185000X-0.135000X-0.185000X0.135000X-0.185000X0*%
%ADD35RoundRect,0.201000X0.650000X0.150000X-0.650000X0.150000X-0.650000X-0.150000X0.650000X-0.150000X0*%
%ADD36RoundRect,0.251000X-0.275000X0.200000X-0.275000X-0.200000X0.275000X-0.200000X0.275000X0.200000X0*%
%ADD37RoundRect,0.251000X0.200000X0.275000X-0.200000X0.275000X-0.200000X-0.275000X0.200000X-0.275000X0*%
%ADD38RoundRect,0.276000X-0.250000X0.225000X-0.250000X-0.225000X0.250000X-0.225000X0.250000X0.225000X0*%
%ADD39RoundRect,0.051000X-0.500000X0.650000X-0.500000X-0.650000X0.500000X-0.650000X0.500000X0.650000X0*%
%ADD40RoundRect,0.301000X-0.250000X-0.475000X0.250000X-0.475000X0.250000X0.475000X-0.250000X0.475000X0*%
%ADD41RoundRect,0.276000X-0.225000X-0.250000X0.225000X-0.250000X0.225000X0.250000X-0.225000X0.250000X0*%
%ADD42RoundRect,0.191000X0.170000X-0.140000X0.170000X0.140000X-0.170000X0.140000X-0.170000X-0.140000X0*%
%ADD43RoundRect,0.101000X0.238649X0.309359X-0.309359X-0.238649X-0.238649X-0.309359X0.309359X0.238649X0*%
%ADD44RoundRect,0.101000X-0.238649X0.309359X-0.309359X0.238649X0.238649X-0.309359X0.309359X-0.238649X0*%
%ADD45C,0.702000*%
%ADD46RoundRect,0.195000X0.000000X2.059095X-2.059095X0.000000X0.000000X-2.059095X2.059095X0.000000X0*%
%ADD47RoundRect,0.051000X-0.750000X1.000000X-0.750000X-1.000000X0.750000X-1.000000X0.750000X1.000000X0*%
%ADD48RoundRect,0.051000X-1.900000X1.000000X-1.900000X-1.000000X1.900000X-1.000000X1.900000X1.000000X0*%
G04 APERTURE END LIST*
D10*
X401169987Y-60600764D02*
X401027130Y-60648383D01*
X400789035Y-60648383D01*
X400693797Y-60600764D01*
X400646178Y-60553145D01*
X400598559Y-60457907D01*
X400598559Y-60362669D01*
X400646178Y-60267431D01*
X400693797Y-60219812D01*
X400789035Y-60172193D01*
X400979511Y-60124574D01*
X401074749Y-60076955D01*
X401122368Y-60029336D01*
X401169987Y-59934098D01*
X401169987Y-59838860D01*
X401122368Y-59743622D01*
X401074749Y-59696003D01*
X400979511Y-59648383D01*
X400741416Y-59648383D01*
X400598559Y-59696003D01*
X400265225Y-59648383D02*
X400027130Y-60648383D01*
X399836654Y-59934098D01*
X399646178Y-60648383D01*
X399408083Y-59648383D01*
X398598559Y-59648383D02*
X398789035Y-59648383D01*
X398884273Y-59696003D01*
X398931892Y-59743622D01*
X399027130Y-59886479D01*
X399074749Y-60076955D01*
X399074749Y-60457907D01*
X399027130Y-60553145D01*
X398979511Y-60600764D01*
X398884273Y-60648383D01*
X398693797Y-60648383D01*
X398598559Y-60600764D01*
X398550940Y-60553145D01*
X398503321Y-60457907D01*
X398503321Y-60219812D01*
X398550940Y-60124574D01*
X398598559Y-60076955D01*
X398693797Y-60029336D01*
X398884273Y-60029336D01*
X398979511Y-60076955D01*
X399027130Y-60124574D01*
X399074749Y-60219812D01*
X397598559Y-59648383D02*
X398074749Y-59648383D01*
X398122368Y-60124574D01*
X398074749Y-60076955D01*
X397979511Y-60029336D01*
X397741416Y-60029336D01*
X397646178Y-60076955D01*
X397598559Y-60124574D01*
X397550940Y-60219812D01*
X397550940Y-60457907D01*
X397598559Y-60553145D01*
X397646178Y-60600764D01*
X397741416Y-60648383D01*
X397979511Y-60648383D01*
X398074749Y-60600764D01*
X398122368Y-60553145D01*
D11*
X392110465Y-72320001D02*
X392110465Y-68420001D01*
X392110465Y-72320001D02*
X390110465Y-72320001D01*
X390110465Y-72320001D02*
X390110465Y-68420001D01*
X415500000Y-24139997D02*
X417300000Y-24139997D01*
X415500000Y-24139997D02*
X414700000Y-24139997D01*
X415500000Y-27259997D02*
X416300000Y-27259997D01*
X415500000Y-27259997D02*
X414700000Y-27259997D01*
X294000861Y-102176896D02*
X293190005Y-98362121D01*
X294000861Y-102176896D02*
X292044566Y-102592720D01*
X292044566Y-102592720D02*
X291233710Y-98777944D01*
X349629232Y-91370000D02*
X349629232Y-87470000D01*
X351629232Y-91370000D02*
X349629232Y-91370000D01*
X351629232Y-91370000D02*
X351629232Y-87470000D01*
X300752558Y-42314980D02*
X299941702Y-38500205D01*
X298796263Y-42730804D02*
X297985407Y-38916028D01*
X300752558Y-42314980D02*
X298796263Y-42730804D01*
X406237496Y-16889999D02*
X405587496Y-16889999D01*
X406237496Y-20009999D02*
X406887496Y-20009999D01*
X406237496Y-20009999D02*
X404562496Y-20009999D01*
X406237496Y-16889999D02*
X406887496Y-16889999D01*
X354391731Y-110419999D02*
X354391731Y-106519999D01*
X356391731Y-110419999D02*
X354391731Y-110419999D01*
X356391731Y-110419999D02*
X356391731Y-106519999D01*
X402337498Y-20009999D02*
X402987498Y-20009999D01*
X402337498Y-16889999D02*
X401687498Y-16889999D01*
X402337498Y-16889999D02*
X402987498Y-16889999D01*
X402337498Y-20009999D02*
X400662498Y-20009999D01*
X407365466Y-23940000D02*
X406842962Y-23940000D01*
X407365466Y-25410000D02*
X406842962Y-25410000D01*
X295396327Y-62929076D02*
X293440032Y-63344900D01*
X293440032Y-63344900D02*
X292629176Y-59530124D01*
X295396327Y-62929076D02*
X294585471Y-59114301D01*
X386049213Y-34220002D02*
X384049213Y-34220002D01*
X386049213Y-34220002D02*
X386049213Y-30320002D01*
X384049213Y-34220002D02*
X384049213Y-30320002D01*
X406779232Y-91370000D02*
X406779232Y-87470000D01*
X408779232Y-91370000D02*
X406779232Y-91370000D01*
X408779232Y-91370000D02*
X408779232Y-87470000D01*
X276762618Y-66889795D02*
X275951762Y-63075020D01*
X276762618Y-66889795D02*
X274806323Y-67305619D01*
X274806323Y-67305619D02*
X273995467Y-63490843D01*
X412837735Y-50947336D02*
X413173268Y-51282869D01*
X412098808Y-51686263D02*
X412434341Y-52021796D01*
X415262742Y-27727500D02*
X415737258Y-27727500D01*
X415262742Y-28772500D02*
X415737258Y-28772500D01*
X287239580Y-106681074D02*
X283424805Y-107491930D01*
X287655404Y-108637369D02*
X283840628Y-109448225D01*
X287239580Y-106681074D02*
X287655404Y-108637369D01*
X409500239Y-17972501D02*
X409974755Y-17972501D01*
X409500239Y-16927501D02*
X409974755Y-16927501D01*
X393250000Y-20500000D02*
X389350000Y-20500000D01*
X393250000Y-22500000D02*
X389350000Y-22500000D01*
X393250000Y-20500000D02*
X393250000Y-22500000D01*
X310678277Y-98632004D02*
X309867421Y-94817228D01*
X312634572Y-98216180D02*
X310678277Y-98632004D01*
X312634572Y-98216180D02*
X311823716Y-94401405D01*
X371164214Y-53270001D02*
X369164214Y-53270001D01*
X371164214Y-53270001D02*
X371164214Y-49370001D01*
X369164214Y-53270001D02*
X369164214Y-49370001D01*
X421480852Y-62891573D02*
X421173570Y-62891573D01*
X421480852Y-63651573D02*
X421173570Y-63651573D01*
X418292891Y-42254187D02*
X415567891Y-42254187D01*
X418292891Y-42254187D02*
X421017891Y-42254187D01*
X421017891Y-42514187D02*
X422692891Y-42514187D01*
X421017891Y-47704187D02*
X421017891Y-47444187D01*
X415567891Y-42254187D02*
X415567891Y-42514187D01*
X421017891Y-42254187D02*
X421017891Y-42514187D01*
X418292891Y-47704187D02*
X421017891Y-47704187D01*
X415567891Y-47704187D02*
X415567891Y-47444187D01*
X418292891Y-47704187D02*
X415567891Y-47704187D01*
X380204232Y-91370000D02*
X380204232Y-87470000D01*
X378204232Y-91370000D02*
X378204232Y-87470000D01*
X380204232Y-91370000D02*
X378204232Y-91370000D01*
X367548211Y-19467031D02*
X367548211Y-19941547D01*
X368593211Y-19467031D02*
X368593211Y-19941547D01*
X421012258Y-71522500D02*
X420537742Y-71522500D01*
X421012258Y-70477500D02*
X420537742Y-70477500D01*
X412090000Y-22109424D02*
X412090000Y-22390584D01*
X413110000Y-22109424D02*
X413110000Y-22390584D01*
X322649161Y-76611910D02*
X320692866Y-77027734D01*
X322649161Y-76611910D02*
X321838305Y-72797135D01*
X320692866Y-77027734D02*
X319882010Y-73212958D01*
X338424213Y-32719617D02*
X338424213Y-28819617D01*
X338424213Y-32719617D02*
X336424213Y-32719617D01*
X336424213Y-32719617D02*
X336424213Y-28819617D01*
X403465466Y-23940001D02*
X402942962Y-23940001D01*
X403465466Y-25410001D02*
X402942962Y-25410001D01*
X410967436Y-52817636D02*
X411302969Y-53153169D01*
X411706363Y-52078709D02*
X412041896Y-52414242D01*
X367548210Y-16467031D02*
X367548210Y-16941547D01*
X368593210Y-16467031D02*
X368593210Y-16941547D01*
X298187966Y-123829485D02*
X294373191Y-124640341D01*
X298603790Y-125785780D02*
X294789014Y-126596636D01*
X298187966Y-123829485D02*
X298603790Y-125785780D01*
X304015450Y-80572630D02*
X303204594Y-76757855D01*
X302059155Y-80988454D02*
X301248299Y-77173678D01*
X304015450Y-80572630D02*
X302059155Y-80988454D01*
X331268282Y-94255463D02*
X329311987Y-94671287D01*
X329311987Y-94671287D02*
X328501131Y-90856511D01*
X331268282Y-94255463D02*
X330457426Y-90440688D01*
X350114214Y-53270004D02*
X350114214Y-49370004D01*
X352114214Y-53270004D02*
X350114214Y-53270004D01*
X352114214Y-53270004D02*
X352114214Y-49370004D01*
X319386268Y-38354260D02*
X317429973Y-38770084D01*
X317429973Y-38770084D02*
X316619117Y-34955308D01*
X319386268Y-38354260D02*
X318575412Y-34539485D01*
X332663754Y-55007641D02*
X331852898Y-51192866D01*
X330707459Y-55423465D02*
X329896603Y-51608689D01*
X332663754Y-55007641D02*
X330707459Y-55423465D01*
X275773390Y-52736169D02*
X271958614Y-53547025D01*
X275357566Y-50779874D02*
X271542791Y-51590730D01*
X275357566Y-50779874D02*
X275773390Y-52736169D01*
X421000000Y-64150000D02*
X424200000Y-64150000D01*
X424200000Y-64150000D02*
X424200000Y-68050000D01*
X361154212Y-72320001D02*
X359154212Y-72320001D01*
X359154212Y-72320001D02*
X359154212Y-68420001D01*
X361154212Y-72320001D02*
X361154212Y-68420001D01*
X406779232Y-110419999D02*
X406779232Y-106519999D01*
X408779232Y-110419999D02*
X408779232Y-106519999D01*
X408779232Y-110419999D02*
X406779232Y-110419999D01*
X413110000Y-25559420D02*
X413110000Y-25840580D01*
X412090000Y-25559420D02*
X412090000Y-25840580D01*
X285381737Y-84533348D02*
X283425442Y-84949172D01*
X285381737Y-84533348D02*
X284570881Y-80718573D01*
X283425442Y-84949172D02*
X282614586Y-81134396D01*
X398600241Y-19822500D02*
X399074757Y-19822500D01*
X398600241Y-18777500D02*
X399074757Y-18777500D01*
X390238748Y-18565000D02*
X390761252Y-18565000D01*
X390238748Y-20035000D02*
X390761252Y-20035000D01*
X416030991Y-40367965D02*
X416312151Y-40367965D01*
X416030991Y-41387965D02*
X416312151Y-41387965D01*
X325912170Y-114869515D02*
X323955875Y-115285339D01*
X323955875Y-115285339D02*
X323145019Y-111470563D01*
X325912170Y-114869515D02*
X325101314Y-111054740D01*
X415500000Y-23810000D02*
X416300000Y-23810000D01*
X415500000Y-20690000D02*
X414700000Y-20690000D01*
X415500000Y-20690000D02*
X417300000Y-20690000D01*
X415500000Y-23810000D02*
X414700000Y-23810000D01*
X424360000Y-63107836D02*
X424360000Y-62892164D01*
X423640000Y-63107836D02*
X423640000Y-62892164D01*
X419022500Y-22762742D02*
X419022500Y-23237258D01*
X417977500Y-22762742D02*
X417977500Y-23237258D01*
X342104212Y-72320003D02*
X340104212Y-72320003D01*
X342104212Y-72320003D02*
X342104212Y-68420003D01*
X340104212Y-72320003D02*
X340104212Y-68420003D01*
X424105311Y-57000000D02*
X423645692Y-56540381D01*
X413894689Y-57000000D02*
X414354308Y-57459619D01*
X419000000Y-62105311D02*
X418540381Y-61645692D01*
X414354308Y-56540381D02*
X413894689Y-57000000D01*
X419459619Y-61645692D02*
X419000000Y-62105311D01*
X418540381Y-52354308D02*
X419000000Y-51894689D01*
X423645692Y-57459619D02*
X424105311Y-57000000D01*
X409500242Y-19177499D02*
X409974758Y-19177499D01*
X409500242Y-20222499D02*
X409974758Y-20222499D01*
X357474213Y-34220000D02*
X355474213Y-34220000D01*
X357474213Y-34220000D02*
X357474213Y-30320000D01*
X355474213Y-34220000D02*
X355474213Y-30320000D01*
X420176955Y-40355468D02*
X420651471Y-40355468D01*
X420176955Y-41400468D02*
X420651471Y-41400468D01*
X401694214Y-26074999D02*
X401694214Y-32084999D01*
X401694214Y-32084999D02*
X402954214Y-32084999D01*
X408514214Y-28324999D02*
X408514214Y-32084999D01*
X408514214Y-32084999D02*
X407254214Y-32084999D01*
X370593212Y-16467033D02*
X370593212Y-16941549D01*
X369548212Y-16467033D02*
X369548212Y-16941549D01*
X419977257Y-66207837D02*
X419977257Y-65992165D01*
X420697257Y-66207837D02*
X420697257Y-65992165D01*
X369548210Y-19467031D02*
X369548210Y-19941547D01*
X370593210Y-19467031D02*
X370593210Y-19941547D01*
X402484214Y-56270001D02*
X398584214Y-56270001D01*
X402484214Y-58270001D02*
X398584214Y-58270001D01*
X402484214Y-56270001D02*
X402484214Y-58270001D01*
X279036282Y-90993815D02*
X275221506Y-91804671D01*
X278620458Y-89037520D02*
X274805683Y-89848376D01*
X278620458Y-89037520D02*
X279036282Y-90993815D01*
X312073746Y-59384185D02*
X311262890Y-55569409D01*
X314030041Y-58968361D02*
X312073746Y-59384185D01*
X314030041Y-58968361D02*
X313219185Y-55153586D01*
X282118844Y-46275697D02*
X281307988Y-42460922D01*
X282118844Y-46275697D02*
X280162549Y-46691521D01*
X280162549Y-46691521D02*
X279351693Y-42876745D01*
X416030991Y-39690908D02*
X416312151Y-39690908D01*
X416030991Y-38670908D02*
X416312151Y-38670908D01*
X270417161Y-73350265D02*
X266602385Y-74161121D01*
X270001337Y-71393970D02*
X270417161Y-73350265D01*
X270001337Y-71393970D02*
X266186562Y-72204826D01*
X384966732Y-110420001D02*
X384966732Y-106520001D01*
X382966732Y-110420001D02*
X382966732Y-106520001D01*
X384966732Y-110420001D02*
X382966732Y-110420001D01*
%LPC*%
D12*
X318842515Y-92551695D03*
D13*
X314587677Y-90859344D03*
X320270819Y-87054609D03*
D14*
X323026835Y-85783832D03*
X324509409Y-86746627D03*
X324249519Y-85523942D03*
D15*
X323743242Y-86316523D03*
D14*
X323286724Y-87006516D03*
X311824195Y-91998804D03*
X310601511Y-92258693D03*
X311564306Y-90776119D03*
D15*
X311115253Y-91597430D03*
D14*
X310341621Y-91036009D03*
D13*
X265438241Y-42879578D03*
X271121383Y-39074843D03*
D12*
X269693079Y-44571929D03*
D15*
X274593806Y-38336757D03*
D14*
X275359973Y-38766861D03*
X274137288Y-39026750D03*
X273877399Y-37804066D03*
X275100083Y-37544176D03*
X261192185Y-43056243D03*
X262414870Y-42796353D03*
X261452075Y-44278927D03*
X262674759Y-44019038D03*
D15*
X261965817Y-43617664D03*
D12*
X288326790Y-40611208D03*
D13*
X289755094Y-35114122D03*
X284071952Y-38918857D03*
D14*
X292770999Y-35066029D03*
X293733794Y-33583455D03*
X292511110Y-33843345D03*
X293993684Y-34806140D03*
D15*
X293227517Y-34376036D03*
D14*
X279825896Y-39095522D03*
X280085786Y-40318206D03*
X281308470Y-40058317D03*
D15*
X280599528Y-39656943D03*
D14*
X281048581Y-38835632D03*
D13*
X287334846Y-77176509D03*
X293017988Y-73371774D03*
D12*
X291589684Y-78868860D03*
D14*
X295774004Y-72100997D03*
D15*
X296490411Y-72633688D03*
D14*
X296033893Y-73323681D03*
X297256578Y-73063792D03*
X296996688Y-71841107D03*
X284571364Y-78315969D03*
X283088790Y-77353174D03*
D15*
X283862422Y-77914595D03*
D14*
X283348680Y-78575858D03*
X284311475Y-77093284D03*
D13*
X370944213Y-62990001D03*
X364594213Y-65530001D03*
D12*
X368404213Y-68070001D03*
D14*
X375154213Y-63570001D03*
X375154213Y-62320001D03*
X373904213Y-63570001D03*
D16*
X374494213Y-62990001D03*
D14*
X373904213Y-62320001D03*
X361654213Y-66070001D03*
X361654213Y-64820001D03*
X360404213Y-64820001D03*
X360404213Y-66070001D03*
D16*
X361044213Y-65530001D03*
D12*
X281575093Y-100473129D03*
D13*
X283003397Y-94976043D03*
X277320255Y-98780778D03*
D14*
X287241987Y-94668061D03*
X286019302Y-94927950D03*
X285759413Y-93705266D03*
D15*
X286475820Y-94237957D03*
D14*
X286982097Y-93445376D03*
D15*
X273847831Y-99518864D03*
D14*
X273334089Y-100180127D03*
X273074199Y-98957443D03*
X274556773Y-99920238D03*
X274296884Y-98697553D03*
D12*
X359364216Y-49020000D03*
D13*
X361904216Y-43940000D03*
X355554216Y-46480000D03*
D16*
X365454216Y-43940000D03*
D14*
X366114216Y-43270000D03*
X364864216Y-44520000D03*
X366114216Y-44520000D03*
X364864216Y-43270000D03*
D16*
X352004216Y-46480000D03*
D14*
X351364216Y-45770000D03*
X352614216Y-47020000D03*
X352614216Y-45770000D03*
X351364216Y-47020000D03*
D12*
X345674213Y-28469616D03*
D13*
X341864213Y-25929616D03*
X348214213Y-23389616D03*
D14*
X352424213Y-23969616D03*
X352424213Y-22719616D03*
D16*
X351764213Y-23389616D03*
D14*
X351174213Y-23969616D03*
X351174213Y-22719616D03*
X337674213Y-26469616D03*
D16*
X338314213Y-25929616D03*
D14*
X337674213Y-25219616D03*
X338924213Y-26469616D03*
X338924213Y-25219616D03*
D13*
X311651698Y-69411057D03*
X305968556Y-73215792D03*
D12*
X310223394Y-74908143D03*
D14*
X315630398Y-67880390D03*
X315890288Y-69103075D03*
X314667603Y-69362964D03*
D15*
X315124121Y-68672971D03*
D14*
X314407714Y-68140280D03*
X303205074Y-74355252D03*
X301982390Y-74615141D03*
D15*
X302496132Y-73953878D03*
D14*
X302945185Y-73132567D03*
X301722500Y-73392457D03*
D13*
X355069232Y-84580000D03*
X361419232Y-82040000D03*
D12*
X358879232Y-87120000D03*
D14*
X364379232Y-82620000D03*
X365629232Y-81370000D03*
X364379232Y-81370000D03*
D16*
X364969232Y-82040000D03*
D14*
X365629232Y-82620000D03*
D16*
X351519232Y-84580000D03*
D14*
X352129232Y-83870000D03*
X350879232Y-85120000D03*
X350879232Y-83870000D03*
X352129232Y-85120000D03*
D13*
X260082012Y-63493674D03*
D12*
X264336850Y-65186025D03*
D13*
X265765154Y-59688939D03*
D14*
X268781059Y-59640846D03*
X270003744Y-59380957D03*
X269743854Y-58158272D03*
X268521170Y-58418162D03*
D15*
X269237577Y-58950853D03*
X256609588Y-64231760D03*
D14*
X257058641Y-63410449D03*
X256095846Y-64893023D03*
X255835956Y-63670339D03*
X257318530Y-64633134D03*
D13*
X333548418Y-103707941D03*
D12*
X332120114Y-109205027D03*
D13*
X327865276Y-107512676D03*
D14*
X337787008Y-103399959D03*
X337527118Y-102177274D03*
X336304434Y-102437164D03*
X336564323Y-103659848D03*
D15*
X337020841Y-102969855D03*
X324392852Y-108250762D03*
D14*
X325101794Y-108652136D03*
X324841905Y-107429451D03*
X323619220Y-107689341D03*
X323879110Y-108912025D03*
D13*
X321666291Y-47806788D03*
D12*
X320237987Y-53303874D03*
D13*
X315983149Y-51611523D03*
D14*
X324422307Y-46536011D03*
X325644991Y-46276121D03*
D15*
X325138714Y-47068702D03*
D14*
X325904881Y-47498806D03*
X324682196Y-47758695D03*
D15*
X312510725Y-52349609D03*
D14*
X313219667Y-52750983D03*
X311737093Y-51788188D03*
X312959778Y-51528298D03*
X311996983Y-53010872D03*
D12*
X349354213Y-68070002D03*
D13*
X351894213Y-62990002D03*
X345544213Y-65530002D03*
D14*
X356104213Y-62320002D03*
X354854213Y-62320002D03*
D16*
X355444213Y-62990002D03*
D14*
X356104213Y-63570002D03*
X354854213Y-63570002D03*
X342604213Y-66070002D03*
X342604213Y-64820002D03*
X341354213Y-64820002D03*
D16*
X341994213Y-65530002D03*
D14*
X341354213Y-66070002D03*
D13*
X284398866Y-55728220D03*
X278715724Y-59532955D03*
D12*
X282970562Y-61225306D03*
D14*
X287154882Y-54457443D03*
X288377566Y-54197553D03*
D15*
X287871289Y-54990134D03*
D14*
X287414771Y-55680127D03*
X288637456Y-55420238D03*
D15*
X275243300Y-60271041D03*
D14*
X274729558Y-60932304D03*
X274469668Y-59709620D03*
X275692353Y-59449730D03*
X275952242Y-60672415D03*
D13*
X340300002Y-43846069D03*
D12*
X338871698Y-49343155D03*
D13*
X334616860Y-47650804D03*
D14*
X343056018Y-42575292D03*
X343315907Y-43797976D03*
X344278702Y-42315402D03*
X344538592Y-43538087D03*
D15*
X343772425Y-43107983D03*
D14*
X331853378Y-48790264D03*
X331593489Y-47567579D03*
X330630694Y-49050153D03*
X330370804Y-47827469D03*
D15*
X331144436Y-48388890D03*
D12*
X325594212Y-32689775D03*
D13*
X327022516Y-27192689D03*
X321339374Y-30997424D03*
D14*
X331001216Y-25662022D03*
D15*
X330494939Y-26454603D03*
D14*
X329778532Y-25921912D03*
X331261106Y-26884707D03*
X330038421Y-27144596D03*
D15*
X317866950Y-31735510D03*
D14*
X317353208Y-32396773D03*
X318316003Y-30914199D03*
X317093318Y-31174089D03*
X318575892Y-32136884D03*
D12*
X337476226Y-88590979D03*
D13*
X333221388Y-86898628D03*
X338904530Y-83093893D03*
D14*
X342883230Y-81563226D03*
X341920435Y-83045800D03*
X341660546Y-81823116D03*
D15*
X342376953Y-82355807D03*
D14*
X343143120Y-82785911D03*
X330457906Y-88038088D03*
X328975332Y-87075293D03*
X330198017Y-86815403D03*
X329235222Y-88297977D03*
D15*
X329748964Y-87636714D03*
D12*
X328857108Y-70947425D03*
D13*
X330285412Y-65450339D03*
X324602270Y-69255074D03*
D14*
X334264112Y-63919672D03*
D15*
X333757835Y-64712253D03*
D14*
X334524002Y-65142357D03*
X333041428Y-64179562D03*
X333301317Y-65402246D03*
D15*
X321129846Y-69993160D03*
D14*
X320616104Y-70654423D03*
X321578899Y-69171849D03*
X320356214Y-69431739D03*
X321838788Y-70394534D03*
D12*
X306960502Y-36650493D03*
D13*
X302705664Y-34958142D03*
X308388806Y-31153407D03*
D14*
X311144822Y-29882630D03*
X312627396Y-30845425D03*
X312367506Y-29622740D03*
X311404711Y-31105314D03*
D15*
X311861229Y-30415321D03*
D14*
X298719498Y-36357491D03*
D15*
X299233240Y-35696228D03*
D14*
X298459608Y-35134807D03*
X299682293Y-34874917D03*
X299942182Y-36097602D03*
D13*
X303032578Y-51767506D03*
D12*
X301604274Y-57264592D03*
D13*
X297349436Y-55572241D03*
D14*
X305788594Y-50496729D03*
X307271168Y-51459524D03*
D15*
X306505001Y-51029420D03*
D14*
X306048483Y-51719413D03*
X307011278Y-50236839D03*
X293363270Y-56971590D03*
X294585954Y-56711701D03*
X293103380Y-55748906D03*
X294326065Y-55489016D03*
D15*
X293877012Y-56310327D03*
D13*
X274384275Y-77332489D03*
X268701133Y-81137224D03*
D12*
X272955971Y-82829575D03*
D14*
X278362975Y-75801822D03*
X277140291Y-76061712D03*
X278622865Y-77024507D03*
D15*
X277856698Y-76594403D03*
D14*
X277400180Y-77284396D03*
D15*
X265228709Y-81875310D03*
D14*
X264455077Y-81313889D03*
X265937651Y-82276684D03*
X264714967Y-82536573D03*
X265677762Y-81053999D03*
D13*
X295953967Y-94820062D03*
D12*
X300208805Y-96512413D03*
D13*
X301637109Y-91015327D03*
D14*
X305615809Y-89484660D03*
X304393125Y-89744550D03*
D15*
X305109532Y-90277241D03*
D14*
X304653014Y-90967234D03*
X305875699Y-90707345D03*
D15*
X292481543Y-95558148D03*
D14*
X293190485Y-95959522D03*
X291707911Y-94996727D03*
X291967801Y-96219411D03*
X292930596Y-94736837D03*
D13*
X380954215Y-43940000D03*
D12*
X378414215Y-49020000D03*
D13*
X374604215Y-46480000D03*
D14*
X383914215Y-43270000D03*
X385164215Y-44520000D03*
X383914215Y-44520000D03*
D16*
X384504215Y-43940000D03*
D14*
X385164215Y-43270000D03*
X371664215Y-47020000D03*
X370414215Y-47020000D03*
D16*
X371054215Y-46480000D03*
D14*
X371664215Y-45770000D03*
X370414215Y-45770000D03*
D13*
X401900464Y-62990003D03*
X395550464Y-65530003D03*
D12*
X399360464Y-68070003D03*
D14*
X404860464Y-62320003D03*
D16*
X405450464Y-62990003D03*
D14*
X404860464Y-63570003D03*
X406110464Y-62320003D03*
X406110464Y-63570003D03*
D16*
X392000464Y-65530003D03*
D14*
X391360464Y-64820003D03*
X391360464Y-66070003D03*
X392610464Y-66070003D03*
X392610464Y-64820003D03*
D12*
X402234214Y-49020001D03*
D13*
X398424214Y-46480001D03*
X404774214Y-43940001D03*
D14*
X408984214Y-44520001D03*
X407734214Y-43270001D03*
X407734214Y-44520001D03*
D16*
X408324214Y-43940001D03*
D14*
X408984214Y-43270001D03*
X394234214Y-47020001D03*
X394234214Y-45770001D03*
X395484214Y-45770001D03*
X395484214Y-47020001D03*
D16*
X394874214Y-46480001D03*
D13*
X360914212Y-27430003D03*
X367264212Y-24890003D03*
D12*
X364724212Y-29970003D03*
D14*
X370224212Y-25470003D03*
X371474212Y-24220003D03*
X371474212Y-25470003D03*
X370224212Y-24220003D03*
D16*
X370814212Y-24890003D03*
D14*
X357974212Y-26720003D03*
X356724212Y-27970003D03*
X356724212Y-26720003D03*
D16*
X357364212Y-27430003D03*
D14*
X357974212Y-27970003D03*
D12*
X292523479Y-117621540D03*
D13*
X288268641Y-115929189D03*
X293951783Y-112124454D03*
D14*
X298190373Y-111816472D03*
X296707799Y-110853677D03*
X296967688Y-112076361D03*
D15*
X297424206Y-111386368D03*
D14*
X297930483Y-110593787D03*
X285505159Y-117068649D03*
D15*
X284796217Y-116667275D03*
D14*
X285245270Y-115845964D03*
X284282475Y-117328538D03*
X284022585Y-116105854D03*
D13*
X394756732Y-101090000D03*
X388406732Y-103630000D03*
D12*
X392216732Y-106170000D03*
D14*
X398966732Y-100420000D03*
D16*
X398306732Y-101090000D03*
D14*
X398966732Y-101670000D03*
X397716732Y-101670000D03*
X397716732Y-100420000D03*
X385466732Y-104170000D03*
X385466732Y-102920000D03*
X384216732Y-102920000D03*
D16*
X384856732Y-103630000D03*
D14*
X384216732Y-104170000D03*
D17*
X423200000Y-27500000D03*
X423200000Y-20500000D03*
D13*
X418569231Y-82039999D03*
D12*
X416029231Y-87119999D03*
D13*
X412219231Y-84579999D03*
D14*
X421529231Y-82619999D03*
X422779231Y-82619999D03*
X421529231Y-81369999D03*
D16*
X422119231Y-82039999D03*
D14*
X422779231Y-81369999D03*
D16*
X408669231Y-84579999D03*
D14*
X408029231Y-85119999D03*
X408029231Y-83869999D03*
X409279231Y-85119999D03*
X409279231Y-83869999D03*
D13*
X412219231Y-103630000D03*
D12*
X416029231Y-106170000D03*
D13*
X418569231Y-101090000D03*
D14*
X422779231Y-101670000D03*
X422779231Y-100420000D03*
D16*
X422119231Y-101090000D03*
D14*
X421529231Y-100420000D03*
X421529231Y-101670000D03*
D16*
X408669231Y-103630000D03*
D14*
X408029231Y-102920000D03*
X409279231Y-104170000D03*
X409279231Y-102920000D03*
X408029231Y-104170000D03*
D18*
X344000000Y-114000000D03*
D19*
X345270000Y-114000000D03*
X346540000Y-114000000D03*
D20*
X378110000Y-20360021D03*
X383890000Y-20360021D03*
D21*
X376680000Y-16680021D03*
D22*
X376680000Y-20860021D03*
X385320000Y-20860021D03*
D21*
X385320000Y-16680021D03*
D12*
X393299213Y-29970001D03*
D13*
X395839213Y-24890001D03*
X389489213Y-27430001D03*
D14*
X398799213Y-24220001D03*
D16*
X399389213Y-24890001D03*
D14*
X400049213Y-25470001D03*
X398799213Y-25470001D03*
X400049213Y-24220001D03*
X386549213Y-26720001D03*
X386549213Y-27970001D03*
X385299213Y-27970001D03*
X385299213Y-26720001D03*
D16*
X385939213Y-27430001D03*
D12*
X387454234Y-87119999D03*
D13*
X389994234Y-82039999D03*
X383644234Y-84579999D03*
D14*
X394204234Y-82619999D03*
X392954234Y-81369999D03*
X392954234Y-82619999D03*
D16*
X393544234Y-82039999D03*
D14*
X394204234Y-81369999D03*
X380704234Y-83869999D03*
X379454234Y-83869999D03*
X380704234Y-85119999D03*
D16*
X380094234Y-84579999D03*
D14*
X379454234Y-85119999D03*
D13*
X366181733Y-101090001D03*
X359831733Y-103630001D03*
D12*
X363641733Y-106170001D03*
D14*
X369141733Y-100420001D03*
X370391733Y-100420001D03*
D16*
X369731733Y-101090001D03*
D14*
X370391733Y-101670001D03*
X369141733Y-101670001D03*
X356891733Y-104170001D03*
X355641733Y-102920001D03*
D16*
X356281733Y-103630001D03*
D14*
X355641733Y-104170001D03*
X356891733Y-102920001D03*
D23*
X418689999Y-73725001D03*
D24*
X418689999Y-76265001D03*
D25*
X391110465Y-71720001D03*
X391110465Y-68420001D03*
D26*
X416637500Y-24749997D03*
X416637500Y-25699997D03*
X416637500Y-26649997D03*
X414362500Y-26649997D03*
X414362500Y-24749997D03*
D27*
X292897966Y-101797920D03*
X292211858Y-98570032D03*
D25*
X350629232Y-90770000D03*
X350629232Y-87470000D03*
D27*
X299649663Y-41936004D03*
X298963555Y-38708116D03*
D28*
X405299996Y-19399999D03*
X405299996Y-17499999D03*
X407174996Y-18449999D03*
D25*
X355391731Y-109819999D03*
X355391731Y-106519999D03*
D28*
X401399998Y-19399999D03*
X401399998Y-17499999D03*
X403274998Y-18449999D03*
D29*
X408054214Y-24675000D03*
X406154214Y-24675000D03*
D27*
X294293432Y-62550100D03*
X293607324Y-59322212D03*
D25*
X385049213Y-33620002D03*
X385049213Y-30320002D03*
X407779232Y-90770000D03*
X407779232Y-87470000D03*
D27*
X275659723Y-66510819D03*
X274973615Y-63282931D03*
D30*
X412052675Y-50901203D03*
X413219401Y-52067929D03*
D31*
X414675000Y-28250000D03*
X416325000Y-28250000D03*
D32*
X286860604Y-107783969D03*
X283632716Y-108470077D03*
D31*
X408912497Y-17450001D03*
X410562497Y-17450001D03*
D33*
X392650000Y-21500000D03*
X389350000Y-21500000D03*
D27*
X311531677Y-97837204D03*
X310845569Y-94609316D03*
D25*
X370164214Y-52670001D03*
X370164214Y-49370001D03*
D34*
X421837211Y-63271573D03*
X420817211Y-63271573D03*
D35*
X421892891Y-43074187D03*
X421892891Y-44344187D03*
X421892891Y-45614187D03*
X421892891Y-46884187D03*
X414692891Y-46884187D03*
X414692891Y-45614187D03*
X414692891Y-44344187D03*
X414692891Y-43074187D03*
D25*
X379204232Y-90770000D03*
X379204232Y-87470000D03*
D36*
X368070711Y-18879289D03*
X368070711Y-20529289D03*
D37*
X421600000Y-71000000D03*
X419950000Y-71000000D03*
D38*
X412600000Y-21475004D03*
X412600000Y-23025004D03*
D27*
X321546266Y-76232934D03*
X320860158Y-73005046D03*
D25*
X337424213Y-32119617D03*
X337424213Y-28819617D03*
D29*
X404154214Y-24675001D03*
X402254214Y-24675001D03*
D30*
X410921303Y-52032576D03*
X412088029Y-53199302D03*
D36*
X368070710Y-15879289D03*
X368070710Y-17529289D03*
D32*
X297808990Y-124932380D03*
X294581102Y-125618488D03*
D27*
X302912555Y-80193654D03*
X302226447Y-76965766D03*
X330165387Y-93876487D03*
X329479279Y-90648599D03*
D25*
X351114214Y-52670004D03*
X351114214Y-49370004D03*
D27*
X318283373Y-37975284D03*
X317597265Y-34747396D03*
X331560859Y-54628665D03*
X330874751Y-51400777D03*
D32*
X274978590Y-51882769D03*
X271750702Y-52568877D03*
D39*
X423500000Y-65000000D03*
X423500000Y-67200000D03*
X421700000Y-67200000D03*
X421700000Y-65000000D03*
D25*
X360154212Y-71720001D03*
X360154212Y-68420001D03*
X407779232Y-109819999D03*
X407779232Y-106519999D03*
D38*
X412600000Y-24925000D03*
X412600000Y-26475000D03*
D27*
X284278842Y-84154372D03*
X283592734Y-80926484D03*
D31*
X398012499Y-19300000D03*
X399662499Y-19300000D03*
D40*
X389550000Y-19300000D03*
X391450000Y-19300000D03*
D41*
X415396571Y-40877965D03*
X416946571Y-40877965D03*
D27*
X324809275Y-114490539D03*
X324123167Y-111262651D03*
D26*
X416637500Y-21300000D03*
X416637500Y-22250000D03*
X416637500Y-23200000D03*
X414362500Y-23200000D03*
X414362500Y-21300000D03*
D42*
X424000000Y-63480000D03*
X424000000Y-62520000D03*
D36*
X418500000Y-22175000D03*
X418500000Y-23825000D03*
D25*
X341104212Y-71720003D03*
X341104212Y-68420003D03*
D43*
X419592202Y-52730843D03*
X419875045Y-53013686D03*
X420157887Y-53296528D03*
X420440730Y-53579371D03*
X420723573Y-53862214D03*
X421006415Y-54145056D03*
X421289258Y-54427899D03*
X421572101Y-54710742D03*
X421854944Y-54993585D03*
X422137786Y-55276427D03*
X422420629Y-55559270D03*
X422703472Y-55842113D03*
X422986314Y-56124955D03*
X423269157Y-56407798D03*
D44*
X423269157Y-57592202D03*
X422986314Y-57875045D03*
X422703472Y-58157887D03*
X422420629Y-58440730D03*
X422137786Y-58723573D03*
X421854944Y-59006415D03*
X421572101Y-59289258D03*
X421289258Y-59572101D03*
X421006415Y-59854944D03*
X420723573Y-60137786D03*
X420440730Y-60420629D03*
X420157887Y-60703472D03*
X419875045Y-60986314D03*
X419592202Y-61269157D03*
D43*
X418407798Y-61269157D03*
X418124955Y-60986314D03*
X417842113Y-60703472D03*
X417559270Y-60420629D03*
X417276427Y-60137786D03*
X416993585Y-59854944D03*
X416710742Y-59572101D03*
X416427899Y-59289258D03*
X416145056Y-59006415D03*
X415862214Y-58723573D03*
X415579371Y-58440730D03*
X415296528Y-58157887D03*
X415013686Y-57875045D03*
X414730843Y-57592202D03*
D44*
X414730843Y-56407798D03*
X415013686Y-56124955D03*
X415296528Y-55842113D03*
X415579371Y-55559270D03*
X415862214Y-55276427D03*
X416145056Y-54993585D03*
X416427899Y-54710742D03*
X416710742Y-54427899D03*
X416993585Y-54145056D03*
X417276427Y-53862214D03*
X417559270Y-53579371D03*
X417842113Y-53296528D03*
X418124955Y-53013686D03*
X418407798Y-52730843D03*
D45*
X420803122Y-57000000D03*
X417196878Y-57000000D03*
D46*
X419000000Y-57000000D03*
D45*
X419901561Y-56098439D03*
X419901561Y-57901561D03*
X418098439Y-57901561D03*
X419000000Y-55196878D03*
X418098439Y-56098439D03*
X419000000Y-57000000D03*
X419000000Y-58803122D03*
D31*
X408912500Y-19699999D03*
X410562500Y-19699999D03*
D25*
X356474213Y-33620000D03*
X356474213Y-30320000D03*
D31*
X419589213Y-40877968D03*
X421239213Y-40877968D03*
D47*
X402804214Y-27024999D03*
X405104214Y-27024999D03*
D48*
X405104214Y-33324999D03*
D47*
X407404214Y-27024999D03*
D36*
X370070712Y-15879291D03*
X370070712Y-17529291D03*
D42*
X420337257Y-66580001D03*
X420337257Y-65620001D03*
D36*
X370070710Y-18879289D03*
X370070710Y-20529289D03*
D33*
X401884214Y-57270001D03*
X398584214Y-57270001D03*
D32*
X278241482Y-90140415D03*
X275013594Y-90826523D03*
D27*
X312927146Y-58589385D03*
X312241038Y-55361497D03*
X281015949Y-45896721D03*
X280329841Y-42668833D03*
D41*
X415396571Y-39180908D03*
X416946571Y-39180908D03*
D32*
X269622361Y-72496865D03*
X266394473Y-73182973D03*
D25*
X383966732Y-109820001D03*
X383966732Y-106520001D03*
M02*
