M48
; DRILL file {KiCad (6.0.10)} date Mon 02 Jan 2023 23:24:46 CET
; FORMAT={-:-/ absolute / inch / decimal}
; #@! TF.CreationDate,2023-01-02T23:24:46+01:00
; #@! TF.GenerationSoftware,Kicad,Pcbnew,(6.0.10)
; #@! TF.FileFunction,Plated,1,2,PTH
FMAT,2
INCH
; #@! TA.AperFunction,Plated,PTH,ViaDrill
T1C0.0079
; #@! TA.AperFunction,Plated,PTH,ComponentDrill
T2C0.0138
; #@! TA.AperFunction,Plated,PTH,ViaDrill
T3C0.0157
; #@! TA.AperFunction,Plated,PTH,ComponentDrill
T4C0.0157
; #@! TA.AperFunction,Plated,PTH,ComponentDrill
T5C0.0236
; #@! TA.AperFunction,Plated,PTH,ComponentDrill
T6C0.0256
; #@! TA.AperFunction,Plated,PTH,ComponentDrill
T7C0.0394
%
G90
G05
T1
X14.8976Y-0.7559
X15.0709Y-0.7717
X15.1239Y-2.3486
X15.8976Y-1.374
X15.9094Y-1.6024
X16.0118Y-3.0472
X16.0367Y-3.0248
X16.0394Y-1.8543
X16.0787Y-3.1181
X16.1654Y-2.4252
X16.189Y-2.4094
X16.2126Y-2.3937
X16.2362Y-2.378
X16.2598Y-2.3622
X16.2835Y-2.3465
X16.2992Y-2.2874
X16.3031Y-2.1969
X16.3148Y-2.1695
X16.3469Y-2.4099
X16.3583Y-0.9154
X16.3583Y-1.0531
X16.3583Y-2.465
X16.3601Y-2.132
X16.3637Y-2.104
X16.3906Y-2.2438
X16.3937Y-2.4095
X16.4469Y-0.9055
X16.4469Y-1.0531
X16.5433Y-2.4646
X16.5472Y-2.0472
X16.5899Y-2.393
X16.614Y-2.3787
X16.6142Y-1.5748
X16.6175Y-2.4089
X16.6339Y-2.7953
X16.6378Y-2.5157
X16.6378Y-2.6024
X16.6496Y-2.1457
X16.6693Y-2.3504
X16.6929Y-2.4016
X16.7362Y-2.3071
T2
X16.4251Y-2.2441
X16.4606Y-2.2086
X16.4606Y-2.2796
X16.4961Y-2.1731
X16.4961Y-2.2441
X16.4961Y-2.3151
X16.5316Y-2.2086
X16.5316Y-2.2796
X16.5671Y-2.2441
T3
X10.6217Y-2.7913
X10.7425Y-2.8188
X10.8421Y-1.9882
X10.8427Y-2.5689
X10.9563Y-3.4921
X11.0592Y-1.7618
X11.1813Y-3.2579
X11.3028Y-4.1969
X11.4347Y-2.6215
X11.5238Y-3.9587
X11.5789Y-2.4154
X11.7272Y-4.6686
X11.7915Y-1.6043
X11.9175Y-3.1083
X12.1717Y-2.4885
X12.2561Y-3.8012
X12.3112Y-2.2579
X12.5238Y-1.4508
X12.6458Y-2.9508
X12.7797Y-4.4508
X12.9844Y-3.6476
X13.0474Y-2.1043
X13.2915Y-1.2185
X13.4332Y-2.7697
X13.8073Y-3.5217
X13.8269Y-2.0256
X13.8426Y-2.3287
X13.9962Y-4.2657
X14.0317Y-1.2736
X14.1773Y-2.7736
X14.571Y-2.0256
X14.9293Y-3.5177
X14.9818Y-0.9042
X14.9961Y-0.7913
X15.0129Y-0.747
X15.0182Y-0.9042
X15.1183Y-4.2657
X15.1576Y-1.2697
X15.2835Y-0.8583
X15.2874Y-0.7756
X15.374Y-0.8583
X15.3978Y-2.7657
X15.4921Y-0.7283
X15.4921Y-0.7874
X15.6299Y-0.7677
X15.7756Y-2.2913
X15.7992Y-1.0276
X15.8071Y-0.9134
X15.8661Y-1.1339
X15.8819Y-1.4154
X15.8819Y-1.5472
X15.937Y-1.4154
X15.937Y-1.5472
X15.949Y-1.1655
X15.9646Y-0.9252
X16.0118Y-0.9252
X16.0553Y-3.5177
X16.0592Y-4.2579
X16.2718Y-0.7224
X16.3031Y-1.4921
X16.3189Y-0.7972
X16.3189Y-1.0138
X16.4056Y-1.65
X16.4173Y-0.7579
X16.4173Y-1.1516
X16.4214Y-1.4925
X16.4686Y-1.5476
X16.4961Y-2.374
X16.5059Y-0.8366
X16.5326Y-1.8739
X16.5394Y-2.1535
X16.5406Y-1.8321
X16.574Y-1.8878
X16.5945Y-0.7579
X16.811Y-0.9252
T4
X10.0723Y-2.5067
X10.0825Y-2.5548
X10.1204Y-2.4965
X10.1307Y-2.5446
X10.2832Y-1.6951
X10.2934Y-1.7433
X10.3313Y-1.6849
X10.3415Y-1.733
X10.4116Y-3.2013
X10.4218Y-3.2495
X10.4598Y-3.1911
X10.47Y-3.2392
X10.5717Y-2.2999
X10.5819Y-2.3481
X10.6198Y-2.2897
X10.6301Y-2.3378
X10.751Y-3.896
X10.7612Y-3.9441
X10.7826Y-1.4883
X10.7928Y-1.5365
X10.7991Y-3.8857
X10.8059Y-2.3508
X10.8093Y-3.9339
X10.8161Y-2.3989
X10.8307Y-1.4781
X10.8409Y-1.5263
X10.854Y-2.3405
X10.8643Y-2.3887
X10.911Y-2.9946
X10.9213Y-3.0427
X10.9592Y-2.9843
X10.9694Y-3.0325
X11.0168Y-1.5392
X11.027Y-1.5873
X11.0649Y-1.529
X11.0751Y-1.5771
X11.1452Y-3.0454
X11.1555Y-3.0935
X11.182Y-4.5711
X11.1922Y-4.6192
X11.1934Y-3.0352
X11.2036Y-3.0833
X11.2301Y-4.5609
X11.2404Y-4.609
X11.2504Y-3.6892
X11.2606Y-3.7373
X11.2985Y-3.679
X11.3053Y-2.144
X11.3087Y-3.7271
X11.3155Y-2.1921
X11.3534Y-2.1338
X11.3637Y-2.1819
X11.4846Y-3.74
X11.4948Y-3.7882
X11.5162Y-1.3324
X11.5264Y-1.3806
X11.5327Y-3.7298
X11.5395Y-2.1948
X11.5429Y-3.7779
X11.5497Y-2.243
X11.5643Y-1.3222
X11.5746Y-1.3703
X11.5876Y-2.1846
X11.5979Y-2.2327
X11.6446Y-2.8386
X11.6549Y-2.8868
X11.6814Y-4.3643
X11.6916Y-4.4125
X11.6928Y-2.8284
X11.703Y-2.8765
X11.7295Y-4.3541
X11.7398Y-4.4022
X11.7504Y-1.3833
X11.7606Y-1.4314
X11.7985Y-1.373
X11.8087Y-1.4212
X11.8788Y-2.8895
X11.8891Y-2.9376
X11.927Y-2.8792
X11.9372Y-2.9274
X11.984Y-3.5332
X11.9942Y-3.5814
X12.0321Y-3.523
X12.0389Y-1.9881
X12.0424Y-3.5712
X12.0492Y-2.0362
X12.0871Y-1.9778
X12.0973Y-2.026
X12.2182Y-3.5841
X12.2284Y-3.6322
X12.2498Y-1.1765
X12.26Y-1.2246
X12.2663Y-3.5739
X12.2731Y-2.0389
X12.2765Y-3.622
X12.2833Y-2.087
X12.2979Y-1.1662
X12.3082Y-1.2144
X12.3213Y-2.0287
X12.3315Y-2.0768
X12.3783Y-2.6827
X12.3885Y-2.7308
X12.4264Y-2.6725
X12.4366Y-2.7206
X12.484Y-1.2273
X12.4942Y-1.2755
X12.5321Y-1.2171
X12.5424Y-1.2652
X12.6124Y-2.7335
X12.6227Y-2.7817
X12.6606Y-2.7233
X12.6708Y-2.7714
X12.7176Y-3.3773
X12.7278Y-3.4255
X12.7409Y-4.2397
X12.7511Y-4.2879
X12.7657Y-3.3671
X12.7725Y-1.8321
X12.776Y-3.4152
X12.7828Y-1.8803
X12.7891Y-4.2295
X12.7993Y-4.2776
X12.8207Y-1.8219
X12.8309Y-1.87
X12.9518Y-3.4282
X12.962Y-3.4763
X12.9834Y-1.0205
X12.9936Y-1.0687
X12.9999Y-3.4179
X13.0067Y-1.883
X13.0102Y-3.4661
X13.017Y-1.9311
X13.0315Y-1.0103
X13.0418Y-1.0585
X13.0549Y-1.8727
X13.0651Y-1.9209
X13.1119Y-2.5268
X13.1221Y-2.5749
X13.16Y-2.5165
X13.1702Y-2.5647
X13.2403Y-4.033
X13.2506Y-4.0811
X13.2885Y-4.0227
X13.2943Y-0.9929
X13.2943Y-1.0421
X13.2987Y-4.0709
X13.3435Y-0.9929
X13.3435Y-1.0421
X13.4391Y-2.552
X13.4391Y-2.6012
X13.4512Y-3.2214
X13.4614Y-3.2695
X13.4884Y-2.552
X13.4884Y-2.6012
X13.4993Y-3.2112
X13.5061Y-1.6762
X13.5096Y-3.2593
X13.5164Y-1.7243
X13.5543Y-1.666
X13.5645Y-1.7141
X13.8141Y-3.302
X13.8141Y-3.3512
X13.8258Y-0.8945
X13.8258Y-0.9437
X13.8332Y-1.802
X13.8332Y-1.8512
X13.8634Y-3.302
X13.8634Y-3.3512
X13.875Y-0.8945
X13.875Y-0.9437
X13.8824Y-1.802
X13.8824Y-1.8512
X13.9706Y-2.4535
X13.9706Y-2.5028
X14.0016Y-4.052
X14.0016Y-4.1012
X14.0199Y-2.4535
X14.0199Y-2.5028
X14.0443Y-1.052
X14.0443Y-1.1012
X14.0509Y-4.052
X14.0509Y-4.1012
X14.0935Y-1.052
X14.0935Y-1.1012
X14.1891Y-2.552
X14.1891Y-2.6012
X14.2384Y-2.552
X14.2384Y-2.6012
X14.3456Y-3.2035
X14.3456Y-3.2528
X14.3647Y-1.7035
X14.3647Y-1.7528
X14.3949Y-3.2035
X14.3949Y-3.2528
X14.4139Y-1.7035
X14.4139Y-1.7528
X14.5331Y-3.9535
X14.5331Y-4.0028
X14.5758Y-0.9535
X14.5758Y-1.0028
X14.5824Y-3.9535
X14.5824Y-4.0028
X14.5832Y-1.802
X14.5832Y-1.8512
X14.625Y-0.9535
X14.625Y-1.0028
X14.6324Y-1.802
X14.6324Y-1.8512
X14.7206Y-2.4535
X14.7206Y-2.5028
X14.7699Y-2.4535
X14.7699Y-2.5028
X14.9391Y-3.302
X14.9391Y-3.3512
X14.9884Y-3.302
X14.9884Y-3.3512
X15.1147Y-1.7035
X15.1147Y-1.7528
X15.1266Y-4.052
X15.1266Y-4.1012
X15.1639Y-1.7035
X15.1639Y-1.7528
X15.1693Y-1.052
X15.1693Y-1.1012
X15.1759Y-4.052
X15.1759Y-4.1012
X15.2185Y-1.052
X15.2185Y-1.1012
X15.4079Y-2.552
X15.4079Y-2.6012
X15.4571Y-2.552
X15.4571Y-2.6012
X15.4706Y-3.2035
X15.4706Y-3.2528
X15.5199Y-3.2035
X15.5199Y-3.2528
X15.521Y-1.802
X15.521Y-1.8512
X15.5702Y-1.802
X15.5702Y-1.8512
X15.6581Y-3.9535
X15.6581Y-4.0028
X15.7008Y-0.9535
X15.7008Y-1.0028
X15.7074Y-3.9535
X15.7074Y-4.0028
X15.75Y-0.9535
X15.75Y-1.0028
X15.9394Y-2.4535
X15.9394Y-2.5028
X15.9886Y-2.4535
X15.9886Y-2.5028
X16.0525Y-1.7035
X16.0525Y-1.7528
X16.0641Y-3.302
X16.0641Y-3.3512
X16.0641Y-4.052
X16.0641Y-4.1012
X16.1017Y-1.7035
X16.1017Y-1.7528
X16.1134Y-3.302
X16.1134Y-3.3512
X16.1134Y-4.052
X16.1134Y-4.1012
X16.5956Y-3.2035
X16.5956Y-3.2528
X16.5956Y-3.9535
X16.5956Y-4.0028
X16.6449Y-3.2035
X16.6449Y-3.2528
X16.6449Y-3.9535
X16.6449Y-4.0028
T6
X13.5433Y-4.4882
X13.5933Y-4.4882
X13.6433Y-4.4882
T7
X16.4839Y-2.9026
X16.4839Y-3.0026
T5
G00X14.8299Y-0.6685
M15
G01X14.8299Y-0.6449
M16
G05
G00X14.8299Y-0.8429
M15
G01X14.8299Y-0.7996
M16
G05
G00X15.1701Y-0.6685
M15
G01X15.1701Y-0.6449
M16
G05
G00X15.1701Y-0.8429
M15
G01X15.1701Y-0.7996
M16
G05
T0
M30
