M48
; DRILL file {KiCad (6.0.10)} date Mon 02 Jan 2023 23:24:46 CET
; FORMAT={-:-/ absolute / inch / decimal}
; #@! TF.CreationDate,2023-01-02T23:24:46+01:00
; #@! TF.GenerationSoftware,Kicad,Pcbnew,(6.0.10)
; #@! TF.FileFunction,NonPlated,1,2,NPTH
FMAT,2
INCH
; #@! TA.AperFunction,NonPlated,NPTH,ComponentDrill
T1C0.0256
; #@! TA.AperFunction,NonPlated,NPTH,ComponentDrill
T2C0.0669
; #@! TA.AperFunction,NonPlated,NPTH,ComponentDrill
T3C0.1181
; #@! TA.AperFunction,NonPlated,NPTH,ComponentDrill
T4C0.1575
%
G90
G05
T1
X14.8862Y-0.8016
X15.1138Y-0.8016
T2
X16.6614Y-0.8071
X16.6614Y-1.0827
T3
X10.2394Y-2.4998
X10.4503Y-1.6882
X10.4632Y-2.35
X10.5788Y-3.1944
X10.6741Y-1.5384
X10.8025Y-3.0446
X10.9181Y-3.889
X10.9731Y-2.3438
X11.1419Y-3.7392
X11.1839Y-1.5322
X11.1968Y-2.194
X11.3124Y-3.0384
X11.3492Y-4.5641
X11.4077Y-1.3824
X11.5361Y-2.8887
X11.5729Y-4.4143
X11.6517Y-3.7331
X11.7067Y-2.1879
X11.8755Y-3.5833
X11.9175Y-1.3763
X11.9304Y-2.0381
X12.046Y-2.8825
X12.1413Y-1.2265
X12.2698Y-2.7327
X12.3853Y-3.5771
X12.4403Y-2.0319
X12.6091Y-3.4273
X12.6512Y-1.2204
X12.664Y-1.8822
X12.7796Y-2.7266
X12.8749Y-1.0706
X12.9081Y-4.2328
X13.0034Y-2.5768
X13.119Y-3.4212
X13.1318Y-4.083
X13.1739Y-1.876
X13.3427Y-3.2714
X13.3976Y-1.7262
X13.4592Y-1.0209
X13.6041Y-2.5799
X13.7092Y-0.9209
X13.8541Y-2.4799
X13.9791Y-3.3299
X13.9982Y-1.8299
X14.1666Y-4.0799
X14.2092Y-1.0799
X14.2291Y-3.2299
X14.2482Y-1.7299
X14.3541Y-2.5799
X14.4166Y-3.9799
X14.4592Y-0.9799
X14.6041Y-2.4799
X14.7482Y-1.8299
X14.9982Y-1.7299
X15.1041Y-3.3299
X15.2916Y-4.0799
X15.3342Y-1.0799
X15.3541Y-3.2299
X15.5416Y-3.9799
X15.5729Y-2.5799
X15.5842Y-0.9799
X15.686Y-1.8299
X15.8229Y-2.4799
X15.936Y-1.7299
X16.2291Y-3.3299
X16.2291Y-4.0799
X16.4791Y-3.2299
X16.4791Y-3.9799
T4
X10.407Y-2.5664
X10.6178Y-1.7548
X10.7463Y-3.261
X11.0856Y-3.9556
X11.1406Y-2.4104
X11.3514Y-1.5989
X11.4799Y-3.1051
X11.5167Y-4.6308
X11.8192Y-3.7997
X11.8742Y-2.2545
X12.0851Y-1.4429
X12.2135Y-2.9491
X12.5529Y-3.6438
X12.6078Y-2.0986
X12.8187Y-1.287
X12.9471Y-2.7932
X13.0756Y-4.2994
X13.2865Y-3.4878
X13.3414Y-1.9426
X13.6092Y-1.1209
X13.7541Y-2.6799
X14.1291Y-3.4299
X14.1482Y-1.9299
X14.3166Y-4.1799
X14.3592Y-1.1799
X14.5041Y-2.6799
X14.8982Y-1.9299
X15.2541Y-3.4299
X15.4416Y-4.1799
X15.4842Y-1.1799
X15.7229Y-2.6799
X15.836Y-1.9299
X16.3791Y-3.4299
X16.3791Y-4.1799
T0
M30
