G04 #@! TF.GenerationSoftware,KiCad,Pcbnew,(6.0.10)*
G04 #@! TF.CreationDate,2023-01-02T23:24:37+01:00*
G04 #@! TF.ProjectId,arisu,61726973-752e-46b6-9963-61645f706362,1.1*
G04 #@! TF.SameCoordinates,Original*
G04 #@! TF.FileFunction,Profile,NP*
%FSLAX46Y46*%
G04 Gerber Fmt 4.6, Leading zero omitted, Abs format (unit mm)*
G04 Created by KiCad (PCBNEW (6.0.10)) date 2023-01-02 23:24:37*
%MOMM*%
%LPD*%
G01*
G04 APERTURE LIST*
G04 #@! TA.AperFunction,Profile*
%ADD10C,0.000100*%
G04 #@! TD*
G04 APERTURE END LIST*
D10*
X271390680Y-132352008D02*
X348320001Y-116000001D01*
X424000000Y-116000000D02*
G75*
G03*
X426000000Y-114000000I0J2000000D01*
G01*
X267907762Y-93216107D02*
X268680491Y-93051859D01*
X262404529Y-76944724D02*
G75*
G03*
X260032367Y-75404262I-1956329J-415876D01*
G01*
X260906442Y-56622108D02*
G75*
G03*
X262446912Y-54249979I-415842J1956308D01*
G01*
X272817939Y-112517005D02*
G75*
G03*
X274358408Y-110144873I-415839J1956305D01*
G01*
X259298764Y-75560195D02*
X260032367Y-75404262D01*
X271052613Y-94592330D02*
X274358408Y-110144873D01*
X425999998Y-33499998D02*
X425999998Y-113999997D01*
X427249999Y-31750000D02*
G75*
G03*
X428500000Y-30000000I-599999J1750000D01*
G01*
X348320001Y-116000001D02*
X424000000Y-116000000D01*
X365000000Y-15000000D02*
X428500000Y-15000001D01*
X253976375Y-60139809D02*
X256926642Y-74019724D01*
X255516846Y-57767685D02*
G75*
G03*
X253976375Y-60139809I415854J-1956315D01*
G01*
X427249999Y-31749998D02*
G75*
G03*
X425999998Y-33499998I600001J-1750002D01*
G01*
X260854152Y-37137172D02*
X365000000Y-15000000D01*
X259313681Y-39509294D02*
X262446912Y-54249979D01*
X256926599Y-74019733D02*
G75*
G03*
X259298764Y-75560195I1956301J415833D01*
G01*
X265535665Y-91675631D02*
G75*
G03*
X267907762Y-93216107I1956235J415731D01*
G01*
X262404489Y-76944733D02*
X265535640Y-91675636D01*
X255516846Y-57767687D02*
X260906441Y-56622101D01*
X269018603Y-130811528D02*
G75*
G03*
X271390680Y-132352008I1956297J415828D01*
G01*
X428500000Y-15000001D02*
X428500000Y-30000001D01*
X267418562Y-113664664D02*
X272817937Y-112516995D01*
X271052628Y-94592327D02*
G75*
G03*
X268680491Y-93051859I-1956328J-415873D01*
G01*
X265878091Y-116036786D02*
X269018558Y-130811537D01*
X267418570Y-113664700D02*
G75*
G03*
X265878091Y-116036786I415830J-1956300D01*
G01*
X260854156Y-37137192D02*
G75*
G03*
X259313681Y-39509294I415844J-1956308D01*
G01*
X389378463Y-50088143D02*
X393317694Y-50782736D01*
X393190913Y-55532886D02*
X393885505Y-51593655D01*
X391221537Y-56911857D02*
X387282306Y-56217264D01*
X387409087Y-51467114D02*
X386714495Y-55406345D01*
X386714496Y-55406345D02*
G75*
G03*
X387282306Y-56217264I689363J-121555D01*
G01*
X393885505Y-51593655D02*
G75*
G03*
X393317694Y-50782736I-689365J121554D01*
G01*
X389378463Y-50088143D02*
G75*
G03*
X387409087Y-51467114I-97320J-1956778D01*
G01*
X391221537Y-56911857D02*
G75*
G03*
X393190913Y-55532886I97322J1956776D01*
G01*
X316632539Y-115818205D02*
X312719948Y-116649852D01*
X312367461Y-110181795D02*
X316280052Y-109350148D01*
X311058060Y-112198096D02*
X311889707Y-116110686D01*
X317941940Y-113801904D02*
X317110293Y-109889314D01*
X317110294Y-109889314D02*
G75*
G03*
X316280052Y-109350148I-684704J-145538D01*
G01*
X316632539Y-115818205D02*
G75*
G03*
X317941940Y-113801904I-642787J1850749D01*
G01*
X311889705Y-116110686D02*
G75*
G03*
X312719948Y-116649852I684704J145537D01*
G01*
X312367461Y-110181795D02*
G75*
G03*
X311058060Y-112198096I642789J-1850750D01*
G01*
X373800000Y-106000000D02*
X373800000Y-110000000D01*
X380200000Y-109000000D02*
X380200000Y-105000000D01*
X378500000Y-110700000D02*
X374500000Y-110700000D01*
X375500000Y-104300000D02*
X379500000Y-104300000D01*
X373800000Y-110000000D02*
G75*
G03*
X374500000Y-110700000I699999J-1D01*
G01*
X380200000Y-105000000D02*
G75*
G03*
X379500000Y-104300000I-700000J0D01*
G01*
X375500000Y-104300000D02*
G75*
G03*
X373800000Y-106000000I243950J-1943950D01*
G01*
X378500000Y-110700000D02*
G75*
G03*
X380200000Y-109000000I-243948J1943948D01*
G01*
M02*
