M48
; DRILL file {KiCad (6.0.9)} date Thu 10 Nov 2022 21:17:30 CET
; FORMAT={-:-/ absolute / inch / decimal}
; #@! TF.CreationDate,2022-11-10T21:17:30+01:00
; #@! TF.GenerationSoftware,Kicad,Pcbnew,(6.0.9)
; #@! TF.FileFunction,Plated,1,2,PTH
FMAT,2
INCH
; #@! TA.AperFunction,Plated,PTH,ViaDrill
T1C0.0079
; #@! TA.AperFunction,Plated,PTH,ComponentDrill
T2C0.0138
; #@! TA.AperFunction,Plated,PTH,ViaDrill
T3C0.0157
; #@! TA.AperFunction,Plated,PTH,ComponentDrill
T4C0.0157
; #@! TA.AperFunction,Plated,PTH,ComponentDrill
T5C0.0236
; #@! TA.AperFunction,Plated,PTH,ComponentDrill
T6C0.0256
; #@! TA.AperFunction,Plated,PTH,ComponentDrill
T7C0.0394
%
G90
G05
T1
X0.6201Y-2.9035
X0.6496Y-2.9035
X0.685Y-1.2697
X0.8387Y-3.8648
X0.8741Y-3.7615
X0.8964Y-3.8061
X0.9134Y-3.7106
X0.9134Y-3.5846
X0.9191Y-3.6468
X0.9252Y-0.9646
X0.9404Y-3.9029
X0.9764Y-3.6634
X0.9966Y-3.9508
X1.0551Y-3.7185
X1.1569Y-3.9935
X1.1805Y-3.5668
X1.1918Y-3.9679
X1.2241Y-3.9445
X1.2303Y-4.3701
X1.258Y-3.6803
X1.2598Y-4.3662
X1.2779Y-3.6435
X1.2858Y-3.6035
X1.2909Y-3.7865
X1.3129Y-3.7465
X1.3145Y-3.7063
X1.3189Y-2.9724
X1.319Y-3.5453
X1.3439Y-3.8404
X1.4567Y-3.878
X1.5354Y-3.5039
X2.0965Y-0.7972
X2.2343Y-0.7972
X2.3327Y-0.915
X2.3819Y-0.9744
X2.6083Y-0.9744
X2.628Y-0.6496
X2.7854Y-0.6496
X2.815Y-0.935
T2
X1.0314Y-3.7894
X1.0669Y-3.7539
X1.0669Y-3.8249
X1.1024Y-3.7184
X1.1024Y-3.7894
X1.1024Y-3.8604
X1.1379Y-3.7539
X1.1379Y-3.8249
X1.1734Y-3.7894
T3
X0.5315Y-0.8465
X0.6102Y-0.8465
X0.6654Y-2.7697
X0.6693Y-0.748
X0.689Y-2.9724
X0.7105Y-3.0285
X0.7776Y-1.6142
X0.7953Y-2.939
X0.8228Y-2.0177
X0.9144Y-3.0266
X0.9252Y-1.6142
X0.9646Y-0.6299
X0.9882Y-1.2579
X0.9921Y-2.9547
X1.0138Y-3.1988
X1.0236Y-3.0413
X1.0627Y-0.7972
X1.0728Y-3.1594
X1.1024Y-2.9823
X1.1417Y-3.7028
X1.1469Y-3.3774
X1.1496Y-2.1516
X1.1803Y-3.433
X1.2099Y-2.8095
X1.2679Y-2.7425
X1.3259Y-2.6875
X1.3287Y-2.6083
X1.4029Y-2.8085
X1.4069Y-2.6085
X1.437Y-4.2736
X1.4659Y-2.7465
X1.4961Y-2.2539
X1.4961Y-2.3248
X1.4979Y-2.0045
X1.4979Y-2.0625
X1.5209Y-2.6965
X1.5748Y-2.687
X1.5749Y-3.2905
X1.5799Y-2.6315
X1.5909Y-1.248
X1.592Y-1.311
X1.6319Y-2.0045
X1.6329Y-2.0615
X1.6339Y-2.3248
X1.6339Y-2.2539
X1.689Y-2.7618
X1.7205Y-3.5217
X1.7244Y-1.248
X1.7244Y-1.311
X1.7598Y-2.0138
X1.8996Y-1.2795
X2.0818Y-0.7564
X2.1111Y-0.7272
X2.2196Y-0.7272
X2.2489Y-0.7564
X2.2809Y-3.0935
X2.2874Y-2.2894
X2.4331Y-0.8878
X2.4409Y-0.8366
X2.4843Y-1.2618
X2.5Y-0.8071
X2.5591Y-0.8366
X2.5591Y-4.2618
X2.6003Y-3.8129
X2.6279Y-3.8445
X2.6929Y-2.0098
X2.7095Y-0.6299
X2.7244Y-2.7657
X2.937Y-3.5217
X3.2362Y-1.2028
X3.3622Y-3.5869
X3.5Y-1.9587
X3.5236Y-2.7343
X3.7323Y-3.5453
X3.7559Y-4.3209
X4.0197Y-1.3051
X4.2283Y-2.1201
X4.252Y-2.8878
X4.3433Y-3.7401
X4.4646Y-3.7067
X4.748Y-1.4665
X4.866Y-3.1297
X4.9252Y-1.9862
X4.9606Y-2.2736
X4.9882Y-3.0374
X5.0433Y-4.5846
X5.2008Y-3.8524
X5.4882Y-1.6201
X5.6535Y-4.0052
X5.685Y-2.4295
X5.7028Y-4.8406
X5.7244Y-3.2028
X5.937Y-4.0177
X6.0315Y-1.8858
X6.0945Y-4.8406
X6.2126Y-1.7717
X6.5441Y-4.1068
X6.7913Y-1.9862
T4
X0.6718Y-2.552
X0.6718Y-2.6012
X0.721Y-2.552
X0.721Y-2.6012
X0.8318Y-1.802
X0.8318Y-1.8512
X0.881Y-1.802
X0.881Y-1.8512
X0.9957Y-1.052
X0.9957Y-1.1012
X1.0449Y-1.052
X1.0449Y-1.1012
X1.2032Y-2.4535
X1.2032Y-2.5028
X1.2525Y-2.4535
X1.2525Y-2.5028
X1.3633Y-1.7035
X1.3633Y-1.7528
X1.4125Y-1.7035
X1.4125Y-1.7528
X1.4454Y-4.052
X1.4454Y-4.1012
X1.4946Y-4.052
X1.4946Y-4.1012
X1.5272Y-0.9535
X1.5272Y-1.0028
X1.5764Y-0.9535
X1.5764Y-1.0028
X1.703Y-2.552
X1.703Y-2.6012
X1.7261Y-3.302
X1.7261Y-3.3512
X1.7457Y-1.052
X1.7457Y-1.1012
X1.7522Y-2.552
X1.7522Y-2.6012
X1.7693Y-1.802
X1.7693Y-1.8512
X1.7753Y-3.302
X1.7753Y-3.3512
X1.7949Y-1.052
X1.7949Y-1.1012
X1.8185Y-1.802
X1.8185Y-1.8512
X1.9769Y-3.9535
X1.9769Y-4.0028
X2.0261Y-3.9535
X2.0261Y-4.0028
X2.2345Y-2.4535
X2.2345Y-2.5028
X2.2576Y-3.2035
X2.2576Y-3.2528
X2.2772Y-0.9535
X2.2772Y-1.0028
X2.2837Y-2.4535
X2.2837Y-2.5028
X2.3008Y-1.7035
X2.3008Y-1.7528
X2.3068Y-3.2035
X2.3068Y-3.2528
X2.3264Y-0.9535
X2.3264Y-1.0028
X2.35Y-1.7035
X2.35Y-1.7528
X2.4957Y-1.052
X2.4957Y-1.1012
X2.5449Y-1.052
X2.5449Y-1.1012
X2.5704Y-4.052
X2.5704Y-4.1012
X2.6196Y-4.052
X2.6196Y-4.1012
X2.7067Y-1.802
X2.7067Y-1.8512
X2.7343Y-2.552
X2.7343Y-2.6012
X2.7559Y-1.802
X2.7559Y-1.8512
X2.7835Y-2.552
X2.7835Y-2.6012
X2.9449Y-3.302
X2.9449Y-3.3512
X2.9941Y-3.302
X2.9941Y-3.3512
X3.0272Y-0.9535
X3.0272Y-1.0028
X3.0764Y-0.9535
X3.0764Y-1.0028
X3.1019Y-3.9535
X3.1019Y-4.0028
X3.1511Y-3.9535
X3.1511Y-4.0028
X3.2382Y-1.7035
X3.2382Y-1.7528
X3.2457Y-0.9929
X3.2457Y-1.0421
X3.2657Y-2.4535
X3.2657Y-2.5028
X3.2874Y-1.7035
X3.2874Y-1.7528
X3.2949Y-0.9929
X3.2949Y-1.0421
X3.315Y-2.4535
X3.315Y-2.5028
X3.4764Y-3.2035
X3.4764Y-3.2528
X3.5256Y-3.2035
X3.5256Y-3.2528
X3.5371Y-1.8002
X3.5474Y-1.752
X3.5646Y-2.5728
X3.5748Y-2.5246
X3.5853Y-1.8104
X3.5955Y-1.7623
X3.6127Y-2.583
X3.623Y-2.5349
X3.7755Y-3.3843
X3.7772Y-0.8945
X3.7772Y-0.9437
X3.7857Y-3.3362
X3.8029Y-4.1569
X3.8132Y-4.1088
X3.8236Y-3.3946
X3.8264Y-0.8945
X3.8264Y-0.9437
X3.8338Y-3.3464
X3.8511Y-4.1672
X3.8613Y-4.119
X4.0599Y-1.1445
X4.0701Y-1.0964
X4.0775Y-1.8144
X4.0877Y-1.7663
X4.1049Y-2.587
X4.108Y-1.1548
X4.1152Y-2.5389
X4.1182Y-1.1066
X4.1256Y-1.8246
X4.1358Y-1.7765
X4.1531Y-2.5972
X4.1633Y-2.5491
X4.2707Y-1.9561
X4.281Y-1.908
X4.2982Y-2.7287
X4.3084Y-2.6806
X4.3158Y-3.3986
X4.3189Y-1.9663
X4.326Y-3.3504
X4.3291Y-1.9182
X4.3433Y-4.1712
X4.3463Y-2.7389
X4.3535Y-4.123
X4.3566Y-2.6908
X4.3639Y-3.4088
X4.3742Y-3.3607
X4.3914Y-4.1814
X4.4016Y-4.1333
X4.5091Y-3.5403
X4.5193Y-3.4921
X4.5572Y-3.5505
X4.5674Y-3.5024
X4.6002Y-1.1588
X4.6104Y-1.1106
X4.6484Y-1.169
X4.6586Y-1.1208
X4.7935Y-1.3005
X4.8037Y-1.2523
X4.8111Y-1.9703
X4.8213Y-1.9222
X4.8385Y-2.7429
X4.8416Y-1.3107
X4.8488Y-2.6948
X4.8518Y-1.2626
X4.8592Y-1.9806
X4.8695Y-1.9324
X4.8867Y-2.7532
X4.8969Y-2.705
X5.0043Y-2.112
X5.0146Y-2.0639
X5.0318Y-2.8846
X5.042Y-2.8365
X5.0494Y-3.5545
X5.0525Y-2.1223
X5.0597Y-3.5064
X5.0627Y-2.0741
X5.08Y-2.8949
X5.0867Y-4.4298
X5.0902Y-2.8467
X5.097Y-4.3817
X5.0976Y-3.5647
X5.1078Y-3.5166
X5.1349Y-4.44
X5.1451Y-4.3919
X5.2427Y-3.6962
X5.2529Y-3.6481
X5.2908Y-3.7064
X5.3011Y-3.6583
X5.3338Y-1.3147
X5.3441Y-1.2666
X5.382Y-1.3249
X5.3922Y-1.2768
X5.5271Y-1.4564
X5.5373Y-1.4083
X5.5447Y-2.1263
X5.5549Y-2.0781
X5.5722Y-2.8989
X5.5752Y-1.4666
X5.5824Y-2.8507
X5.5855Y-1.4185
X5.5928Y-2.1365
X5.6031Y-2.0884
X5.6203Y-2.9091
X5.6271Y-4.444
X5.6305Y-2.861
X5.6373Y-4.3959
X5.6752Y-4.4543
X5.6855Y-4.4061
X5.738Y-2.268
X5.7482Y-2.2198
X5.7654Y-3.0406
X5.7757Y-2.9924
X5.783Y-3.7104
X5.7861Y-2.2782
X5.7933Y-3.6623
X5.7963Y-2.2301
X5.8136Y-3.0508
X5.8238Y-3.0027
X5.8312Y-3.7207
X5.8414Y-3.6725
X5.9763Y-3.8521
X5.9865Y-3.804
X6.0244Y-3.8624
X6.0347Y-3.8142
X6.0674Y-1.4706
X6.0777Y-1.4225
X6.1156Y-1.4809
X6.1258Y-1.4327
X6.1872Y-4.6637
X6.1974Y-4.6156
X6.2353Y-4.6739
X6.2455Y-4.6258
X6.2607Y-1.6123
X6.2709Y-1.5642
X6.2783Y-2.2822
X6.2885Y-2.2341
X6.3058Y-3.0548
X6.3088Y-1.6226
X6.316Y-3.0067
X6.3191Y-1.5744
X6.3264Y-2.2924
X6.3367Y-2.2443
X6.3539Y-3.065
X6.3641Y-3.0169
X6.5166Y-3.8664
X6.5269Y-3.8182
X6.5648Y-3.8766
X6.575Y-3.8285
X6.7275Y-4.6779
X6.7377Y-4.6298
X6.7756Y-4.6882
X6.7859Y-4.64
X6.801Y-1.6266
X6.8113Y-1.5784
X6.8492Y-1.6368
X6.8594Y-1.5886
T6
X2.1638Y-4.4882
X2.2138Y-4.4882
X2.2638Y-4.4882
T7
X0.8667Y-3.9354
X0.8667Y-4.0354
T5
G00X1.9953Y-0.6685
M15
G01X1.9953Y-0.6449
M16
G05
G00X1.9953Y-0.8429
M15
G01X1.9953Y-0.7996
M16
G05
G00X2.3354Y-0.6685
M15
G01X2.3354Y-0.6449
M16
G05
G00X2.3354Y-0.8429
M15
G01X2.3354Y-0.7996
M16
G05
T0
M30
