M48
; DRILL file {KiCad (6.0.9)} date Thu 10 Nov 2022 21:17:30 CET
; FORMAT={-:-/ absolute / inch / decimal}
; #@! TF.CreationDate,2022-11-10T21:17:30+01:00
; #@! TF.GenerationSoftware,Kicad,Pcbnew,(6.0.9)
; #@! TF.FileFunction,NonPlated,1,2,NPTH
FMAT,2
INCH
; #@! TA.AperFunction,NonPlated,NPTH,ComponentDrill
T1C0.0256
; #@! TA.AperFunction,NonPlated,NPTH,ComponentDrill
T2C0.0669
; #@! TA.AperFunction,NonPlated,NPTH,ComponentDrill
T3C0.1181
; #@! TA.AperFunction,NonPlated,NPTH,ComponentDrill
T4C0.1575
%
G90
G05
T1
X2.0516Y-0.8016
X2.2791Y-0.8016
T2
X0.7087Y-0.8071
X0.7087Y-1.0827
T3
X0.8367Y-2.5799
X0.9968Y-1.8299
X1.0867Y-2.4799
X1.1606Y-1.0799
X1.2468Y-1.7299
X1.4106Y-0.9799
X1.6103Y-4.0799
X1.8603Y-3.9799
X1.868Y-2.5799
X1.8911Y-3.3299
X1.9106Y-1.0799
X1.9343Y-1.8299
X2.118Y-2.4799
X2.1411Y-3.2299
X2.1606Y-0.9799
X2.1843Y-1.7299
X2.6606Y-1.0799
X2.7353Y-4.0799
X2.8717Y-1.8299
X2.8992Y-2.5799
X2.9106Y-0.9799
X2.9853Y-3.9799
X3.1098Y-3.3299
X3.1217Y-1.7299
X3.1492Y-2.4799
X3.3598Y-3.2299
X3.4106Y-1.0209
X3.6606Y-0.9209
X3.7029Y-1.8137
X3.7304Y-2.5863
X3.9412Y-3.3978
X3.9682Y-1.7678
X3.9687Y-4.1704
X3.9957Y-2.5404
X4.2066Y-3.352
X4.2256Y-1.158
X4.234Y-4.1246
X4.4365Y-1.9696
X4.464Y-2.7422
X4.491Y-1.1122
X4.6748Y-3.5538
X4.7018Y-1.9238
X4.7293Y-2.6964
X4.9402Y-3.5079
X4.9593Y-1.314
X5.1701Y-2.1255
X5.1976Y-2.8981
X5.2246Y-1.2681
X5.2525Y-4.4433
X5.4085Y-3.7097
X5.4355Y-2.0797
X5.4629Y-2.8523
X5.5179Y-4.3975
X5.6738Y-3.6639
X5.6929Y-1.4699
X5.9037Y-2.2815
X5.9312Y-3.0541
X5.9582Y-1.4241
X6.1421Y-3.8656
X6.1691Y-2.2356
X6.1965Y-3.0082
X6.3529Y-4.6772
X6.4074Y-3.8198
X6.4265Y-1.6258
X6.6183Y-4.6314
X6.6918Y-1.58
T4
X0.9867Y-2.6799
X1.1468Y-1.9299
X1.3106Y-1.1799
X1.7603Y-4.1799
X2.018Y-2.6799
X2.0411Y-3.4299
X2.0606Y-1.1799
X2.0843Y-1.9299
X2.8106Y-1.1799
X2.8853Y-4.1799
X3.0217Y-1.9299
X3.0492Y-2.6799
X3.2598Y-3.4299
X3.5606Y-1.1209
X3.8288Y-1.9427
X3.8563Y-2.7153
X4.0672Y-3.5268
X4.0946Y-4.2994
X4.3516Y-1.287
X4.5624Y-2.0986
X4.5899Y-2.8712
X4.8008Y-3.6828
X5.0852Y-1.443
X5.2961Y-2.2545
X5.3235Y-3.0271
X5.3785Y-4.5723
X5.5344Y-3.8387
X5.8188Y-1.5989
X6.0297Y-2.4105
X6.0571Y-3.1831
X6.268Y-3.9946
X6.4789Y-4.8062
X6.5524Y-1.7548
T0
M30
